{"asset":{"version":"2.0","generator":"Blockbench 4.8.3 glTF exporter"},"scenes":[{"nodes":[10],"name":"blockbench_export"}],"scene":0,"nodes":[{"translation":[-0.375,-0.6875,0],"name":"LeftHand"},{"translation":[0.4375,0.5625,0],"name":"l","children":[0]},{"translation":[0.375,-0.6875,0],"name":"RightHand"},{"translation":[0.125,1.1875,0.5],"name":"R1","children":[2]},{"translation":[0.5,0.5,0.5],"name":"extdmb"},{"translation":[0.5,0.5,0.5],"name":"mb"},{"translation":[0.426491875,0.67578125,0.683021875],"name":"pulls"},{"name":"hcar","children":[4,5,6]},{"translation":[-0.4375,-0.625,-0.5],"name":"R2","children":[3,7]},{"translation":[0.4375,0.625,0.5],"name":"root","children":[1,8]},{"children":[9]}],"animations":[{"name":"reload_empty","samplers":[{"input":0,"output":1,"interpolation":"LINEAR"},{"input":2,"output":3,"interpolation":"LINEAR"},{"input":4,"output":5,"interpolation":"LINEAR"},{"input":6,"output":7,"interpolation":"LINEAR"},{"input":8,"output":9,"interpolation":"LINEAR"},{"input":10,"output":11,"interpolation":"LINEAR"},{"input":12,"output":13,"interpolation":"LINEAR"},{"input":14,"output":15,"interpolation":"LINEAR"},{"input":16,"output":17,"interpolation":"LINEAR"},{"input":18,"output":19,"interpolation":"LINEAR"},{"input":20,"output":21,"interpolation":"LINEAR"}],"channels":[{"sampler":0,"target":{"node":9,"path":"rotation"}},{"sampler":1,"target":{"node":9,"path":"translation"}},{"sampler":2,"target":{"node":3,"path":"rotation"}},{"sampler":3,"target":{"node":3,"path":"translation"}},{"sampler":4,"target":{"node":3,"path":"scale"}},{"sampler":5,"target":{"node":6,"path":"translation"}},{"sampler":6,"target":{"node":4,"path":"rotation"}},{"sampler":7,"target":{"node":4,"path":"translation"}},{"sampler":8,"target":{"node":1,"path":"rotation"}},{"sampler":9,"target":{"node":1,"path":"translation"}},{"sampler":10,"target":{"node":1,"path":"scale"}}]}],"bufferViews":[{"buffer":0,"byteOffset":0,"byteLength":244},{"buffer":0,"byteOffset":244,"byteLength":976},{"buffer":0,"byteOffset":1220,"byteLength":252},{"buffer":0,"byteOffset":1472,"byteLength":756},{"buffer":0,"byteOffset":2228,"byteLength":4},{"buffer":0,"byteOffset":2232,"byteLength":16},{"buffer":0,"byteOffset":2248,"byteLength":4},{"buffer":0,"byteOffset":2252,"byteLength":12},{"buffer":0,"byteOffset":2264,"byteLength":4},{"buffer":0,"byteOffset":2268,"byteLength":12},{"buffer":0,"byteOffset":2280,"byteLength":20},{"buffer":0,"byteOffset":2300,"byteLength":60},{"buffer":0,"byteOffset":2360,"byteLength":116},{"buffer":0,"byteOffset":2476,"byteLength":464},{"buffer":0,"byteOffset":2940,"byteLength":120},{"buffer":0,"byteOffset":3060,"byteLength":360},{"buffer":0,"byteOffset":3420,"byteLength":220},{"buffer":0,"byteOffset":3640,"byteLength":880},{"buffer":0,"byteOffset":4520,"byteLength":220},{"buffer":0,"byteOffset":4740,"byteLength":660},{"buffer":0,"byteOffset":5400,"byteLength":4},{"buffer":0,"byteOffset":5404,"byteLength":12}],"buffers":[{"byteLength":5416,"uri":"data:application/octet-stream;base64,"}],"accessors":[{"bufferView":0,"componentType":5126,"count":61,"max":[3.9166667461395264],"min":[0],"type":"SCALAR"},{"bufferView":1,"componentType":5126,"count":61,"max":[0.11337164789438248,0.03541859984397888,0.008586854673922062,1],"min":[-0.007628078106790781,-0.007203436456620693,-0.2889496088027954,0.9548133611679077],"type":"VEC4"},{"bufferView":2,"componentType":5126,"count":63,"max":[4.083333492279053],"min":[0],"type":"SCALAR"},{"bufferView":3,"componentType":5126,"count":63,"max":[0.4644867777824402,0.736415445804596,0.688281238079071],"min":[0.3865624964237213,0.6158259510993958,0.3984375],"type":"VEC3"},{"bufferView":4,"componentType":5126,"count":1,"max":[0],"min":[0],"type":"SCALAR"},{"bufferView":5,"componentType":5126,"count":1,"max":[-0.042040321975946426,0.764404296875,-0.6414113640785217,-0.05010170489549637],"min":[-0.042040321975946426,0.764404296875,-0.6414113640785217,-0.05010170489549637],"type":"VEC4"},{"bufferView":6,"componentType":5126,"count":1,"max":[0],"min":[0],"type":"SCALAR"},{"bufferView":7,"componentType":5126,"count":1,"max":[0.53125,0.4375,0.953125],"min":[0.53125,0.4375,0.953125],"type":"VEC3"},{"bufferView":8,"componentType":5126,"count":1,"max":[0],"min":[0],"type":"SCALAR"},{"bufferView":9,"componentType":5126,"count":1,"max":[1,1.399999976158142,1],"min":[1,1.399999976158142,1],"type":"VEC3"},{"bufferView":10,"componentType":5126,"count":5,"max":[3.0416667461395264],"min":[0],"type":"SCALAR"},{"bufferView":11,"componentType":5126,"count":5,"max":[0.4264918863773346,0.67578125,0.9252094030380249],"min":[0.4264918863773346,0.67578125,0.6830219030380249],"type":"VEC3"},{"bufferView":12,"componentType":5126,"count":29,"max":[1.9583333730697632],"min":[0],"type":"SCALAR"},{"bufferView":13,"componentType":5126,"count":29,"max":[0.8086809515953064,0.1312481313943863,0,1],"min":[0,-0.06438809633255005,-0.3782629370689392,0.5718494653701782],"type":"VEC4"},{"bufferView":14,"componentType":5126,"count":30,"max":[1.9583333730697632],"min":[0],"type":"SCALAR"},{"bufferView":15,"componentType":5126,"count":30,"max":[0.5,0.5,1.4870312213897705],"min":[0.040564488619565964,-0.9676159620285034,0.44868266582489014],"type":"VEC3"},{"bufferView":16,"componentType":5126,"count":55,"max":[3.5416667461395264],"min":[0],"type":"SCALAR"},{"bufferView":17,"componentType":5126,"count":55,"max":[0.24981491267681122,0.8938863277435303,-0.0429631844162941,0.7465787529945374],"min":[-0.33808526396751404,0.4875168204307556,-0.8154851198196411,-0.389598548412323],"type":"VEC4"},{"bufferView":18,"componentType":5126,"count":55,"max":[3.5416667461395264],"min":[0],"type":"SCALAR"},{"bufferView":19,"componentType":5126,"count":55,"max":[0.07544414699077606,0.06709376722574234,1.0085937976837158],"min":[-1.2854686975479126,-0.8743749856948853,-0.375],"type":"VEC3"},{"bufferView":20,"componentType":5126,"count":1,"max":[0],"min":[0],"type":"SCALAR"},{"bufferView":21,"componentType":5126,"count":1,"max":[1,1.399999976158142,1],"min":[1,1.399999976158142,1],"type":"VEC3"}]}