{"asset":{"version":"2.0","generator":"Blockbench 4.8.3 glTF exporter"},"scenes":[{"nodes":[10],"name":"blockbench_export"}],"scene":0,"nodes":[{"translation":[-0.375,-0.6875,0],"name":"LeftHand"},{"translation":[0.4375,0.5625,0],"name":"l","children":[0]},{"translation":[0.375,-0.6875,0],"name":"RightHand"},{"translation":[0.125,1.1875,0.5],"name":"R1","children":[2]},{"translation":[0.5,0.5,0.5],"name":"extdmb"},{"translation":[0.5,0.5,0.5],"name":"mb"},{"translation":[0.426491875,0.67578125,0.683021875],"name":"pulls"},{"name":"hcar","children":[4,5,6]},{"translation":[-0.4375,-0.625,-0.5],"name":"R2","children":[3,7]},{"translation":[0.4375,0.625,0.5],"name":"root","children":[1,8]},{"children":[9]}],"animations":[{"name":"inspect","samplers":[{"input":0,"output":1,"interpolation":"LINEAR"},{"input":2,"output":3,"interpolation":"LINEAR"},{"input":4,"output":5,"interpolation":"LINEAR"},{"input":6,"output":7,"interpolation":"LINEAR"},{"input":8,"output":9,"interpolation":"LINEAR"},{"input":10,"output":11,"interpolation":"LINEAR"},{"input":12,"output":13,"interpolation":"LINEAR"},{"input":14,"output":15,"interpolation":"LINEAR"}],"channels":[{"sampler":0,"target":{"node":9,"path":"rotation"}},{"sampler":1,"target":{"node":9,"path":"translation"}},{"sampler":2,"target":{"node":3,"path":"rotation"}},{"sampler":3,"target":{"node":3,"path":"translation"}},{"sampler":4,"target":{"node":3,"path":"scale"}},{"sampler":5,"target":{"node":1,"path":"rotation"}},{"sampler":6,"target":{"node":1,"path":"translation"}},{"sampler":7,"target":{"node":1,"path":"scale"}}]}],"bufferViews":[{"buffer":0,"byteOffset":0,"byteLength":320},{"buffer":0,"byteOffset":320,"byteLength":1280},{"buffer":0,"byteOffset":1600,"byteLength":320},{"buffer":0,"byteOffset":1920,"byteLength":960},{"buffer":0,"byteOffset":2880,"byteLength":4},{"buffer":0,"byteOffset":2884,"byteLength":16},{"buffer":0,"byteOffset":2900,"byteLength":4},{"buffer":0,"byteOffset":2904,"byteLength":12},{"buffer":0,"byteOffset":2916,"byteLength":4},{"buffer":0,"byteOffset":2920,"byteLength":12},{"buffer":0,"byteOffset":2932,"byteLength":304},{"buffer":0,"byteOffset":3236,"byteLength":1216},{"buffer":0,"byteOffset":4452,"byteLength":172},{"buffer":0,"byteOffset":4624,"byteLength":516},{"buffer":0,"byteOffset":5140,"byteLength":4},{"buffer":0,"byteOffset":5144,"byteLength":12}],"buffers":[{"byteLength":5156,"uri":"data:application/octet-stream;base64,"}],"accessors":[{"bufferView":0,"componentType":5126,"count":80,"max":[4.833333492279053],"min":[0],"type":"SCALAR"},{"bufferView":1,"componentType":5126,"count":80,"max":[0.3711763024330139,0.38157790899276733,0.6030169725418091,1],"min":[-0.006476876325905323,-0.007034162059426308,-0.3182815611362457,0.7029878497123718],"type":"VEC4"},{"bufferView":2,"componentType":5126,"count":80,"max":[4.833333492279053],"min":[0],"type":"SCALAR"},{"bufferView":3,"componentType":5126,"count":80,"max":[0.45443886518478394,0.9232620596885681,0.5148652791976929],"min":[0.21808084845542908,0.47109174728393555,0.3962174654006958],"type":"VEC3"},{"bufferView":4,"componentType":5126,"count":1,"max":[0],"min":[0],"type":"SCALAR"},{"bufferView":5,"componentType":5126,"count":1,"max":[-0.042040321975946426,0.764404296875,-0.6414113640785217,-0.05010170489549637],"min":[-0.042040321975946426,0.764404296875,-0.6414113640785217,-0.05010170489549637],"type":"VEC4"},{"bufferView":6,"componentType":5126,"count":1,"max":[0],"min":[0],"type":"SCALAR"},{"bufferView":7,"componentType":5126,"count":1,"max":[0.53125,0.4375,0.953125],"min":[0.53125,0.4375,0.953125],"type":"VEC3"},{"bufferView":8,"componentType":5126,"count":1,"max":[0],"min":[0],"type":"SCALAR"},{"bufferView":9,"componentType":5126,"count":1,"max":[1,1.399999976158142,1],"min":[1,1.399999976158142,1],"type":"VEC3"},{"bufferView":10,"componentType":5126,"count":76,"max":[4.666666507720947],"min":[0],"type":"SCALAR"},{"bufferView":11,"componentType":5126,"count":76,"max":[0.8445308804512024,0.909481406211853,-0.07170642167329788,0.13270235061645508],"min":[0.04297705739736557,0.5168669819831848,-0.6205686330795288,-0.2246946543455124],"type":"VEC4"},{"bufferView":12,"componentType":5126,"count":43,"max":[4.458333492279053],"min":[0],"type":"SCALAR"},{"bufferView":13,"componentType":5126,"count":43,"max":[0.08984375,0.28484106063842773,-0.375],"min":[-0.060115061700344086,-0.12741515040397644,-0.375],"type":"VEC3"},{"bufferView":14,"componentType":5126,"count":1,"max":[0],"min":[0],"type":"SCALAR"},{"bufferView":15,"componentType":5126,"count":1,"max":[1,1.399999976158142,1],"min":[1,1.399999976158142,1],"type":"VEC3"}]}