{"asset":{"version":"2.0","generator":"Blockbench 4.8.3 glTF exporter"},"scenes":[{"nodes":[10],"name":"blockbench_export"}],"scene":0,"nodes":[{"translation":[-0.375,-0.6875,0],"name":"LeftHand"},{"translation":[0.4375,0.5625,0],"name":"l","children":[0]},{"translation":[0.375,-0.6875,0],"name":"RightHand"},{"translation":[0.125,1.1875,0.5],"name":"R1","children":[2]},{"translation":[0.5,0.5,0.5],"name":"extdmb"},{"translation":[0.5,0.5,0.5],"name":"mb"},{"translation":[0.426491875,0.67578125,0.683021875],"name":"pulls"},{"name":"hcar","children":[4,5,6]},{"translation":[-0.4375,-0.625,-0.5],"name":"R2","children":[3,7]},{"translation":[0.4375,0.625,0.5],"name":"root","children":[1,8]},{"children":[9]}],"animations":[{"name":"draw","samplers":[{"input":0,"output":1,"interpolation":"LINEAR"},{"input":2,"output":3,"interpolation":"LINEAR"},{"input":4,"output":5,"interpolation":"LINEAR"},{"input":6,"output":7,"interpolation":"LINEAR"},{"input":8,"output":9,"interpolation":"LINEAR"},{"input":10,"output":11,"interpolation":"LINEAR"},{"input":12,"output":13,"interpolation":"LINEAR"},{"input":14,"output":15,"interpolation":"LINEAR"}],"channels":[{"sampler":0,"target":{"node":3,"path":"rotation"}},{"sampler":1,"target":{"node":3,"path":"translation"}},{"sampler":2,"target":{"node":3,"path":"scale"}},{"sampler":3,"target":{"node":9,"path":"rotation"}},{"sampler":4,"target":{"node":9,"path":"translation"}},{"sampler":5,"target":{"node":1,"path":"rotation"}},{"sampler":6,"target":{"node":1,"path":"translation"}},{"sampler":7,"target":{"node":1,"path":"scale"}}]}],"bufferViews":[{"buffer":0,"byteOffset":0,"byteLength":4},{"buffer":0,"byteOffset":4,"byteLength":16},{"buffer":0,"byteOffset":20,"byteLength":4},{"buffer":0,"byteOffset":24,"byteLength":12},{"buffer":0,"byteOffset":36,"byteLength":4},{"buffer":0,"byteOffset":40,"byteLength":12},{"buffer":0,"byteOffset":52,"byteLength":60},{"buffer":0,"byteOffset":112,"byteLength":240},{"buffer":0,"byteOffset":352,"byteLength":64},{"buffer":0,"byteOffset":416,"byteLength":192},{"buffer":0,"byteOffset":608,"byteLength":28},{"buffer":0,"byteOffset":636,"byteLength":112},{"buffer":0,"byteOffset":748,"byteLength":28},{"buffer":0,"byteOffset":776,"byteLength":84},{"buffer":0,"byteOffset":860,"byteLength":4},{"buffer":0,"byteOffset":864,"byteLength":12}],"buffers":[{"byteLength":876,"uri":"data:application/octet-stream;base64,"}],"accessors":[{"bufferView":0,"componentType":5126,"count":1,"max":[0],"min":[0],"type":"SCALAR"},{"bufferView":1,"componentType":5126,"count":1,"max":[-0.042040321975946426,0.764404296875,-0.6414113640785217,-0.05010170489549637],"min":[-0.042040321975946426,0.764404296875,-0.6414113640785217,-0.05010170489549637],"type":"VEC4"},{"bufferView":2,"componentType":5126,"count":1,"max":[0],"min":[0],"type":"SCALAR"},{"bufferView":3,"componentType":5126,"count":1,"max":[0.53125,0.4375,0.953125],"min":[0.53125,0.4375,0.953125],"type":"VEC3"},{"bufferView":4,"componentType":5126,"count":1,"max":[0],"min":[0],"type":"SCALAR"},{"bufferView":5,"componentType":5126,"count":1,"max":[1,1.399999976158142,1],"min":[1,1.399999976158142,1],"type":"VEC3"},{"bufferView":6,"componentType":5126,"count":15,"max":[0.875],"min":[0],"type":"SCALAR"},{"bufferView":7,"componentType":5126,"count":15,"max":[0.02563171647489071,0.22691358625888824,0.13357967138290405,1],"min":[-0.4647526741027832,-0.0014241079334169626,-0.12448905408382416,0.8468530178070068],"type":"VEC4"},{"bufferView":8,"componentType":5126,"count":16,"max":[0.9166666865348816],"min":[0],"type":"SCALAR"},{"bufferView":9,"componentType":5126,"count":16,"max":[0.4375,0.6374617218971252,1.20703125],"min":[0.25,-0.625,0.15647386014461517],"type":"VEC3"},{"bufferView":10,"componentType":5126,"count":7,"max":[0.875],"min":[0],"type":"SCALAR"},{"bufferView":11,"componentType":5126,"count":7,"max":[0.10017941892147064,0.776062548160553,-0.6173523664474487,0.1073918491601944],"min":[0.08169940859079361,0.7714719772338867,-0.6211063861846924,0.09332668036222458],"type":"VEC4"},{"bufferView":12,"componentType":5126,"count":7,"max":[0.875],"min":[0],"type":"SCALAR"},{"bufferView":13,"componentType":5126,"count":7,"max":[0.03125,-0.125,-0.3583984375],"min":[0.03125,-0.125,-0.375],"type":"VEC3"},{"bufferView":14,"componentType":5126,"count":1,"max":[0],"min":[0],"type":"SCALAR"},{"bufferView":15,"componentType":5126,"count":1,"max":[1,1.399999976158142,1],"min":[1,1.399999976158142,1],"type":"VEC3"}]}