{"asset":{"version":"2.0","generator":"Blockbench 4.8.3 glTF exporter"},"scenes":[{"nodes":[14],"name":"blockbench_export"}],"scene":0,"nodes":[{"translation":[-0.001311447187056669,0.05706314428136117,0.17826969650218105],"name":"Magazine_3"},{"translation":[0,0.056634687500000225,0.22701336538461536],"name":"bullet"},{"translation":[0,0.015627812500000005,-0.027346874999999993],"name":"Magazine_2","children":[0,1]},{"translation":[0,0.03320624999999999,-0.31835625],"name":"Magazine_1","children":[2]},{"translation":[-0.021359062500000026,-0.5320024999999999,-0.07913512944173828],"name":"Sight_left"},{"translation":[0.021532812499999998,-0.5320024999999999,-0.07913512944173828],"name":"Sight_right"},{"translation":[-0.00008687499999998627,0.78417,0.05201500000000003],"name":"Sight","children":[4,5]},{"translation":[0,0.015625,-0.046875],"name":"GunRoot","children":[3,6]},{"translation":[0.375,-0.625,0.0625],"name":"RightHand"},{"translation":[-0.375,0.390625,0.078125],"name":"R","children":[8]},{"translation":[0,-0.015625,0.109375],"name":"bone1","children":[7,9]},{"translation":[-0.375,-0.625,0.0625],"name":"LeftHand"},{"translation":[0.375,0.375,0.1875],"name":"L","children":[11]},{"translation":[0.5,0.75,0.25],"name":"bone2","children":[10,12]},{"children":[13]}],"animations":[{"name":"reload","samplers":[{"input":0,"output":1,"interpolation":"LINEAR"},{"input":2,"output":3,"interpolation":"LINEAR"},{"input":4,"output":5,"interpolation":"LINEAR"},{"input":6,"output":7,"interpolation":"LINEAR"},{"input":8,"output":9,"interpolation":"LINEAR"},{"input":10,"output":11,"interpolation":"LINEAR"},{"input":12,"output":13,"interpolation":"LINEAR"},{"input":14,"output":15,"interpolation":"LINEAR"},{"input":16,"output":17,"interpolation":"LINEAR"},{"input":18,"output":19,"interpolation":"LINEAR"},{"input":20,"output":21,"interpolation":"LINEAR"},{"input":22,"output":23,"interpolation":"LINEAR"},{"input":24,"output":25,"interpolation":"LINEAR"}],"channels":[{"sampler":0,"target":{"node":12,"path":"rotation"}},{"sampler":1,"target":{"node":12,"path":"translation"}},{"sampler":2,"target":{"node":10,"path":"rotation"}},{"sampler":3,"target":{"node":10,"path":"translation"}},{"sampler":4,"target":{"node":9,"path":"rotation"}},{"sampler":5,"target":{"node":9,"path":"translation"}},{"sampler":6,"target":{"node":7,"path":"rotation"}},{"sampler":7,"target":{"node":7,"path":"translation"}},{"sampler":8,"target":{"node":3,"path":"rotation"}},{"sampler":9,"target":{"node":2,"path":"translation"}},{"sampler":10,"target":{"node":1,"path":"rotation"}},{"sampler":11,"target":{"node":1,"path":"translation"}},{"sampler":12,"target":{"node":0,"path":"rotation"}}]}],"bufferViews":[{"buffer":0,"byteOffset":0,"byteLength":260},{"buffer":0,"byteOffset":260,"byteLength":1040},{"buffer":0,"byteOffset":1300,"byteLength":256},{"buffer":0,"byteOffset":1556,"byteLength":768},{"buffer":0,"byteOffset":2324,"byteLength":272},{"buffer":0,"byteOffset":2596,"byteLength":1088},{"buffer":0,"byteOffset":3684,"byteLength":260},{"buffer":0,"byteOffset":3944,"byteLength":780},{"buffer":0,"byteOffset":4724,"byteLength":4},{"buffer":0,"byteOffset":4728,"byteLength":16},{"buffer":0,"byteOffset":4744,"byteLength":4},{"buffer":0,"byteOffset":4748,"byteLength":12},{"buffer":0,"byteOffset":4760,"byteLength":196},{"buffer":0,"byteOffset":4956,"byteLength":784},{"buffer":0,"byteOffset":5740,"byteLength":188},{"buffer":0,"byteOffset":5928,"byteLength":564},{"buffer":0,"byteOffset":6492,"byteLength":148},{"buffer":0,"byteOffset":6640,"byteLength":592},{"buffer":0,"byteOffset":7232,"byteLength":140},{"buffer":0,"byteOffset":7372,"byteLength":420},{"buffer":0,"byteOffset":7792,"byteLength":76},{"buffer":0,"byteOffset":7868,"byteLength":304},{"buffer":0,"byteOffset":8172,"byteLength":96},{"buffer":0,"byteOffset":8268,"byteLength":288},{"buffer":0,"byteOffset":8556,"byteLength":48},{"buffer":0,"byteOffset":8604,"byteLength":192}],"buffers":[{"byteLength":8796,"uri":"data:application/octet-stream;base64,"}],"accessors":[{"bufferView":0,"componentType":5126,"count":65,"max":[2.6666667461395264],"min":[0],"type":"SCALAR"},{"bufferView":1,"componentType":5126,"count":65,"max":[0.48126015067100525,0.8975674510002136,-0.24124887585639954,0.31723546981811523],"min":[-0.5282032489776611,0.6053224802017212,-0.7918107509613037,-0.2092028558254242],"type":"VEC4"},{"bufferView":2,"componentType":5126,"count":64,"max":[2.625],"min":[0],"type":"SCALAR"},{"bufferView":3,"componentType":5126,"count":64,"max":[-0.039374999701976776,0.1431249976158142,0.7268750071525574],"min":[-0.7306249737739563,-0.5118749737739563,0.0062500000931322575],"type":"VEC3"},{"bufferView":4,"componentType":5126,"count":68,"max":[2.7916667461395264],"min":[0],"type":"SCALAR"},{"bufferView":5,"componentType":5126,"count":68,"max":[0.7033296823501587,0.32920339703559875,0.20584642887115479,1],"min":[-0.1258535087108612,-0.24767468869686127,-0.2870849072933197,0.6978486180305481],"type":"VEC4"},{"bufferView":6,"componentType":5126,"count":65,"max":[2.6666667461395264],"min":[0],"type":"SCALAR"},{"bufferView":7,"componentType":5126,"count":65,"max":[0.16625000536441803,0.2837499976158142,0.2631250023841858],"min":[-0.07999999821186066,-0.10687500238418579,0.09562499821186066],"type":"VEC3"},{"bufferView":8,"componentType":5126,"count":1,"max":[0],"min":[0],"type":"SCALAR"},{"bufferView":9,"componentType":5126,"count":1,"max":[-0.00196917075663805,0.7511528730392456,-0.6594070196151733,-0.0307878740131855],"min":[-0.00196917075663805,0.7511528730392456,-0.6594070196151733,-0.0307878740131855],"type":"VEC4"},{"bufferView":10,"componentType":5126,"count":1,"max":[0],"min":[0],"type":"SCALAR"},{"bufferView":11,"componentType":5126,"count":1,"max":[0.019375000149011612,-0.06624999642372131,0.015625],"min":[0.019375000149011612,-0.06624999642372131,0.015625],"type":"VEC3"},{"bufferView":12,"componentType":5126,"count":49,"max":[2.1666667461395264],"min":[0.1666666716337204],"type":"SCALAR"},{"bufferView":13,"componentType":5126,"count":49,"max":[0.9726881384849548,0.012544866651296616,0.02507523074746132,1],"min":[-0.0561700239777565,-0.021450525149703026,-0.016312874853610992,-1],"type":"VEC4"},{"bufferView":14,"componentType":5126,"count":47,"max":[2.125],"min":[0.2083333283662796],"type":"SCALAR"},{"bufferView":15,"componentType":5126,"count":47,"max":[0.0006249999860301614,0.015625,-0.046875],"min":[-0.10562500357627869,-0.0037499999161809683,-0.05062500014901161],"type":"VEC3"},{"bufferView":16,"componentType":5126,"count":37,"max":[2.2916667461395264],"min":[0.7916666865348816],"type":"SCALAR"},{"bufferView":17,"componentType":5126,"count":37,"max":[0,0,0.8314695954322815,1],"min":[0,0,0,0.5555702447891235],"type":"VEC4"},{"bufferView":18,"componentType":5126,"count":35,"max":[2.25],"min":[0.8333333134651184],"type":"SCALAR"},{"bufferView":19,"componentType":5126,"count":35,"max":[0,0.07812780886888504,-0.02734687551856041],"min":[0,0.01562781259417534,-0.02734687551856041],"type":"VEC3"},{"bufferView":20,"componentType":5126,"count":19,"max":[1.875],"min":[1.125],"type":"SCALAR"},{"bufferView":21,"componentType":5126,"count":19,"max":[0,0.39803871512413025,0.058173999190330505,1],"min":[-0.14115853607654572,-0.026059065014123917,0,0.9058982133865356],"type":"VEC4"},{"bufferView":22,"componentType":5126,"count":24,"max":[1.875],"min":[0.9166666865348816],"type":"SCALAR"},{"bufferView":23,"componentType":5126,"count":24,"max":[0.05062500014901161,0.3153846859931946,1.2038884162902832],"min":[-0.1443749964237213,0.05663468688726425,0.22701336443424225],"type":"VEC3"},{"bufferView":24,"componentType":5126,"count":12,"max":[1.3333333730697632],"min":[0.875],"type":"SCALAR"},{"bufferView":25,"componentType":5126,"count":12,"max":[0,0,0.3583679497241974,1],"min":[0,0,0,0.9335803985595703],"type":"VEC4"}]}