{"asset":{"version":"2.0","generator":"Blockbench 4.8.3 glTF exporter"},"scenes":[{"nodes":[14],"name":"blockbench_export"}],"scene":0,"nodes":[{"translation":[-0.001311447187056669,0.05706314428136117,0.17826969650218105],"name":"Magazine_3"},{"translation":[0,0.056634687500000225,0.22701336538461536],"name":"bullet"},{"translation":[0,0.015627812500000005,-0.027346874999999993],"name":"Magazine_2","children":[0,1]},{"translation":[0,0.03320624999999999,-0.31835625],"name":"Magazine_1","children":[2]},{"translation":[-0.021359062500000026,-0.5320024999999999,-0.07913512944173828],"name":"Sight_left"},{"translation":[0.021532812499999998,-0.5320024999999999,-0.07913512944173828],"name":"Sight_right"},{"translation":[-0.00008687499999998627,0.78417,0.05201500000000003],"name":"Sight","children":[4,5]},{"translation":[0,0.015625,-0.046875],"name":"GunRoot","children":[3,6]},{"translation":[0.375,-0.625,0.0625],"name":"RightHand"},{"translation":[-0.375,0.390625,0.078125],"name":"R","children":[8]},{"translation":[0,-0.015625,0.109375],"name":"bone1","children":[7,9]},{"translation":[-0.375,-0.625,0.0625],"name":"LeftHand"},{"translation":[0.375,0.375,0.1875],"name":"L","children":[11]},{"translation":[0.5,0.75,0.25],"name":"bone2","children":[10,12]},{"children":[13]}],"animations":[{"name":"draw","samplers":[{"input":0,"output":1,"interpolation":"LINEAR"},{"input":2,"output":3,"interpolation":"LINEAR"},{"input":4,"output":5,"interpolation":"LINEAR"},{"input":6,"output":7,"interpolation":"LINEAR"},{"input":8,"output":9,"interpolation":"LINEAR"},{"input":10,"output":11,"interpolation":"LINEAR"}],"channels":[{"sampler":0,"target":{"node":12,"path":"rotation"}},{"sampler":1,"target":{"node":12,"path":"translation"}},{"sampler":2,"target":{"node":10,"path":"rotation"}},{"sampler":3,"target":{"node":10,"path":"translation"}},{"sampler":4,"target":{"node":9,"path":"rotation"}},{"sampler":5,"target":{"node":9,"path":"translation"}}]}],"bufferViews":[{"buffer":0,"byteOffset":0,"byteLength":80},{"buffer":0,"byteOffset":80,"byteLength":320},{"buffer":0,"byteOffset":400,"byteLength":84},{"buffer":0,"byteOffset":484,"byteLength":252},{"buffer":0,"byteOffset":736,"byteLength":84},{"buffer":0,"byteOffset":820,"byteLength":336},{"buffer":0,"byteOffset":1156,"byteLength":64},{"buffer":0,"byteOffset":1220,"byteLength":192},{"buffer":0,"byteOffset":1412,"byteLength":4},{"buffer":0,"byteOffset":1416,"byteLength":16},{"buffer":0,"byteOffset":1432,"byteLength":4},{"buffer":0,"byteOffset":1436,"byteLength":12}],"buffers":[{"byteLength":1448,"uri":"data:application/octet-stream;base64,"}],"accessors":[{"bufferView":0,"componentType":5126,"count":20,"max":[0.7916666865348816],"min":[0],"type":"SCALAR"},{"bufferView":1,"componentType":5126,"count":20,"max":[0.0991411879658699,0.8079186081886292,-0.5669990181922913,0.11535673588514328],"min":[-0.22072537243366241,0.7467275857925415,-0.6601344347000122,-0.059533558785915375],"type":"VEC4"},{"bufferView":2,"componentType":5126,"count":21,"max":[0.8333333134651184],"min":[0],"type":"SCALAR"},{"bufferView":3,"componentType":5126,"count":21,"max":[-0.03812500089406967,-0.13062499463558197,0.7268750071525574],"min":[-0.2931250035762787,-0.25,0.1681250035762787],"type":"VEC3"},{"bufferView":4,"componentType":5126,"count":21,"max":[0.8333333134651184],"min":[0],"type":"SCALAR"},{"bufferView":5,"componentType":5126,"count":21,"max":[0.026176948100328445,0.022236540913581848,0.038273293524980545,1],"min":[-0.23344536125659943,-0.009405422024428844,-0.017816167324781418,0.972369909286499],"type":"VEC4"},{"bufferView":6,"componentType":5126,"count":16,"max":[0.625],"min":[0],"type":"SCALAR"},{"bufferView":7,"componentType":5126,"count":16,"max":[0.125,0.03687499836087227,0.7581250071525574],"min":[-0.0012499999720603228,-0.2574999928474426,0.0037499999161809683],"type":"VEC3"},{"bufferView":8,"componentType":5126,"count":1,"max":[0],"min":[0],"type":"SCALAR"},{"bufferView":9,"componentType":5126,"count":1,"max":[-0.00196917075663805,0.7511528730392456,-0.6594070196151733,-0.0307878740131855],"min":[-0.00196917075663805,0.7511528730392456,-0.6594070196151733,-0.0307878740131855],"type":"VEC4"},{"bufferView":10,"componentType":5126,"count":1,"max":[0],"min":[0],"type":"SCALAR"},{"bufferView":11,"componentType":5126,"count":1,"max":[0.019375000149011612,-0.06624999642372131,0.015625],"min":[0.019375000149011612,-0.06624999642372131,0.015625],"type":"VEC3"}]}