{"asset":{"version":"2.0","generator":"Blockbench 4.8.3 glTF exporter"},"scenes":[{"nodes":[14],"name":"blockbench_export"}],"scene":0,"nodes":[{"translation":[-0.001311447187056669,0.05706314428136117,0.17826969650218105],"name":"Magazine_3"},{"translation":[0,0.056634687500000225,0.22701336538461536],"name":"bullet"},{"translation":[0,0.015627812500000005,-0.027346874999999993],"name":"Magazine_2","children":[0,1]},{"translation":[0,0.03320624999999999,-0.31835625],"name":"Magazine_1","children":[2]},{"translation":[-0.021359062500000026,-0.5320024999999999,-0.07913512944173828],"name":"Sight_left"},{"translation":[0.021532812499999998,-0.5320024999999999,-0.07913512944173828],"name":"Sight_right"},{"translation":[-0.00008687499999998627,0.78417,0.05201500000000003],"name":"Sight","children":[4,5]},{"translation":[0,0.015625,-0.046875],"name":"GunRoot","children":[3,6]},{"translation":[0.375,-0.625,0.0625],"name":"RightHand"},{"translation":[-0.375,0.390625,0.078125],"name":"R","children":[8]},{"translation":[0,-0.015625,0.109375],"name":"bone1","children":[7,9]},{"translation":[-0.375,-0.625,0.0625],"name":"LeftHand"},{"translation":[0.375,0.375,0.1875],"name":"L","children":[11]},{"translation":[0.5,0.75,0.25],"name":"bone2","children":[10,12]},{"children":[13]}],"animations":[{"name":"static_state","samplers":[{"input":0,"output":1,"interpolation":"LINEAR"},{"input":2,"output":3,"interpolation":"LINEAR"},{"input":4,"output":5,"interpolation":"LINEAR"},{"input":6,"output":7,"interpolation":"LINEAR"},{"input":8,"output":9,"interpolation":"LINEAR"},{"input":10,"output":11,"interpolation":"LINEAR"}],"channels":[{"sampler":0,"target":{"node":12,"path":"rotation"}},{"sampler":1,"target":{"node":12,"path":"translation"}},{"sampler":2,"target":{"node":10,"path":"rotation"}},{"sampler":3,"target":{"node":10,"path":"translation"}},{"sampler":4,"target":{"node":9,"path":"rotation"}},{"sampler":5,"target":{"node":9,"path":"translation"}}]}],"bufferViews":[{"buffer":0,"byteOffset":0,"byteLength":4},{"buffer":0,"byteOffset":4,"byteLength":16},{"buffer":0,"byteOffset":20,"byteLength":4},{"buffer":0,"byteOffset":24,"byteLength":12},{"buffer":0,"byteOffset":36,"byteLength":4},{"buffer":0,"byteOffset":40,"byteLength":16},{"buffer":0,"byteOffset":56,"byteLength":4},{"buffer":0,"byteOffset":60,"byteLength":12},{"buffer":0,"byteOffset":72,"byteLength":4},{"buffer":0,"byteOffset":76,"byteLength":16},{"buffer":0,"byteOffset":92,"byteLength":4},{"buffer":0,"byteOffset":96,"byteLength":12}],"buffers":[{"byteLength":108,"uri":"data:application/octet-stream;base64,"}],"accessors":[{"bufferView":0,"componentType":5126,"count":1,"max":[0],"min":[0],"type":"SCALAR"},{"bufferView":1,"componentType":5126,"count":1,"max":[0.0726398304104805,0.7761921882629395,-0.625227153301239,-0.03660880774259567],"min":[0.0726398304104805,0.7761921882629395,-0.625227153301239,-0.03660880774259567],"type":"VEC4"},{"bufferView":2,"componentType":5126,"count":1,"max":[0],"min":[0],"type":"SCALAR"},{"bufferView":3,"componentType":5126,"count":1,"max":[-0.0390625,-0.13671875,0.16796875],"min":[-0.0390625,-0.13671875,0.16796875],"type":"VEC3"},{"bufferView":4,"componentType":5126,"count":1,"max":[0],"min":[0],"type":"SCALAR"},{"bufferView":5,"componentType":5126,"count":1,"max":[0,0,0,1],"min":[0,0,0,1],"type":"VEC4"},{"bufferView":6,"componentType":5126,"count":1,"max":[0],"min":[0],"type":"SCALAR"},{"bufferView":7,"componentType":5126,"count":1,"max":[0,-0.015625,0.109375],"min":[0,-0.015625,0.109375],"type":"VEC3"},{"bufferView":8,"componentType":5126,"count":1,"max":[0],"min":[0],"type":"SCALAR"},{"bufferView":9,"componentType":5126,"count":1,"max":[-0.0020172656513750553,0.7511682510375977,-0.659389853477478,-0.030777527019381523],"min":[-0.0020172656513750553,0.7511682510375977,-0.659389853477478,-0.030777527019381523],"type":"VEC4"},{"bufferView":10,"componentType":5126,"count":1,"max":[0],"min":[0],"type":"SCALAR"},{"bufferView":11,"componentType":5126,"count":1,"max":[0.01953125,-0.06640625,0.015625],"min":[0.01953125,-0.06640625,0.015625],"type":"VEC3"}]}