{"asset":{"version":"2.0","generator":"Blockbench 4.8.3 glTF exporter"},"scenes":[{"nodes":[14],"name":"blockbench_export"}],"scene":0,"nodes":[{"translation":[-0.001311447187056669,0.05706314428136117,0.17826969650218105],"name":"Magazine_3"},{"translation":[0,0.056634687500000225,0.22701336538461536],"name":"bullet"},{"translation":[0,0.015627812500000005,-0.027346874999999993],"name":"Magazine_2","children":[0,1]},{"translation":[0,0.03320624999999999,-0.31835625],"name":"Magazine_1","children":[2]},{"translation":[-0.021359062500000026,-0.5320024999999999,-0.07913512944173828],"name":"Sight_left"},{"translation":[0.021532812499999998,-0.5320024999999999,-0.07913512944173828],"name":"Sight_right"},{"translation":[-0.00008687499999998627,0.78417,0.05201500000000003],"name":"Sight","children":[4,5]},{"translation":[0,0.015625,-0.046875],"name":"GunRoot","children":[3,6]},{"translation":[0.375,-0.625,0.0625],"name":"RightHand"},{"translation":[-0.375,0.390625,0.078125],"name":"R","children":[8]},{"translation":[0,-0.015625,0.109375],"name":"bone1","children":[7,9]},{"translation":[-0.375,-0.625,0.0625],"name":"LeftHand"},{"translation":[0.375,0.375,0.1875],"name":"L","children":[11]},{"translation":[0.5,0.75,0.25],"name":"bone2","children":[10,12]},{"children":[13]}],"animations":[{"name":"fire","samplers":[{"input":0,"output":1,"interpolation":"LINEAR"},{"input":2,"output":3,"interpolation":"LINEAR"},{"input":4,"output":5,"interpolation":"LINEAR"},{"input":6,"output":7,"interpolation":"LINEAR"},{"input":8,"output":9,"interpolation":"LINEAR"},{"input":10,"output":11,"interpolation":"LINEAR"},{"input":12,"output":13,"interpolation":"LINEAR"},{"input":14,"output":15,"interpolation":"LINEAR"},{"input":16,"output":17,"interpolation":"LINEAR"}],"channels":[{"sampler":0,"target":{"node":12,"path":"rotation"}},{"sampler":1,"target":{"node":12,"path":"translation"}},{"sampler":2,"target":{"node":10,"path":"translation"}},{"sampler":3,"target":{"node":9,"path":"rotation"}},{"sampler":4,"target":{"node":9,"path":"translation"}},{"sampler":5,"target":{"node":13,"path":"rotation"}},{"sampler":6,"target":{"node":13,"path":"translation"}},{"sampler":7,"target":{"node":4,"path":"translation"}},{"sampler":8,"target":{"node":5,"path":"translation"}}]}],"bufferViews":[{"buffer":0,"byteOffset":0,"byteLength":4},{"buffer":0,"byteOffset":4,"byteLength":16},{"buffer":0,"byteOffset":20,"byteLength":4},{"buffer":0,"byteOffset":24,"byteLength":12},{"buffer":0,"byteOffset":36,"byteLength":4},{"buffer":0,"byteOffset":40,"byteLength":12},{"buffer":0,"byteOffset":52,"byteLength":16},{"buffer":0,"byteOffset":68,"byteLength":64},{"buffer":0,"byteOffset":132,"byteLength":16},{"buffer":0,"byteOffset":148,"byteLength":48},{"buffer":0,"byteOffset":196,"byteLength":52},{"buffer":0,"byteOffset":248,"byteLength":208},{"buffer":0,"byteOffset":456,"byteLength":48},{"buffer":0,"byteOffset":504,"byteLength":144},{"buffer":0,"byteOffset":648,"byteLength":36},{"buffer":0,"byteOffset":684,"byteLength":108},{"buffer":0,"byteOffset":792,"byteLength":36},{"buffer":0,"byteOffset":828,"byteLength":108}],"buffers":[{"byteLength":936,"uri":"data:application/octet-stream;base64,"}],"accessors":[{"bufferView":0,"componentType":5126,"count":1,"max":[0],"min":[0],"type":"SCALAR"},{"bufferView":1,"componentType":5126,"count":1,"max":[0.0726630762219429,0.7761774659156799,-0.6252424716949463,-0.03661322966217995],"min":[0.0726630762219429,0.7761774659156799,-0.6252424716949463,-0.03661322966217995],"type":"VEC4"},{"bufferView":2,"componentType":5126,"count":1,"max":[0],"min":[0],"type":"SCALAR"},{"bufferView":3,"componentType":5126,"count":1,"max":[-0.039374999701976776,-0.1368750035762787,0.1681250035762787],"min":[-0.039374999701976776,-0.1368750035762787,0.1681250035762787],"type":"VEC3"},{"bufferView":4,"componentType":5126,"count":1,"max":[0],"min":[0],"type":"SCALAR"},{"bufferView":5,"componentType":5126,"count":1,"max":[0,-0.015625,0.109375],"min":[0,-0.015625,0.109375],"type":"VEC3"},{"bufferView":6,"componentType":5126,"count":4,"max":[0.125],"min":[0],"type":"SCALAR"},{"bufferView":7,"componentType":5126,"count":4,"max":[-0.00196917075663805,0.7511528730392456,-0.6594070196151733,-0.0307878740131855],"min":[-0.00196917075663805,0.7511528730392456,-0.6594070196151733,-0.0307878740131855],"type":"VEC4"},{"bufferView":8,"componentType":5126,"count":4,"max":[0.125],"min":[0],"type":"SCALAR"},{"bufferView":9,"componentType":5126,"count":4,"max":[0.019375000149011612,-0.06624999642372131,0.015625],"min":[0.019375000149011612,-0.06624999642372131,0.015625],"type":"VEC3"},{"bufferView":10,"componentType":5126,"count":13,"max":[0.5],"min":[0],"type":"SCALAR"},{"bufferView":11,"componentType":5126,"count":13,"max":[0.2153754085302353,0.0007760050939396024,0,1],"min":[0,-0.03562502935528755,-0.04300051927566528,0.9749334454536438],"type":"VEC4"},{"bufferView":12,"componentType":5126,"count":12,"max":[0.4583333432674408],"min":[0],"type":"SCALAR"},{"bufferView":13,"componentType":5126,"count":12,"max":[0.5625,0.7693750262260437,0.41062501072883606],"min":[0.5,0.75,0.25],"type":"VEC3"},{"bufferView":14,"componentType":5126,"count":9,"max":[0.3333333432674408],"min":[0],"type":"SCALAR"},{"bufferView":15,"componentType":5126,"count":9,"max":[-0.02135906182229519,-0.5320025086402893,-0.07913512736558914],"min":[-0.03698406368494034,-0.5320025086402893,-0.07913512736558914],"type":"VEC3"},{"bufferView":16,"componentType":5126,"count":9,"max":[0.3333333432674408],"min":[0],"type":"SCALAR"},{"bufferView":17,"componentType":5126,"count":9,"max":[0.0371578112244606,-0.5320025086402893,-0.07913512736558914],"min":[0.02153281308710575,-0.5320025086402893,-0.07913512736558914],"type":"VEC3"}]}