{"asset":{"version":"2.0","generator":"Blockbench 4.8.3 glTF exporter"},"scenes":[{"nodes":[14],"name":"blockbench_export"}],"scene":0,"nodes":[{"translation":[-0.001311447187056669,0.05706314428136117,0.17826969650218105],"name":"Magazine_3"},{"translation":[0,0.056634687500000225,0.22701336538461536],"name":"bullet"},{"translation":[0,0.015627812500000005,-0.027346874999999993],"name":"Magazine_2","children":[0,1]},{"translation":[0,0.03320624999999999,-0.31835625],"name":"Magazine_1","children":[2]},{"translation":[-0.021359062500000026,-0.5320024999999999,-0.07913512944173828],"name":"Sight_left"},{"translation":[0.021532812499999998,-0.5320024999999999,-0.07913512944173828],"name":"Sight_right"},{"translation":[-0.00008687499999998627,0.78417,0.05201500000000003],"name":"Sight","children":[4,5]},{"translation":[0,0.015625,-0.046875],"name":"GunRoot","children":[3,6]},{"translation":[0.375,-0.625,0.0625],"name":"RightHand"},{"translation":[-0.375,0.390625,0.078125],"name":"R","children":[8]},{"translation":[0,-0.015625,0.109375],"name":"bone1","children":[7,9]},{"translation":[-0.375,-0.625,0.0625],"name":"LeftHand"},{"translation":[0.375,0.375,0.1875],"name":"L","children":[11]},{"translation":[0.5,0.75,0.25],"name":"bone2","children":[10,12]},{"children":[13]}],"animations":[{"name":"inspect","samplers":[{"input":0,"output":1,"interpolation":"LINEAR"},{"input":2,"output":3,"interpolation":"LINEAR"},{"input":4,"output":5,"interpolation":"LINEAR"},{"input":6,"output":7,"interpolation":"LINEAR"},{"input":8,"output":9,"interpolation":"LINEAR"},{"input":10,"output":11,"interpolation":"LINEAR"},{"input":12,"output":13,"interpolation":"LINEAR"},{"input":14,"output":15,"interpolation":"LINEAR"}],"channels":[{"sampler":0,"target":{"node":12,"path":"rotation"}},{"sampler":1,"target":{"node":12,"path":"translation"}},{"sampler":2,"target":{"node":10,"path":"rotation"}},{"sampler":3,"target":{"node":10,"path":"translation"}},{"sampler":4,"target":{"node":9,"path":"rotation"}},{"sampler":5,"target":{"node":9,"path":"translation"}},{"sampler":6,"target":{"node":7,"path":"rotation"}},{"sampler":7,"target":{"node":7,"path":"translation"}}]}],"bufferViews":[{"buffer":0,"byteOffset":0,"byteLength":464},{"buffer":0,"byteOffset":464,"byteLength":1856},{"buffer":0,"byteOffset":2320,"byteLength":464},{"buffer":0,"byteOffset":2784,"byteLength":1392},{"buffer":0,"byteOffset":4176,"byteLength":468},{"buffer":0,"byteOffset":4644,"byteLength":1872},{"buffer":0,"byteOffset":6516,"byteLength":460},{"buffer":0,"byteOffset":6976,"byteLength":1380},{"buffer":0,"byteOffset":8356,"byteLength":420},{"buffer":0,"byteOffset":8776,"byteLength":1680},{"buffer":0,"byteOffset":10456,"byteLength":412},{"buffer":0,"byteOffset":10868,"byteLength":1236},{"buffer":0,"byteOffset":12104,"byteLength":164},{"buffer":0,"byteOffset":12268,"byteLength":656},{"buffer":0,"byteOffset":12924,"byteLength":112},{"buffer":0,"byteOffset":13036,"byteLength":336}],"buffers":[{"byteLength":13372,"uri":"data:application/octet-stream;base64,"}],"accessors":[{"bufferView":0,"componentType":5126,"count":116,"max":[4.791666507720947],"min":[0],"type":"SCALAR"},{"bufferView":1,"componentType":5126,"count":116,"max":[0.08627480268478394,0.7893891334533691,-0.5773648619651794,0.12276105582714081],"min":[-0.2289431095123291,0.7739430665969849,-0.6252424716949463,-0.05352361500263214],"type":"VEC4"},{"bufferView":2,"componentType":5126,"count":116,"max":[4.791666507720947],"min":[0],"type":"SCALAR"},{"bufferView":3,"componentType":5126,"count":116,"max":[-0.038750000298023224,-0.13500000536441803,0.578125],"min":[-0.3206250071525574,-0.4337500035762787,0.12687499821186066],"type":"VEC3"},{"bufferView":4,"componentType":5126,"count":117,"max":[4.833333492279053],"min":[0],"type":"SCALAR"},{"bufferView":5,"componentType":5126,"count":117,"max":[0.5245487093925476,0.5250771045684814,0.6385985612869263,1],"min":[-0.15963560342788696,-0.09748400002717972,-0.24317115545272827,0.5591689348220825],"type":"VEC4"},{"bufferView":6,"componentType":5126,"count":115,"max":[4.75],"min":[0],"type":"SCALAR"},{"bufferView":7,"componentType":5126,"count":115,"max":[0,0.1837500035762787,0.43812501430511475],"min":[-0.3812499940395355,-0.26750001311302185,0.09312500059604645],"type":"VEC3"},{"bufferView":8,"componentType":5126,"count":105,"max":[4.333333492279053],"min":[0],"type":"SCALAR"},{"bufferView":9,"componentType":5126,"count":105,"max":[0.5214626789093018,0.8387945294380188,-0.4316951334476471,0.10230763256549835],"min":[-0.32246795296669006,0.6828327178955078,-0.6594070196151733,-0.21249832212924957],"type":"VEC4"},{"bufferView":10,"componentType":5126,"count":103,"max":[4.25],"min":[0],"type":"SCALAR"},{"bufferView":11,"componentType":5126,"count":103,"max":[0.3474999964237213,-0.06624999642372131,0.015625],"min":[0.019375000149011612,-0.1681250035762787,0.015625],"type":"VEC3"},{"bufferView":12,"componentType":5126,"count":41,"max":[1.6666666269302368],"min":[0],"type":"SCALAR"},{"bufferView":13,"componentType":5126,"count":41,"max":[0.9933891892433167,0.1947455108165741,0.19767364859580994,1],"min":[-0.31026166677474976,-0.21463288366794586,-0.007303824182599783,-1],"type":"VEC4"},{"bufferView":14,"componentType":5126,"count":28,"max":[1.125],"min":[0],"type":"SCALAR"},{"bufferView":15,"componentType":5126,"count":28,"max":[0.078125,1.386875033378601,-0.046875],"min":[-0.06499999761581421,-0.05874999985098839,-0.671875],"type":"VEC3"}]}