{"asset":{"version":"2.0","generator":"Blockbench 4.9.2 glTF exporter"},"scenes":[{"nodes":[13],"name":"blockbench_export"}],"scene":0,"nodes":[{"translation":[0.375,-0.6875,0],"name":"RightHand"},{"translation":[-0.551025390625,0.7093750000000003,-0.91796875],"name":"R","children":[0]},{"translation":[2.220446049250313e-16,0.71875,-0.06249999999999978],"name":"Head"},{"translation":[0.25,0.75,-0.0625],"name":"RightArm"},{"translation":[-0.25,0.75,-0.0625],"name":"LeftArm"},{"translation":[0,0.25,0.0625],"name":"Body","children":[2,3,4]},{"translation":[0.11875000000000002,0.2265625,0],"name":"RightLeg"},{"translation":[0.006249999999999978,0.25,0],"name":"LeftLeg"},{"translation":[-0.176025390625,0.02187500000000031,-0.91796875],"name":"licease","children":[5,6,7]},{"translation":[0.176025390625,0.1656249999999997,0.29296875],"name":"bone","children":[1,8]},{"translation":[-0.375,0,0],"name":"LeftHand"},{"translation":[0.375,0.1875,-0.625],"name":"l","children":[10]},{"translation":[0.5,0.3125,1.125],"name":"bone2","children":[9,11]},{"children":[12]}],"animations":[{"name":"reload","samplers":[{"input":0,"output":1,"interpolation":"LINEAR"},{"input":2,"output":3,"interpolation":"LINEAR"},{"input":4,"output":5,"interpolation":"LINEAR"},{"input":6,"output":7,"interpolation":"LINEAR"},{"input":8,"output":9,"interpolation":"LINEAR"},{"input":10,"output":11,"interpolation":"LINEAR"},{"input":12,"output":13,"interpolation":"LINEAR"},{"input":14,"output":15,"interpolation":"LINEAR"},{"input":16,"output":17,"interpolation":"LINEAR"},{"input":18,"output":19,"interpolation":"LINEAR"},{"input":20,"output":21,"interpolation":"LINEAR"},{"input":22,"output":23,"interpolation":"LINEAR"},{"input":24,"output":25,"interpolation":"LINEAR"},{"input":26,"output":27,"interpolation":"LINEAR"},{"input":28,"output":29,"interpolation":"LINEAR"},{"input":30,"output":31,"interpolation":"LINEAR"},{"input":32,"output":33,"interpolation":"LINEAR"},{"input":34,"output":35,"interpolation":"LINEAR"},{"input":36,"output":37,"interpolation":"LINEAR"}],"channels":[{"sampler":0,"target":{"node":1,"path":"rotation"}},{"sampler":1,"target":{"node":1,"path":"translation"}},{"sampler":2,"target":{"node":1,"path":"scale"}},{"sampler":3,"target":{"node":11,"path":"rotation"}},{"sampler":4,"target":{"node":11,"path":"translation"}},{"sampler":5,"target":{"node":11,"path":"scale"}},{"sampler":6,"target":{"node":8,"path":"rotation"}},{"sampler":7,"target":{"node":8,"path":"translation"}},{"sampler":8,"target":{"node":8,"path":"scale"}},{"sampler":9,"target":{"node":9,"path":"rotation"}},{"sampler":10,"target":{"node":9,"path":"translation"}},{"sampler":11,"target":{"node":2,"path":"rotation"}},{"sampler":12,"target":{"node":2,"path":"scale"}},{"sampler":13,"target":{"node":3,"path":"rotation"}},{"sampler":14,"target":{"node":3,"path":"translation"}},{"sampler":15,"target":{"node":5,"path":"rotation"}},{"sampler":16,"target":{"node":4,"path":"rotation"}},{"sampler":17,"target":{"node":6,"path":"rotation"}},{"sampler":18,"target":{"node":7,"path":"rotation"}}]}],"bufferViews":[{"buffer":0,"byteOffset":0,"byteLength":4},{"buffer":0,"byteOffset":4,"byteLength":16},{"buffer":0,"byteOffset":20,"byteLength":4},{"buffer":0,"byteOffset":24,"byteLength":12},{"buffer":0,"byteOffset":36,"byteLength":4},{"buffer":0,"byteOffset":40,"byteLength":12},{"buffer":0,"byteOffset":52,"byteLength":248},{"buffer":0,"byteOffset":300,"byteLength":992},{"buffer":0,"byteOffset":1292,"byteLength":244},{"buffer":0,"byteOffset":1536,"byteLength":732},{"buffer":0,"byteOffset":2268,"byteLength":4},{"buffer":0,"byteOffset":2272,"byteLength":12},{"buffer":0,"byteOffset":2284,"byteLength":268},{"buffer":0,"byteOffset":2552,"byteLength":1072},{"buffer":0,"byteOffset":3624,"byteLength":268},{"buffer":0,"byteOffset":3892,"byteLength":804},{"buffer":0,"byteOffset":4696,"byteLength":8},{"buffer":0,"byteOffset":4704,"byteLength":24},{"buffer":0,"byteOffset":4728,"byteLength":232},{"buffer":0,"byteOffset":4960,"byteLength":928},{"buffer":0,"byteOffset":5888,"byteLength":208},{"buffer":0,"byteOffset":6096,"byteLength":624},{"buffer":0,"byteOffset":6720,"byteLength":300},{"buffer":0,"byteOffset":7020,"byteLength":1200},{"buffer":0,"byteOffset":8220,"byteLength":136},{"buffer":0,"byteOffset":8356,"byteLength":408},{"buffer":0,"byteOffset":8764,"byteLength":300},{"buffer":0,"byteOffset":9064,"byteLength":1200},{"buffer":0,"byteOffset":10264,"byteLength":300},{"buffer":0,"byteOffset":10564,"byteLength":900},{"buffer":0,"byteOffset":11464,"byteLength":300},{"buffer":0,"byteOffset":11764,"byteLength":1200},{"buffer":0,"byteOffset":12964,"byteLength":300},{"buffer":0,"byteOffset":13264,"byteLength":1200},{"buffer":0,"byteOffset":14464,"byteLength":300},{"buffer":0,"byteOffset":14764,"byteLength":1200},{"buffer":0,"byteOffset":15964,"byteLength":44},{"buffer":0,"byteOffset":16008,"byteLength":176}],"buffers":[{"byteLength":16184,"uri":"data:application/octet-stream;base64,"}],"accessors":[{"bufferView":0,"componentType":5126,"count":1,"max":[0],"min":[0],"type":"SCALAR"},{"bufferView":1,"componentType":5126,"count":1,"max":[-0.10991579294204712,0.6602554321289062,-0.7419383525848389,-0.03884322941303253],"min":[-0.10991579294204712,0.6602554321289062,-0.7419383525848389,-0.03884322941303253],"type":"VEC4"},{"bufferView":2,"componentType":5126,"count":1,"max":[0],"min":[0],"type":"SCALAR"},{"bufferView":3,"componentType":5126,"count":1,"max":[-0.1785253882408142,-0.14124999940395355,-0.9048437476158142],"min":[-0.1785253882408142,-0.14124999940395355,-0.9048437476158142],"type":"VEC3"},{"bufferView":4,"componentType":5126,"count":1,"max":[0],"min":[0],"type":"SCALAR"},{"bufferView":5,"componentType":5126,"count":1,"max":[1,1.5,1],"min":[1,1.5,1],"type":"VEC3"},{"bufferView":6,"componentType":5126,"count":62,"max":[2.5416667461395264],"min":[0],"type":"SCALAR"},{"bufferView":7,"componentType":5126,"count":62,"max":[0.2508586049079895,0.9343914985656738,-0.25015729665756226,0.35871806740760803],"min":[-0.591191828250885,0.5825267434120178,-0.42736831307411194,0.041268240660429],"type":"VEC4"},{"bufferView":8,"componentType":5126,"count":61,"max":[2.5],"min":[0],"type":"SCALAR"},{"bufferView":9,"componentType":5126,"count":61,"max":[-0.6875,0.03999999910593033,0.01875000074505806],"min":[-1.0625,-1.625,-0.1875],"type":"VEC3"},{"bufferView":10,"componentType":5126,"count":1,"max":[0],"min":[0],"type":"SCALAR"},{"bufferView":11,"componentType":5126,"count":1,"max":[1,1.5,1],"min":[1,1.5,1],"type":"VEC3"},{"bufferView":12,"componentType":5126,"count":67,"max":[2.75],"min":[0],"type":"SCALAR"},{"bufferView":13,"componentType":5126,"count":67,"max":[0,0,0,1],"min":[-0.06540312618017197,0,0,0.9978589415550232],"type":"VEC4"},{"bufferView":14,"componentType":5126,"count":67,"max":[2.75],"min":[0],"type":"SCALAR"},{"bufferView":15,"componentType":5126,"count":67,"max":[-0.176025390625,0.1899999976158142,-0.91796875],"min":[-0.176025390625,0.11187499761581421,-0.91796875],"type":"VEC3"},{"bufferView":16,"componentType":5126,"count":2,"max":[0.0416666679084301],"min":[0],"type":"SCALAR"},{"bufferView":17,"componentType":5126,"count":2,"max":[0.30000001192092896,0.30000001192092896,0.30000001192092896],"min":[0.30000001192092896,0.30000001192092896,0.30000001192092896],"type":"VEC3"},{"bufferView":18,"componentType":5126,"count":58,"max":[2.375],"min":[0],"type":"SCALAR"},{"bufferView":19,"componentType":5126,"count":58,"max":[0.11184033006429672,0.047219470143318176,0.0384519137442112,1],"min":[-0.02123251184821129,-0.015708524733781815,-0.0259155984967947,0.9918586015701294],"type":"VEC4"},{"bufferView":20,"componentType":5126,"count":52,"max":[2.125],"min":[0],"type":"SCALAR"},{"bufferView":21,"componentType":5126,"count":52,"max":[0.176025390625,0.16562500596046448,0.46796876192092896],"min":[0.176025390625,0.029374999925494194,0.29296875],"type":"VEC3"},{"bufferView":22,"componentType":5126,"count":75,"max":[3.0833332538604736],"min":[0],"type":"SCALAR"},{"bufferView":23,"componentType":5126,"count":75,"max":[0.3317495286464691,0.11280637979507446,0.010887508280575275,0.9997843503952026],"min":[-0.17358484864234924,-0.0037463416811078787,-0.021481215953826904,0.9433674812316895],"type":"VEC4"},{"bufferView":24,"componentType":5126,"count":34,"max":[2.0833332538604736],"min":[0.7083333134651184],"type":"SCALAR"},{"bufferView":25,"componentType":5126,"count":34,"max":[1.100000023841858,1,1.100000023841858],"min":[1,0.8999999761581421,1],"type":"VEC3"},{"bufferView":26,"componentType":5126,"count":75,"max":[3.0833332538604736],"min":[0],"type":"SCALAR"},{"bufferView":27,"componentType":5126,"count":75,"max":[0.8046609163284302,0.006325074937194586,0.2824822962284088,0.9989506602287292],"min":[-0.6131907105445862,-0.29405879974365234,-0.06507961452007294,0.5584123134613037],"type":"VEC4"},{"bufferView":28,"componentType":5126,"count":75,"max":[3.0833332538604736],"min":[0],"type":"SCALAR"},{"bufferView":29,"componentType":5126,"count":75,"max":[0.35624998807907104,0.75,-0.0625],"min":[0.25,0.668749988079071,-0.1693750023841858],"type":"VEC3"},{"bufferView":30,"componentType":5126,"count":75,"max":[3.0833332538604736],"min":[0],"type":"SCALAR"},{"bufferView":31,"componentType":5126,"count":75,"max":[0.15212339162826538,0,0,0.9999737739562988],"min":[-0.2798290252685547,0,0,0.9600498676300049],"type":"VEC4"},{"bufferView":32,"componentType":5126,"count":75,"max":[3.0833332538604736],"min":[0],"type":"SCALAR"},{"bufferView":33,"componentType":5126,"count":75,"max":[0.8805828094482422,0.21336673200130463,0.06506294757127762,0.9972501993179321],"min":[-0.6162763833999634,-0.06688658148050308,-0.24592672288417816,0.4099838137626648],"type":"VEC4"},{"bufferView":34,"componentType":5126,"count":75,"max":[3.0833332538604736],"min":[0],"type":"SCALAR"},{"bufferView":35,"componentType":5126,"count":75,"max":[0.5056573748588562,0.0005913291242904961,0.015221348963677883,1],"min":[-0.8767267465591431,-0.0034827326890081167,0,0.4809887707233429],"type":"VEC4"},{"bufferView":36,"componentType":5126,"count":11,"max":[2.7083332538604736],"min":[2.2916667461395264],"type":"SCALAR"},{"bufferView":37,"componentType":5126,"count":11,"max":[0,0,0,1],"min":[-0.41270703077316284,0,0,0.9108638167381287],"type":"VEC4"}]}