{"asset":{"version":"2.0","generator":"Blockbench 4.9.2 glTF exporter"},"scenes":[{"nodes":[13],"name":"blockbench_export"}],"scene":0,"nodes":[{"translation":[0.375,-0.6875,0],"name":"RightHand"},{"translation":[-0.551025390625,0.7093750000000003,-0.91796875],"name":"R","children":[0]},{"translation":[2.220446049250313e-16,0.71875,-0.06249999999999978],"name":"Head"},{"translation":[0.25,0.75,-0.0625],"name":"RightArm"},{"translation":[-0.25,0.75,-0.0625],"name":"LeftArm"},{"translation":[0,0.25,0.0625],"name":"Body","children":[2,3,4]},{"translation":[0.11875000000000002,0.2265625,0],"name":"RightLeg"},{"translation":[0.006249999999999978,0.25,0],"name":"LeftLeg"},{"translation":[-0.176025390625,0.02187500000000031,-0.91796875],"name":"licease","children":[5,6,7]},{"translation":[0.176025390625,0.1656249999999997,0.29296875],"name":"bone","children":[1,8]},{"translation":[-0.375,0,0],"name":"LeftHand"},{"translation":[0.375,0.1875,-0.625],"name":"l","children":[10]},{"translation":[0.5,0.3125,1.125],"name":"bone2","children":[9,11]},{"children":[12]}],"animations":[{"name":"static_state","samplers":[{"input":0,"output":1,"interpolation":"LINEAR"},{"input":2,"output":3,"interpolation":"LINEAR"},{"input":4,"output":5,"interpolation":"LINEAR"},{"input":6,"output":7,"interpolation":"LINEAR"},{"input":8,"output":9,"interpolation":"LINEAR"},{"input":10,"output":11,"interpolation":"LINEAR"}],"channels":[{"sampler":0,"target":{"node":1,"path":"rotation"}},{"sampler":1,"target":{"node":1,"path":"translation"}},{"sampler":2,"target":{"node":1,"path":"scale"}},{"sampler":3,"target":{"node":11,"path":"rotation"}},{"sampler":4,"target":{"node":11,"path":"translation"}},{"sampler":5,"target":{"node":11,"path":"scale"}}]}],"bufferViews":[{"buffer":0,"byteOffset":0,"byteLength":4},{"buffer":0,"byteOffset":4,"byteLength":16},{"buffer":0,"byteOffset":20,"byteLength":4},{"buffer":0,"byteOffset":24,"byteLength":12},{"buffer":0,"byteOffset":36,"byteLength":4},{"buffer":0,"byteOffset":40,"byteLength":12},{"buffer":0,"byteOffset":52,"byteLength":4},{"buffer":0,"byteOffset":56,"byteLength":16},{"buffer":0,"byteOffset":72,"byteLength":4},{"buffer":0,"byteOffset":76,"byteLength":12},{"buffer":0,"byteOffset":88,"byteLength":4},{"buffer":0,"byteOffset":92,"byteLength":12}],"buffers":[{"byteLength":104,"uri":"data:application/octet-stream;base64,"}],"accessors":[{"bufferView":0,"componentType":5126,"count":1,"max":[0],"min":[0],"type":"SCALAR"},{"bufferView":1,"componentType":5126,"count":1,"max":[-0.10995263606309891,0.6602333188056946,-0.7419527769088745,-0.038839295506477356],"min":[-0.10995263606309891,0.6602333188056946,-0.7419527769088745,-0.038839295506477356],"type":"VEC4"},{"bufferView":2,"componentType":5126,"count":1,"max":[0],"min":[0],"type":"SCALAR"},{"bufferView":3,"componentType":5126,"count":1,"max":[-0.1787109375,-0.14121094346046448,-0.905029296875],"min":[-0.1787109375,-0.14121094346046448,-0.905029296875],"type":"VEC3"},{"bufferView":4,"componentType":5126,"count":1,"max":[0],"min":[0],"type":"SCALAR"},{"bufferView":5,"componentType":5126,"count":1,"max":[1,1.5,1],"min":[1,1.5,1],"type":"VEC3"},{"bufferView":6,"componentType":5126,"count":1,"max":[0],"min":[0],"type":"SCALAR"},{"bufferView":7,"componentType":5126,"count":1,"max":[-0.5911827087402344,0.5825465321540833,-0.4271407723426819,0.3587384819984436],"min":[-0.5911827087402344,0.5825465321540833,-0.4271407723426819,0.3587384819984436],"type":"VEC4"},{"bufferView":8,"componentType":5126,"count":1,"max":[0],"min":[0],"type":"SCALAR"},{"bufferView":9,"componentType":5126,"count":1,"max":[-1.0625,-1.625,0],"min":[-1.0625,-1.625,0],"type":"VEC3"},{"bufferView":10,"componentType":5126,"count":1,"max":[0],"min":[0],"type":"SCALAR"},{"bufferView":11,"componentType":5126,"count":1,"max":[1,1.5,1],"min":[1,1.5,1],"type":"VEC3"}]}