{"asset":{"version":"2.0","generator":"Blockbench 4.9.2 glTF exporter"},"scenes":[{"nodes":[13],"name":"blockbench_export"}],"scene":0,"nodes":[{"translation":[0.375,-0.6875,0],"name":"RightHand"},{"translation":[-0.551025390625,0.7093750000000003,-0.91796875],"name":"R","children":[0]},{"translation":[2.220446049250313e-16,0.71875,-0.06249999999999978],"name":"Head"},{"translation":[0.25,0.75,-0.0625],"name":"RightArm"},{"translation":[-0.25,0.75,-0.0625],"name":"LeftArm"},{"translation":[0,0.25,0.0625],"name":"Body","children":[2,3,4]},{"translation":[0.11875000000000002,0.2265625,0],"name":"RightLeg"},{"translation":[0.006249999999999978,0.25,0],"name":"LeftLeg"},{"translation":[-0.176025390625,0.02187500000000031,-0.91796875],"name":"licease","children":[5,6,7]},{"translation":[0.176025390625,0.1656249999999997,0.29296875],"name":"bone","children":[1,8]},{"translation":[-0.375,0,0],"name":"LeftHand"},{"translation":[0.375,0.1875,-0.625],"name":"l","children":[10]},{"translation":[0.5,0.3125,1.125],"name":"bone2","children":[9,11]},{"children":[12]}],"animations":[{"name":"inspect","samplers":[{"input":0,"output":1,"interpolation":"LINEAR"},{"input":2,"output":3,"interpolation":"LINEAR"},{"input":4,"output":5,"interpolation":"LINEAR"},{"input":6,"output":7,"interpolation":"LINEAR"},{"input":8,"output":9,"interpolation":"LINEAR"},{"input":10,"output":11,"interpolation":"LINEAR"},{"input":12,"output":13,"interpolation":"LINEAR"},{"input":14,"output":15,"interpolation":"LINEAR"},{"input":16,"output":17,"interpolation":"LINEAR"},{"input":18,"output":19,"interpolation":"LINEAR"},{"input":20,"output":21,"interpolation":"LINEAR"},{"input":22,"output":23,"interpolation":"LINEAR"},{"input":24,"output":25,"interpolation":"LINEAR"},{"input":26,"output":27,"interpolation":"LINEAR"},{"input":28,"output":29,"interpolation":"LINEAR"},{"input":30,"output":31,"interpolation":"LINEAR"},{"input":32,"output":33,"interpolation":"LINEAR"},{"input":34,"output":35,"interpolation":"LINEAR"},{"input":36,"output":37,"interpolation":"LINEAR"},{"input":38,"output":39,"interpolation":"LINEAR"}],"channels":[{"sampler":0,"target":{"node":1,"path":"rotation"}},{"sampler":1,"target":{"node":1,"path":"translation"}},{"sampler":2,"target":{"node":1,"path":"scale"}},{"sampler":3,"target":{"node":11,"path":"rotation"}},{"sampler":4,"target":{"node":11,"path":"translation"}},{"sampler":5,"target":{"node":11,"path":"scale"}},{"sampler":6,"target":{"node":8,"path":"rotation"}},{"sampler":7,"target":{"node":8,"path":"translation"}},{"sampler":8,"target":{"node":8,"path":"scale"}},{"sampler":9,"target":{"node":9,"path":"rotation"}},{"sampler":10,"target":{"node":9,"path":"translation"}},{"sampler":11,"target":{"node":2,"path":"rotation"}},{"sampler":12,"target":{"node":3,"path":"rotation"}},{"sampler":13,"target":{"node":3,"path":"translation"}},{"sampler":14,"target":{"node":5,"path":"rotation"}},{"sampler":15,"target":{"node":4,"path":"rotation"}},{"sampler":16,"target":{"node":6,"path":"rotation"}},{"sampler":17,"target":{"node":7,"path":"rotation"}},{"sampler":18,"target":{"node":12,"path":"rotation"}},{"sampler":19,"target":{"node":12,"path":"translation"}}]}],"bufferViews":[{"buffer":0,"byteOffset":0,"byteLength":4},{"buffer":0,"byteOffset":4,"byteLength":16},{"buffer":0,"byteOffset":20,"byteLength":4},{"buffer":0,"byteOffset":24,"byteLength":12},{"buffer":0,"byteOffset":36,"byteLength":4},{"buffer":0,"byteOffset":40,"byteLength":12},{"buffer":0,"byteOffset":52,"byteLength":208},{"buffer":0,"byteOffset":260,"byteLength":832},{"buffer":0,"byteOffset":1092,"byteLength":208},{"buffer":0,"byteOffset":1300,"byteLength":624},{"buffer":0,"byteOffset":1924,"byteLength":4},{"buffer":0,"byteOffset":1928,"byteLength":12},{"buffer":0,"byteOffset":1940,"byteLength":560},{"buffer":0,"byteOffset":2500,"byteLength":2240},{"buffer":0,"byteOffset":4740,"byteLength":484},{"buffer":0,"byteOffset":5224,"byteLength":1452},{"buffer":0,"byteOffset":6676,"byteLength":484},{"buffer":0,"byteOffset":7160,"byteLength":1452},{"buffer":0,"byteOffset":8612,"byteLength":4},{"buffer":0,"byteOffset":8616,"byteLength":16},{"buffer":0,"byteOffset":8632,"byteLength":4},{"buffer":0,"byteOffset":8636,"byteLength":12},{"buffer":0,"byteOffset":8648,"byteLength":560},{"buffer":0,"byteOffset":9208,"byteLength":2240},{"buffer":0,"byteOffset":11448,"byteLength":560},{"buffer":0,"byteOffset":12008,"byteLength":2240},{"buffer":0,"byteOffset":14248,"byteLength":560},{"buffer":0,"byteOffset":14808,"byteLength":1680},{"buffer":0,"byteOffset":16488,"byteLength":560},{"buffer":0,"byteOffset":17048,"byteLength":2240},{"buffer":0,"byteOffset":19288,"byteLength":560},{"buffer":0,"byteOffset":19848,"byteLength":2240},{"buffer":0,"byteOffset":22088,"byteLength":560},{"buffer":0,"byteOffset":22648,"byteLength":2240},{"buffer":0,"byteOffset":24888,"byteLength":560},{"buffer":0,"byteOffset":25448,"byteLength":2240},{"buffer":0,"byteOffset":27688,"byteLength":544},{"buffer":0,"byteOffset":28232,"byteLength":2176},{"buffer":0,"byteOffset":30408,"byteLength":544},{"buffer":0,"byteOffset":30952,"byteLength":1632}],"buffers":[{"byteLength":32584,"uri":"data:application/octet-stream;base64,"}],"accessors":[{"bufferView":0,"componentType":5126,"count":1,"max":[0],"min":[0],"type":"SCALAR"},{"bufferView":1,"componentType":5126,"count":1,"max":[-0.10991579294204712,0.6602554321289062,-0.7419383525848389,-0.03884322941303253],"min":[-0.10991579294204712,0.6602554321289062,-0.7419383525848389,-0.03884322941303253],"type":"VEC4"},{"bufferView":2,"componentType":5126,"count":1,"max":[0],"min":[0],"type":"SCALAR"},{"bufferView":3,"componentType":5126,"count":1,"max":[-0.1785253882408142,-0.14124999940395355,-0.9048437476158142],"min":[-0.1785253882408142,-0.14124999940395355,-0.9048437476158142],"type":"VEC3"},{"bufferView":4,"componentType":5126,"count":1,"max":[0],"min":[0],"type":"SCALAR"},{"bufferView":5,"componentType":5126,"count":1,"max":[1,1.5,1],"min":[1,1.5,1],"type":"VEC3"},{"bufferView":6,"componentType":5126,"count":52,"max":[5.791666507720947],"min":[3.6666667461395264],"type":"SCALAR"},{"bufferView":7,"componentType":5126,"count":52,"max":[0.6031673550605774,0.966118335723877,-0.20546159148216248,0.35871806740760803],"min":[-0.591191828250885,0.30292221903800964,-0.8346938490867615,-0.108285091817379],"type":"VEC4"},{"bufferView":8,"componentType":5126,"count":52,"max":[5.75],"min":[3.625],"type":"SCALAR"},{"bufferView":9,"componentType":5126,"count":52,"max":[-0.8025000095367432,0.15625,0.27562499046325684],"min":[-1.0625,-1.625,-0.3362500071525574],"type":"VEC3"},{"bufferView":10,"componentType":5126,"count":1,"max":[0],"min":[0],"type":"SCALAR"},{"bufferView":11,"componentType":5126,"count":1,"max":[1,1.5,1],"min":[1,1.5,1],"type":"VEC3"},{"bufferView":12,"componentType":5126,"count":140,"max":[5.791666507720947],"min":[0],"type":"SCALAR"},{"bufferView":13,"componentType":5126,"count":140,"max":[0.04612884297966957,0.9905693531036377,0.04446132108569145,1],"min":[-0.04655955359339714,-0.9374805688858032,-0.05335075408220291,-1],"type":"VEC4"},{"bufferView":14,"componentType":5126,"count":121,"max":[5],"min":[0],"type":"SCALAR"},{"bufferView":15,"componentType":5126,"count":121,"max":[-0.176025390625,0.1262499988079071,-0.91796875],"min":[-0.238525390625,-0.013124999590218067,-0.91796875],"type":"VEC3"},{"bufferView":16,"componentType":5126,"count":121,"max":[5],"min":[0],"type":"SCALAR"},{"bufferView":17,"componentType":5126,"count":121,"max":[0.550000011920929,0.30000001192092896,0.550000011920929],"min":[0.30000001192092896,0.05000000074505806,0.30000001192092896],"type":"VEC3"},{"bufferView":18,"componentType":5126,"count":1,"max":[0],"min":[0],"type":"SCALAR"},{"bufferView":19,"componentType":5126,"count":1,"max":[0,0,0,1],"min":[0,0,0,1],"type":"VEC4"},{"bufferView":20,"componentType":5126,"count":1,"max":[0],"min":[0],"type":"SCALAR"},{"bufferView":21,"componentType":5126,"count":1,"max":[0.176025390625,0.16562500596046448,0.29296875],"min":[0.176025390625,0.16562500596046448,0.29296875],"type":"VEC3"},{"bufferView":22,"componentType":5126,"count":140,"max":[5.791666507720947],"min":[0],"type":"SCALAR"},{"bufferView":23,"componentType":5126,"count":140,"max":[0.27720361948013306,0.3156907856464386,0.0963502824306488,1],"min":[-0.37146180868148804,-0.3201289474964142,-0.10630922019481659,0.9230862855911255],"type":"VEC4"},{"bufferView":24,"componentType":5126,"count":140,"max":[5.791666507720947],"min":[0],"type":"SCALAR"},{"bufferView":25,"componentType":5126,"count":140,"max":[0.860660970211029,0.08035468310117722,0.302683025598526,1],"min":[-0.6131907105445862,-0.29405879974365234,-0.3123305141925812,0.5073629021644592],"type":"VEC4"},{"bufferView":26,"componentType":5126,"count":140,"max":[5.791666507720947],"min":[0],"type":"SCALAR"},{"bufferView":27,"componentType":5126,"count":140,"max":[0.35624998807907104,0.75,-0.0625],"min":[0.25,0.668749988079071,-0.1693750023841858],"type":"VEC3"},{"bufferView":28,"componentType":5126,"count":140,"max":[5.791666507720947],"min":[0],"type":"SCALAR"},{"bufferView":29,"componentType":5126,"count":140,"max":[0,0.061048541218042374,0.007014962378889322,1],"min":[-0.3893651068210602,0,0,0.9210835099220276],"type":"VEC4"},{"bufferView":30,"componentType":5126,"count":140,"max":[5.791666507720947],"min":[0],"type":"SCALAR"},{"bufferView":31,"componentType":5126,"count":140,"max":[0.9093503355979919,0.21336673200130463,0.035034775733947754,1],"min":[-0.18058158457279205,-0.1997976303100586,-0.19304077327251434,0.4063105881214142],"type":"VEC4"},{"bufferView":32,"componentType":5126,"count":140,"max":[5.791666507720947],"min":[0],"type":"SCALAR"},{"bufferView":33,"componentType":5126,"count":140,"max":[0.19206681847572327,0.04810867831110954,0.4411301910877228,1],"min":[0,-0.1646098792552948,-0.5491438508033752,0.8259314894676208],"type":"VEC4"},{"bufferView":34,"componentType":5126,"count":140,"max":[5.791666507720947],"min":[0],"type":"SCALAR"},{"bufferView":35,"componentType":5126,"count":140,"max":[0.046237051486968994,0.08165205270051956,0.1339881718158722,1],"min":[-0.14466634392738342,-0.053705643862485886,-0.38157641887664795,0.9210812449455261],"type":"VEC4"},{"bufferView":36,"componentType":5126,"count":136,"max":[5.708333492279053],"min":[0.0833333358168602],"type":"SCALAR"},{"bufferView":37,"componentType":5126,"count":136,"max":[0.07468744367361069,0.0009008381748571992,0.01535553578287363,1],"min":[-0.03738659620285034,-0.031060604378581047,-0.051551297307014465,0.9957671761512756],"type":"VEC4"},{"bufferView":38,"componentType":5126,"count":136,"max":[5.666666507720947],"min":[0.0416666679084301],"type":"SCALAR"},{"bufferView":39,"componentType":5126,"count":136,"max":[0.5,0.3187499940395355,1.2999999523162842],"min":[0.5,0.2800000011920929,1.125],"type":"VEC3"}]}