{"asset":{"version":"2.0","generator":"Blockbench 4.9.2 glTF exporter"},"scenes":[{"nodes":[13],"name":"blockbench_export"}],"scene":0,"nodes":[{"translation":[0.375,-0.6875,0],"name":"RightHand"},{"translation":[-0.551025390625,0.7093750000000003,-0.91796875],"name":"R","children":[0]},{"translation":[2.220446049250313e-16,0.71875,-0.06249999999999978],"name":"Head"},{"translation":[0.25,0.75,-0.0625],"name":"RightArm"},{"translation":[-0.25,0.75,-0.0625],"name":"LeftArm"},{"translation":[0,0.25,0.0625],"name":"Body","children":[2,3,4]},{"translation":[0.11875000000000002,0.2265625,0],"name":"RightLeg"},{"translation":[0.006249999999999978,0.25,0],"name":"LeftLeg"},{"translation":[-0.176025390625,0.02187500000000031,-0.91796875],"name":"licease","children":[5,6,7]},{"translation":[0.176025390625,0.1656249999999997,0.29296875],"name":"bone","children":[1,8]},{"translation":[-0.375,0,0],"name":"LeftHand"},{"translation":[0.375,0.1875,-0.625],"name":"l","children":[10]},{"translation":[0.5,0.3125,1.125],"name":"bone2","children":[9,11]},{"children":[12]}],"animations":[{"name":"draw","samplers":[{"input":0,"output":1,"interpolation":"LINEAR"},{"input":2,"output":3,"interpolation":"LINEAR"},{"input":4,"output":5,"interpolation":"LINEAR"},{"input":6,"output":7,"interpolation":"LINEAR"},{"input":8,"output":9,"interpolation":"LINEAR"},{"input":10,"output":11,"interpolation":"LINEAR"},{"input":12,"output":13,"interpolation":"LINEAR"},{"input":14,"output":15,"interpolation":"LINEAR"},{"input":16,"output":17,"interpolation":"LINEAR"},{"input":18,"output":19,"interpolation":"LINEAR"},{"input":20,"output":21,"interpolation":"LINEAR"},{"input":22,"output":23,"interpolation":"LINEAR"},{"input":24,"output":25,"interpolation":"LINEAR"},{"input":26,"output":27,"interpolation":"LINEAR"},{"input":28,"output":29,"interpolation":"LINEAR"},{"input":30,"output":31,"interpolation":"LINEAR"},{"input":32,"output":33,"interpolation":"LINEAR"}],"channels":[{"sampler":0,"target":{"node":1,"path":"rotation"}},{"sampler":1,"target":{"node":1,"path":"translation"}},{"sampler":2,"target":{"node":1,"path":"scale"}},{"sampler":3,"target":{"node":11,"path":"rotation"}},{"sampler":4,"target":{"node":11,"path":"translation"}},{"sampler":5,"target":{"node":11,"path":"scale"}},{"sampler":6,"target":{"node":8,"path":"rotation"}},{"sampler":7,"target":{"node":8,"path":"translation"}},{"sampler":8,"target":{"node":8,"path":"scale"}},{"sampler":9,"target":{"node":9,"path":"rotation"}},{"sampler":10,"target":{"node":9,"path":"translation"}},{"sampler":11,"target":{"node":2,"path":"rotation"}},{"sampler":12,"target":{"node":3,"path":"rotation"}},{"sampler":13,"target":{"node":3,"path":"translation"}},{"sampler":14,"target":{"node":5,"path":"rotation"}},{"sampler":15,"target":{"node":4,"path":"rotation"}},{"sampler":16,"target":{"node":6,"path":"rotation"}}]}],"bufferViews":[{"buffer":0,"byteOffset":0,"byteLength":4},{"buffer":0,"byteOffset":4,"byteLength":16},{"buffer":0,"byteOffset":20,"byteLength":4},{"buffer":0,"byteOffset":24,"byteLength":12},{"buffer":0,"byteOffset":36,"byteLength":4},{"buffer":0,"byteOffset":40,"byteLength":12},{"buffer":0,"byteOffset":52,"byteLength":4},{"buffer":0,"byteOffset":56,"byteLength":16},{"buffer":0,"byteOffset":72,"byteLength":4},{"buffer":0,"byteOffset":76,"byteLength":12},{"buffer":0,"byteOffset":88,"byteLength":4},{"buffer":0,"byteOffset":92,"byteLength":12},{"buffer":0,"byteOffset":104,"byteLength":68},{"buffer":0,"byteOffset":172,"byteLength":272},{"buffer":0,"byteOffset":444,"byteLength":72},{"buffer":0,"byteOffset":516,"byteLength":216},{"buffer":0,"byteOffset":732,"byteLength":8},{"buffer":0,"byteOffset":740,"byteLength":24},{"buffer":0,"byteOffset":764,"byteLength":64},{"buffer":0,"byteOffset":828,"byteLength":256},{"buffer":0,"byteOffset":1084,"byteLength":56},{"buffer":0,"byteOffset":1140,"byteLength":168},{"buffer":0,"byteOffset":1308,"byteLength":28},{"buffer":0,"byteOffset":1336,"byteLength":112},{"buffer":0,"byteOffset":1448,"byteLength":28},{"buffer":0,"byteOffset":1476,"byteLength":112},{"buffer":0,"byteOffset":1588,"byteLength":28},{"buffer":0,"byteOffset":1616,"byteLength":84},{"buffer":0,"byteOffset":1700,"byteLength":28},{"buffer":0,"byteOffset":1728,"byteLength":112},{"buffer":0,"byteOffset":1840,"byteLength":28},{"buffer":0,"byteOffset":1868,"byteLength":112},{"buffer":0,"byteOffset":1980,"byteLength":28},{"buffer":0,"byteOffset":2008,"byteLength":112}],"buffers":[{"byteLength":2120,"uri":"data:application/octet-stream;base64,"}],"accessors":[{"bufferView":0,"componentType":5126,"count":1,"max":[0],"min":[0],"type":"SCALAR"},{"bufferView":1,"componentType":5126,"count":1,"max":[-0.10991579294204712,0.6602554321289062,-0.7419383525848389,-0.03884322941303253],"min":[-0.10991579294204712,0.6602554321289062,-0.7419383525848389,-0.03884322941303253],"type":"VEC4"},{"bufferView":2,"componentType":5126,"count":1,"max":[0],"min":[0],"type":"SCALAR"},{"bufferView":3,"componentType":5126,"count":1,"max":[-0.1785253882408142,-0.14124999940395355,-0.9048437476158142],"min":[-0.1785253882408142,-0.14124999940395355,-0.9048437476158142],"type":"VEC3"},{"bufferView":4,"componentType":5126,"count":1,"max":[0],"min":[0],"type":"SCALAR"},{"bufferView":5,"componentType":5126,"count":1,"max":[1,1.5,1],"min":[1,1.5,1],"type":"VEC3"},{"bufferView":6,"componentType":5126,"count":1,"max":[0],"min":[0],"type":"SCALAR"},{"bufferView":7,"componentType":5126,"count":1,"max":[-0.591191828250885,0.5825267434120178,-0.4271722435951233,0.35871806740760803],"min":[-0.591191828250885,0.5825267434120178,-0.4271722435951233,0.35871806740760803],"type":"VEC4"},{"bufferView":8,"componentType":5126,"count":1,"max":[0],"min":[0],"type":"SCALAR"},{"bufferView":9,"componentType":5126,"count":1,"max":[-1.0625,-1.625,0],"min":[-1.0625,-1.625,0],"type":"VEC3"},{"bufferView":10,"componentType":5126,"count":1,"max":[0],"min":[0],"type":"SCALAR"},{"bufferView":11,"componentType":5126,"count":1,"max":[1,1.5,1],"min":[1,1.5,1],"type":"VEC3"},{"bufferView":12,"componentType":5126,"count":17,"max":[0.75],"min":[0.0833333358168602],"type":"SCALAR"},{"bufferView":13,"componentType":5126,"count":17,"max":[0.04993493854999542,0.06976369768381119,0.18906429409980774,1],"min":[-0.01290992833673954,-0.008240916766226292,-0.1087646335363388,0.97975754737854],"type":"VEC4"},{"bufferView":14,"componentType":5126,"count":18,"max":[0.75],"min":[0.0416666679084301],"type":"SCALAR"},{"bufferView":15,"componentType":5126,"count":18,"max":[-0.176025390625,0.11187499761581421,-0.91796875],"min":[-0.176025390625,0.02187499962747097,-0.91796875],"type":"VEC3"},{"bufferView":16,"componentType":5126,"count":2,"max":[0.0416666679084301],"min":[0],"type":"SCALAR"},{"bufferView":17,"componentType":5126,"count":2,"max":[0.30000001192092896,0.30000001192092896,0.30000001192092896],"min":[0.30000001192092896,0.30000001192092896,0.30000001192092896],"type":"VEC3"},{"bufferView":18,"componentType":5126,"count":16,"max":[0.7083333134651184],"min":[0.0833333358168602],"type":"SCALAR"},{"bufferView":19,"componentType":5126,"count":16,"max":[0.1814827024936676,0.5171161890029907,0.329424649477005,1],"min":[-0.22449170053005219,-0.13654370605945587,-0.11875719577074051,0.7574125528335571],"type":"VEC4"},{"bufferView":20,"componentType":5126,"count":14,"max":[0.5833333134651184],"min":[0.0416666679084301],"type":"SCALAR"},{"bufferView":21,"componentType":5126,"count":14,"max":[0.21977539360523224,0.19374999403953552,0.5510937571525574],"min":[0.15102538466453552,-0.008124999701976776,0.1860937476158142],"type":"VEC3"},{"bufferView":22,"componentType":5126,"count":7,"max":[0.875],"min":[0.625],"type":"SCALAR"},{"bufferView":23,"componentType":5126,"count":7,"max":[0.28198015689849854,0.11646910756826401,0.014919000677764416,1],"min":[0,0,-0.012192496098577976,0.9522465467453003],"type":"VEC4"},{"bufferView":24,"componentType":5126,"count":7,"max":[0.9166666865348816],"min":[0.6666666865348816],"type":"SCALAR"},{"bufferView":25,"componentType":5126,"count":7,"max":[0,0,0.29865729808807373,1],"min":[-0.6200228929519653,-0.30342450737953186,0,0.6696118116378784],"type":"VEC4"},{"bufferView":26,"componentType":5126,"count":7,"max":[0.9166666865348816],"min":[0.6666666865348816],"type":"SCALAR"},{"bufferView":27,"componentType":5126,"count":7,"max":[0.35624998807907104,0.75,-0.0625],"min":[0.25,0.668749988079071,-0.1693750023841858],"type":"VEC3"},{"bufferView":28,"componentType":5126,"count":7,"max":[0.875],"min":[0.625],"type":"SCALAR"},{"bufferView":29,"componentType":5126,"count":7,"max":[0,0.004525082651525736,0.014561677351593971,1],"min":[-0.2965274453163147,0,0,0.9549025893211365],"type":"VEC4"},{"bufferView":30,"componentType":5126,"count":7,"max":[0.9166666865348816],"min":[0.6666666865348816],"type":"SCALAR"},{"bufferView":31,"componentType":5126,"count":7,"max":[0.8846777677536011,0.22671902179718018,0.015997085720300674,1],"min":[0,0,-0.11563567817211151,0.3906048834323883],"type":"VEC4"},{"bufferView":32,"componentType":5126,"count":7,"max":[0.9583333134651184],"min":[0.7083333134651184],"type":"SCALAR"},{"bufferView":33,"componentType":5126,"count":7,"max":[0,0,0,1],"min":[-0.8860013484954834,0,0,0.4636826813220978],"type":"VEC4"}]}