{"asset":{"version":"2.0","generator":"Blockbench 4.8.3 glTF exporter"},"scenes":[{"nodes":[12],"name":"blockbench_export"}],"scene":0,"nodes":[{"translation":[0.375,-0.6875,0],"name":"RightHand"},{"translation":[-0.375,0.6000000000000003,-0.625],"name":"R","children":[0]},{"translation":[-0.0048828125,-0.0166015625,-0.095703125],"name":"cylinder_group"},{"translation":[-0.0048828125,-0.0166015625,-0.095703125],"name":"bullets"},{"translation":[-0.0009765625,0.044921875,-0.2939453125],"name":"mag","children":[2,3]},{"translation":[-0.755859375,0.1533203125,-0.2021484375],"name":"loader"},{"translation":[-0.005859375,0.1540503125,-0.0914328124999999],"name":"hammer"},{"translation":[0.005859375,-0.11582031249999969,-0.2353515625],"name":"angel","children":[4,5,6]},{"translation":[0,0.2749999999999997,0],"name":"bone","children":[1,7]},{"translation":[-0.375,-0.6875,0],"name":"LeftHand"},{"translation":[0.375,0.875,-0.625],"name":"l","children":[9]},{"translation":[0.5,0.3125,1.125],"name":"bone2","children":[8,10]},{"children":[11]}],"animations":[{"name":"inspect","samplers":[{"input":0,"output":1,"interpolation":"LINEAR"},{"input":2,"output":3,"interpolation":"LINEAR"},{"input":4,"output":5,"interpolation":"LINEAR"},{"input":6,"output":7,"interpolation":"LINEAR"},{"input":8,"output":9,"interpolation":"LINEAR"},{"input":10,"output":11,"interpolation":"LINEAR"},{"input":12,"output":13,"interpolation":"LINEAR"},{"input":14,"output":15,"interpolation":"LINEAR"},{"input":16,"output":17,"interpolation":"LINEAR"},{"input":18,"output":19,"interpolation":"LINEAR"},{"input":20,"output":21,"interpolation":"LINEAR"},{"input":22,"output":23,"interpolation":"LINEAR"},{"input":24,"output":25,"interpolation":"LINEAR"},{"input":26,"output":27,"interpolation":"LINEAR"}],"channels":[{"sampler":0,"target":{"node":11,"path":"rotation"}},{"sampler":1,"target":{"node":11,"path":"translation"}},{"sampler":2,"target":{"node":8,"path":"rotation"}},{"sampler":3,"target":{"node":8,"path":"translation"}},{"sampler":4,"target":{"node":1,"path":"rotation"}},{"sampler":5,"target":{"node":1,"path":"translation"}},{"sampler":6,"target":{"node":1,"path":"scale"}},{"sampler":7,"target":{"node":10,"path":"translation"}},{"sampler":8,"target":{"node":10,"path":"scale"}},{"sampler":9,"target":{"node":5,"path":"scale"}},{"sampler":10,"target":{"node":7,"path":"rotation"}},{"sampler":11,"target":{"node":7,"path":"translation"}},{"sampler":12,"target":{"node":4,"path":"rotation"}},{"sampler":13,"target":{"node":4,"path":"translation"}}]}],"bufferViews":[{"buffer":0,"byteOffset":0,"byteLength":4},{"buffer":0,"byteOffset":4,"byteLength":16},{"buffer":0,"byteOffset":20,"byteLength":4},{"buffer":0,"byteOffset":24,"byteLength":12},{"buffer":0,"byteOffset":36,"byteLength":80},{"buffer":0,"byteOffset":116,"byteLength":320},{"buffer":0,"byteOffset":436,"byteLength":36},{"buffer":0,"byteOffset":472,"byteLength":108},{"buffer":0,"byteOffset":580,"byteLength":48},{"buffer":0,"byteOffset":628,"byteLength":192},{"buffer":0,"byteOffset":820,"byteLength":4},{"buffer":0,"byteOffset":824,"byteLength":12},{"buffer":0,"byteOffset":836,"byteLength":4},{"buffer":0,"byteOffset":840,"byteLength":12},{"buffer":0,"byteOffset":852,"byteLength":4},{"buffer":0,"byteOffset":856,"byteLength":12},{"buffer":0,"byteOffset":868,"byteLength":4},{"buffer":0,"byteOffset":872,"byteLength":12},{"buffer":0,"byteOffset":884,"byteLength":4},{"buffer":0,"byteOffset":888,"byteLength":12},{"buffer":0,"byteOffset":900,"byteLength":52},{"buffer":0,"byteOffset":952,"byteLength":208},{"buffer":0,"byteOffset":1160,"byteLength":8},{"buffer":0,"byteOffset":1168,"byteLength":24},{"buffer":0,"byteOffset":1192,"byteLength":24},{"buffer":0,"byteOffset":1216,"byteLength":96},{"buffer":0,"byteOffset":1312,"byteLength":24},{"buffer":0,"byteOffset":1336,"byteLength":72}],"buffers":[{"byteLength":1408,"uri":"data:application/octet-stream;base64,"}],"accessors":[{"bufferView":0,"componentType":5126,"count":1,"max":[0],"min":[0],"type":"SCALAR"},{"bufferView":1,"componentType":5126,"count":1,"max":[0,0,0,1],"min":[0,0,0,1],"type":"VEC4"},{"bufferView":2,"componentType":5126,"count":1,"max":[0],"min":[0],"type":"SCALAR"},{"bufferView":3,"componentType":5126,"count":1,"max":[0.5,0.3125,1.125],"min":[0.5,0.3125,1.125],"type":"VEC3"},{"bufferView":4,"componentType":5126,"count":20,"max":[1.5833333730697632],"min":[0],"type":"SCALAR"},{"bufferView":5,"componentType":5126,"count":20,"max":[0.25849291682243347,0.02671223133802414,0.5168605446815491,1],"min":[-0.16827544569969177,-0.17718541622161865,-0.22545766830444336,0.8243612051010132],"type":"VEC4"},{"bufferView":6,"componentType":5126,"count":9,"max":[1.5833333730697632],"min":[0],"type":"SCALAR"},{"bufferView":7,"componentType":5126,"count":9,"max":[0.1064453125,0.3700000047683716,0.11707030981779099],"min":[-0.0166015625,0.20886719226837158,0],"type":"VEC3"},{"bufferView":8,"componentType":5126,"count":12,"max":[1.5],"min":[0.125],"type":"SCALAR"},{"bufferView":9,"componentType":5126,"count":12,"max":[0.10419779270887375,-0.7772800326347351,0.6261799931526184,0.046795014292001724],"min":[-0.024841226637363434,-0.8192022442817688,0.570117712020874,-0.04165380448102951],"type":"VEC4"},{"bufferView":10,"componentType":5126,"count":1,"max":[0.125],"min":[0.125],"type":"SCALAR"},{"bufferView":11,"componentType":5126,"count":1,"max":[0.05078125,-0.3326171934604645,-0.3623046875],"min":[0.05078125,-0.3326171934604645,-0.3623046875],"type":"VEC3"},{"bufferView":12,"componentType":5126,"count":1,"max":[0.125],"min":[0.125],"type":"SCALAR"},{"bufferView":13,"componentType":5126,"count":1,"max":[1.75,2,1.75],"min":[1.75,2,1.75],"type":"VEC3"},{"bufferView":14,"componentType":5126,"count":1,"max":[0],"min":[0],"type":"SCALAR"},{"bufferView":15,"componentType":5126,"count":1,"max":[-0.375,0.875,-0.625],"min":[-0.375,0.875,-0.625],"type":"VEC3"},{"bufferView":16,"componentType":5126,"count":1,"max":[0],"min":[0],"type":"SCALAR"},{"bufferView":17,"componentType":5126,"count":1,"max":[0,0,0],"min":[0,0,0],"type":"VEC3"},{"bufferView":18,"componentType":5126,"count":1,"max":[0],"min":[0],"type":"SCALAR"},{"bufferView":19,"componentType":5126,"count":1,"max":[0,0,0],"min":[0,0,0],"type":"VEC3"},{"bufferView":20,"componentType":5126,"count":13,"max":[1.5],"min":[0.1666666716337204],"type":"SCALAR"},{"bufferView":21,"componentType":5126,"count":13,"max":[0.8891635537147522,0.10322126746177673,0.07137785851955414,1],"min":[-0.16580696403980255,-0.18015368282794952,-0.13107986748218536,-1],"type":"VEC4"},{"bufferView":22,"componentType":5126,"count":2,"max":[0.5],"min":[0.1666666716337204],"type":"SCALAR"},{"bufferView":23,"componentType":5126,"count":2,"max":[0.005859375,-0.11582031100988388,-0.2353515625],"min":[0.005859375,-0.11582031100988388,-0.2353515625],"type":"VEC3"},{"bufferView":24,"componentType":5126,"count":6,"max":[1.3333333730697632],"min":[0.6666666865348816],"type":"SCALAR"},{"bufferView":25,"componentType":5126,"count":6,"max":[0,0,0.8582888841629028,1],"min":[0,0,0,0.5131667852401733],"type":"VEC4"},{"bufferView":26,"componentType":5126,"count":6,"max":[1.3333333730697632],"min":[0.6666666865348816],"type":"SCALAR"},{"bufferView":27,"componentType":5126,"count":6,"max":[-0.0009765625,0.13843749463558197,-0.2939453125],"min":[-0.10750000178813934,0.044921875,-0.2939453125],"type":"VEC3"}]}