{"asset":{"version":"2.0","generator":"Blockbench 4.8.3 glTF exporter"},"scenes":[{"nodes":[12],"name":"blockbench_export"}],"scene":0,"nodes":[{"translation":[0.375,-0.6875,0],"name":"RightHand"},{"translation":[-0.375,0.6000000000000003,-0.625],"name":"R","children":[0]},{"translation":[-0.0048828125,-0.0166015625,-0.095703125],"name":"cylinder_group"},{"translation":[-0.0048828125,-0.0166015625,-0.095703125],"name":"bullets"},{"translation":[-0.0009765625,0.044921875,-0.2939453125],"name":"mag","children":[2,3]},{"translation":[-0.755859375,0.1533203125,-0.2021484375],"name":"loader"},{"translation":[-0.005859375,0.1540503125,-0.0914328124999999],"name":"hammer"},{"translation":[0.005859375,-0.11582031249999969,-0.2353515625],"name":"angel","children":[4,5,6]},{"translation":[0,0.2749999999999997,0],"name":"bone","children":[1,7]},{"translation":[-0.375,-0.6875,0],"name":"LeftHand"},{"translation":[0.375,0.875,-0.625],"name":"l","children":[9]},{"translation":[0.5,0.3125,1.125],"name":"bone2","children":[8,10]},{"children":[11]}],"animations":[{"name":"draw","samplers":[{"input":0,"output":1,"interpolation":"LINEAR"},{"input":2,"output":3,"interpolation":"LINEAR"},{"input":4,"output":5,"interpolation":"LINEAR"},{"input":6,"output":7,"interpolation":"LINEAR"},{"input":8,"output":9,"interpolation":"LINEAR"},{"input":10,"output":11,"interpolation":"LINEAR"},{"input":12,"output":13,"interpolation":"LINEAR"},{"input":14,"output":15,"interpolation":"LINEAR"},{"input":16,"output":17,"interpolation":"LINEAR"},{"input":18,"output":19,"interpolation":"LINEAR"},{"input":20,"output":21,"interpolation":"LINEAR"},{"input":22,"output":23,"interpolation":"LINEAR"}],"channels":[{"sampler":0,"target":{"node":1,"path":"rotation"}},{"sampler":1,"target":{"node":1,"path":"translation"}},{"sampler":2,"target":{"node":1,"path":"scale"}},{"sampler":3,"target":{"node":10,"path":"translation"}},{"sampler":4,"target":{"node":10,"path":"scale"}},{"sampler":5,"target":{"node":5,"path":"scale"}},{"sampler":6,"target":{"node":11,"path":"rotation"}},{"sampler":7,"target":{"node":11,"path":"translation"}},{"sampler":8,"target":{"node":8,"path":"rotation"}},{"sampler":9,"target":{"node":8,"path":"translation"}},{"sampler":10,"target":{"node":7,"path":"rotation"}},{"sampler":11,"target":{"node":7,"path":"translation"}}]}],"bufferViews":[{"buffer":0,"byteOffset":0,"byteLength":36},{"buffer":0,"byteOffset":36,"byteLength":144},{"buffer":0,"byteOffset":180,"byteLength":20},{"buffer":0,"byteOffset":200,"byteLength":60},{"buffer":0,"byteOffset":260,"byteLength":4},{"buffer":0,"byteOffset":264,"byteLength":12},{"buffer":0,"byteOffset":276,"byteLength":4},{"buffer":0,"byteOffset":280,"byteLength":12},{"buffer":0,"byteOffset":292,"byteLength":4},{"buffer":0,"byteOffset":296,"byteLength":12},{"buffer":0,"byteOffset":308,"byteLength":4},{"buffer":0,"byteOffset":312,"byteLength":12},{"buffer":0,"byteOffset":324,"byteLength":24},{"buffer":0,"byteOffset":348,"byteLength":96},{"buffer":0,"byteOffset":444,"byteLength":16},{"buffer":0,"byteOffset":460,"byteLength":48},{"buffer":0,"byteOffset":508,"byteLength":32},{"buffer":0,"byteOffset":540,"byteLength":128},{"buffer":0,"byteOffset":668,"byteLength":24},{"buffer":0,"byteOffset":692,"byteLength":72},{"buffer":0,"byteOffset":764,"byteLength":20},{"buffer":0,"byteOffset":784,"byteLength":80},{"buffer":0,"byteOffset":864,"byteLength":8},{"buffer":0,"byteOffset":872,"byteLength":24}],"buffers":[{"byteLength":896,"uri":"data:application/octet-stream;base64,"}],"accessors":[{"bufferView":0,"componentType":5126,"count":9,"max":[0.8333333134651184],"min":[0],"type":"SCALAR"},{"bufferView":1,"componentType":5126,"count":9,"max":[0.05931810662150383,-0.7772800326347351,0.6263185739517212,0.014688304625451565],"min":[0.003011171007528901,-0.8030562996864319,0.5951818227767944,-0.028920309618115425],"type":"VEC4"},{"bufferView":2,"componentType":5126,"count":5,"max":[0.8333333134651184],"min":[0],"type":"SCALAR"},{"bufferView":3,"componentType":5126,"count":5,"max":[0.05078125,-0.3326171934604645,-0.3623046875],"min":[0.05078125,-0.3326171934604645,-0.3623046875],"type":"VEC3"},{"bufferView":4,"componentType":5126,"count":1,"max":[0],"min":[0],"type":"SCALAR"},{"bufferView":5,"componentType":5126,"count":1,"max":[1.75,2,1.75],"min":[1.75,2,1.75],"type":"VEC3"},{"bufferView":6,"componentType":5126,"count":1,"max":[0],"min":[0],"type":"SCALAR"},{"bufferView":7,"componentType":5126,"count":1,"max":[-0.375,0.875,-0.625],"min":[-0.375,0.875,-0.625],"type":"VEC3"},{"bufferView":8,"componentType":5126,"count":1,"max":[0],"min":[0],"type":"SCALAR"},{"bufferView":9,"componentType":5126,"count":1,"max":[0,0,0],"min":[0,0,0],"type":"VEC3"},{"bufferView":10,"componentType":5126,"count":1,"max":[0],"min":[0],"type":"SCALAR"},{"bufferView":11,"componentType":5126,"count":1,"max":[0,0,0],"min":[0,0,0],"type":"VEC3"},{"bufferView":12,"componentType":5126,"count":6,"max":[0.8333333134651184],"min":[0],"type":"SCALAR"},{"bufferView":13,"componentType":5126,"count":6,"max":[0.2523486614227295,0.5873275995254517,0.0719299167394638,1],"min":[-0.008703929372131824,-0.032594576478004456,-0.09269969910383224,0.7633958458900452],"type":"VEC4"},{"bufferView":14,"componentType":5126,"count":4,"max":[0.6666666865348816],"min":[0],"type":"SCALAR"},{"bufferView":15,"componentType":5126,"count":4,"max":[0.650390625,0.37187498807907104,1.201171875],"min":[0.46000000834465027,0.1845703125,0.8231250047683716],"type":"VEC3"},{"bufferView":16,"componentType":5126,"count":8,"max":[0.7083333134651184],"min":[0],"type":"SCALAR"},{"bufferView":17,"componentType":5126,"count":8,"max":[0.002323742723092437,0,0.29623475670814514,1],"min":[-0.40993747115135193,-0.39395642280578613,0,0.7725632786750793],"type":"VEC4"},{"bufferView":18,"componentType":5126,"count":6,"max":[0.7083333134651184],"min":[0],"type":"SCALAR"},{"bufferView":19,"componentType":5126,"count":6,"max":[0.2265625,0.2750000059604645,0.19437499344348907],"min":[0,0.003046874888241291,0],"type":"VEC3"},{"bufferView":20,"componentType":5126,"count":5,"max":[0.5],"min":[0],"type":"SCALAR"},{"bufferView":21,"componentType":5126,"count":5,"max":[0.9981431365013123,0.019618362188339233,0.0008332612342201173,1],"min":[-0.054450977593660355,0,-0.05226856842637062,-1],"type":"VEC4"},{"bufferView":22,"componentType":5126,"count":2,"max":[0.4166666567325592],"min":[0],"type":"SCALAR"},{"bufferView":23,"componentType":5126,"count":2,"max":[0.005859375,-0.11582031100988388,-0.2353515625],"min":[0.005859375,-0.11582031100988388,-0.2353515625],"type":"VEC3"}]}