{"asset":{"version":"2.0","generator":"Blockbench 4.8.3 glTF exporter"},"scenes":[{"nodes":[10],"name":"blockbench_export"}],"scene":0,"nodes":[{"translation":[0.375,-0.6875,0],"name":"RightHand"},{"translation":[-0.375,0.6000000000000003,-0.625],"name":"R","children":[0]},{"translation":[-0.0048828125,-0.0166015625,-0.095703125],"name":"bullets"},{"translation":[-0.0009765625,0.044921875,-0.2939453125],"name":"mag","children":[2]},{"translation":[-0.755859375,0.1533203125,-0.2021484375],"name":"loader"},{"translation":[0.005859375,-0.11582031249999969,-0.2353515625],"name":"angel","children":[3,4]},{"translation":[0,0.2749999999999997,0],"name":"bone","children":[1,5]},{"translation":[-0.375,-0.6875,0],"name":"LeftHand"},{"translation":[0.375,0.875,-0.625],"name":"l","children":[7]},{"translation":[0.5,0.3125,1.125],"name":"bone2","children":[6,8]},{"children":[9]}],"animations":[{"name":"reload","samplers":[{"input":0,"output":1,"interpolation":"LINEAR"},{"input":2,"output":3,"interpolation":"LINEAR"},{"input":4,"output":5,"interpolation":"LINEAR"},{"input":6,"output":7,"interpolation":"LINEAR"},{"input":8,"output":9,"interpolation":"LINEAR"},{"input":10,"output":11,"interpolation":"LINEAR"},{"input":12,"output":13,"interpolation":"LINEAR"},{"input":14,"output":15,"interpolation":"LINEAR"},{"input":16,"output":17,"interpolation":"LINEAR"},{"input":18,"output":19,"interpolation":"LINEAR"},{"input":20,"output":21,"interpolation":"LINEAR"},{"input":22,"output":23,"interpolation":"LINEAR"},{"input":24,"output":25,"interpolation":"LINEAR"},{"input":26,"output":27,"interpolation":"LINEAR"},{"input":28,"output":29,"interpolation":"LINEAR"},{"input":30,"output":31,"interpolation":"LINEAR"},{"input":32,"output":33,"interpolation":"LINEAR"},{"input":34,"output":35,"interpolation":"LINEAR"},{"input":36,"output":37,"interpolation":"LINEAR"},{"input":38,"output":39,"interpolation":"LINEAR"}],"channels":[{"sampler":0,"target":{"node":9,"path":"rotation"}},{"sampler":1,"target":{"node":9,"path":"translation"}},{"sampler":2,"target":{"node":6,"path":"rotation"}},{"sampler":3,"target":{"node":6,"path":"translation"}},{"sampler":4,"target":{"node":1,"path":"rotation"}},{"sampler":5,"target":{"node":1,"path":"translation"}},{"sampler":6,"target":{"node":1,"path":"scale"}},{"sampler":7,"target":{"node":8,"path":"rotation"}},{"sampler":8,"target":{"node":8,"path":"translation"}},{"sampler":9,"target":{"node":8,"path":"scale"}},{"sampler":10,"target":{"node":4,"path":"rotation"}},{"sampler":11,"target":{"node":4,"path":"translation"}},{"sampler":12,"target":{"node":4,"path":"scale"}},{"sampler":13,"target":{"node":2,"path":"rotation"}},{"sampler":14,"target":{"node":2,"path":"translation"}},{"sampler":15,"target":{"node":2,"path":"scale"}},{"sampler":16,"target":{"node":5,"path":"rotation"}},{"sampler":17,"target":{"node":5,"path":"translation"}},{"sampler":18,"target":{"node":3,"path":"rotation"}},{"sampler":19,"target":{"node":3,"path":"translation"}}]}],"bufferViews":[{"buffer":0,"byteOffset":0,"byteLength":68},{"buffer":0,"byteOffset":68,"byteLength":272},{"buffer":0,"byteOffset":340,"byteLength":36},{"buffer":0,"byteOffset":376,"byteLength":108},{"buffer":0,"byteOffset":484,"byteLength":76},{"buffer":0,"byteOffset":560,"byteLength":304},{"buffer":0,"byteOffset":864,"byteLength":52},{"buffer":0,"byteOffset":916,"byteLength":156},{"buffer":0,"byteOffset":1072,"byteLength":4},{"buffer":0,"byteOffset":1076,"byteLength":16},{"buffer":0,"byteOffset":1092,"byteLength":4},{"buffer":0,"byteOffset":1096,"byteLength":12},{"buffer":0,"byteOffset":1108,"byteLength":4},{"buffer":0,"byteOffset":1112,"byteLength":12},{"buffer":0,"byteOffset":1124,"byteLength":40},{"buffer":0,"byteOffset":1164,"byteLength":160},{"buffer":0,"byteOffset":1324,"byteLength":32},{"buffer":0,"byteOffset":1356,"byteLength":96},{"buffer":0,"byteOffset":1452,"byteLength":20},{"buffer":0,"byteOffset":1472,"byteLength":60},{"buffer":0,"byteOffset":1532,"byteLength":20},{"buffer":0,"byteOffset":1552,"byteLength":80},{"buffer":0,"byteOffset":1632,"byteLength":24},{"buffer":0,"byteOffset":1656,"byteLength":72},{"buffer":0,"byteOffset":1728,"byteLength":20},{"buffer":0,"byteOffset":1748,"byteLength":60},{"buffer":0,"byteOffset":1808,"byteLength":20},{"buffer":0,"byteOffset":1828,"byteLength":80},{"buffer":0,"byteOffset":1908,"byteLength":20},{"buffer":0,"byteOffset":1928,"byteLength":60},{"buffer":0,"byteOffset":1988,"byteLength":16},{"buffer":0,"byteOffset":2004,"byteLength":48},{"buffer":0,"byteOffset":2052,"byteLength":56},{"buffer":0,"byteOffset":2108,"byteLength":224},{"buffer":0,"byteOffset":2332,"byteLength":8},{"buffer":0,"byteOffset":2340,"byteLength":24},{"buffer":0,"byteOffset":2364,"byteLength":16},{"buffer":0,"byteOffset":2380,"byteLength":64},{"buffer":0,"byteOffset":2444,"byteLength":16},{"buffer":0,"byteOffset":2460,"byteLength":48}],"buffers":[{"byteLength":2508,"uri":"data:application/octet-stream;base64,"}],"accessors":[{"bufferView":0,"componentType":5126,"count":17,"max":[1.8333333730697632],"min":[0],"type":"SCALAR"},{"bufferView":1,"componentType":5126,"count":17,"max":[0.034872010350227356,0.0014267617370933294,0.04143970087170601,1],"min":[-0.021408982574939728,-0.038826942443847656,-0.026176948100328445,0.9983448386192322],"type":"VEC4"},{"bufferView":2,"componentType":5126,"count":9,"max":[1.8333333730697632],"min":[0],"type":"SCALAR"},{"bufferView":3,"componentType":5126,"count":9,"max":[0.5,0.3291015625,1.1550781726837158],"min":[0.5,0.3125,1.1102734804153442],"type":"VEC3"},{"bufferView":4,"componentType":5126,"count":19,"max":[1.9166666269302368],"min":[0],"type":"SCALAR"},{"bufferView":5,"componentType":5126,"count":19,"max":[0.1513880044221878,0.0871109664440155,0.4556022882461548,1],"min":[-0.12368236482143402,-0.12726439535617828,-0.2528217136859894,0.878887414932251],"type":"VEC4"},{"bufferView":6,"componentType":5126,"count":13,"max":[1.9166666269302368],"min":[0],"type":"SCALAR"},{"bufferView":7,"componentType":5126,"count":13,"max":[0.0830078125,0.2896093726158142,0.07007812708616257],"min":[0,0.22374999523162842,-0.019765624776482582],"type":"VEC3"},{"bufferView":8,"componentType":5126,"count":1,"max":[0],"min":[0],"type":"SCALAR"},{"bufferView":9,"componentType":5126,"count":1,"max":[0.05931810662150383,-0.7772800326347351,0.6261799931526184,0.014688304625451565],"min":[0.05931810662150383,-0.7772800326347351,0.6261799931526184,0.014688304625451565],"type":"VEC4"},{"bufferView":10,"componentType":5126,"count":1,"max":[0],"min":[0],"type":"SCALAR"},{"bufferView":11,"componentType":5126,"count":1,"max":[0.05078125,-0.3326171934604645,-0.3623046875],"min":[0.05078125,-0.3326171934604645,-0.3623046875],"type":"VEC3"},{"bufferView":12,"componentType":5126,"count":1,"max":[0],"min":[0],"type":"SCALAR"},{"bufferView":13,"componentType":5126,"count":1,"max":[1.75,2,1.75],"min":[1.75,2,1.75],"type":"VEC3"},{"bufferView":14,"componentType":5126,"count":10,"max":[1.3333333730697632],"min":[0.375],"type":"SCALAR"},{"bufferView":15,"componentType":5126,"count":10,"max":[0.5162373781204224,0.823523759841919,0.01345957349985838,0.1710100769996643],"min":[0.21548958122730255,0.46984630823135376,-0.813797652721405,-0.5848912000656128],"type":"VEC4"},{"bufferView":16,"componentType":5126,"count":8,"max":[1.3333333730697632],"min":[0],"type":"SCALAR"},{"bufferView":17,"componentType":5126,"count":8,"max":[-0.32988280057907104,0.875,0.08203125],"min":[-0.9375,-1,-0.625],"type":"VEC3"},{"bufferView":18,"componentType":5126,"count":5,"max":[1.375],"min":[0],"type":"SCALAR"},{"bufferView":19,"componentType":5126,"count":5,"max":[1.75,2,1.75],"min":[0,0,0],"type":"VEC3"},{"bufferView":20,"componentType":5126,"count":5,"max":[1.3333333730697632],"min":[0.375],"type":"SCALAR"},{"bufferView":21,"componentType":5126,"count":5,"max":[0.2649660110473633,-0.00525020994246006,0.14929811656475067,0.9879016876220703],"min":[-0.8180878758430481,-0.8569834232330322,-0.1572193056344986,0.41310355067253113],"type":"VEC4"},{"bufferView":22,"componentType":5126,"count":6,"max":[1.3333333730697632],"min":[0.2083333283662796],"type":"SCALAR"},{"bufferView":23,"componentType":5126,"count":6,"max":[-0.17140625417232513,0.1533203125,0.3662109375],"min":[-1.072265625,-0.8798828125,-0.2021484375],"type":"VEC3"},{"bufferView":24,"componentType":5126,"count":5,"max":[1.375],"min":[0],"type":"SCALAR"},{"bufferView":25,"componentType":5126,"count":5,"max":[1,1,1],"min":[0,0,0],"type":"VEC3"},{"bufferView":26,"componentType":5126,"count":5,"max":[1.0416666269302368],"min":[0.2083333283662796],"type":"SCALAR"},{"bufferView":27,"componentType":5126,"count":5,"max":[0,0,0,1],"min":[0,-0.6804011464118958,0,0.732839822769165],"type":"VEC4"},{"bufferView":28,"componentType":5126,"count":5,"max":[1.0416666269302368],"min":[0.2083333283662796],"type":"SCALAR"},{"bufferView":29,"componentType":5126,"count":5,"max":[-0.0048828125,-0.0166015625,0.21867187321186066],"min":[-0.7217578291893005,-0.0166015625,-0.095703125],"type":"VEC3"},{"bufferView":30,"componentType":5126,"count":4,"max":[1.0416666269302368],"min":[0.375],"type":"SCALAR"},{"bufferView":31,"componentType":5126,"count":4,"max":[1,1,1],"min":[1,0,0],"type":"VEC3"},{"bufferView":32,"componentType":5126,"count":14,"max":[1.8333333730697632],"min":[0],"type":"SCALAR"},{"bufferView":33,"componentType":5126,"count":14,"max":[0.09507378190755844,0.1943245232105255,0.06702078878879547,1],"min":[0,-0.032713938504457474,-0.0212459284812212,0.97813481092453],"type":"VEC4"},{"bufferView":34,"componentType":5126,"count":2,"max":[1.8333333730697632],"min":[0],"type":"SCALAR"},{"bufferView":35,"componentType":5126,"count":2,"max":[0.005859375,-0.11582031100988388,-0.2353515625],"min":[0.005859375,-0.11582031100988388,-0.2353515625],"type":"VEC3"},{"bufferView":36,"componentType":5126,"count":4,"max":[1.7083333730697632],"min":[0.125],"type":"SCALAR"},{"bufferView":37,"componentType":5126,"count":4,"max":[0,0,0.6609845161437988,1],"min":[0,0,0,0.7503995299339294],"type":"VEC4"},{"bufferView":38,"componentType":5126,"count":4,"max":[1.7083333730697632],"min":[0.125],"type":"SCALAR"},{"bufferView":39,"componentType":5126,"count":4,"max":[-0.0009765625,0.044921875,-0.2939453125],"min":[-0.055976562201976776,0.044921875,-0.2939453125],"type":"VEC3"}]}