{"asset":{"version":"2.0","generator":"Blockbench 4.8.3 glTF exporter"},"scenes":[{"nodes":[9],"name":"blockbench_export"}],"scene":0,"nodes":[{"translation":[-0.375,-0.6875,0],"name":"LeftHand"},{"translation":[0.3564453125,0.828125,-0.19140625],"name":"l","children":[0]},{"translation":[0.375,-0.6875,0],"name":"RightHand"},{"translation":[-0.3984375,0.8017578125,-0.19921875],"name":"R","children":[2]},{"translation":[0.5072175,0.360826875,1.126001875],"name":"aug_magazine"},{"translation":[0.42725875,0.52187,0.265625],"name":"aug_charge"},{"translation":[-0.5234375,-0.3857421875,-0.69921875],"name":"aug","children":[4,5]},{"translation":[0.0048828125,0.0263671875,0.0078125],"name":"bone","children":[3,6]},{"translation":[0.5185546875,0.359375,0.69140625],"name":"bone2","children":[1,7]},{"children":[8]}],"animations":[{"name":"inspect","samplers":[{"input":0,"output":1,"interpolation":"LINEAR"},{"input":2,"output":3,"interpolation":"LINEAR"},{"input":4,"output":5,"interpolation":"LINEAR"},{"input":6,"output":7,"interpolation":"LINEAR"},{"input":8,"output":9,"interpolation":"LINEAR"},{"input":10,"output":11,"interpolation":"LINEAR"},{"input":12,"output":13,"interpolation":"LINEAR"},{"input":14,"output":15,"interpolation":"LINEAR"},{"input":16,"output":17,"interpolation":"LINEAR"},{"input":18,"output":19,"interpolation":"LINEAR"},{"input":20,"output":21,"interpolation":"LINEAR"},{"input":22,"output":23,"interpolation":"LINEAR"},{"input":24,"output":25,"interpolation":"LINEAR"}],"channels":[{"sampler":0,"target":{"node":3,"path":"rotation"}},{"sampler":1,"target":{"node":3,"path":"translation"}},{"sampler":2,"target":{"node":3,"path":"scale"}},{"sampler":3,"target":{"node":1,"path":"rotation"}},{"sampler":4,"target":{"node":1,"path":"translation"}},{"sampler":5,"target":{"node":1,"path":"scale"}},{"sampler":6,"target":{"node":8,"path":"rotation"}},{"sampler":7,"target":{"node":8,"path":"translation"}},{"sampler":8,"target":{"node":8,"path":"scale"}},{"sampler":9,"target":{"node":0,"path":"translation"}},{"sampler":10,"target":{"node":7,"path":"rotation"}},{"sampler":11,"target":{"node":7,"path":"translation"}},{"sampler":12,"target":{"node":7,"path":"scale"}}]}],"bufferViews":[{"buffer":0,"byteOffset":0,"byteLength":4},{"buffer":0,"byteOffset":4,"byteLength":16},{"buffer":0,"byteOffset":20,"byteLength":4},{"buffer":0,"byteOffset":24,"byteLength":12},{"buffer":0,"byteOffset":36,"byteLength":4},{"buffer":0,"byteOffset":40,"byteLength":12},{"buffer":0,"byteOffset":52,"byteLength":56},{"buffer":0,"byteOffset":108,"byteLength":224},{"buffer":0,"byteOffset":332,"byteLength":28},{"buffer":0,"byteOffset":360,"byteLength":84},{"buffer":0,"byteOffset":444,"byteLength":4},{"buffer":0,"byteOffset":448,"byteLength":12},{"buffer":0,"byteOffset":460,"byteLength":16},{"buffer":0,"byteOffset":476,"byteLength":64},{"buffer":0,"byteOffset":540,"byteLength":16},{"buffer":0,"byteOffset":556,"byteLength":48},{"buffer":0,"byteOffset":604,"byteLength":4},{"buffer":0,"byteOffset":608,"byteLength":12},{"buffer":0,"byteOffset":620,"byteLength":4},{"buffer":0,"byteOffset":624,"byteLength":12},{"buffer":0,"byteOffset":636,"byteLength":92},{"buffer":0,"byteOffset":728,"byteLength":368},{"buffer":0,"byteOffset":1096,"byteLength":56},{"buffer":0,"byteOffset":1152,"byteLength":168},{"buffer":0,"byteOffset":1320,"byteLength":4},{"buffer":0,"byteOffset":1324,"byteLength":12}],"buffers":[{"byteLength":1336,"uri":"data:application/octet-stream;base64,"}],"accessors":[{"bufferView":0,"componentType":5126,"count":1,"max":[0],"min":[0],"type":"SCALAR"},{"bufferView":1,"componentType":5126,"count":1,"max":[-0.15201245248317719,0.727081835269928,-0.6596987843513489,-0.11420030146837234],"min":[-0.15201245248317719,0.727081835269928,-0.6596987843513489,-0.11420030146837234],"type":"VEC4"},{"bufferView":2,"componentType":5126,"count":1,"max":[0],"min":[0],"type":"SCALAR"},{"bufferView":3,"componentType":5126,"count":1,"max":[0.0078125,-0.03125,-0.0107421875],"min":[0.0078125,-0.03125,-0.0107421875],"type":"VEC3"},{"bufferView":4,"componentType":5126,"count":1,"max":[0],"min":[0],"type":"SCALAR"},{"bufferView":5,"componentType":5126,"count":1,"max":[1,1.5,1],"min":[1,1.5,1],"type":"VEC3"},{"bufferView":6,"componentType":5126,"count":14,"max":[3.0416667461395264],"min":[0],"type":"SCALAR"},{"bufferView":7,"componentType":5126,"count":14,"max":[-0.04995905980467796,0.5828666090965271,-0.49431610107421875,0.7568318843841553],"min":[-0.3504924178123474,0.28579267859458923,-0.8769912719726562,0.16234758496284485],"type":"VEC4"},{"bufferView":8,"componentType":5126,"count":7,"max":[3.0416667461395264],"min":[0.1666666716337204],"type":"SCALAR"},{"bufferView":9,"componentType":5126,"count":7,"max":[0.007070312276482582,-0.0062500000931322575,-0.23050780594348907],"min":[-0.3973046839237213,-1.0615625381469727,-0.5888671875],"type":"VEC3"},{"bufferView":10,"componentType":5126,"count":1,"max":[0],"min":[0],"type":"SCALAR"},{"bufferView":11,"componentType":5126,"count":1,"max":[1,1.5,1],"min":[1,1.5,1],"type":"VEC3"},{"bufferView":12,"componentType":5126,"count":4,"max":[2.875],"min":[0],"type":"SCALAR"},{"bufferView":13,"componentType":5126,"count":4,"max":[0.13340389728546143,0.02681342326104641,0,1],"min":[0,0,-0.036011047661304474,0.9900442361831665],"type":"VEC4"},{"bufferView":14,"componentType":5126,"count":4,"max":[2.875],"min":[0],"type":"SCALAR"},{"bufferView":15,"componentType":5126,"count":4,"max":[0.5361328125,0.396484375,0.69140625],"min":[0.5185546875,0.359375,0.69140625],"type":"VEC3"},{"bufferView":16,"componentType":5126,"count":1,"max":[0],"min":[0],"type":"SCALAR"},{"bufferView":17,"componentType":5126,"count":1,"max":[1,1,1],"min":[1,1,1],"type":"VEC3"},{"bufferView":18,"componentType":5126,"count":1,"max":[2.8333332538604736],"min":[2.8333332538604736],"type":"SCALAR"},{"bufferView":19,"componentType":5126,"count":1,"max":[-0.375,-0.6875,0.0595703125],"min":[-0.375,-0.6875,0.0595703125],"type":"VEC3"},{"bufferView":20,"componentType":5126,"count":23,"max":[3.0416667461395264],"min":[0.125],"type":"SCALAR"},{"bufferView":21,"componentType":5126,"count":23,"max":[0.13114990293979645,0.0559409074485302,0.6642650961875916,1],"min":[-0.022436223924160004,-0.04113652929663658,-0.3969072699546814,0.7360890507698059],"type":"VEC4"},{"bufferView":22,"componentType":5126,"count":14,"max":[3.0416667461395264],"min":[0.375],"type":"SCALAR"},{"bufferView":23,"componentType":5126,"count":14,"max":[0.03515625,0.03636718913912773,0.10621093958616257],"min":[0.0048828125,0.012773437425494194,0.0078125],"type":"VEC3"},{"bufferView":24,"componentType":5126,"count":1,"max":[0.125],"min":[0.125],"type":"SCALAR"},{"bufferView":25,"componentType":5126,"count":1,"max":[1,1,1],"min":[1,1,1],"type":"VEC3"}]}