{"asset":{"version":"2.0","generator":"Blockbench 4.8.3 glTF exporter"},"scenes":[{"nodes":[9],"name":"blockbench_export"}],"scene":0,"nodes":[{"translation":[-0.375,-0.6875,0],"name":"LeftHand"},{"translation":[0.3564453125,0.828125,-0.19140625],"name":"l","children":[0]},{"translation":[0.375,-0.6875,0],"name":"RightHand"},{"translation":[-0.3984375,0.8017578125,-0.19921875],"name":"R","children":[2]},{"translation":[0.5072175,0.360826875,1.126001875],"name":"aug_magazine"},{"translation":[0.42725875,0.52187,0.265625],"name":"aug_charge"},{"translation":[-0.5234375,-0.3857421875,-0.69921875],"name":"aug","children":[4,5]},{"translation":[0.0048828125,0.0263671875,0.0078125],"name":"bone","children":[3,6]},{"translation":[0.5185546875,0.359375,0.69140625],"name":"bone2","children":[1,7]},{"children":[8]}],"animations":[{"name":"draw","samplers":[{"input":0,"output":1,"interpolation":"LINEAR"},{"input":2,"output":3,"interpolation":"LINEAR"},{"input":4,"output":5,"interpolation":"LINEAR"},{"input":6,"output":7,"interpolation":"LINEAR"},{"input":8,"output":9,"interpolation":"LINEAR"},{"input":10,"output":11,"interpolation":"LINEAR"},{"input":12,"output":13,"interpolation":"LINEAR"},{"input":14,"output":15,"interpolation":"LINEAR"},{"input":16,"output":17,"interpolation":"LINEAR"},{"input":18,"output":19,"interpolation":"LINEAR"},{"input":20,"output":21,"interpolation":"LINEAR"},{"input":22,"output":23,"interpolation":"LINEAR"}],"channels":[{"sampler":0,"target":{"node":3,"path":"rotation"}},{"sampler":1,"target":{"node":3,"path":"translation"}},{"sampler":2,"target":{"node":3,"path":"scale"}},{"sampler":3,"target":{"node":1,"path":"rotation"}},{"sampler":4,"target":{"node":1,"path":"translation"}},{"sampler":5,"target":{"node":1,"path":"scale"}},{"sampler":6,"target":{"node":8,"path":"rotation"}},{"sampler":7,"target":{"node":8,"path":"translation"}},{"sampler":8,"target":{"node":8,"path":"scale"}},{"sampler":9,"target":{"node":7,"path":"rotation"}},{"sampler":10,"target":{"node":7,"path":"translation"}},{"sampler":11,"target":{"node":7,"path":"scale"}}]}],"bufferViews":[{"buffer":0,"byteOffset":0,"byteLength":4},{"buffer":0,"byteOffset":4,"byteLength":16},{"buffer":0,"byteOffset":20,"byteLength":4},{"buffer":0,"byteOffset":24,"byteLength":12},{"buffer":0,"byteOffset":36,"byteLength":4},{"buffer":0,"byteOffset":40,"byteLength":12},{"buffer":0,"byteOffset":52,"byteLength":24},{"buffer":0,"byteOffset":76,"byteLength":96},{"buffer":0,"byteOffset":172,"byteLength":4},{"buffer":0,"byteOffset":176,"byteLength":12},{"buffer":0,"byteOffset":188,"byteLength":4},{"buffer":0,"byteOffset":192,"byteLength":12},{"buffer":0,"byteOffset":204,"byteLength":32},{"buffer":0,"byteOffset":236,"byteLength":128},{"buffer":0,"byteOffset":364,"byteLength":24},{"buffer":0,"byteOffset":388,"byteLength":72},{"buffer":0,"byteOffset":460,"byteLength":4},{"buffer":0,"byteOffset":464,"byteLength":12},{"buffer":0,"byteOffset":476,"byteLength":20},{"buffer":0,"byteOffset":496,"byteLength":80},{"buffer":0,"byteOffset":576,"byteLength":4},{"buffer":0,"byteOffset":580,"byteLength":12},{"buffer":0,"byteOffset":592,"byteLength":4},{"buffer":0,"byteOffset":596,"byteLength":12}],"buffers":[{"byteLength":608,"uri":"data:application/octet-stream;base64,"}],"accessors":[{"bufferView":0,"componentType":5126,"count":1,"max":[0],"min":[0],"type":"SCALAR"},{"bufferView":1,"componentType":5126,"count":1,"max":[-0.15201245248317719,0.727081835269928,-0.6596987843513489,-0.11420030146837234],"min":[-0.15201245248317719,0.727081835269928,-0.6596987843513489,-0.11420030146837234],"type":"VEC4"},{"bufferView":2,"componentType":5126,"count":1,"max":[0],"min":[0],"type":"SCALAR"},{"bufferView":3,"componentType":5126,"count":1,"max":[0.0078125,-0.03125,-0.0107421875],"min":[0.0078125,-0.03125,-0.0107421875],"type":"VEC3"},{"bufferView":4,"componentType":5126,"count":1,"max":[0],"min":[0],"type":"SCALAR"},{"bufferView":5,"componentType":5126,"count":1,"max":[1,1.5,1],"min":[1,1.5,1],"type":"VEC3"},{"bufferView":6,"componentType":5126,"count":6,"max":[0.625],"min":[0],"type":"SCALAR"},{"bufferView":7,"componentType":5126,"count":6,"max":[-0.06654799729585648,0.6801081299781799,-0.5223327875137329,0.5374323129653931],"min":[-0.15710878372192383,0.5315007567405701,-0.6472961902618408,0.48148009181022644],"type":"VEC4"},{"bufferView":8,"componentType":5126,"count":1,"max":[0],"min":[0],"type":"SCALAR"},{"bufferView":9,"componentType":5126,"count":1,"max":[-0.05859375,-0.060546875,-0.5888671875],"min":[-0.05859375,-0.060546875,-0.5888671875],"type":"VEC3"},{"bufferView":10,"componentType":5126,"count":1,"max":[0],"min":[0],"type":"SCALAR"},{"bufferView":11,"componentType":5126,"count":1,"max":[1,1.5,1],"min":[1,1.5,1],"type":"VEC3"},{"bufferView":12,"componentType":5126,"count":8,"max":[0.6666666865348816],"min":[0],"type":"SCALAR"},{"bufferView":13,"componentType":5126,"count":8,"max":[0.09593226760625839,0.2690384089946747,0.46063724160194397,1],"min":[-0.45691239833831787,-0.0010068622650578618,-0.01422120165079832,0.7118024230003357],"type":"VEC4"},{"bufferView":14,"componentType":5126,"count":6,"max":[0.6666666865348816],"min":[0],"type":"SCALAR"},{"bufferView":15,"componentType":5126,"count":6,"max":[0.8310546875,0.359375,1.00390625],"min":[0.5185546875,-0.078125,0.5914062261581421],"type":"VEC3"},{"bufferView":16,"componentType":5126,"count":1,"max":[0.6666666865348816],"min":[0.6666666865348816],"type":"SCALAR"},{"bufferView":17,"componentType":5126,"count":1,"max":[1,1,1],"min":[1,1,1],"type":"VEC3"},{"bufferView":18,"componentType":5126,"count":5,"max":[0.5833333134651184],"min":[0],"type":"SCALAR"},{"bufferView":19,"componentType":5126,"count":5,"max":[0,0,0.02181488461792469,1],"min":[0,0,-0.02181488461792469,0.9997619986534119],"type":"VEC4"},{"bufferView":20,"componentType":5126,"count":1,"max":[0],"min":[0],"type":"SCALAR"},{"bufferView":21,"componentType":5126,"count":1,"max":[0.0048828125,0.0263671875,0.0078125],"min":[0.0048828125,0.0263671875,0.0078125],"type":"VEC3"},{"bufferView":22,"componentType":5126,"count":1,"max":[0],"min":[0],"type":"SCALAR"},{"bufferView":23,"componentType":5126,"count":1,"max":[1,1,1],"min":[1,1,1],"type":"VEC3"}]}