{"asset":{"version":"2.0","generator":"Blockbench 4.8.3 glTF exporter"},"scenes":[{"nodes":[9],"name":"blockbench_export"}],"scene":0,"nodes":[{"translation":[-0.375,-0.6875,0],"name":"LeftHand"},{"translation":[0.3564453125,0.828125,-0.19140625],"name":"l","children":[0]},{"translation":[0.375,-0.6875,0],"name":"RightHand"},{"translation":[-0.3984375,0.8017578125,-0.19921875],"name":"R","children":[2]},{"translation":[0.5072175,0.360826875,1.126001875],"name":"aug_magazine"},{"translation":[0.42725875,0.52187,0.265625],"name":"aug_charge"},{"translation":[-0.5234375,-0.3857421875,-0.69921875],"name":"aug","children":[4,5]},{"translation":[0.0048828125,0.0263671875,0.0078125],"name":"bone","children":[3,6]},{"translation":[0.5185546875,0.359375,0.69140625],"name":"bone2","children":[1,7]},{"children":[8]}],"animations":[{"name":"inspect_peny","samplers":[{"input":0,"output":1,"interpolation":"LINEAR"},{"input":2,"output":3,"interpolation":"LINEAR"},{"input":4,"output":5,"interpolation":"LINEAR"},{"input":6,"output":7,"interpolation":"LINEAR"},{"input":8,"output":9,"interpolation":"LINEAR"},{"input":10,"output":11,"interpolation":"LINEAR"},{"input":12,"output":13,"interpolation":"LINEAR"},{"input":14,"output":15,"interpolation":"LINEAR"},{"input":16,"output":17,"interpolation":"LINEAR"},{"input":18,"output":19,"interpolation":"LINEAR"},{"input":20,"output":21,"interpolation":"LINEAR"}],"channels":[{"sampler":0,"target":{"node":3,"path":"rotation"}},{"sampler":1,"target":{"node":3,"path":"translation"}},{"sampler":2,"target":{"node":3,"path":"scale"}},{"sampler":3,"target":{"node":1,"path":"rotation"}},{"sampler":4,"target":{"node":1,"path":"translation"}},{"sampler":5,"target":{"node":1,"path":"scale"}},{"sampler":6,"target":{"node":8,"path":"rotation"}},{"sampler":7,"target":{"node":8,"path":"translation"}},{"sampler":8,"target":{"node":8,"path":"scale"}},{"sampler":9,"target":{"node":4,"path":"rotation"}},{"sampler":10,"target":{"node":4,"path":"translation"}}]}],"bufferViews":[{"buffer":0,"byteOffset":0,"byteLength":4},{"buffer":0,"byteOffset":4,"byteLength":16},{"buffer":0,"byteOffset":20,"byteLength":4},{"buffer":0,"byteOffset":24,"byteLength":12},{"buffer":0,"byteOffset":36,"byteLength":4},{"buffer":0,"byteOffset":40,"byteLength":12},{"buffer":0,"byteOffset":52,"byteLength":72},{"buffer":0,"byteOffset":124,"byteLength":288},{"buffer":0,"byteOffset":412,"byteLength":236},{"buffer":0,"byteOffset":648,"byteLength":708},{"buffer":0,"byteOffset":1356,"byteLength":4},{"buffer":0,"byteOffset":1360,"byteLength":12},{"buffer":0,"byteOffset":1372,"byteLength":388},{"buffer":0,"byteOffset":1760,"byteLength":1552},{"buffer":0,"byteOffset":3312,"byteLength":392},{"buffer":0,"byteOffset":3704,"byteLength":1176},{"buffer":0,"byteOffset":4880,"byteLength":4},{"buffer":0,"byteOffset":4884,"byteLength":12},{"buffer":0,"byteOffset":4896,"byteLength":36},{"buffer":0,"byteOffset":4932,"byteLength":144},{"buffer":0,"byteOffset":5076,"byteLength":76},{"buffer":0,"byteOffset":5152,"byteLength":228}],"buffers":[{"byteLength":5380,"uri":"data:application/octet-stream;base64,"}],"accessors":[{"bufferView":0,"componentType":5126,"count":1,"max":[0],"min":[0],"type":"SCALAR"},{"bufferView":1,"componentType":5126,"count":1,"max":[-0.15201245248317719,0.727081835269928,-0.6596987843513489,-0.11420030146837234],"min":[-0.15201245248317719,0.727081835269928,-0.6596987843513489,-0.11420030146837234],"type":"VEC4"},{"bufferView":2,"componentType":5126,"count":1,"max":[0],"min":[0],"type":"SCALAR"},{"bufferView":3,"componentType":5126,"count":1,"max":[0.0078125,-0.03125,-0.0107421875],"min":[0.0078125,-0.03125,-0.0107421875],"type":"VEC3"},{"bufferView":4,"componentType":5126,"count":1,"max":[0],"min":[0],"type":"SCALAR"},{"bufferView":5,"componentType":5126,"count":1,"max":[1,1.5,1],"min":[1,1.5,1],"type":"VEC3"},{"bufferView":6,"componentType":5126,"count":18,"max":[4.416666507720947],"min":[0],"type":"SCALAR"},{"bufferView":7,"componentType":5126,"count":18,"max":[-0.15710878372192383,0.763500452041626,-0.270537406206131,0.7025617957115173],"min":[-0.389522522687912,0.5305561423301697,-0.6149676442146301,0.3730911910533905],"type":"VEC4"},{"bufferView":8,"componentType":5126,"count":59,"max":[4.416666507720947],"min":[0],"type":"SCALAR"},{"bufferView":9,"componentType":5126,"count":59,"max":[-0.04730468615889549,-0.060546875,0.3985937535762787],"min":[-0.27295470237731934,-0.5243750214576721,-0.5889062285423279],"type":"VEC3"},{"bufferView":10,"componentType":5126,"count":1,"max":[0],"min":[0],"type":"SCALAR"},{"bufferView":11,"componentType":5126,"count":1,"max":[1,1.5,1],"min":[1,1.5,1],"type":"VEC3"},{"bufferView":12,"componentType":5126,"count":97,"max":[6.208333492279053],"min":[0],"type":"SCALAR"},{"bufferView":13,"componentType":5126,"count":97,"max":[0.24260163307189941,0.09222991019487381,0.42052534222602844,1],"min":[-0.0007444951334036887,-0.15332946181297302,-0.3947316110134125,0.8755462169647217],"type":"VEC4"},{"bufferView":14,"componentType":5126,"count":98,"max":[6.208333492279053],"min":[0],"type":"SCALAR"},{"bufferView":15,"componentType":5126,"count":98,"max":[0.6773046851158142,0.5606250166893005,0.7149908542633057],"min":[0.49980467557907104,0.2775000035762787,0.45890626311302185],"type":"VEC3"},{"bufferView":16,"componentType":5126,"count":1,"max":[0],"min":[0],"type":"SCALAR"},{"bufferView":17,"componentType":5126,"count":1,"max":[1,1,1],"min":[1,1,1],"type":"VEC3"},{"bufferView":18,"componentType":5126,"count":9,"max":[3.5],"min":[1.8333333730697632],"type":"SCALAR"},{"bufferView":19,"componentType":5126,"count":9,"max":[0.16671091318130493,0.08738385140895844,0.2798290252685547,1],"min":[-0.025173969566822052,0,0,0.945464551448822],"type":"VEC4"},{"bufferView":20,"componentType":5126,"count":19,"max":[3.5],"min":[0],"type":"SCALAR"},{"bufferView":21,"componentType":5126,"count":19,"max":[0.507217526435852,0.36850687861442566,1.12705659866333],"min":[0.26451748609542847,0.048326876014471054,1.0802018642425537],"type":"VEC3"}]}