{"asset":{"version":"2.0","generator":"Blockbench 4.8.3 glTF exporter"},"scenes":[{"nodes":[9],"name":"blockbench_export"}],"scene":0,"nodes":[{"translation":[-0.375,-0.6875,0],"name":"LeftHand"},{"translation":[0.3564453125,0.828125,-0.19140625],"name":"l","children":[0]},{"translation":[0.375,-0.6875,0],"name":"RightHand"},{"translation":[-0.3984375,0.8017578125,-0.19921875],"name":"R","children":[2]},{"translation":[0.5072175,0.360826875,1.126001875],"name":"aug_magazine"},{"translation":[0.42725875,0.52187,0.265625],"name":"aug_charge"},{"translation":[-0.5234375,-0.3857421875,-0.69921875],"name":"aug","children":[4,5]},{"translation":[0.0048828125,0.0263671875,0.0078125],"name":"bone","children":[3,6]},{"translation":[0.5185546875,0.359375,0.69140625],"name":"bone2","children":[1,7]},{"children":[8]}],"animations":[{"name":"reload_norm_peny","samplers":[{"input":0,"output":1,"interpolation":"LINEAR"},{"input":2,"output":3,"interpolation":"LINEAR"},{"input":4,"output":5,"interpolation":"LINEAR"},{"input":6,"output":7,"interpolation":"LINEAR"},{"input":8,"output":9,"interpolation":"LINEAR"},{"input":10,"output":11,"interpolation":"LINEAR"},{"input":12,"output":13,"interpolation":"LINEAR"},{"input":14,"output":15,"interpolation":"LINEAR"},{"input":16,"output":17,"interpolation":"LINEAR"},{"input":18,"output":19,"interpolation":"LINEAR"},{"input":20,"output":21,"interpolation":"LINEAR"},{"input":22,"output":23,"interpolation":"LINEAR"},{"input":24,"output":25,"interpolation":"LINEAR"}],"channels":[{"sampler":0,"target":{"node":3,"path":"rotation"}},{"sampler":1,"target":{"node":3,"path":"translation"}},{"sampler":2,"target":{"node":3,"path":"scale"}},{"sampler":3,"target":{"node":1,"path":"rotation"}},{"sampler":4,"target":{"node":1,"path":"translation"}},{"sampler":5,"target":{"node":1,"path":"scale"}},{"sampler":6,"target":{"node":8,"path":"rotation"}},{"sampler":7,"target":{"node":8,"path":"translation"}},{"sampler":8,"target":{"node":8,"path":"scale"}},{"sampler":9,"target":{"node":7,"path":"rotation"}},{"sampler":10,"target":{"node":7,"path":"translation"}},{"sampler":11,"target":{"node":4,"path":"rotation"}},{"sampler":12,"target":{"node":4,"path":"translation"}}]}],"bufferViews":[{"buffer":0,"byteOffset":0,"byteLength":24},{"buffer":0,"byteOffset":24,"byteLength":96},{"buffer":0,"byteOffset":120,"byteLength":4},{"buffer":0,"byteOffset":124,"byteLength":12},{"buffer":0,"byteOffset":136,"byteLength":4},{"buffer":0,"byteOffset":140,"byteLength":12},{"buffer":0,"byteOffset":152,"byteLength":188},{"buffer":0,"byteOffset":340,"byteLength":752},{"buffer":0,"byteOffset":1092,"byteLength":180},{"buffer":0,"byteOffset":1272,"byteLength":540},{"buffer":0,"byteOffset":1812,"byteLength":4},{"buffer":0,"byteOffset":1816,"byteLength":12},{"buffer":0,"byteOffset":1828,"byteLength":192},{"buffer":0,"byteOffset":2020,"byteLength":768},{"buffer":0,"byteOffset":2788,"byteLength":204},{"buffer":0,"byteOffset":2992,"byteLength":612},{"buffer":0,"byteOffset":3604,"byteLength":4},{"buffer":0,"byteOffset":3608,"byteLength":12},{"buffer":0,"byteOffset":3620,"byteLength":20},{"buffer":0,"byteOffset":3640,"byteLength":80},{"buffer":0,"byteOffset":3720,"byteLength":28},{"buffer":0,"byteOffset":3748,"byteLength":84},{"buffer":0,"byteOffset":3832,"byteLength":20},{"buffer":0,"byteOffset":3852,"byteLength":80},{"buffer":0,"byteOffset":3932,"byteLength":32},{"buffer":0,"byteOffset":3964,"byteLength":96}],"buffers":[{"byteLength":4060,"uri":"data:application/octet-stream;base64,"}],"accessors":[{"bufferView":0,"componentType":5126,"count":6,"max":[2.875],"min":[0],"type":"SCALAR"},{"bufferView":1,"componentType":5126,"count":6,"max":[-0.10334272682666779,0.8140864372253418,-0.5604443550109863,-0.10215549170970917],"min":[-0.15201245248317719,0.727081835269928,-0.6596987843513489,-0.11420030146837234],"type":"VEC4"},{"bufferView":2,"componentType":5126,"count":1,"max":[0],"min":[0],"type":"SCALAR"},{"bufferView":3,"componentType":5126,"count":1,"max":[0.0078125,-0.03125,-0.0107421875],"min":[0.0078125,-0.03125,-0.0107421875],"type":"VEC3"},{"bufferView":4,"componentType":5126,"count":1,"max":[0],"min":[0],"type":"SCALAR"},{"bufferView":5,"componentType":5126,"count":1,"max":[1,1.5,1],"min":[1,1.5,1],"type":"VEC3"},{"bufferView":6,"componentType":5126,"count":47,"max":[3],"min":[0],"type":"SCALAR"},{"bufferView":7,"componentType":5126,"count":47,"max":[0.08348996192216873,0.7893399596214294,-0.3152441084384918,0.6062175631523132],"min":[-0.36209192872047424,0.5828666090965271,-0.6149676442146301,0.34438180923461914],"type":"VEC4"},{"bufferView":8,"componentType":5126,"count":45,"max":[3],"min":[0],"type":"SCALAR"},{"bufferView":9,"componentType":5126,"count":45,"max":[-0.054804686456918716,-0.060546875,0.38609373569488525],"min":[-0.25105467438697815,-1.3856250047683716,-0.5888671875],"type":"VEC3"},{"bufferView":10,"componentType":5126,"count":1,"max":[0],"min":[0],"type":"SCALAR"},{"bufferView":11,"componentType":5126,"count":1,"max":[1,1.5,1],"min":[1,1.5,1],"type":"VEC3"},{"bufferView":12,"componentType":5126,"count":48,"max":[3.25],"min":[0],"type":"SCALAR"},{"bufferView":13,"componentType":5126,"count":48,"max":[0.26798558235168457,0.12173136323690414,0.017452405765652657,1],"min":[-0.0006639790954068303,-0.00040530343540012836,-0.4235106408596039,0.8689139485359192],"type":"VEC4"},{"bufferView":14,"componentType":5126,"count":51,"max":[3.25],"min":[0],"type":"SCALAR"},{"bufferView":15,"componentType":5126,"count":51,"max":[0.6559157967567444,0.5053703784942627,0.69140625],"min":[0.5185546875,0.23694443702697754,0.42265623807907104],"type":"VEC3"},{"bufferView":16,"componentType":5126,"count":1,"max":[0],"min":[0],"type":"SCALAR"},{"bufferView":17,"componentType":5126,"count":1,"max":[1,1,1],"min":[1,1,1],"type":"VEC3"},{"bufferView":18,"componentType":5126,"count":5,"max":[1.75],"min":[0],"type":"SCALAR"},{"bufferView":19,"componentType":5126,"count":5,"max":[0,0,0,1],"min":[-0.015291459858417511,-0.010903154499828815,-0.03999297693371773,0.9991404414176941],"type":"VEC4"},{"bufferView":20,"componentType":5126,"count":7,"max":[2.2083332538604736],"min":[0],"type":"SCALAR"},{"bufferView":21,"componentType":5126,"count":7,"max":[0.0073828124441206455,0.03636718913912773,0.0078125],"min":[0.0048828125,0.0263671875,0.0078125],"type":"VEC3"},{"bufferView":22,"componentType":5126,"count":5,"max":[1.625],"min":[0.375],"type":"SCALAR"},{"bufferView":23,"componentType":5126,"count":5,"max":[0.13052618503570557,0,0,1],"min":[0,0,0,0.9914448857307434],"type":"VEC4"},{"bufferView":24,"componentType":5126,"count":8,"max":[1.75],"min":[0.375],"type":"SCALAR"},{"bufferView":25,"componentType":5126,"count":8,"max":[0.507217526435852,0.36082687973976135,1.1260018348693848],"min":[0.507217526435852,-0.811673104763031,0.9572518467903137],"type":"VEC3"}]}