{"asset":{"version":"2.0","generator":"Blockbench 4.8.3 glTF exporter"},"scenes":[{"nodes":[9],"name":"blockbench_export"}],"scene":0,"nodes":[{"translation":[-0.375,-0.6875,0],"name":"LeftHand"},{"translation":[0.3564453125,0.828125,-0.19140625],"name":"l","children":[0]},{"translation":[0.375,-0.6875,0],"name":"RightHand"},{"translation":[-0.3984375,0.8017578125,-0.19921875],"name":"R","children":[2]},{"translation":[0.5072175,0.360826875,1.126001875],"name":"aug_magazine"},{"translation":[0.42725875,0.52187,0.265625],"name":"aug_charge"},{"translation":[-0.5234375,-0.3857421875,-0.69921875],"name":"aug","children":[4,5]},{"translation":[0.0048828125,0.0263671875,0.0078125],"name":"bone","children":[3,6]},{"translation":[0.5185546875,0.359375,0.69140625],"name":"bone2","children":[1,7]},{"children":[8]}],"animations":[{"name":"reload_norm","samplers":[{"input":0,"output":1,"interpolation":"LINEAR"},{"input":2,"output":3,"interpolation":"LINEAR"},{"input":4,"output":5,"interpolation":"LINEAR"},{"input":6,"output":7,"interpolation":"LINEAR"},{"input":8,"output":9,"interpolation":"LINEAR"},{"input":10,"output":11,"interpolation":"LINEAR"},{"input":12,"output":13,"interpolation":"LINEAR"},{"input":14,"output":15,"interpolation":"LINEAR"},{"input":16,"output":17,"interpolation":"LINEAR"},{"input":18,"output":19,"interpolation":"LINEAR"},{"input":20,"output":21,"interpolation":"LINEAR"},{"input":22,"output":23,"interpolation":"LINEAR"},{"input":24,"output":25,"interpolation":"LINEAR"}],"channels":[{"sampler":0,"target":{"node":3,"path":"rotation"}},{"sampler":1,"target":{"node":3,"path":"translation"}},{"sampler":2,"target":{"node":3,"path":"scale"}},{"sampler":3,"target":{"node":1,"path":"rotation"}},{"sampler":4,"target":{"node":1,"path":"translation"}},{"sampler":5,"target":{"node":1,"path":"scale"}},{"sampler":6,"target":{"node":8,"path":"rotation"}},{"sampler":7,"target":{"node":8,"path":"translation"}},{"sampler":8,"target":{"node":8,"path":"scale"}},{"sampler":9,"target":{"node":7,"path":"rotation"}},{"sampler":10,"target":{"node":7,"path":"translation"}},{"sampler":11,"target":{"node":4,"path":"rotation"}},{"sampler":12,"target":{"node":4,"path":"translation"}}]}],"bufferViews":[{"buffer":0,"byteOffset":0,"byteLength":4},{"buffer":0,"byteOffset":4,"byteLength":16},{"buffer":0,"byteOffset":20,"byteLength":4},{"buffer":0,"byteOffset":24,"byteLength":12},{"buffer":0,"byteOffset":36,"byteLength":4},{"buffer":0,"byteOffset":40,"byteLength":12},{"buffer":0,"byteOffset":52,"byteLength":68},{"buffer":0,"byteOffset":120,"byteLength":272},{"buffer":0,"byteOffset":392,"byteLength":60},{"buffer":0,"byteOffset":452,"byteLength":180},{"buffer":0,"byteOffset":632,"byteLength":4},{"buffer":0,"byteOffset":636,"byteLength":12},{"buffer":0,"byteOffset":648,"byteLength":36},{"buffer":0,"byteOffset":684,"byteLength":144},{"buffer":0,"byteOffset":828,"byteLength":20},{"buffer":0,"byteOffset":848,"byteLength":60},{"buffer":0,"byteOffset":908,"byteLength":4},{"buffer":0,"byteOffset":912,"byteLength":12},{"buffer":0,"byteOffset":924,"byteLength":80},{"buffer":0,"byteOffset":1004,"byteLength":320},{"buffer":0,"byteOffset":1324,"byteLength":56},{"buffer":0,"byteOffset":1380,"byteLength":168},{"buffer":0,"byteOffset":1548,"byteLength":28},{"buffer":0,"byteOffset":1576,"byteLength":112},{"buffer":0,"byteOffset":1688,"byteLength":28},{"buffer":0,"byteOffset":1716,"byteLength":84}],"buffers":[{"byteLength":1800,"uri":"data:application/octet-stream;base64,"}],"accessors":[{"bufferView":0,"componentType":5126,"count":1,"max":[0],"min":[0],"type":"SCALAR"},{"bufferView":1,"componentType":5126,"count":1,"max":[-0.15201245248317719,0.727081835269928,-0.6596987843513489,-0.11420030146837234],"min":[-0.15201245248317719,0.727081835269928,-0.6596987843513489,-0.11420030146837234],"type":"VEC4"},{"bufferView":2,"componentType":5126,"count":1,"max":[0],"min":[0],"type":"SCALAR"},{"bufferView":3,"componentType":5126,"count":1,"max":[0.0078125,-0.03125,-0.0107421875],"min":[0.0078125,-0.03125,-0.0107421875],"type":"VEC3"},{"bufferView":4,"componentType":5126,"count":1,"max":[0],"min":[0],"type":"SCALAR"},{"bufferView":5,"componentType":5126,"count":1,"max":[1,1.5,1],"min":[1,1.5,1],"type":"VEC3"},{"bufferView":6,"componentType":5126,"count":17,"max":[2.25],"min":[0],"type":"SCALAR"},{"bufferView":7,"componentType":5126,"count":17,"max":[0.06232832372188568,0.6222009658813477,-0.5394225716590881,0.5859043002128601],"min":[-0.3694781959056854,0.42741745710372925,-0.8213533163070679,0.07860584557056427],"type":"VEC4"},{"bufferView":8,"componentType":5126,"count":15,"max":[2.25],"min":[0],"type":"SCALAR"},{"bufferView":9,"componentType":5126,"count":15,"max":[-0.05859375,-0.060546875,0.24117188155651093],"min":[-1.092382788658142,-0.9403515458106995,-0.5888671875],"type":"VEC3"},{"bufferView":10,"componentType":5126,"count":1,"max":[0],"min":[0],"type":"SCALAR"},{"bufferView":11,"componentType":5126,"count":1,"max":[1,1.5,1],"min":[1,1.5,1],"type":"VEC3"},{"bufferView":12,"componentType":5126,"count":9,"max":[2.375],"min":[0],"type":"SCALAR"},{"bufferView":13,"componentType":5126,"count":9,"max":[0.0687752366065979,0.03356011211872101,0.03900682181119919,1],"min":[-0.0351286418735981,-0.00957510992884636,-0.022872164845466614,0.9970443844795227],"type":"VEC4"},{"bufferView":14,"componentType":5126,"count":5,"max":[2.25],"min":[0],"type":"SCALAR"},{"bufferView":15,"componentType":5126,"count":5,"max":[0.5185546875,0.38187500834465027,0.69140625],"min":[0.5185546875,0.359375,0.69140625],"type":"VEC3"},{"bufferView":16,"componentType":5126,"count":1,"max":[0],"min":[0],"type":"SCALAR"},{"bufferView":17,"componentType":5126,"count":1,"max":[1,1,1],"min":[1,1,1],"type":"VEC3"},{"bufferView":18,"componentType":5126,"count":20,"max":[2.3333332538604736],"min":[0.0833333358168602],"type":"SCALAR"},{"bufferView":19,"componentType":5126,"count":20,"max":[0.19236500561237335,0.10321018844842911,0,1],"min":[0,0,-0.3927863538265228,0.9099951386451721],"type":"VEC4"},{"bufferView":20,"componentType":5126,"count":14,"max":[2.3333332538604736],"min":[0.125],"type":"SCALAR"},{"bufferView":21,"componentType":5126,"count":14,"max":[0.05648437514901161,0.16191406548023224,0.0078125],"min":[0.0048828125,0.0263671875,-0.09296874701976776],"type":"VEC3"},{"bufferView":22,"componentType":5126,"count":7,"max":[1.625],"min":[0.5],"type":"SCALAR"},{"bufferView":23,"componentType":5126,"count":7,"max":[0,0,0.006433331873267889,1],"min":[-0.35407140851020813,-0.19607509672641754,-0.08031351864337921,0.9144105315208435],"type":"VEC4"},{"bufferView":24,"componentType":5126,"count":7,"max":[1.625],"min":[0.5],"type":"SCALAR"},{"bufferView":25,"componentType":5126,"count":7,"max":[0.507217526435852,0.36082687973976135,1.1474862098693848],"min":[0.30799874663352966,-0.974134087562561,0.9541268944740295],"type":"VEC3"}]}