{"asset":{"version":"2.0","generator":"Blockbench 4.9.3 glTF exporter"},"scenes":[{"nodes":[8],"name":"blockbench_export"}],"scene":0,"nodes":[{"translation":[0.375,-0.6875,0],"name":"RightHand"},{"translation":[-0.375,0.8500000000000003,-0.25],"name":"R","children":[0]},{"translation":[0,-0.0625,-0.0625],"name":"ba_m4_mag_standard"},{"translation":[0,0.1625000000000003,-0.25],"name":"ba_m4","children":[2]},{"translation":[0,0.02499999999999969,0],"name":"bone","children":[1,3]},{"translation":[-0.375,-0.6875,0],"name":"LeftHand"},{"translation":[0.375,0.875,-0.25],"name":"l","children":[5]},{"translation":[0.5,0.3125,0.75],"name":"bone2","children":[4,6]},{"children":[7]}],"animations":[{"name":"draw","samplers":[{"input":0,"output":1,"interpolation":"LINEAR"},{"input":2,"output":3,"interpolation":"LINEAR"},{"input":4,"output":5,"interpolation":"LINEAR"},{"input":6,"output":7,"interpolation":"LINEAR"},{"input":8,"output":9,"interpolation":"LINEAR"},{"input":10,"output":11,"interpolation":"LINEAR"},{"input":12,"output":13,"interpolation":"LINEAR"},{"input":14,"output":15,"interpolation":"LINEAR"},{"input":16,"output":17,"interpolation":"LINEAR"},{"input":18,"output":19,"interpolation":"LINEAR"}],"channels":[{"sampler":0,"target":{"node":1,"path":"rotation"}},{"sampler":1,"target":{"node":1,"path":"translation"}},{"sampler":2,"target":{"node":1,"path":"scale"}},{"sampler":3,"target":{"node":6,"path":"rotation"}},{"sampler":4,"target":{"node":6,"path":"translation"}},{"sampler":5,"target":{"node":6,"path":"scale"}},{"sampler":6,"target":{"node":7,"path":"rotation"}},{"sampler":7,"target":{"node":7,"path":"translation"}},{"sampler":8,"target":{"node":4,"path":"rotation"}},{"sampler":9,"target":{"node":4,"path":"translation"}}]}],"bufferViews":[{"buffer":0,"byteOffset":0,"byteLength":4},{"buffer":0,"byteOffset":4,"byteLength":16},{"buffer":0,"byteOffset":20,"byteLength":4},{"buffer":0,"byteOffset":24,"byteLength":12},{"buffer":0,"byteOffset":36,"byteLength":4},{"buffer":0,"byteOffset":40,"byteLength":12},{"buffer":0,"byteOffset":52,"byteLength":64},{"buffer":0,"byteOffset":116,"byteLength":256},{"buffer":0,"byteOffset":372,"byteLength":4},{"buffer":0,"byteOffset":376,"byteLength":12},{"buffer":0,"byteOffset":388,"byteLength":4},{"buffer":0,"byteOffset":392,"byteLength":12},{"buffer":0,"byteOffset":404,"byteLength":76},{"buffer":0,"byteOffset":480,"byteLength":304},{"buffer":0,"byteOffset":784,"byteLength":76},{"buffer":0,"byteOffset":860,"byteLength":228},{"buffer":0,"byteOffset":1088,"byteLength":72},{"buffer":0,"byteOffset":1160,"byteLength":288},{"buffer":0,"byteOffset":1448,"byteLength":4},{"buffer":0,"byteOffset":1452,"byteLength":12}],"buffers":[{"byteLength":1464,"uri":"data:application/octet-stream;base64,"}],"accessors":[{"bufferView":0,"componentType":5126,"count":1,"max":[0.0416666679084301],"min":[0.0416666679084301],"type":"SCALAR"},{"bufferView":1,"componentType":5126,"count":1,"max":[0.04866786301136017,-0.7162023782730103,0.6948682069778442,0.04293915256857872],"min":[0.04866786301136017,-0.7162023782730103,0.6948682069778442,0.04293915256857872],"type":"VEC4"},{"bufferView":2,"componentType":5126,"count":1,"max":[0.0416666679084301],"min":[0.0416666679084301],"type":"SCALAR"},{"bufferView":3,"componentType":5126,"count":1,"max":[0.023125000298023224,-0.02250000089406967,-0.041875001043081284],"min":[0.023125000298023224,-0.02250000089406967,-0.041875001043081284],"type":"VEC3"},{"bufferView":4,"componentType":5126,"count":1,"max":[0.0416666679084301],"min":[0.0416666679084301],"type":"SCALAR"},{"bufferView":5,"componentType":5126,"count":1,"max":[1,1.5,1],"min":[1,1.5,1],"type":"VEC3"},{"bufferView":6,"componentType":5126,"count":16,"max":[0.7083333134651184],"min":[0.0833333358168602],"type":"SCALAR"},{"bufferView":7,"componentType":5126,"count":16,"max":[-0.10597988218069077,0.5744796991348267,-0.5186290740966797,0.6666008830070496],"min":[-0.3404447138309479,0.47940781712532043,-0.5608740448951721,0.5587266683578491],"type":"VEC4"},{"bufferView":8,"componentType":5126,"count":1,"max":[0.0416666679084301],"min":[0.0416666679084301],"type":"SCALAR"},{"bufferView":9,"componentType":5126,"count":1,"max":[-0.04874999821186066,0.11625000089406967,-0.625],"min":[-0.04874999821186066,0.11625000089406967,-0.625],"type":"VEC3"},{"bufferView":10,"componentType":5126,"count":1,"max":[0.0416666679084301],"min":[0.0416666679084301],"type":"SCALAR"},{"bufferView":11,"componentType":5126,"count":1,"max":[1,1.5,1],"min":[1,1.5,1],"type":"VEC3"},{"bufferView":12,"componentType":5126,"count":19,"max":[0.8333333134651184],"min":[0.0833333358168602],"type":"SCALAR"},{"bufferView":13,"componentType":5126,"count":19,"max":[0.019374478608369827,0.36953291296958923,0.2561630308628082,1],"min":[-0.3976343870162964,-0.03250444307923317,-0.040593426674604416,0.7998204827308655],"type":"VEC4"},{"bufferView":14,"componentType":5126,"count":19,"max":[0.7916666865348816],"min":[0.0416666679084301],"type":"SCALAR"},{"bufferView":15,"componentType":5126,"count":19,"max":[0.5,0.3487499952316284,0.8849999904632568],"min":[0.5,-0.265625,0.6587499976158142],"type":"VEC3"},{"bufferView":16,"componentType":5126,"count":18,"max":[0.7916666865348816],"min":[0.0833333358168602],"type":"SCALAR"},{"bufferView":17,"componentType":5126,"count":18,"max":[0.021801596507430077,0.000041529729060130194,0.015210825018584728,1],"min":[-0.0015702465316280723,-0.0019837997388094664,-0.03986790403723717,0.999077320098877],"type":"VEC4"},{"bufferView":18,"componentType":5126,"count":1,"max":[0.0416666679084301],"min":[0.0416666679084301],"type":"SCALAR"},{"bufferView":19,"componentType":5126,"count":1,"max":[0,0.02500000037252903,0],"min":[0,0.02500000037252903,0],"type":"VEC3"}]}