{"asset":{"version":"2.0","generator":"Blockbench 4.9.3 glTF exporter"},"scenes":[{"nodes":[8],"name":"blockbench_export"}],"scene":0,"nodes":[{"translation":[0.375,-0.6875,0],"name":"RightHand"},{"translation":[-0.375,0.8500000000000003,-0.25],"name":"R","children":[0]},{"translation":[0,-0.0625,-0.0625],"name":"ba_m4_mag_standard"},{"translation":[0,0.1625000000000003,-0.25],"name":"ba_m4","children":[2]},{"translation":[0,0.02499999999999969,0],"name":"bone","children":[1,3]},{"translation":[-0.375,-0.6875,0],"name":"LeftHand"},{"translation":[0.375,0.875,-0.25],"name":"l","children":[5]},{"translation":[0.5,0.3125,0.75],"name":"bone2","children":[4,6]},{"children":[7]}],"animations":[{"name":"reload","samplers":[{"input":0,"output":1,"interpolation":"LINEAR"},{"input":2,"output":3,"interpolation":"LINEAR"},{"input":4,"output":5,"interpolation":"LINEAR"},{"input":6,"output":7,"interpolation":"LINEAR"},{"input":8,"output":9,"interpolation":"LINEAR"},{"input":10,"output":11,"interpolation":"LINEAR"},{"input":12,"output":13,"interpolation":"LINEAR"},{"input":14,"output":15,"interpolation":"LINEAR"},{"input":16,"output":17,"interpolation":"LINEAR"},{"input":18,"output":19,"interpolation":"LINEAR"},{"input":20,"output":21,"interpolation":"LINEAR"},{"input":22,"output":23,"interpolation":"LINEAR"}],"channels":[{"sampler":0,"target":{"node":1,"path":"rotation"}},{"sampler":1,"target":{"node":1,"path":"translation"}},{"sampler":2,"target":{"node":1,"path":"scale"}},{"sampler":3,"target":{"node":6,"path":"rotation"}},{"sampler":4,"target":{"node":6,"path":"translation"}},{"sampler":5,"target":{"node":6,"path":"scale"}},{"sampler":6,"target":{"node":7,"path":"rotation"}},{"sampler":7,"target":{"node":7,"path":"translation"}},{"sampler":8,"target":{"node":4,"path":"rotation"}},{"sampler":9,"target":{"node":4,"path":"translation"}},{"sampler":10,"target":{"node":2,"path":"rotation"}},{"sampler":11,"target":{"node":2,"path":"translation"}}]}],"bufferViews":[{"buffer":0,"byteOffset":0,"byteLength":4},{"buffer":0,"byteOffset":4,"byteLength":16},{"buffer":0,"byteOffset":20,"byteLength":4},{"buffer":0,"byteOffset":24,"byteLength":12},{"buffer":0,"byteOffset":36,"byteLength":4},{"buffer":0,"byteOffset":40,"byteLength":12},{"buffer":0,"byteOffset":52,"byteLength":304},{"buffer":0,"byteOffset":356,"byteLength":1216},{"buffer":0,"byteOffset":1572,"byteLength":304},{"buffer":0,"byteOffset":1876,"byteLength":912},{"buffer":0,"byteOffset":2788,"byteLength":4},{"buffer":0,"byteOffset":2792,"byteLength":12},{"buffer":0,"byteOffset":2804,"byteLength":332},{"buffer":0,"byteOffset":3136,"byteLength":1328},{"buffer":0,"byteOffset":4464,"byteLength":332},{"buffer":0,"byteOffset":4796,"byteLength":996},{"buffer":0,"byteOffset":5792,"byteLength":292},{"buffer":0,"byteOffset":6084,"byteLength":1168},{"buffer":0,"byteOffset":7252,"byteLength":292},{"buffer":0,"byteOffset":7544,"byteLength":876},{"buffer":0,"byteOffset":8420,"byteLength":140},{"buffer":0,"byteOffset":8560,"byteLength":560},{"buffer":0,"byteOffset":9120,"byteLength":140},{"buffer":0,"byteOffset":9260,"byteLength":420}],"buffers":[{"byteLength":9680,"uri":"data:application/octet-stream;base64,"}],"accessors":[{"bufferView":0,"componentType":5126,"count":1,"max":[0.0416666679084301],"min":[0.0416666679084301],"type":"SCALAR"},{"bufferView":1,"componentType":5126,"count":1,"max":[0.04866786301136017,-0.7162023782730103,0.6948682069778442,0.04293915256857872],"min":[0.04866786301136017,-0.7162023782730103,0.6948682069778442,0.04293915256857872],"type":"VEC4"},{"bufferView":2,"componentType":5126,"count":1,"max":[0.0416666679084301],"min":[0.0416666679084301],"type":"SCALAR"},{"bufferView":3,"componentType":5126,"count":1,"max":[0.023125000298023224,-0.02250000089406967,-0.041875001043081284],"min":[0.023125000298023224,-0.02250000089406967,-0.041875001043081284],"type":"VEC3"},{"bufferView":4,"componentType":5126,"count":1,"max":[0.0416666679084301],"min":[0.0416666679084301],"type":"SCALAR"},{"bufferView":5,"componentType":5126,"count":1,"max":[1,1.5,1],"min":[1,1.5,1],"type":"VEC3"},{"bufferView":6,"componentType":5126,"count":76,"max":[3.2083332538604736],"min":[0.0833333358168602],"type":"SCALAR"},{"bufferView":7,"componentType":5126,"count":76,"max":[0.19666688144207,0.8601151704788208,-0.41090843081474304,0.7096080780029297],"min":[-0.28172415494918823,0.5261242389678955,-0.714094340801239,0.1317824125289917],"type":"VEC4"},{"bufferView":8,"componentType":5126,"count":76,"max":[3.1666667461395264],"min":[0.0416666679084301],"type":"SCALAR"},{"bufferView":9,"componentType":5126,"count":76,"max":[-0.023749999701976776,0.36125001311302185,-0.34375],"min":[-0.4412499964237213,-0.4268749952316284,-0.6712499856948853],"type":"VEC3"},{"bufferView":10,"componentType":5126,"count":1,"max":[0.0416666679084301],"min":[0.0416666679084301],"type":"SCALAR"},{"bufferView":11,"componentType":5126,"count":1,"max":[1,1.5,1],"min":[1,1.5,1],"type":"VEC3"},{"bufferView":12,"componentType":5126,"count":83,"max":[3.5],"min":[0.0833333358168602],"type":"SCALAR"},{"bufferView":13,"componentType":5126,"count":83,"max":[0.017726849764585495,0.018059100955724716,0.07208685576915741,1],"min":[-0.021824222058057785,-0.041437312960624695,-0.013102918863296509,0.9971806406974792],"type":"VEC4"},{"bufferView":14,"componentType":5126,"count":83,"max":[3.4583332538604736],"min":[0.0416666679084301],"type":"SCALAR"},{"bufferView":15,"componentType":5126,"count":83,"max":[0.512499988079071,0.3243750035762787,0.7987499833106995],"min":[0.4781250059604645,0.28687500953674316,0.7193750143051147],"type":"VEC3"},{"bufferView":16,"componentType":5126,"count":73,"max":[3.0833332538604736],"min":[0.0833333358168602],"type":"SCALAR"},{"bufferView":17,"componentType":5126,"count":73,"max":[0.2318945825099945,0.05422795191407204,0,1],"min":[0,-0.0382331982254982,-0.18454501032829285,0.9599888324737549],"type":"VEC4"},{"bufferView":18,"componentType":5126,"count":73,"max":[3.0416667461395264],"min":[0.0416666679084301],"type":"SCALAR"},{"bufferView":19,"componentType":5126,"count":73,"max":[0.010625000111758709,0.042500000447034836,0.00937500037252903],"min":[-0.0006249999860301614,-0.025624999776482582,-0.08312500268220901],"type":"VEC3"},{"bufferView":20,"componentType":5126,"count":35,"max":[2.125],"min":[0.7083333134651184],"type":"SCALAR"},{"bufferView":21,"componentType":5126,"count":35,"max":[0.05858732387423515,0,0.012753172777593136,1],"min":[-0.028823165223002434,-0.1694687306880951,-0.14603205025196075,0.9760608077049255],"type":"VEC4"},{"bufferView":22,"componentType":5126,"count":35,"max":[2.0833332538604736],"min":[0.6666666865348816],"type":"SCALAR"},{"bufferView":23,"componentType":5126,"count":35,"max":[0.013124999590218067,-0.0625,0.04374999925494194],"min":[-0.17874999344348907,-0.7993749976158142,-0.07062499970197678],"type":"VEC3"}]}