{"asset":{"version":"2.0","generator":"Blockbench 4.9.3 glTF exporter"},"scenes":[{"nodes":[8],"name":"blockbench_export"}],"scene":0,"nodes":[{"translation":[0.375,-0.6875,0],"name":"RightHand"},{"translation":[-0.375,0.8500000000000003,-0.25],"name":"R","children":[0]},{"translation":[0,-0.0625,-0.0625],"name":"ba_m4_mag_standard"},{"translation":[0,0.1625000000000003,-0.25],"name":"ba_m4","children":[2]},{"translation":[0,0.02499999999999969,0],"name":"bone","children":[1,3]},{"translation":[-0.375,-0.6875,0],"name":"LeftHand"},{"translation":[0.375,0.875,-0.25],"name":"l","children":[5]},{"translation":[0.5,0.3125,0.75],"name":"bone2","children":[4,6]},{"children":[7]}],"animations":[{"name":"inspect","samplers":[{"input":0,"output":1,"interpolation":"LINEAR"},{"input":2,"output":3,"interpolation":"LINEAR"},{"input":4,"output":5,"interpolation":"LINEAR"},{"input":6,"output":7,"interpolation":"LINEAR"},{"input":8,"output":9,"interpolation":"LINEAR"},{"input":10,"output":11,"interpolation":"LINEAR"},{"input":12,"output":13,"interpolation":"LINEAR"},{"input":14,"output":15,"interpolation":"LINEAR"}],"channels":[{"sampler":0,"target":{"node":1,"path":"rotation"}},{"sampler":1,"target":{"node":1,"path":"translation"}},{"sampler":2,"target":{"node":1,"path":"scale"}},{"sampler":3,"target":{"node":6,"path":"rotation"}},{"sampler":4,"target":{"node":6,"path":"translation"}},{"sampler":5,"target":{"node":6,"path":"scale"}},{"sampler":6,"target":{"node":7,"path":"rotation"}},{"sampler":7,"target":{"node":7,"path":"translation"}}]}],"bufferViews":[{"buffer":0,"byteOffset":0,"byteLength":4},{"buffer":0,"byteOffset":4,"byteLength":16},{"buffer":0,"byteOffset":20,"byteLength":4},{"buffer":0,"byteOffset":24,"byteLength":12},{"buffer":0,"byteOffset":36,"byteLength":4},{"buffer":0,"byteOffset":40,"byteLength":12},{"buffer":0,"byteOffset":52,"byteLength":352},{"buffer":0,"byteOffset":404,"byteLength":1408},{"buffer":0,"byteOffset":1812,"byteLength":4},{"buffer":0,"byteOffset":1816,"byteLength":12},{"buffer":0,"byteOffset":1828,"byteLength":4},{"buffer":0,"byteOffset":1832,"byteLength":12},{"buffer":0,"byteOffset":1844,"byteLength":392},{"buffer":0,"byteOffset":2236,"byteLength":1568},{"buffer":0,"byteOffset":3804,"byteLength":392},{"buffer":0,"byteOffset":4196,"byteLength":1176}],"buffers":[{"byteLength":5372,"uri":"data:application/octet-stream;base64,"}],"accessors":[{"bufferView":0,"componentType":5126,"count":1,"max":[0],"min":[0],"type":"SCALAR"},{"bufferView":1,"componentType":5126,"count":1,"max":[0.04866786301136017,-0.7162023782730103,0.6948682069778442,0.04293915256857872],"min":[0.04866786301136017,-0.7162023782730103,0.6948682069778442,0.04293915256857872],"type":"VEC4"},{"bufferView":2,"componentType":5126,"count":1,"max":[0],"min":[0],"type":"SCALAR"},{"bufferView":3,"componentType":5126,"count":1,"max":[0.023125000298023224,-0.02250000089406967,-0.041875001043081284],"min":[0.023125000298023224,-0.02250000089406967,-0.041875001043081284],"type":"VEC3"},{"bufferView":4,"componentType":5126,"count":1,"max":[0],"min":[0],"type":"SCALAR"},{"bufferView":5,"componentType":5126,"count":1,"max":[1,1.5,1],"min":[1,1.5,1],"type":"VEC3"},{"bufferView":6,"componentType":5126,"count":88,"max":[3.7083332538604736],"min":[0.0833333358168602],"type":"SCALAR"},{"bufferView":7,"componentType":5126,"count":88,"max":[-0.13724415004253387,0.5798218846321106,-0.45749714970588684,0.6587931513786316],"min":[-0.28172415494918823,0.5156557559967041,-0.7426097393035889,0.3891866207122803],"type":"VEC4"},{"bufferView":8,"componentType":5126,"count":1,"max":[0.0416666679084301],"min":[0.0416666679084301],"type":"SCALAR"},{"bufferView":9,"componentType":5126,"count":1,"max":[-0.04874999821186066,0.11625000089406967,-0.625],"min":[-0.04874999821186066,0.11625000089406967,-0.625],"type":"VEC3"},{"bufferView":10,"componentType":5126,"count":1,"max":[0],"min":[0],"type":"SCALAR"},{"bufferView":11,"componentType":5126,"count":1,"max":[1,1.5,1],"min":[1,1.5,1],"type":"VEC3"},{"bufferView":12,"componentType":5126,"count":98,"max":[4.125],"min":[0.0833333358168602],"type":"SCALAR"},{"bufferView":13,"componentType":5126,"count":98,"max":[0.22567854821681976,0.16914857923984528,0.467758446931839,1],"min":[-0.014456487260758877,-0.21179212629795074,-0.2209961712360382,0.8305429816246033],"type":"VEC4"},{"bufferView":14,"componentType":5126,"count":98,"max":[4.083333492279053],"min":[0.0416666679084301],"type":"SCALAR"},{"bufferView":15,"componentType":5126,"count":98,"max":[0.5,0.3343749940395355,0.7731249928474426],"min":[0.5,0.2893750071525574,0.7124999761581421],"type":"VEC3"}]}