{"asset":{"version":"2.0","generator":"Blockbench 4.8.3 glTF exporter"},"scenes":[{"nodes":[11],"name":"blockbench_export"}],"scene":0,"nodes":[{"translation":[0.375,-0.6875,0],"name":"RightHand"},{"translation":[-0.375,0.9125000000000003,-0.3125],"name":"R","children":[0]},{"translation":[0,0.051034071767834255,0.0047649640499422],"name":"hammer"},{"translation":[0.017523448528656393,0.29594219721889836,-0.015648897267685258],"name":"magazine4"},{"translation":[-0.000022996910853612107,0.10284585349876196,0.11916452226768526],"name":"magazine","children":[3]},{"translation":[0,0.0107421875,-0.298828125],"name":"front","children":[4]},{"translation":[0,0.06875000000000031,-0.0625],"name":"bulldog","children":[2,5]},{"translation":[0,0.02499999999999969,0],"name":"bone","children":[1,6]},{"translation":[-0.375,-0.6875,0],"name":"LeftHand"},{"translation":[0.375,0.9375,-0.3125],"name":"l","children":[8]},{"translation":[0.5,0.25,0.8125],"name":"bone2","children":[7,9]},{"children":[10]}],"animations":[{"name":"reload","samplers":[{"input":0,"output":1,"interpolation":"LINEAR"},{"input":2,"output":3,"interpolation":"LINEAR"},{"input":4,"output":5,"interpolation":"LINEAR"},{"input":6,"output":7,"interpolation":"LINEAR"},{"input":8,"output":9,"interpolation":"LINEAR"},{"input":10,"output":11,"interpolation":"LINEAR"},{"input":12,"output":13,"interpolation":"LINEAR"},{"input":14,"output":15,"interpolation":"LINEAR"},{"input":16,"output":17,"interpolation":"LINEAR"},{"input":18,"output":19,"interpolation":"LINEAR"},{"input":20,"output":21,"interpolation":"LINEAR"},{"input":22,"output":23,"interpolation":"LINEAR"},{"input":24,"output":25,"interpolation":"LINEAR"},{"input":26,"output":27,"interpolation":"LINEAR"},{"input":28,"output":29,"interpolation":"LINEAR"},{"input":30,"output":31,"interpolation":"LINEAR"},{"input":32,"output":33,"interpolation":"LINEAR"},{"input":34,"output":35,"interpolation":"LINEAR"}],"channels":[{"sampler":0,"target":{"node":2,"path":"rotation"}},{"sampler":1,"target":{"node":2,"path":"translation"}},{"sampler":2,"target":{"node":4,"path":"rotation"}},{"sampler":3,"target":{"node":4,"path":"translation"}},{"sampler":4,"target":{"node":1,"path":"rotation"}},{"sampler":5,"target":{"node":1,"path":"translation"}},{"sampler":6,"target":{"node":1,"path":"scale"}},{"sampler":7,"target":{"node":9,"path":"rotation"}},{"sampler":8,"target":{"node":9,"path":"translation"}},{"sampler":9,"target":{"node":9,"path":"scale"}},{"sampler":10,"target":{"node":6,"path":"rotation"}},{"sampler":11,"target":{"node":6,"path":"translation"}},{"sampler":12,"target":{"node":10,"path":"rotation"}},{"sampler":13,"target":{"node":10,"path":"translation"}},{"sampler":14,"target":{"node":7,"path":"rotation"}},{"sampler":15,"target":{"node":7,"path":"translation"}},{"sampler":16,"target":{"node":5,"path":"rotation"}},{"sampler":17,"target":{"node":5,"path":"translation"}}]}],"bufferViews":[{"buffer":0,"byteOffset":0,"byteLength":4},{"buffer":0,"byteOffset":4,"byteLength":16},{"buffer":0,"byteOffset":20,"byteLength":4},{"buffer":0,"byteOffset":24,"byteLength":12},{"buffer":0,"byteOffset":36,"byteLength":28},{"buffer":0,"byteOffset":64,"byteLength":112},{"buffer":0,"byteOffset":176,"byteLength":24},{"buffer":0,"byteOffset":200,"byteLength":72},{"buffer":0,"byteOffset":272,"byteLength":4},{"buffer":0,"byteOffset":276,"byteLength":16},{"buffer":0,"byteOffset":292,"byteLength":4},{"buffer":0,"byteOffset":296,"byteLength":12},{"buffer":0,"byteOffset":308,"byteLength":4},{"buffer":0,"byteOffset":312,"byteLength":12},{"buffer":0,"byteOffset":324,"byteLength":28},{"buffer":0,"byteOffset":352,"byteLength":112},{"buffer":0,"byteOffset":464,"byteLength":32},{"buffer":0,"byteOffset":496,"byteLength":96},{"buffer":0,"byteOffset":592,"byteLength":16},{"buffer":0,"byteOffset":608,"byteLength":48},{"buffer":0,"byteOffset":656,"byteLength":4},{"buffer":0,"byteOffset":660,"byteLength":16},{"buffer":0,"byteOffset":676,"byteLength":4},{"buffer":0,"byteOffset":680,"byteLength":12},{"buffer":0,"byteOffset":692,"byteLength":4},{"buffer":0,"byteOffset":696,"byteLength":16},{"buffer":0,"byteOffset":712,"byteLength":4},{"buffer":0,"byteOffset":716,"byteLength":12},{"buffer":0,"byteOffset":728,"byteLength":88},{"buffer":0,"byteOffset":816,"byteLength":352},{"buffer":0,"byteOffset":1168,"byteLength":84},{"buffer":0,"byteOffset":1252,"byteLength":252},{"buffer":0,"byteOffset":1504,"byteLength":36},{"buffer":0,"byteOffset":1540,"byteLength":144},{"buffer":0,"byteOffset":1684,"byteLength":4},{"buffer":0,"byteOffset":1688,"byteLength":12}],"buffers":[{"byteLength":1700,"uri":"data:application/octet-stream;base64,"}],"accessors":[{"bufferView":0,"componentType":5126,"count":1,"max":[0.0416666679084301],"min":[0.0416666679084301],"type":"SCALAR"},{"bufferView":1,"componentType":5126,"count":1,"max":[0,0,0,1],"min":[0,0,0,1],"type":"VEC4"},{"bufferView":2,"componentType":5126,"count":1,"max":[0.0416666679084301],"min":[0.0416666679084301],"type":"SCALAR"},{"bufferView":3,"componentType":5126,"count":1,"max":[0,0.051034070551395416,0.004764963872730732],"min":[0,0.051034070551395416,0.004764963872730732],"type":"VEC3"},{"bufferView":4,"componentType":5126,"count":7,"max":[1.5],"min":[0.0416666679084301],"type":"SCALAR"},{"bufferView":5,"componentType":5126,"count":7,"max":[0.14565137028694153,0.03116326779127121,0,1],"min":[-0.08185673505067825,0,-0.26006996631622314,0.9616090059280396],"type":"VEC4"},{"bufferView":6,"componentType":5126,"count":6,"max":[1.4583333730697632],"min":[0.0416666679084301],"type":"SCALAR"},{"bufferView":7,"componentType":5126,"count":6,"max":[-0.000022996910047368146,0.10284585505723953,0.7441645264625549],"min":[-0.5625230073928833,-0.08465414494276047,0.11916451901197433],"type":"VEC3"},{"bufferView":8,"componentType":5126,"count":1,"max":[0.0416666679084301],"min":[0.0416666679084301],"type":"SCALAR"},{"bufferView":9,"componentType":5126,"count":1,"max":[-0.03054494597017765,0.7595349550247192,-0.6496400237083435,-0.01189525704830885],"min":[-0.03054494597017765,0.7595349550247192,-0.6496400237083435,-0.01189525704830885],"type":"VEC4"},{"bufferView":10,"componentType":5126,"count":1,"max":[0.0416666679084301],"min":[0.0416666679084301],"type":"SCALAR"},{"bufferView":11,"componentType":5126,"count":1,"max":[0.0283203125,-0.04355468600988388,-0.0791015625],"min":[0.0283203125,-0.04355468600988388,-0.0791015625],"type":"VEC3"},{"bufferView":12,"componentType":5126,"count":1,"max":[0.0416666679084301],"min":[0.0416666679084301],"type":"SCALAR"},{"bufferView":13,"componentType":5126,"count":1,"max":[1,1.5,1],"min":[1,1.5,1],"type":"VEC3"},{"bufferView":14,"componentType":5126,"count":7,"max":[1.8333333730697632],"min":[0.8333333134651184],"type":"SCALAR"},{"bufferView":15,"componentType":5126,"count":7,"max":[0.2048458755016327,0.9065120220184326,-0.3516266942024231,0.2825048267841339],"min":[-0.29621389508247375,0.5315645933151245,-0.781719982624054,0.11239583045244217],"type":"VEC4"},{"bufferView":16,"componentType":5126,"count":8,"max":[1.8333333730697632],"min":[0.5833333134651184],"type":"SCALAR"},{"bufferView":17,"componentType":5126,"count":8,"max":[-0.20499999821186066,0.9375,0.1106249988079071],"min":[-0.814453125,-0.33812499046325684,-0.3125],"type":"VEC3"},{"bufferView":18,"componentType":5126,"count":4,"max":[1.875],"min":[0.7916666865348816],"type":"SCALAR"},{"bufferView":19,"componentType":5126,"count":4,"max":[1,1.5,1],"min":[0,0,0],"type":"VEC3"},{"bufferView":20,"componentType":5126,"count":1,"max":[0.0416666679084301],"min":[0.0416666679084301],"type":"SCALAR"},{"bufferView":21,"componentType":5126,"count":1,"max":[0,0,0,1],"min":[0,0,0,1],"type":"VEC4"},{"bufferView":22,"componentType":5126,"count":1,"max":[0.0416666679084301],"min":[0.0416666679084301],"type":"SCALAR"},{"bufferView":23,"componentType":5126,"count":1,"max":[0,0.06875000149011612,-0.0625],"min":[0,0.06875000149011612,-0.0625],"type":"VEC3"},{"bufferView":24,"componentType":5126,"count":1,"max":[0.0416666679084301],"min":[0.0416666679084301],"type":"SCALAR"},{"bufferView":25,"componentType":5126,"count":1,"max":[0,0,0,1],"min":[0,0,0,1],"type":"VEC4"},{"bufferView":26,"componentType":5126,"count":1,"max":[0.0416666679084301],"min":[0.0416666679084301],"type":"SCALAR"},{"bufferView":27,"componentType":5126,"count":1,"max":[0.5,0.25,0.8125],"min":[0.5,0.25,0.8125],"type":"VEC3"},{"bufferView":28,"componentType":5126,"count":22,"max":[2.25],"min":[0.0416666679084301],"type":"SCALAR"},{"bufferView":29,"componentType":5126,"count":22,"max":[0.28174731135368347,0.03378615155816078,0.6287655830383301,1],"min":[-0.24584205448627472,-0.26151242852211,-0.09675349295139313,0.6783987879753113],"type":"VEC4"},{"bufferView":30,"componentType":5126,"count":21,"max":[2.25],"min":[0.0416666679084301],"type":"SCALAR"},{"bufferView":31,"componentType":5126,"count":21,"max":[0.05257812514901161,0.15878906846046448,0.11351562291383743],"min":[0,-0.04628906399011612,-0.052734375],"type":"VEC3"},{"bufferView":32,"componentType":5126,"count":9,"max":[1.9166666269302368],"min":[0.2083333283662796],"type":"SCALAR"},{"bufferView":33,"componentType":5126,"count":9,"max":[0,0,0,1],"min":[-0.37460657954216003,0,0,0.9271838665008545],"type":"VEC4"},{"bufferView":34,"componentType":5126,"count":1,"max":[0.2083333283662796],"min":[0.2083333283662796],"type":"SCALAR"},{"bufferView":35,"componentType":5126,"count":1,"max":[0,0.0107421875,-0.298828125],"min":[0,0.0107421875,-0.298828125],"type":"VEC3"}]}