{"asset":{"version":"2.0","generator":"Blockbench 4.9.0 glTF exporter"},"scenes":[{"nodes":[11],"name":"blockbench_export"}],"scene":0,"nodes":[{"translation":[0.375,-0.6875,0],"name":"RightHand"},{"translation":[-0.375,0.9125000000000003,-0.3125],"name":"R","children":[0]},{"translation":[0,0.051034071767834255,0.0047649640499422],"name":"hammer"},{"translation":[0.017523448528656393,0.29594219721889836,-0.015648897267685258],"name":"magazine4"},{"translation":[-0.000022996910853612107,0.10284585349876196,0.11916452226768526],"name":"magazine","children":[3]},{"translation":[0,0.0107421875,-0.298828125],"name":"front","children":[4]},{"translation":[0,0.06875000000000031,-0.0625],"name":"bulldog","children":[2,5]},{"translation":[0,0.02499999999999969,0],"name":"bone","children":[1,6]},{"translation":[-0.375,-0.6875,0],"name":"LeftHand"},{"translation":[0.375,0.9375,-0.3125],"name":"l","children":[8]},{"translation":[0.5,0.25,0.8125],"name":"bone2","children":[7,9]},{"children":[10]}],"animations":[{"name":"draw","samplers":[{"input":0,"output":1,"interpolation":"LINEAR"},{"input":2,"output":3,"interpolation":"LINEAR"},{"input":4,"output":5,"interpolation":"LINEAR"},{"input":6,"output":7,"interpolation":"LINEAR"},{"input":8,"output":9,"interpolation":"LINEAR"},{"input":10,"output":11,"interpolation":"LINEAR"},{"input":12,"output":13,"interpolation":"LINEAR"},{"input":14,"output":15,"interpolation":"LINEAR"},{"input":16,"output":17,"interpolation":"LINEAR"},{"input":18,"output":19,"interpolation":"LINEAR"},{"input":20,"output":21,"interpolation":"LINEAR"},{"input":22,"output":23,"interpolation":"LINEAR"},{"input":24,"output":25,"interpolation":"LINEAR"}],"channels":[{"sampler":0,"target":{"node":2,"path":"rotation"}},{"sampler":1,"target":{"node":2,"path":"translation"}},{"sampler":2,"target":{"node":4,"path":"rotation"}},{"sampler":3,"target":{"node":4,"path":"translation"}},{"sampler":4,"target":{"node":1,"path":"rotation"}},{"sampler":5,"target":{"node":1,"path":"translation"}},{"sampler":6,"target":{"node":1,"path":"scale"}},{"sampler":7,"target":{"node":9,"path":"translation"}},{"sampler":8,"target":{"node":9,"path":"scale"}},{"sampler":9,"target":{"node":6,"path":"rotation"}},{"sampler":10,"target":{"node":6,"path":"translation"}},{"sampler":11,"target":{"node":7,"path":"rotation"}},{"sampler":12,"target":{"node":7,"path":"translation"}}]}],"bufferViews":[{"buffer":0,"byteOffset":0,"byteLength":4},{"buffer":0,"byteOffset":4,"byteLength":16},{"buffer":0,"byteOffset":20,"byteLength":4},{"buffer":0,"byteOffset":24,"byteLength":12},{"buffer":0,"byteOffset":36,"byteLength":4},{"buffer":0,"byteOffset":40,"byteLength":16},{"buffer":0,"byteOffset":56,"byteLength":4},{"buffer":0,"byteOffset":60,"byteLength":12},{"buffer":0,"byteOffset":72,"byteLength":4},{"buffer":0,"byteOffset":76,"byteLength":16},{"buffer":0,"byteOffset":92,"byteLength":4},{"buffer":0,"byteOffset":96,"byteLength":12},{"buffer":0,"byteOffset":108,"byteLength":4},{"buffer":0,"byteOffset":112,"byteLength":12},{"buffer":0,"byteOffset":124,"byteLength":4},{"buffer":0,"byteOffset":128,"byteLength":12},{"buffer":0,"byteOffset":140,"byteLength":4},{"buffer":0,"byteOffset":144,"byteLength":12},{"buffer":0,"byteOffset":156,"byteLength":16},{"buffer":0,"byteOffset":172,"byteLength":64},{"buffer":0,"byteOffset":236,"byteLength":4},{"buffer":0,"byteOffset":240,"byteLength":12},{"buffer":0,"byteOffset":252,"byteLength":24},{"buffer":0,"byteOffset":276,"byteLength":96},{"buffer":0,"byteOffset":372,"byteLength":24},{"buffer":0,"byteOffset":396,"byteLength":72}],"buffers":[{"byteLength":468,"uri":"data:application/octet-stream;base64,"}],"accessors":[{"bufferView":0,"componentType":5126,"count":1,"max":[0.0416666679084301],"min":[0.0416666679084301],"type":"SCALAR"},{"bufferView":1,"componentType":5126,"count":1,"max":[0,0,0,1],"min":[0,0,0,1],"type":"VEC4"},{"bufferView":2,"componentType":5126,"count":1,"max":[0.0416666679084301],"min":[0.0416666679084301],"type":"SCALAR"},{"bufferView":3,"componentType":5126,"count":1,"max":[0,0.051034070551395416,0.004764963872730732],"min":[0,0.051034070551395416,0.004764963872730732],"type":"VEC3"},{"bufferView":4,"componentType":5126,"count":1,"max":[0.0416666679084301],"min":[0.0416666679084301],"type":"SCALAR"},{"bufferView":5,"componentType":5126,"count":1,"max":[0,0,0,1],"min":[0,0,0,1],"type":"VEC4"},{"bufferView":6,"componentType":5126,"count":1,"max":[0.0416666679084301],"min":[0.0416666679084301],"type":"SCALAR"},{"bufferView":7,"componentType":5126,"count":1,"max":[-0.000022996910047368146,0.10284585505723953,0.11916451901197433],"min":[-0.000022996910047368146,0.10284585505723953,0.11916451901197433],"type":"VEC3"},{"bufferView":8,"componentType":5126,"count":1,"max":[0.0416666679084301],"min":[0.0416666679084301],"type":"SCALAR"},{"bufferView":9,"componentType":5126,"count":1,"max":[-0.03054494597017765,0.7595349550247192,-0.6496400237083435,-0.01189525704830885],"min":[-0.03054494597017765,0.7595349550247192,-0.6496400237083435,-0.01189525704830885],"type":"VEC4"},{"bufferView":10,"componentType":5126,"count":1,"max":[0.0416666679084301],"min":[0.0416666679084301],"type":"SCALAR"},{"bufferView":11,"componentType":5126,"count":1,"max":[0.0283203125,-0.04355468600988388,-0.0791015625],"min":[0.0283203125,-0.04355468600988388,-0.0791015625],"type":"VEC3"},{"bufferView":12,"componentType":5126,"count":1,"max":[0.0416666679084301],"min":[0.0416666679084301],"type":"SCALAR"},{"bufferView":13,"componentType":5126,"count":1,"max":[1,1.5,1],"min":[1,1.5,1],"type":"VEC3"},{"bufferView":14,"componentType":5126,"count":1,"max":[0.0416666679084301],"min":[0.0416666679084301],"type":"SCALAR"},{"bufferView":15,"componentType":5126,"count":1,"max":[-0.375,0.9375,-0.3125],"min":[-0.375,0.9375,-0.3125],"type":"VEC3"},{"bufferView":16,"componentType":5126,"count":1,"max":[0.0416666679084301],"min":[0.0416666679084301],"type":"SCALAR"},{"bufferView":17,"componentType":5126,"count":1,"max":[0,0,0],"min":[0,0,0],"type":"VEC3"},{"bufferView":18,"componentType":5126,"count":4,"max":[0.4583333432674408],"min":[0.0416666679084301],"type":"SCALAR"},{"bufferView":19,"componentType":5126,"count":4,"max":[0.8660253882408142,0,0,1],"min":[0,0,0,-1],"type":"VEC4"},{"bufferView":20,"componentType":5126,"count":1,"max":[0.0416666679084301],"min":[0.0416666679084301],"type":"SCALAR"},{"bufferView":21,"componentType":5126,"count":1,"max":[0,0.06875000149011612,-0.0625],"min":[0,0.06875000149011612,-0.0625],"type":"VEC3"},{"bufferView":22,"componentType":5126,"count":6,"max":[0.5833333134651184],"min":[0.0416666679084301],"type":"SCALAR"},{"bufferView":23,"componentType":5126,"count":6,"max":[0.10636459290981293,0.15038372576236725,0.07762434333562851,1],"min":[-0.49240386486053467,0,-0.23738239705562592,0.8528685569763184],"type":"VEC4"},{"bufferView":24,"componentType":5126,"count":6,"max":[0.5833333134651184],"min":[0.0416666679084301],"type":"SCALAR"},{"bufferView":25,"componentType":5126,"count":6,"max":[0.020625000819563866,0.06894531100988388,0.25],"min":[0,-0.2874999940395355,-0.1875],"type":"VEC3"}]}