{"asset":{"version":"2.0","generator":"Blockbench 4.9.0 glTF exporter"},"scenes":[{"nodes":[11],"name":"blockbench_export"}],"scene":0,"nodes":[{"translation":[0.375,-0.6875,0],"name":"RightHand"},{"translation":[-0.375,0.9125000000000003,-0.3125],"name":"R","children":[0]},{"translation":[0,0.051034071767834255,0.0047649640499422],"name":"hammer"},{"translation":[0.017523448528656393,0.29594219721889836,-0.015648897267685258],"name":"magazine4"},{"translation":[-0.000022996910853612107,0.10284585349876196,0.11916452226768526],"name":"magazine","children":[3]},{"translation":[0,0.0107421875,-0.298828125],"name":"front","children":[4]},{"translation":[0,0.06875000000000031,-0.0625],"name":"bulldog","children":[2,5]},{"translation":[0,0.02499999999999969,0],"name":"bone","children":[1,6]},{"translation":[-0.375,-0.6875,0],"name":"LeftHand"},{"translation":[0.375,0.9375,-0.3125],"name":"l","children":[8]},{"translation":[0.5,0.25,0.8125],"name":"bone2","children":[7,9]},{"children":[10]}],"animations":[{"name":"inspect","samplers":[{"input":0,"output":1,"interpolation":"LINEAR"},{"input":2,"output":3,"interpolation":"LINEAR"},{"input":4,"output":5,"interpolation":"LINEAR"},{"input":6,"output":7,"interpolation":"LINEAR"},{"input":8,"output":9,"interpolation":"LINEAR"},{"input":10,"output":11,"interpolation":"LINEAR"},{"input":12,"output":13,"interpolation":"LINEAR"},{"input":14,"output":15,"interpolation":"LINEAR"},{"input":16,"output":17,"interpolation":"LINEAR"},{"input":18,"output":19,"interpolation":"LINEAR"},{"input":20,"output":21,"interpolation":"LINEAR"}],"channels":[{"sampler":0,"target":{"node":2,"path":"rotation"}},{"sampler":1,"target":{"node":2,"path":"translation"}},{"sampler":2,"target":{"node":1,"path":"rotation"}},{"sampler":3,"target":{"node":1,"path":"translation"}},{"sampler":4,"target":{"node":1,"path":"scale"}},{"sampler":5,"target":{"node":9,"path":"translation"}},{"sampler":6,"target":{"node":9,"path":"scale"}},{"sampler":7,"target":{"node":7,"path":"rotation"}},{"sampler":8,"target":{"node":7,"path":"translation"}},{"sampler":9,"target":{"node":6,"path":"rotation"}},{"sampler":10,"target":{"node":6,"path":"translation"}}]}],"bufferViews":[{"buffer":0,"byteOffset":0,"byteLength":4},{"buffer":0,"byteOffset":4,"byteLength":16},{"buffer":0,"byteOffset":20,"byteLength":4},{"buffer":0,"byteOffset":24,"byteLength":12},{"buffer":0,"byteOffset":36,"byteLength":92},{"buffer":0,"byteOffset":128,"byteLength":368},{"buffer":0,"byteOffset":496,"byteLength":8},{"buffer":0,"byteOffset":504,"byteLength":24},{"buffer":0,"byteOffset":528,"byteLength":4},{"buffer":0,"byteOffset":532,"byteLength":12},{"buffer":0,"byteOffset":544,"byteLength":4},{"buffer":0,"byteOffset":548,"byteLength":12},{"buffer":0,"byteOffset":560,"byteLength":4},{"buffer":0,"byteOffset":564,"byteLength":12},{"buffer":0,"byteOffset":576,"byteLength":92},{"buffer":0,"byteOffset":668,"byteLength":368},{"buffer":0,"byteOffset":1036,"byteLength":88},{"buffer":0,"byteOffset":1124,"byteLength":264},{"buffer":0,"byteOffset":1388,"byteLength":56},{"buffer":0,"byteOffset":1444,"byteLength":224},{"buffer":0,"byteOffset":1668,"byteLength":24},{"buffer":0,"byteOffset":1692,"byteLength":72}],"buffers":[{"byteLength":1764,"uri":"data:application/octet-stream;base64,"}],"accessors":[{"bufferView":0,"componentType":5126,"count":1,"max":[0.0416666679084301],"min":[0.0416666679084301],"type":"SCALAR"},{"bufferView":1,"componentType":5126,"count":1,"max":[0,0,0,1],"min":[0,0,0,1],"type":"VEC4"},{"bufferView":2,"componentType":5126,"count":1,"max":[0.0416666679084301],"min":[0.0416666679084301],"type":"SCALAR"},{"bufferView":3,"componentType":5126,"count":1,"max":[0,0.051034070551395416,0.004764963872730732],"min":[0,0.051034070551395416,0.004764963872730732],"type":"VEC3"},{"bufferView":4,"componentType":5126,"count":23,"max":[1.9583333730697632],"min":[0.0416666679084301],"type":"SCALAR"},{"bufferView":5,"componentType":5126,"count":23,"max":[0.08865305781364441,0.8012274503707886,-0.5859755873680115,0.03354625776410103],"min":[-0.05788657069206238,0.6796644330024719,-0.7289866209030151,-0.16434332728385925],"type":"VEC4"},{"bufferView":6,"componentType":5126,"count":2,"max":[0.1666666716337204],"min":[0.0416666679084301],"type":"SCALAR"},{"bufferView":7,"componentType":5126,"count":2,"max":[0.0283203125,-0.04355468600988388,-0.0791015625],"min":[0.02812499925494194,-0.04374999925494194,-0.0793749988079071],"type":"VEC3"},{"bufferView":8,"componentType":5126,"count":1,"max":[0.0416666679084301],"min":[0.0416666679084301],"type":"SCALAR"},{"bufferView":9,"componentType":5126,"count":1,"max":[1,1.5,1],"min":[1,1.5,1],"type":"VEC3"},{"bufferView":10,"componentType":5126,"count":1,"max":[0.0416666679084301],"min":[0.0416666679084301],"type":"SCALAR"},{"bufferView":11,"componentType":5126,"count":1,"max":[-0.375,0.9375,-0.3125],"min":[-0.375,0.9375,-0.3125],"type":"VEC3"},{"bufferView":12,"componentType":5126,"count":1,"max":[0.0416666679084301],"min":[0.0416666679084301],"type":"SCALAR"},{"bufferView":13,"componentType":5126,"count":1,"max":[0,0,0],"min":[0,0,0],"type":"VEC3"},{"bufferView":14,"componentType":5126,"count":23,"max":[1.9583333730697632],"min":[0.0416666679084301],"type":"SCALAR"},{"bufferView":15,"componentType":5126,"count":23,"max":[0.18263430893421173,0.1310456097126007,0.3658372759819031,1],"min":[-0.14425142109394073,-0.01181317213922739,-0.21488770842552185,0.9115813970565796],"type":"VEC4"},{"bufferView":16,"componentType":5126,"count":22,"max":[1.9166666269302368],"min":[0.0416666679084301],"type":"SCALAR"},{"bufferView":17,"componentType":5126,"count":22,"max":[0.009999999776482582,0.17687499523162842,0.0302734375],"min":[-0.03589843586087227,0.01914062537252903,-0.216796875],"type":"VEC3"},{"bufferView":18,"componentType":5126,"count":14,"max":[1.9583333730697632],"min":[0.1666666716337204],"type":"SCALAR"},{"bufferView":19,"componentType":5126,"count":14,"max":[0.8596131801605225,0.18226081132888794,0.1842179149389267,1],"min":[-0.9228819608688354,-0.19006076455116272,-0.18941812217235565,-1],"type":"VEC4"},{"bufferView":20,"componentType":5126,"count":6,"max":[1.9166666269302368],"min":[0.1666666716337204],"type":"SCALAR"},{"bufferView":21,"componentType":5126,"count":6,"max":[0,0.06875000149011612,-0.0625],"min":[-0.0712890625,0.06875000149011612,-0.0625],"type":"VEC3"}]}