{"asset":{"version":"2.0","generator":"Blockbench 4.9.0 glTF exporter"},"scenes":[{"nodes":[11],"name":"blockbench_export"}],"scene":0,"nodes":[{"translation":[0.375,-0.6875,0],"name":"RightHand"},{"translation":[-0.375,0.9125000000000003,-0.3125],"name":"R","children":[0]},{"translation":[0,0.051034071767834255,0.0047649640499422],"name":"hammer"},{"translation":[0.017523448528656393,0.29594219721889836,-0.015648897267685258],"name":"magazine4"},{"translation":[-0.000022996910853612107,0.10284585349876196,0.11916452226768526],"name":"magazine","children":[3]},{"translation":[0,0.0107421875,-0.298828125],"name":"front","children":[4]},{"translation":[0,0.06875000000000031,-0.0625],"name":"bulldog","children":[2,5]},{"translation":[0,0.02499999999999969,0],"name":"bone","children":[1,6]},{"translation":[-0.375,-0.6875,0],"name":"LeftHand"},{"translation":[0.375,0.9375,-0.3125],"name":"l","children":[8]},{"translation":[0.5,0.25,0.8125],"name":"bone2","children":[7,9]},{"children":[10]}],"animations":[{"name":"static_state","samplers":[{"input":0,"output":1,"interpolation":"LINEAR"},{"input":2,"output":3,"interpolation":"LINEAR"},{"input":4,"output":5,"interpolation":"LINEAR"},{"input":6,"output":7,"interpolation":"LINEAR"},{"input":8,"output":9,"interpolation":"LINEAR"}],"channels":[{"sampler":0,"target":{"node":1,"path":"rotation"}},{"sampler":1,"target":{"node":1,"path":"translation"}},{"sampler":2,"target":{"node":1,"path":"scale"}},{"sampler":3,"target":{"node":9,"path":"translation"}},{"sampler":4,"target":{"node":9,"path":"scale"}}]}],"bufferViews":[{"buffer":0,"byteOffset":0,"byteLength":4},{"buffer":0,"byteOffset":4,"byteLength":16},{"buffer":0,"byteOffset":20,"byteLength":4},{"buffer":0,"byteOffset":24,"byteLength":12},{"buffer":0,"byteOffset":36,"byteLength":4},{"buffer":0,"byteOffset":40,"byteLength":12},{"buffer":0,"byteOffset":52,"byteLength":4},{"buffer":0,"byteOffset":56,"byteLength":12},{"buffer":0,"byteOffset":68,"byteLength":4},{"buffer":0,"byteOffset":72,"byteLength":12}],"buffers":[{"byteLength":84,"uri":"data:application/octet-stream;base64,"}],"accessors":[{"bufferView":0,"componentType":5126,"count":1,"max":[0],"min":[0],"type":"SCALAR"},{"bufferView":1,"componentType":5126,"count":1,"max":[-0.03054494597017765,0.7595349550247192,-0.6496400237083435,-0.01189525704830885],"min":[-0.03054494597017765,0.7595349550247192,-0.6496400237083435,-0.01189525704830885],"type":"VEC4"},{"bufferView":2,"componentType":5126,"count":1,"max":[0],"min":[0],"type":"SCALAR"},{"bufferView":3,"componentType":5126,"count":1,"max":[0.0283203125,-0.04355468600988388,-0.0791015625],"min":[0.0283203125,-0.04355468600988388,-0.0791015625],"type":"VEC3"},{"bufferView":4,"componentType":5126,"count":1,"max":[0],"min":[0],"type":"SCALAR"},{"bufferView":5,"componentType":5126,"count":1,"max":[1,1.5,1],"min":[1,1.5,1],"type":"VEC3"},{"bufferView":6,"componentType":5126,"count":1,"max":[0],"min":[0],"type":"SCALAR"},{"bufferView":7,"componentType":5126,"count":1,"max":[-0.375,0.9375,-0.3125],"min":[-0.375,0.9375,-0.3125],"type":"VEC3"},{"bufferView":8,"componentType":5126,"count":1,"max":[0],"min":[0],"type":"SCALAR"},{"bufferView":9,"componentType":5126,"count":1,"max":[0,0,0],"min":[0,0,0],"type":"VEC3"}]}