{"asset":{"version":"2.0","generator":"Blockbench 4.9.3 glTF exporter"},"scenes":[{"nodes":[12],"name":"blockbench_export"}],"scene":0,"nodes":[{"translation":[0.375,-0.6875,0],"name":"RightHand"},{"translation":[-0.45703125,0.7679687500000003,-0.0625],"name":"R","children":[0]},{"translation":[0,0.32142745579584253,-0.06313592764244175],"name":"hammer"},{"translation":[-0.00018310546875,0.2822265625,-0.3106689453125001],"name":"cylinder"},{"translation":[0.047607421875,0.247802734375,-0.1328125],"name":"mag"},{"translation":[0.08203125,0.328125,-0.244140625],"name":"bullet_shell"},{"translation":[0.08208810763888874,0.2382753485993293,-0.3095780285444788],"name":"bullet"},{"translation":[-0.08245849609375,0.08046875000000031,-0.0625],"name":"m1873","children":[2,3,4,5,6]},{"translation":[0.08203125,-0.1429687500000003,-0.0625],"name":"bone","children":[1,7]},{"translation":[-0.375,-0.6875,0],"name":"LeftHand"},{"translation":[0.375,0.625,-0.125],"name":"l","children":[9]},{"translation":[0.5,0.5625,0.625],"name":"bone2","children":[8,10]},{"children":[11]}],"animations":[{"name":"inspect","samplers":[{"input":0,"output":1,"interpolation":"LINEAR"},{"input":2,"output":3,"interpolation":"LINEAR"},{"input":4,"output":5,"interpolation":"LINEAR"},{"input":6,"output":7,"interpolation":"LINEAR"},{"input":8,"output":9,"interpolation":"LINEAR"},{"input":10,"output":11,"interpolation":"LINEAR"},{"input":12,"output":13,"interpolation":"LINEAR"},{"input":14,"output":15,"interpolation":"LINEAR"},{"input":16,"output":17,"interpolation":"LINEAR"},{"input":18,"output":19,"interpolation":"LINEAR"}],"channels":[{"sampler":0,"target":{"node":1,"path":"rotation"}},{"sampler":1,"target":{"node":1,"path":"translation"}},{"sampler":2,"target":{"node":1,"path":"scale"}},{"sampler":3,"target":{"node":10,"path":"rotation"}},{"sampler":4,"target":{"node":10,"path":"translation"}},{"sampler":5,"target":{"node":10,"path":"scale"}},{"sampler":6,"target":{"node":11,"path":"rotation"}},{"sampler":7,"target":{"node":11,"path":"translation"}},{"sampler":8,"target":{"node":8,"path":"rotation"}},{"sampler":9,"target":{"node":8,"path":"translation"}}]}],"bufferViews":[{"buffer":0,"byteOffset":0,"byteLength":4},{"buffer":0,"byteOffset":4,"byteLength":16},{"buffer":0,"byteOffset":20,"byteLength":4},{"buffer":0,"byteOffset":24,"byteLength":12},{"buffer":0,"byteOffset":36,"byteLength":4},{"buffer":0,"byteOffset":40,"byteLength":12},{"buffer":0,"byteOffset":52,"byteLength":492},{"buffer":0,"byteOffset":544,"byteLength":1968},{"buffer":0,"byteOffset":2512,"byteLength":492},{"buffer":0,"byteOffset":3004,"byteLength":1476},{"buffer":0,"byteOffset":4480,"byteLength":4},{"buffer":0,"byteOffset":4484,"byteLength":12},{"buffer":0,"byteOffset":4496,"byteLength":4},{"buffer":0,"byteOffset":4500,"byteLength":16},{"buffer":0,"byteOffset":4516,"byteLength":4},{"buffer":0,"byteOffset":4520,"byteLength":12},{"buffer":0,"byteOffset":4532,"byteLength":492},{"buffer":0,"byteOffset":5024,"byteLength":1968},{"buffer":0,"byteOffset":6992,"byteLength":492},{"buffer":0,"byteOffset":7484,"byteLength":1476}],"buffers":[{"byteLength":8960,"uri":"data:application/octet-stream;base64,"}],"accessors":[{"bufferView":0,"componentType":5126,"count":1,"max":[0],"min":[0],"type":"SCALAR"},{"bufferView":1,"componentType":5126,"count":1,"max":[0.007871877402067184,-0.7252654433250427,0.6883431077003479,0.010575329884886742],"min":[0.007871877402067184,-0.7252654433250427,0.6883431077003479,0.010575329884886742],"type":"VEC4"},{"bufferView":2,"componentType":5126,"count":1,"max":[0],"min":[0],"type":"SCALAR"},{"bufferView":3,"componentType":5126,"count":1,"max":[-0.03890625014901161,0.08046875149011612,-0.015625],"min":[-0.03890625014901161,0.08046875149011612,-0.015625],"type":"VEC3"},{"bufferView":4,"componentType":5126,"count":1,"max":[0],"min":[0],"type":"SCALAR"},{"bufferView":5,"componentType":5126,"count":1,"max":[1.75,2,1.75],"min":[1.75,2,1.75],"type":"VEC3"},{"bufferView":6,"componentType":5126,"count":123,"max":[5.166666507720947],"min":[0.0833333358168602],"type":"SCALAR"},{"bufferView":7,"componentType":5126,"count":123,"max":[-0.3353551924228668,0.5754647254943848,-0.49540767073631287,0.5576275587081909],"min":[-0.40975266695022583,0.42756539583206177,-0.7852530479431152,0.18086376786231995],"type":"VEC4"},{"bufferView":8,"componentType":5126,"count":123,"max":[5.125],"min":[0.0416666679084301],"type":"SCALAR"},{"bufferView":9,"componentType":5126,"count":123,"max":[-0.09749999642372131,-0.17937499284744263,-0.011874999850988388],"min":[-0.8706250190734863,-1.6556249856948853,-0.011874999850988388],"type":"VEC3"},{"bufferView":10,"componentType":5126,"count":1,"max":[0],"min":[0],"type":"SCALAR"},{"bufferView":11,"componentType":5126,"count":1,"max":[1.75,2,1.75],"min":[1.75,2,1.75],"type":"VEC3"},{"bufferView":12,"componentType":5126,"count":1,"max":[0.0833333358168602],"min":[0.0833333358168602],"type":"SCALAR"},{"bufferView":13,"componentType":5126,"count":1,"max":[0,0,0,1],"min":[0,0,0,1],"type":"VEC4"},{"bufferView":14,"componentType":5126,"count":1,"max":[0.0416666679084301],"min":[0.0416666679084301],"type":"SCALAR"},{"bufferView":15,"componentType":5126,"count":1,"max":[0.5,0.5625,0.625],"min":[0.5,0.5625,0.625],"type":"VEC3"},{"bufferView":16,"componentType":5126,"count":123,"max":[5.166666507720947],"min":[0.0833333358168602],"type":"SCALAR"},{"bufferView":17,"componentType":5126,"count":123,"max":[0.2553141117095947,0.16023069620132446,0.4362666606903076,1],"min":[0,-0.20931370556354523,-0.1864151805639267,0.8486467003822327],"type":"VEC4"},{"bufferView":18,"componentType":5126,"count":123,"max":[5.125],"min":[0.0416666679084301],"type":"SCALAR"},{"bufferView":19,"componentType":5126,"count":123,"max":[0.08203125,0.16078124940395355,-0.0625],"min":[0.08203125,-0.14296874403953552,-0.21875],"type":"VEC3"}]}