{"asset":{"version":"2.0","generator":"Blockbench 4.9.3 glTF exporter"},"scenes":[{"nodes":[12],"name":"blockbench_export"}],"scene":0,"nodes":[{"translation":[0.375,-0.6875,0],"name":"RightHand"},{"translation":[-0.45703125,0.7679687500000003,-0.0625],"name":"R","children":[0]},{"translation":[0,0.32142745579584253,-0.06313592764244175],"name":"hammer"},{"translation":[-0.00018310546875,0.2822265625,-0.3106689453125001],"name":"cylinder"},{"translation":[0.047607421875,0.247802734375,-0.1328125],"name":"mag"},{"translation":[0.08203125,0.328125,-0.244140625],"name":"bullet_shell"},{"translation":[0.08208810763888874,0.2382753485993293,-0.3095780285444788],"name":"bullet"},{"translation":[-0.08245849609375,0.08046875000000031,-0.0625],"name":"m1873","children":[2,3,4,5,6]},{"translation":[0.08203125,-0.1429687500000003,-0.0625],"name":"bone","children":[1,7]},{"translation":[-0.375,-0.6875,0],"name":"LeftHand"},{"translation":[0.375,0.625,-0.125],"name":"l","children":[9]},{"translation":[0.5,0.5625,0.625],"name":"bone2","children":[8,10]},{"children":[11]}],"animations":[{"name":"reload_outro","samplers":[{"input":0,"output":1,"interpolation":"LINEAR"},{"input":2,"output":3,"interpolation":"LINEAR"},{"input":4,"output":5,"interpolation":"LINEAR"},{"input":6,"output":7,"interpolation":"LINEAR"},{"input":8,"output":9,"interpolation":"LINEAR"},{"input":10,"output":11,"interpolation":"LINEAR"},{"input":12,"output":13,"interpolation":"LINEAR"},{"input":14,"output":15,"interpolation":"LINEAR"},{"input":16,"output":17,"interpolation":"LINEAR"},{"input":18,"output":19,"interpolation":"LINEAR"},{"input":20,"output":21,"interpolation":"LINEAR"},{"input":22,"output":23,"interpolation":"LINEAR"},{"input":24,"output":25,"interpolation":"LINEAR"},{"input":26,"output":27,"interpolation":"LINEAR"},{"input":28,"output":29,"interpolation":"LINEAR"},{"input":30,"output":31,"interpolation":"LINEAR"},{"input":32,"output":33,"interpolation":"LINEAR"},{"input":34,"output":35,"interpolation":"LINEAR"},{"input":36,"output":37,"interpolation":"LINEAR"},{"input":38,"output":39,"interpolation":"LINEAR"}],"channels":[{"sampler":0,"target":{"node":1,"path":"rotation"}},{"sampler":1,"target":{"node":1,"path":"translation"}},{"sampler":2,"target":{"node":1,"path":"scale"}},{"sampler":3,"target":{"node":10,"path":"rotation"}},{"sampler":4,"target":{"node":10,"path":"translation"}},{"sampler":5,"target":{"node":10,"path":"scale"}},{"sampler":6,"target":{"node":11,"path":"rotation"}},{"sampler":7,"target":{"node":11,"path":"translation"}},{"sampler":8,"target":{"node":8,"path":"rotation"}},{"sampler":9,"target":{"node":8,"path":"translation"}},{"sampler":10,"target":{"node":7,"path":"rotation"}},{"sampler":11,"target":{"node":7,"path":"translation"}},{"sampler":12,"target":{"node":3,"path":"rotation"}},{"sampler":13,"target":{"node":4,"path":"rotation"}},{"sampler":14,"target":{"node":5,"path":"rotation"}},{"sampler":15,"target":{"node":5,"path":"translation"}},{"sampler":16,"target":{"node":6,"path":"rotation"}},{"sampler":17,"target":{"node":6,"path":"translation"}},{"sampler":18,"target":{"node":2,"path":"rotation"}},{"sampler":19,"target":{"node":2,"path":"translation"}}]}],"bufferViews":[{"buffer":0,"byteOffset":0,"byteLength":96},{"buffer":0,"byteOffset":96,"byteLength":384},{"buffer":0,"byteOffset":480,"byteLength":92},{"buffer":0,"byteOffset":572,"byteLength":276},{"buffer":0,"byteOffset":848,"byteLength":4},{"buffer":0,"byteOffset":852,"byteLength":12},{"buffer":0,"byteOffset":864,"byteLength":184},{"buffer":0,"byteOffset":1048,"byteLength":736},{"buffer":0,"byteOffset":1784,"byteLength":180},{"buffer":0,"byteOffset":1964,"byteLength":540},{"buffer":0,"byteOffset":2504,"byteLength":4},{"buffer":0,"byteOffset":2508,"byteLength":12},{"buffer":0,"byteOffset":2520,"byteLength":208},{"buffer":0,"byteOffset":2728,"byteLength":832},{"buffer":0,"byteOffset":3560,"byteLength":204},{"buffer":0,"byteOffset":3764,"byteLength":612},{"buffer":0,"byteOffset":4376,"byteLength":184},{"buffer":0,"byteOffset":4560,"byteLength":736},{"buffer":0,"byteOffset":5296,"byteLength":180},{"buffer":0,"byteOffset":5476,"byteLength":540},{"buffer":0,"byteOffset":6016,"byteLength":96},{"buffer":0,"byteOffset":6112,"byteLength":384},{"buffer":0,"byteOffset":6496,"byteLength":92},{"buffer":0,"byteOffset":6588,"byteLength":276},{"buffer":0,"byteOffset":6864,"byteLength":4},{"buffer":0,"byteOffset":6868,"byteLength":16},{"buffer":0,"byteOffset":6884,"byteLength":20},{"buffer":0,"byteOffset":6904,"byteLength":80},{"buffer":0,"byteOffset":6984,"byteLength":4},{"buffer":0,"byteOffset":6988,"byteLength":16},{"buffer":0,"byteOffset":7004,"byteLength":4},{"buffer":0,"byteOffset":7008,"byteLength":12},{"buffer":0,"byteOffset":7020,"byteLength":4},{"buffer":0,"byteOffset":7024,"byteLength":16},{"buffer":0,"byteOffset":7040,"byteLength":4},{"buffer":0,"byteOffset":7044,"byteLength":12},{"buffer":0,"byteOffset":7056,"byteLength":16},{"buffer":0,"byteOffset":7072,"byteLength":64},{"buffer":0,"byteOffset":7136,"byteLength":4},{"buffer":0,"byteOffset":7140,"byteLength":12}],"buffers":[{"byteLength":7152,"uri":"data:application/octet-stream;base64,"}],"accessors":[{"bufferView":0,"componentType":5126,"count":24,"max":[1],"min":[0.0416666679084301],"type":"SCALAR"},{"bufferView":1,"componentType":5126,"count":24,"max":[0.007871877402067184,-0.7252654433250427,0.6883431077003479,0.2804529368877411],"min":[-0.1429549753665924,-0.8025128245353699,0.5497928857803345,0.010575329884886742],"type":"VEC4"},{"bufferView":2,"componentType":5126,"count":23,"max":[0.9583333134651184],"min":[0.0416666679084301],"type":"SCALAR"},{"bufferView":3,"componentType":5126,"count":23,"max":[0.21296875178813934,0.33296874165534973,-0.015625],"min":[-0.03890625014901161,0.08046875149011612,-0.7056249976158142],"type":"VEC3"},{"bufferView":4,"componentType":5126,"count":1,"max":[0],"min":[0],"type":"SCALAR"},{"bufferView":5,"componentType":5126,"count":1,"max":[1.75,2,1.75],"min":[1.75,2,1.75],"type":"VEC3"},{"bufferView":6,"componentType":5126,"count":46,"max":[1.9166666269302368],"min":[0.0416666679084301],"type":"SCALAR"},{"bufferView":7,"componentType":5126,"count":46,"max":[0.1184457540512085,0.9081882834434509,-0.34056881070137024,0.5576275587081909],"min":[-0.3353551924228668,0.5754647254943848,-0.5073466300964355,0.14192135632038116],"type":"VEC4"},{"bufferView":8,"componentType":5126,"count":45,"max":[1.875],"min":[0.0416666679084301],"type":"SCALAR"},{"bufferView":9,"componentType":5126,"count":45,"max":[-0.09749999642372131,0.10249999910593033,0.16124999523162842],"min":[-0.5556250214576721,-0.17937499284744263,-0.09562499821186066],"type":"VEC3"},{"bufferView":10,"componentType":5126,"count":1,"max":[0],"min":[0],"type":"SCALAR"},{"bufferView":11,"componentType":5126,"count":1,"max":[1.75,2,1.75],"min":[1.75,2,1.75],"type":"VEC3"},{"bufferView":12,"componentType":5126,"count":52,"max":[2.1666667461395264],"min":[0.0416666679084301],"type":"SCALAR"},{"bufferView":13,"componentType":5126,"count":52,"max":[0.03864626586437225,0.012125619687139988,0.03116643615067005,1],"min":[-0.05438939854502678,-0.0017543663270771503,-0.07234010100364685,0.9966970086097717],"type":"VEC4"},{"bufferView":14,"componentType":5126,"count":51,"max":[2.125],"min":[0.0416666679084301],"type":"SCALAR"},{"bufferView":15,"componentType":5126,"count":51,"max":[0.5,0.6993749737739563,0.7074999809265137],"min":[0.5,0.5537499785423279,0.22312499582767487],"type":"VEC3"},{"bufferView":16,"componentType":5126,"count":46,"max":[1.9166666269302368],"min":[0.0416666679084301],"type":"SCALAR"},{"bufferView":17,"componentType":5126,"count":46,"max":[0.13365963101387024,0,0.21997815370559692,1],"min":[0,-0.03175270929932594,0,0.9657828211784363],"type":"VEC4"},{"bufferView":18,"componentType":5126,"count":45,"max":[1.875],"min":[0.0416666679084301],"type":"SCALAR"},{"bufferView":19,"componentType":5126,"count":45,"max":[0.08203125,-0.14296874403953552,0.11749999970197678],"min":[-0.10609374940395355,-0.18859374523162842,-0.0625],"type":"VEC3"},{"bufferView":20,"componentType":5126,"count":24,"max":[1],"min":[0.0416666679084301],"type":"SCALAR"},{"bufferView":21,"componentType":5126,"count":24,"max":[0,0,0.16871383786201477,1],"min":[-0.00924013927578926,-0.13223330676555634,0,0.9767489433288574],"type":"VEC4"},{"bufferView":22,"componentType":5126,"count":23,"max":[0.9583333134651184],"min":[0.0416666679084301],"type":"SCALAR"},{"bufferView":23,"componentType":5126,"count":23,"max":[-0.08245849609375,0.08046875149011612,-0.0625],"min":[-0.08245849609375,0.08046875149011612,-0.0625],"type":"VEC3"},{"bufferView":24,"componentType":5126,"count":1,"max":[0.0416666679084301],"min":[0.0416666679084301],"type":"SCALAR"},{"bufferView":25,"componentType":5126,"count":1,"max":[0,0,-0.5131667852401733,0.8582888841629028],"min":[0,0,-0.5131667852401733,0.8582888841629028],"type":"VEC4"},{"bufferView":26,"componentType":5126,"count":5,"max":[0.5833333134651184],"min":[0.4166666567325592],"type":"SCALAR"},{"bufferView":27,"componentType":5126,"count":5,"max":[0,0,0,1],"min":[0,0,-0.4617486000061035,0.8870108127593994],"type":"VEC4"},{"bufferView":28,"componentType":5126,"count":1,"max":[0.0416666679084301],"min":[0.0416666679084301],"type":"SCALAR"},{"bufferView":29,"componentType":5126,"count":1,"max":[0,0,0,1],"min":[0,0,0,1],"type":"VEC4"},{"bufferView":30,"componentType":5126,"count":1,"max":[0.0416666679084301],"min":[0.0416666679084301],"type":"SCALAR"},{"bufferView":31,"componentType":5126,"count":1,"max":[0.08203125,0.328125,-0.244140625],"min":[0.08203125,0.328125,-0.244140625],"type":"VEC3"},{"bufferView":32,"componentType":5126,"count":1,"max":[0.0416666679084301],"min":[0.0416666679084301],"type":"SCALAR"},{"bufferView":33,"componentType":5126,"count":1,"max":[0,0,0,1],"min":[0,0,0,1],"type":"VEC4"},{"bufferView":34,"componentType":5126,"count":1,"max":[0.0416666679084301],"min":[0.0416666679084301],"type":"SCALAR"},{"bufferView":35,"componentType":5126,"count":1,"max":[0.08271310478448868,0.2595253586769104,-0.3083280324935913],"min":[0.08271310478448868,0.2595253586769104,-0.3083280324935913],"type":"VEC3"},{"bufferView":36,"componentType":5126,"count":4,"max":[1.375],"min":[1.25],"type":"SCALAR"},{"bufferView":37,"componentType":5126,"count":4,"max":[0.3826834261417389,0,0,1],"min":[0,0,0,0.9238795042037964],"type":"VEC4"},{"bufferView":38,"componentType":5126,"count":1,"max":[1.25],"min":[1.25],"type":"SCALAR"},{"bufferView":39,"componentType":5126,"count":1,"max":[0,0.32142746448516846,-0.06313592940568924],"min":[0,0.32142746448516846,-0.06313592940568924],"type":"VEC3"}]}