{"asset":{"version":"2.0","generator":"Blockbench 4.9.3 glTF exporter"},"scenes":[{"nodes":[12],"name":"blockbench_export"}],"scene":0,"nodes":[{"translation":[0.375,-0.6875,0],"name":"RightHand"},{"translation":[-0.45703125,0.7679687500000003,-0.0625],"name":"R","children":[0]},{"translation":[0,0.32142745579584253,-0.06313592764244175],"name":"hammer"},{"translation":[-0.00018310546875,0.2822265625,-0.3106689453125001],"name":"cylinder"},{"translation":[0.047607421875,0.247802734375,-0.1328125],"name":"mag"},{"translation":[0.08203125,0.328125,-0.244140625],"name":"bullet_shell"},{"translation":[0.08208810763888874,0.2382753485993293,-0.3095780285444788],"name":"bullet"},{"translation":[-0.08245849609375,0.08046875000000031,-0.0625],"name":"m1873","children":[2,3,4,5,6]},{"translation":[0.08203125,-0.1429687500000003,-0.0625],"name":"bone","children":[1,7]},{"translation":[-0.375,-0.6875,0],"name":"LeftHand"},{"translation":[0.375,0.625,-0.125],"name":"l","children":[9]},{"translation":[0.5,0.5625,0.625],"name":"bone2","children":[8,10]},{"children":[11]}],"animations":[{"name":"fire","samplers":[{"input":0,"output":1,"interpolation":"LINEAR"},{"input":2,"output":3,"interpolation":"LINEAR"},{"input":4,"output":5,"interpolation":"LINEAR"},{"input":6,"output":7,"interpolation":"LINEAR"},{"input":8,"output":9,"interpolation":"LINEAR"},{"input":10,"output":11,"interpolation":"LINEAR"},{"input":12,"output":13,"interpolation":"LINEAR"},{"input":14,"output":15,"interpolation":"LINEAR"},{"input":16,"output":17,"interpolation":"LINEAR"}],"channels":[{"sampler":0,"target":{"node":1,"path":"rotation"}},{"sampler":1,"target":{"node":1,"path":"translation"}},{"sampler":2,"target":{"node":1,"path":"scale"}},{"sampler":3,"target":{"node":10,"path":"rotation"}},{"sampler":4,"target":{"node":10,"path":"translation"}},{"sampler":5,"target":{"node":10,"path":"scale"}},{"sampler":6,"target":{"node":2,"path":"rotation"}},{"sampler":7,"target":{"node":3,"path":"rotation"}},{"sampler":8,"target":{"node":3,"path":"translation"}}]}],"bufferViews":[{"buffer":0,"byteOffset":0,"byteLength":4},{"buffer":0,"byteOffset":4,"byteLength":16},{"buffer":0,"byteOffset":20,"byteLength":4},{"buffer":0,"byteOffset":24,"byteLength":12},{"buffer":0,"byteOffset":36,"byteLength":4},{"buffer":0,"byteOffset":40,"byteLength":12},{"buffer":0,"byteOffset":52,"byteLength":72},{"buffer":0,"byteOffset":124,"byteLength":288},{"buffer":0,"byteOffset":412,"byteLength":72},{"buffer":0,"byteOffset":484,"byteLength":216},{"buffer":0,"byteOffset":700,"byteLength":4},{"buffer":0,"byteOffset":704,"byteLength":12},{"buffer":0,"byteOffset":716,"byteLength":16},{"buffer":0,"byteOffset":732,"byteLength":64},{"buffer":0,"byteOffset":796,"byteLength":20},{"buffer":0,"byteOffset":816,"byteLength":80},{"buffer":0,"byteOffset":896,"byteLength":4},{"buffer":0,"byteOffset":900,"byteLength":12}],"buffers":[{"byteLength":912,"uri":"data:application/octet-stream;base64,"}],"accessors":[{"bufferView":0,"componentType":5126,"count":1,"max":[0],"min":[0],"type":"SCALAR"},{"bufferView":1,"componentType":5126,"count":1,"max":[0.007871877402067184,-0.7252654433250427,0.6883431077003479,0.010575329884886742],"min":[0.007871877402067184,-0.7252654433250427,0.6883431077003479,0.010575329884886742],"type":"VEC4"},{"bufferView":2,"componentType":5126,"count":1,"max":[0],"min":[0],"type":"SCALAR"},{"bufferView":3,"componentType":5126,"count":1,"max":[-0.03890625014901161,0.08046875149011612,-0.015625],"min":[-0.03890625014901161,0.08046875149011612,-0.015625],"type":"VEC3"},{"bufferView":4,"componentType":5126,"count":1,"max":[0],"min":[0],"type":"SCALAR"},{"bufferView":5,"componentType":5126,"count":1,"max":[1.75,2,1.75],"min":[1.75,2,1.75],"type":"VEC3"},{"bufferView":6,"componentType":5126,"count":18,"max":[0.7916666865348816],"min":[0.0833333358168602],"type":"SCALAR"},{"bufferView":7,"componentType":5126,"count":18,"max":[0.0917467474937439,0.6865044236183167,-0.4586508870124817,0.5583848357200623],"min":[-0.3353551924228668,0.5754647254943848,-0.54884272813797,0.5249719023704529],"type":"VEC4"},{"bufferView":8,"componentType":5126,"count":18,"max":[0.75],"min":[0.0416666679084301],"type":"SCALAR"},{"bufferView":9,"componentType":5126,"count":18,"max":[-0.09749999642372131,0.25437501072883606,-0.011874999850988388],"min":[-0.16437500715255737,-0.17937499284744263,-0.13375000655651093],"type":"VEC3"},{"bufferView":10,"componentType":5126,"count":1,"max":[0],"min":[0],"type":"SCALAR"},{"bufferView":11,"componentType":5126,"count":1,"max":[1.75,2,1.75],"min":[1.75,2,1.75],"type":"VEC3"},{"bufferView":12,"componentType":5126,"count":4,"max":[0.4166666567325592],"min":[0.2916666567325592],"type":"SCALAR"},{"bufferView":13,"componentType":5126,"count":4,"max":[0.36243805289268494,0,0,1],"min":[0,0,0,0.9320078492164612],"type":"VEC4"},{"bufferView":14,"componentType":5126,"count":5,"max":[0.2083333283662796],"min":[0.0416666679084301],"type":"SCALAR"},{"bufferView":15,"componentType":5126,"count":5,"max":[0,0,0,1],"min":[0,0,-0.4809887707233429,0.8767267465591431],"type":"VEC4"},{"bufferView":16,"componentType":5126,"count":1,"max":[0.0416666679084301],"min":[0.0416666679084301],"type":"SCALAR"},{"bufferView":17,"componentType":5126,"count":1,"max":[-0.00018310546875,0.2822265625,-0.3106689453125],"min":[-0.00018310546875,0.2822265625,-0.3106689453125],"type":"VEC3"}]}