{"asset":{"version":"2.0","generator":"Blockbench 4.9.3 glTF exporter"},"scenes":[{"nodes":[12],"name":"blockbench_export"}],"scene":0,"nodes":[{"translation":[0.375,-0.6875,0],"name":"RightHand"},{"translation":[-0.45703125,0.7679687500000003,-0.0625],"name":"R","children":[0]},{"translation":[0,0.32142745579584253,-0.06313592764244175],"name":"hammer"},{"translation":[-0.00018310546875,0.2822265625,-0.3106689453125001],"name":"cylinder"},{"translation":[0.047607421875,0.247802734375,-0.1328125],"name":"mag"},{"translation":[0.08203125,0.328125,-0.244140625],"name":"bullet_shell"},{"translation":[0.08208810763888874,0.2382753485993293,-0.3095780285444788],"name":"bullet"},{"translation":[-0.08245849609375,0.08046875000000031,-0.0625],"name":"m1873","children":[2,3,4,5,6]},{"translation":[0.08203125,-0.1429687500000003,-0.0625],"name":"bone","children":[1,7]},{"translation":[-0.375,-0.6875,0],"name":"LeftHand"},{"translation":[0.375,0.625,-0.125],"name":"l","children":[9]},{"translation":[0.5,0.5625,0.625],"name":"bone2","children":[8,10]},{"children":[11]}],"animations":[{"name":"reload_loop","samplers":[{"input":0,"output":1,"interpolation":"LINEAR"},{"input":2,"output":3,"interpolation":"LINEAR"},{"input":4,"output":5,"interpolation":"LINEAR"},{"input":6,"output":7,"interpolation":"LINEAR"},{"input":8,"output":9,"interpolation":"LINEAR"},{"input":10,"output":11,"interpolation":"LINEAR"},{"input":12,"output":13,"interpolation":"LINEAR"},{"input":14,"output":15,"interpolation":"LINEAR"},{"input":16,"output":17,"interpolation":"LINEAR"},{"input":18,"output":19,"interpolation":"LINEAR"},{"input":20,"output":21,"interpolation":"LINEAR"},{"input":22,"output":23,"interpolation":"LINEAR"},{"input":24,"output":25,"interpolation":"LINEAR"},{"input":26,"output":27,"interpolation":"LINEAR"},{"input":28,"output":29,"interpolation":"LINEAR"},{"input":30,"output":31,"interpolation":"LINEAR"},{"input":32,"output":33,"interpolation":"LINEAR"},{"input":34,"output":35,"interpolation":"LINEAR"},{"input":36,"output":37,"interpolation":"LINEAR"},{"input":38,"output":39,"interpolation":"LINEAR"},{"input":40,"output":41,"interpolation":"LINEAR"}],"channels":[{"sampler":0,"target":{"node":1,"path":"rotation"}},{"sampler":1,"target":{"node":1,"path":"translation"}},{"sampler":2,"target":{"node":1,"path":"scale"}},{"sampler":3,"target":{"node":10,"path":"rotation"}},{"sampler":4,"target":{"node":10,"path":"translation"}},{"sampler":5,"target":{"node":10,"path":"scale"}},{"sampler":6,"target":{"node":11,"path":"rotation"}},{"sampler":7,"target":{"node":11,"path":"translation"}},{"sampler":8,"target":{"node":8,"path":"rotation"}},{"sampler":9,"target":{"node":8,"path":"translation"}},{"sampler":10,"target":{"node":7,"path":"rotation"}},{"sampler":11,"target":{"node":7,"path":"translation"}},{"sampler":12,"target":{"node":3,"path":"rotation"}},{"sampler":13,"target":{"node":4,"path":"rotation"}},{"sampler":14,"target":{"node":5,"path":"rotation"}},{"sampler":15,"target":{"node":5,"path":"translation"}},{"sampler":16,"target":{"node":5,"path":"scale"}},{"sampler":17,"target":{"node":6,"path":"rotation"}},{"sampler":18,"target":{"node":6,"path":"translation"}},{"sampler":19,"target":{"node":6,"path":"scale"}},{"sampler":20,"target":{"node":2,"path":"rotation"}}]}],"bufferViews":[{"buffer":0,"byteOffset":0,"byteLength":152},{"buffer":0,"byteOffset":152,"byteLength":608},{"buffer":0,"byteOffset":760,"byteLength":156},{"buffer":0,"byteOffset":916,"byteLength":468},{"buffer":0,"byteOffset":1384,"byteLength":4},{"buffer":0,"byteOffset":1388,"byteLength":12},{"buffer":0,"byteOffset":1400,"byteLength":120},{"buffer":0,"byteOffset":1520,"byteLength":480},{"buffer":0,"byteOffset":2000,"byteLength":120},{"buffer":0,"byteOffset":2120,"byteLength":360},{"buffer":0,"byteOffset":2480,"byteLength":4},{"buffer":0,"byteOffset":2484,"byteLength":12},{"buffer":0,"byteOffset":2496,"byteLength":152},{"buffer":0,"byteOffset":2648,"byteLength":608},{"buffer":0,"byteOffset":3256,"byteLength":156},{"buffer":0,"byteOffset":3412,"byteLength":468},{"buffer":0,"byteOffset":3880,"byteLength":4},{"buffer":0,"byteOffset":3884,"byteLength":16},{"buffer":0,"byteOffset":3900,"byteLength":4},{"buffer":0,"byteOffset":3904,"byteLength":12},{"buffer":0,"byteOffset":3916,"byteLength":168},{"buffer":0,"byteOffset":4084,"byteLength":672},{"buffer":0,"byteOffset":4756,"byteLength":12},{"buffer":0,"byteOffset":4768,"byteLength":36},{"buffer":0,"byteOffset":4804,"byteLength":12},{"buffer":0,"byteOffset":4816,"byteLength":48},{"buffer":0,"byteOffset":4864,"byteLength":4},{"buffer":0,"byteOffset":4868,"byteLength":16},{"buffer":0,"byteOffset":4884,"byteLength":28},{"buffer":0,"byteOffset":4912,"byteLength":112},{"buffer":0,"byteOffset":5024,"byteLength":28},{"buffer":0,"byteOffset":5052,"byteLength":84},{"buffer":0,"byteOffset":5136,"byteLength":16},{"buffer":0,"byteOffset":5152,"byteLength":48},{"buffer":0,"byteOffset":5200,"byteLength":44},{"buffer":0,"byteOffset":5244,"byteLength":176},{"buffer":0,"byteOffset":5420,"byteLength":40},{"buffer":0,"byteOffset":5460,"byteLength":120},{"buffer":0,"byteOffset":5580,"byteLength":16},{"buffer":0,"byteOffset":5596,"byteLength":48},{"buffer":0,"byteOffset":5644,"byteLength":4},{"buffer":0,"byteOffset":5648,"byteLength":16}],"buffers":[{"byteLength":5664,"uri":"data:application/octet-stream;base64,"}],"accessors":[{"bufferView":0,"componentType":5126,"count":38,"max":[2.25],"min":[0],"type":"SCALAR"},{"bufferView":1,"componentType":5126,"count":38,"max":[0.14834171533584595,-0.4378631114959717,0.8409203886985779,0.2944466173648834],"min":[-0.15500687062740326,-0.9044716954231262,0.41950052976608276,-0.10625356435775757],"type":"VEC4"},{"bufferView":2,"componentType":5126,"count":39,"max":[2.25],"min":[0],"type":"SCALAR"},{"bufferView":3,"componentType":5126,"count":39,"max":[0.326899915933609,0.36580076813697815,0.09043330699205399],"min":[0.16505993902683258,-0.8464222550392151,-0.7054982781410217],"type":"VEC3"},{"bufferView":4,"componentType":5126,"count":1,"max":[0],"min":[0],"type":"SCALAR"},{"bufferView":5,"componentType":5126,"count":1,"max":[1.75,2,1.75],"min":[1.75,2,1.75],"type":"VEC3"},{"bufferView":6,"componentType":5126,"count":30,"max":[2.25],"min":[0],"type":"SCALAR"},{"bufferView":7,"componentType":5126,"count":30,"max":[-0.10073389112949371,0.7425190210342407,-0.4487628638744354,0.4869600236415863],"min":[-0.10073389112949371,0.7425190210342407,-0.4487628638744354,0.4869600236415863],"type":"VEC4"},{"bufferView":8,"componentType":5126,"count":30,"max":[2.2083332538604736],"min":[0],"type":"SCALAR"},{"bufferView":9,"componentType":5126,"count":30,"max":[-0.5087500214576721,-0.07255859673023224,-0.0925000011920929],"min":[-0.5087500214576721,-0.07255859673023224,-0.0925000011920929],"type":"VEC3"},{"bufferView":10,"componentType":5126,"count":1,"max":[0],"min":[0],"type":"SCALAR"},{"bufferView":11,"componentType":5126,"count":1,"max":[1.75,2,1.75],"min":[1.75,2,1.75],"type":"VEC3"},{"bufferView":12,"componentType":5126,"count":38,"max":[2.25],"min":[0],"type":"SCALAR"},{"bufferView":13,"componentType":5126,"count":38,"max":[0.03887912258505821,0.05159506946802139,-0.008267268538475037,0.9994838237762451],"min":[-0.04094955325126648,-0.006847822573035955,-0.0576377734541893,0.9961972832679749],"type":"VEC4"},{"bufferView":14,"componentType":5126,"count":39,"max":[2.25],"min":[0],"type":"SCALAR"},{"bufferView":15,"componentType":5126,"count":39,"max":[0.5,0.6918749809265137,0.28244248032569885],"min":[0.5,0.6598047018051147,0.22245116531848907],"type":"VEC3"},{"bufferView":16,"componentType":5126,"count":1,"max":[2.25],"min":[2.25],"type":"SCALAR"},{"bufferView":17,"componentType":5126,"count":1,"max":[0.13365963101387024,-0.03175270929932594,0.21997815370559692,0.9657828211784363],"min":[0.13365963101387024,-0.03175270929932594,0.21997815370559692,0.9657828211784363],"type":"VEC4"},{"bufferView":18,"componentType":5126,"count":1,"max":[2.25],"min":[2.25],"type":"SCALAR"},{"bufferView":19,"componentType":5126,"count":1,"max":[-0.10609374940395355,-0.18859374523162842,0.11749999970197678],"min":[-0.10609374940395355,-0.18859374523162842,0.11749999970197678],"type":"VEC3"},{"bufferView":20,"componentType":5126,"count":42,"max":[2.25],"min":[0],"type":"SCALAR"},{"bufferView":21,"componentType":5126,"count":42,"max":[-0.004921918734908104,-0.13223274052143097,0.16843058168888092,0.9770210981369019],"min":[-0.006589858792722225,-0.1365562528371811,0.16370195150375366,0.9767818450927734],"type":"VEC4"},{"bufferView":22,"componentType":5126,"count":3,"max":[2.25],"min":[0],"type":"SCALAR"},{"bufferView":23,"componentType":5126,"count":3,"max":[-0.08245849609375,0.08046875149011612,-0.0625],"min":[-0.08245849609375,0.08046875149011612,-0.0625],"type":"VEC3"},{"bufferView":24,"componentType":5126,"count":3,"max":[2.25],"min":[1.8333333730697632],"type":"SCALAR"},{"bufferView":25,"componentType":5126,"count":3,"max":[0,0,0,1],"min":[0,0,-0.5131667852401733,0.8582888841629028],"type":"VEC4"},{"bufferView":26,"componentType":5126,"count":1,"max":[0.0833333358168602],"min":[0.0833333358168602],"type":"SCALAR"},{"bufferView":27,"componentType":5126,"count":1,"max":[0,0,-0.4617486000061035,0.8870108127593994],"min":[0,0,-0.4617486000061035,0.8870108127593994],"type":"VEC4"},{"bufferView":28,"componentType":5126,"count":7,"max":[2.25],"min":[0.0833333358168602],"type":"SCALAR"},{"bufferView":29,"componentType":5126,"count":7,"max":[0.7339269518852234,0,0.13052618503570557,1],"min":[0,-0.5529099106788635,-0.37363362312316895,-0.12678442895412445],"type":"VEC4"},{"bufferView":30,"componentType":5126,"count":7,"max":[2.25],"min":[0.0833333358168602],"type":"SCALAR"},{"bufferView":31,"componentType":5126,"count":7,"max":[0.08203125,0.35468751192092896,0.755859375],"min":[0.05078125,-0.109375,-0.244140625],"type":"VEC3"},{"bufferView":32,"componentType":5126,"count":4,"max":[1.9583333730697632],"min":[0.5833333134651184],"type":"SCALAR"},{"bufferView":33,"componentType":5126,"count":4,"max":[1,1,1],"min":[0,0,0],"type":"VEC3"},{"bufferView":34,"componentType":5126,"count":11,"max":[2.25],"min":[0.4166666567325592],"type":"SCALAR"},{"bufferView":35,"componentType":5126,"count":11,"max":[0.4528762400150299,0.1730472296476364,0.16409651935100555,1],"min":[-0.07315042614936829,0,-0.3867109715938568,0.8699671626091003],"type":"VEC4"},{"bufferView":36,"componentType":5126,"count":10,"max":[2.25],"min":[0.4166666567325592],"type":"SCALAR"},{"bufferView":37,"componentType":5126,"count":10,"max":[0.11576152592897415,0.3264003396034241,-0.021988965570926666],"min":[-0.0004904207889921963,-0.740648090839386,-0.3095780313014984],"type":"VEC3"},{"bufferView":38,"componentType":5126,"count":4,"max":[2.0833332538604736],"min":[0.625],"type":"SCALAR"},{"bufferView":39,"componentType":5126,"count":4,"max":[1,1,1],"min":[0,0,0],"type":"VEC3"},{"bufferView":40,"componentType":5126,"count":1,"max":[0],"min":[0],"type":"SCALAR"},{"bufferView":41,"componentType":5126,"count":1,"max":[0.36243805289268494,0,0,0.9320078492164612],"min":[0.36243805289268494,0,0,0.9320078492164612],"type":"VEC4"}]}