{"asset":{"version":"2.0","generator":"Blockbench 4.9.3 glTF exporter"},"scenes":[{"nodes":[12],"name":"blockbench_export"}],"scene":0,"nodes":[{"translation":[0.375,-0.6875,0],"name":"RightHand"},{"translation":[-0.45703125,0.7679687500000003,-0.0625],"name":"R","children":[0]},{"translation":[0,0.32142745579584253,-0.06313592764244175],"name":"hammer"},{"translation":[-0.00018310546875,0.2822265625,-0.3106689453125001],"name":"cylinder"},{"translation":[0.047607421875,0.247802734375,-0.1328125],"name":"mag"},{"translation":[0.08203125,0.328125,-0.244140625],"name":"bullet_shell"},{"translation":[0.08208810763888874,0.2382753485993293,-0.3095780285444788],"name":"bullet"},{"translation":[-0.08245849609375,0.08046875000000031,-0.0625],"name":"m1873","children":[2,3,4,5,6]},{"translation":[0.08203125,-0.1429687500000003,-0.0625],"name":"bone","children":[1,7]},{"translation":[-0.375,-0.6875,0],"name":"LeftHand"},{"translation":[0.375,0.625,-0.125],"name":"l","children":[9]},{"translation":[0.5,0.5625,0.625],"name":"bone2","children":[8,10]},{"children":[11]}],"animations":[{"name":"reload_loop","samplers":[{"input":0,"output":1,"interpolation":"LINEAR"},{"input":2,"output":3,"interpolation":"LINEAR"},{"input":4,"output":5,"interpolation":"LINEAR"},{"input":6,"output":7,"interpolation":"LINEAR"},{"input":8,"output":9,"interpolation":"LINEAR"},{"input":10,"output":11,"interpolation":"LINEAR"},{"input":12,"output":13,"interpolation":"LINEAR"},{"input":14,"output":15,"interpolation":"LINEAR"},{"input":16,"output":17,"interpolation":"LINEAR"},{"input":18,"output":19,"interpolation":"LINEAR"},{"input":20,"output":21,"interpolation":"LINEAR"},{"input":22,"output":23,"interpolation":"LINEAR"},{"input":24,"output":25,"interpolation":"LINEAR"},{"input":26,"output":27,"interpolation":"LINEAR"},{"input":28,"output":29,"interpolation":"LINEAR"},{"input":30,"output":31,"interpolation":"LINEAR"},{"input":32,"output":33,"interpolation":"LINEAR"},{"input":34,"output":35,"interpolation":"LINEAR"},{"input":36,"output":37,"interpolation":"LINEAR"},{"input":38,"output":39,"interpolation":"LINEAR"}],"channels":[{"sampler":0,"target":{"node":1,"path":"rotation"}},{"sampler":1,"target":{"node":1,"path":"translation"}},{"sampler":2,"target":{"node":1,"path":"scale"}},{"sampler":3,"target":{"node":10,"path":"rotation"}},{"sampler":4,"target":{"node":10,"path":"translation"}},{"sampler":5,"target":{"node":10,"path":"scale"}},{"sampler":6,"target":{"node":11,"path":"rotation"}},{"sampler":7,"target":{"node":11,"path":"translation"}},{"sampler":8,"target":{"node":8,"path":"rotation"}},{"sampler":9,"target":{"node":8,"path":"translation"}},{"sampler":10,"target":{"node":7,"path":"rotation"}},{"sampler":11,"target":{"node":7,"path":"translation"}},{"sampler":12,"target":{"node":3,"path":"rotation"}},{"sampler":13,"target":{"node":4,"path":"rotation"}},{"sampler":14,"target":{"node":5,"path":"rotation"}},{"sampler":15,"target":{"node":5,"path":"translation"}},{"sampler":16,"target":{"node":5,"path":"scale"}},{"sampler":17,"target":{"node":6,"path":"rotation"}},{"sampler":18,"target":{"node":6,"path":"translation"}},{"sampler":19,"target":{"node":6,"path":"scale"}}]}],"bufferViews":[{"buffer":0,"byteOffset":0,"byteLength":212},{"buffer":0,"byteOffset":212,"byteLength":848},{"buffer":0,"byteOffset":1060,"byteLength":212},{"buffer":0,"byteOffset":1272,"byteLength":636},{"buffer":0,"byteOffset":1908,"byteLength":4},{"buffer":0,"byteOffset":1912,"byteLength":12},{"buffer":0,"byteOffset":1924,"byteLength":208},{"buffer":0,"byteOffset":2132,"byteLength":832},{"buffer":0,"byteOffset":2964,"byteLength":208},{"buffer":0,"byteOffset":3172,"byteLength":624},{"buffer":0,"byteOffset":3796,"byteLength":4},{"buffer":0,"byteOffset":3800,"byteLength":12},{"buffer":0,"byteOffset":3812,"byteLength":212},{"buffer":0,"byteOffset":4024,"byteLength":848},{"buffer":0,"byteOffset":4872,"byteLength":212},{"buffer":0,"byteOffset":5084,"byteLength":636},{"buffer":0,"byteOffset":5720,"byteLength":4},{"buffer":0,"byteOffset":5724,"byteLength":16},{"buffer":0,"byteOffset":5740,"byteLength":4},{"buffer":0,"byteOffset":5744,"byteLength":12},{"buffer":0,"byteOffset":5756,"byteLength":212},{"buffer":0,"byteOffset":5968,"byteLength":848},{"buffer":0,"byteOffset":6816,"byteLength":212},{"buffer":0,"byteOffset":7028,"byteLength":636},{"buffer":0,"byteOffset":7664,"byteLength":44},{"buffer":0,"byteOffset":7708,"byteLength":176},{"buffer":0,"byteOffset":7884,"byteLength":4},{"buffer":0,"byteOffset":7888,"byteLength":16},{"buffer":0,"byteOffset":7904,"byteLength":212},{"buffer":0,"byteOffset":8116,"byteLength":848},{"buffer":0,"byteOffset":8964,"byteLength":212},{"buffer":0,"byteOffset":9176,"byteLength":636},{"buffer":0,"byteOffset":9812,"byteLength":144},{"buffer":0,"byteOffset":9956,"byteLength":432},{"buffer":0,"byteOffset":10388,"byteLength":180},{"buffer":0,"byteOffset":10568,"byteLength":720},{"buffer":0,"byteOffset":11288,"byteLength":180},{"buffer":0,"byteOffset":11468,"byteLength":540},{"buffer":0,"byteOffset":12008,"byteLength":80},{"buffer":0,"byteOffset":12088,"byteLength":240}],"buffers":[{"byteLength":12328,"uri":"data:application/octet-stream;base64,"}],"accessors":[{"bufferView":0,"componentType":5126,"count":53,"max":[2.25],"min":[0.0833333358168602],"type":"SCALAR"},{"bufferView":1,"componentType":5126,"count":53,"max":[0.14836308360099792,-0.43789076805114746,0.840916633605957,0.2947830855846405],"min":[-0.15496468544006348,-0.9044834971427917,0.41948094964027405,-0.10620623826980591],"type":"VEC4"},{"bufferView":2,"componentType":5126,"count":53,"max":[2.25],"min":[0.0833333358168602],"type":"SCALAR"},{"bufferView":3,"componentType":5126,"count":53,"max":[0.3267187476158142,0.3660937547683716,0.09062500298023224],"min":[0.16484375298023224,-0.8464062213897705,-0.7056249976158142],"type":"VEC3"},{"bufferView":4,"componentType":5126,"count":1,"max":[0],"min":[0],"type":"SCALAR"},{"bufferView":5,"componentType":5126,"count":1,"max":[1.75,2,1.75],"min":[1.75,2,1.75],"type":"VEC3"},{"bufferView":6,"componentType":5126,"count":52,"max":[2.25],"min":[0.125],"type":"SCALAR"},{"bufferView":7,"componentType":5126,"count":52,"max":[-0.10074610263109207,0.7425330281257629,-0.44876590371131897,0.48693332076072693],"min":[-0.10074610263109207,0.7425330281257629,-0.44876590371131897,0.48693332076072693],"type":"VEC4"},{"bufferView":8,"componentType":5126,"count":52,"max":[2.2083332538604736],"min":[0.0833333358168602],"type":"SCALAR"},{"bufferView":9,"componentType":5126,"count":52,"max":[-0.5087500214576721,-0.07249999791383743,-0.0925000011920929],"min":[-0.5087500214576721,-0.07249999791383743,-0.0925000011920929],"type":"VEC3"},{"bufferView":10,"componentType":5126,"count":1,"max":[0],"min":[0],"type":"SCALAR"},{"bufferView":11,"componentType":5126,"count":1,"max":[1.75,2,1.75],"min":[1.75,2,1.75],"type":"VEC3"},{"bufferView":12,"componentType":5126,"count":53,"max":[2.25],"min":[0.0833333358168602],"type":"SCALAR"},{"bufferView":13,"componentType":5126,"count":53,"max":[0.03885462135076523,0.05156155675649643,-0.008307607844471931,0.9994850158691406],"min":[-0.0409431979060173,-0.006842988543212414,-0.057671044021844864,0.996195912361145],"type":"VEC4"},{"bufferView":14,"componentType":5126,"count":53,"max":[2.25],"min":[0.0833333358168602],"type":"SCALAR"},{"bufferView":15,"componentType":5126,"count":53,"max":[0.5,0.6918749809265137,0.2824999988079071],"min":[0.5,0.6600000262260437,0.2224999964237213],"type":"VEC3"},{"bufferView":16,"componentType":5126,"count":1,"max":[2.25],"min":[2.25],"type":"SCALAR"},{"bufferView":17,"componentType":5126,"count":1,"max":[0.13365963101387024,-0.03175270929932594,0.21997815370559692,0.9657828211784363],"min":[0.13365963101387024,-0.03175270929932594,0.21997815370559692,0.9657828211784363],"type":"VEC4"},{"bufferView":18,"componentType":5126,"count":1,"max":[2.25],"min":[2.25],"type":"SCALAR"},{"bufferView":19,"componentType":5126,"count":1,"max":[-0.10609374940395355,-0.18859374523162842,0.11749999970197678],"min":[-0.10609374940395355,-0.18859374523162842,0.11749999970197678],"type":"VEC3"},{"bufferView":20,"componentType":5126,"count":53,"max":[2.25],"min":[0.0833333358168602],"type":"SCALAR"},{"bufferView":21,"componentType":5126,"count":53,"max":[-0.004921918734908104,-0.13223274052143097,0.16843058168888092,0.9770267605781555],"min":[-0.006551988422870636,-0.1365562528371811,0.16370195150375366,0.9767818450927734],"type":"VEC4"},{"bufferView":22,"componentType":5126,"count":53,"max":[2.25],"min":[0.0833333358168602],"type":"SCALAR"},{"bufferView":23,"componentType":5126,"count":53,"max":[-0.08245849609375,0.08046875149011612,-0.0625],"min":[-0.08245849609375,0.08046875149011612,-0.0625],"type":"VEC3"},{"bufferView":24,"componentType":5126,"count":11,"max":[2.25],"min":[1.8333333730697632],"type":"SCALAR"},{"bufferView":25,"componentType":5126,"count":11,"max":[0,0,0,1],"min":[0,0,-0.5131667852401733,0.8582888841629028],"type":"VEC4"},{"bufferView":26,"componentType":5126,"count":1,"max":[0.0833333358168602],"min":[0.0833333358168602],"type":"SCALAR"},{"bufferView":27,"componentType":5126,"count":1,"max":[0,0,-0.4617486000061035,0.8870108127593994],"min":[0,0,-0.4617486000061035,0.8870108127593994],"type":"VEC4"},{"bufferView":28,"componentType":5126,"count":53,"max":[2.25],"min":[0.0833333358168602],"type":"SCALAR"},{"bufferView":29,"componentType":5126,"count":53,"max":[0.7947422862052917,0.031008930876851082,0,1],"min":[0,-0.5528841018676758,-0.4497331380844116,-0.12676088511943817],"type":"VEC4"},{"bufferView":30,"componentType":5126,"count":53,"max":[2.25],"min":[0.0833333358168602],"type":"SCALAR"},{"bufferView":31,"componentType":5126,"count":53,"max":[0.08203125,0.328125,0.755859375],"min":[0.08203125,-0.109375,-0.244140625],"type":"VEC3"},{"bufferView":32,"componentType":5126,"count":36,"max":[2.0416667461395264],"min":[0.5833333134651184],"type":"SCALAR"},{"bufferView":33,"componentType":5126,"count":36,"max":[1,1,1],"min":[0,0,0],"type":"VEC3"},{"bufferView":34,"componentType":5126,"count":45,"max":[2.25],"min":[0.4166666567325592],"type":"SCALAR"},{"bufferView":35,"componentType":5126,"count":45,"max":[0.45287230610847473,0.17304082214832306,0.16409683227539062,1],"min":[-0.07317856699228287,0,0,0.8699723482131958],"type":"VEC4"},{"bufferView":36,"componentType":5126,"count":45,"max":[2.25],"min":[0.4166666567325592],"type":"SCALAR"},{"bufferView":37,"componentType":5126,"count":45,"max":[0.11583811044692993,0.3157753348350525,-0.022078027948737144],"min":[-0.00041189236799255013,-0.7404746413230896,-0.3095780313014984],"type":"VEC3"},{"bufferView":38,"componentType":5126,"count":20,"max":[1.4166666269302368],"min":[0.625],"type":"SCALAR"},{"bufferView":39,"componentType":5126,"count":20,"max":[1,1,1],"min":[0,0,0],"type":"VEC3"}]}