{"asset":{"version":"2.0","generator":"Blockbench 4.9.3 glTF exporter"},"scenes":[{"nodes":[12],"name":"blockbench_export"}],"scene":0,"nodes":[{"translation":[0.375,-0.6875,0],"name":"RightHand"},{"translation":[-0.45703125,0.7679687500000003,-0.0625],"name":"R","children":[0]},{"translation":[0,0.32142745579584253,-0.06313592764244175],"name":"hammer"},{"translation":[-0.00018310546875,0.2822265625,-0.3106689453125001],"name":"cylinder"},{"translation":[0.047607421875,0.247802734375,-0.1328125],"name":"mag"},{"translation":[0.08203125,0.328125,-0.244140625],"name":"bullet_shell"},{"translation":[0.08208810763888874,0.2382753485993293,-0.3095780285444788],"name":"bullet"},{"translation":[-0.08245849609375,0.08046875000000031,-0.0625],"name":"m1873","children":[2,3,4,5,6]},{"translation":[0.08203125,-0.1429687500000003,-0.0625],"name":"bone","children":[1,7]},{"translation":[-0.375,-0.6875,0],"name":"LeftHand"},{"translation":[0.375,0.625,-0.125],"name":"l","children":[9]},{"translation":[0.5,0.5625,0.625],"name":"bone2","children":[8,10]},{"children":[11]}],"animations":[{"name":"reload_outro","samplers":[{"input":0,"output":1,"interpolation":"LINEAR"},{"input":2,"output":3,"interpolation":"LINEAR"},{"input":4,"output":5,"interpolation":"LINEAR"},{"input":6,"output":7,"interpolation":"LINEAR"},{"input":8,"output":9,"interpolation":"LINEAR"},{"input":10,"output":11,"interpolation":"LINEAR"},{"input":12,"output":13,"interpolation":"LINEAR"},{"input":14,"output":15,"interpolation":"LINEAR"},{"input":16,"output":17,"interpolation":"LINEAR"},{"input":18,"output":19,"interpolation":"LINEAR"},{"input":20,"output":21,"interpolation":"LINEAR"},{"input":22,"output":23,"interpolation":"LINEAR"},{"input":24,"output":25,"interpolation":"LINEAR"},{"input":26,"output":27,"interpolation":"LINEAR"},{"input":28,"output":29,"interpolation":"LINEAR"},{"input":30,"output":31,"interpolation":"LINEAR"},{"input":32,"output":33,"interpolation":"LINEAR"},{"input":34,"output":35,"interpolation":"LINEAR"},{"input":36,"output":37,"interpolation":"LINEAR"}],"channels":[{"sampler":0,"target":{"node":1,"path":"rotation"}},{"sampler":1,"target":{"node":1,"path":"translation"}},{"sampler":2,"target":{"node":1,"path":"scale"}},{"sampler":3,"target":{"node":10,"path":"rotation"}},{"sampler":4,"target":{"node":10,"path":"translation"}},{"sampler":5,"target":{"node":10,"path":"scale"}},{"sampler":6,"target":{"node":11,"path":"rotation"}},{"sampler":7,"target":{"node":11,"path":"translation"}},{"sampler":8,"target":{"node":8,"path":"rotation"}},{"sampler":9,"target":{"node":8,"path":"translation"}},{"sampler":10,"target":{"node":7,"path":"rotation"}},{"sampler":11,"target":{"node":7,"path":"translation"}},{"sampler":12,"target":{"node":3,"path":"rotation"}},{"sampler":13,"target":{"node":4,"path":"rotation"}},{"sampler":14,"target":{"node":5,"path":"rotation"}},{"sampler":15,"target":{"node":5,"path":"translation"}},{"sampler":16,"target":{"node":6,"path":"rotation"}},{"sampler":17,"target":{"node":6,"path":"translation"}},{"sampler":18,"target":{"node":2,"path":"rotation"}}]}],"bufferViews":[{"buffer":0,"byteOffset":0,"byteLength":68},{"buffer":0,"byteOffset":68,"byteLength":272},{"buffer":0,"byteOffset":340,"byteLength":68},{"buffer":0,"byteOffset":408,"byteLength":204},{"buffer":0,"byteOffset":612,"byteLength":4},{"buffer":0,"byteOffset":616,"byteLength":12},{"buffer":0,"byteOffset":628,"byteLength":128},{"buffer":0,"byteOffset":756,"byteLength":512},{"buffer":0,"byteOffset":1268,"byteLength":132},{"buffer":0,"byteOffset":1400,"byteLength":396},{"buffer":0,"byteOffset":1796,"byteLength":4},{"buffer":0,"byteOffset":1800,"byteLength":12},{"buffer":0,"byteOffset":1812,"byteLength":156},{"buffer":0,"byteOffset":1968,"byteLength":624},{"buffer":0,"byteOffset":2592,"byteLength":148},{"buffer":0,"byteOffset":2740,"byteLength":444},{"buffer":0,"byteOffset":3184,"byteLength":140},{"buffer":0,"byteOffset":3324,"byteLength":560},{"buffer":0,"byteOffset":3884,"byteLength":104},{"buffer":0,"byteOffset":3988,"byteLength":312},{"buffer":0,"byteOffset":4300,"byteLength":68},{"buffer":0,"byteOffset":4368,"byteLength":272},{"buffer":0,"byteOffset":4640,"byteLength":16},{"buffer":0,"byteOffset":4656,"byteLength":48},{"buffer":0,"byteOffset":4704,"byteLength":4},{"buffer":0,"byteOffset":4708,"byteLength":16},{"buffer":0,"byteOffset":4724,"byteLength":8},{"buffer":0,"byteOffset":4732,"byteLength":32},{"buffer":0,"byteOffset":4764,"byteLength":4},{"buffer":0,"byteOffset":4768,"byteLength":16},{"buffer":0,"byteOffset":4784,"byteLength":4},{"buffer":0,"byteOffset":4788,"byteLength":12},{"buffer":0,"byteOffset":4800,"byteLength":4},{"buffer":0,"byteOffset":4804,"byteLength":16},{"buffer":0,"byteOffset":4820,"byteLength":4},{"buffer":0,"byteOffset":4824,"byteLength":12},{"buffer":0,"byteOffset":4836,"byteLength":4},{"buffer":0,"byteOffset":4840,"byteLength":16}],"buffers":[{"byteLength":4856,"uri":"data:application/octet-stream;base64,"}],"accessors":[{"bufferView":0,"componentType":5126,"count":17,"max":[1],"min":[0],"type":"SCALAR"},{"bufferView":1,"componentType":5126,"count":17,"max":[0.007880829274654388,-0.7252629399299622,0.6883448958396912,0.2804465889930725],"min":[-0.1429385095834732,-0.8025043606758118,0.5498316884040833,0.010624310933053493],"type":"VEC4"},{"bufferView":2,"componentType":5126,"count":17,"max":[0.9583333134651184],"min":[0],"type":"SCALAR"},{"bufferView":3,"componentType":5126,"count":17,"max":[0.212884321808815,0.33274176716804504,-0.015625],"min":[-0.0390625,0.08046875149011612,-0.7054982781410217],"type":"VEC3"},{"bufferView":4,"componentType":5126,"count":1,"max":[0],"min":[0],"type":"SCALAR"},{"bufferView":5,"componentType":5126,"count":1,"max":[1.75,2,1.75],"min":[1.75,2,1.75],"type":"VEC3"},{"bufferView":6,"componentType":5126,"count":32,"max":[1.9166666269302368],"min":[0],"type":"SCALAR"},{"bufferView":7,"componentType":5126,"count":32,"max":[0.11498232185840607,0.9081980586051941,-0.34059980511665344,0.5576005578041077],"min":[-0.3353835642337799,0.575456976890564,-0.5073434114456177,0.14196237921714783],"type":"VEC4"},{"bufferView":8,"componentType":5126,"count":33,"max":[1.875],"min":[0],"type":"SCALAR"},{"bufferView":9,"componentType":5126,"count":33,"max":[-0.09765625,0.10226854681968689,0.1612675040960312],"min":[-0.5559061169624329,-0.1796875,-0.09562499821186066],"type":"VEC3"},{"bufferView":10,"componentType":5126,"count":1,"max":[0],"min":[0],"type":"SCALAR"},{"bufferView":11,"componentType":5126,"count":1,"max":[1.75,2,1.75],"min":[1.75,2,1.75],"type":"VEC3"},{"bufferView":12,"componentType":5126,"count":39,"max":[2.1666667461395264],"min":[0],"type":"SCALAR"},{"bufferView":13,"componentType":5126,"count":39,"max":[0.03864626586437225,0.012129601091146469,0.031163835898041725,1],"min":[-0.05442708358168602,-0.0017318564932793379,-0.07036235928535461,0.9966951608657837],"type":"VEC4"},{"bufferView":14,"componentType":5126,"count":37,"max":[2.125],"min":[0],"type":"SCALAR"},{"bufferView":15,"componentType":5126,"count":37,"max":[0.5,0.6995508670806885,0.7078118920326233],"min":[0.5,0.5538619756698608,0.2234548181295395],"type":"VEC3"},{"bufferView":16,"componentType":5126,"count":35,"max":[1.9166666269302368],"min":[0],"type":"SCALAR"},{"bufferView":17,"componentType":5126,"count":35,"max":[0.13365963101387024,0,0.21997815370559692,1],"min":[0,-0.03175270929932594,0,0.9657828211784363],"type":"VEC4"},{"bufferView":18,"componentType":5126,"count":26,"max":[1.875],"min":[0],"type":"SCALAR"},{"bufferView":19,"componentType":5126,"count":26,"max":[0.08203125,-0.14296874403953552,0.11749999970197678],"min":[-0.10609374940395355,-0.18859374523162842,-0.0625],"type":"VEC3"},{"bufferView":20,"componentType":5126,"count":17,"max":[1],"min":[0],"type":"SCALAR"},{"bufferView":21,"componentType":5126,"count":17,"max":[0,0,0.16869771480560303,1],"min":[-0.009233349934220314,-0.13223274052143097,0,0.9767503142356873],"type":"VEC4"},{"bufferView":22,"componentType":5126,"count":4,"max":[0.9583333134651184],"min":[0],"type":"SCALAR"},{"bufferView":23,"componentType":5126,"count":4,"max":[-0.08245849609375,0.08046875149011612,-0.0625],"min":[-0.08245849609375,0.08046875149011612,-0.0625],"type":"VEC3"},{"bufferView":24,"componentType":5126,"count":1,"max":[0.0416666679084301],"min":[0.0416666679084301],"type":"SCALAR"},{"bufferView":25,"componentType":5126,"count":1,"max":[0,0,-0.5131667852401733,0.8582888841629028],"min":[0,0,-0.5131667852401733,0.8582888841629028],"type":"VEC4"},{"bufferView":26,"componentType":5126,"count":2,"max":[0.5833333134651184],"min":[0.4166666567325592],"type":"SCALAR"},{"bufferView":27,"componentType":5126,"count":2,"max":[0,0,0,1],"min":[0,0,-0.4617486000061035,0.8870108127593994],"type":"VEC4"},{"bufferView":28,"componentType":5126,"count":1,"max":[0.0416666679084301],"min":[0.0416666679084301],"type":"SCALAR"},{"bufferView":29,"componentType":5126,"count":1,"max":[0,0,0,1],"min":[0,0,0,1],"type":"VEC4"},{"bufferView":30,"componentType":5126,"count":1,"max":[0.0416666679084301],"min":[0.0416666679084301],"type":"SCALAR"},{"bufferView":31,"componentType":5126,"count":1,"max":[0.08203125,0.328125,-0.244140625],"min":[0.08203125,0.328125,-0.244140625],"type":"VEC3"},{"bufferView":32,"componentType":5126,"count":1,"max":[0.0416666679084301],"min":[0.0416666679084301],"type":"SCALAR"},{"bufferView":33,"componentType":5126,"count":1,"max":[0,0,0,1],"min":[0,0,0,1],"type":"VEC4"},{"bufferView":34,"componentType":5126,"count":1,"max":[0.0416666679084301],"min":[0.0416666679084301],"type":"SCALAR"},{"bufferView":35,"componentType":5126,"count":1,"max":[0.08271310478448868,0.2595253586769104,-0.3083280324935913],"min":[0.08271310478448868,0.2595253586769104,-0.3083280324935913],"type":"VEC3"},{"bufferView":36,"componentType":5126,"count":1,"max":[0.0416666679084301],"min":[0.0416666679084301],"type":"SCALAR"},{"bufferView":37,"componentType":5126,"count":1,"max":[0.36243805289268494,0,0,0.9320078492164612],"min":[0.36243805289268494,0,0,0.9320078492164612],"type":"VEC4"}]}