{"asset":{"version":"2.0","generator":"Blockbench 4.9.3 glTF exporter"},"scenes":[{"nodes":[12],"name":"blockbench_export"}],"scene":0,"nodes":[{"translation":[0.375,-0.6875,0],"name":"RightHand"},{"translation":[-0.45703125,0.7679687500000003,-0.0625],"name":"R","children":[0]},{"translation":[0,0.32142745579584253,-0.06313592764244175],"name":"hammer"},{"translation":[-0.00018310546875,0.2822265625,-0.3106689453125001],"name":"cylinder"},{"translation":[0.047607421875,0.247802734375,-0.1328125],"name":"mag"},{"translation":[0.08203125,0.328125,-0.244140625],"name":"bullet_shell"},{"translation":[0.08208810763888874,0.2382753485993293,-0.3095780285444788],"name":"bullet"},{"translation":[-0.08245849609375,0.08046875000000031,-0.0625],"name":"m1873","children":[2,3,4,5,6]},{"translation":[0.08203125,-0.1429687500000003,-0.0625],"name":"bone","children":[1,7]},{"translation":[-0.375,-0.6875,0],"name":"LeftHand"},{"translation":[0.375,0.625,-0.125],"name":"l","children":[9]},{"translation":[0.5,0.5625,0.625],"name":"bone2","children":[8,10]},{"children":[11]}],"animations":[{"name":"draw","samplers":[{"input":0,"output":1,"interpolation":"LINEAR"},{"input":2,"output":3,"interpolation":"LINEAR"},{"input":4,"output":5,"interpolation":"LINEAR"},{"input":6,"output":7,"interpolation":"LINEAR"},{"input":8,"output":9,"interpolation":"LINEAR"},{"input":10,"output":11,"interpolation":"LINEAR"},{"input":12,"output":13,"interpolation":"LINEAR"},{"input":14,"output":15,"interpolation":"LINEAR"},{"input":16,"output":17,"interpolation":"LINEAR"},{"input":18,"output":19,"interpolation":"LINEAR"},{"input":20,"output":21,"interpolation":"LINEAR"},{"input":22,"output":23,"interpolation":"LINEAR"},{"input":24,"output":25,"interpolation":"LINEAR"}],"channels":[{"sampler":0,"target":{"node":1,"path":"rotation"}},{"sampler":1,"target":{"node":1,"path":"translation"}},{"sampler":2,"target":{"node":1,"path":"scale"}},{"sampler":3,"target":{"node":10,"path":"rotation"}},{"sampler":4,"target":{"node":10,"path":"translation"}},{"sampler":5,"target":{"node":10,"path":"scale"}},{"sampler":6,"target":{"node":7,"path":"rotation"}},{"sampler":7,"target":{"node":7,"path":"translation"}},{"sampler":8,"target":{"node":2,"path":"rotation"}},{"sampler":9,"target":{"node":11,"path":"rotation"}},{"sampler":10,"target":{"node":11,"path":"translation"}},{"sampler":11,"target":{"node":8,"path":"rotation"}},{"sampler":12,"target":{"node":8,"path":"translation"}}]}],"bufferViews":[{"buffer":0,"byteOffset":0,"byteLength":4},{"buffer":0,"byteOffset":4,"byteLength":16},{"buffer":0,"byteOffset":20,"byteLength":4},{"buffer":0,"byteOffset":24,"byteLength":12},{"buffer":0,"byteOffset":36,"byteLength":4},{"buffer":0,"byteOffset":40,"byteLength":12},{"buffer":0,"byteOffset":52,"byteLength":112},{"buffer":0,"byteOffset":164,"byteLength":448},{"buffer":0,"byteOffset":612,"byteLength":108},{"buffer":0,"byteOffset":720,"byteLength":324},{"buffer":0,"byteOffset":1044,"byteLength":4},{"buffer":0,"byteOffset":1048,"byteLength":12},{"buffer":0,"byteOffset":1060,"byteLength":4},{"buffer":0,"byteOffset":1064,"byteLength":16},{"buffer":0,"byteOffset":1080,"byteLength":4},{"buffer":0,"byteOffset":1084,"byteLength":12},{"buffer":0,"byteOffset":1096,"byteLength":8},{"buffer":0,"byteOffset":1104,"byteLength":32},{"buffer":0,"byteOffset":1136,"byteLength":96},{"buffer":0,"byteOffset":1232,"byteLength":384},{"buffer":0,"byteOffset":1616,"byteLength":96},{"buffer":0,"byteOffset":1712,"byteLength":288},{"buffer":0,"byteOffset":2000,"byteLength":104},{"buffer":0,"byteOffset":2104,"byteLength":416},{"buffer":0,"byteOffset":2520,"byteLength":104},{"buffer":0,"byteOffset":2624,"byteLength":312}],"buffers":[{"byteLength":2936,"uri":"data:application/octet-stream;base64,"}],"accessors":[{"bufferView":0,"componentType":5126,"count":1,"max":[0],"min":[0],"type":"SCALAR"},{"bufferView":1,"componentType":5126,"count":1,"max":[0.007871877402067184,-0.7252654433250427,0.6883431077003479,0.010575329884886742],"min":[0.007871877402067184,-0.7252654433250427,0.6883431077003479,0.010575329884886742],"type":"VEC4"},{"bufferView":2,"componentType":5126,"count":1,"max":[0],"min":[0],"type":"SCALAR"},{"bufferView":3,"componentType":5126,"count":1,"max":[-0.03890625014901161,0.08046875149011612,-0.015625],"min":[-0.03890625014901161,0.08046875149011612,-0.015625],"type":"VEC3"},{"bufferView":4,"componentType":5126,"count":1,"max":[0],"min":[0],"type":"SCALAR"},{"bufferView":5,"componentType":5126,"count":1,"max":[1.75,2,1.75],"min":[1.75,2,1.75],"type":"VEC3"},{"bufferView":6,"componentType":5126,"count":28,"max":[1.125],"min":[0],"type":"SCALAR"},{"bufferView":7,"componentType":5126,"count":28,"max":[-0.21748965978622437,0.5764158368110657,-0.49540767073631287,0.5576275587081909],"min":[-0.3368723392486572,0.5434839725494385,-0.7546396255493164,0.2723098397254944],"type":"VEC4"},{"bufferView":8,"componentType":5126,"count":27,"max":[1.0833333730697632],"min":[0],"type":"SCALAR"},{"bufferView":9,"componentType":5126,"count":27,"max":[-0.06437499821186066,-0.14499999582767487,0.016249999403953552],"min":[-1.534999966621399,-1.2418750524520874,-0.25187501311302185],"type":"VEC3"},{"bufferView":10,"componentType":5126,"count":1,"max":[0],"min":[0],"type":"SCALAR"},{"bufferView":11,"componentType":5126,"count":1,"max":[1.75,2,1.75],"min":[1.75,2,1.75],"type":"VEC3"},{"bufferView":12,"componentType":5126,"count":1,"max":[0],"min":[0],"type":"SCALAR"},{"bufferView":13,"componentType":5126,"count":1,"max":[0,0,0,1],"min":[0,0,0,1],"type":"VEC4"},{"bufferView":14,"componentType":5126,"count":1,"max":[0],"min":[0],"type":"SCALAR"},{"bufferView":15,"componentType":5126,"count":1,"max":[-0.08245849609375,0.08046875149011612,-0.0625],"min":[-0.08245849609375,0.08046875149011612,-0.0625],"type":"VEC3"},{"bufferView":16,"componentType":5126,"count":2,"max":[0.0416666679084301],"min":[0],"type":"SCALAR"},{"bufferView":17,"componentType":5126,"count":2,"max":[0.36243805289268494,0,0,1],"min":[0,0,0,0.9320078492164612],"type":"VEC4"},{"bufferView":18,"componentType":5126,"count":24,"max":[1.0416666269302368],"min":[0.0833333358168602],"type":"SCALAR"},{"bufferView":19,"componentType":5126,"count":24,"max":[0.021915413439273834,0.004911440424621105,0.009002099744975567,1],"min":[-0.02524827979505062,-0.0234467014670372,-0.04135983809828758,0.9989190101623535],"type":"VEC4"},{"bufferView":20,"componentType":5126,"count":24,"max":[1],"min":[0.0416666679084301],"type":"SCALAR"},{"bufferView":21,"componentType":5126,"count":24,"max":[0.5,0.5962499976158142,0.6575000286102295],"min":[0.5,0.550000011920929,0.625],"type":"VEC3"},{"bufferView":22,"componentType":5126,"count":26,"max":[1.125],"min":[0.0833333358168602],"type":"SCALAR"},{"bufferView":23,"componentType":5126,"count":26,"max":[0.17278355360031128,0.027854613959789276,0.09336500614881516,1],"min":[-0.02097422257065773,-0.01892225071787834,-0.045174967497587204,0.980129063129425],"type":"VEC4"},{"bufferView":24,"componentType":5126,"count":26,"max":[1.0833333730697632],"min":[0.0416666679084301],"type":"SCALAR"},{"bufferView":25,"componentType":5126,"count":26,"max":[0.08203125,-0.10546875,0.125],"min":[0.08203125,-2.0804686546325684,-0.3831250071525574],"type":"VEC3"}]}