{"asset":{"version":"2.0","generator":"Blockbench 4.9.3 glTF exporter"},"scenes":[{"nodes":[12],"name":"blockbench_export"}],"scene":0,"nodes":[{"translation":[0.375,-0.6875,0],"name":"RightHand"},{"translation":[-0.45703125,0.7679687500000003,-0.0625],"name":"R","children":[0]},{"translation":[0,0.32142745579584253,-0.06313592764244175],"name":"hammer"},{"translation":[-0.00018310546875,0.2822265625,-0.3106689453125001],"name":"cylinder"},{"translation":[0.047607421875,0.247802734375,-0.1328125],"name":"mag"},{"translation":[0.08203125,0.328125,-0.244140625],"name":"bullet_shell"},{"translation":[0.08208810763888874,0.2382753485993293,-0.3095780285444788],"name":"bullet"},{"translation":[-0.08245849609375,0.08046875000000031,-0.0625],"name":"m1873","children":[2,3,4,5,6]},{"translation":[0.08203125,-0.1429687500000003,-0.0625],"name":"bone","children":[1,7]},{"translation":[-0.375,-0.6875,0],"name":"LeftHand"},{"translation":[0.375,0.625,-0.125],"name":"l","children":[9]},{"translation":[0.5,0.5625,0.625],"name":"bone2","children":[8,10]},{"children":[11]}],"animations":[{"name":"reload_intro","samplers":[{"input":0,"output":1,"interpolation":"LINEAR"},{"input":2,"output":3,"interpolation":"LINEAR"},{"input":4,"output":5,"interpolation":"LINEAR"},{"input":6,"output":7,"interpolation":"LINEAR"},{"input":8,"output":9,"interpolation":"LINEAR"},{"input":10,"output":11,"interpolation":"LINEAR"},{"input":12,"output":13,"interpolation":"LINEAR"},{"input":14,"output":15,"interpolation":"LINEAR"},{"input":16,"output":17,"interpolation":"LINEAR"},{"input":18,"output":19,"interpolation":"LINEAR"},{"input":20,"output":21,"interpolation":"LINEAR"},{"input":22,"output":23,"interpolation":"LINEAR"},{"input":24,"output":25,"interpolation":"LINEAR"},{"input":26,"output":27,"interpolation":"LINEAR"},{"input":28,"output":29,"interpolation":"LINEAR"},{"input":30,"output":31,"interpolation":"LINEAR"},{"input":32,"output":33,"interpolation":"LINEAR"},{"input":34,"output":35,"interpolation":"LINEAR"},{"input":36,"output":37,"interpolation":"LINEAR"}],"channels":[{"sampler":0,"target":{"node":1,"path":"rotation"}},{"sampler":1,"target":{"node":1,"path":"translation"}},{"sampler":2,"target":{"node":1,"path":"scale"}},{"sampler":3,"target":{"node":10,"path":"rotation"}},{"sampler":4,"target":{"node":10,"path":"translation"}},{"sampler":5,"target":{"node":10,"path":"scale"}},{"sampler":6,"target":{"node":11,"path":"rotation"}},{"sampler":7,"target":{"node":11,"path":"translation"}},{"sampler":8,"target":{"node":8,"path":"rotation"}},{"sampler":9,"target":{"node":8,"path":"translation"}},{"sampler":10,"target":{"node":7,"path":"rotation"}},{"sampler":11,"target":{"node":7,"path":"translation"}},{"sampler":12,"target":{"node":3,"path":"rotation"}},{"sampler":13,"target":{"node":4,"path":"rotation"}},{"sampler":14,"target":{"node":5,"path":"rotation"}},{"sampler":15,"target":{"node":5,"path":"translation"}},{"sampler":16,"target":{"node":6,"path":"rotation"}},{"sampler":17,"target":{"node":6,"path":"translation"}},{"sampler":18,"target":{"node":2,"path":"rotation"}}]}],"bufferViews":[{"buffer":0,"byteOffset":0,"byteLength":68},{"buffer":0,"byteOffset":68,"byteLength":272},{"buffer":0,"byteOffset":340,"byteLength":68},{"buffer":0,"byteOffset":408,"byteLength":204},{"buffer":0,"byteOffset":612,"byteLength":4},{"buffer":0,"byteOffset":616,"byteLength":12},{"buffer":0,"byteOffset":628,"byteLength":84},{"buffer":0,"byteOffset":712,"byteLength":336},{"buffer":0,"byteOffset":1048,"byteLength":84},{"buffer":0,"byteOffset":1132,"byteLength":252},{"buffer":0,"byteOffset":1384,"byteLength":4},{"buffer":0,"byteOffset":1388,"byteLength":12},{"buffer":0,"byteOffset":1400,"byteLength":72},{"buffer":0,"byteOffset":1472,"byteLength":288},{"buffer":0,"byteOffset":1760,"byteLength":84},{"buffer":0,"byteOffset":1844,"byteLength":252},{"buffer":0,"byteOffset":2096,"byteLength":32},{"buffer":0,"byteOffset":2128,"byteLength":128},{"buffer":0,"byteOffset":2256,"byteLength":40},{"buffer":0,"byteOffset":2296,"byteLength":120},{"buffer":0,"byteOffset":2416,"byteLength":64},{"buffer":0,"byteOffset":2480,"byteLength":256},{"buffer":0,"byteOffset":2736,"byteLength":12},{"buffer":0,"byteOffset":2748,"byteLength":36},{"buffer":0,"byteOffset":2784,"byteLength":4},{"buffer":0,"byteOffset":2788,"byteLength":16},{"buffer":0,"byteOffset":2804,"byteLength":8},{"buffer":0,"byteOffset":2812,"byteLength":32},{"buffer":0,"byteOffset":2844,"byteLength":4},{"buffer":0,"byteOffset":2848,"byteLength":16},{"buffer":0,"byteOffset":2864,"byteLength":4},{"buffer":0,"byteOffset":2868,"byteLength":12},{"buffer":0,"byteOffset":2880,"byteLength":4},{"buffer":0,"byteOffset":2884,"byteLength":16},{"buffer":0,"byteOffset":2900,"byteLength":4},{"buffer":0,"byteOffset":2904,"byteLength":12},{"buffer":0,"byteOffset":2916,"byteLength":4},{"buffer":0,"byteOffset":2920,"byteLength":16}],"buffers":[{"byteLength":2936,"uri":"data:application/octet-stream;base64,"}],"accessors":[{"bufferView":0,"componentType":5126,"count":17,"max":[1.2083333730697632],"min":[0],"type":"SCALAR"},{"bufferView":1,"componentType":5126,"count":17,"max":[0.1801624745130539,-0.7218042612075806,0.6883448958396912,0.24428947269916534],"min":[-0.143626868724823,-0.8662123084068298,0.4972084164619446,-0.06592585891485214],"type":"VEC4"},{"bufferView":2,"componentType":5126,"count":17,"max":[1.2083333730697632],"min":[0],"type":"SCALAR"},{"bufferView":3,"componentType":5126,"count":17,"max":[0.22216124832630157,0.3253417909145355,-0.012963014654815197],"min":[-0.0390625,0.08046875149011612,-0.7054982781410217],"type":"VEC3"},{"bufferView":4,"componentType":5126,"count":1,"max":[0],"min":[0],"type":"SCALAR"},{"bufferView":5,"componentType":5126,"count":1,"max":[1.75,2,1.75],"min":[1.75,2,1.75],"type":"VEC3"},{"bufferView":6,"componentType":5126,"count":21,"max":[1.2083333730697632],"min":[0],"type":"SCALAR"},{"bufferView":7,"componentType":5126,"count":21,"max":[-0.10073389112949371,0.7425190210342407,-0.44351252913475037,0.5964946746826172],"min":[-0.3353835642337799,0.575456976890564,-0.49542784690856934,0.4869600236415863],"type":"VEC4"},{"bufferView":8,"componentType":5126,"count":21,"max":[1.2083333730697632],"min":[0],"type":"SCALAR"},{"bufferView":9,"componentType":5126,"count":21,"max":[-0.09765625,0.010828662663698196,-0.01171875],"min":[-0.5350000262260437,-0.1796875,-0.3868750035762787],"type":"VEC3"},{"bufferView":10,"componentType":5126,"count":1,"max":[0],"min":[0],"type":"SCALAR"},{"bufferView":11,"componentType":5126,"count":1,"max":[1.75,2,1.75],"min":[1.75,2,1.75],"type":"VEC3"},{"bufferView":12,"componentType":5126,"count":18,"max":[1.2083333730697632],"min":[0],"type":"SCALAR"},{"bufferView":13,"componentType":5126,"count":18,"max":[0.03754323348402977,0.030401643365621567,0.02874171920120716,1],"min":[-0.01621861755847931,-0.006842988543212414,-0.03789418190717697,0.9985527992248535],"type":"VEC4"},{"bufferView":14,"componentType":5126,"count":21,"max":[1.2083333730697632],"min":[0],"type":"SCALAR"},{"bufferView":15,"componentType":5126,"count":21,"max":[0.50927734375,0.6960351467132568,0.625],"min":[0.499420166015625,0.5625,0.15504638850688934],"type":"VEC3"},{"bufferView":16,"componentType":5126,"count":8,"max":[1.2083333730697632],"min":[0],"type":"SCALAR"},{"bufferView":17,"componentType":5126,"count":8,"max":[0.13367490470409393,0,0.21997815370559692,1],"min":[0,-0.03175270929932594,0,0.9657828211784363],"type":"VEC4"},{"bufferView":18,"componentType":5126,"count":10,"max":[1.2083333730697632],"min":[0],"type":"SCALAR"},{"bufferView":19,"componentType":5126,"count":10,"max":[0.08203125,-0.14296874403953552,0.11749999970197678],"min":[-0.10971108078956604,-0.1903022676706314,-0.0625],"type":"VEC3"},{"bufferView":20,"componentType":5126,"count":16,"max":[1.2083333730697632],"min":[0],"type":"SCALAR"},{"bufferView":21,"componentType":5126,"count":16,"max":[0,0,0.17348290979862213,1],"min":[-0.00855034776031971,-0.1371457874774933,0,0.9763826131820679],"type":"VEC4"},{"bufferView":22,"componentType":5126,"count":3,"max":[1.2083333730697632],"min":[0],"type":"SCALAR"},{"bufferView":23,"componentType":5126,"count":3,"max":[-0.08245849609375,0.08046875149011612,-0.0625],"min":[-0.08245849609375,0.08046875149011612,-0.0625],"type":"VEC3"},{"bufferView":24,"componentType":5126,"count":1,"max":[1.2083333730697632],"min":[1.2083333730697632],"type":"SCALAR"},{"bufferView":25,"componentType":5126,"count":1,"max":[0,0,0,1],"min":[0,0,0,1],"type":"VEC4"},{"bufferView":26,"componentType":5126,"count":2,"max":[0.8333333134651184],"min":[0.75],"type":"SCALAR"},{"bufferView":27,"componentType":5126,"count":2,"max":[0,0,0,1],"min":[0,0,-0.4617486000061035,0.8870108127593994],"type":"VEC4"},{"bufferView":28,"componentType":5126,"count":1,"max":[1.2083333730697632],"min":[1.2083333730697632],"type":"SCALAR"},{"bufferView":29,"componentType":5126,"count":1,"max":[0,0,0,1],"min":[0,0,0,1],"type":"VEC4"},{"bufferView":30,"componentType":5126,"count":1,"max":[1.2083333730697632],"min":[1.2083333730697632],"type":"SCALAR"},{"bufferView":31,"componentType":5126,"count":1,"max":[0.08203125,0.328125,-0.244140625],"min":[0.08203125,0.328125,-0.244140625],"type":"VEC3"},{"bufferView":32,"componentType":5126,"count":1,"max":[1.2083333730697632],"min":[1.2083333730697632],"type":"SCALAR"},{"bufferView":33,"componentType":5126,"count":1,"max":[0,0,0,1],"min":[0,0,0,1],"type":"VEC4"},{"bufferView":34,"componentType":5126,"count":1,"max":[1.2083333730697632],"min":[1.2083333730697632],"type":"SCALAR"},{"bufferView":35,"componentType":5126,"count":1,"max":[0.08208810538053513,0.23827534914016724,-0.3095780313014984],"min":[0.08208810538053513,0.23827534914016724,-0.3095780313014984],"type":"VEC3"},{"bufferView":36,"componentType":5126,"count":1,"max":[0.0416666679084301],"min":[0.0416666679084301],"type":"SCALAR"},{"bufferView":37,"componentType":5126,"count":1,"max":[0.36243805289268494,0,0,0.9320078492164612],"min":[0.36243805289268494,0,0,0.9320078492164612],"type":"VEC4"}]}