{"asset":{"version":"2.0","generator":"Blockbench 4.9.3 glTF exporter"},"scenes":[{"nodes":[12],"name":"blockbench_export"}],"scene":0,"nodes":[{"translation":[0.375,-0.6875,0],"name":"RightHand"},{"translation":[-0.45703125,0.7679687500000003,-0.0625],"name":"R","children":[0]},{"translation":[0,0.32142745579584253,-0.06313592764244175],"name":"hammer"},{"translation":[-0.00018310546875,0.2822265625,-0.3106689453125001],"name":"cylinder"},{"translation":[0.047607421875,0.247802734375,-0.1328125],"name":"mag"},{"translation":[0.08203125,0.328125,-0.244140625],"name":"bullet_shell"},{"translation":[0.08208810763888874,0.2382753485993293,-0.3095780285444788],"name":"bullet"},{"translation":[-0.08245849609375,0.08046875000000031,-0.0625],"name":"m1873","children":[2,3,4,5,6]},{"translation":[0.08203125,-0.1429687500000003,-0.0625],"name":"bone","children":[1,7]},{"translation":[-0.375,-0.6875,0],"name":"LeftHand"},{"translation":[0.375,0.625,-0.125],"name":"l","children":[9]},{"translation":[0.5,0.5625,0.625],"name":"bone2","children":[8,10]},{"children":[11]}],"animations":[{"name":"reload_intro","samplers":[{"input":0,"output":1,"interpolation":"LINEAR"},{"input":2,"output":3,"interpolation":"LINEAR"},{"input":4,"output":5,"interpolation":"LINEAR"},{"input":6,"output":7,"interpolation":"LINEAR"},{"input":8,"output":9,"interpolation":"LINEAR"},{"input":10,"output":11,"interpolation":"LINEAR"},{"input":12,"output":13,"interpolation":"LINEAR"},{"input":14,"output":15,"interpolation":"LINEAR"},{"input":16,"output":17,"interpolation":"LINEAR"},{"input":18,"output":19,"interpolation":"LINEAR"},{"input":20,"output":21,"interpolation":"LINEAR"},{"input":22,"output":23,"interpolation":"LINEAR"},{"input":24,"output":25,"interpolation":"LINEAR"},{"input":26,"output":27,"interpolation":"LINEAR"},{"input":28,"output":29,"interpolation":"LINEAR"},{"input":30,"output":31,"interpolation":"LINEAR"},{"input":32,"output":33,"interpolation":"LINEAR"},{"input":34,"output":35,"interpolation":"LINEAR"}],"channels":[{"sampler":0,"target":{"node":1,"path":"rotation"}},{"sampler":1,"target":{"node":1,"path":"translation"}},{"sampler":2,"target":{"node":1,"path":"scale"}},{"sampler":3,"target":{"node":10,"path":"rotation"}},{"sampler":4,"target":{"node":10,"path":"translation"}},{"sampler":5,"target":{"node":10,"path":"scale"}},{"sampler":6,"target":{"node":11,"path":"rotation"}},{"sampler":7,"target":{"node":11,"path":"translation"}},{"sampler":8,"target":{"node":8,"path":"rotation"}},{"sampler":9,"target":{"node":8,"path":"translation"}},{"sampler":10,"target":{"node":7,"path":"rotation"}},{"sampler":11,"target":{"node":7,"path":"translation"}},{"sampler":12,"target":{"node":3,"path":"rotation"}},{"sampler":13,"target":{"node":4,"path":"rotation"}},{"sampler":14,"target":{"node":5,"path":"rotation"}},{"sampler":15,"target":{"node":5,"path":"translation"}},{"sampler":16,"target":{"node":6,"path":"rotation"}},{"sampler":17,"target":{"node":6,"path":"translation"}}]}],"bufferViews":[{"buffer":0,"byteOffset":0,"byteLength":88},{"buffer":0,"byteOffset":88,"byteLength":352},{"buffer":0,"byteOffset":440,"byteLength":92},{"buffer":0,"byteOffset":532,"byteLength":276},{"buffer":0,"byteOffset":808,"byteLength":4},{"buffer":0,"byteOffset":812,"byteLength":12},{"buffer":0,"byteOffset":824,"byteLength":112},{"buffer":0,"byteOffset":936,"byteLength":448},{"buffer":0,"byteOffset":1384,"byteLength":116},{"buffer":0,"byteOffset":1500,"byteLength":348},{"buffer":0,"byteOffset":1848,"byteLength":4},{"buffer":0,"byteOffset":1852,"byteLength":12},{"buffer":0,"byteOffset":1864,"byteLength":108},{"buffer":0,"byteOffset":1972,"byteLength":432},{"buffer":0,"byteOffset":2404,"byteLength":116},{"buffer":0,"byteOffset":2520,"byteLength":348},{"buffer":0,"byteOffset":2868,"byteLength":104},{"buffer":0,"byteOffset":2972,"byteLength":416},{"buffer":0,"byteOffset":3388,"byteLength":108},{"buffer":0,"byteOffset":3496,"byteLength":324},{"buffer":0,"byteOffset":3820,"byteLength":84},{"buffer":0,"byteOffset":3904,"byteLength":336},{"buffer":0,"byteOffset":4240,"byteLength":88},{"buffer":0,"byteOffset":4328,"byteLength":264},{"buffer":0,"byteOffset":4592,"byteLength":4},{"buffer":0,"byteOffset":4596,"byteLength":16},{"buffer":0,"byteOffset":4612,"byteLength":12},{"buffer":0,"byteOffset":4624,"byteLength":48},{"buffer":0,"byteOffset":4672,"byteLength":4},{"buffer":0,"byteOffset":4676,"byteLength":16},{"buffer":0,"byteOffset":4692,"byteLength":4},{"buffer":0,"byteOffset":4696,"byteLength":12},{"buffer":0,"byteOffset":4708,"byteLength":4},{"buffer":0,"byteOffset":4712,"byteLength":16},{"buffer":0,"byteOffset":4728,"byteLength":4},{"buffer":0,"byteOffset":4732,"byteLength":12}],"buffers":[{"byteLength":4744,"uri":"data:application/octet-stream;base64,"}],"accessors":[{"bufferView":0,"componentType":5126,"count":22,"max":[1.2083333730697632],"min":[0.3333333432674408],"type":"SCALAR"},{"bufferView":1,"componentType":5126,"count":22,"max":[0.1801832616329193,-0.7218047976493835,0.6883431077003479,0.24428947269916534],"min":[-0.143626868724823,-0.8662161231040955,0.4971907138824463,-0.07197018712759018],"type":"VEC4"},{"bufferView":2,"componentType":5126,"count":23,"max":[1.2083333730697632],"min":[0.2916666567325592],"type":"SCALAR"},{"bufferView":3,"componentType":5126,"count":23,"max":[0.22359375655651093,0.3254687488079071,-0.013124999590218067],"min":[-0.03890625014901161,0.08046875149011612,-0.7056249976158142],"type":"VEC3"},{"bufferView":4,"componentType":5126,"count":1,"max":[0],"min":[0],"type":"SCALAR"},{"bufferView":5,"componentType":5126,"count":1,"max":[1.75,2,1.75],"min":[1.75,2,1.75],"type":"VEC3"},{"bufferView":6,"componentType":5126,"count":28,"max":[1.2083333730697632],"min":[0.0833333358168602],"type":"SCALAR"},{"bufferView":7,"componentType":5126,"count":28,"max":[-0.10074610263109207,0.7425330281257629,-0.44349002838134766,0.5964950919151306],"min":[-0.3353551924228668,0.5754647254943848,-0.49540767073631287,0.48693332076072693],"type":"VEC4"},{"bufferView":8,"componentType":5126,"count":29,"max":[1.2083333730697632],"min":[0.0416666679084301],"type":"SCALAR"},{"bufferView":9,"componentType":5126,"count":29,"max":[-0.09749999642372131,0.010625000111758709,-0.011874999850988388],"min":[-0.5350000262260437,-0.17937499284744263,-0.3868750035762787],"type":"VEC3"},{"bufferView":10,"componentType":5126,"count":1,"max":[0],"min":[0],"type":"SCALAR"},{"bufferView":11,"componentType":5126,"count":1,"max":[1.75,2,1.75],"min":[1.75,2,1.75],"type":"VEC3"},{"bufferView":12,"componentType":5126,"count":27,"max":[1.2083333730697632],"min":[0.125],"type":"SCALAR"},{"bufferView":13,"componentType":5126,"count":27,"max":[0.03754323348402977,0.030399926006793976,0.02874171920120716,1],"min":[-0.016185898333787918,-0.006842988543212414,-0.03789418190717697,0.9985527992248535],"type":"VEC4"},{"bufferView":14,"componentType":5126,"count":29,"max":[1.2083333730697632],"min":[0.0416666679084301],"type":"SCALAR"},{"bufferView":15,"componentType":5126,"count":29,"max":[0.5093749761581421,0.6962500214576721,0.2606250047683716],"min":[0.49937498569488525,0.6681249737739563,0.18125000596046448],"type":"VEC3"},{"bufferView":16,"componentType":5126,"count":26,"max":[1.2083333730697632],"min":[0.1666666716337204],"type":"SCALAR"},{"bufferView":17,"componentType":5126,"count":26,"max":[0.13365963101387024,0,0.22006908059120178,1],"min":[0,-0.03184480965137482,0,0.9657678604125977],"type":"VEC4"},{"bufferView":18,"componentType":5126,"count":27,"max":[1.2083333730697632],"min":[0.125],"type":"SCALAR"},{"bufferView":19,"componentType":5126,"count":27,"max":[0.08203125,-0.14296874403953552,0.11749999970197678],"min":[-0.10984375327825546,-0.19046874344348907,-0.0625],"type":"VEC3"},{"bufferView":20,"componentType":5126,"count":21,"max":[1.2083333730697632],"min":[0.375],"type":"SCALAR"},{"bufferView":21,"componentType":5126,"count":21,"max":[0,0,0.1734452247619629,1],"min":[-0.010251245461404324,-0.13719134032726288,0,0.9763903021812439],"type":"VEC4"},{"bufferView":22,"componentType":5126,"count":22,"max":[1.2083333730697632],"min":[0.3333333432674408],"type":"SCALAR"},{"bufferView":23,"componentType":5126,"count":22,"max":[-0.08245849609375,0.08046875149011612,-0.0625],"min":[-0.08245849609375,0.08046875149011612,-0.0625],"type":"VEC3"},{"bufferView":24,"componentType":5126,"count":1,"max":[1.2083333730697632],"min":[1.2083333730697632],"type":"SCALAR"},{"bufferView":25,"componentType":5126,"count":1,"max":[0,0,0,1],"min":[0,0,0,1],"type":"VEC4"},{"bufferView":26,"componentType":5126,"count":3,"max":[0.8333333134651184],"min":[0.75],"type":"SCALAR"},{"bufferView":27,"componentType":5126,"count":3,"max":[0,0,0,1],"min":[0,0,-0.4617486000061035,0.8870108127593994],"type":"VEC4"},{"bufferView":28,"componentType":5126,"count":1,"max":[1.2083333730697632],"min":[1.2083333730697632],"type":"SCALAR"},{"bufferView":29,"componentType":5126,"count":1,"max":[0,0,0,1],"min":[0,0,0,1],"type":"VEC4"},{"bufferView":30,"componentType":5126,"count":1,"max":[1.2083333730697632],"min":[1.2083333730697632],"type":"SCALAR"},{"bufferView":31,"componentType":5126,"count":1,"max":[0.08203125,0.328125,-0.244140625],"min":[0.08203125,0.328125,-0.244140625],"type":"VEC3"},{"bufferView":32,"componentType":5126,"count":1,"max":[1.2083333730697632],"min":[1.2083333730697632],"type":"SCALAR"},{"bufferView":33,"componentType":5126,"count":1,"max":[0,0,0,1],"min":[0,0,0,1],"type":"VEC4"},{"bufferView":34,"componentType":5126,"count":1,"max":[1.2083333730697632],"min":[1.2083333730697632],"type":"SCALAR"},{"bufferView":35,"componentType":5126,"count":1,"max":[0.08208810538053513,0.23827534914016724,-0.3095780313014984],"min":[0.08208810538053513,0.23827534914016724,-0.3095780313014984],"type":"VEC3"}]}