{"asset":{"version":"2.0","generator":"Blockbench 4.8.3 glTF exporter"},"scenes":[{"nodes":[16],"name":"blockbench_export"}],"scene":0,"nodes":[{"translation":[0.375,-0.6875,0],"name":"RightHand"},{"translation":[-0.4375,0.9125000000000003,-0.375],"name":"R","children":[0]},{"translation":[-0.46901357048248826,0.0017732597778846726,-0.7601248990195941],"name":"string_l"},{"translation":[0.005859232187095442,0.005476651361057572,-0.40038985592327525],"name":"wheel_l"},{"translation":[-0.48002310283124483,-0.01521892772211525,-0.19451992480066504],"name":"arm_l","children":[3]},{"translation":[0.5,0.5,0.5],"name":"arm_left","children":[2,4]},{"translation":[0.46901357048248826,-0.0001798652221153274,-0.7601248990195941],"name":"string_r"},{"translation":[1.4281290428019844e-7,0.005476651361057627,-0.3984367309232751],"name":"wheel_r"},{"translation":[0.47416372783124483,-0.01521892772211525,-0.1964730498006651],"name":"arm_r","children":[7]},{"translation":[0.5,0.5,0.5],"name":"arm_right","children":[6,8]},{"translation":[0.5,0.4949661832646814,0.4961092472619549],"name":"arrow"},{"translation":[-0.5625,-0.2749999999999997,-0.875],"name":"crossbow","children":[5,9,10]},{"translation":[0,0.02499999999999969,0],"name":"bone","children":[1,11]},{"translation":[-0.375,-0.6875,0],"name":"LeftHand"},{"translation":[0.3125,0.9375,-0.375],"name":"l","children":[13]},{"translation":[0.5625,0.25,0.875],"name":"bone2","children":[12,14]},{"children":[15]}],"animations":[{"name":"inspect","samplers":[{"input":0,"output":1,"interpolation":"LINEAR"},{"input":2,"output":3,"interpolation":"LINEAR"},{"input":4,"output":5,"interpolation":"LINEAR"},{"input":6,"output":7,"interpolation":"LINEAR"},{"input":8,"output":9,"interpolation":"LINEAR"},{"input":10,"output":11,"interpolation":"LINEAR"},{"input":12,"output":13,"interpolation":"LINEAR"},{"input":14,"output":15,"interpolation":"LINEAR"},{"input":16,"output":17,"interpolation":"LINEAR"},{"input":18,"output":19,"interpolation":"LINEAR"},{"input":20,"output":21,"interpolation":"LINEAR"},{"input":22,"output":23,"interpolation":"LINEAR"},{"input":24,"output":25,"interpolation":"LINEAR"},{"input":26,"output":27,"interpolation":"LINEAR"},{"input":28,"output":29,"interpolation":"LINEAR"},{"input":30,"output":31,"interpolation":"LINEAR"},{"input":32,"output":33,"interpolation":"LINEAR"},{"input":34,"output":35,"interpolation":"LINEAR"},{"input":36,"output":37,"interpolation":"LINEAR"},{"input":38,"output":39,"interpolation":"LINEAR"},{"input":40,"output":41,"interpolation":"LINEAR"},{"input":42,"output":43,"interpolation":"LINEAR"},{"input":44,"output":45,"interpolation":"LINEAR"},{"input":46,"output":47,"interpolation":"LINEAR"},{"input":48,"output":49,"interpolation":"LINEAR"},{"input":50,"output":51,"interpolation":"LINEAR"}],"channels":[{"sampler":0,"target":{"node":15,"path":"rotation"}},{"sampler":1,"target":{"node":15,"path":"translation"}},{"sampler":2,"target":{"node":12,"path":"rotation"}},{"sampler":3,"target":{"node":12,"path":"translation"}},{"sampler":4,"target":{"node":1,"path":"rotation"}},{"sampler":5,"target":{"node":1,"path":"translation"}},{"sampler":6,"target":{"node":1,"path":"scale"}},{"sampler":7,"target":{"node":14,"path":"rotation"}},{"sampler":8,"target":{"node":14,"path":"translation"}},{"sampler":9,"target":{"node":14,"path":"scale"}},{"sampler":10,"target":{"node":10,"path":"translation"}},{"sampler":11,"target":{"node":10,"path":"scale"}},{"sampler":12,"target":{"node":6,"path":"rotation"}},{"sampler":13,"target":{"node":6,"path":"translation"}},{"sampler":14,"target":{"node":6,"path":"scale"}},{"sampler":15,"target":{"node":7,"path":"rotation"}},{"sampler":16,"target":{"node":7,"path":"translation"}},{"sampler":17,"target":{"node":8,"path":"rotation"}},{"sampler":18,"target":{"node":8,"path":"translation"}},{"sampler":19,"target":{"node":2,"path":"rotation"}},{"sampler":20,"target":{"node":2,"path":"translation"}},{"sampler":21,"target":{"node":2,"path":"scale"}},{"sampler":22,"target":{"node":4,"path":"rotation"}},{"sampler":23,"target":{"node":4,"path":"translation"}},{"sampler":24,"target":{"node":3,"path":"rotation"}},{"sampler":25,"target":{"node":3,"path":"translation"}}]}],"bufferViews":[{"buffer":0,"byteOffset":0,"byteLength":48},{"buffer":0,"byteOffset":48,"byteLength":192},{"buffer":0,"byteOffset":240,"byteLength":12},{"buffer":0,"byteOffset":252,"byteLength":36},{"buffer":0,"byteOffset":288,"byteLength":56},{"buffer":0,"byteOffset":344,"byteLength":224},{"buffer":0,"byteOffset":568,"byteLength":48},{"buffer":0,"byteOffset":616,"byteLength":144},{"buffer":0,"byteOffset":760,"byteLength":4},{"buffer":0,"byteOffset":764,"byteLength":16},{"buffer":0,"byteOffset":780,"byteLength":4},{"buffer":0,"byteOffset":784,"byteLength":12},{"buffer":0,"byteOffset":796,"byteLength":4},{"buffer":0,"byteOffset":800,"byteLength":12},{"buffer":0,"byteOffset":812,"byteLength":48},{"buffer":0,"byteOffset":860,"byteLength":192},{"buffer":0,"byteOffset":1052,"byteLength":36},{"buffer":0,"byteOffset":1088,"byteLength":108},{"buffer":0,"byteOffset":1196,"byteLength":4},{"buffer":0,"byteOffset":1200,"byteLength":12},{"buffer":0,"byteOffset":1212,"byteLength":4},{"buffer":0,"byteOffset":1216,"byteLength":12},{"buffer":0,"byteOffset":1228,"byteLength":4},{"buffer":0,"byteOffset":1232,"byteLength":12},{"buffer":0,"byteOffset":1244,"byteLength":4},{"buffer":0,"byteOffset":1248,"byteLength":16},{"buffer":0,"byteOffset":1264,"byteLength":4},{"buffer":0,"byteOffset":1268,"byteLength":12},{"buffer":0,"byteOffset":1280,"byteLength":4},{"buffer":0,"byteOffset":1284,"byteLength":12},{"buffer":0,"byteOffset":1296,"byteLength":4},{"buffer":0,"byteOffset":1300,"byteLength":16},{"buffer":0,"byteOffset":1316,"byteLength":4},{"buffer":0,"byteOffset":1320,"byteLength":12},{"buffer":0,"byteOffset":1332,"byteLength":4},{"buffer":0,"byteOffset":1336,"byteLength":16},{"buffer":0,"byteOffset":1352,"byteLength":4},{"buffer":0,"byteOffset":1356,"byteLength":12},{"buffer":0,"byteOffset":1368,"byteLength":4},{"buffer":0,"byteOffset":1372,"byteLength":16},{"buffer":0,"byteOffset":1388,"byteLength":4},{"buffer":0,"byteOffset":1392,"byteLength":12},{"buffer":0,"byteOffset":1404,"byteLength":4},{"buffer":0,"byteOffset":1408,"byteLength":12},{"buffer":0,"byteOffset":1420,"byteLength":4},{"buffer":0,"byteOffset":1424,"byteLength":16},{"buffer":0,"byteOffset":1440,"byteLength":4},{"buffer":0,"byteOffset":1444,"byteLength":12},{"buffer":0,"byteOffset":1456,"byteLength":4},{"buffer":0,"byteOffset":1460,"byteLength":16},{"buffer":0,"byteOffset":1476,"byteLength":4},{"buffer":0,"byteOffset":1480,"byteLength":12}],"buffers":[{"byteLength":1492,"uri":"data:application/octet-stream;base64,"}],"accessors":[{"bufferView":0,"componentType":5126,"count":12,"max":[3.375],"min":[0.0416666679084301],"type":"SCALAR"},{"bufferView":1,"componentType":5126,"count":12,"max":[0.05887103080749512,0.000989672844298184,0.007743527181446552,1],"min":[-0.03865513578057289,-0.045706700533628464,-0.06059816852211952,0.9964409470558167],"type":"VEC4"},{"bufferView":2,"componentType":5126,"count":3,"max":[3.375],"min":[0.0416666679084301],"type":"SCALAR"},{"bufferView":3,"componentType":5126,"count":3,"max":[0.5625,0.25,0.875],"min":[0.5625,0.25,0.875],"type":"VEC3"},{"bufferView":4,"componentType":5126,"count":14,"max":[3.25],"min":[0.0416666679084301],"type":"SCALAR"},{"bufferView":5,"componentType":5126,"count":14,"max":[0.4280964136123657,0.13531722128391266,0.1194215714931488,1],"min":[-0.017452405765652657,0,-0.14535638689994812,0.8939529061317444],"type":"VEC4"},{"bufferView":6,"componentType":5126,"count":12,"max":[3.25],"min":[0.0416666679084301],"type":"SCALAR"},{"bufferView":7,"componentType":5126,"count":12,"max":[0.0637499988079071,0.02500000037252903,0.078125],"min":[0,-0.33546873927116394,-0.015625],"type":"VEC3"},{"bufferView":8,"componentType":5126,"count":1,"max":[0.0416666679084301],"min":[0.0416666679084301],"type":"SCALAR"},{"bufferView":9,"componentType":5126,"count":1,"max":[-0.07571770995855331,0.7410977482795715,-0.6644773483276367,-0.0592522919178009],"min":[-0.07571770995855331,0.7410977482795715,-0.6644773483276367,-0.0592522919178009],"type":"VEC4"},{"bufferView":10,"componentType":5126,"count":1,"max":[0.0416666679084301],"min":[0.0416666679084301],"type":"SCALAR"},{"bufferView":11,"componentType":5126,"count":1,"max":[-0.0107421875,-0.05722656100988388,-0.0048828125],"min":[-0.0107421875,-0.05722656100988388,-0.0048828125],"type":"VEC3"},{"bufferView":12,"componentType":5126,"count":1,"max":[0.0416666679084301],"min":[0.0416666679084301],"type":"SCALAR"},{"bufferView":13,"componentType":5126,"count":1,"max":[1,1.5,1],"min":[1,1.5,1],"type":"VEC3"},{"bufferView":14,"componentType":5126,"count":12,"max":[3.25],"min":[0.0416666679084301],"type":"SCALAR"},{"bufferView":15,"componentType":5126,"count":12,"max":[-0.03150361403822899,0.6199008226394653,-0.37018540501594543,0.7617093920707703],"min":[-0.3524326682090759,0.4636000394821167,-0.5656317472457886,0.5838894844055176],"type":"VEC4"},{"bufferView":16,"componentType":5126,"count":9,"max":[3.25],"min":[0.0416666679084301],"type":"SCALAR"},{"bufferView":17,"componentType":5126,"count":9,"max":[-0.029374999925494194,0.1574999988079071,-0.48750001192092896],"min":[-0.13914062082767487,-0.0302734375,-0.806640625],"type":"VEC3"},{"bufferView":18,"componentType":5126,"count":1,"max":[0.0416666679084301],"min":[0.0416666679084301],"type":"SCALAR"},{"bufferView":19,"componentType":5126,"count":1,"max":[1,1.5,1],"min":[1,1.5,1],"type":"VEC3"},{"bufferView":20,"componentType":5126,"count":1,"max":[0.0416666679084301],"min":[0.0416666679084301],"type":"SCALAR"},{"bufferView":21,"componentType":5126,"count":1,"max":[0.5,0.49496617913246155,0.4961092472076416],"min":[0.5,0.49496617913246155,0.4961092472076416],"type":"VEC3"},{"bufferView":22,"componentType":5126,"count":1,"max":[0.0416666679084301],"min":[0.0416666679084301],"type":"SCALAR"},{"bufferView":23,"componentType":5126,"count":1,"max":[1,1,1],"min":[1,1,1],"type":"VEC3"},{"bufferView":24,"componentType":5126,"count":1,"max":[0.0416666679084301],"min":[0.0416666679084301],"type":"SCALAR"},{"bufferView":25,"componentType":5126,"count":1,"max":[0,0.5573828816413879,0,0.8302555680274963],"min":[0,0.5573828816413879,0,0.8302555680274963],"type":"VEC4"},{"bufferView":26,"componentType":5126,"count":1,"max":[0.0416666679084301],"min":[0.0416666679084301],"type":"SCALAR"},{"bufferView":27,"componentType":5126,"count":1,"max":[0.4377635717391968,-0.00017986522288993,-0.728874921798706],"min":[0.4377635717391968,-0.00017986522288993,-0.728874921798706],"type":"VEC3"},{"bufferView":28,"componentType":5126,"count":1,"max":[0.0416666679084301],"min":[0.0416666679084301],"type":"SCALAR"},{"bufferView":29,"componentType":5126,"count":1,"max":[2.424999952316284,1,1],"min":[2.424999952316284,1,1],"type":"VEC3"},{"bufferView":30,"componentType":5126,"count":1,"max":[0.0416666679084301],"min":[0.0416666679084301],"type":"SCALAR"},{"bufferView":31,"componentType":5126,"count":1,"max":[0,0.2798290252685547,0,0.9600498676300049],"min":[0,0.2798290252685547,0,0.9600498676300049],"type":"VEC4"},{"bufferView":32,"componentType":5126,"count":1,"max":[0.0416666679084301],"min":[0.0416666679084301],"type":"SCALAR"},{"bufferView":33,"componentType":5126,"count":1,"max":[1.4281290816597902e-7,0.00547665124759078,-0.3984367251396179],"min":[1.4281290816597902e-7,0.00547665124759078,-0.3984367251396179],"type":"VEC3"},{"bufferView":34,"componentType":5126,"count":1,"max":[0.0416666679084301],"min":[0.0416666679084301],"type":"SCALAR"},{"bufferView":35,"componentType":5126,"count":1,"max":[0,0.08715574443340302,0,0.9961947202682495],"min":[0,0.08715574443340302,0,0.9961947202682495],"type":"VEC4"},{"bufferView":36,"componentType":5126,"count":1,"max":[0.0416666679084301],"min":[0.0416666679084301],"type":"SCALAR"},{"bufferView":37,"componentType":5126,"count":1,"max":[0.4741637408733368,-0.015218927524983883,-0.19647304713726044],"min":[0.4741637408733368,-0.015218927524983883,-0.19647304713726044],"type":"VEC3"},{"bufferView":38,"componentType":5126,"count":1,"max":[0.0416666679084301],"min":[0.0416666679084301],"type":"SCALAR"},{"bufferView":39,"componentType":5126,"count":1,"max":[0,-0.5555702447891235,0,0.8314695954322815],"min":[0,-0.5555702447891235,0,0.8314695954322815],"type":"VEC4"},{"bufferView":40,"componentType":5126,"count":1,"max":[0.0416666679084301],"min":[0.0416666679084301],"type":"SCALAR"},{"bufferView":41,"componentType":5126,"count":1,"max":[-0.4377635717391968,0.001773259835317731,-0.728874921798706],"min":[-0.4377635717391968,0.001773259835317731,-0.728874921798706],"type":"VEC3"},{"bufferView":42,"componentType":5126,"count":1,"max":[0.0416666679084301],"min":[0.0416666679084301],"type":"SCALAR"},{"bufferView":43,"componentType":5126,"count":1,"max":[2.4000000953674316,1,1],"min":[2.4000000953674316,1,1],"type":"VEC3"},{"bufferView":44,"componentType":5126,"count":1,"max":[0.0416666679084301],"min":[0.0416666679084301],"type":"SCALAR"},{"bufferView":45,"componentType":5126,"count":1,"max":[0,-0.08715574443340302,0,0.9961947202682495],"min":[0,-0.08715574443340302,0,0.9961947202682495],"type":"VEC4"},{"bufferView":46,"componentType":5126,"count":1,"max":[0.0416666679084301],"min":[0.0416666679084301],"type":"SCALAR"},{"bufferView":47,"componentType":5126,"count":1,"max":[-0.4800231158733368,-0.015218927524983883,-0.19451992213726044],"min":[-0.4800231158733368,-0.015218927524983883,-0.19451992213726044],"type":"VEC3"},{"bufferView":48,"componentType":5126,"count":1,"max":[0.0416666679084301],"min":[0.0416666679084301],"type":"SCALAR"},{"bufferView":49,"componentType":5126,"count":1,"max":[0,-0.2798290252685547,0,0.9600498676300049],"min":[0,-0.2798290252685547,0,0.9600498676300049],"type":"VEC4"},{"bufferView":50,"componentType":5126,"count":1,"max":[0.0416666679084301],"min":[0.0416666679084301],"type":"SCALAR"},{"bufferView":51,"componentType":5126,"count":1,"max":[0.0058592320419847965,0.00547665124759078,-0.4003898501396179],"min":[0.0058592320419847965,0.00547665124759078,-0.4003898501396179],"type":"VEC3"}]}