{"asset":{"version":"2.0","generator":"Blockbench 4.8.3 glTF exporter"},"scenes":[{"nodes":[16],"name":"blockbench_export"}],"scene":0,"nodes":[{"translation":[0.375,-0.6875,0],"name":"RightHand"},{"translation":[-0.4375,0.9125000000000003,-0.375],"name":"R","children":[0]},{"translation":[-0.46901357048248826,0.0017732597778846726,-0.7601248990195941],"name":"string_l"},{"translation":[0.005859232187095442,0.005476651361057572,-0.40038985592327525],"name":"wheel_l"},{"translation":[-0.48002310283124483,-0.01521892772211525,-0.19451992480066504],"name":"arm_l","children":[3]},{"translation":[0.5,0.5,0.5],"name":"arm_left","children":[2,4]},{"translation":[0.46901357048248826,-0.0001798652221153274,-0.7601248990195941],"name":"string_r"},{"translation":[1.4281290428019844e-7,0.005476651361057627,-0.3984367309232751],"name":"wheel_r"},{"translation":[0.47416372783124483,-0.01521892772211525,-0.1964730498006651],"name":"arm_r","children":[7]},{"translation":[0.5,0.5,0.5],"name":"arm_right","children":[6,8]},{"translation":[0.5,0.4949661832646814,0.4961092472619549],"name":"arrow"},{"translation":[-0.5625,-0.2749999999999997,-0.875],"name":"crossbow","children":[5,9,10]},{"translation":[0,0.02499999999999969,0],"name":"bone","children":[1,11]},{"translation":[-0.375,-0.6875,0],"name":"LeftHand"},{"translation":[0.3125,0.9375,-0.375],"name":"l","children":[13]},{"translation":[0.5625,0.25,0.875],"name":"bone2","children":[12,14]},{"children":[15]}],"animations":[{"name":"static_state","samplers":[{"input":0,"output":1,"interpolation":"LINEAR"},{"input":2,"output":3,"interpolation":"LINEAR"},{"input":4,"output":5,"interpolation":"LINEAR"},{"input":6,"output":7,"interpolation":"LINEAR"},{"input":8,"output":9,"interpolation":"LINEAR"},{"input":10,"output":11,"interpolation":"LINEAR"},{"input":12,"output":13,"interpolation":"LINEAR"},{"input":14,"output":15,"interpolation":"LINEAR"},{"input":16,"output":17,"interpolation":"LINEAR"},{"input":18,"output":19,"interpolation":"LINEAR"},{"input":20,"output":21,"interpolation":"LINEAR"},{"input":22,"output":23,"interpolation":"LINEAR"}],"channels":[{"sampler":0,"target":{"node":15,"path":"rotation"}},{"sampler":1,"target":{"node":15,"path":"translation"}},{"sampler":2,"target":{"node":12,"path":"rotation"}},{"sampler":3,"target":{"node":12,"path":"translation"}},{"sampler":4,"target":{"node":1,"path":"rotation"}},{"sampler":5,"target":{"node":1,"path":"translation"}},{"sampler":6,"target":{"node":1,"path":"scale"}},{"sampler":7,"target":{"node":14,"path":"rotation"}},{"sampler":8,"target":{"node":14,"path":"translation"}},{"sampler":9,"target":{"node":14,"path":"scale"}},{"sampler":10,"target":{"node":10,"path":"translation"}},{"sampler":11,"target":{"node":10,"path":"scale"}}]}],"bufferViews":[{"buffer":0,"byteOffset":0,"byteLength":4},{"buffer":0,"byteOffset":4,"byteLength":16},{"buffer":0,"byteOffset":20,"byteLength":4},{"buffer":0,"byteOffset":24,"byteLength":12},{"buffer":0,"byteOffset":36,"byteLength":4},{"buffer":0,"byteOffset":40,"byteLength":16},{"buffer":0,"byteOffset":56,"byteLength":4},{"buffer":0,"byteOffset":60,"byteLength":12},{"buffer":0,"byteOffset":72,"byteLength":4},{"buffer":0,"byteOffset":76,"byteLength":16},{"buffer":0,"byteOffset":92,"byteLength":4},{"buffer":0,"byteOffset":96,"byteLength":12},{"buffer":0,"byteOffset":108,"byteLength":4},{"buffer":0,"byteOffset":112,"byteLength":12},{"buffer":0,"byteOffset":124,"byteLength":4},{"buffer":0,"byteOffset":128,"byteLength":16},{"buffer":0,"byteOffset":144,"byteLength":4},{"buffer":0,"byteOffset":148,"byteLength":12},{"buffer":0,"byteOffset":160,"byteLength":4},{"buffer":0,"byteOffset":164,"byteLength":12},{"buffer":0,"byteOffset":176,"byteLength":4},{"buffer":0,"byteOffset":180,"byteLength":12},{"buffer":0,"byteOffset":192,"byteLength":4},{"buffer":0,"byteOffset":196,"byteLength":12}],"buffers":[{"byteLength":208,"uri":"data:application/octet-stream;base64,"}],"accessors":[{"bufferView":0,"componentType":5126,"count":1,"max":[0],"min":[0],"type":"SCALAR"},{"bufferView":1,"componentType":5126,"count":1,"max":[0,0,0,1],"min":[0,0,0,1],"type":"VEC4"},{"bufferView":2,"componentType":5126,"count":1,"max":[0],"min":[0],"type":"SCALAR"},{"bufferView":3,"componentType":5126,"count":1,"max":[0.5625,0.25,0.875],"min":[0.5625,0.25,0.875],"type":"VEC3"},{"bufferView":4,"componentType":5126,"count":1,"max":[0],"min":[0],"type":"SCALAR"},{"bufferView":5,"componentType":5126,"count":1,"max":[0,0,0,1],"min":[0,0,0,1],"type":"VEC4"},{"bufferView":6,"componentType":5126,"count":1,"max":[0],"min":[0],"type":"SCALAR"},{"bufferView":7,"componentType":5126,"count":1,"max":[0,0.02500000037252903,0],"min":[0,0.02500000037252903,0],"type":"VEC3"},{"bufferView":8,"componentType":5126,"count":1,"max":[0],"min":[0],"type":"SCALAR"},{"bufferView":9,"componentType":5126,"count":1,"max":[-0.07571770995855331,0.7410977482795715,-0.6644773483276367,-0.0592522919178009],"min":[-0.07571770995855331,0.7410977482795715,-0.6644773483276367,-0.0592522919178009],"type":"VEC4"},{"bufferView":10,"componentType":5126,"count":1,"max":[0],"min":[0],"type":"SCALAR"},{"bufferView":11,"componentType":5126,"count":1,"max":[-0.0107421875,-0.05722656100988388,-0.0048828125],"min":[-0.0107421875,-0.05722656100988388,-0.0048828125],"type":"VEC3"},{"bufferView":12,"componentType":5126,"count":1,"max":[0],"min":[0],"type":"SCALAR"},{"bufferView":13,"componentType":5126,"count":1,"max":[1,1.5,1],"min":[1,1.5,1],"type":"VEC3"},{"bufferView":14,"componentType":5126,"count":1,"max":[0],"min":[0],"type":"SCALAR"},{"bufferView":15,"componentType":5126,"count":1,"max":[-0.3524326682090759,0.4636000394821167,-0.5656317472457886,0.5838894844055176],"min":[-0.3524326682090759,0.4636000394821167,-0.5656317472457886,0.5838894844055176],"type":"VEC4"},{"bufferView":16,"componentType":5126,"count":1,"max":[0],"min":[0],"type":"SCALAR"},{"bufferView":17,"componentType":5126,"count":1,"max":[-0.091796875,-0.0302734375,-0.806640625],"min":[-0.091796875,-0.0302734375,-0.806640625],"type":"VEC3"},{"bufferView":18,"componentType":5126,"count":1,"max":[0],"min":[0],"type":"SCALAR"},{"bufferView":19,"componentType":5126,"count":1,"max":[1,1.5,1],"min":[1,1.5,1],"type":"VEC3"},{"bufferView":20,"componentType":5126,"count":1,"max":[0],"min":[0],"type":"SCALAR"},{"bufferView":21,"componentType":5126,"count":1,"max":[0.5,0.49496617913246155,0.4961092472076416],"min":[0.5,0.49496617913246155,0.4961092472076416],"type":"VEC3"},{"bufferView":22,"componentType":5126,"count":1,"max":[0],"min":[0],"type":"SCALAR"},{"bufferView":23,"componentType":5126,"count":1,"max":[1,1,1],"min":[1,1,1],"type":"VEC3"}]}