{"asset":{"version":"2.0","generator":"Blockbench 4.9.3 glTF exporter"},"scenes":[{"nodes":[10],"name":"blockbench_export"}],"scene":0,"nodes":[{"translation":[0.375,-0.6875,0],"name":"RightHand"},{"translation":[-0.375,0.7875000000000003,-0.5],"name":"R","children":[0]},{"translation":[0.017750109805700465,0.13652999398225718,0.9190812500000001],"name":"dvl10_boltback_7"},{"translation":[1.5624999993857358e-7,0.12573833475351304,-0.05026453511812046],"name":"dvl10_bullet"},{"translation":[0,-0.039720105586846355,0.7956074828815906],"name":"dvl10_mag_standard","children":[3]},{"translation":[0,0.10000000000000031,-1.0625],"name":"dvl10","children":[2,4]},{"translation":[-0.0625,0.02499999999999969,0],"name":"bone","children":[1,5]},{"translation":[-0.375,-0.6875,0],"name":"LeftHand"},{"translation":[0.3125,0.8125,-0.5],"name":"l","children":[7]},{"translation":[0.5625,0.375,1],"name":"bone2","children":[6,8]},{"children":[9]}],"animations":[{"name":"reload_norm","samplers":[{"input":0,"output":1,"interpolation":"LINEAR"},{"input":2,"output":3,"interpolation":"LINEAR"},{"input":4,"output":5,"interpolation":"LINEAR"},{"input":6,"output":7,"interpolation":"LINEAR"},{"input":8,"output":9,"interpolation":"LINEAR"},{"input":10,"output":11,"interpolation":"LINEAR"},{"input":12,"output":13,"interpolation":"LINEAR"},{"input":14,"output":15,"interpolation":"LINEAR"},{"input":16,"output":17,"interpolation":"LINEAR"},{"input":18,"output":19,"interpolation":"LINEAR"},{"input":20,"output":21,"interpolation":"LINEAR"},{"input":22,"output":23,"interpolation":"LINEAR"}],"channels":[{"sampler":0,"target":{"node":1,"path":"rotation"}},{"sampler":1,"target":{"node":1,"path":"translation"}},{"sampler":2,"target":{"node":1,"path":"scale"}},{"sampler":3,"target":{"node":8,"path":"rotation"}},{"sampler":4,"target":{"node":8,"path":"translation"}},{"sampler":5,"target":{"node":8,"path":"scale"}},{"sampler":6,"target":{"node":4,"path":"rotation"}},{"sampler":7,"target":{"node":4,"path":"translation"}},{"sampler":8,"target":{"node":9,"path":"rotation"}},{"sampler":9,"target":{"node":9,"path":"translation"}},{"sampler":10,"target":{"node":6,"path":"rotation"}},{"sampler":11,"target":{"node":6,"path":"translation"}}]}],"bufferViews":[{"buffer":0,"byteOffset":0,"byteLength":4},{"buffer":0,"byteOffset":4,"byteLength":16},{"buffer":0,"byteOffset":20,"byteLength":4},{"buffer":0,"byteOffset":24,"byteLength":12},{"buffer":0,"byteOffset":36,"byteLength":4},{"buffer":0,"byteOffset":40,"byteLength":12},{"buffer":0,"byteOffset":52,"byteLength":248},{"buffer":0,"byteOffset":300,"byteLength":992},{"buffer":0,"byteOffset":1292,"byteLength":248},{"buffer":0,"byteOffset":1540,"byteLength":744},{"buffer":0,"byteOffset":2284,"byteLength":4},{"buffer":0,"byteOffset":2288,"byteLength":12},{"buffer":0,"byteOffset":2300,"byteLength":116},{"buffer":0,"byteOffset":2416,"byteLength":464},{"buffer":0,"byteOffset":2880,"byteLength":116},{"buffer":0,"byteOffset":2996,"byteLength":348},{"buffer":0,"byteOffset":3344,"byteLength":260},{"buffer":0,"byteOffset":3604,"byteLength":1040},{"buffer":0,"byteOffset":4644,"byteLength":260},{"buffer":0,"byteOffset":4904,"byteLength":780},{"buffer":0,"byteOffset":5684,"byteLength":248},{"buffer":0,"byteOffset":5932,"byteLength":992},{"buffer":0,"byteOffset":6924,"byteLength":248},{"buffer":0,"byteOffset":7172,"byteLength":744}],"buffers":[{"byteLength":7916,"uri":"data:application/octet-stream;base64,"}],"accessors":[{"bufferView":0,"componentType":5126,"count":1,"max":[0],"min":[0],"type":"SCALAR"},{"bufferView":1,"componentType":5126,"count":1,"max":[-0.03079994022846222,0.7540208101272583,-0.6554051041603088,-0.030791671946644783],"min":[-0.03079994022846222,0.7540208101272583,-0.6554051041603088,-0.030791671946644783],"type":"VEC4"},{"bufferView":2,"componentType":5126,"count":1,"max":[0],"min":[0],"type":"SCALAR"},{"bufferView":3,"componentType":5126,"count":1,"max":[0.03125,-0.04062499850988388,-0.046875],"min":[0.03125,-0.04062499850988388,-0.046875],"type":"VEC3"},{"bufferView":4,"componentType":5126,"count":1,"max":[0],"min":[0],"type":"SCALAR"},{"bufferView":5,"componentType":5126,"count":1,"max":[1,1.5,1],"min":[1,1.5,1],"type":"VEC3"},{"bufferView":6,"componentType":5126,"count":62,"max":[2.625],"min":[0.0833333358168602],"type":"SCALAR"},{"bufferView":7,"componentType":5126,"count":62,"max":[0.0740671455860138,0.7624981999397278,-0.1779051274061203,0.6837307810783386],"min":[-0.38168570399284363,0.5493356585502625,-0.6659606099128723,0.2649112939834595],"type":"VEC4"},{"bufferView":8,"componentType":5126,"count":62,"max":[2.5833332538604736],"min":[0.0416666679084301],"type":"SCALAR"},{"bufferView":9,"componentType":5126,"count":62,"max":[-0.0031250000465661287,0.6331250071525574,-0.38374999165534973],"min":[-0.765625,-0.8681250214576721,-0.8125],"type":"VEC3"},{"bufferView":10,"componentType":5126,"count":1,"max":[0],"min":[0],"type":"SCALAR"},{"bufferView":11,"componentType":5126,"count":1,"max":[1,1.5,1],"min":[1,1.5,1],"type":"VEC3"},{"bufferView":12,"componentType":5126,"count":29,"max":[2.1666667461395264],"min":[1],"type":"SCALAR"},{"bufferView":13,"componentType":5126,"count":29,"max":[0,0,0,1],"min":[-0.4121427834033966,-0.175812765955925,-0.13453739881515503,0.8838143944740295],"type":"VEC4"},{"bufferView":14,"componentType":5126,"count":29,"max":[2.125],"min":[0.9583333134651184],"type":"SCALAR"},{"bufferView":15,"componentType":5126,"count":29,"max":[0.0037499999161809683,-0.03972010686993599,1.1006075143814087],"min":[-0.21687500178813934,-1.1940951347351074,0.7956075072288513],"type":"VEC3"},{"bufferView":16,"componentType":5126,"count":65,"max":[2.75],"min":[0.0833333358168602],"type":"SCALAR"},{"bufferView":17,"componentType":5126,"count":65,"max":[0.014521616511046886,0.008733781985938549,0.035155683755874634,1],"min":[-0.031165679916739464,-0.01964287832379341,-0.02425796166062355,0.9988836050033569],"type":"VEC4"},{"bufferView":18,"componentType":5126,"count":65,"max":[2.7083332538604736],"min":[0.0416666679084301],"type":"SCALAR"},{"bufferView":19,"componentType":5126,"count":65,"max":[0.574999988079071,0.3868750035762787,1.0231250524520874],"min":[0.5618749856948853,0.3606249988079071,0.9950000047683716],"type":"VEC3"},{"bufferView":20,"componentType":5126,"count":62,"max":[2.625],"min":[0.0833333358168602],"type":"SCALAR"},{"bufferView":21,"componentType":5126,"count":62,"max":[0.40456804633140564,0.166438028216362,0,1],"min":[0,0,-0.2041572630405426,0.8809354305267334],"type":"VEC4"},{"bufferView":22,"componentType":5126,"count":62,"max":[2.5833332538604736],"min":[0.0416666679084301],"type":"SCALAR"},{"bufferView":23,"componentType":5126,"count":62,"max":[-0.01875000074505806,0.025624999776482582,0.03687499836087227],"min":[-0.0625,-0.08874999731779099,-0.09062500298023224],"type":"VEC3"}]}