{"asset":{"version":"2.0","generator":"Blockbench 4.9.3 glTF exporter"},"scenes":[{"nodes":[10],"name":"blockbench_export"}],"scene":0,"nodes":[{"translation":[0.375,-0.6875,0],"name":"RightHand"},{"translation":[-0.375,0.7875000000000003,-0.5],"name":"R","children":[0]},{"translation":[0.017750109805700465,0.13652999398225718,0.9190812500000001],"name":"dvl10_boltback_7"},{"translation":[1.5624999993857358e-7,0.12573833475351304,-0.05026453511812046],"name":"dvl10_bullet"},{"translation":[0,-0.039720105586846355,0.7956074828815906],"name":"dvl10_mag_standard","children":[3]},{"translation":[0,0.10000000000000031,-1.0625],"name":"dvl10","children":[2,4]},{"translation":[-0.0625,0.02499999999999969,0],"name":"bone","children":[1,5]},{"translation":[-0.375,-0.6875,0],"name":"LeftHand"},{"translation":[0.3125,0.8125,-0.5],"name":"l","children":[7]},{"translation":[0.5625,0.375,1],"name":"bone2","children":[6,8]},{"children":[9]}],"animations":[{"name":"draw","samplers":[{"input":0,"output":1,"interpolation":"LINEAR"},{"input":2,"output":3,"interpolation":"LINEAR"},{"input":4,"output":5,"interpolation":"LINEAR"},{"input":6,"output":7,"interpolation":"LINEAR"},{"input":8,"output":9,"interpolation":"LINEAR"},{"input":10,"output":11,"interpolation":"LINEAR"},{"input":12,"output":13,"interpolation":"LINEAR"},{"input":14,"output":15,"interpolation":"LINEAR"}],"channels":[{"sampler":0,"target":{"node":1,"path":"rotation"}},{"sampler":1,"target":{"node":1,"path":"translation"}},{"sampler":2,"target":{"node":1,"path":"scale"}},{"sampler":3,"target":{"node":8,"path":"rotation"}},{"sampler":4,"target":{"node":8,"path":"translation"}},{"sampler":5,"target":{"node":8,"path":"scale"}},{"sampler":6,"target":{"node":9,"path":"rotation"}},{"sampler":7,"target":{"node":9,"path":"translation"}}]}],"bufferViews":[{"buffer":0,"byteOffset":0,"byteLength":4},{"buffer":0,"byteOffset":4,"byteLength":16},{"buffer":0,"byteOffset":20,"byteLength":4},{"buffer":0,"byteOffset":24,"byteLength":12},{"buffer":0,"byteOffset":36,"byteLength":4},{"buffer":0,"byteOffset":40,"byteLength":12},{"buffer":0,"byteOffset":52,"byteLength":4},{"buffer":0,"byteOffset":56,"byteLength":16},{"buffer":0,"byteOffset":72,"byteLength":4},{"buffer":0,"byteOffset":76,"byteLength":12},{"buffer":0,"byteOffset":88,"byteLength":4},{"buffer":0,"byteOffset":92,"byteLength":12},{"buffer":0,"byteOffset":104,"byteLength":116},{"buffer":0,"byteOffset":220,"byteLength":464},{"buffer":0,"byteOffset":684,"byteLength":116},{"buffer":0,"byteOffset":800,"byteLength":348}],"buffers":[{"byteLength":1148,"uri":"data:application/octet-stream;base64,"}],"accessors":[{"bufferView":0,"componentType":5126,"count":1,"max":[0],"min":[0],"type":"SCALAR"},{"bufferView":1,"componentType":5126,"count":1,"max":[-0.03079994022846222,0.7540208101272583,-0.6554051041603088,-0.030791671946644783],"min":[-0.03079994022846222,0.7540208101272583,-0.6554051041603088,-0.030791671946644783],"type":"VEC4"},{"bufferView":2,"componentType":5126,"count":1,"max":[0],"min":[0],"type":"SCALAR"},{"bufferView":3,"componentType":5126,"count":1,"max":[0.03125,-0.04062499850988388,-0.046875],"min":[0.03125,-0.04062499850988388,-0.046875],"type":"VEC3"},{"bufferView":4,"componentType":5126,"count":1,"max":[0],"min":[0],"type":"SCALAR"},{"bufferView":5,"componentType":5126,"count":1,"max":[1,1.5,1],"min":[1,1.5,1],"type":"VEC3"},{"bufferView":6,"componentType":5126,"count":1,"max":[0],"min":[0],"type":"SCALAR"},{"bufferView":7,"componentType":5126,"count":1,"max":[-0.35637035965919495,0.5493356585502625,-0.49745193123817444,0.5690097808837891],"min":[-0.35637035965919495,0.5493356585502625,-0.49745193123817444,0.5690097808837891],"type":"VEC4"},{"bufferView":8,"componentType":5126,"count":1,"max":[0],"min":[0],"type":"SCALAR"},{"bufferView":9,"componentType":5126,"count":1,"max":[-0.08749999850988388,0.1287499964237213,-0.8125],"min":[-0.08749999850988388,0.1287499964237213,-0.8125],"type":"VEC3"},{"bufferView":10,"componentType":5126,"count":1,"max":[0],"min":[0],"type":"SCALAR"},{"bufferView":11,"componentType":5126,"count":1,"max":[1,1.5,1],"min":[1,1.5,1],"type":"VEC3"},{"bufferView":12,"componentType":5126,"count":29,"max":[1.25],"min":[0.0833333358168602],"type":"SCALAR"},{"bufferView":13,"componentType":5126,"count":29,"max":[0.042856309562921524,0.4363500773906708,0.32214784622192383,1],"min":[-0.33775943517684937,-0.03748467192053795,-0.04554193466901779,0.7692450284957886],"type":"VEC4"},{"bufferView":14,"componentType":5126,"count":29,"max":[1.2083333730697632],"min":[0.0416666679084301],"type":"SCALAR"},{"bufferView":15,"componentType":5126,"count":29,"max":[0.5625,0.42875000834465027,1.25],"min":[0.5625,-0.25,0.8999999761581421],"type":"VEC3"}]}