{"asset":{"version":"2.0","generator":"Blockbench 4.9.3 glTF exporter"},"scenes":[{"nodes":[10],"name":"blockbench_export"}],"scene":0,"nodes":[{"translation":[0.375,-0.6875,0],"name":"RightHand"},{"translation":[-0.375,0.7875000000000003,-0.5],"name":"R","children":[0]},{"translation":[0.017750109805700465,0.13652999398225718,0.9190812500000001],"name":"dvl10_boltback_7"},{"translation":[1.5624999993857358e-7,0.12573833475351304,-0.05026453511812046],"name":"dvl10_bullet"},{"translation":[0,-0.039720105586846355,0.7956074828815906],"name":"dvl10_mag_standard","children":[3]},{"translation":[0,0.10000000000000031,-1.0625],"name":"dvl10","children":[2,4]},{"translation":[-0.0625,0.02499999999999969,0],"name":"bone","children":[1,5]},{"translation":[-0.375,-0.6875,0],"name":"LeftHand"},{"translation":[0.3125,0.8125,-0.5],"name":"l","children":[7]},{"translation":[0.5625,0.375,1],"name":"bone2","children":[6,8]},{"children":[9]}],"animations":[{"name":"inspect","samplers":[{"input":0,"output":1,"interpolation":"LINEAR"},{"input":2,"output":3,"interpolation":"LINEAR"},{"input":4,"output":5,"interpolation":"LINEAR"},{"input":6,"output":7,"interpolation":"LINEAR"},{"input":8,"output":9,"interpolation":"LINEAR"},{"input":10,"output":11,"interpolation":"LINEAR"},{"input":12,"output":13,"interpolation":"LINEAR"},{"input":14,"output":15,"interpolation":"LINEAR"},{"input":16,"output":17,"interpolation":"LINEAR"},{"input":18,"output":19,"interpolation":"LINEAR"},{"input":20,"output":21,"interpolation":"LINEAR"},{"input":22,"output":23,"interpolation":"LINEAR"},{"input":24,"output":25,"interpolation":"LINEAR"}],"channels":[{"sampler":0,"target":{"node":1,"path":"rotation"}},{"sampler":1,"target":{"node":1,"path":"translation"}},{"sampler":2,"target":{"node":1,"path":"scale"}},{"sampler":3,"target":{"node":8,"path":"rotation"}},{"sampler":4,"target":{"node":8,"path":"translation"}},{"sampler":5,"target":{"node":8,"path":"scale"}},{"sampler":6,"target":{"node":4,"path":"rotation"}},{"sampler":7,"target":{"node":4,"path":"translation"}},{"sampler":8,"target":{"node":9,"path":"rotation"}},{"sampler":9,"target":{"node":9,"path":"translation"}},{"sampler":10,"target":{"node":6,"path":"rotation"}},{"sampler":11,"target":{"node":6,"path":"translation"}},{"sampler":12,"target":{"node":3,"path":"scale"}}]}],"bufferViews":[{"buffer":0,"byteOffset":0,"byteLength":4},{"buffer":0,"byteOffset":4,"byteLength":16},{"buffer":0,"byteOffset":20,"byteLength":4},{"buffer":0,"byteOffset":24,"byteLength":12},{"buffer":0,"byteOffset":36,"byteLength":4},{"buffer":0,"byteOffset":40,"byteLength":12},{"buffer":0,"byteOffset":52,"byteLength":632},{"buffer":0,"byteOffset":684,"byteLength":2528},{"buffer":0,"byteOffset":3212,"byteLength":632},{"buffer":0,"byteOffset":3844,"byteLength":1896},{"buffer":0,"byteOffset":5740,"byteLength":4},{"buffer":0,"byteOffset":5744,"byteLength":12},{"buffer":0,"byteOffset":5756,"byteLength":196},{"buffer":0,"byteOffset":5952,"byteLength":784},{"buffer":0,"byteOffset":6736,"byteLength":196},{"buffer":0,"byteOffset":6932,"byteLength":588},{"buffer":0,"byteOffset":7520,"byteLength":692},{"buffer":0,"byteOffset":8212,"byteLength":2768},{"buffer":0,"byteOffset":10980,"byteLength":692},{"buffer":0,"byteOffset":11672,"byteLength":2076},{"buffer":0,"byteOffset":13748,"byteLength":416},{"buffer":0,"byteOffset":14164,"byteLength":1664},{"buffer":0,"byteOffset":15828,"byteLength":416},{"buffer":0,"byteOffset":16244,"byteLength":1248},{"buffer":0,"byteOffset":17492,"byteLength":8},{"buffer":0,"byteOffset":17500,"byteLength":24}],"buffers":[{"byteLength":17524,"uri":"data:application/octet-stream;base64,"}],"accessors":[{"bufferView":0,"componentType":5126,"count":1,"max":[0],"min":[0],"type":"SCALAR"},{"bufferView":1,"componentType":5126,"count":1,"max":[-0.03079994022846222,0.7540208101272583,-0.6554051041603088,-0.030791671946644783],"min":[-0.03079994022846222,0.7540208101272583,-0.6554051041603088,-0.030791671946644783],"type":"VEC4"},{"bufferView":2,"componentType":5126,"count":1,"max":[0],"min":[0],"type":"SCALAR"},{"bufferView":3,"componentType":5126,"count":1,"max":[0.03125,-0.04062499850988388,-0.046875],"min":[0.03125,-0.04062499850988388,-0.046875],"type":"VEC3"},{"bufferView":4,"componentType":5126,"count":1,"max":[0],"min":[0],"type":"SCALAR"},{"bufferView":5,"componentType":5126,"count":1,"max":[1,1.5,1],"min":[1,1.5,1],"type":"VEC3"},{"bufferView":6,"componentType":5126,"count":158,"max":[6.625],"min":[0.0833333358168602],"type":"SCALAR"},{"bufferView":7,"componentType":5126,"count":158,"max":[0.0740671455860138,0.7777042388916016,-0.1779051274061203,0.6837307810783386],"min":[-0.35637035965919495,0.5403949618339539,-0.7859650254249573,0.3003453016281128],"type":"VEC4"},{"bufferView":8,"componentType":5126,"count":158,"max":[6.583333492279053],"min":[0.0416666679084301],"type":"SCALAR"},{"bufferView":9,"componentType":5126,"count":158,"max":[-0.0031250000465661287,0.6337500214576721,-0.22624999284744263],"min":[-0.4699999988079071,-0.23624999821186066,-0.8962500095367432],"type":"VEC3"},{"bufferView":10,"componentType":5126,"count":1,"max":[0],"min":[0],"type":"SCALAR"},{"bufferView":11,"componentType":5126,"count":1,"max":[1,1.5,1],"min":[1,1.5,1],"type":"VEC3"},{"bufferView":12,"componentType":5126,"count":49,"max":[2.9583332538604736],"min":[0.9583333134651184],"type":"SCALAR"},{"bufferView":13,"componentType":5126,"count":49,"max":[0.10547375679016113,0,0.020546525716781616,1],"min":[-0.094156414270401,-0.23468820750713348,-0.1080474704504013,0.9614477157592773],"type":"VEC4"},{"bufferView":14,"componentType":5126,"count":49,"max":[2.9166667461395264],"min":[0.9166666865348816],"type":"SCALAR"},{"bufferView":15,"componentType":5126,"count":49,"max":[0.0031250000465661287,-0.03972010686993599,0.8824824690818787],"min":[-0.3812499940395355,-0.4859701097011566,0.7818574905395508],"type":"VEC3"},{"bufferView":16,"componentType":5126,"count":173,"max":[7.25],"min":[0.0833333358168602],"type":"SCALAR"},{"bufferView":17,"componentType":5126,"count":173,"max":[0.3005011975765228,0.044682517647743225,0.5693532228469849,1],"min":[-0.04980870708823204,-0.2828766107559204,-0.10085368156433105,0.7432377934455872],"type":"VEC4"},{"bufferView":18,"componentType":5126,"count":173,"max":[7.208333492279053],"min":[0.0416666679084301],"type":"SCALAR"},{"bufferView":19,"componentType":5126,"count":173,"max":[0.5643749833106995,0.38187500834465027,1.0018750429153442],"min":[0.515625,0.2874999940395355,0.8331249952316284],"type":"VEC3"},{"bufferView":20,"componentType":5126,"count":104,"max":[4.375],"min":[0.0833333358168602],"type":"SCALAR"},{"bufferView":21,"componentType":5126,"count":104,"max":[0.40456804633140564,0.13790614902973175,0,1],"min":[-0.03240562975406647,0,-0.2041572630405426,0.8809354305267334],"type":"VEC4"},{"bufferView":22,"componentType":5126,"count":104,"max":[4.333333492279053],"min":[0.0416666679084301],"type":"SCALAR"},{"bufferView":23,"componentType":5126,"count":104,"max":[-0.01875000074505806,0.025624999776482582,0.03687499836087227],"min":[-0.0625,-0.05999999865889549,-0.05999999865889549],"type":"VEC3"},{"bufferView":24,"componentType":5126,"count":2,"max":[0.0416666679084301],"min":[0],"type":"SCALAR"},{"bufferView":25,"componentType":5126,"count":2,"max":[1,1,1],"min":[0,0,0],"type":"VEC3"}]}