{"asset":{"version":"2.0","generator":"Blockbench 4.9.3 glTF exporter"},"scenes":[{"nodes":[10],"name":"blockbench_export"}],"scene":0,"nodes":[{"translation":[0.375,-0.6875,0],"name":"RightHand"},{"translation":[-0.375,0.7875000000000003,-0.5],"name":"R","children":[0]},{"translation":[0.017750109805700465,0.13652999398225718,0.9190812500000001],"name":"dvl10_boltback_7"},{"translation":[1.5624999993857358e-7,0.12573833475351304,-0.05026453511812046],"name":"dvl10_bullet"},{"translation":[0,-0.039720105586846355,0.7956074828815906],"name":"dvl10_mag_standard","children":[3]},{"translation":[0,0.10000000000000031,-1.0625],"name":"dvl10","children":[2,4]},{"translation":[-0.0625,0.02499999999999969,0],"name":"bone","children":[1,5]},{"translation":[-0.375,-0.6875,0],"name":"LeftHand"},{"translation":[0.3125,0.8125,-0.5],"name":"l","children":[7]},{"translation":[0.5625,0.375,1],"name":"bone2","children":[6,8]},{"children":[9]}],"animations":[{"name":"reload_empty","samplers":[{"input":0,"output":1,"interpolation":"LINEAR"},{"input":2,"output":3,"interpolation":"LINEAR"},{"input":4,"output":5,"interpolation":"LINEAR"},{"input":6,"output":7,"interpolation":"LINEAR"},{"input":8,"output":9,"interpolation":"LINEAR"},{"input":10,"output":11,"interpolation":"LINEAR"},{"input":12,"output":13,"interpolation":"LINEAR"},{"input":14,"output":15,"interpolation":"LINEAR"},{"input":16,"output":17,"interpolation":"LINEAR"},{"input":18,"output":19,"interpolation":"LINEAR"},{"input":20,"output":21,"interpolation":"LINEAR"},{"input":22,"output":23,"interpolation":"LINEAR"},{"input":24,"output":25,"interpolation":"LINEAR"},{"input":26,"output":27,"interpolation":"LINEAR"},{"input":28,"output":29,"interpolation":"LINEAR"}],"channels":[{"sampler":0,"target":{"node":1,"path":"rotation"}},{"sampler":1,"target":{"node":1,"path":"translation"}},{"sampler":2,"target":{"node":1,"path":"scale"}},{"sampler":3,"target":{"node":8,"path":"rotation"}},{"sampler":4,"target":{"node":8,"path":"translation"}},{"sampler":5,"target":{"node":8,"path":"scale"}},{"sampler":6,"target":{"node":4,"path":"rotation"}},{"sampler":7,"target":{"node":4,"path":"translation"}},{"sampler":8,"target":{"node":9,"path":"rotation"}},{"sampler":9,"target":{"node":9,"path":"translation"}},{"sampler":10,"target":{"node":6,"path":"rotation"}},{"sampler":11,"target":{"node":6,"path":"translation"}},{"sampler":12,"target":{"node":2,"path":"rotation"}},{"sampler":13,"target":{"node":2,"path":"translation"}},{"sampler":14,"target":{"node":3,"path":"scale"}}]}],"bufferViews":[{"buffer":0,"byteOffset":0,"byteLength":124},{"buffer":0,"byteOffset":124,"byteLength":496},{"buffer":0,"byteOffset":620,"byteLength":124},{"buffer":0,"byteOffset":744,"byteLength":372},{"buffer":0,"byteOffset":1116,"byteLength":4},{"buffer":0,"byteOffset":1120,"byteLength":12},{"buffer":0,"byteOffset":1132,"byteLength":420},{"buffer":0,"byteOffset":1552,"byteLength":1680},{"buffer":0,"byteOffset":3232,"byteLength":420},{"buffer":0,"byteOffset":3652,"byteLength":1260},{"buffer":0,"byteOffset":4912,"byteLength":4},{"buffer":0,"byteOffset":4916,"byteLength":12},{"buffer":0,"byteOffset":4928,"byteLength":116},{"buffer":0,"byteOffset":5044,"byteLength":464},{"buffer":0,"byteOffset":5508,"byteLength":116},{"buffer":0,"byteOffset":5624,"byteLength":348},{"buffer":0,"byteOffset":5972,"byteLength":412},{"buffer":0,"byteOffset":6384,"byteLength":1648},{"buffer":0,"byteOffset":8032,"byteLength":412},{"buffer":0,"byteOffset":8444,"byteLength":1236},{"buffer":0,"byteOffset":9680,"byteLength":420},{"buffer":0,"byteOffset":10100,"byteLength":1680},{"buffer":0,"byteOffset":11780,"byteLength":420},{"buffer":0,"byteOffset":12200,"byteLength":1260},{"buffer":0,"byteOffset":13460,"byteLength":72},{"buffer":0,"byteOffset":13532,"byteLength":288},{"buffer":0,"byteOffset":13820,"byteLength":48},{"buffer":0,"byteOffset":13868,"byteLength":144},{"buffer":0,"byteOffset":14012,"byteLength":140},{"buffer":0,"byteOffset":14152,"byteLength":420}],"buffers":[{"byteLength":14572,"uri":"data:application/octet-stream;base64,"}],"accessors":[{"bufferView":0,"componentType":5126,"count":31,"max":[4.125],"min":[2.875],"type":"SCALAR"},{"bufferView":1,"componentType":5126,"count":31,"max":[0.15467137098312378,0.9158738255500793,-0.2703167498111725,-0.030791671946644783],"min":[-0.03079994022846222,0.7540208101272583,-0.6554051041603088,-0.29880082607269287],"type":"VEC4"},{"bufferView":2,"componentType":5126,"count":31,"max":[4.083333492279053],"min":[2.8333332538604736],"type":"SCALAR"},{"bufferView":3,"componentType":5126,"count":31,"max":[0.19312499463558197,0.20937499403953552,0.3787499964237213],"min":[0.03125,-0.04062499850988388,-0.16062499582767487],"type":"VEC3"},{"bufferView":4,"componentType":5126,"count":1,"max":[0],"min":[0],"type":"SCALAR"},{"bufferView":5,"componentType":5126,"count":1,"max":[1,1.5,1],"min":[1,1.5,1],"type":"VEC3"},{"bufferView":6,"componentType":5126,"count":105,"max":[4.416666507720947],"min":[0.0833333358168602],"type":"SCALAR"},{"bufferView":7,"componentType":5126,"count":105,"max":[0.0740671455860138,0.7624981999397278,-0.1779051274061203,0.6837307810783386],"min":[-0.38168570399284363,0.5493356585502625,-0.6659606099128723,0.2649112939834595],"type":"VEC4"},{"bufferView":8,"componentType":5126,"count":105,"max":[4.375],"min":[0.0416666679084301],"type":"SCALAR"},{"bufferView":9,"componentType":5126,"count":105,"max":[-0.0031250000465661287,0.6331250071525574,-0.38374999165534973],"min":[-0.765625,-0.8681250214576721,-0.8125],"type":"VEC3"},{"bufferView":10,"componentType":5126,"count":1,"max":[0],"min":[0],"type":"SCALAR"},{"bufferView":11,"componentType":5126,"count":1,"max":[1,1.5,1],"min":[1,1.5,1],"type":"VEC3"},{"bufferView":12,"componentType":5126,"count":29,"max":[2.1666667461395264],"min":[1],"type":"SCALAR"},{"bufferView":13,"componentType":5126,"count":29,"max":[0,0,0,1],"min":[-0.4121427834033966,-0.175812765955925,-0.13453739881515503,0.8838143944740295],"type":"VEC4"},{"bufferView":14,"componentType":5126,"count":29,"max":[2.125],"min":[0.9583333134651184],"type":"SCALAR"},{"bufferView":15,"componentType":5126,"count":29,"max":[0.0037499999161809683,-0.03972010686993599,1.1006075143814087],"min":[-0.21687500178813934,-1.1940951347351074,0.7956075072288513],"type":"VEC3"},{"bufferView":16,"componentType":5126,"count":103,"max":[4.333333492279053],"min":[0.0833333358168602],"type":"SCALAR"},{"bufferView":17,"componentType":5126,"count":103,"max":[0.15495441854000092,0.008733781985938549,0.36214756965637207,1],"min":[-0.031165679916739464,-0.20435623824596405,-0.05295434594154358,0.9092440605163574],"type":"VEC4"},{"bufferView":18,"componentType":5126,"count":103,"max":[4.291666507720947],"min":[0.0416666679084301],"type":"SCALAR"},{"bufferView":19,"componentType":5126,"count":103,"max":[0.5762500166893005,0.38999998569488525,1.081874966621399],"min":[0.5618749856948853,0.3362500071525574,0.9893749952316284],"type":"VEC3"},{"bufferView":20,"componentType":5126,"count":105,"max":[4.416666507720947],"min":[0.0833333358168602],"type":"SCALAR"},{"bufferView":21,"componentType":5126,"count":105,"max":[0.40456804633140564,0.166438028216362,0,1],"min":[0,0,-0.2041572630405426,0.8809354305267334],"type":"VEC4"},{"bufferView":22,"componentType":5126,"count":105,"max":[4.375],"min":[0.0416666679084301],"type":"SCALAR"},{"bufferView":23,"componentType":5126,"count":105,"max":[-0.01875000074505806,0.025624999776482582,0.03687499836087227],"min":[-0.0625,-0.08874999731779099,-0.09062500298023224],"type":"VEC3"},{"bufferView":24,"componentType":5126,"count":18,"max":[3.8333332538604736],"min":[3.125],"type":"SCALAR"},{"bufferView":25,"componentType":5126,"count":18,"max":[0,0,0.591309666633606,1],"min":[0,0,0,0.8064445853233337],"type":"VEC4"},{"bufferView":26,"componentType":5126,"count":12,"max":[3.75],"min":[3.2916667461395264],"type":"SCALAR"},{"bufferView":27,"componentType":5126,"count":12,"max":[0.01775011047720909,0.13652999699115753,1.356581211090088],"min":[0.01775011047720909,0.13652999699115753,0.9190812706947327],"type":"VEC3"},{"bufferView":28,"componentType":5126,"count":35,"max":[1.5],"min":[0.0833333358168602],"type":"SCALAR"},{"bufferView":29,"componentType":5126,"count":35,"max":[1,1,1],"min":[0,0,0],"type":"VEC3"}]}