{"asset":{"version":"2.0","generator":"Blockbench 4.9.3 glTF exporter"},"scenes":[{"nodes":[10],"name":"blockbench_export"}],"scene":0,"nodes":[{"translation":[0.375,-0.6875,0],"name":"RightHand"},{"translation":[-0.375,0.7875000000000003,-0.5],"name":"R","children":[0]},{"translation":[0.017750109805700465,0.13652999398225718,0.9190812500000001],"name":"dvl10_boltback_7"},{"translation":[1.5624999993857358e-7,0.12573833475351304,-0.05026453511812046],"name":"dvl10_bullet"},{"translation":[0,-0.039720105586846355,0.7956074828815906],"name":"dvl10_mag_standard","children":[3]},{"translation":[0,0.10000000000000031,-1.0625],"name":"dvl10","children":[2,4]},{"translation":[-0.0625,0.02499999999999969,0],"name":"bone","children":[1,5]},{"translation":[-0.375,-0.6875,0],"name":"LeftHand"},{"translation":[0.3125,0.8125,-0.5],"name":"l","children":[7]},{"translation":[0.5625,0.375,1],"name":"bone2","children":[6,8]},{"children":[9]}],"animations":[{"name":"bolt","samplers":[{"input":0,"output":1,"interpolation":"LINEAR"},{"input":2,"output":3,"interpolation":"LINEAR"},{"input":4,"output":5,"interpolation":"LINEAR"},{"input":6,"output":7,"interpolation":"LINEAR"},{"input":8,"output":9,"interpolation":"LINEAR"},{"input":10,"output":11,"interpolation":"LINEAR"},{"input":12,"output":13,"interpolation":"LINEAR"},{"input":14,"output":15,"interpolation":"LINEAR"},{"input":16,"output":17,"interpolation":"LINEAR"},{"input":18,"output":19,"interpolation":"LINEAR"},{"input":20,"output":21,"interpolation":"LINEAR"},{"input":22,"output":23,"interpolation":"LINEAR"},{"input":24,"output":25,"interpolation":"LINEAR"}],"channels":[{"sampler":0,"target":{"node":1,"path":"rotation"}},{"sampler":1,"target":{"node":1,"path":"translation"}},{"sampler":2,"target":{"node":1,"path":"scale"}},{"sampler":3,"target":{"node":8,"path":"rotation"}},{"sampler":4,"target":{"node":8,"path":"translation"}},{"sampler":5,"target":{"node":8,"path":"scale"}},{"sampler":6,"target":{"node":9,"path":"rotation"}},{"sampler":7,"target":{"node":9,"path":"translation"}},{"sampler":8,"target":{"node":2,"path":"rotation"}},{"sampler":9,"target":{"node":2,"path":"translation"}},{"sampler":10,"target":{"node":3,"path":"rotation"}},{"sampler":11,"target":{"node":3,"path":"translation"}},{"sampler":12,"target":{"node":3,"path":"scale"}}]}],"bufferViews":[{"buffer":0,"byteOffset":0,"byteLength":116},{"buffer":0,"byteOffset":116,"byteLength":464},{"buffer":0,"byteOffset":580,"byteLength":116},{"buffer":0,"byteOffset":696,"byteLength":348},{"buffer":0,"byteOffset":1044,"byteLength":4},{"buffer":0,"byteOffset":1048,"byteLength":12},{"buffer":0,"byteOffset":1060,"byteLength":4},{"buffer":0,"byteOffset":1064,"byteLength":16},{"buffer":0,"byteOffset":1080,"byteLength":4},{"buffer":0,"byteOffset":1084,"byteLength":12},{"buffer":0,"byteOffset":1096,"byteLength":4},{"buffer":0,"byteOffset":1100,"byteLength":12},{"buffer":0,"byteOffset":1112,"byteLength":116},{"buffer":0,"byteOffset":1228,"byteLength":464},{"buffer":0,"byteOffset":1692,"byteLength":116},{"buffer":0,"byteOffset":1808,"byteLength":348},{"buffer":0,"byteOffset":2156,"byteLength":72},{"buffer":0,"byteOffset":2228,"byteLength":288},{"buffer":0,"byteOffset":2516,"byteLength":40},{"buffer":0,"byteOffset":2556,"byteLength":120},{"buffer":0,"byteOffset":2676,"byteLength":68},{"buffer":0,"byteOffset":2744,"byteLength":272},{"buffer":0,"byteOffset":3016,"byteLength":72},{"buffer":0,"byteOffset":3088,"byteLength":216},{"buffer":0,"byteOffset":3304,"byteLength":36},{"buffer":0,"byteOffset":3340,"byteLength":108}],"buffers":[{"byteLength":3448,"uri":"data:application/octet-stream;base64,"}],"accessors":[{"bufferView":0,"componentType":5126,"count":29,"max":[1.25],"min":[0.0833333358168602],"type":"SCALAR"},{"bufferView":1,"componentType":5126,"count":29,"max":[-0.03079994022846222,0.8225418925285339,-0.24242620170116425,0.43849822878837585],"min":[-0.4121384620666504,0.7206243276596069,-0.6554051041603088,-0.030791671946644783],"type":"VEC4"},{"bufferView":2,"componentType":5126,"count":29,"max":[1.2083333730697632],"min":[0.0416666679084301],"type":"SCALAR"},{"bufferView":3,"componentType":5126,"count":29,"max":[0.2775000035762787,0.2849999964237213,0.2693749964237213],"min":[0.03125,-0.04062499850988388,-0.17937499284744263],"type":"VEC3"},{"bufferView":4,"componentType":5126,"count":1,"max":[0],"min":[0],"type":"SCALAR"},{"bufferView":5,"componentType":5126,"count":1,"max":[1,1.5,1],"min":[1,1.5,1],"type":"VEC3"},{"bufferView":6,"componentType":5126,"count":1,"max":[0],"min":[0],"type":"SCALAR"},{"bufferView":7,"componentType":5126,"count":1,"max":[-0.35637035965919495,0.5493356585502625,-0.49745193123817444,0.5690097808837891],"min":[-0.35637035965919495,0.5493356585502625,-0.49745193123817444,0.5690097808837891],"type":"VEC4"},{"bufferView":8,"componentType":5126,"count":1,"max":[0],"min":[0],"type":"SCALAR"},{"bufferView":9,"componentType":5126,"count":1,"max":[-0.08749999850988388,0.1287499964237213,-0.8125],"min":[-0.08749999850988388,0.1287499964237213,-0.8125],"type":"VEC3"},{"bufferView":10,"componentType":5126,"count":1,"max":[0],"min":[0],"type":"SCALAR"},{"bufferView":11,"componentType":5126,"count":1,"max":[1,1.5,1],"min":[1,1.5,1],"type":"VEC3"},{"bufferView":12,"componentType":5126,"count":29,"max":[1.25],"min":[0.0833333358168602],"type":"SCALAR"},{"bufferView":13,"componentType":5126,"count":29,"max":[0.09960468858480453,0.00033693708246573806,0.0849919468164444,1],"min":[0,-0.02325279265642166,-0.08557520806789398,0.9942483901977539],"type":"VEC4"},{"bufferView":14,"componentType":5126,"count":29,"max":[1.2083333730697632],"min":[0.0416666679084301],"type":"SCALAR"},{"bufferView":15,"componentType":5126,"count":29,"max":[0.5625,0.3893750011920929,1.1087499856948853],"min":[0.5625,0.32499998807907104,0.9662500023841858],"type":"VEC3"},{"bufferView":16,"componentType":5126,"count":18,"max":[0.9583333134651184],"min":[0.25],"type":"SCALAR"},{"bufferView":17,"componentType":5126,"count":18,"max":[0,0,0.6259234547615051,1],"min":[0,0,0,0.7798844575881958],"type":"VEC4"},{"bufferView":18,"componentType":5126,"count":10,"max":[0.7916666865348816],"min":[0.4166666567325592],"type":"SCALAR"},{"bufferView":19,"componentType":5126,"count":10,"max":[0.01775011047720909,0.13652999699115753,1.356581211090088],"min":[0.01775011047720909,0.13652999699115753,0.9190812706947327],"type":"VEC3"},{"bufferView":20,"componentType":5126,"count":17,"max":[1.2083333730697632],"min":[0.5416666865348816],"type":"SCALAR"},{"bufferView":21,"componentType":5126,"count":17,"max":[0.5482162833213806,0,0.5155529379844666,1],"min":[-0.4357452988624573,-0.9864259362220764,-0.2918422222137451,0.08858700841665268],"type":"VEC4"},{"bufferView":22,"componentType":5126,"count":18,"max":[1.2083333730697632],"min":[0.5],"type":"SCALAR"},{"bufferView":23,"componentType":5126,"count":18,"max":[1.1875001192092896,0.6257383227348328,0.19973546266555786],"min":[1.56249996052793e-7,0.12573833763599396,-0.05026453360915184],"type":"VEC3"},{"bufferView":24,"componentType":5126,"count":9,"max":[1.2083333730697632],"min":[0.875],"type":"SCALAR"},{"bufferView":25,"componentType":5126,"count":9,"max":[1,1,1],"min":[0,0,0],"type":"VEC3"}]}