{"asset":{"version":"2.0","generator":"Blockbench 4.8.3 glTF exporter"},"scenes":[{"nodes":[11],"name":"blockbench_export"}],"scene":0,"nodes":[{"translation":[0.375,-0.6875,0],"name":"RightHand"},{"translation":[-0.375,0.7591796875000003,-0.625],"name":"R","children":[0]},{"translation":[-5.952380955354108e-7,2.338450078021026e-8,-0.17968446750588252],"name":"bullet_head"},{"translation":[-0.0000025297619045128172,0.05664060161549922,0.24267274875588252],"name":"bullet","children":[2]},{"translation":[0,0.18505859375,-0.60595703125],"name":"upper","children":[3]},{"translation":[0.0000031302154066548127,0.17727776772839654,-0.04133386566273023],"name":"hammer"},{"translation":[0,0.01748046875000031,-0.15234375],"name":"encore","children":[4,5]},{"translation":[0,0.06113281249999969,0],"name":"bone","children":[1,6]},{"translation":[-0.375,-0.6875,0],"name":"LeftHand"},{"translation":[0.375,0.8203125,-0.625],"name":"l","children":[8]},{"translation":[0.5,0.3671875,1.125],"name":"bone2","children":[7,9]},{"children":[10]}],"animations":[{"name":"reload","samplers":[{"input":0,"output":1,"interpolation":"LINEAR"},{"input":2,"output":3,"interpolation":"LINEAR"},{"input":4,"output":5,"interpolation":"LINEAR"},{"input":6,"output":7,"interpolation":"LINEAR"},{"input":8,"output":9,"interpolation":"LINEAR"},{"input":10,"output":11,"interpolation":"LINEAR"},{"input":12,"output":13,"interpolation":"LINEAR"},{"input":14,"output":15,"interpolation":"LINEAR"},{"input":16,"output":17,"interpolation":"LINEAR"},{"input":18,"output":19,"interpolation":"LINEAR"},{"input":20,"output":21,"interpolation":"LINEAR"},{"input":22,"output":23,"interpolation":"LINEAR"},{"input":24,"output":25,"interpolation":"LINEAR"},{"input":26,"output":27,"interpolation":"LINEAR"},{"input":28,"output":29,"interpolation":"LINEAR"},{"input":30,"output":31,"interpolation":"LINEAR"},{"input":32,"output":33,"interpolation":"LINEAR"},{"input":34,"output":35,"interpolation":"LINEAR"},{"input":36,"output":37,"interpolation":"LINEAR"}],"channels":[{"sampler":0,"target":{"node":6,"path":"rotation"}},{"sampler":1,"target":{"node":6,"path":"translation"}},{"sampler":2,"target":{"node":5,"path":"rotation"}},{"sampler":3,"target":{"node":1,"path":"rotation"}},{"sampler":4,"target":{"node":1,"path":"translation"}},{"sampler":5,"target":{"node":1,"path":"scale"}},{"sampler":6,"target":{"node":9,"path":"rotation"}},{"sampler":7,"target":{"node":9,"path":"translation"}},{"sampler":8,"target":{"node":9,"path":"scale"}},{"sampler":9,"target":{"node":4,"path":"rotation"}},{"sampler":10,"target":{"node":4,"path":"translation"}},{"sampler":11,"target":{"node":3,"path":"rotation"}},{"sampler":12,"target":{"node":3,"path":"translation"}},{"sampler":13,"target":{"node":3,"path":"scale"}},{"sampler":14,"target":{"node":10,"path":"rotation"}},{"sampler":15,"target":{"node":10,"path":"translation"}},{"sampler":16,"target":{"node":7,"path":"rotation"}},{"sampler":17,"target":{"node":7,"path":"translation"}},{"sampler":18,"target":{"node":2,"path":"scale"}}]}],"bufferViews":[{"buffer":0,"byteOffset":0,"byteLength":52},{"buffer":0,"byteOffset":52,"byteLength":208},{"buffer":0,"byteOffset":260,"byteLength":4},{"buffer":0,"byteOffset":264,"byteLength":12},{"buffer":0,"byteOffset":276,"byteLength":12},{"buffer":0,"byteOffset":288,"byteLength":48},{"buffer":0,"byteOffset":336,"byteLength":4},{"buffer":0,"byteOffset":340,"byteLength":16},{"buffer":0,"byteOffset":356,"byteLength":4},{"buffer":0,"byteOffset":360,"byteLength":12},{"buffer":0,"byteOffset":372,"byteLength":4},{"buffer":0,"byteOffset":376,"byteLength":12},{"buffer":0,"byteOffset":388,"byteLength":60},{"buffer":0,"byteOffset":448,"byteLength":240},{"buffer":0,"byteOffset":688,"byteLength":56},{"buffer":0,"byteOffset":744,"byteLength":168},{"buffer":0,"byteOffset":912,"byteLength":4},{"buffer":0,"byteOffset":916,"byteLength":12},{"buffer":0,"byteOffset":928,"byteLength":28},{"buffer":0,"byteOffset":956,"byteLength":112},{"buffer":0,"byteOffset":1068,"byteLength":4},{"buffer":0,"byteOffset":1072,"byteLength":12},{"buffer":0,"byteOffset":1084,"byteLength":28},{"buffer":0,"byteOffset":1112,"byteLength":112},{"buffer":0,"byteOffset":1224,"byteLength":24},{"buffer":0,"byteOffset":1248,"byteLength":72},{"buffer":0,"byteOffset":1320,"byteLength":16},{"buffer":0,"byteOffset":1336,"byteLength":48},{"buffer":0,"byteOffset":1384,"byteLength":4},{"buffer":0,"byteOffset":1388,"byteLength":16},{"buffer":0,"byteOffset":1404,"byteLength":4},{"buffer":0,"byteOffset":1408,"byteLength":12},{"buffer":0,"byteOffset":1420,"byteLength":96},{"buffer":0,"byteOffset":1516,"byteLength":384},{"buffer":0,"byteOffset":1900,"byteLength":96},{"buffer":0,"byteOffset":1996,"byteLength":288},{"buffer":0,"byteOffset":2284,"byteLength":12},{"buffer":0,"byteOffset":2296,"byteLength":36}],"buffers":[{"byteLength":2332,"uri":"data:application/octet-stream;base64,"}],"accessors":[{"bufferView":0,"componentType":5126,"count":13,"max":[1.5833333730697632],"min":[0.0833333358168602],"type":"SCALAR"},{"bufferView":1,"componentType":5126,"count":13,"max":[0.07408309727907181,0.13014358282089233,0.055232781916856766,1],"min":[-0.017384959384799004,-0.03615402802824974,-0.06091223284602165,0.989802896976471],"type":"VEC4"},{"bufferView":2,"componentType":5126,"count":1,"max":[0.0416666679084301],"min":[0.0416666679084301],"type":"SCALAR"},{"bufferView":3,"componentType":5126,"count":1,"max":[0,0.01748046837747097,-0.15234375],"min":[0,0.01748046837747097,-0.15234375],"type":"VEC3"},{"bufferView":4,"componentType":5126,"count":3,"max":[2.0416667461395264],"min":[0.0833333358168602],"type":"SCALAR"},{"bufferView":5,"componentType":5126,"count":3,"max":[0.3420201539993286,0,0,1],"min":[0,0,0,0.9396926164627075],"type":"VEC4"},{"bufferView":6,"componentType":5126,"count":1,"max":[0.0416666679084301],"min":[0.0416666679084301],"type":"SCALAR"},{"bufferView":7,"componentType":5126,"count":1,"max":[0.03842166066169739,-0.7327268719673157,0.6793690323829651,0.00963514018803835],"min":[0.03842166066169739,-0.7327268719673157,0.6793690323829651,0.00963514018803835],"type":"VEC4"},{"bufferView":8,"componentType":5126,"count":1,"max":[0.0416666679084301],"min":[0.0416666679084301],"type":"SCALAR"},{"bufferView":9,"componentType":5126,"count":1,"max":[0.01025390625,-0.13876953721046448,-0.16455078125],"min":[0.01025390625,-0.13876953721046448,-0.16455078125],"type":"VEC3"},{"bufferView":10,"componentType":5126,"count":1,"max":[0.0416666679084301],"min":[0.0416666679084301],"type":"SCALAR"},{"bufferView":11,"componentType":5126,"count":1,"max":[1.75,2,1.75],"min":[1.75,2,1.75],"type":"VEC3"},{"bufferView":12,"componentType":5126,"count":15,"max":[2.4583332538604736],"min":[0.0833333358168602],"type":"SCALAR"},{"bufferView":13,"componentType":5126,"count":15,"max":[0.24736416339874268,0.9693740606307983,-0.19478078186511993,0.14271165430545807],"min":[-0.052735961973667145,0.32799801230430603,-0.9073212742805481,-0.04172562435269356],"type":"VEC4"},{"bufferView":14,"componentType":5126,"count":14,"max":[2.4166667461395264],"min":[0.0416666679084301],"type":"SCALAR"},{"bufferView":15,"componentType":5126,"count":14,"max":[-0.23375000059604645,0.6283203363418579,0.012988281436264515],"min":[-1.0893750190734863,-1.5185546875,-0.31562501192092896],"type":"VEC3"},{"bufferView":16,"componentType":5126,"count":1,"max":[0.0416666679084301],"min":[0.0416666679084301],"type":"SCALAR"},{"bufferView":17,"componentType":5126,"count":1,"max":[1.75,2,1.75],"min":[1.75,2,1.75],"type":"VEC3"},{"bufferView":18,"componentType":5126,"count":7,"max":[1.4583333730697632],"min":[0.2916666567325592],"type":"SCALAR"},{"bufferView":19,"componentType":5126,"count":7,"max":[0,0,0,1],"min":[-0.424594521522522,0,0,0.9053836464881897],"type":"VEC4"},{"bufferView":20,"componentType":5126,"count":1,"max":[0.25],"min":[0.25],"type":"SCALAR"},{"bufferView":21,"componentType":5126,"count":1,"max":[0,0.18505859375,-0.60595703125],"min":[0,0.18505859375,-0.60595703125],"type":"VEC3"},{"bufferView":22,"componentType":5126,"count":7,"max":[1.0833333730697632],"min":[0.0833333358168602],"type":"SCALAR"},{"bufferView":23,"componentType":5126,"count":7,"max":[0.5127643942832947,0,0.11443465948104858,1],"min":[-0.7519606351852417,-0.48004528880119324,-0.43988046050071716,0.5460449457168579],"type":"VEC4"},{"bufferView":24,"componentType":5126,"count":6,"max":[1.0416666269302368],"min":[0.0416666679084301],"type":"SCALAR"},{"bufferView":25,"componentType":5126,"count":6,"max":[0.7026342153549194,0.05664060264825821,1.4716767072677612],"min":[-0.9996509552001953,-0.6157617568969727,-0.22340147197246552],"type":"VEC3"},{"bufferView":26,"componentType":5126,"count":4,"max":[0.75],"min":[0.5],"type":"SCALAR"},{"bufferView":27,"componentType":5126,"count":4,"max":[1,1,1],"min":[0,0,0],"type":"VEC3"},{"bufferView":28,"componentType":5126,"count":1,"max":[0.0416666679084301],"min":[0.0416666679084301],"type":"SCALAR"},{"bufferView":29,"componentType":5126,"count":1,"max":[0,0,0,1],"min":[0,0,0,1],"type":"VEC4"},{"bufferView":30,"componentType":5126,"count":1,"max":[0.0416666679084301],"min":[0.0416666679084301],"type":"SCALAR"},{"bufferView":31,"componentType":5126,"count":1,"max":[0.5,0.3671875,1.125],"min":[0.5,0.3671875,1.125],"type":"VEC3"},{"bufferView":32,"componentType":5126,"count":24,"max":[2.4583332538604736],"min":[0.0833333358168602],"type":"SCALAR"},{"bufferView":33,"componentType":5126,"count":24,"max":[0.1781390905380249,0.027396857738494873,0.21406683325767517,1],"min":[-0.1363491266965866,-0.056199971586465836,-0.1360120326280594,0.9764097929000854],"type":"VEC4"},{"bufferView":34,"componentType":5126,"count":24,"max":[2.4166667461395264],"min":[0.0416666679084301],"type":"SCALAR"},{"bufferView":35,"componentType":5126,"count":24,"max":[0.004999999888241291,0.3042968809604645,0.2740429639816284],"min":[0,0.00927734375,-0.0400390625],"type":"VEC3"},{"bufferView":36,"componentType":5126,"count":3,"max":[0.75],"min":[0.0416666679084301],"type":"SCALAR"},{"bufferView":37,"componentType":5126,"count":3,"max":[1,1,1],"min":[0,0,0],"type":"VEC3"}]}