{"asset":{"version":"2.0","generator":"Blockbench 4.9.0 glTF exporter"},"scenes":[{"nodes":[11],"name":"blockbench_export"}],"scene":0,"nodes":[{"translation":[0.375,-0.6875,0],"name":"RightHand"},{"translation":[-0.375,0.7591796875000003,-0.625],"name":"R","children":[0]},{"translation":[-5.952380955354108e-7,2.338450078021026e-8,-0.17968446750588252],"name":"bullet_head"},{"translation":[-0.0000025297619045128172,0.05664060161549922,0.24267274875588252],"name":"bullet","children":[2]},{"translation":[0,0.18505859375,-0.60595703125],"name":"upper","children":[3]},{"translation":[0.0000031302154066548127,0.17727776772839654,-0.04133386566273023],"name":"hammer"},{"translation":[0,0.01748046875000031,-0.15234375],"name":"encore","children":[4,5]},{"translation":[0,0.06113281249999969,0],"name":"bone","children":[1,6]},{"translation":[-0.375,-0.6875,0],"name":"LeftHand"},{"translation":[0.375,0.8203125,-0.625],"name":"l","children":[8]},{"translation":[0.5,0.3671875,1.125],"name":"bone2","children":[7,9]},{"children":[10]}],"animations":[{"name":"fire","samplers":[{"input":0,"output":1,"interpolation":"LINEAR"},{"input":2,"output":3,"interpolation":"LINEAR"},{"input":4,"output":5,"interpolation":"LINEAR"},{"input":6,"output":7,"interpolation":"LINEAR"},{"input":8,"output":9,"interpolation":"LINEAR"},{"input":10,"output":11,"interpolation":"LINEAR"},{"input":12,"output":13,"interpolation":"LINEAR"},{"input":14,"output":15,"interpolation":"LINEAR"},{"input":16,"output":17,"interpolation":"LINEAR"},{"input":18,"output":19,"interpolation":"LINEAR"},{"input":20,"output":21,"interpolation":"LINEAR"}],"channels":[{"sampler":0,"target":{"node":6,"path":"rotation"}},{"sampler":1,"target":{"node":6,"path":"translation"}},{"sampler":2,"target":{"node":5,"path":"rotation"}},{"sampler":3,"target":{"node":1,"path":"rotation"}},{"sampler":4,"target":{"node":1,"path":"translation"}},{"sampler":5,"target":{"node":1,"path":"scale"}},{"sampler":6,"target":{"node":9,"path":"rotation"}},{"sampler":7,"target":{"node":9,"path":"translation"}},{"sampler":8,"target":{"node":9,"path":"scale"}},{"sampler":9,"target":{"node":7,"path":"rotation"}},{"sampler":10,"target":{"node":7,"path":"translation"}}]}],"bufferViews":[{"buffer":0,"byteOffset":0,"byteLength":4},{"buffer":0,"byteOffset":4,"byteLength":16},{"buffer":0,"byteOffset":20,"byteLength":4},{"buffer":0,"byteOffset":24,"byteLength":12},{"buffer":0,"byteOffset":36,"byteLength":12},{"buffer":0,"byteOffset":48,"byteLength":48},{"buffer":0,"byteOffset":96,"byteLength":4},{"buffer":0,"byteOffset":100,"byteLength":16},{"buffer":0,"byteOffset":116,"byteLength":4},{"buffer":0,"byteOffset":120,"byteLength":12},{"buffer":0,"byteOffset":132,"byteLength":4},{"buffer":0,"byteOffset":136,"byteLength":12},{"buffer":0,"byteOffset":148,"byteLength":4},{"buffer":0,"byteOffset":152,"byteLength":16},{"buffer":0,"byteOffset":168,"byteLength":4},{"buffer":0,"byteOffset":172,"byteLength":12},{"buffer":0,"byteOffset":184,"byteLength":4},{"buffer":0,"byteOffset":188,"byteLength":12},{"buffer":0,"byteOffset":200,"byteLength":20},{"buffer":0,"byteOffset":220,"byteLength":80},{"buffer":0,"byteOffset":300,"byteLength":20},{"buffer":0,"byteOffset":320,"byteLength":60}],"buffers":[{"byteLength":380,"uri":"data:application/octet-stream;base64,"}],"accessors":[{"bufferView":0,"componentType":5126,"count":1,"max":[0.0416666679084301],"min":[0.0416666679084301],"type":"SCALAR"},{"bufferView":1,"componentType":5126,"count":1,"max":[0,0,0,1],"min":[0,0,0,1],"type":"VEC4"},{"bufferView":2,"componentType":5126,"count":1,"max":[0.0416666679084301],"min":[0.0416666679084301],"type":"SCALAR"},{"bufferView":3,"componentType":5126,"count":1,"max":[0,0.01748046837747097,-0.15234375],"min":[0,0.01748046837747097,-0.15234375],"type":"VEC3"},{"bufferView":4,"componentType":5126,"count":3,"max":[0.0833333358168602],"min":[0],"type":"SCALAR"},{"bufferView":5,"componentType":5126,"count":3,"max":[0.3420201539993286,0,0,1],"min":[0,0,0,0.9396926164627075],"type":"VEC4"},{"bufferView":6,"componentType":5126,"count":1,"max":[0.0416666679084301],"min":[0.0416666679084301],"type":"SCALAR"},{"bufferView":7,"componentType":5126,"count":1,"max":[0.03842166066169739,-0.7327268719673157,0.6793690323829651,0.00963514018803835],"min":[0.03842166066169739,-0.7327268719673157,0.6793690323829651,0.00963514018803835],"type":"VEC4"},{"bufferView":8,"componentType":5126,"count":1,"max":[0.0416666679084301],"min":[0.0416666679084301],"type":"SCALAR"},{"bufferView":9,"componentType":5126,"count":1,"max":[0.01025390625,-0.13876953721046448,-0.16455078125],"min":[0.01025390625,-0.13876953721046448,-0.16455078125],"type":"VEC3"},{"bufferView":10,"componentType":5126,"count":1,"max":[0.0416666679084301],"min":[0.0416666679084301],"type":"SCALAR"},{"bufferView":11,"componentType":5126,"count":1,"max":[1.75,2,1.75],"min":[1.75,2,1.75],"type":"VEC3"},{"bufferView":12,"componentType":5126,"count":1,"max":[0.0416666679084301],"min":[0.0416666679084301],"type":"SCALAR"},{"bufferView":13,"componentType":5126,"count":1,"max":[0.24736416339874268,0.32799801230430603,-0.9073212742805481,0.08942252397537231],"min":[0.24736416339874268,0.32799801230430603,-0.9073212742805481,0.08942252397537231],"type":"VEC4"},{"bufferView":14,"componentType":5126,"count":1,"max":[0.0416666679084301],"min":[0.0416666679084301],"type":"SCALAR"},{"bufferView":15,"componentType":5126,"count":1,"max":[-1.08935546875,-1.5185546875,-0.3154296875],"min":[-1.08935546875,-1.5185546875,-0.3154296875],"type":"VEC3"},{"bufferView":16,"componentType":5126,"count":1,"max":[0.0416666679084301],"min":[0.0416666679084301],"type":"SCALAR"},{"bufferView":17,"componentType":5126,"count":1,"max":[1.75,2,1.75],"min":[1.75,2,1.75],"type":"VEC3"},{"bufferView":18,"componentType":5126,"count":5,"max":[0.625],"min":[0.0833333358168602],"type":"SCALAR"},{"bufferView":19,"componentType":5126,"count":5,"max":[0.19074499607086182,0,0,1],"min":[-0.0065449378453195095,-0.011325754225254059,-0.04186385124921799,0.9806991815567017],"type":"VEC4"},{"bufferView":20,"componentType":5126,"count":5,"max":[0.5833333134651184],"min":[0.0833333358168602],"type":"SCALAR"},{"bufferView":21,"componentType":5126,"count":5,"max":[0,0.10410156100988388,0.08285155892372131],"min":[0,0.04794921725988388,-0.03076171875],"type":"VEC3"}]}