{"asset":{"version":"2.0","generator":"Blockbench 4.8.3 glTF exporter"},"scenes":[{"nodes":[12],"name":"blockbench_export"}],"scene":0,"nodes":[{"translation":[0.375,-0.6875,0],"name":"RightHand"},{"translation":[-0.3955078125,0.8724609375000003,-0.791015625],"name":"R","children":[0]},{"translation":[0.5582031267470121,0.40867571414615256,0.7650631013289853],"name":"plate"},{"translation":[0.5613293736442078,0.39951045093465093,0.8709317735754596],"name":"hammer"},{"translation":[-0.5205078125,-0.3150390624999997,-1.291015625],"name":"flintlock","children":[2,3]},{"translation":[0.9794922028560551,0.8255859739742162,-0.4775703124999999],"name":"stick"},{"translation":[0.7294921875,0.8205054687500004,-0.791015625],"name":"bullet"},{"translation":[1.2919921875,1.0599609375000003,-0.791015625],"name":"bottle"},{"translation":[-0.001953125,0.002539062499999689,0.0126953125],"name":"bone","children":[1,4,5,6,7]},{"translation":[-0.375,-0.6875,0],"name":"LeftHand"},{"translation":[0.3525390625,0.875,-0.7783203125],"name":"l","children":[9]},{"translation":[0.5224609375,0.3125,1.2783203125],"name":"bone2","children":[8,10]},{"children":[11]}],"animations":[{"name":"reload","samplers":[{"input":0,"output":1,"interpolation":"LINEAR"},{"input":2,"output":3,"interpolation":"LINEAR"},{"input":4,"output":5,"interpolation":"LINEAR"},{"input":6,"output":7,"interpolation":"LINEAR"},{"input":8,"output":9,"interpolation":"LINEAR"},{"input":10,"output":11,"interpolation":"LINEAR"},{"input":12,"output":13,"interpolation":"LINEAR"},{"input":14,"output":15,"interpolation":"LINEAR"},{"input":16,"output":17,"interpolation":"LINEAR"},{"input":18,"output":19,"interpolation":"LINEAR"},{"input":20,"output":21,"interpolation":"LINEAR"},{"input":22,"output":23,"interpolation":"LINEAR"},{"input":24,"output":25,"interpolation":"LINEAR"},{"input":26,"output":27,"interpolation":"LINEAR"},{"input":28,"output":29,"interpolation":"LINEAR"},{"input":30,"output":31,"interpolation":"LINEAR"},{"input":32,"output":33,"interpolation":"LINEAR"},{"input":34,"output":35,"interpolation":"LINEAR"},{"input":36,"output":37,"interpolation":"LINEAR"},{"input":38,"output":39,"interpolation":"LINEAR"},{"input":40,"output":41,"interpolation":"LINEAR"},{"input":42,"output":43,"interpolation":"LINEAR"},{"input":44,"output":45,"interpolation":"LINEAR"}],"channels":[{"sampler":0,"target":{"node":3,"path":"rotation"}},{"sampler":1,"target":{"node":3,"path":"translation"}},{"sampler":2,"target":{"node":7,"path":"rotation"}},{"sampler":3,"target":{"node":7,"path":"translation"}},{"sampler":4,"target":{"node":7,"path":"scale"}},{"sampler":5,"target":{"node":6,"path":"rotation"}},{"sampler":6,"target":{"node":6,"path":"translation"}},{"sampler":7,"target":{"node":6,"path":"scale"}},{"sampler":8,"target":{"node":11,"path":"rotation"}},{"sampler":9,"target":{"node":11,"path":"translation"}},{"sampler":10,"target":{"node":8,"path":"rotation"}},{"sampler":11,"target":{"node":8,"path":"translation"}},{"sampler":12,"target":{"node":1,"path":"rotation"}},{"sampler":13,"target":{"node":1,"path":"translation"}},{"sampler":14,"target":{"node":1,"path":"scale"}},{"sampler":15,"target":{"node":10,"path":"rotation"}},{"sampler":16,"target":{"node":10,"path":"translation"}},{"sampler":17,"target":{"node":10,"path":"scale"}},{"sampler":18,"target":{"node":2,"path":"rotation"}},{"sampler":19,"target":{"node":2,"path":"translation"}},{"sampler":20,"target":{"node":5,"path":"rotation"}},{"sampler":21,"target":{"node":5,"path":"translation"}},{"sampler":22,"target":{"node":5,"path":"scale"}}]}],"bufferViews":[{"buffer":0,"byteOffset":0,"byteLength":16},{"buffer":0,"byteOffset":16,"byteLength":64},{"buffer":0,"byteOffset":80,"byteLength":4},{"buffer":0,"byteOffset":84,"byteLength":12},{"buffer":0,"byteOffset":96,"byteLength":80},{"buffer":0,"byteOffset":176,"byteLength":320},{"buffer":0,"byteOffset":496,"byteLength":80},{"buffer":0,"byteOffset":576,"byteLength":240},{"buffer":0,"byteOffset":816,"byteLength":32},{"buffer":0,"byteOffset":848,"byteLength":96},{"buffer":0,"byteOffset":944,"byteLength":12},{"buffer":0,"byteOffset":956,"byteLength":48},{"buffer":0,"byteOffset":1004,"byteLength":24},{"buffer":0,"byteOffset":1028,"byteLength":72},{"buffer":0,"byteOffset":1100,"byteLength":16},{"buffer":0,"byteOffset":1116,"byteLength":48},{"buffer":0,"byteOffset":1164,"byteLength":252},{"buffer":0,"byteOffset":1416,"byteLength":1008},{"buffer":0,"byteOffset":2424,"byteLength":252},{"buffer":0,"byteOffset":2676,"byteLength":756},{"buffer":0,"byteOffset":3432,"byteLength":48},{"buffer":0,"byteOffset":3480,"byteLength":192},{"buffer":0,"byteOffset":3672,"byteLength":48},{"buffer":0,"byteOffset":3720,"byteLength":144},{"buffer":0,"byteOffset":3864,"byteLength":236},{"buffer":0,"byteOffset":4100,"byteLength":944},{"buffer":0,"byteOffset":5044,"byteLength":232},{"buffer":0,"byteOffset":5276,"byteLength":696},{"buffer":0,"byteOffset":5972,"byteLength":4},{"buffer":0,"byteOffset":5976,"byteLength":12},{"buffer":0,"byteOffset":5988,"byteLength":44},{"buffer":0,"byteOffset":6032,"byteLength":176},{"buffer":0,"byteOffset":6208,"byteLength":44},{"buffer":0,"byteOffset":6252,"byteLength":132},{"buffer":0,"byteOffset":6384,"byteLength":4},{"buffer":0,"byteOffset":6388,"byteLength":12},{"buffer":0,"byteOffset":6400,"byteLength":16},{"buffer":0,"byteOffset":6416,"byteLength":64},{"buffer":0,"byteOffset":6480,"byteLength":8},{"buffer":0,"byteOffset":6488,"byteLength":24},{"buffer":0,"byteOffset":6512,"byteLength":36},{"buffer":0,"byteOffset":6548,"byteLength":144},{"buffer":0,"byteOffset":6692,"byteLength":60},{"buffer":0,"byteOffset":6752,"byteLength":180},{"buffer":0,"byteOffset":6932,"byteLength":16},{"buffer":0,"byteOffset":6948,"byteLength":48}],"buffers":[{"byteLength":6996,"uri":"data:application/octet-stream;base64,"}],"accessors":[{"bufferView":0,"componentType":5126,"count":4,"max":[7.916666507720947],"min":[0.0416666679084301],"type":"SCALAR"},{"bufferView":1,"componentType":5126,"count":4,"max":[0.3379167318344116,0,0,1],"min":[0,0,0,0.9411759972572327],"type":"VEC4"},{"bufferView":2,"componentType":5126,"count":1,"max":[7.791666507720947],"min":[7.791666507720947],"type":"SCALAR"},{"bufferView":3,"componentType":5126,"count":1,"max":[0.5613293647766113,0.3995104432106018,0.8709317445755005],"min":[0.5613293647766113,0.3995104432106018,0.8709317445755005],"type":"VEC3"},{"bufferView":4,"componentType":5126,"count":20,"max":[7.125],"min":[1],"type":"SCALAR"},{"bufferView":5,"componentType":5126,"count":20,"max":[0,0.6743929386138916,0.6128297448158264,1],"min":[-0.7468113899230957,0,-0.011556697078049183,0.3118555545806885],"type":"VEC4"},{"bufferView":6,"componentType":5126,"count":20,"max":[7.125],"min":[1],"type":"SCALAR"},{"bufferView":7,"componentType":5126,"count":20,"max":[1.2919921875,1.059960961341858,-0.42390623688697815],"min":[0.1300390660762787,-0.5162890553474426,-2.3595311641693115],"type":"VEC3"},{"bufferView":8,"componentType":5126,"count":8,"max":[6.958333492279053],"min":[1.0833333730697632],"type":"SCALAR"},{"bufferView":9,"componentType":5126,"count":8,"max":[0.4000000059604645,0.4000000059604645,0.4000000059604645],"min":[0,0,0],"type":"VEC3"},{"bufferView":10,"componentType":5126,"count":3,"max":[3.125],"min":[2.0416667461395264],"type":"SCALAR"},{"bufferView":11,"componentType":5126,"count":3,"max":[0,0,0,1],"min":[0,0,0,1],"type":"VEC4"},{"bufferView":12,"componentType":5126,"count":6,"max":[3.125],"min":[2.0416667461395264],"type":"SCALAR"},{"bufferView":13,"componentType":5126,"count":6,"max":[0.7294921875,0.8205054402351379,-0.791015625],"min":[-0.031132811680436134,0.10761484503746033,-2.251210927963257],"type":"VEC3"},{"bufferView":14,"componentType":5126,"count":4,"max":[2.7083332538604736],"min":[2.25],"type":"SCALAR"},{"bufferView":15,"componentType":5126,"count":4,"max":[1.5,1.5,1.5],"min":[0,0,0],"type":"VEC3"},{"bufferView":16,"componentType":5126,"count":63,"max":[8.291666984558105],"min":[0.0416666679084301],"type":"SCALAR"},{"bufferView":17,"componentType":5126,"count":63,"max":[0.07620862871408463,0.10425468534231186,0.07205260545015335,1],"min":[-0.01500049140304327,-0.02781630866229534,-0.058501970022916794,0.9922833442687988],"type":"VEC4"},{"bufferView":18,"componentType":5126,"count":63,"max":[8.291666984558105],"min":[0.0416666679084301],"type":"SCALAR"},{"bufferView":19,"componentType":5126,"count":63,"max":[0.5224609375,0.3125,1.3289843797683716],"min":[0.5143359303474426,0.005039062350988388,1.2490234375],"type":"VEC3"},{"bufferView":20,"componentType":5126,"count":12,"max":[5.333333492279053],"min":[0.0416666679084301],"type":"SCALAR"},{"bufferView":21,"componentType":5126,"count":12,"max":[0.5902360677719116,0.020983735099434853,0.08236297219991684,1],"min":[-0.004434348549693823,-0.012554792687296867,0,0.8055068850517273],"type":"VEC4"},{"bufferView":22,"componentType":5126,"count":12,"max":[5.333333492279053],"min":[0.0416666679084301],"type":"SCALAR"},{"bufferView":23,"componentType":5126,"count":12,"max":[0.1044921875,0.0025390624068677425,0.36769530177116394],"min":[-0.001953125,-1.5721875429153442,-0.001953125],"type":"VEC3"},{"bufferView":24,"componentType":5126,"count":59,"max":[8.208333015441895],"min":[0.0416666679084301],"type":"SCALAR"},{"bufferView":25,"componentType":5126,"count":59,"max":[0.4520300030708313,0.8563008308410645,-0.49237149953842163,-0.036287449300289154],"min":[-0.40189221501350403,-0.04769621416926384,-0.9447087645530701,-0.3955293297767639],"type":"VEC4"},{"bufferView":26,"componentType":5126,"count":58,"max":[8.208333015441895],"min":[0.0416666679084301],"type":"SCALAR"},{"bufferView":27,"componentType":5126,"count":58,"max":[0.38386717438697815,0.2348046898841858,-0.0615234375],"min":[0.021367186680436134,-0.6694531440734863,-2.5923829078674316],"type":"VEC3"},{"bufferView":28,"componentType":5126,"count":1,"max":[0.0416666679084301],"min":[0.0416666679084301],"type":"SCALAR"},{"bufferView":29,"componentType":5126,"count":1,"max":[1,1.5,1],"min":[1,1.5,1],"type":"VEC3"},{"bufferView":30,"componentType":5126,"count":11,"max":[5.333333492279053],"min":[0.0416666679084301],"type":"SCALAR"},{"bufferView":31,"componentType":5126,"count":11,"max":[0.0920502170920372,0.7550750970840454,-0.2215508371591568,0.6685816049575806],"min":[-0.27068936824798584,0.5942729115486145,-0.5728691220283508,0.42559537291526794],"type":"VEC4"},{"bufferView":32,"componentType":5126,"count":11,"max":[5.333333492279053],"min":[0.0416666679084301],"type":"SCALAR"},{"bufferView":33,"componentType":5126,"count":11,"max":[0.020664062350988388,0.29777345061302185,-0.045585937798023224],"min":[-0.02734375,-0.4950000047683716,-0.80859375],"type":"VEC3"},{"bufferView":34,"componentType":5126,"count":1,"max":[0.0416666679084301],"min":[0.0416666679084301],"type":"SCALAR"},{"bufferView":35,"componentType":5126,"count":1,"max":[1,1.5,1],"min":[1,1.5,1],"type":"VEC3"},{"bufferView":36,"componentType":5126,"count":4,"max":[7.5],"min":[5.458333492279053],"type":"SCALAR"},{"bufferView":37,"componentType":5126,"count":4,"max":[0,0,0,1],"min":[-0.6427876353263855,0,0,0.7660444378852844],"type":"VEC4"},{"bufferView":38,"componentType":5126,"count":2,"max":[7.416666507720947],"min":[5.458333492279053],"type":"SCALAR"},{"bufferView":39,"componentType":5126,"count":2,"max":[0.5582031011581421,0.4086757004261017,0.7650631070137024],"min":[0.5582031011581421,0.4086757004261017,0.7650631070137024],"type":"VEC3"},{"bufferView":40,"componentType":5126,"count":9,"max":[5.125],"min":[3.125],"type":"SCALAR"},{"bufferView":41,"componentType":5126,"count":9,"max":[0,0.9998477101325989,0,1],"min":[-0.050149522721767426,0,-0.02267332188785076,1.0686516939573904e-18],"type":"VEC4"},{"bufferView":42,"componentType":5126,"count":15,"max":[5.125],"min":[3.125],"type":"SCALAR"},{"bufferView":43,"componentType":5126,"count":15,"max":[1.8974609375,0.8255859613418579,-0.4775703251361847],"min":[-0.012499984353780746,0.08308597654104233,-4.044875144958496],"type":"VEC3"},{"bufferView":44,"componentType":5126,"count":4,"max":[4.875],"min":[3.3333332538604736],"type":"SCALAR"},{"bufferView":45,"componentType":5126,"count":4,"max":[1,1,1],"min":[0,0,0],"type":"VEC3"}]}