{"asset":{"version":"2.0","generator":"Blockbench 4.8.3 glTF exporter"},"scenes":[{"nodes":[12],"name":"blockbench_export"}],"scene":0,"nodes":[{"translation":[0.375,-0.6875,0],"name":"RightHand"},{"translation":[-0.375,0.6000000000000003,-0.625],"name":"R","children":[0]},{"translation":[0.5582031267470121,0.40867571414615256,0.7650631013289853],"name":"plate"},{"translation":[0.5613293736442078,0.39951045093465093,0.8709317735754596],"name":"hammer"},{"translation":[-0.5,-0.5874999999999997,-1.125],"name":"flintlock","children":[2,3]},{"translation":[1.000000015356055,0.5531250364742162,-0.6259453125000001],"name":"stick"},{"translation":[0.75,0.5515593750000005,-0.625],"name":"bullet"},{"translation":[1.3125,1.0375000000000003,-0.625],"name":"bottle"},{"translation":[0,0.2749999999999997,0],"name":"bone","children":[1,4,5,6,7]},{"translation":[-0.375,-0.6875,0],"name":"LeftHand"},{"translation":[0.375,0.875,-0.625],"name":"l","children":[9]},{"translation":[0.5,0.3125,1.125],"name":"bone2","children":[8,10]},{"children":[11]}],"animations":[{"name":"draw","samplers":[{"input":0,"output":1,"interpolation":"LINEAR"},{"input":2,"output":3,"interpolation":"LINEAR"},{"input":4,"output":5,"interpolation":"LINEAR"},{"input":6,"output":7,"interpolation":"LINEAR"},{"input":8,"output":9,"interpolation":"LINEAR"},{"input":10,"output":11,"interpolation":"LINEAR"},{"input":12,"output":13,"interpolation":"LINEAR"},{"input":14,"output":15,"interpolation":"LINEAR"},{"input":16,"output":17,"interpolation":"LINEAR"},{"input":18,"output":19,"interpolation":"LINEAR"},{"input":20,"output":21,"interpolation":"LINEAR"},{"input":22,"output":23,"interpolation":"LINEAR"},{"input":24,"output":25,"interpolation":"LINEAR"},{"input":26,"output":27,"interpolation":"LINEAR"},{"input":28,"output":29,"interpolation":"LINEAR"},{"input":30,"output":31,"interpolation":"LINEAR"}],"channels":[{"sampler":0,"target":{"node":11,"path":"rotation"}},{"sampler":1,"target":{"node":11,"path":"translation"}},{"sampler":2,"target":{"node":1,"path":"rotation"}},{"sampler":3,"target":{"node":1,"path":"translation"}},{"sampler":4,"target":{"node":1,"path":"scale"}},{"sampler":5,"target":{"node":5,"path":"translation"}},{"sampler":6,"target":{"node":5,"path":"scale"}},{"sampler":7,"target":{"node":6,"path":"rotation"}},{"sampler":8,"target":{"node":6,"path":"translation"}},{"sampler":9,"target":{"node":7,"path":"rotation"}},{"sampler":10,"target":{"node":7,"path":"translation"}},{"sampler":11,"target":{"node":7,"path":"scale"}},{"sampler":12,"target":{"node":10,"path":"rotation"}},{"sampler":13,"target":{"node":10,"path":"translation"}},{"sampler":14,"target":{"node":10,"path":"scale"}},{"sampler":15,"target":{"node":3,"path":"rotation"}}]}],"bufferViews":[{"buffer":0,"byteOffset":0,"byteLength":72},{"buffer":0,"byteOffset":72,"byteLength":288},{"buffer":0,"byteOffset":360,"byteLength":72},{"buffer":0,"byteOffset":432,"byteLength":216},{"buffer":0,"byteOffset":648,"byteLength":4},{"buffer":0,"byteOffset":652,"byteLength":16},{"buffer":0,"byteOffset":668,"byteLength":4},{"buffer":0,"byteOffset":672,"byteLength":12},{"buffer":0,"byteOffset":684,"byteLength":4},{"buffer":0,"byteOffset":688,"byteLength":12},{"buffer":0,"byteOffset":700,"byteLength":4},{"buffer":0,"byteOffset":704,"byteLength":12},{"buffer":0,"byteOffset":716,"byteLength":4},{"buffer":0,"byteOffset":720,"byteLength":12},{"buffer":0,"byteOffset":732,"byteLength":4},{"buffer":0,"byteOffset":736,"byteLength":16},{"buffer":0,"byteOffset":752,"byteLength":4},{"buffer":0,"byteOffset":756,"byteLength":12},{"buffer":0,"byteOffset":768,"byteLength":4},{"buffer":0,"byteOffset":772,"byteLength":16},{"buffer":0,"byteOffset":788,"byteLength":4},{"buffer":0,"byteOffset":792,"byteLength":12},{"buffer":0,"byteOffset":804,"byteLength":4},{"buffer":0,"byteOffset":808,"byteLength":12},{"buffer":0,"byteOffset":820,"byteLength":4},{"buffer":0,"byteOffset":824,"byteLength":16},{"buffer":0,"byteOffset":840,"byteLength":4},{"buffer":0,"byteOffset":844,"byteLength":12},{"buffer":0,"byteOffset":856,"byteLength":4},{"buffer":0,"byteOffset":860,"byteLength":12},{"buffer":0,"byteOffset":872,"byteLength":8},{"buffer":0,"byteOffset":880,"byteLength":32}],"buffers":[{"byteLength":912,"uri":"data:application/octet-stream;base64,"}],"accessors":[{"bufferView":0,"componentType":5126,"count":18,"max":[0.75],"min":[0.0416666679084301],"type":"SCALAR"},{"bufferView":1,"componentType":5126,"count":18,"max":[0.07948141545057297,0.19970233738422394,0.15270715951919556,1],"min":[-0.5660133361816406,-0.04675758257508278,-0.06979946792125702,0.8087788224220276],"type":"VEC4"},{"bufferView":2,"componentType":5126,"count":18,"max":[0.75],"min":[0.0416666679084301],"type":"SCALAR"},{"bufferView":3,"componentType":5126,"count":18,"max":[0.5387499928474426,0.3531250059604645,1.125],"min":[0.4987500011920929,-0.8949999809265137,1.125],"type":"VEC3"},{"bufferView":4,"componentType":5126,"count":1,"max":[0.0416666679084301],"min":[0.0416666679084301],"type":"SCALAR"},{"bufferView":5,"componentType":5126,"count":1,"max":[0.010099241510033607,0.75691819190979,-0.6501230597496033,-0.06567279249429703],"min":[0.010099241510033607,0.75691819190979,-0.6501230597496033,-0.06567279249429703],"type":"VEC4"},{"bufferView":6,"componentType":5126,"count":1,"max":[0.0416666679084301],"min":[0.0416666679084301],"type":"SCALAR"},{"bufferView":7,"componentType":5126,"count":1,"max":[0.027499999850988388,-0.39625000953674316,0.03500000014901161],"min":[0.027499999850988388,-0.39625000953674316,0.03500000014901161],"type":"VEC3"},{"bufferView":8,"componentType":5126,"count":1,"max":[0.0416666679084301],"min":[0.0416666679084301],"type":"SCALAR"},{"bufferView":9,"componentType":5126,"count":1,"max":[1,1.5,1],"min":[1,1.5,1],"type":"VEC3"},{"bufferView":10,"componentType":5126,"count":1,"max":[0.0416666679084301],"min":[0.0416666679084301],"type":"SCALAR"},{"bufferView":11,"componentType":5126,"count":1,"max":[0.625,-2.8843748569488525,-0.6259453296661377],"min":[0.625,-2.8843748569488525,-0.6259453296661377],"type":"VEC3"},{"bufferView":12,"componentType":5126,"count":1,"max":[0.0416666679084301],"min":[0.0416666679084301],"type":"SCALAR"},{"bufferView":13,"componentType":5126,"count":1,"max":[0,0,0],"min":[0,0,0],"type":"VEC3"},{"bufferView":14,"componentType":5126,"count":1,"max":[0.0416666679084301],"min":[0.0416666679084301],"type":"SCALAR"},{"bufferView":15,"componentType":5126,"count":1,"max":[0,0,0,1],"min":[0,0,0,1],"type":"VEC4"},{"bufferView":16,"componentType":5126,"count":1,"max":[0.0416666679084301],"min":[0.0416666679084301],"type":"SCALAR"},{"bufferView":17,"componentType":5126,"count":1,"max":[0.25,-3.1984405517578125,-0.0625],"min":[0.25,-3.1984405517578125,-0.0625],"type":"VEC3"},{"bufferView":18,"componentType":5126,"count":1,"max":[0.0416666679084301],"min":[0.0416666679084301],"type":"SCALAR"},{"bufferView":19,"componentType":5126,"count":1,"max":[0,0,0,1],"min":[0,0,0,1],"type":"VEC4"},{"bufferView":20,"componentType":5126,"count":1,"max":[0.0416666679084301],"min":[0.0416666679084301],"type":"SCALAR"},{"bufferView":21,"componentType":5126,"count":1,"max":[0.375,-3.0250000953674316,-0.1875],"min":[0.375,-3.0250000953674316,-0.1875],"type":"VEC3"},{"bufferView":22,"componentType":5126,"count":1,"max":[0.0416666679084301],"min":[0.0416666679084301],"type":"SCALAR"},{"bufferView":23,"componentType":5126,"count":1,"max":[0.5,0.5,0.5],"min":[0.5,0.5,0.5],"type":"VEC3"},{"bufferView":24,"componentType":5126,"count":1,"max":[0.0416666679084301],"min":[0.0416666679084301],"type":"SCALAR"},{"bufferView":25,"componentType":5126,"count":1,"max":[-0.11155778914690018,0.696080207824707,-0.5514531135559082,0.4460119605064392],"min":[-0.11155778914690018,0.696080207824707,-0.5514531135559082,0.4460119605064392],"type":"VEC4"},{"bufferView":26,"componentType":5126,"count":1,"max":[0.0416666679084301],"min":[0.0416666679084301],"type":"SCALAR"},{"bufferView":27,"componentType":5126,"count":1,"max":[-0.08124999701976776,-0.019999999552965164,-0.5512499809265137],"min":[-0.08124999701976776,-0.019999999552965164,-0.5512499809265137],"type":"VEC3"},{"bufferView":28,"componentType":5126,"count":1,"max":[0.0416666679084301],"min":[0.0416666679084301],"type":"SCALAR"},{"bufferView":29,"componentType":5126,"count":1,"max":[1,1.5,1],"min":[1,1.5,1],"type":"VEC3"},{"bufferView":30,"componentType":5126,"count":2,"max":[0.0416666679084301],"min":[0],"type":"SCALAR"},{"bufferView":31,"componentType":5126,"count":2,"max":[0.3420201539993286,0,0,1],"min":[0,0,0,0.9396926164627075],"type":"VEC4"}]}