{"asset":{"version":"2.0","generator":"Blockbench 4.8.3 glTF exporter"},"scenes":[{"nodes":[12],"name":"blockbench_export"}],"scene":0,"nodes":[{"translation":[0.375,-0.6875,0],"name":"RightHand"},{"translation":[-0.3955078125,0.8724609375000003,-0.791015625],"name":"R","children":[0]},{"translation":[0.5582031267470121,0.40867571414615256,0.7650631013289853],"name":"plate"},{"translation":[0.5613293736442078,0.39951045093465093,0.8709317735754596],"name":"hammer"},{"translation":[-0.5205078125,-0.3150390624999997,-1.291015625],"name":"flintlock","children":[2,3]},{"translation":[0.9794922028560551,0.8255859739742162,-0.4775703124999999],"name":"stick"},{"translation":[0.7294921875,0.8205054687500004,-0.791015625],"name":"bullet"},{"translation":[1.2919921875,1.0599609375000003,-0.791015625],"name":"bottle"},{"translation":[-0.001953125,0.002539062499999689,0.0126953125],"name":"bone","children":[1,4,5,6,7]},{"translation":[-0.375,-0.6875,0],"name":"LeftHand"},{"translation":[0.3525390625,0.875,-0.7783203125],"name":"l","children":[9]},{"translation":[0.5224609375,0.3125,1.2783203125],"name":"bone2","children":[8,10]},{"children":[11]}],"animations":[{"name":"inspect","samplers":[{"input":0,"output":1,"interpolation":"LINEAR"},{"input":2,"output":3,"interpolation":"LINEAR"},{"input":4,"output":5,"interpolation":"LINEAR"},{"input":6,"output":7,"interpolation":"LINEAR"},{"input":8,"output":9,"interpolation":"LINEAR"},{"input":10,"output":11,"interpolation":"LINEAR"},{"input":12,"output":13,"interpolation":"LINEAR"},{"input":14,"output":15,"interpolation":"LINEAR"},{"input":16,"output":17,"interpolation":"LINEAR"},{"input":18,"output":19,"interpolation":"LINEAR"},{"input":20,"output":21,"interpolation":"LINEAR"},{"input":22,"output":23,"interpolation":"LINEAR"},{"input":24,"output":25,"interpolation":"LINEAR"}],"channels":[{"sampler":0,"target":{"node":3,"path":"rotation"}},{"sampler":1,"target":{"node":7,"path":"scale"}},{"sampler":2,"target":{"node":6,"path":"scale"}},{"sampler":3,"target":{"node":11,"path":"rotation"}},{"sampler":4,"target":{"node":11,"path":"translation"}},{"sampler":5,"target":{"node":8,"path":"rotation"}},{"sampler":6,"target":{"node":8,"path":"translation"}},{"sampler":7,"target":{"node":1,"path":"rotation"}},{"sampler":8,"target":{"node":1,"path":"translation"}},{"sampler":9,"target":{"node":1,"path":"scale"}},{"sampler":10,"target":{"node":10,"path":"rotation"}},{"sampler":11,"target":{"node":10,"path":"translation"}},{"sampler":12,"target":{"node":10,"path":"scale"}}]}],"bufferViews":[{"buffer":0,"byteOffset":0,"byteLength":4},{"buffer":0,"byteOffset":4,"byteLength":16},{"buffer":0,"byteOffset":20,"byteLength":4},{"buffer":0,"byteOffset":24,"byteLength":12},{"buffer":0,"byteOffset":36,"byteLength":4},{"buffer":0,"byteOffset":40,"byteLength":12},{"buffer":0,"byteOffset":52,"byteLength":4},{"buffer":0,"byteOffset":56,"byteLength":16},{"buffer":0,"byteOffset":72,"byteLength":4},{"buffer":0,"byteOffset":76,"byteLength":12},{"buffer":0,"byteOffset":88,"byteLength":60},{"buffer":0,"byteOffset":148,"byteLength":240},{"buffer":0,"byteOffset":388,"byteLength":60},{"buffer":0,"byteOffset":448,"byteLength":180},{"buffer":0,"byteOffset":628,"byteLength":4},{"buffer":0,"byteOffset":632,"byteLength":16},{"buffer":0,"byteOffset":648,"byteLength":4},{"buffer":0,"byteOffset":652,"byteLength":12},{"buffer":0,"byteOffset":664,"byteLength":4},{"buffer":0,"byteOffset":668,"byteLength":12},{"buffer":0,"byteOffset":680,"byteLength":48},{"buffer":0,"byteOffset":728,"byteLength":192},{"buffer":0,"byteOffset":920,"byteLength":48},{"buffer":0,"byteOffset":968,"byteLength":144},{"buffer":0,"byteOffset":1112,"byteLength":4},{"buffer":0,"byteOffset":1116,"byteLength":12}],"buffers":[{"byteLength":1128,"uri":"data:application/octet-stream;base64,"}],"accessors":[{"bufferView":0,"componentType":5126,"count":1,"max":[0.0416666679084301],"min":[0.0416666679084301],"type":"SCALAR"},{"bufferView":1,"componentType":5126,"count":1,"max":[0.30070579051971436,0,0,0.9537169337272644],"min":[0.30070579051971436,0,0,0.9537169337272644],"type":"VEC4"},{"bufferView":2,"componentType":5126,"count":1,"max":[0.0416666679084301],"min":[0.0416666679084301],"type":"SCALAR"},{"bufferView":3,"componentType":5126,"count":1,"max":[0.4000000059604645,0.4000000059604645,0.4000000059604645],"min":[0.4000000059604645,0.4000000059604645,0.4000000059604645],"type":"VEC3"},{"bufferView":4,"componentType":5126,"count":1,"max":[0.0416666679084301],"min":[0.0416666679084301],"type":"SCALAR"},{"bufferView":5,"componentType":5126,"count":1,"max":[1.5,1.5,1.5],"min":[1.5,1.5,1.5],"type":"VEC3"},{"bufferView":6,"componentType":5126,"count":1,"max":[0.0416666679084301],"min":[0.0416666679084301],"type":"SCALAR"},{"bufferView":7,"componentType":5126,"count":1,"max":[0,0,0,1],"min":[0,0,0,1],"type":"VEC4"},{"bufferView":8,"componentType":5126,"count":1,"max":[0.0416666679084301],"min":[0.0416666679084301],"type":"SCALAR"},{"bufferView":9,"componentType":5126,"count":1,"max":[0.5224609375,0.3125,1.2783203125],"min":[0.5224609375,0.3125,1.2783203125],"type":"VEC3"},{"bufferView":10,"componentType":5126,"count":15,"max":[3.4583332538604736],"min":[0.0416666679084301],"type":"SCALAR"},{"bufferView":11,"componentType":5126,"count":15,"max":[0.17357300221920013,0.07969331741333008,0.4398714601993561,1],"min":[-0.004361554514616728,-0.11593827605247498,-0.30967819690704346,0.8755048513412476],"type":"VEC4"},{"bufferView":12,"componentType":5126,"count":15,"max":[3.4583332538604736],"min":[0.0416666679084301],"type":"SCALAR"},{"bufferView":13,"componentType":5126,"count":15,"max":[-0.001953125,0.03867187350988388,0.0710156261920929],"min":[-0.001953125,-0.020781250670552254,-0.0244140625],"type":"VEC3"},{"bufferView":14,"componentType":5126,"count":1,"max":[0.0416666679084301],"min":[0.0416666679084301],"type":"SCALAR"},{"bufferView":15,"componentType":5126,"count":1,"max":[-0.059494748711586,0.6923019886016846,-0.7182345390319824,-0.03629716858267784],"min":[-0.059494748711586,0.6923019886016846,-0.7182345390319824,-0.03629716858267784],"type":"VEC4"},{"bufferView":16,"componentType":5126,"count":1,"max":[0.0416666679084301],"min":[0.0416666679084301],"type":"SCALAR"},{"bufferView":17,"componentType":5126,"count":1,"max":[0.021484375,-0.04453124850988388,-0.0615234375],"min":[0.021484375,-0.04453124850988388,-0.0615234375],"type":"VEC3"},{"bufferView":18,"componentType":5126,"count":1,"max":[0.0416666679084301],"min":[0.0416666679084301],"type":"SCALAR"},{"bufferView":19,"componentType":5126,"count":1,"max":[1,1.5,1],"min":[1,1.5,1],"type":"VEC3"},{"bufferView":20,"componentType":5126,"count":12,"max":[3.4583332538604736],"min":[0.0416666679084301],"type":"SCALAR"},{"bufferView":21,"componentType":5126,"count":12,"max":[-0.054981231689453125,0.608031153678894,-0.4026930034160614,0.7051739692687988],"min":[-0.40126824378967285,0.4879719018936157,-0.7152856588363647,0.29872003197669983],"type":"VEC4"},{"bufferView":22,"componentType":5126,"count":12,"max":[3.4583332538604736],"min":[0.0416666679084301],"type":"SCALAR"},{"bufferView":23,"componentType":5126,"count":12,"max":[-0.02734375,0.19035156071186066,-0.40519532561302185],"min":[-0.5305859446525574,-0.6956250071525574,-0.7900390625],"type":"VEC3"},{"bufferView":24,"componentType":5126,"count":1,"max":[0.0416666679084301],"min":[0.0416666679084301],"type":"SCALAR"},{"bufferView":25,"componentType":5126,"count":1,"max":[1,1.5,1],"min":[1,1.5,1],"type":"VEC3"}]}