{"asset":{"version":"2.0","generator":"Blockbench 4.8.3 glTF exporter"},"scenes":[{"nodes":[12],"name":"blockbench_export"}],"scene":0,"nodes":[{"translation":[0.375,-0.6875,0],"name":"RightHand"},{"translation":[-0.3955078125,0.8724609375000003,-0.791015625],"name":"R","children":[0]},{"translation":[0.5582031267470121,0.40867571414615256,0.7650631013289853],"name":"plate"},{"translation":[0.5613293736442078,0.39951045093465093,0.8709317735754596],"name":"hammer"},{"translation":[-0.5205078125,-0.3150390624999997,-1.291015625],"name":"flintlock","children":[2,3]},{"translation":[0.9794922028560551,0.8255859739742162,-0.4775703124999999],"name":"stick"},{"translation":[0.7294921875,0.8205054687500004,-0.791015625],"name":"bullet"},{"translation":[1.2919921875,1.0599609375000003,-0.791015625],"name":"bottle"},{"translation":[-0.001953125,0.002539062499999689,0.0126953125],"name":"bone","children":[1,4,5,6,7]},{"translation":[-0.375,-0.6875,0],"name":"LeftHand"},{"translation":[0.3525390625,0.875,-0.7783203125],"name":"l","children":[9]},{"translation":[0.5224609375,0.3125,1.2783203125],"name":"bone2","children":[8,10]},{"children":[11]}],"animations":[{"name":"draw","samplers":[{"input":0,"output":1,"interpolation":"LINEAR"},{"input":2,"output":3,"interpolation":"LINEAR"},{"input":4,"output":5,"interpolation":"LINEAR"},{"input":6,"output":7,"interpolation":"LINEAR"},{"input":8,"output":9,"interpolation":"LINEAR"},{"input":10,"output":11,"interpolation":"LINEAR"},{"input":12,"output":13,"interpolation":"LINEAR"},{"input":14,"output":15,"interpolation":"LINEAR"},{"input":16,"output":17,"interpolation":"LINEAR"},{"input":18,"output":19,"interpolation":"LINEAR"},{"input":20,"output":21,"interpolation":"LINEAR"},{"input":22,"output":23,"interpolation":"LINEAR"},{"input":24,"output":25,"interpolation":"LINEAR"}],"channels":[{"sampler":0,"target":{"node":3,"path":"rotation"}},{"sampler":1,"target":{"node":7,"path":"scale"}},{"sampler":2,"target":{"node":6,"path":"scale"}},{"sampler":3,"target":{"node":11,"path":"rotation"}},{"sampler":4,"target":{"node":11,"path":"translation"}},{"sampler":5,"target":{"node":8,"path":"rotation"}},{"sampler":6,"target":{"node":8,"path":"translation"}},{"sampler":7,"target":{"node":1,"path":"rotation"}},{"sampler":8,"target":{"node":1,"path":"translation"}},{"sampler":9,"target":{"node":1,"path":"scale"}},{"sampler":10,"target":{"node":10,"path":"rotation"}},{"sampler":11,"target":{"node":10,"path":"translation"}},{"sampler":12,"target":{"node":10,"path":"scale"}}]}],"bufferViews":[{"buffer":0,"byteOffset":0,"byteLength":12},{"buffer":0,"byteOffset":12,"byteLength":48},{"buffer":0,"byteOffset":60,"byteLength":4},{"buffer":0,"byteOffset":64,"byteLength":12},{"buffer":0,"byteOffset":76,"byteLength":4},{"buffer":0,"byteOffset":80,"byteLength":12},{"buffer":0,"byteOffset":92,"byteLength":44},{"buffer":0,"byteOffset":136,"byteLength":176},{"buffer":0,"byteOffset":312,"byteLength":44},{"buffer":0,"byteOffset":356,"byteLength":132},{"buffer":0,"byteOffset":488,"byteLength":4},{"buffer":0,"byteOffset":492,"byteLength":16},{"buffer":0,"byteOffset":508,"byteLength":4},{"buffer":0,"byteOffset":512,"byteLength":12},{"buffer":0,"byteOffset":524,"byteLength":32},{"buffer":0,"byteOffset":556,"byteLength":128},{"buffer":0,"byteOffset":684,"byteLength":28},{"buffer":0,"byteOffset":712,"byteLength":84},{"buffer":0,"byteOffset":796,"byteLength":4},{"buffer":0,"byteOffset":800,"byteLength":12},{"buffer":0,"byteOffset":812,"byteLength":16},{"buffer":0,"byteOffset":828,"byteLength":64},{"buffer":0,"byteOffset":892,"byteLength":16},{"buffer":0,"byteOffset":908,"byteLength":48},{"buffer":0,"byteOffset":956,"byteLength":4},{"buffer":0,"byteOffset":960,"byteLength":12}],"buffers":[{"byteLength":972,"uri":"data:application/octet-stream;base64,"}],"accessors":[{"bufferView":0,"componentType":5126,"count":3,"max":[0.6666666865348816],"min":[0.0416666679084301],"type":"SCALAR"},{"bufferView":1,"componentType":5126,"count":3,"max":[0.30070579051971436,0,0,1],"min":[0,0,0,0.9537169337272644],"type":"VEC4"},{"bufferView":2,"componentType":5126,"count":1,"max":[0.0416666679084301],"min":[0.0416666679084301],"type":"SCALAR"},{"bufferView":3,"componentType":5126,"count":1,"max":[0.4000000059604645,0.4000000059604645,0.4000000059604645],"min":[0.4000000059604645,0.4000000059604645,0.4000000059604645],"type":"VEC3"},{"bufferView":4,"componentType":5126,"count":1,"max":[0.0416666679084301],"min":[0.0416666679084301],"type":"SCALAR"},{"bufferView":5,"componentType":5126,"count":1,"max":[1.5,1.5,1.5],"min":[1.5,1.5,1.5],"type":"VEC3"},{"bufferView":6,"componentType":5126,"count":11,"max":[1.0833333730697632],"min":[0.0416666679084301],"type":"SCALAR"},{"bufferView":7,"componentType":5126,"count":11,"max":[0.016592446714639664,0.3765657842159271,0.24897395074367523,1],"min":[-0.3313511908054352,-0.018266858533024788,-0.048267751932144165,0.8285025954246521],"type":"VEC4"},{"bufferView":8,"componentType":5126,"count":11,"max":[1.0833333730697632],"min":[0.0416666679084301],"type":"SCALAR"},{"bufferView":9,"componentType":5126,"count":11,"max":[0.5673828125,0.3310546875,1.5869140625],"min":[0.5224609375,-0.0830078125,1.2216796875],"type":"VEC3"},{"bufferView":10,"componentType":5126,"count":1,"max":[0.0416666679084301],"min":[0.0416666679084301],"type":"SCALAR"},{"bufferView":11,"componentType":5126,"count":1,"max":[0,0,0,1],"min":[0,0,0,1],"type":"VEC4"},{"bufferView":12,"componentType":5126,"count":1,"max":[0.0416666679084301],"min":[0.0416666679084301],"type":"SCALAR"},{"bufferView":13,"componentType":5126,"count":1,"max":[-0.001953125,0.0025390624068677425,0.0126953125],"min":[-0.001953125,0.0025390624068677425,0.0126953125],"type":"VEC3"},{"bufferView":14,"componentType":5126,"count":8,"max":[1.0833333730697632],"min":[0.0416666679084301],"type":"SCALAR"},{"bufferView":15,"componentType":5126,"count":8,"max":[-0.059494748711586,0.7952654957771301,-0.5321357250213623,0.19729450345039368],"min":[-0.2401043027639389,0.6922844648361206,-0.7182514071464539,-0.03629716858267784],"type":"VEC4"},{"bufferView":16,"componentType":5126,"count":7,"max":[1.0833333730697632],"min":[0.0416666679084301],"type":"SCALAR"},{"bufferView":17,"componentType":5126,"count":7,"max":[0.1884765625,0.14308594167232513,-0.0615234375],"min":[0.021367186680436134,-0.04453124850988388,-0.3741406202316284],"type":"VEC3"},{"bufferView":18,"componentType":5126,"count":1,"max":[0.0416666679084301],"min":[0.0416666679084301],"type":"SCALAR"},{"bufferView":19,"componentType":5126,"count":1,"max":[1,1.5,1],"min":[1,1.5,1],"type":"VEC3"},{"bufferView":20,"componentType":5126,"count":4,"max":[0.4166666567325592],"min":[0.0416666679084301],"type":"SCALAR"},{"bufferView":21,"componentType":5126,"count":4,"max":[-0.1767442673444748,0.5966658592224121,-0.48899367451667786,0.5722860097885132],"min":[-0.2915492355823517,0.4544036090373993,-0.6723423600196838,0.5344054698944092],"type":"VEC4"},{"bufferView":22,"componentType":5126,"count":4,"max":[0.4166666567325592],"min":[0.0416666679084301],"type":"SCALAR"},{"bufferView":23,"componentType":5126,"count":4,"max":[-0.02734375,-0.044921875,-0.7783203125],"min":[-0.02734375,-0.044921875,-0.7783203125],"type":"VEC3"},{"bufferView":24,"componentType":5126,"count":1,"max":[0.0416666679084301],"min":[0.0416666679084301],"type":"SCALAR"},{"bufferView":25,"componentType":5126,"count":1,"max":[1,1.5,1],"min":[1,1.5,1],"type":"VEC3"}]}