{"asset":{"version":"2.0","generator":"Blockbench 4.8.3 glTF exporter"},"scenes":[{"nodes":[12],"name":"blockbench_export"}],"scene":0,"nodes":[{"translation":[0.375,-0.6875,0],"name":"RightHand"},{"translation":[-0.375,0.6000000000000003,-0.625],"name":"R","children":[0]},{"translation":[0.5582031267470121,0.40867571414615256,0.7650631013289853],"name":"plate"},{"translation":[0.5613293736442078,0.39951045093465093,0.8709317735754596],"name":"hammer"},{"translation":[-0.5,-0.5874999999999997,-1.125],"name":"flintlock","children":[2,3]},{"translation":[1.000000015356055,0.5531250364742162,-0.6259453125000001],"name":"stick"},{"translation":[0.75,0.5515593750000005,-0.625],"name":"bullet"},{"translation":[1.3125,1.0375000000000003,-0.625],"name":"bottle"},{"translation":[0,0.2749999999999997,0],"name":"bone","children":[1,4,5,6,7]},{"translation":[-0.375,-0.6875,0],"name":"LeftHand"},{"translation":[0.375,0.875,-0.625],"name":"l","children":[9]},{"translation":[0.5,0.3125,1.125],"name":"bone2","children":[8,10]},{"children":[11]}],"animations":[{"name":"reload","samplers":[{"input":0,"output":1,"interpolation":"LINEAR"},{"input":2,"output":3,"interpolation":"LINEAR"},{"input":4,"output":5,"interpolation":"LINEAR"},{"input":6,"output":7,"interpolation":"LINEAR"},{"input":8,"output":9,"interpolation":"LINEAR"},{"input":10,"output":11,"interpolation":"LINEAR"},{"input":12,"output":13,"interpolation":"LINEAR"},{"input":14,"output":15,"interpolation":"LINEAR"},{"input":16,"output":17,"interpolation":"LINEAR"},{"input":18,"output":19,"interpolation":"LINEAR"},{"input":20,"output":21,"interpolation":"LINEAR"},{"input":22,"output":23,"interpolation":"LINEAR"},{"input":24,"output":25,"interpolation":"LINEAR"},{"input":26,"output":27,"interpolation":"LINEAR"},{"input":28,"output":29,"interpolation":"LINEAR"},{"input":30,"output":31,"interpolation":"LINEAR"},{"input":32,"output":33,"interpolation":"LINEAR"},{"input":34,"output":35,"interpolation":"LINEAR"}],"channels":[{"sampler":0,"target":{"node":11,"path":"rotation"}},{"sampler":1,"target":{"node":11,"path":"translation"}},{"sampler":2,"target":{"node":1,"path":"rotation"}},{"sampler":3,"target":{"node":1,"path":"translation"}},{"sampler":4,"target":{"node":1,"path":"scale"}},{"sampler":5,"target":{"node":2,"path":"rotation"}},{"sampler":6,"target":{"node":5,"path":"rotation"}},{"sampler":7,"target":{"node":5,"path":"translation"}},{"sampler":8,"target":{"node":5,"path":"scale"}},{"sampler":9,"target":{"node":6,"path":"rotation"}},{"sampler":10,"target":{"node":6,"path":"translation"}},{"sampler":11,"target":{"node":7,"path":"rotation"}},{"sampler":12,"target":{"node":7,"path":"translation"}},{"sampler":13,"target":{"node":7,"path":"scale"}},{"sampler":14,"target":{"node":10,"path":"rotation"}},{"sampler":15,"target":{"node":10,"path":"translation"}},{"sampler":16,"target":{"node":10,"path":"scale"}},{"sampler":17,"target":{"node":3,"path":"rotation"}}]}],"bufferViews":[{"buffer":0,"byteOffset":0,"byteLength":1264},{"buffer":0,"byteOffset":1264,"byteLength":5056},{"buffer":0,"byteOffset":6320,"byteLength":1264},{"buffer":0,"byteOffset":7584,"byteLength":3792},{"buffer":0,"byteOffset":11376,"byteLength":1228},{"buffer":0,"byteOffset":12604,"byteLength":4912},{"buffer":0,"byteOffset":17516,"byteLength":1228},{"buffer":0,"byteOffset":18744,"byteLength":3684},{"buffer":0,"byteOffset":22428,"byteLength":4},{"buffer":0,"byteOffset":22432,"byteLength":12},{"buffer":0,"byteOffset":22444,"byteLength":304},{"buffer":0,"byteOffset":22748,"byteLength":1216},{"buffer":0,"byteOffset":23964,"byteLength":276},{"buffer":0,"byteOffset":24240,"byteLength":1104},{"buffer":0,"byteOffset":25344,"byteLength":696},{"buffer":0,"byteOffset":26040,"byteLength":2088},{"buffer":0,"byteOffset":28128,"byteLength":700},{"buffer":0,"byteOffset":28828,"byteLength":2100},{"buffer":0,"byteOffset":30928,"byteLength":292},{"buffer":0,"byteOffset":31220,"byteLength":1168},{"buffer":0,"byteOffset":32388,"byteLength":628},{"buffer":0,"byteOffset":33016,"byteLength":1884},{"buffer":0,"byteOffset":34900,"byteLength":1044},{"buffer":0,"byteOffset":35944,"byteLength":4176},{"buffer":0,"byteOffset":40120,"byteLength":1044},{"buffer":0,"byteOffset":41164,"byteLength":3132},{"buffer":0,"byteOffset":44296,"byteLength":868},{"buffer":0,"byteOffset":45164,"byteLength":2604},{"buffer":0,"byteOffset":47768,"byteLength":764},{"buffer":0,"byteOffset":48532,"byteLength":3056},{"buffer":0,"byteOffset":51588,"byteLength":764},{"buffer":0,"byteOffset":52352,"byteLength":2292},{"buffer":0,"byteOffset":54644,"byteLength":4},{"buffer":0,"byteOffset":54648,"byteLength":12},{"buffer":0,"byteOffset":54660,"byteLength":32},{"buffer":0,"byteOffset":54692,"byteLength":128}],"buffers":[{"byteLength":54820,"uri":"data:application/octet-stream;base64,"}],"accessors":[{"bufferView":0,"componentType":5126,"count":316,"max":[13.166666984558105],"min":[0.0416666679084301],"type":"SCALAR"},{"bufferView":1,"componentType":5126,"count":316,"max":[0.35681959986686707,0.19078493118286133,0.27001824975013733,1],"min":[-0.001347654266282916,-0.006191841326653957,-0.22110570967197418,0.9145523309707642],"type":"VEC4"},{"bufferView":2,"componentType":5126,"count":316,"max":[13.166666984558105],"min":[0.0416666679084301],"type":"SCALAR"},{"bufferView":3,"componentType":5126,"count":316,"max":[0.8868749737739563,0.31312501430511475,2.916249990463257],"min":[0.49312499165534973,-1.1699999570846558,0.9443749785423279],"type":"VEC3"},{"bufferView":4,"componentType":5126,"count":307,"max":[12.791666984558105],"min":[0.0416666679084301],"type":"SCALAR"},{"bufferView":5,"componentType":5126,"count":307,"max":[0.010099241510033607,0.9475485682487488,-0.30075040459632874,0.35561543703079224],"min":[-0.248363196849823,0.75691819190979,-0.6501230597496033,-0.18293866515159607],"type":"VEC4"},{"bufferView":6,"componentType":5126,"count":307,"max":[12.791666984558105],"min":[0.0416666679084301],"type":"SCALAR"},{"bufferView":7,"componentType":5126,"count":307,"max":[0.42750000953674316,-0.19625000655651093,0.03500000014901161],"min":[0.027499999850988388,-1.9237500429153442,-0.8362500071525574],"type":"VEC3"},{"bufferView":8,"componentType":5126,"count":1,"max":[0.0416666679084301],"min":[0.0416666679084301],"type":"SCALAR"},{"bufferView":9,"componentType":5126,"count":1,"max":[1,1.5,1],"min":[1,1.5,1],"type":"VEC3"},{"bufferView":10,"componentType":5126,"count":76,"max":[11.583333015441895],"min":[8.458333015441895],"type":"SCALAR"},{"bufferView":11,"componentType":5126,"count":76,"max":[0,0,0,1],"min":[-0.591309666633606,0,0,0.8064445853233337],"type":"VEC4"},{"bufferView":12,"componentType":5126,"count":69,"max":[7.25],"min":[4.416666507720947],"type":"SCALAR"},{"bufferView":13,"componentType":5126,"count":69,"max":[0.26180195808410645,0.11343616992235184,0,1],"min":[-0.0051005263812839985,-0.16739141941070557,-0.08352028578519821,0.961350679397583],"type":"VEC4"},{"bufferView":14,"componentType":5126,"count":174,"max":[7.25],"min":[0.0416666679084301],"type":"SCALAR"},{"bufferView":15,"componentType":5126,"count":174,"max":[0.625,-0.135624960064888,0.7990546822547913],"min":[-0.14499998092651367,-2.8843748569488525,-2.6546952724456787],"type":"VEC3"},{"bufferView":16,"componentType":5126,"count":175,"max":[7.291666507720947],"min":[0.0416666679084301],"type":"SCALAR"},{"bufferView":17,"componentType":5126,"count":175,"max":[1,1,1],"min":[0,0,0],"type":"VEC3"},{"bufferView":18,"componentType":5126,"count":73,"max":[3.0416667461395264],"min":[0.0416666679084301],"type":"SCALAR"},{"bufferView":19,"componentType":5126,"count":73,"max":[0.12403444945812225,0,0,1],"min":[0,0,0,0.9922779202461243],"type":"VEC4"},{"bufferView":20,"componentType":5126,"count":157,"max":[6.541666507720947],"min":[0.0416666679084301],"type":"SCALAR"},{"bufferView":21,"componentType":5126,"count":157,"max":[0.25,-0.13344062864780426,-0.0625],"min":[-0.0006249999860301614,-3.1984405517578125,-2.09375],"type":"VEC3"},{"bufferView":22,"componentType":5126,"count":261,"max":[10.875],"min":[0.0416666679084301],"type":"SCALAR"},{"bufferView":23,"componentType":5126,"count":261,"max":[0.37164437770843506,0.22117885947227478,0.5726273059844971,1],"min":[-0.07557972520589828,-0.18718063831329346,-0.40780383348464966,0.7927404642105103],"type":"VEC4"},{"bufferView":24,"componentType":5126,"count":261,"max":[10.875],"min":[0.0416666679084301],"type":"SCALAR"},{"bufferView":25,"componentType":5126,"count":261,"max":[0.375,-0.13500000536441803,-0.17749999463558197],"min":[-0.48374998569488525,-3.0250000953674316,-2.1500000953674316],"type":"VEC3"},{"bufferView":26,"componentType":5126,"count":217,"max":[9.041666984558105],"min":[0.0416666679084301],"type":"SCALAR"},{"bufferView":27,"componentType":5126,"count":217,"max":[0.5,0.5,0.5],"min":[0,0,0],"type":"VEC3"},{"bufferView":28,"componentType":5126,"count":191,"max":[7.958333492279053],"min":[0.0416666679084301],"type":"SCALAR"},{"bufferView":29,"componentType":5126,"count":191,"max":[0.37848442792892456,0.9821270108222961,-0.14133518934249878,0.4460119605064392],"min":[-0.11155778914690018,0.696080207824707,-0.652981698513031,-0.33440476655960083],"type":"VEC4"},{"bufferView":30,"componentType":5126,"count":191,"max":[7.958333492279053],"min":[0.0416666679084301],"type":"SCALAR"},{"bufferView":31,"componentType":5126,"count":191,"max":[-0.008750000037252903,0.0949999988079071,-0.07874999940395355],"min":[-0.6499999761581421,-1.7487499713897705,-2.6762499809265137],"type":"VEC3"},{"bufferView":32,"componentType":5126,"count":1,"max":[0.0416666679084301],"min":[0.0416666679084301],"type":"SCALAR"},{"bufferView":33,"componentType":5126,"count":1,"max":[1,1.5,1],"min":[1,1.5,1],"type":"VEC3"},{"bufferView":34,"componentType":5126,"count":8,"max":[12.333333015441895],"min":[12.041666984558105],"type":"SCALAR"},{"bufferView":35,"componentType":5126,"count":8,"max":[0.3420201539993286,0,0,1],"min":[0,0,0,0.9396926164627075],"type":"VEC4"}]}