{"asset":{"version":"2.0","generator":"Blockbench 4.8.3 glTF exporter"},"scenes":[{"nodes":[12],"name":"blockbench_export"}],"scene":0,"nodes":[{"translation":[0.375,-0.6875,0],"name":"RightHand"},{"translation":[-0.375,0.6000000000000003,-0.625],"name":"R","children":[0]},{"translation":[0.5582031267470121,0.40867571414615256,0.7650631013289853],"name":"plate"},{"translation":[0.5613293736442078,0.39951045093465093,0.8709317735754596],"name":"hammer"},{"translation":[-0.5,-0.5874999999999997,-1.125],"name":"flintlock","children":[2,3]},{"translation":[1.000000015356055,0.5531250364742162,-0.6259453125000001],"name":"stick"},{"translation":[0.75,0.5515593750000005,-0.625],"name":"bullet"},{"translation":[1.3125,1.0375000000000003,-0.625],"name":"bottle"},{"translation":[0,0.2749999999999997,0],"name":"bone","children":[1,4,5,6,7]},{"translation":[-0.375,-0.6875,0],"name":"LeftHand"},{"translation":[0.375,0.875,-0.625],"name":"l","children":[9]},{"translation":[0.5,0.3125,1.125],"name":"bone2","children":[8,10]},{"children":[11]}],"animations":[{"name":"inspect","samplers":[{"input":0,"output":1,"interpolation":"LINEAR"},{"input":2,"output":3,"interpolation":"LINEAR"},{"input":4,"output":5,"interpolation":"LINEAR"},{"input":6,"output":7,"interpolation":"LINEAR"},{"input":8,"output":9,"interpolation":"LINEAR"},{"input":10,"output":11,"interpolation":"LINEAR"},{"input":12,"output":13,"interpolation":"LINEAR"},{"input":14,"output":15,"interpolation":"LINEAR"},{"input":16,"output":17,"interpolation":"LINEAR"},{"input":18,"output":19,"interpolation":"LINEAR"},{"input":20,"output":21,"interpolation":"LINEAR"},{"input":22,"output":23,"interpolation":"LINEAR"},{"input":24,"output":25,"interpolation":"LINEAR"},{"input":26,"output":27,"interpolation":"LINEAR"},{"input":28,"output":29,"interpolation":"LINEAR"},{"input":30,"output":31,"interpolation":"LINEAR"},{"input":32,"output":33,"interpolation":"LINEAR"},{"input":34,"output":35,"interpolation":"LINEAR"}],"channels":[{"sampler":0,"target":{"node":11,"path":"rotation"}},{"sampler":1,"target":{"node":11,"path":"translation"}},{"sampler":2,"target":{"node":1,"path":"rotation"}},{"sampler":3,"target":{"node":1,"path":"translation"}},{"sampler":4,"target":{"node":1,"path":"scale"}},{"sampler":5,"target":{"node":5,"path":"translation"}},{"sampler":6,"target":{"node":5,"path":"scale"}},{"sampler":7,"target":{"node":6,"path":"rotation"}},{"sampler":8,"target":{"node":6,"path":"translation"}},{"sampler":9,"target":{"node":6,"path":"scale"}},{"sampler":10,"target":{"node":7,"path":"rotation"}},{"sampler":11,"target":{"node":7,"path":"translation"}},{"sampler":12,"target":{"node":7,"path":"scale"}},{"sampler":13,"target":{"node":10,"path":"rotation"}},{"sampler":14,"target":{"node":10,"path":"translation"}},{"sampler":15,"target":{"node":10,"path":"scale"}},{"sampler":16,"target":{"node":3,"path":"rotation"}},{"sampler":17,"target":{"node":3,"path":"translation"}}]}],"bufferViews":[{"buffer":0,"byteOffset":0,"byteLength":472},{"buffer":0,"byteOffset":472,"byteLength":1888},{"buffer":0,"byteOffset":2360,"byteLength":472},{"buffer":0,"byteOffset":2832,"byteLength":1416},{"buffer":0,"byteOffset":4248,"byteLength":380},{"buffer":0,"byteOffset":4628,"byteLength":1520},{"buffer":0,"byteOffset":6148,"byteLength":380},{"buffer":0,"byteOffset":6528,"byteLength":1140},{"buffer":0,"byteOffset":7668,"byteLength":4},{"buffer":0,"byteOffset":7672,"byteLength":12},{"buffer":0,"byteOffset":7684,"byteLength":4},{"buffer":0,"byteOffset":7688,"byteLength":12},{"buffer":0,"byteOffset":7700,"byteLength":4},{"buffer":0,"byteOffset":7704,"byteLength":12},{"buffer":0,"byteOffset":7716,"byteLength":4},{"buffer":0,"byteOffset":7720,"byteLength":16},{"buffer":0,"byteOffset":7736,"byteLength":4},{"buffer":0,"byteOffset":7740,"byteLength":12},{"buffer":0,"byteOffset":7752,"byteLength":4},{"buffer":0,"byteOffset":7756,"byteLength":12},{"buffer":0,"byteOffset":7768,"byteLength":4},{"buffer":0,"byteOffset":7772,"byteLength":16},{"buffer":0,"byteOffset":7788,"byteLength":4},{"buffer":0,"byteOffset":7792,"byteLength":12},{"buffer":0,"byteOffset":7804,"byteLength":4},{"buffer":0,"byteOffset":7808,"byteLength":12},{"buffer":0,"byteOffset":7820,"byteLength":388},{"buffer":0,"byteOffset":8208,"byteLength":1552},{"buffer":0,"byteOffset":9760,"byteLength":388},{"buffer":0,"byteOffset":10148,"byteLength":1164},{"buffer":0,"byteOffset":11312,"byteLength":4},{"buffer":0,"byteOffset":11316,"byteLength":12},{"buffer":0,"byteOffset":11328,"byteLength":8},{"buffer":0,"byteOffset":11336,"byteLength":32},{"buffer":0,"byteOffset":11368,"byteLength":4},{"buffer":0,"byteOffset":11372,"byteLength":12}],"buffers":[{"byteLength":11384,"uri":"data:application/octet-stream;base64,"}],"accessors":[{"bufferView":0,"componentType":5126,"count":118,"max":[4.916666507720947],"min":[0.0416666679084301],"type":"SCALAR"},{"bufferView":1,"componentType":5126,"count":118,"max":[0.59275883436203,0.6211159229278564,0.6171719431877136,1],"min":[-0.0573517307639122,-0.041557058691978455,-0.1684722900390625,0.7478911280632019],"type":"VEC4"},{"bufferView":2,"componentType":5126,"count":118,"max":[4.916666507720947],"min":[0.0416666679084301],"type":"SCALAR"},{"bufferView":3,"componentType":5126,"count":118,"max":[0.6037499904632568,0.4518750011920929,1.3268749713897705],"min":[0.3306249976158142,-1.4574999809265137,1.1200000047683716],"type":"VEC3"},{"bufferView":4,"componentType":5126,"count":95,"max":[3.9583332538604736],"min":[0.0416666679084301],"type":"SCALAR"},{"bufferView":5,"componentType":5126,"count":95,"max":[0.17034119367599487,0.855232298374176,-0.25872498750686646,0.6516785025596619],"min":[0.010099241510033607,0.6923585534095764,-0.6523444652557373,-0.06567279249429703],"type":"VEC4"},{"bufferView":6,"componentType":5126,"count":95,"max":[3.9583332538604736],"min":[0.0416666679084301],"type":"SCALAR"},{"bufferView":7,"componentType":5126,"count":95,"max":[0.027499999850988388,-0.17624999582767487,0.36375001072883606],"min":[0.027499999850988388,-0.39625000953674316,-0.6399999856948853],"type":"VEC3"},{"bufferView":8,"componentType":5126,"count":1,"max":[0.0416666679084301],"min":[0.0416666679084301],"type":"SCALAR"},{"bufferView":9,"componentType":5126,"count":1,"max":[1,1.5,1],"min":[1,1.5,1],"type":"VEC3"},{"bufferView":10,"componentType":5126,"count":1,"max":[0.0416666679084301],"min":[0.0416666679084301],"type":"SCALAR"},{"bufferView":11,"componentType":5126,"count":1,"max":[0.625,-2.8843748569488525,-0.6259453296661377],"min":[0.625,-2.8843748569488525,-0.6259453296661377],"type":"VEC3"},{"bufferView":12,"componentType":5126,"count":1,"max":[0.0416666679084301],"min":[0.0416666679084301],"type":"SCALAR"},{"bufferView":13,"componentType":5126,"count":1,"max":[0,0,0],"min":[0,0,0],"type":"VEC3"},{"bufferView":14,"componentType":5126,"count":1,"max":[0.0416666679084301],"min":[0.0416666679084301],"type":"SCALAR"},{"bufferView":15,"componentType":5126,"count":1,"max":[0,0,0,1],"min":[0,0,0,1],"type":"VEC4"},{"bufferView":16,"componentType":5126,"count":1,"max":[0.0416666679084301],"min":[0.0416666679084301],"type":"SCALAR"},{"bufferView":17,"componentType":5126,"count":1,"max":[0.25,-3.1984405517578125,-0.0625],"min":[0.25,-3.1984405517578125,-0.0625],"type":"VEC3"},{"bufferView":18,"componentType":5126,"count":1,"max":[0.0416666679084301],"min":[0.0416666679084301],"type":"SCALAR"},{"bufferView":19,"componentType":5126,"count":1,"max":[0,0,0],"min":[0,0,0],"type":"VEC3"},{"bufferView":20,"componentType":5126,"count":1,"max":[0.0416666679084301],"min":[0.0416666679084301],"type":"SCALAR"},{"bufferView":21,"componentType":5126,"count":1,"max":[0,0,0,1],"min":[0,0,0,1],"type":"VEC4"},{"bufferView":22,"componentType":5126,"count":1,"max":[0.0416666679084301],"min":[0.0416666679084301],"type":"SCALAR"},{"bufferView":23,"componentType":5126,"count":1,"max":[0.375,-3.0250000953674316,-0.1875],"min":[0.375,-3.0250000953674316,-0.1875],"type":"VEC3"},{"bufferView":24,"componentType":5126,"count":1,"max":[0.0416666679084301],"min":[0.0416666679084301],"type":"SCALAR"},{"bufferView":25,"componentType":5126,"count":1,"max":[0,0,0],"min":[0,0,0],"type":"VEC3"},{"bufferView":26,"componentType":5126,"count":97,"max":[4.041666507720947],"min":[0.0416666679084301],"type":"SCALAR"},{"bufferView":27,"componentType":5126,"count":97,"max":[0.015880851075053215,0.8011500835418701,-0.4046758711338043,0.49462226033210754],"min":[-0.11155778914690018,0.696080207824707,-0.5514531135559082,0.43381813168525696],"type":"VEC4"},{"bufferView":28,"componentType":5126,"count":97,"max":[4.041666507720947],"min":[0.0416666679084301],"type":"SCALAR"},{"bufferView":29,"componentType":5126,"count":97,"max":[-0.08124999701976776,0.07874999940395355,-0.5512499809265137],"min":[-0.08124999701976776,-0.019999999552965164,-1.3224999904632568],"type":"VEC3"},{"bufferView":30,"componentType":5126,"count":1,"max":[0.0416666679084301],"min":[0.0416666679084301],"type":"SCALAR"},{"bufferView":31,"componentType":5126,"count":1,"max":[1,1.5,1],"min":[1,1.5,1],"type":"VEC3"},{"bufferView":32,"componentType":5126,"count":2,"max":[0.0416666679084301],"min":[0],"type":"SCALAR"},{"bufferView":33,"componentType":5126,"count":2,"max":[0.3420201539993286,0,0,1],"min":[0,0,0,0.9396926164627075],"type":"VEC4"},{"bufferView":34,"componentType":5126,"count":1,"max":[0.0416666679084301],"min":[0.0416666679084301],"type":"SCALAR"},{"bufferView":35,"componentType":5126,"count":1,"max":[0.5613293647766113,0.3995104432106018,0.8709317445755005],"min":[0.5613293647766113,0.3995104432106018,0.8709317445755005],"type":"VEC3"}]}