{"asset":{"version":"2.0","generator":"Blockbench 4.8.3 glTF exporter"},"scenes":[{"nodes":[12],"name":"blockbench_export"}],"scene":0,"nodes":[{"translation":[0.375,-0.6875,0],"name":"RightHand"},{"translation":[-0.3955078125,0.8724609375000003,-0.791015625],"name":"R","children":[0]},{"translation":[0.5582031267470121,0.40867571414615256,0.7650631013289853],"name":"plate"},{"translation":[0.5613293736442078,0.39951045093465093,0.8709317735754596],"name":"hammer"},{"translation":[-0.5205078125,-0.3150390624999997,-1.291015625],"name":"flintlock","children":[2,3]},{"translation":[0.9794922028560551,0.8255859739742162,-0.4775703124999999],"name":"stick"},{"translation":[0.7294921875,0.8205054687500004,-0.791015625],"name":"bullet"},{"translation":[1.2919921875,1.0599609375000003,-0.791015625],"name":"bottle"},{"translation":[-0.001953125,0.002539062499999689,0.0126953125],"name":"bone","children":[1,4,5,6,7]},{"translation":[-0.375,-0.6875,0],"name":"LeftHand"},{"translation":[0.3525390625,0.875,-0.7783203125],"name":"l","children":[9]},{"translation":[0.5224609375,0.3125,1.2783203125],"name":"bone2","children":[8,10]},{"children":[11]}],"animations":[{"name":"fire","samplers":[{"input":0,"output":1,"interpolation":"LINEAR"},{"input":2,"output":3,"interpolation":"LINEAR"},{"input":4,"output":5,"interpolation":"LINEAR"},{"input":6,"output":7,"interpolation":"LINEAR"},{"input":8,"output":9,"interpolation":"LINEAR"},{"input":10,"output":11,"interpolation":"LINEAR"},{"input":12,"output":13,"interpolation":"LINEAR"},{"input":14,"output":15,"interpolation":"LINEAR"},{"input":16,"output":17,"interpolation":"LINEAR"},{"input":18,"output":19,"interpolation":"LINEAR"},{"input":20,"output":21,"interpolation":"LINEAR"},{"input":22,"output":23,"interpolation":"LINEAR"},{"input":24,"output":25,"interpolation":"LINEAR"},{"input":26,"output":27,"interpolation":"LINEAR"},{"input":28,"output":29,"interpolation":"LINEAR"},{"input":30,"output":31,"interpolation":"LINEAR"},{"input":32,"output":33,"interpolation":"LINEAR"},{"input":34,"output":35,"interpolation":"LINEAR"},{"input":36,"output":37,"interpolation":"LINEAR"},{"input":38,"output":39,"interpolation":"LINEAR"},{"input":40,"output":41,"interpolation":"LINEAR"},{"input":42,"output":43,"interpolation":"LINEAR"}],"channels":[{"sampler":0,"target":{"node":3,"path":"rotation"}},{"sampler":1,"target":{"node":3,"path":"translation"}},{"sampler":2,"target":{"node":7,"path":"rotation"}},{"sampler":3,"target":{"node":7,"path":"translation"}},{"sampler":4,"target":{"node":7,"path":"scale"}},{"sampler":5,"target":{"node":6,"path":"rotation"}},{"sampler":6,"target":{"node":6,"path":"translation"}},{"sampler":7,"target":{"node":6,"path":"scale"}},{"sampler":8,"target":{"node":11,"path":"rotation"}},{"sampler":9,"target":{"node":11,"path":"translation"}},{"sampler":10,"target":{"node":8,"path":"rotation"}},{"sampler":11,"target":{"node":8,"path":"translation"}},{"sampler":12,"target":{"node":1,"path":"rotation"}},{"sampler":13,"target":{"node":1,"path":"translation"}},{"sampler":14,"target":{"node":1,"path":"scale"}},{"sampler":15,"target":{"node":10,"path":"rotation"}},{"sampler":16,"target":{"node":10,"path":"translation"}},{"sampler":17,"target":{"node":10,"path":"scale"}},{"sampler":18,"target":{"node":2,"path":"rotation"}},{"sampler":19,"target":{"node":5,"path":"rotation"}},{"sampler":20,"target":{"node":5,"path":"translation"}},{"sampler":21,"target":{"node":5,"path":"scale"}}]}],"bufferViews":[{"buffer":0,"byteOffset":0,"byteLength":36},{"buffer":0,"byteOffset":36,"byteLength":144},{"buffer":0,"byteOffset":180,"byteLength":4},{"buffer":0,"byteOffset":184,"byteLength":12},{"buffer":0,"byteOffset":196,"byteLength":4},{"buffer":0,"byteOffset":200,"byteLength":16},{"buffer":0,"byteOffset":216,"byteLength":4},{"buffer":0,"byteOffset":220,"byteLength":12},{"buffer":0,"byteOffset":232,"byteLength":4},{"buffer":0,"byteOffset":236,"byteLength":12},{"buffer":0,"byteOffset":248,"byteLength":4},{"buffer":0,"byteOffset":252,"byteLength":16},{"buffer":0,"byteOffset":268,"byteLength":4},{"buffer":0,"byteOffset":272,"byteLength":12},{"buffer":0,"byteOffset":284,"byteLength":4},{"buffer":0,"byteOffset":288,"byteLength":12},{"buffer":0,"byteOffset":300,"byteLength":48},{"buffer":0,"byteOffset":348,"byteLength":192},{"buffer":0,"byteOffset":540,"byteLength":48},{"buffer":0,"byteOffset":588,"byteLength":144},{"buffer":0,"byteOffset":732,"byteLength":4},{"buffer":0,"byteOffset":736,"byteLength":16},{"buffer":0,"byteOffset":752,"byteLength":4},{"buffer":0,"byteOffset":756,"byteLength":12},{"buffer":0,"byteOffset":768,"byteLength":36},{"buffer":0,"byteOffset":804,"byteLength":144},{"buffer":0,"byteOffset":948,"byteLength":36},{"buffer":0,"byteOffset":984,"byteLength":108},{"buffer":0,"byteOffset":1092,"byteLength":4},{"buffer":0,"byteOffset":1096,"byteLength":12},{"buffer":0,"byteOffset":1108,"byteLength":4},{"buffer":0,"byteOffset":1112,"byteLength":16},{"buffer":0,"byteOffset":1128,"byteLength":4},{"buffer":0,"byteOffset":1132,"byteLength":12},{"buffer":0,"byteOffset":1144,"byteLength":4},{"buffer":0,"byteOffset":1148,"byteLength":12},{"buffer":0,"byteOffset":1160,"byteLength":32},{"buffer":0,"byteOffset":1192,"byteLength":128},{"buffer":0,"byteOffset":1320,"byteLength":4},{"buffer":0,"byteOffset":1324,"byteLength":16},{"buffer":0,"byteOffset":1340,"byteLength":4},{"buffer":0,"byteOffset":1344,"byteLength":12},{"buffer":0,"byteOffset":1356,"byteLength":4},{"buffer":0,"byteOffset":1360,"byteLength":12}],"buffers":[{"byteLength":1372,"uri":"data:application/octet-stream;base64,"}],"accessors":[{"bufferView":0,"componentType":5126,"count":9,"max":[0.7083333134651184],"min":[0.0416666679084301],"type":"SCALAR"},{"bufferView":1,"componentType":5126,"count":9,"max":[0.30070579051971436,0,0,1],"min":[-0.5018881559371948,0,0,0.8649325370788574],"type":"VEC4"},{"bufferView":2,"componentType":5126,"count":1,"max":[0.625],"min":[0.625],"type":"SCALAR"},{"bufferView":3,"componentType":5126,"count":1,"max":[0.5613293647766113,0.3995104432106018,0.8709317445755005],"min":[0.5613293647766113,0.3995104432106018,0.8709317445755005],"type":"VEC3"},{"bufferView":4,"componentType":5126,"count":1,"max":[0.0416666679084301],"min":[0.0416666679084301],"type":"SCALAR"},{"bufferView":5,"componentType":5126,"count":1,"max":[0,0,0,1],"min":[0,0,0,1],"type":"VEC4"},{"bufferView":6,"componentType":5126,"count":1,"max":[0.0416666679084301],"min":[0.0416666679084301],"type":"SCALAR"},{"bufferView":7,"componentType":5126,"count":1,"max":[1.2919921875,1.059960961341858,-0.791015625],"min":[1.2919921875,1.059960961341858,-0.791015625],"type":"VEC3"},{"bufferView":8,"componentType":5126,"count":1,"max":[0.0416666679084301],"min":[0.0416666679084301],"type":"SCALAR"},{"bufferView":9,"componentType":5126,"count":1,"max":[0,0,0],"min":[0,0,0],"type":"VEC3"},{"bufferView":10,"componentType":5126,"count":1,"max":[0.0416666679084301],"min":[0.0416666679084301],"type":"SCALAR"},{"bufferView":11,"componentType":5126,"count":1,"max":[0,0,0,1],"min":[0,0,0,1],"type":"VEC4"},{"bufferView":12,"componentType":5126,"count":1,"max":[0.0416666679084301],"min":[0.0416666679084301],"type":"SCALAR"},{"bufferView":13,"componentType":5126,"count":1,"max":[0.7294921875,0.8205054402351379,-0.791015625],"min":[0.7294921875,0.8205054402351379,-0.791015625],"type":"VEC3"},{"bufferView":14,"componentType":5126,"count":1,"max":[0.0416666679084301],"min":[0.0416666679084301],"type":"SCALAR"},{"bufferView":15,"componentType":5126,"count":1,"max":[0,0,0],"min":[0,0,0],"type":"VEC3"},{"bufferView":16,"componentType":5126,"count":12,"max":[1.3333333730697632],"min":[0.0416666679084301],"type":"SCALAR"},{"bufferView":17,"componentType":5126,"count":12,"max":[0.12774713337421417,0.00019989169959444553,0.015268799848854542,1],"min":[-0.020925380289554596,-0.017644183710217476,-0.06973746418952942,0.9892629981040955],"type":"VEC4"},{"bufferView":18,"componentType":5126,"count":12,"max":[1.3333333730697632],"min":[0.0416666679084301],"type":"SCALAR"},{"bufferView":19,"componentType":5126,"count":12,"max":[0.5224609375,0.3466796875,1.3833398818969727],"min":[0.5224609375,0.31187498569488525,1.2646484375],"type":"VEC3"},{"bufferView":20,"componentType":5126,"count":1,"max":[0.0416666679084301],"min":[0.0416666679084301],"type":"SCALAR"},{"bufferView":21,"componentType":5126,"count":1,"max":[0,0,0,1],"min":[0,0,0,1],"type":"VEC4"},{"bufferView":22,"componentType":5126,"count":1,"max":[0.0416666679084301],"min":[0.0416666679084301],"type":"SCALAR"},{"bufferView":23,"componentType":5126,"count":1,"max":[-0.001953125,0.0025390624068677425,0.0126953125],"min":[-0.001953125,0.0025390624068677425,0.0126953125],"type":"VEC3"},{"bufferView":24,"componentType":5126,"count":9,"max":[1.3333333730697632],"min":[0.0416666679084301],"type":"SCALAR"},{"bufferView":25,"componentType":5126,"count":9,"max":[-0.059494748711586,0.9391604661941528,-0.28872039914131165,-0.013774224556982517],"min":[-0.22549791634082794,0.6922844648361206,-0.7182514071464539,-0.1427386999130249],"type":"VEC4"},{"bufferView":26,"componentType":5126,"count":9,"max":[1.3333333730697632],"min":[0.0416666679084301],"type":"SCALAR"},{"bufferView":27,"componentType":5126,"count":9,"max":[0.16101562976837158,0.20246094465255737,-0.0615234375],"min":[0.021367186680436134,-0.04453124850988388,-0.6969335675239563],"type":"VEC3"},{"bufferView":28,"componentType":5126,"count":1,"max":[0.0416666679084301],"min":[0.0416666679084301],"type":"SCALAR"},{"bufferView":29,"componentType":5126,"count":1,"max":[1,1.5,1],"min":[1,1.5,1],"type":"VEC3"},{"bufferView":30,"componentType":5126,"count":1,"max":[0.0416666679084301],"min":[0.0416666679084301],"type":"SCALAR"},{"bufferView":31,"componentType":5126,"count":1,"max":[-0.27068936824798584,0.5966658592224121,-0.529228150844574,0.5391054749488831],"min":[-0.27068936824798584,0.5966658592224121,-0.529228150844574,0.5391054749488831],"type":"VEC4"},{"bufferView":32,"componentType":5126,"count":1,"max":[0.0416666679084301],"min":[0.0416666679084301],"type":"SCALAR"},{"bufferView":33,"componentType":5126,"count":1,"max":[-0.02734375,-0.044921875,-0.7783203125],"min":[-0.02734375,-0.044921875,-0.7783203125],"type":"VEC3"},{"bufferView":34,"componentType":5126,"count":1,"max":[0.0416666679084301],"min":[0.0416666679084301],"type":"SCALAR"},{"bufferView":35,"componentType":5126,"count":1,"max":[1,1.5,1],"min":[1,1.5,1],"type":"VEC3"},{"bufferView":36,"componentType":5126,"count":8,"max":[1.0416666269302368],"min":[0.0833333358168602],"type":"SCALAR"},{"bufferView":37,"componentType":5126,"count":8,"max":[0,0,0,1],"min":[-0.5150380730628967,0,0,0.8571673035621643],"type":"VEC4"},{"bufferView":38,"componentType":5126,"count":1,"max":[0.0416666679084301],"min":[0.0416666679084301],"type":"SCALAR"},{"bufferView":39,"componentType":5126,"count":1,"max":[0,0,0,1],"min":[0,0,0,1],"type":"VEC4"},{"bufferView":40,"componentType":5126,"count":1,"max":[0.0416666679084301],"min":[0.0416666679084301],"type":"SCALAR"},{"bufferView":41,"componentType":5126,"count":1,"max":[0.9794921875,0.8255859613418579,-0.4775703251361847],"min":[0.9794921875,0.8255859613418579,-0.4775703251361847],"type":"VEC3"},{"bufferView":42,"componentType":5126,"count":1,"max":[0.0416666679084301],"min":[0.0416666679084301],"type":"SCALAR"},{"bufferView":43,"componentType":5126,"count":1,"max":[0,0,0],"min":[0,0,0],"type":"VEC3"}]}