{"asset":{"version":"2.0","generator":"Blockbench 4.8.3 glTF exporter"},"scenes":[{"nodes":[10],"name":"blockbench_export"}],"scene":0,"nodes":[{"translation":[-0.375,-0.6875,0],"name":"LeftHand"},{"translation":[0.4375,0.5625,0],"name":"l","children":[0]},{"translation":[0.375,-0.6875,0],"name":"RightHand"},{"translation":[0.125,1.1875,0.5],"name":"R1","children":[2]},{"translation":[0.5,0.5,0.5],"name":"extdmb"},{"translation":[0.5,0.5,0.5],"name":"mb"},{"translation":[0.426491875,0.67578125,0.683021875],"name":"pulls"},{"name":"hcar","children":[4,5,6]},{"translation":[-0.4375,-0.625,-0.5],"name":"R2","children":[3,7]},{"translation":[0.4375,0.625,0.5],"name":"root","children":[1,8]},{"children":[9]}],"animations":[{"name":"reload_norm","samplers":[{"input":0,"output":1,"interpolation":"LINEAR"},{"input":2,"output":3,"interpolation":"LINEAR"},{"input":4,"output":5,"interpolation":"LINEAR"},{"input":6,"output":7,"interpolation":"LINEAR"},{"input":8,"output":9,"interpolation":"LINEAR"},{"input":10,"output":11,"interpolation":"LINEAR"},{"input":12,"output":13,"interpolation":"LINEAR"},{"input":14,"output":15,"interpolation":"LINEAR"},{"input":16,"output":17,"interpolation":"LINEAR"},{"input":18,"output":19,"interpolation":"LINEAR"}],"channels":[{"sampler":0,"target":{"node":9,"path":"rotation"}},{"sampler":1,"target":{"node":9,"path":"translation"}},{"sampler":2,"target":{"node":3,"path":"rotation"}},{"sampler":3,"target":{"node":3,"path":"translation"}},{"sampler":4,"target":{"node":3,"path":"scale"}},{"sampler":5,"target":{"node":4,"path":"rotation"}},{"sampler":6,"target":{"node":4,"path":"translation"}},{"sampler":7,"target":{"node":1,"path":"rotation"}},{"sampler":8,"target":{"node":1,"path":"translation"}},{"sampler":9,"target":{"node":1,"path":"scale"}}]}],"bufferViews":[{"buffer":0,"byteOffset":0,"byteLength":208},{"buffer":0,"byteOffset":208,"byteLength":832},{"buffer":0,"byteOffset":1040,"byteLength":216},{"buffer":0,"byteOffset":1256,"byteLength":648},{"buffer":0,"byteOffset":1904,"byteLength":4},{"buffer":0,"byteOffset":1908,"byteLength":16},{"buffer":0,"byteOffset":1924,"byteLength":4},{"buffer":0,"byteOffset":1928,"byteLength":12},{"buffer":0,"byteOffset":1940,"byteLength":4},{"buffer":0,"byteOffset":1944,"byteLength":12},{"buffer":0,"byteOffset":1956,"byteLength":108},{"buffer":0,"byteOffset":2064,"byteLength":432},{"buffer":0,"byteOffset":2496,"byteLength":108},{"buffer":0,"byteOffset":2604,"byteLength":324},{"buffer":0,"byteOffset":2928,"byteLength":188},{"buffer":0,"byteOffset":3116,"byteLength":752},{"buffer":0,"byteOffset":3868,"byteLength":184},{"buffer":0,"byteOffset":4052,"byteLength":552},{"buffer":0,"byteOffset":4604,"byteLength":4},{"buffer":0,"byteOffset":4608,"byteLength":12}],"buffers":[{"byteLength":4620,"uri":"data:application/octet-stream;base64,"}],"accessors":[{"bufferView":0,"componentType":5126,"count":52,"max":[3.375],"min":[0],"type":"SCALAR"},{"bufferView":1,"componentType":5126,"count":52,"max":[0.1387540102005005,0.026022737845778465,0.017942795529961586,1],"min":[-0.0034890396054834127,-0.010273543186485767,-0.2596869170665741,0.9588713049888611],"type":"VEC4"},{"bufferView":2,"componentType":5126,"count":54,"max":[3.4166667461395264],"min":[0],"type":"SCALAR"},{"bufferView":3,"componentType":5126,"count":54,"max":[0.5408594012260437,0.7230932116508484,0.5703961253166199],"min":[0.43359375,0.6185682415962219,0.35705432295799255],"type":"VEC3"},{"bufferView":4,"componentType":5126,"count":1,"max":[0],"min":[0],"type":"SCALAR"},{"bufferView":5,"componentType":5126,"count":1,"max":[-0.042040321975946426,0.764404296875,-0.6414113640785217,-0.05010170489549637],"min":[-0.042040321975946426,0.764404296875,-0.6414113640785217,-0.05010170489549637],"type":"VEC4"},{"bufferView":6,"componentType":5126,"count":1,"max":[0],"min":[0],"type":"SCALAR"},{"bufferView":7,"componentType":5126,"count":1,"max":[0.53125,0.4375,0.953125],"min":[0.53125,0.4375,0.953125],"type":"VEC3"},{"bufferView":8,"componentType":5126,"count":1,"max":[0],"min":[0],"type":"SCALAR"},{"bufferView":9,"componentType":5126,"count":1,"max":[1,1.399999976158142,1],"min":[1,1.399999976158142,1],"type":"VEC3"},{"bufferView":10,"componentType":5126,"count":27,"max":[2.125],"min":[0],"type":"SCALAR"},{"bufferView":11,"componentType":5126,"count":27,"max":[0.8528685569763184,0.12875790894031525,0,1],"min":[0,-0.002519061556085944,-0.17348290979862213,0.49240386486053467],"type":"VEC4"},{"bufferView":12,"componentType":5126,"count":27,"max":[2.125],"min":[0],"type":"SCALAR"},{"bufferView":13,"componentType":5126,"count":27,"max":[0.64453125,0.5,1.6021875143051147],"min":[0.12301205098628998,-0.5329656004905701,0.28968751430511475],"type":"VEC3"},{"bufferView":14,"componentType":5126,"count":47,"max":[2.875],"min":[0],"type":"SCALAR"},{"bufferView":15,"componentType":5126,"count":47,"max":[0.20669904351234436,0.975665271282196,-0.19413842260837555,0.5854021310806274],"min":[-0.2879894971847534,0.5594919323921204,-0.7656844854354858,-0.040995024144649506],"type":"VEC4"},{"bufferView":16,"componentType":5126,"count":46,"max":[2.875],"min":[0],"type":"SCALAR"},{"bufferView":17,"componentType":5126,"count":46,"max":[0.06355904787778854,-0.125,0.6598437428474426],"min":[-0.46859851479530334,-0.774218738079071,-0.375],"type":"VEC3"},{"bufferView":18,"componentType":5126,"count":1,"max":[0],"min":[0],"type":"SCALAR"},{"bufferView":19,"componentType":5126,"count":1,"max":[1,1.399999976158142,1],"min":[1,1.399999976158142,1],"type":"VEC3"}]}