{"asset":{"version":"2.0","generator":"Blockbench 4.8.3 glTF exporter"},"scenes":[{"nodes":[12],"name":"blockbench_export"}],"scene":0,"nodes":[{"translation":[0.375,-0.6875,0],"name":"RightHand"},{"translation":[-0.375,0.6000000000000003,-0.625],"name":"R","children":[0]},{"translation":[0.501953125,0.677734375,0.46875],"name":"bolt"},{"translation":[0.43359375,0.0078125,-0.04296875],"name":"charger"},{"translation":[0.5,0.5526864541037695,0.4094612088061629],"name":"magazine"},{"translation":[0.5,0.5526864541037695,0.4094612088061629],"name":"magazine2"},{"translation":[0.5288087561102379,0.6704232392415123,0.41845709730118674],"name":"bullet"},{"translation":[-0.5,-0.5874999999999997,-1.125],"name":"hk433","children":[2,3,4,5,6]},{"translation":[0,0.02499999999999969,0.63125],"name":"bone","children":[1,7]},{"translation":[-0.375,-0.6875,0],"name":"LeftHand"},{"translation":[0.375,0.625,0.006249999999999978],"name":"l","children":[9]},{"translation":[0.5,0.5625,0.49375],"name":"bone2","children":[8,10]},{"children":[11]}],"animations":[{"name":"reload_dry","samplers":[{"input":0,"output":1,"interpolation":"LINEAR"},{"input":2,"output":3,"interpolation":"LINEAR"},{"input":4,"output":5,"interpolation":"LINEAR"},{"input":6,"output":7,"interpolation":"LINEAR"},{"input":8,"output":9,"interpolation":"LINEAR"},{"input":10,"output":11,"interpolation":"LINEAR"},{"input":12,"output":13,"interpolation":"LINEAR"},{"input":14,"output":15,"interpolation":"LINEAR"},{"input":16,"output":17,"interpolation":"LINEAR"},{"input":18,"output":19,"interpolation":"LINEAR"},{"input":20,"output":21,"interpolation":"LINEAR"},{"input":22,"output":23,"interpolation":"LINEAR"},{"input":24,"output":25,"interpolation":"LINEAR"}],"channels":[{"sampler":0,"target":{"node":11,"path":"rotation"}},{"sampler":1,"target":{"node":11,"path":"translation"}},{"sampler":2,"target":{"node":1,"path":"rotation"}},{"sampler":3,"target":{"node":1,"path":"translation"}},{"sampler":4,"target":{"node":1,"path":"scale"}},{"sampler":5,"target":{"node":10,"path":"rotation"}},{"sampler":6,"target":{"node":10,"path":"translation"}},{"sampler":7,"target":{"node":10,"path":"scale"}},{"sampler":8,"target":{"node":5,"path":"scale"}},{"sampler":9,"target":{"node":2,"path":"translation"}},{"sampler":10,"target":{"node":3,"path":"translation"}},{"sampler":11,"target":{"node":4,"path":"rotation"}},{"sampler":12,"target":{"node":4,"path":"translation"}}]}],"bufferViews":[{"buffer":0,"byteOffset":0,"byteLength":268},{"buffer":0,"byteOffset":268,"byteLength":1072},{"buffer":0,"byteOffset":1340,"byteLength":260},{"buffer":0,"byteOffset":1600,"byteLength":780},{"buffer":0,"byteOffset":2380,"byteLength":4},{"buffer":0,"byteOffset":2384,"byteLength":16},{"buffer":0,"byteOffset":2400,"byteLength":4},{"buffer":0,"byteOffset":2404,"byteLength":12},{"buffer":0,"byteOffset":2416,"byteLength":4},{"buffer":0,"byteOffset":2420,"byteLength":12},{"buffer":0,"byteOffset":2432,"byteLength":260},{"buffer":0,"byteOffset":2692,"byteLength":1040},{"buffer":0,"byteOffset":3732,"byteLength":244},{"buffer":0,"byteOffset":3976,"byteLength":732},{"buffer":0,"byteOffset":4708,"byteLength":4},{"buffer":0,"byteOffset":4712,"byteLength":12},{"buffer":0,"byteOffset":4724,"byteLength":4},{"buffer":0,"byteOffset":4728,"byteLength":12},{"buffer":0,"byteOffset":4740,"byteLength":12},{"buffer":0,"byteOffset":4752,"byteLength":36},{"buffer":0,"byteOffset":4788,"byteLength":12},{"buffer":0,"byteOffset":4800,"byteLength":36},{"buffer":0,"byteOffset":4836,"byteLength":32},{"buffer":0,"byteOffset":4868,"byteLength":128},{"buffer":0,"byteOffset":4996,"byteLength":32},{"buffer":0,"byteOffset":5028,"byteLength":96}],"buffers":[{"byteLength":5124,"uri":"data:application/octet-stream;base64,"}],"accessors":[{"bufferView":0,"componentType":5126,"count":67,"max":[4.541666507720947],"min":[0],"type":"SCALAR"},{"bufferView":1,"componentType":5126,"count":67,"max":[0.3521243929862976,0.24477796256542206,0.24759455025196075,1],"min":[-0.0006639790954068303,-0.04897749796509743,-0.42132532596588135,0.8614369034767151],"type":"VEC4"},{"bufferView":2,"componentType":5126,"count":65,"max":[4.541666507720947],"min":[0],"type":"SCALAR"},{"bufferView":3,"componentType":5126,"count":65,"max":[0.5899999737739563,0.6875,0.5212500095367432],"min":[0.48140624165534973,0.5018749833106995,0.3499999940395355],"type":"VEC3"},{"bufferView":4,"componentType":5126,"count":1,"max":[0.0416666679084301],"min":[0.0416666679084301],"type":"SCALAR"},{"bufferView":5,"componentType":5126,"count":1,"max":[0.07427829504013062,-0.7647709846496582,0.6344729661941528,0.08397670090198517],"min":[0.07427829504013062,-0.7647709846496582,0.6344729661941528,0.08397670090198517],"type":"VEC4"},{"bufferView":6,"componentType":5126,"count":1,"max":[0.0416666679084301],"min":[0.0416666679084301],"type":"SCALAR"},{"bufferView":7,"componentType":5126,"count":1,"max":[0.029999999329447746,-0.1837500035762787,-0.4025000035762787],"min":[0.029999999329447746,-0.1837500035762787,-0.4025000035762787],"type":"VEC3"},{"bufferView":8,"componentType":5126,"count":1,"max":[0.0416666679084301],"min":[0.0416666679084301],"type":"SCALAR"},{"bufferView":9,"componentType":5126,"count":1,"max":[1,1.5,1],"min":[1,1.5,1],"type":"VEC3"},{"bufferView":10,"componentType":5126,"count":65,"max":[4.166666507720947],"min":[0],"type":"SCALAR"},{"bufferView":11,"componentType":5126,"count":65,"max":[0.2170637845993042,-0.6461759209632874,0.6279139518737793,0.2775788903236389],"min":[-0.24733546376228333,-0.8664787411689758,0.26109778881073,-0.5611910820007324],"type":"VEC4"},{"bufferView":12,"componentType":5126,"count":61,"max":[4.166666507720947],"min":[0],"type":"SCALAR"},{"bufferView":13,"componentType":5126,"count":61,"max":[0.8575000166893005,0.19686999917030334,0.04898437485098839],"min":[-0.6887500286102295,-3.536250114440918,-0.7097399830818176],"type":"VEC3"},{"bufferView":14,"componentType":5126,"count":1,"max":[0.0416666679084301],"min":[0.0416666679084301],"type":"SCALAR"},{"bufferView":15,"componentType":5126,"count":1,"max":[1,1.5,1],"min":[1,1.5,1],"type":"VEC3"},{"bufferView":16,"componentType":5126,"count":1,"max":[0.0416666679084301],"min":[0.0416666679084301],"type":"SCALAR"},{"bufferView":17,"componentType":5126,"count":1,"max":[0,0,0],"min":[0,0,0],"type":"VEC3"},{"bufferView":18,"componentType":5126,"count":3,"max":[3.5833332538604736],"min":[3.3333332538604736],"type":"SCALAR"},{"bufferView":19,"componentType":5126,"count":3,"max":[0.501953125,0.677734375,0.78125],"min":[0.501953125,0.677734375,0.46875],"type":"VEC3"},{"bufferView":20,"componentType":5126,"count":3,"max":[3.5833332538604736],"min":[3.3333332538604736],"type":"SCALAR"},{"bufferView":21,"componentType":5126,"count":3,"max":[0.43359375,0.0078125,0.26953125],"min":[0.43359375,0.0078125,-0.04296875],"type":"VEC3"},{"bufferView":22,"componentType":5126,"count":8,"max":[1.7083333730697632],"min":[0.4166666567325592],"type":"SCALAR"},{"bufferView":23,"componentType":5126,"count":8,"max":[0.8178987503051758,0,0,1],"min":[-0.19722959399223328,0,0,0.5753622055053711],"type":"VEC4"},{"bufferView":24,"componentType":5126,"count":8,"max":[1.7083333730697632],"min":[0.4166666567325592],"type":"SCALAR"},{"bufferView":25,"componentType":5126,"count":8,"max":[0.5,0.5526864528656006,0.5257112383842468],"min":[0.5,-2.7210636138916016,-0.10428879410028458],"type":"VEC3"}]}