{"asset":{"version":"2.0","generator":"Blockbench 4.8.3 glTF exporter"},"scenes":[{"nodes":[12],"name":"blockbench_export"}],"scene":0,"nodes":[{"translation":[0.375,-0.6875,0],"name":"RightHand"},{"translation":[-0.375,0.6000000000000003,-0.625],"name":"R","children":[0]},{"translation":[0.501953125,0.677734375,0.46875],"name":"bolt"},{"translation":[0.43359375,0.0078125,-0.04296875],"name":"charger"},{"translation":[0.5,0.5526864541037695,0.4094612088061629],"name":"magazine"},{"translation":[0.5,0.5526864541037695,0.4094612088061629],"name":"magazine2"},{"translation":[0.5288087561102379,0.6704232392415123,0.41845709730118674],"name":"bullet"},{"translation":[-0.5,-0.5874999999999997,-1.125],"name":"hk433","children":[2,3,4,5,6]},{"translation":[0,0.02499999999999969,0.63125],"name":"bone","children":[1,7]},{"translation":[-0.375,-0.6875,0],"name":"LeftHand"},{"translation":[0.375,0.625,0.006249999999999978],"name":"l","children":[9]},{"translation":[0.5,0.5625,0.49375],"name":"bone2","children":[8,10]},{"children":[11]}],"animations":[{"name":"inspect","samplers":[{"input":0,"output":1,"interpolation":"LINEAR"},{"input":2,"output":3,"interpolation":"LINEAR"},{"input":4,"output":5,"interpolation":"LINEAR"},{"input":6,"output":7,"interpolation":"LINEAR"},{"input":8,"output":9,"interpolation":"LINEAR"},{"input":10,"output":11,"interpolation":"LINEAR"},{"input":12,"output":13,"interpolation":"LINEAR"},{"input":14,"output":15,"interpolation":"LINEAR"},{"input":16,"output":17,"interpolation":"LINEAR"},{"input":18,"output":19,"interpolation":"LINEAR"},{"input":20,"output":21,"interpolation":"LINEAR"},{"input":22,"output":23,"interpolation":"LINEAR"},{"input":24,"output":25,"interpolation":"LINEAR"},{"input":26,"output":27,"interpolation":"LINEAR"}],"channels":[{"sampler":0,"target":{"node":11,"path":"rotation"}},{"sampler":1,"target":{"node":11,"path":"translation"}},{"sampler":2,"target":{"node":11,"path":"scale"}},{"sampler":3,"target":{"node":1,"path":"rotation"}},{"sampler":4,"target":{"node":1,"path":"translation"}},{"sampler":5,"target":{"node":1,"path":"scale"}},{"sampler":6,"target":{"node":10,"path":"rotation"}},{"sampler":7,"target":{"node":10,"path":"translation"}},{"sampler":8,"target":{"node":10,"path":"scale"}},{"sampler":9,"target":{"node":5,"path":"scale"}},{"sampler":10,"target":{"node":4,"path":"rotation"}},{"sampler":11,"target":{"node":4,"path":"translation"}},{"sampler":12,"target":{"node":2,"path":"translation"}},{"sampler":13,"target":{"node":3,"path":"translation"}}]}],"bufferViews":[{"buffer":0,"byteOffset":0,"byteLength":444},{"buffer":0,"byteOffset":444,"byteLength":1776},{"buffer":0,"byteOffset":2220,"byteLength":452},{"buffer":0,"byteOffset":2672,"byteLength":1356},{"buffer":0,"byteOffset":4028,"byteLength":4},{"buffer":0,"byteOffset":4032,"byteLength":12},{"buffer":0,"byteOffset":4044,"byteLength":4},{"buffer":0,"byteOffset":4048,"byteLength":16},{"buffer":0,"byteOffset":4064,"byteLength":4},{"buffer":0,"byteOffset":4068,"byteLength":12},{"buffer":0,"byteOffset":4080,"byteLength":4},{"buffer":0,"byteOffset":4084,"byteLength":12},{"buffer":0,"byteOffset":4096,"byteLength":380},{"buffer":0,"byteOffset":4476,"byteLength":1520},{"buffer":0,"byteOffset":5996,"byteLength":256},{"buffer":0,"byteOffset":6252,"byteLength":768},{"buffer":0,"byteOffset":7020,"byteLength":4},{"buffer":0,"byteOffset":7024,"byteLength":12},{"buffer":0,"byteOffset":7036,"byteLength":4},{"buffer":0,"byteOffset":7040,"byteLength":12},{"buffer":0,"byteOffset":7052,"byteLength":72},{"buffer":0,"byteOffset":7124,"byteLength":288},{"buffer":0,"byteOffset":7412,"byteLength":80},{"buffer":0,"byteOffset":7492,"byteLength":240},{"buffer":0,"byteOffset":7732,"byteLength":16},{"buffer":0,"byteOffset":7748,"byteLength":48},{"buffer":0,"byteOffset":7796,"byteLength":16},{"buffer":0,"byteOffset":7812,"byteLength":48}],"buffers":[{"byteLength":7860,"uri":"data:application/octet-stream;base64,"}],"accessors":[{"bufferView":0,"componentType":5126,"count":111,"max":[7.166666507720947],"min":[0],"type":"SCALAR"},{"bufferView":1,"componentType":5126,"count":111,"max":[0.2950870990753174,0.25451865792274475,0.4975649118423462,1],"min":[-0.0007444951334036887,-0.15572501718997955,-0.40437155961990356,0.8075512051582336],"type":"VEC4"},{"bufferView":2,"componentType":5126,"count":113,"max":[7.166666507720947],"min":[0],"type":"SCALAR"},{"bufferView":3,"componentType":5126,"count":113,"max":[0.543749988079071,0.7291015386581421,0.5325000286102295],"min":[0.47382813692092896,0.553726851940155,0.42145833373069763],"type":"VEC3"},{"bufferView":4,"componentType":5126,"count":1,"max":[0.0416666679084301],"min":[0.0416666679084301],"type":"SCALAR"},{"bufferView":5,"componentType":5126,"count":1,"max":[1,1,1],"min":[1,1,1],"type":"VEC3"},{"bufferView":6,"componentType":5126,"count":1,"max":[0.0416666679084301],"min":[0.0416666679084301],"type":"SCALAR"},{"bufferView":7,"componentType":5126,"count":1,"max":[0.07427829504013062,-0.7647709846496582,0.6344729661941528,0.08397670090198517],"min":[0.07427829504013062,-0.7647709846496582,0.6344729661941528,0.08397670090198517],"type":"VEC4"},{"bufferView":8,"componentType":5126,"count":1,"max":[0.0416666679084301],"min":[0.0416666679084301],"type":"SCALAR"},{"bufferView":9,"componentType":5126,"count":1,"max":[0.029999999329447746,-0.1837500035762787,-0.4025000035762787],"min":[0.029999999329447746,-0.1837500035762787,-0.4025000035762787],"type":"VEC3"},{"bufferView":10,"componentType":5126,"count":1,"max":[0.0416666679084301],"min":[0.0416666679084301],"type":"SCALAR"},{"bufferView":11,"componentType":5126,"count":1,"max":[1,1.5,1],"min":[1,1.5,1],"type":"VEC3"},{"bufferView":12,"componentType":5126,"count":95,"max":[6.5],"min":[0],"type":"SCALAR"},{"bufferView":13,"componentType":5126,"count":95,"max":[0.3796390891075134,-0.49981722235679626,0.7919450402259827,-0.009097972884774208],"min":[-0.21236497163772583,-0.841248631477356,0.3544214367866516,-0.5674837827682495],"type":"VEC4"},{"bufferView":14,"componentType":5126,"count":64,"max":[6.5],"min":[0],"type":"SCALAR"},{"bufferView":15,"componentType":5126,"count":64,"max":[0.08105652779340744,0.05874999985098839,0.23624999821186066],"min":[-0.15625,-1.2262500524520874,-0.6637499928474426],"type":"VEC3"},{"bufferView":16,"componentType":5126,"count":1,"max":[0.0416666679084301],"min":[0.0416666679084301],"type":"SCALAR"},{"bufferView":17,"componentType":5126,"count":1,"max":[1,1.5,1],"min":[1,1.5,1],"type":"VEC3"},{"bufferView":18,"componentType":5126,"count":1,"max":[0.0416666679084301],"min":[0.0416666679084301],"type":"SCALAR"},{"bufferView":19,"componentType":5126,"count":1,"max":[0,0,0],"min":[0,0,0],"type":"VEC3"},{"bufferView":20,"componentType":5126,"count":18,"max":[4.5],"min":[0],"type":"SCALAR"},{"bufferView":21,"componentType":5126,"count":18,"max":[0,0,0.6771970987319946,1],"min":[0,0,0,0.7358016967773438],"type":"VEC4"},{"bufferView":22,"componentType":5126,"count":20,"max":[4.5],"min":[0],"type":"SCALAR"},{"bufferView":23,"componentType":5126,"count":20,"max":[0.5,0.5526864528656006,0.5428602695465088],"min":[0.13355082273483276,0.15264472365379333,0.40946120023727417],"type":"VEC3"},{"bufferView":24,"componentType":5126,"count":4,"max":[6],"min":[5.25],"type":"SCALAR"},{"bufferView":25,"componentType":5126,"count":4,"max":[0.501953125,0.677734375,0.59375],"min":[0.501953125,0.677734375,0.46875],"type":"VEC3"},{"bufferView":26,"componentType":5126,"count":4,"max":[6],"min":[5.25],"type":"SCALAR"},{"bufferView":27,"componentType":5126,"count":4,"max":[0.43359375,0.0078125,0.14453125],"min":[0.43359375,0.0078125,-0.04296875],"type":"VEC3"}]}