{"asset":{"version":"2.0","generator":"Blockbench 4.9.3 glTF exporter"},"scenes":[{"nodes":[12],"name":"blockbench_export"}],"scene":0,"nodes":[{"translation":[0.375,-0.6875,0],"name":"RightHand"},{"translation":[-0.375,0.6000000000000003,-0.625],"name":"R","children":[0]},{"translation":[0.501953125,0.677734375,0.46875],"name":"bolt"},{"translation":[0.43359375,0.0078125,-0.04296875],"name":"charger"},{"translation":[0.5,0.5526864541037695,0.4094612088061629],"name":"magazine"},{"translation":[0.5,0.5526864541037695,0.4094612088061629],"name":"magazine2"},{"translation":[0.5288087561102379,0.6704232392415123,0.41845709730118674],"name":"bullet"},{"translation":[-0.5,-0.5874999999999997,-1.125],"name":"hk433","children":[2,3,4,5,6]},{"translation":[0,0.02499999999999969,0.63125],"name":"bone","children":[1,7]},{"translation":[-0.375,-0.6875,0],"name":"LeftHand"},{"translation":[0.375,0.625,0.006249999999999978],"name":"l","children":[9]},{"translation":[0.5,0.5625,0.49375],"name":"bone2","children":[8,10]},{"children":[11]}],"animations":[{"name":"reload_norm","samplers":[{"input":0,"output":1,"interpolation":"LINEAR"},{"input":2,"output":3,"interpolation":"LINEAR"},{"input":4,"output":5,"interpolation":"LINEAR"},{"input":6,"output":7,"interpolation":"LINEAR"},{"input":8,"output":9,"interpolation":"LINEAR"},{"input":10,"output":11,"interpolation":"LINEAR"},{"input":12,"output":13,"interpolation":"LINEAR"},{"input":14,"output":15,"interpolation":"LINEAR"},{"input":16,"output":17,"interpolation":"LINEAR"},{"input":18,"output":19,"interpolation":"LINEAR"},{"input":20,"output":21,"interpolation":"LINEAR"},{"input":22,"output":23,"interpolation":"LINEAR"},{"input":24,"output":25,"interpolation":"LINEAR"}],"channels":[{"sampler":0,"target":{"node":11,"path":"rotation"}},{"sampler":1,"target":{"node":11,"path":"translation"}},{"sampler":2,"target":{"node":1,"path":"rotation"}},{"sampler":3,"target":{"node":1,"path":"translation"}},{"sampler":4,"target":{"node":1,"path":"scale"}},{"sampler":5,"target":{"node":10,"path":"rotation"}},{"sampler":6,"target":{"node":10,"path":"translation"}},{"sampler":7,"target":{"node":10,"path":"scale"}},{"sampler":8,"target":{"node":5,"path":"rotation"}},{"sampler":9,"target":{"node":5,"path":"translation"}},{"sampler":10,"target":{"node":4,"path":"rotation"}},{"sampler":11,"target":{"node":4,"path":"translation"}},{"sampler":12,"target":{"node":4,"path":"scale"}}]}],"bufferViews":[{"buffer":0,"byteOffset":0,"byteLength":304},{"buffer":0,"byteOffset":304,"byteLength":1216},{"buffer":0,"byteOffset":1520,"byteLength":304},{"buffer":0,"byteOffset":1824,"byteLength":912},{"buffer":0,"byteOffset":2736,"byteLength":4},{"buffer":0,"byteOffset":2740,"byteLength":16},{"buffer":0,"byteOffset":2756,"byteLength":4},{"buffer":0,"byteOffset":2760,"byteLength":12},{"buffer":0,"byteOffset":2772,"byteLength":4},{"buffer":0,"byteOffset":2776,"byteLength":12},{"buffer":0,"byteOffset":2788,"byteLength":284},{"buffer":0,"byteOffset":3072,"byteLength":1136},{"buffer":0,"byteOffset":4208,"byteLength":284},{"buffer":0,"byteOffset":4492,"byteLength":852},{"buffer":0,"byteOffset":5344,"byteLength":4},{"buffer":0,"byteOffset":5348,"byteLength":12},{"buffer":0,"byteOffset":5360,"byteLength":184},{"buffer":0,"byteOffset":5544,"byteLength":736},{"buffer":0,"byteOffset":6280,"byteLength":184},{"buffer":0,"byteOffset":6464,"byteLength":552},{"buffer":0,"byteOffset":7016,"byteLength":180},{"buffer":0,"byteOffset":7196,"byteLength":720},{"buffer":0,"byteOffset":7916,"byteLength":180},{"buffer":0,"byteOffset":8096,"byteLength":540},{"buffer":0,"byteOffset":8636,"byteLength":52},{"buffer":0,"byteOffset":8688,"byteLength":156}],"buffers":[{"byteLength":8844,"uri":"data:application/octet-stream;base64,"}],"accessors":[{"bufferView":0,"componentType":5126,"count":76,"max":[3.1666667461395264],"min":[0.0416666679084301],"type":"SCALAR"},{"bufferView":1,"componentType":5126,"count":76,"max":[0.2622242569923401,0.03741859272122383,0.017452405765652657,1],"min":[-0.0007782908505760133,-0.039839498698711395,-0.2773497700691223,0.9242613911628723],"type":"VEC4"},{"bufferView":2,"componentType":5126,"count":76,"max":[3.1666667461395264],"min":[0.0416666679084301],"type":"SCALAR"},{"bufferView":3,"componentType":5126,"count":76,"max":[0.6012499928474426,0.6949999928474426,0.5137500166893005],"min":[0.4987500011920929,0.5074999928474426,0.34312498569488525],"type":"VEC3"},{"bufferView":4,"componentType":5126,"count":1,"max":[0.0416666679084301],"min":[0.0416666679084301],"type":"SCALAR"},{"bufferView":5,"componentType":5126,"count":1,"max":[0.07425960153341293,-0.7647895812988281,0.6344473361968994,0.08401793986558914],"min":[0.07425960153341293,-0.7647895812988281,0.6344473361968994,0.08401793986558914],"type":"VEC4"},{"bufferView":6,"componentType":5126,"count":1,"max":[0.0416666679084301],"min":[0.0416666679084301],"type":"SCALAR"},{"bufferView":7,"componentType":5126,"count":1,"max":[0.029999999329447746,-0.1837500035762787,-0.4025000035762787],"min":[0.029999999329447746,-0.1837500035762787,-0.4025000035762787],"type":"VEC3"},{"bufferView":8,"componentType":5126,"count":1,"max":[0.0416666679084301],"min":[0.0416666679084301],"type":"SCALAR"},{"bufferView":9,"componentType":5126,"count":1,"max":[1,1.5,1],"min":[1,1.5,1],"type":"VEC3"},{"bufferView":10,"componentType":5126,"count":71,"max":[2.9583332538604736],"min":[0.0416666679084301],"type":"SCALAR"},{"bufferView":11,"componentType":5126,"count":71,"max":[0.5803073644638062,0.1629219651222229,0.9210754036903381,0.0763828232884407],"min":[-0.3051086366176605,-0.8655428290367126,0.44288378953933716,-0.5611993074417114],"type":"VEC4"},{"bufferView":12,"componentType":5126,"count":71,"max":[2.9583332538604736],"min":[0.0416666679084301],"type":"SCALAR"},{"bufferView":13,"componentType":5126,"count":71,"max":[0.009999999776482582,0.036249998956918716,-0.061250001192092896],"min":[-0.3087500035762787,-2.422499895095825,-0.5587499737739563],"type":"VEC3"},{"bufferView":14,"componentType":5126,"count":1,"max":[0.0416666679084301],"min":[0.0416666679084301],"type":"SCALAR"},{"bufferView":15,"componentType":5126,"count":1,"max":[1,1.5,1],"min":[1,1.5,1],"type":"VEC3"},{"bufferView":16,"componentType":5126,"count":46,"max":[1.9166666269302368],"min":[0.0416666679084301],"type":"SCALAR"},{"bufferView":17,"componentType":5126,"count":46,"max":[0.04036171734333038,0.0017623788444325328,0,1],"min":[-0.8767267465591431,0,-0.03052489273250103,0.4809887707233429],"type":"VEC4"},{"bufferView":18,"componentType":5126,"count":46,"max":[1.9166666269302368],"min":[0.0416666679084301],"type":"SCALAR"},{"bufferView":19,"componentType":5126,"count":46,"max":[0.5,0.5526864528656006,0.40946120023727417],"min":[0.35374999046325684,-1.9298135042190552,0.15321120619773865],"type":"VEC3"},{"bufferView":20,"componentType":5126,"count":45,"max":[3.125],"min":[1.2916666269302368],"type":"SCALAR"},{"bufferView":21,"componentType":5126,"count":45,"max":[0.16669298708438873,0.001576669397763908,0,1],"min":[-0.0027102860622107983,-0.047874972224235535,-0.1650409996509552,0.9739540219306946],"type":"VEC4"},{"bufferView":22,"componentType":5126,"count":45,"max":[3.125],"min":[1.2916666269302368],"type":"SCALAR"},{"bufferView":23,"componentType":5126,"count":45,"max":[0.6287500262260437,0.5526864528656006,0.40946120023727417],"min":[0.2737500071525574,-0.8998135328292847,0.37446120381355286],"type":"VEC3"},{"bufferView":24,"componentType":5126,"count":13,"max":[3.125],"min":[2.625],"type":"SCALAR"},{"bufferView":25,"componentType":5126,"count":13,"max":[1,1,1],"min":[0,0,0],"type":"VEC3"}]}