{"asset":{"version":"2.0","generator":"Blockbench 4.8.3 glTF exporter"},"scenes":[{"nodes":[152],"name":"blockbench_export"}],"scene":0,"nodes":[{"name":"camera","mesh":0},{"translation":[0.375,-0.6875,0],"name":"RightHand"},{"translation":[-0.375,0.6000000000000003,-0.625],"name":"R","children":[1]},{"translation":[0.5,0.4223032474473688,0.6611701305347183],"name":"trigger"},{"translation":[0.49609375,0.486328125,0.7223181469135335],"name":"triggerring"},{"translation":[-0.0234375,0.03704062500000005,-0.28053375],"name":"group89"},{"name":"PistolGrip2"},{"translation":[1,0.5,1],"name":"pistolgrip","children":[5,6]},{"translation":[0.01171875,-0.02734375,-0.04296875],"name":"0"},{"translation":[0.3671875,0,0],"name":"1"},{"translation":[0,-0.1796875,0],"name":"2"},{"translation":[0.3671875,0,0],"name":"3"},{"translation":[0.3671875,0,0],"name":"4"},{"translation":[0.37890625,0,0],"name":"5"},{"translation":[0.4375,0,0],"name":"lowerreceiver","children":[8,9,10,11,12,13]},{"name":"group87"},{"name":"group86"},{"name":"group85"},{"name":"group84"},{"name":"group83"},{"name":"group82"},{"name":"group81"},{"name":"group80"},{"name":"group79"},{"name":"group78"},{"name":"group77"},{"name":"group76"},{"name":"group75"},{"name":"group74"},{"name":"group73"},{"name":"group72"},{"name":"group71"},{"name":"group70"},{"name":"group69"},{"name":"group68"},{"name":"group67"},{"name":"group66"},{"name":"group65"},{"name":"group64"},{"name":"group63"},{"name":"group62"},{"name":"group61"},{"name":"group60"},{"name":"group59"},{"name":"group58"},{"name":"group57"},{"name":"group56"},{"name":"group55"},{"name":"group54"},{"name":"group53"},{"name":"group88","children":[15,16,17,18,19,20,21,22,23,24,25,26,27,28,29,30,31,32,33,34,35,36,37,38,39,40,41,42,43,44,45,46,47,48,49]},{"translation":[-0.0390625,-0.52734375,-0.54296875],"name":"rail","children":[50]},{"translation":[-0.0390625,-0.52734375,-0.54296875],"name":"13"},{"translation":[-0.056640625,-0.52734375,-0.54296875],"name":"12"},{"translation":[0.03787773101992542,0.2127924755240348,0.255859375],"name":"11"},{"translation":[0.09256523101992536,0.7389921113880448,0.9609375],"name":"group52"},{"translation":[-0.04916322827198011,-0.5328680217280198,-0.84765625],"name":"10","children":[55]},{"translation":[0.5,0.5,0.5],"name":"upperreceiver","children":[51,52,53,54,56]},{"translation":[0,0.17578125,-0.75390625],"name":"group51"},{"name":"octagon"},{"name":"octagon19"},{"name":"gassystem","children":[59,60]},{"translation":[0.5,0.5,0.5],"name":"barrel","children":[58,61]},{"name":"group49"},{"name":"group48"},{"name":"group47"},{"name":"group46"},{"name":"group45"},{"name":"group44"},{"name":"group50","children":[63,64,65,66,67,68]},{"translation":[0.00390625,0,0],"name":"0rail","children":[69]},{"translation":[-0.01171875,-0.00390625,0],"name":"9"},{"translation":[-0.01171875,-0.00390625,0],"name":"8"},{"translation":[0.08984375,0.73828125,-0.166015625],"name":"7"},{"translation":[0.08984375,0.73828125,-0.166015625],"name":"6"},{"name":"mlok8"},{"name":"mlok7"},{"name":"mlok6"},{"translation":[-0.04476095273380387,0.33322876158154835,0.599609375],"name":"mlok","children":[75,76,77]},{"translation":[0.08772970273380387,0.7214587384184517,-0.228515625],"name":"3mlok","children":[78]},{"name":"mlok4"},{"name":"mlok3"},{"name":"mlok2"},{"translation":[-0.04476095273380387,0.33322876158154835,0.599609375],"name":"mlok5","children":[80,81,82]},{"translation":[0.08772970273380387,0.7214587384184517,-0.228515625],"name":"3mlok2","children":[83]},{"name":"group42"},{"name":"group41"},{"name":"group40"},{"name":"group39"},{"name":"group38"},{"name":"group37"},{"name":"group36"},{"name":"group35"},{"name":"group34"},{"name":"group33"},{"name":"group32"},{"name":"group31"},{"name":"group30"},{"name":"group29"},{"name":"group28"},{"name":"group43","children":[85,86,87,88,89,90,91,92,93,94,95,96,97,98,99]},{"translation":[0.00390625,0,0],"name":"0rail2","children":[100]},{"translation":[0.45703125,-0.02734375,-0.04296875],"name":"handguard","children":[70,71,72,73,74,79,84,101]},{"translation":[0.0546875,0.697265625,0.998046875],"name":"group27"},{"translation":[0,0,0.0234375],"name":"group26"},{"translation":[0,0,0.0234375],"name":"group25"},{"translation":[0,0,0.0234375],"name":"group24"},{"translation":[-0.015625,-0.21032478808792043,0.08984375],"name":"group23"},{"translation":[-0.015625,-0.21032478808792043,0.08984375],"name":"group22"},{"translation":[0.0703125,0.7435279130879204,1.412109375],"name":"stock","children":[107,108]},{"name":"base"},{"translation":[0.4453125,-0.02734375,-0.04296875],"name":"defaultstock","children":[103,104,105,106,109,110]},{"translation":[-0.0078125,0.08635879715762174,-0.09074175266768514],"name":"octagon18"},{"translation":[0.0078125,-0.08635879715762174,0.09074175266768514],"name":"pins","children":[112]},{"translation":[0.4140625,0.600221875,0.532590625],"name":"group20"},{"translation":[-0.015625,0.14453125,0.078125],"name":"group19"},{"translation":[-0.5,-0.5,-0.4609375],"name":"group21","children":[114,115]},{"translation":[-0.5,-0.5,-0.4609375],"name":"group18"},{"name":"1magazinecatch","children":[116,117]},{"translation":[0,-0.057434443653020306,0.13199742936651782],"name":"2magazinecatch"},{"name":"group17"},{"translation":[-0.4765625,-0.1171875,-0.58984375],"name":"octagon17"},{"translation":[0.4765625,0.1171875,0.58984375],"name":"safety","children":[120,121]},{"translation":[-0.515625,-0.41796875,-0.390625],"name":"boltrelease"},{"translation":[0.5,0.5,0.5],"name":"deco","children":[113,118,119,122,123]},{"translation":[0,0,-0.015625],"name":"group16"},{"translation":[0.03125,0.5,0.5],"name":"rearsight2"},{"translation":[0.03125,0.5,0.5],"name":"octagon16"},{"translation":[0.03125,0.5,0.5],"name":"octagon15"},{"translation":[0.46875,0,0],"name":"rearsight","children":[125,126,127,128]},{"translation":[0,0,-0.015625],"name":"group15"},{"translation":[0.03125,0.5,0.5],"name":"sight"},{"translation":[0.03125,0.5,0.5],"name":"octagon14"},{"translation":[0.46875,0,0],"name":"frontsight","children":[130,131,132]},{"name":"octagon13"},{"translation":[-0.4375,0.17578125,-1.14453125],"name":"group14"},{"translation":[-0.4375,0.17578125,-1.14453125],"name":"group13"},{"translation":[-0.4375,0.17578125,-1.14453125],"name":"group12"},{"translation":[0.5,0.5,0.5],"name":"defaultmuzzle","children":[134,135,136,137]},{"name":"main","children":[3,4,7,14,57,62,102,111,124,129,133,138]},{"translation":[0.501953125,0.677734375,0.46875],"name":"bolt"},{"translation":[0.005078125017701662,0.73984375,-0.09371868648964013],"name":"group"},{"translation":[0.044921875,0,0],"name":"group90"},{"translation":[0.43359375,0.0078125,-0.04296875],"name":"charger","children":[141,142]},{"translation":[0.5,0.5526864541037695,0.4094612088061629],"name":"magazine"},{"translation":[0.5,0.5526864541037695,0.4094612088061629],"name":"magazine2"},{"translation":[0.5288087561102379,0.6704232392415123,0.41845709730118674],"name":"bullet"},{"translation":[-0.5,-0.5874999999999997,-1.125],"name":"hk433","children":[139,140,143,144,145,146]},{"translation":[0,0.02499999999999969,0.63125],"name":"bone","children":[2,147]},{"translation":[-0.375,-0.6875,0],"name":"LeftHand"},{"translation":[0.375,0.625,0.006249999999999978],"name":"l","children":[149]},{"translation":[0.5,0.5625,0.49375],"name":"bone2","children":[148,150]},{"children":[0,151]}],"bufferViews":[{"buffer":0,"byteOffset":0,"byteLength":288,"target":34962,"byteStride":12},{"buffer":0,"byteOffset":288,"byteLength":288,"target":34962,"byteStride":12},{"buffer":0,"byteOffset":576,"byteLength":192,"target":34962,"byteStride":8},{"buffer":0,"byteOffset":768,"byteLength":72,"target":34963},{"buffer":0,"byteOffset":840,"byteLength":4},{"buffer":0,"byteOffset":844,"byteLength":16},{"buffer":0,"byteOffset":860,"byteLength":4},{"buffer":0,"byteOffset":864,"byteLength":12},{"buffer":0,"byteOffset":876,"byteLength":4},{"buffer":0,"byteOffset":880,"byteLength":16},{"buffer":0,"byteOffset":896,"byteLength":4},{"buffer":0,"byteOffset":900,"byteLength":12},{"buffer":0,"byteOffset":912,"byteLength":4},{"buffer":0,"byteOffset":916,"byteLength":12},{"buffer":0,"byteOffset":928,"byteLength":4},{"buffer":0,"byteOffset":932,"byteLength":16},{"buffer":0,"byteOffset":948,"byteLength":4},{"buffer":0,"byteOffset":952,"byteLength":12},{"buffer":0,"byteOffset":964,"byteLength":4},{"buffer":0,"byteOffset":968,"byteLength":12},{"buffer":0,"byteOffset":980,"byteLength":4},{"buffer":0,"byteOffset":984,"byteLength":12}],"buffers":[{"byteLength":996,"uri":"data:application/octet-stream;base64,"}],"accessors":[{"bufferView":0,"componentType":5126,"count":24,"max":[0.125,0.125,0.125],"min":[0,0,0],"type":"VEC3"},{"bufferView":1,"componentType":5126,"count":24,"max":[1,1,1],"min":[-1,-1,-1],"type":"VEC3"},{"bufferView":2,"componentType":5126,"count":24,"max":[0.0625,0.0625],"min":[0,0],"type":"VEC2"},{"bufferView":3,"componentType":5123,"count":36,"max":[23],"min":[0],"type":"SCALAR"},{"bufferView":4,"componentType":5126,"count":1,"max":[0],"min":[0],"type":"SCALAR"},{"bufferView":5,"componentType":5126,"count":1,"max":[0,0,0,1],"min":[0,0,0,1],"type":"VEC4"},{"bufferView":6,"componentType":5126,"count":1,"max":[0],"min":[0],"type":"SCALAR"},{"bufferView":7,"componentType":5126,"count":1,"max":[0.5,0.5625,0.4937500059604645],"min":[0.5,0.5625,0.4937500059604645],"type":"VEC3"},{"bufferView":8,"componentType":5126,"count":1,"max":[0],"min":[0],"type":"SCALAR"},{"bufferView":9,"componentType":5126,"count":1,"max":[0.07427829504013062,-0.7647709846496582,0.6344729661941528,0.08397670090198517],"min":[0.07427829504013062,-0.7647709846496582,0.6344729661941528,0.08397670090198517],"type":"VEC4"},{"bufferView":10,"componentType":5126,"count":1,"max":[0],"min":[0],"type":"SCALAR"},{"bufferView":11,"componentType":5126,"count":1,"max":[0.029999999329447746,-0.1837500035762787,-0.4025000035762787],"min":[0.029999999329447746,-0.1837500035762787,-0.4025000035762787],"type":"VEC3"},{"bufferView":12,"componentType":5126,"count":1,"max":[0],"min":[0],"type":"SCALAR"},{"bufferView":13,"componentType":5126,"count":1,"max":[1,1.5,1],"min":[1,1.5,1],"type":"VEC3"},{"bufferView":14,"componentType":5126,"count":1,"max":[0],"min":[0],"type":"SCALAR"},{"bufferView":15,"componentType":5126,"count":1,"max":[0.13440783321857452,-0.6461759209632874,0.49945545196533203,-0.5611910820007324],"min":[0.13440783321857452,-0.6461759209632874,0.49945545196533203,-0.5611910820007324],"type":"VEC4"},{"bufferView":16,"componentType":5126,"count":1,"max":[0],"min":[0],"type":"SCALAR"},{"bufferView":17,"componentType":5126,"count":1,"max":[-0.05375000089406967,0.036249998956918716,-0.5587499737739563],"min":[-0.05375000089406967,0.036249998956918716,-0.5587499737739563],"type":"VEC3"},{"bufferView":18,"componentType":5126,"count":1,"max":[0],"min":[0],"type":"SCALAR"},{"bufferView":19,"componentType":5126,"count":1,"max":[1,1.5,1],"min":[1,1.5,1],"type":"VEC3"},{"bufferView":20,"componentType":5126,"count":1,"max":[0],"min":[0],"type":"SCALAR"},{"bufferView":21,"componentType":5126,"count":1,"max":[0,0,0],"min":[0,0,0],"type":"VEC3"}],"materials":[{"pbrMetallicRoughness":{"metallicFactor":0,"roughnessFactor":1,"baseColorTexture":{"index":0}},"alphaMode":"MASK","alphaCutoff":0.05,"doubleSided":true}],"textures":[{"sampler":0,"source":0,"name":"black2.png"}],"samplers":[{"magFilter":9728,"minFilter":9728,"wrapS":33071,"wrapT":33071}],"images":[{"mimeType":"image/png","uri":"data:image/png;base64,"}],"meshes":[{"primitives":[{"mode":4,"attributes":{"POSITION":0,"NORMAL":1,"TEXCOORD_0":2},"indices":3,"material":0}]}],"animations":[{"name":"static_state","samplers":[{"input":4,"output":5,"interpolation":"LINEAR"},{"input":6,"output":7,"interpolation":"LINEAR"},{"input":8,"output":9,"interpolation":"LINEAR"},{"input":10,"output":11,"interpolation":"LINEAR"},{"input":12,"output":13,"interpolation":"LINEAR"},{"input":14,"output":15,"interpolation":"LINEAR"},{"input":16,"output":17,"interpolation":"LINEAR"},{"input":18,"output":19,"interpolation":"LINEAR"},{"input":20,"output":21,"interpolation":"LINEAR"}],"channels":[{"sampler":0,"target":{"node":151,"path":"rotation"}},{"sampler":1,"target":{"node":151,"path":"translation"}},{"sampler":2,"target":{"node":2,"path":"rotation"}},{"sampler":3,"target":{"node":2,"path":"translation"}},{"sampler":4,"target":{"node":2,"path":"scale"}},{"sampler":5,"target":{"node":150,"path":"rotation"}},{"sampler":6,"target":{"node":150,"path":"translation"}},{"sampler":7,"target":{"node":150,"path":"scale"}},{"sampler":8,"target":{"node":145,"path":"scale"}}]}]}