{"asset":{"version":"2.0","generator":"Blockbench 4.8.3 glTF exporter"},"scenes":[{"nodes":[12],"name":"blockbench_export"}],"scene":0,"nodes":[{"translation":[0.375,-0.6875,0],"name":"RightHand"},{"translation":[-0.375,0.6000000000000003,-0.625],"name":"R","children":[0]},{"translation":[0.501953125,0.677734375,0.46875],"name":"bolt"},{"translation":[0.43359375,0.0078125,-0.04296875],"name":"charger"},{"translation":[0.5,0.5526864541037695,0.4094612088061629],"name":"magazine"},{"translation":[0.5,0.5526864541037695,0.4094612088061629],"name":"magazine2"},{"translation":[0.5288087561102379,0.6704232392415123,0.41845709730118674],"name":"bullet"},{"translation":[-0.5,-0.5874999999999997,-1.125],"name":"hk433","children":[2,3,4,5,6]},{"translation":[0,0.02499999999999969,0.63125],"name":"bone","children":[1,7]},{"translation":[-0.375,-0.6875,0],"name":"LeftHand"},{"translation":[0.375,0.625,0.006249999999999978],"name":"l","children":[9]},{"translation":[0.5,0.5625,0.49375],"name":"bone2","children":[8,10]},{"children":[11]}],"animations":[{"name":"draw","samplers":[{"input":0,"output":1,"interpolation":"LINEAR"},{"input":2,"output":3,"interpolation":"LINEAR"},{"input":4,"output":5,"interpolation":"LINEAR"},{"input":6,"output":7,"interpolation":"LINEAR"},{"input":8,"output":9,"interpolation":"LINEAR"},{"input":10,"output":11,"interpolation":"LINEAR"},{"input":12,"output":13,"interpolation":"LINEAR"},{"input":14,"output":15,"interpolation":"LINEAR"},{"input":16,"output":17,"interpolation":"LINEAR"}],"channels":[{"sampler":0,"target":{"node":11,"path":"rotation"}},{"sampler":1,"target":{"node":11,"path":"translation"}},{"sampler":2,"target":{"node":1,"path":"rotation"}},{"sampler":3,"target":{"node":1,"path":"translation"}},{"sampler":4,"target":{"node":1,"path":"scale"}},{"sampler":5,"target":{"node":10,"path":"rotation"}},{"sampler":6,"target":{"node":10,"path":"translation"}},{"sampler":7,"target":{"node":10,"path":"scale"}},{"sampler":8,"target":{"node":5,"path":"scale"}}]}],"bufferViews":[{"buffer":0,"byteOffset":0,"byteLength":52},{"buffer":0,"byteOffset":52,"byteLength":208},{"buffer":0,"byteOffset":260,"byteLength":52},{"buffer":0,"byteOffset":312,"byteLength":156},{"buffer":0,"byteOffset":468,"byteLength":8},{"buffer":0,"byteOffset":476,"byteLength":32},{"buffer":0,"byteOffset":508,"byteLength":8},{"buffer":0,"byteOffset":516,"byteLength":24},{"buffer":0,"byteOffset":540,"byteLength":8},{"buffer":0,"byteOffset":548,"byteLength":24},{"buffer":0,"byteOffset":572,"byteLength":8},{"buffer":0,"byteOffset":580,"byteLength":32},{"buffer":0,"byteOffset":612,"byteLength":8},{"buffer":0,"byteOffset":620,"byteLength":24},{"buffer":0,"byteOffset":644,"byteLength":8},{"buffer":0,"byteOffset":652,"byteLength":24},{"buffer":0,"byteOffset":676,"byteLength":4},{"buffer":0,"byteOffset":680,"byteLength":12}],"buffers":[{"byteLength":692,"uri":"data:application/octet-stream;base64,"}],"accessors":[{"bufferView":0,"componentType":5126,"count":13,"max":[0.7916666865348816],"min":[0],"type":"SCALAR"},{"bufferView":1,"componentType":5126,"count":13,"max":[0.104532890021801,0.2690384089946747,0.46063724160194397,1],"min":[-0.45691239833831787,-0.003613908775150776,-0.01422120165079832,0.7118024230003357],"type":"VEC4"},{"bufferView":2,"componentType":5126,"count":13,"max":[0.75],"min":[0],"type":"SCALAR"},{"bufferView":3,"componentType":5126,"count":13,"max":[0.8125,0.5625,0.8062499761581421],"min":[0.4906249940395355,-0.1875,0.39375001192092896],"type":"VEC3"},{"bufferView":4,"componentType":5126,"count":2,"max":[0.4583333432674408],"min":[0.0416666679084301],"type":"SCALAR"},{"bufferView":5,"componentType":5126,"count":2,"max":[0.07427829504013062,-0.7647709846496582,0.6344729661941528,0.08397670090198517],"min":[0.03672437742352486,-0.8710734248161316,0.4845803380012512,0.07116371393203735],"type":"VEC4"},{"bufferView":6,"componentType":5126,"count":2,"max":[0.4583333432674408],"min":[0.0416666679084301],"type":"SCALAR"},{"bufferView":7,"componentType":5126,"count":2,"max":[0.029999999329447746,-0.1837500035762787,-0.4025000035762787],"min":[0.029999999329447746,-0.1837500035762787,-0.4025000035762787],"type":"VEC3"},{"bufferView":8,"componentType":5126,"count":2,"max":[0.4583333432674408],"min":[0.0416666679084301],"type":"SCALAR"},{"bufferView":9,"componentType":5126,"count":2,"max":[1,1.5,1],"min":[1,1.5,1],"type":"VEC3"},{"bufferView":10,"componentType":5126,"count":2,"max":[0.5],"min":[0.0416666679084301],"type":"SCALAR"},{"bufferView":11,"componentType":5126,"count":2,"max":[0.2639431953430176,-0.6461759209632874,0.49945545196533203,-0.5131616592407227],"min":[0.13440783321857452,-0.7463713884353638,0.33155518770217896,-0.5611910820007324],"type":"VEC4"},{"bufferView":12,"componentType":5126,"count":2,"max":[0.5],"min":[0.0416666679084301],"type":"SCALAR"},{"bufferView":13,"componentType":5126,"count":2,"max":[-0.05375000089406967,0.036249998956918716,-0.5587499737739563],"min":[-0.05375000089406967,0.036249998956918716,-0.5587499737739563],"type":"VEC3"},{"bufferView":14,"componentType":5126,"count":2,"max":[0.5],"min":[0.0416666679084301],"type":"SCALAR"},{"bufferView":15,"componentType":5126,"count":2,"max":[1,1.5,1],"min":[1,1.5,1],"type":"VEC3"},{"bufferView":16,"componentType":5126,"count":1,"max":[0.0416666679084301],"min":[0.0416666679084301],"type":"SCALAR"},{"bufferView":17,"componentType":5126,"count":1,"max":[0,0,0],"min":[0,0,0],"type":"VEC3"}]}