{"asset":{"version":"2.0","generator":"Blockbench 4.8.3 glTF exporter"},"scenes":[{"nodes":[12],"name":"blockbench_export"}],"scene":0,"nodes":[{"translation":[0.375,-0.6875,0],"name":"RightHand"},{"translation":[-0.375,0.6000000000000003,-0.625],"name":"R","children":[0]},{"translation":[0.501953125,0.677734375,0.46875],"name":"bolt"},{"translation":[0.43359375,0.0078125,-0.04296875],"name":"charger"},{"translation":[0.5,0.5526864541037695,0.4094612088061629],"name":"magazine"},{"translation":[0.5,0.5526864541037695,0.4094612088061629],"name":"magazine2"},{"translation":[0.5288087561102379,0.6704232392415123,0.41845709730118674],"name":"bullet"},{"translation":[-0.5,-0.5874999999999997,-1.125],"name":"hk433","children":[2,3,4,5,6]},{"translation":[0,0.02499999999999969,0.63125],"name":"bone","children":[1,7]},{"translation":[-0.375,-0.6875,0],"name":"LeftHand"},{"translation":[0.375,0.625,0.006249999999999978],"name":"l","children":[9]},{"translation":[0.5,0.5625,0.49375],"name":"bone2","children":[8,10]},{"children":[11]}],"animations":[{"name":"reload_norm","samplers":[{"input":0,"output":1,"interpolation":"LINEAR"},{"input":2,"output":3,"interpolation":"LINEAR"},{"input":4,"output":5,"interpolation":"LINEAR"},{"input":6,"output":7,"interpolation":"LINEAR"},{"input":8,"output":9,"interpolation":"LINEAR"},{"input":10,"output":11,"interpolation":"LINEAR"},{"input":12,"output":13,"interpolation":"LINEAR"},{"input":14,"output":15,"interpolation":"LINEAR"},{"input":16,"output":17,"interpolation":"LINEAR"},{"input":18,"output":19,"interpolation":"LINEAR"},{"input":20,"output":21,"interpolation":"LINEAR"},{"input":22,"output":23,"interpolation":"LINEAR"}],"channels":[{"sampler":0,"target":{"node":11,"path":"rotation"}},{"sampler":1,"target":{"node":11,"path":"translation"}},{"sampler":2,"target":{"node":1,"path":"rotation"}},{"sampler":3,"target":{"node":1,"path":"translation"}},{"sampler":4,"target":{"node":1,"path":"scale"}},{"sampler":5,"target":{"node":10,"path":"rotation"}},{"sampler":6,"target":{"node":10,"path":"translation"}},{"sampler":7,"target":{"node":10,"path":"scale"}},{"sampler":8,"target":{"node":5,"path":"rotation"}},{"sampler":9,"target":{"node":5,"path":"translation"}},{"sampler":10,"target":{"node":4,"path":"rotation"}},{"sampler":11,"target":{"node":4,"path":"translation"}}]}],"bufferViews":[{"buffer":0,"byteOffset":0,"byteLength":208},{"buffer":0,"byteOffset":208,"byteLength":832},{"buffer":0,"byteOffset":1040,"byteLength":188},{"buffer":0,"byteOffset":1228,"byteLength":564},{"buffer":0,"byteOffset":1792,"byteLength":4},{"buffer":0,"byteOffset":1796,"byteLength":16},{"buffer":0,"byteOffset":1812,"byteLength":4},{"buffer":0,"byteOffset":1816,"byteLength":12},{"buffer":0,"byteOffset":1828,"byteLength":4},{"buffer":0,"byteOffset":1832,"byteLength":12},{"buffer":0,"byteOffset":1844,"byteLength":72},{"buffer":0,"byteOffset":1916,"byteLength":288},{"buffer":0,"byteOffset":2204,"byteLength":188},{"buffer":0,"byteOffset":2392,"byteLength":564},{"buffer":0,"byteOffset":2956,"byteLength":4},{"buffer":0,"byteOffset":2960,"byteLength":12},{"buffer":0,"byteOffset":2972,"byteLength":48},{"buffer":0,"byteOffset":3020,"byteLength":192},{"buffer":0,"byteOffset":3212,"byteLength":96},{"buffer":0,"byteOffset":3308,"byteLength":288},{"buffer":0,"byteOffset":3596,"byteLength":68},{"buffer":0,"byteOffset":3664,"byteLength":272},{"buffer":0,"byteOffset":3936,"byteLength":76},{"buffer":0,"byteOffset":4012,"byteLength":228}],"buffers":[{"byteLength":4240,"uri":"data:application/octet-stream;base64,"}],"accessors":[{"bufferView":0,"componentType":5126,"count":52,"max":[3.1666667461395264],"min":[0],"type":"SCALAR"},{"bufferView":1,"componentType":5126,"count":52,"max":[0.2622334659099579,0.03743826225399971,0.017452405765652657,1],"min":[-0.0006639790954068303,-0.03981636092066765,-0.2773289978504181,0.9242647886276245],"type":"VEC4"},{"bufferView":2,"componentType":5126,"count":47,"max":[3.1666667461395264],"min":[0],"type":"SCALAR"},{"bufferView":3,"componentType":5126,"count":47,"max":[0.6012499928474426,0.6949999928474426,0.5137500166893005],"min":[0.5,0.5131250023841858,0.34312498569488525],"type":"VEC3"},{"bufferView":4,"componentType":5126,"count":1,"max":[0.0416666679084301],"min":[0.0416666679084301],"type":"SCALAR"},{"bufferView":5,"componentType":5126,"count":1,"max":[0.07427829504013062,-0.7647709846496582,0.6344729661941528,0.08397670090198517],"min":[0.07427829504013062,-0.7647709846496582,0.6344729661941528,0.08397670090198517],"type":"VEC4"},{"bufferView":6,"componentType":5126,"count":1,"max":[0.0416666679084301],"min":[0.0416666679084301],"type":"SCALAR"},{"bufferView":7,"componentType":5126,"count":1,"max":[0.029999999329447746,-0.1837500035762787,-0.4025000035762787],"min":[0.029999999329447746,-0.1837500035762787,-0.4025000035762787],"type":"VEC3"},{"bufferView":8,"componentType":5126,"count":1,"max":[0.0416666679084301],"min":[0.0416666679084301],"type":"SCALAR"},{"bufferView":9,"componentType":5126,"count":1,"max":[1,1.5,1],"min":[1,1.5,1],"type":"VEC3"},{"bufferView":10,"componentType":5126,"count":18,"max":[2.9583332538604736],"min":[0.0416666679084301],"type":"SCALAR"},{"bufferView":11,"componentType":5126,"count":18,"max":[0.5803073644638062,0.16295506060123444,0.8036924600601196,0.07638374716043472],"min":[-0.30506837368011475,-0.8655449151992798,0.4428911507129669,-0.5611910820007324],"type":"VEC4"},{"bufferView":12,"componentType":5126,"count":47,"max":[2.9583332538604736],"min":[0],"type":"SCALAR"},{"bufferView":13,"componentType":5126,"count":47,"max":[0.009999999776482582,0.036249998956918716,-0.061250001192092896],"min":[-0.3087500035762787,-2.422499895095825,-0.5587499737739563],"type":"VEC3"},{"bufferView":14,"componentType":5126,"count":1,"max":[0.0416666679084301],"min":[0.0416666679084301],"type":"SCALAR"},{"bufferView":15,"componentType":5126,"count":1,"max":[1,1.5,1],"min":[1,1.5,1],"type":"VEC3"},{"bufferView":16,"componentType":5126,"count":12,"max":[1.9166666269302368],"min":[0.0416666679084301],"type":"SCALAR"},{"bufferView":17,"componentType":5126,"count":12,"max":[0.04033096134662628,0.0012322223046794534,0,1],"min":[-0.8767267465591431,0,-0.030513642355799675,0.4809887707233429],"type":"VEC4"},{"bufferView":18,"componentType":5126,"count":24,"max":[1.9166666269302368],"min":[0],"type":"SCALAR"},{"bufferView":19,"componentType":5126,"count":24,"max":[0.5,0.5526864528656006,0.40946120023727417],"min":[0.35810184478759766,-1.9298135042190552,0.15321120619773865],"type":"VEC3"},{"bufferView":20,"componentType":5126,"count":17,"max":[2.625],"min":[0],"type":"SCALAR"},{"bufferView":21,"componentType":5126,"count":17,"max":[0.16667728126049042,0.0007649733452126384,0,1],"min":[-0.0027102860622107983,-0.04787551984190941,-0.16500979661941528,0.9739629030227661],"type":"VEC4"},{"bufferView":22,"componentType":5126,"count":19,"max":[2.625],"min":[0],"type":"SCALAR"},{"bufferView":23,"componentType":5126,"count":19,"max":[0.6287500262260437,0.5526864528656006,0.40946120023727417],"min":[0.2737500071525574,-0.8998135328292847,0.37446120381355286],"type":"VEC3"}]}