{"asset":{"version":"2.0","generator":"Blockbench 4.8.3 glTF exporter"},"scenes":[{"nodes":[11],"name":"blockbench_export"}],"scene":0,"nodes":[{"translation":[-0.0029232376838491114,-0.4406513078088659,-0.03903409155582055],"name":"mag"},{"translation":[-0.037317246296133866,0.08026179973588965,0.0849609375],"name":"bolt"},{"translation":[-4.5150494454304635e-11,0.21562562840911392,-0.5936458328926351],"name":"sight"},{"translation":[-4.515499085755437e-11,-0.1643641101621358,-0.3205467931718101],"name":"grip_mag"},{"translation":[-0.0322265625,0.11757812500000031,-0.2890625],"name":"lok1","children":[0,1,2,3]},{"translation":[0.375,-0.6875,0],"name":"RightHand"},{"translation":[-0.4072265625,0.8050781250000003,-0.2890625],"name":"R","children":[5]},{"translation":[-0.0302734375,-0.002343750000000311,-0.0234375],"name":"bone","children":[4,6]},{"translation":[-0.375,-0.6875,0],"name":"LeftHand"},{"translation":[0.3125,0.802734375,-0.3125],"name":"l","children":[8]},{"translation":[0.5625,0.384765625,0.8125],"name":"bone2","children":[7,9]},{"children":[10]}],"animations":[{"name":"inspect","samplers":[{"input":0,"output":1,"interpolation":"LINEAR"},{"input":2,"output":3,"interpolation":"LINEAR"},{"input":4,"output":5,"interpolation":"LINEAR"},{"input":6,"output":7,"interpolation":"LINEAR"},{"input":8,"output":9,"interpolation":"LINEAR"},{"input":10,"output":11,"interpolation":"LINEAR"},{"input":12,"output":13,"interpolation":"LINEAR"},{"input":14,"output":15,"interpolation":"LINEAR"},{"input":16,"output":17,"interpolation":"LINEAR"},{"input":18,"output":19,"interpolation":"LINEAR"},{"input":20,"output":21,"interpolation":"LINEAR"},{"input":22,"output":23,"interpolation":"LINEAR"},{"input":24,"output":25,"interpolation":"LINEAR"},{"input":26,"output":27,"interpolation":"LINEAR"},{"input":28,"output":29,"interpolation":"LINEAR"},{"input":30,"output":31,"interpolation":"LINEAR"},{"input":32,"output":33,"interpolation":"LINEAR"},{"input":34,"output":35,"interpolation":"LINEAR"}],"channels":[{"sampler":0,"target":{"node":0,"path":"rotation"}},{"sampler":1,"target":{"node":0,"path":"translation"}},{"sampler":2,"target":{"node":1,"path":"rotation"}},{"sampler":3,"target":{"node":1,"path":"translation"}},{"sampler":4,"target":{"node":10,"path":"rotation"}},{"sampler":5,"target":{"node":10,"path":"translation"}},{"sampler":6,"target":{"node":7,"path":"rotation"}},{"sampler":7,"target":{"node":7,"path":"translation"}},{"sampler":8,"target":{"node":6,"path":"rotation"}},{"sampler":9,"target":{"node":6,"path":"translation"}},{"sampler":10,"target":{"node":6,"path":"scale"}},{"sampler":11,"target":{"node":9,"path":"rotation"}},{"sampler":12,"target":{"node":9,"path":"translation"}},{"sampler":13,"target":{"node":9,"path":"scale"}},{"sampler":14,"target":{"node":2,"path":"rotation"}},{"sampler":15,"target":{"node":2,"path":"translation"}},{"sampler":16,"target":{"node":3,"path":"rotation"}},{"sampler":17,"target":{"node":3,"path":"translation"}}]}],"bufferViews":[{"buffer":0,"byteOffset":0,"byteLength":4},{"buffer":0,"byteOffset":4,"byteLength":16},{"buffer":0,"byteOffset":20,"byteLength":4},{"buffer":0,"byteOffset":24,"byteLength":12},{"buffer":0,"byteOffset":36,"byteLength":4},{"buffer":0,"byteOffset":40,"byteLength":16},{"buffer":0,"byteOffset":56,"byteLength":4},{"buffer":0,"byteOffset":60,"byteLength":12},{"buffer":0,"byteOffset":72,"byteLength":60},{"buffer":0,"byteOffset":132,"byteLength":240},{"buffer":0,"byteOffset":372,"byteLength":60},{"buffer":0,"byteOffset":432,"byteLength":180},{"buffer":0,"byteOffset":612,"byteLength":32},{"buffer":0,"byteOffset":644,"byteLength":128},{"buffer":0,"byteOffset":772,"byteLength":32},{"buffer":0,"byteOffset":804,"byteLength":96},{"buffer":0,"byteOffset":900,"byteLength":4},{"buffer":0,"byteOffset":904,"byteLength":16},{"buffer":0,"byteOffset":920,"byteLength":4},{"buffer":0,"byteOffset":924,"byteLength":12},{"buffer":0,"byteOffset":936,"byteLength":4},{"buffer":0,"byteOffset":940,"byteLength":12},{"buffer":0,"byteOffset":952,"byteLength":84},{"buffer":0,"byteOffset":1036,"byteLength":336},{"buffer":0,"byteOffset":1372,"byteLength":80},{"buffer":0,"byteOffset":1452,"byteLength":240},{"buffer":0,"byteOffset":1692,"byteLength":4},{"buffer":0,"byteOffset":1696,"byteLength":12},{"buffer":0,"byteOffset":1708,"byteLength":60},{"buffer":0,"byteOffset":1768,"byteLength":240},{"buffer":0,"byteOffset":2008,"byteLength":52},{"buffer":0,"byteOffset":2060,"byteLength":156},{"buffer":0,"byteOffset":2216,"byteLength":4},{"buffer":0,"byteOffset":2220,"byteLength":16},{"buffer":0,"byteOffset":2236,"byteLength":4},{"buffer":0,"byteOffset":2240,"byteLength":12}],"buffers":[{"byteLength":2252,"uri":"data:application/octet-stream;base64,"}],"accessors":[{"bufferView":0,"componentType":5126,"count":1,"max":[0],"min":[0],"type":"SCALAR"},{"bufferView":1,"componentType":5126,"count":1,"max":[0,0,0,1],"min":[0,0,0,1],"type":"VEC4"},{"bufferView":2,"componentType":5126,"count":1,"max":[0],"min":[0],"type":"SCALAR"},{"bufferView":3,"componentType":5126,"count":1,"max":[-0.0029232376255095005,-0.4406512975692749,-0.03903409093618393],"min":[-0.0029232376255095005,-0.4406512975692749,-0.03903409093618393],"type":"VEC3"},{"bufferView":4,"componentType":5126,"count":1,"max":[0],"min":[0],"type":"SCALAR"},{"bufferView":5,"componentType":5126,"count":1,"max":[0,0,0,1],"min":[0,0,0,1],"type":"VEC4"},{"bufferView":6,"componentType":5126,"count":1,"max":[0],"min":[0],"type":"SCALAR"},{"bufferView":7,"componentType":5126,"count":1,"max":[-0.037317246198654175,0.08026179671287537,0.0849609375],"min":[-0.037317246198654175,0.08026179671287537,0.0849609375],"type":"VEC3"},{"bufferView":8,"componentType":5126,"count":15,"max":[3.5833332538604736],"min":[0],"type":"SCALAR"},{"bufferView":9,"componentType":5126,"count":15,"max":[0.021720951423048973,0.023141637444496155,0.023993918672204018,1],"min":[-0.02264207974076271,-0.008732291869819164,-0.06765419244766235,0.9974201917648315],"type":"VEC4"},{"bufferView":10,"componentType":5126,"count":15,"max":[3.5833332538604736],"min":[0],"type":"SCALAR"},{"bufferView":11,"componentType":5126,"count":15,"max":[0.5625,0.3880078196525574,0.8359375],"min":[0.556640625,0.37035155296325684,0.7662890553474426],"type":"VEC3"},{"bufferView":12,"componentType":5126,"count":8,"max":[3.7083332538604736],"min":[0],"type":"SCALAR"},{"bufferView":13,"componentType":5126,"count":8,"max":[0.15014414489269257,0.06255961954593658,0.04410139098763466,1],"min":[-0.008783129043877125,0,-0.004363309126347303,0.985722005367279],"type":"VEC4"},{"bufferView":14,"componentType":5126,"count":8,"max":[3.7083332538604736],"min":[0],"type":"SCALAR"},{"bufferView":15,"componentType":5126,"count":8,"max":[-0.0107421875,0.0005859375232830644,0.28515625],"min":[-0.0302734375,-0.13320311903953552,-0.03125],"type":"VEC3"},{"bufferView":16,"componentType":5126,"count":1,"max":[0],"min":[0],"type":"SCALAR"},{"bufferView":17,"componentType":5126,"count":1,"max":[-0.031465671956539154,0.7583012580871582,-0.6505807042121887,-0.027088914066553116],"min":[-0.031465671956539154,0.7583012580871582,-0.6505807042121887,-0.027088914066553116],"type":"VEC4"},{"bufferView":18,"componentType":5126,"count":1,"max":[0],"min":[0],"type":"SCALAR"},{"bufferView":19,"componentType":5126,"count":1,"max":[0.0146484375,-0.05624999850988388,-0.0283203125],"min":[0.0146484375,-0.05624999850988388,-0.0283203125],"type":"VEC3"},{"bufferView":20,"componentType":5126,"count":1,"max":[0],"min":[0],"type":"SCALAR"},{"bufferView":21,"componentType":5126,"count":1,"max":[1,1.5,1],"min":[1,1.5,1],"type":"VEC3"},{"bufferView":22,"componentType":5126,"count":21,"max":[3.7083332538604736],"min":[0],"type":"SCALAR"},{"bufferView":23,"componentType":5126,"count":21,"max":[0.11212100833654404,0.8837704062461853,-0.31412947177886963,0.5578950643539429],"min":[-0.3253314197063446,0.5782313942909241,-0.636590838432312,0.04151026904582977],"type":"VEC4"},{"bufferView":24,"componentType":5126,"count":20,"max":[3.7083332538604736],"min":[0],"type":"SCALAR"},{"bufferView":25,"componentType":5126,"count":20,"max":[-0.126953125,0.4127734303474426,-0.1635156273841858],"min":[-0.6212499737739563,-0.16015625,-0.8828125],"type":"VEC3"},{"bufferView":26,"componentType":5126,"count":1,"max":[0],"min":[0],"type":"SCALAR"},{"bufferView":27,"componentType":5126,"count":1,"max":[1,1.5,1],"min":[1,1.5,1],"type":"VEC3"},{"bufferView":28,"componentType":5126,"count":15,"max":[3.1666667461395264],"min":[0],"type":"SCALAR"},{"bufferView":29,"componentType":5126,"count":15,"max":[0,0.12946540117263794,0.36135366559028625,1],"min":[-0.989871084690094,-0.35397082567214966,0,-0.24142493307590485],"type":"VEC4"},{"bufferView":30,"componentType":5126,"count":13,"max":[3.1666667461395264],"min":[0],"type":"SCALAR"},{"bufferView":31,"componentType":5126,"count":13,"max":[-4.5150494454304635e-11,0.42312562465667725,-0.28989583253860474],"min":[-0.3896484375,-0.01621030829846859,-0.5936458110809326],"type":"VEC3"},{"bufferView":32,"componentType":5126,"count":1,"max":[0],"min":[0],"type":"SCALAR"},{"bufferView":33,"componentType":5126,"count":1,"max":[0,0,0,1],"min":[0,0,0,1],"type":"VEC4"},{"bufferView":34,"componentType":5126,"count":1,"max":[0],"min":[0],"type":"SCALAR"},{"bufferView":35,"componentType":5126,"count":1,"max":[-4.515499085755437e-11,-0.16436411440372467,-0.32054680585861206],"min":[-4.515499085755437e-11,-0.16436411440372467,-0.32054680585861206],"type":"VEC3"}]}