{"asset":{"version":"2.0","generator":"Blockbench 4.8.3 glTF exporter"},"scenes":[{"nodes":[11],"name":"blockbench_export"}],"scene":0,"nodes":[{"translation":[-0.0029232376838491114,-0.4406513078088659,-0.03903409155582055],"name":"mag"},{"translation":[-0.037317246296133866,0.08026179973588965,0.0849609375],"name":"bolt"},{"translation":[-4.5150494454304635e-11,0.21562562840911392,-0.5936458328926351],"name":"sight"},{"translation":[-4.515499085755437e-11,-0.1643641101621358,-0.3205467931718101],"name":"grip_mag"},{"translation":[-0.0322265625,0.11757812500000031,-0.2890625],"name":"lok1","children":[0,1,2,3]},{"translation":[0.375,-0.6875,0],"name":"RightHand"},{"translation":[-0.4072265625,0.8050781250000003,-0.2890625],"name":"R","children":[5]},{"translation":[-0.0302734375,-0.002343750000000311,-0.0234375],"name":"bone","children":[4,6]},{"translation":[-0.375,-0.6875,0],"name":"LeftHand"},{"translation":[0.3125,0.802734375,-0.3125],"name":"l","children":[8]},{"translation":[0.5625,0.384765625,0.8125],"name":"bone2","children":[7,9]},{"children":[10]}],"animations":[{"name":"draw","samplers":[{"input":0,"output":1,"interpolation":"LINEAR"},{"input":2,"output":3,"interpolation":"LINEAR"},{"input":4,"output":5,"interpolation":"LINEAR"},{"input":6,"output":7,"interpolation":"LINEAR"},{"input":8,"output":9,"interpolation":"LINEAR"},{"input":10,"output":11,"interpolation":"LINEAR"},{"input":12,"output":13,"interpolation":"LINEAR"},{"input":14,"output":15,"interpolation":"LINEAR"},{"input":16,"output":17,"interpolation":"LINEAR"},{"input":18,"output":19,"interpolation":"LINEAR"},{"input":20,"output":21,"interpolation":"LINEAR"},{"input":22,"output":23,"interpolation":"LINEAR"},{"input":24,"output":25,"interpolation":"LINEAR"},{"input":26,"output":27,"interpolation":"LINEAR"},{"input":28,"output":29,"interpolation":"LINEAR"},{"input":30,"output":31,"interpolation":"LINEAR"},{"input":32,"output":33,"interpolation":"LINEAR"},{"input":34,"output":35,"interpolation":"LINEAR"}],"channels":[{"sampler":0,"target":{"node":0,"path":"rotation"}},{"sampler":1,"target":{"node":0,"path":"translation"}},{"sampler":2,"target":{"node":1,"path":"rotation"}},{"sampler":3,"target":{"node":1,"path":"translation"}},{"sampler":4,"target":{"node":10,"path":"rotation"}},{"sampler":5,"target":{"node":10,"path":"translation"}},{"sampler":6,"target":{"node":7,"path":"rotation"}},{"sampler":7,"target":{"node":7,"path":"translation"}},{"sampler":8,"target":{"node":6,"path":"rotation"}},{"sampler":9,"target":{"node":6,"path":"translation"}},{"sampler":10,"target":{"node":6,"path":"scale"}},{"sampler":11,"target":{"node":9,"path":"rotation"}},{"sampler":12,"target":{"node":9,"path":"translation"}},{"sampler":13,"target":{"node":9,"path":"scale"}},{"sampler":14,"target":{"node":2,"path":"rotation"}},{"sampler":15,"target":{"node":2,"path":"translation"}},{"sampler":16,"target":{"node":3,"path":"rotation"}},{"sampler":17,"target":{"node":3,"path":"translation"}}]}],"bufferViews":[{"buffer":0,"byteOffset":0,"byteLength":8},{"buffer":0,"byteOffset":8,"byteLength":32},{"buffer":0,"byteOffset":40,"byteLength":8},{"buffer":0,"byteOffset":48,"byteLength":24},{"buffer":0,"byteOffset":72,"byteLength":8},{"buffer":0,"byteOffset":80,"byteLength":32},{"buffer":0,"byteOffset":112,"byteLength":8},{"buffer":0,"byteOffset":120,"byteLength":24},{"buffer":0,"byteOffset":144,"byteLength":16},{"buffer":0,"byteOffset":160,"byteLength":64},{"buffer":0,"byteOffset":224,"byteLength":16},{"buffer":0,"byteOffset":240,"byteLength":48},{"buffer":0,"byteOffset":288,"byteLength":4},{"buffer":0,"byteOffset":292,"byteLength":16},{"buffer":0,"byteOffset":308,"byteLength":4},{"buffer":0,"byteOffset":312,"byteLength":12},{"buffer":0,"byteOffset":324,"byteLength":8},{"buffer":0,"byteOffset":332,"byteLength":32},{"buffer":0,"byteOffset":364,"byteLength":8},{"buffer":0,"byteOffset":372,"byteLength":24},{"buffer":0,"byteOffset":396,"byteLength":8},{"buffer":0,"byteOffset":404,"byteLength":24},{"buffer":0,"byteOffset":428,"byteLength":16},{"buffer":0,"byteOffset":444,"byteLength":64},{"buffer":0,"byteOffset":508,"byteLength":8},{"buffer":0,"byteOffset":516,"byteLength":24},{"buffer":0,"byteOffset":540,"byteLength":8},{"buffer":0,"byteOffset":548,"byteLength":24},{"buffer":0,"byteOffset":572,"byteLength":8},{"buffer":0,"byteOffset":580,"byteLength":32},{"buffer":0,"byteOffset":612,"byteLength":8},{"buffer":0,"byteOffset":620,"byteLength":24},{"buffer":0,"byteOffset":644,"byteLength":8},{"buffer":0,"byteOffset":652,"byteLength":32},{"buffer":0,"byteOffset":684,"byteLength":8},{"buffer":0,"byteOffset":692,"byteLength":24}],"buffers":[{"byteLength":716,"uri":"data:application/octet-stream;base64,"}],"accessors":[{"bufferView":0,"componentType":5126,"count":2,"max":[0.2083333283662796],"min":[0.0416666679084301],"type":"SCALAR"},{"bufferView":1,"componentType":5126,"count":2,"max":[0,0,0,1],"min":[0,0,0,1],"type":"VEC4"},{"bufferView":2,"componentType":5126,"count":2,"max":[0.2083333283662796],"min":[0.0416666679084301],"type":"SCALAR"},{"bufferView":3,"componentType":5126,"count":2,"max":[-0.0029232376255095005,-0.4406512975692749,-0.03903409093618393],"min":[-0.0029232376255095005,-0.4406512975692749,-0.03903409093618393],"type":"VEC3"},{"bufferView":4,"componentType":5126,"count":2,"max":[0.2083333283662796],"min":[0.0416666679084301],"type":"SCALAR"},{"bufferView":5,"componentType":5126,"count":2,"max":[0,0,0,1],"min":[0,0,0,1],"type":"VEC4"},{"bufferView":6,"componentType":5126,"count":2,"max":[0.2083333283662796],"min":[0.0416666679084301],"type":"SCALAR"},{"bufferView":7,"componentType":5126,"count":2,"max":[-0.037317246198654175,0.08026179671287537,0.0849609375],"min":[-0.037317246198654175,0.08026179671287537,0.0849609375],"type":"VEC3"},{"bufferView":8,"componentType":5126,"count":4,"max":[0.4166666567325592],"min":[0.0416666679084301],"type":"SCALAR"},{"bufferView":9,"componentType":5126,"count":4,"max":[0.01864301972091198,0.3624735474586487,0.3017160892486572,1],"min":[-0.24885685741901398,-0.026881666854023933,-0.03757349029183388,0.845961332321167],"type":"VEC4"},{"bufferView":10,"componentType":5126,"count":4,"max":[0.4166666567325592],"min":[0.0416666679084301],"type":"SCALAR"},{"bufferView":11,"componentType":5126,"count":4,"max":[0.5625,0.384765625,1.044921875],"min":[0.5625,0.15234375,0.7421875],"type":"VEC3"},{"bufferView":12,"componentType":5126,"count":1,"max":[0.0416666679084301],"min":[0.0416666679084301],"type":"SCALAR"},{"bufferView":13,"componentType":5126,"count":1,"max":[0,0,0,1],"min":[0,0,0,1],"type":"VEC4"},{"bufferView":14,"componentType":5126,"count":1,"max":[0.0416666679084301],"min":[0.0416666679084301],"type":"SCALAR"},{"bufferView":15,"componentType":5126,"count":1,"max":[-0.0302734375,-0.0023437500931322575,-0.0234375],"min":[-0.0302734375,-0.0023437500931322575,-0.0234375],"type":"VEC3"},{"bufferView":16,"componentType":5126,"count":2,"max":[0.2083333283662796],"min":[0.0416666679084301],"type":"SCALAR"},{"bufferView":17,"componentType":5126,"count":2,"max":[-0.031465671956539154,0.7583012580871582,-0.6505807042121887,-0.027088914066553116],"min":[-0.031465671956539154,0.7583012580871582,-0.6505807042121887,-0.027088914066553116],"type":"VEC4"},{"bufferView":18,"componentType":5126,"count":2,"max":[0.2083333283662796],"min":[0.0416666679084301],"type":"SCALAR"},{"bufferView":19,"componentType":5126,"count":2,"max":[0.0146484375,-0.05624999850988388,-0.0283203125],"min":[0.0146484375,-0.05624999850988388,-0.0283203125],"type":"VEC3"},{"bufferView":20,"componentType":5126,"count":2,"max":[0.2083333283662796],"min":[0.0416666679084301],"type":"SCALAR"},{"bufferView":21,"componentType":5126,"count":2,"max":[1,1.5,1],"min":[1,1.5,1],"type":"VEC3"},{"bufferView":22,"componentType":5126,"count":4,"max":[0.3333333432674408],"min":[0.0416666679084301],"type":"SCALAR"},{"bufferView":23,"componentType":5126,"count":4,"max":[-0.17748259007930756,0.5920586585998535,-0.588398277759552,0.5277963876724243],"min":[-0.22503511607646942,0.5651105642318726,-0.6145240068435669,0.4872041940689087],"type":"VEC4"},{"bufferView":24,"componentType":5126,"count":2,"max":[0.2083333283662796],"min":[0.0416666679084301],"type":"SCALAR"},{"bufferView":25,"componentType":5126,"count":2,"max":[-0.126953125,-0.16015625,-0.8828125],"min":[-0.126953125,-0.16015625,-0.8828125],"type":"VEC3"},{"bufferView":26,"componentType":5126,"count":2,"max":[0.2083333283662796],"min":[0.0416666679084301],"type":"SCALAR"},{"bufferView":27,"componentType":5126,"count":2,"max":[1,1.5,1],"min":[1,1.5,1],"type":"VEC3"},{"bufferView":28,"componentType":5126,"count":2,"max":[0.2083333283662796],"min":[0.0416666679084301],"type":"SCALAR"},{"bufferView":29,"componentType":5126,"count":2,"max":[0,0,0,1],"min":[0,0,0,1],"type":"VEC4"},{"bufferView":30,"componentType":5126,"count":2,"max":[0.2083333283662796],"min":[0.0416666679084301],"type":"SCALAR"},{"bufferView":31,"componentType":5126,"count":2,"max":[-4.5150494454304635e-11,0.21562562882900238,-0.5936458110809326],"min":[-4.5150494454304635e-11,0.21562562882900238,-0.5936458110809326],"type":"VEC3"},{"bufferView":32,"componentType":5126,"count":2,"max":[0.2083333283662796],"min":[0.0416666679084301],"type":"SCALAR"},{"bufferView":33,"componentType":5126,"count":2,"max":[0,0,0,1],"min":[0,0,0,1],"type":"VEC4"},{"bufferView":34,"componentType":5126,"count":2,"max":[0.2083333283662796],"min":[0.0416666679084301],"type":"SCALAR"},{"bufferView":35,"componentType":5126,"count":2,"max":[-4.515499085755437e-11,-0.16436411440372467,-0.32054680585861206],"min":[-4.515499085755437e-11,-0.16436411440372467,-0.32054680585861206],"type":"VEC3"}]}