{"asset":{"version":"2.0","generator":"Blockbench 4.8.3 glTF exporter"},"scenes":[{"nodes":[11],"name":"blockbench_export"}],"scene":0,"nodes":[{"translation":[-0.0029232376838491114,-0.4406513078088659,-0.03903409155582055],"name":"mag"},{"translation":[-0.037317246296133866,0.08026179973588965,0.0849609375],"name":"bolt"},{"translation":[-4.5150494454304635e-11,0.21562562840911392,-0.5936458328926351],"name":"sight"},{"translation":[-4.515499085755437e-11,-0.1643641101621358,-0.3205467931718101],"name":"grip_mag"},{"translation":[-0.0322265625,0.11757812500000031,-0.2890625],"name":"lok1","children":[0,1,2,3]},{"translation":[0.375,-0.6875,0],"name":"RightHand"},{"translation":[-0.4072265625,0.8050781250000003,-0.2890625],"name":"R","children":[5]},{"translation":[-0.0302734375,-0.002343750000000311,-0.0234375],"name":"bone","children":[4,6]},{"translation":[-0.375,-0.6875,0],"name":"LeftHand"},{"translation":[0.3125,0.802734375,-0.3125],"name":"l","children":[8]},{"translation":[0.5625,0.384765625,0.8125],"name":"bone2","children":[7,9]},{"children":[10]}],"animations":[{"name":"reload_norm","samplers":[{"input":0,"output":1,"interpolation":"LINEAR"},{"input":2,"output":3,"interpolation":"LINEAR"},{"input":4,"output":5,"interpolation":"LINEAR"},{"input":6,"output":7,"interpolation":"LINEAR"},{"input":8,"output":9,"interpolation":"LINEAR"},{"input":10,"output":11,"interpolation":"LINEAR"},{"input":12,"output":13,"interpolation":"LINEAR"},{"input":14,"output":15,"interpolation":"LINEAR"},{"input":16,"output":17,"interpolation":"LINEAR"},{"input":18,"output":19,"interpolation":"LINEAR"},{"input":20,"output":21,"interpolation":"LINEAR"},{"input":22,"output":23,"interpolation":"LINEAR"},{"input":24,"output":25,"interpolation":"LINEAR"},{"input":26,"output":27,"interpolation":"LINEAR"},{"input":28,"output":29,"interpolation":"LINEAR"},{"input":30,"output":31,"interpolation":"LINEAR"},{"input":32,"output":33,"interpolation":"LINEAR"},{"input":34,"output":35,"interpolation":"LINEAR"},{"input":36,"output":37,"interpolation":"LINEAR"}],"channels":[{"sampler":0,"target":{"node":0,"path":"rotation"}},{"sampler":1,"target":{"node":0,"path":"translation"}},{"sampler":2,"target":{"node":0,"path":"scale"}},{"sampler":3,"target":{"node":1,"path":"rotation"}},{"sampler":4,"target":{"node":1,"path":"translation"}},{"sampler":5,"target":{"node":10,"path":"rotation"}},{"sampler":6,"target":{"node":10,"path":"translation"}},{"sampler":7,"target":{"node":7,"path":"rotation"}},{"sampler":8,"target":{"node":7,"path":"translation"}},{"sampler":9,"target":{"node":6,"path":"rotation"}},{"sampler":10,"target":{"node":6,"path":"translation"}},{"sampler":11,"target":{"node":6,"path":"scale"}},{"sampler":12,"target":{"node":9,"path":"rotation"}},{"sampler":13,"target":{"node":9,"path":"translation"}},{"sampler":14,"target":{"node":9,"path":"scale"}},{"sampler":15,"target":{"node":2,"path":"rotation"}},{"sampler":16,"target":{"node":2,"path":"translation"}},{"sampler":17,"target":{"node":3,"path":"rotation"}},{"sampler":18,"target":{"node":3,"path":"translation"}}]}],"bufferViews":[{"buffer":0,"byteOffset":0,"byteLength":32},{"buffer":0,"byteOffset":32,"byteLength":128},{"buffer":0,"byteOffset":160,"byteLength":24},{"buffer":0,"byteOffset":184,"byteLength":72},{"buffer":0,"byteOffset":256,"byteLength":16},{"buffer":0,"byteOffset":272,"byteLength":48},{"buffer":0,"byteOffset":320,"byteLength":4},{"buffer":0,"byteOffset":324,"byteLength":16},{"buffer":0,"byteOffset":340,"byteLength":4},{"buffer":0,"byteOffset":344,"byteLength":12},{"buffer":0,"byteOffset":356,"byteLength":4},{"buffer":0,"byteOffset":360,"byteLength":16},{"buffer":0,"byteOffset":376,"byteLength":4},{"buffer":0,"byteOffset":380,"byteLength":12},{"buffer":0,"byteOffset":392,"byteLength":88},{"buffer":0,"byteOffset":480,"byteLength":352},{"buffer":0,"byteOffset":832,"byteLength":88},{"buffer":0,"byteOffset":920,"byteLength":264},{"buffer":0,"byteOffset":1184,"byteLength":4},{"buffer":0,"byteOffset":1188,"byteLength":16},{"buffer":0,"byteOffset":1204,"byteLength":4},{"buffer":0,"byteOffset":1208,"byteLength":12},{"buffer":0,"byteOffset":1220,"byteLength":4},{"buffer":0,"byteOffset":1224,"byteLength":12},{"buffer":0,"byteOffset":1236,"byteLength":72},{"buffer":0,"byteOffset":1308,"byteLength":288},{"buffer":0,"byteOffset":1596,"byteLength":72},{"buffer":0,"byteOffset":1668,"byteLength":216},{"buffer":0,"byteOffset":1884,"byteLength":4},{"buffer":0,"byteOffset":1888,"byteLength":12},{"buffer":0,"byteOffset":1900,"byteLength":4},{"buffer":0,"byteOffset":1904,"byteLength":16},{"buffer":0,"byteOffset":1920,"byteLength":4},{"buffer":0,"byteOffset":1924,"byteLength":12},{"buffer":0,"byteOffset":1936,"byteLength":28},{"buffer":0,"byteOffset":1964,"byteLength":112},{"buffer":0,"byteOffset":2076,"byteLength":8},{"buffer":0,"byteOffset":2084,"byteLength":24}],"buffers":[{"byteLength":2108,"uri":"data:application/octet-stream;base64,"}],"accessors":[{"bufferView":0,"componentType":5126,"count":8,"max":[1.125],"min":[0],"type":"SCALAR"},{"bufferView":1,"componentType":5126,"count":8,"max":[0.9537169337272644,0.05171341076493263,0.11508986353874207,1],"min":[-0.22675907611846924,-0.2545299232006073,-0.11209022253751755,-0.8191520571708679],"type":"VEC4"},{"bufferView":2,"componentType":5126,"count":6,"max":[1.125],"min":[0],"type":"SCALAR"},{"bufferView":3,"componentType":5126,"count":6,"max":[-0.0029232376255095005,-0.4406512975692749,0.18264558911323547],"min":[-0.31542325019836426,-1.690651297569275,-1.414034128189087],"type":"VEC3"},{"bufferView":4,"componentType":5126,"count":4,"max":[0.9166666865348816],"min":[0.5833333134651184],"type":"SCALAR"},{"bufferView":5,"componentType":5126,"count":4,"max":[1,1,1],"min":[0,0,0],"type":"VEC3"},{"bufferView":6,"componentType":5126,"count":1,"max":[0],"min":[0],"type":"SCALAR"},{"bufferView":7,"componentType":5126,"count":1,"max":[0,0,0,1],"min":[0,0,0,1],"type":"VEC4"},{"bufferView":8,"componentType":5126,"count":1,"max":[0],"min":[0],"type":"SCALAR"},{"bufferView":9,"componentType":5126,"count":1,"max":[-0.037317246198654175,0.08026179671287537,0.0849609375],"min":[-0.037317246198654175,0.08026179671287537,0.0849609375],"type":"VEC3"},{"bufferView":10,"componentType":5126,"count":1,"max":[0],"min":[0],"type":"SCALAR"},{"bufferView":11,"componentType":5126,"count":1,"max":[0,0,0,1],"min":[0,0,0,1],"type":"VEC4"},{"bufferView":12,"componentType":5126,"count":1,"max":[0],"min":[0],"type":"SCALAR"},{"bufferView":13,"componentType":5126,"count":1,"max":[0.5625,0.384765625,0.8125],"min":[0.5625,0.384765625,0.8125],"type":"VEC3"},{"bufferView":14,"componentType":5126,"count":22,"max":[1.9583333730697632],"min":[0],"type":"SCALAR"},{"bufferView":15,"componentType":5126,"count":22,"max":[0.23674321174621582,0.0902012437582016,0.01308959536254406,1],"min":[-0.01771005615592003,-0.009254086762666702,-0.2900989055633545,0.9256866574287415],"type":"VEC4"},{"bufferView":16,"componentType":5126,"count":22,"max":[1.9583333730697632],"min":[0],"type":"SCALAR"},{"bufferView":17,"componentType":5126,"count":22,"max":[0.05902343615889549,0.04867187514901161,0.021484375],"min":[-0.0302734375,-0.01015624962747097,-0.0380859375],"type":"VEC3"},{"bufferView":18,"componentType":5126,"count":1,"max":[0],"min":[0],"type":"SCALAR"},{"bufferView":19,"componentType":5126,"count":1,"max":[-0.031465671956539154,0.7583012580871582,-0.6505807042121887,-0.027088914066553116],"min":[-0.031465671956539154,0.7583012580871582,-0.6505807042121887,-0.027088914066553116],"type":"VEC4"},{"bufferView":20,"componentType":5126,"count":1,"max":[0],"min":[0],"type":"SCALAR"},{"bufferView":21,"componentType":5126,"count":1,"max":[0.0146484375,-0.05624999850988388,-0.0283203125],"min":[0.0146484375,-0.05624999850988388,-0.0283203125],"type":"VEC3"},{"bufferView":22,"componentType":5126,"count":1,"max":[0],"min":[0],"type":"SCALAR"},{"bufferView":23,"componentType":5126,"count":1,"max":[1,1.5,1],"min":[1,1.5,1],"type":"VEC3"},{"bufferView":24,"componentType":5126,"count":18,"max":[1.9583333730697632],"min":[0],"type":"SCALAR"},{"bufferView":25,"componentType":5126,"count":18,"max":[0.09936164319515228,0.6685516238212585,-0.45196568965911865,0.592900276184082],"min":[-0.31403225660324097,0.46239209175109863,-0.791622519493103,0.24680720269680023],"type":"VEC4"},{"bufferView":26,"componentType":5126,"count":18,"max":[1.9583333730697632],"min":[0],"type":"SCALAR"},{"bufferView":27,"componentType":5126,"count":18,"max":[-0.1162109375,-0.09976562857627869,-0.3131640553474426],"min":[-0.6087499856948853,-0.7287499904632568,-0.8974609375],"type":"VEC3"},{"bufferView":28,"componentType":5126,"count":1,"max":[0],"min":[0],"type":"SCALAR"},{"bufferView":29,"componentType":5126,"count":1,"max":[1,1.5,1],"min":[1,1.5,1],"type":"VEC3"},{"bufferView":30,"componentType":5126,"count":1,"max":[0],"min":[0],"type":"SCALAR"},{"bufferView":31,"componentType":5126,"count":1,"max":[0,0,0,1],"min":[0,0,0,1],"type":"VEC4"},{"bufferView":32,"componentType":5126,"count":1,"max":[0],"min":[0],"type":"SCALAR"},{"bufferView":33,"componentType":5126,"count":1,"max":[-4.5150494454304635e-11,0.21562562882900238,-0.5936458110809326],"min":[-4.5150494454304635e-11,0.21562562882900238,-0.5936458110809326],"type":"VEC3"},{"bufferView":34,"componentType":5126,"count":7,"max":[1.5],"min":[0],"type":"SCALAR"},{"bufferView":35,"componentType":5126,"count":7,"max":[0.44228869676589966,0,0,1],"min":[0,0,0,0.8968727588653564],"type":"VEC4"},{"bufferView":36,"componentType":5126,"count":2,"max":[0.2083333283662796],"min":[0],"type":"SCALAR"},{"bufferView":37,"componentType":5126,"count":2,"max":[-4.515499085755437e-11,-0.16436411440372467,-0.32054680585861206],"min":[-4.515499085755437e-11,-0.16436411440372467,-0.32054680585861206],"type":"VEC3"}]}