{"asset":{"version":"2.0","generator":"Blockbench 4.9.3 glTF exporter"},"scenes":[{"nodes":[12],"name":"blockbench_export"}],"scene":0,"nodes":[{"translation":[0.375,-0.6875,0],"name":"RightHand"},{"translation":[-0.375,0.9125000000000003,-0.1875],"name":"R","children":[0]},{"translation":[0.078125,0.09375,0],"name":"bullet5"},{"translation":[0,0.078125,-0.875],"name":"bullet"},{"translation":[-0.00042724609375,-0.140625,0.125],"name":"bullet7","children":[2,3]},{"translation":[0,0.140625,-0.125],"name":"cylinder","children":[4]},{"translation":[0,0.12006766843464556,0.10014481082165105],"name":"hammer"},{"translation":[0,0.2250000000000003,-0.1875],"name":"m1892","children":[5,6]},{"translation":[0,-0.03750000000000031,-0.4375],"name":"bone","children":[1,7]},{"translation":[-0.375,-0.6875,0],"name":"LeftHand"},{"translation":[0.375,0.875,-0.625],"name":"l","children":[9]},{"translation":[0.5,0.3125,1.125],"name":"bone2","children":[8,10]},{"children":[11]}],"animations":[{"name":"draw","samplers":[{"input":0,"output":1,"interpolation":"LINEAR"},{"input":2,"output":3,"interpolation":"LINEAR"},{"input":4,"output":5,"interpolation":"LINEAR"},{"input":6,"output":7,"interpolation":"LINEAR"},{"input":8,"output":9,"interpolation":"LINEAR"},{"input":10,"output":11,"interpolation":"LINEAR"},{"input":12,"output":13,"interpolation":"LINEAR"},{"input":14,"output":15,"interpolation":"LINEAR"}],"channels":[{"sampler":0,"target":{"node":1,"path":"rotation"}},{"sampler":1,"target":{"node":1,"path":"translation"}},{"sampler":2,"target":{"node":1,"path":"scale"}},{"sampler":3,"target":{"node":10,"path":"rotation"}},{"sampler":4,"target":{"node":10,"path":"translation"}},{"sampler":5,"target":{"node":10,"path":"scale"}},{"sampler":6,"target":{"node":8,"path":"rotation"}},{"sampler":7,"target":{"node":8,"path":"translation"}}]}],"bufferViews":[{"buffer":0,"byteOffset":0,"byteLength":4},{"buffer":0,"byteOffset":4,"byteLength":16},{"buffer":0,"byteOffset":20,"byteLength":4},{"buffer":0,"byteOffset":24,"byteLength":12},{"buffer":0,"byteOffset":36,"byteLength":4},{"buffer":0,"byteOffset":40,"byteLength":12},{"buffer":0,"byteOffset":52,"byteLength":4},{"buffer":0,"byteOffset":56,"byteLength":16},{"buffer":0,"byteOffset":72,"byteLength":4},{"buffer":0,"byteOffset":76,"byteLength":12},{"buffer":0,"byteOffset":88,"byteLength":4},{"buffer":0,"byteOffset":92,"byteLength":12},{"buffer":0,"byteOffset":104,"byteLength":100},{"buffer":0,"byteOffset":204,"byteLength":400},{"buffer":0,"byteOffset":604,"byteLength":100},{"buffer":0,"byteOffset":704,"byteLength":300}],"buffers":[{"byteLength":1004,"uri":"data:application/octet-stream;base64,"}],"accessors":[{"bufferView":0,"componentType":5126,"count":1,"max":[0],"min":[0],"type":"SCALAR"},{"bufferView":1,"componentType":5126,"count":1,"max":[-0.0013565137051045895,0.7372760772705078,-0.675588846206665,0.001361378701403737],"min":[-0.0013565137051045895,0.7372760772705078,-0.675588846206665,0.001361378701403737],"type":"VEC4"},{"bufferView":2,"componentType":5126,"count":1,"max":[0],"min":[0],"type":"SCALAR"},{"bufferView":3,"componentType":5126,"count":1,"max":[0.0625,-0.02500000037252903,-0.0625],"min":[0.0625,-0.02500000037252903,-0.0625],"type":"VEC3"},{"bufferView":4,"componentType":5126,"count":1,"max":[0],"min":[0],"type":"SCALAR"},{"bufferView":5,"componentType":5126,"count":1,"max":[1.75,2,1.75],"min":[1.75,2,1.75],"type":"VEC3"},{"bufferView":6,"componentType":5126,"count":1,"max":[0],"min":[0],"type":"SCALAR"},{"bufferView":7,"componentType":5126,"count":1,"max":[-0.49872279167175293,0.3177134692668915,-0.6801349520683289,0.43330147862434387],"min":[-0.49872279167175293,0.3177134692668915,-0.6801349520683289,0.43330147862434387],"type":"VEC4"},{"bufferView":8,"componentType":5126,"count":1,"max":[0],"min":[0],"type":"SCALAR"},{"bufferView":9,"componentType":5126,"count":1,"max":[-0.8125,-0.8125,-0.5],"min":[-0.8125,-0.8125,-0.5],"type":"VEC3"},{"bufferView":10,"componentType":5126,"count":1,"max":[0],"min":[0],"type":"SCALAR"},{"bufferView":11,"componentType":5126,"count":1,"max":[1.75,2,1.75],"min":[1.75,2,1.75],"type":"VEC3"},{"bufferView":12,"componentType":5126,"count":25,"max":[1.0833333730697632],"min":[0.0833333358168602],"type":"SCALAR"},{"bufferView":13,"componentType":5126,"count":25,"max":[0.237685889005661,0.005742700304836035,0.0033153302501887083,1],"min":[-0.0357784703373909,-0.008293277584016323,-0.021766027435660362,0.9713420867919922],"type":"VEC4"},{"bufferView":14,"componentType":5126,"count":25,"max":[1.0416666269302368],"min":[0.0416666679084301],"type":"SCALAR"},{"bufferView":15,"componentType":5126,"count":25,"max":[0,0.10499999672174454,0.25],"min":[0,-1.475000023841858,-0.5537499785423279],"type":"VEC3"}]}