{"asset":{"version":"2.0","generator":"Blockbench 4.9.3 glTF exporter"},"scenes":[{"nodes":[12],"name":"blockbench_export"}],"scene":0,"nodes":[{"translation":[0.375,-0.6875,0],"name":"RightHand"},{"translation":[-0.375,0.9125000000000003,-0.1875],"name":"R","children":[0]},{"translation":[0.078125,0.09375,0],"name":"bullet5"},{"translation":[0,0.078125,-0.875],"name":"bullet"},{"translation":[-0.00042724609375,-0.140625,0.125],"name":"bullet7","children":[2,3]},{"translation":[0,0.140625,-0.125],"name":"cylinder","children":[4]},{"translation":[0,0.12006766843464556,0.10014481082165105],"name":"hammer"},{"translation":[0,0.2250000000000003,-0.1875],"name":"m1892","children":[5,6]},{"translation":[0,-0.03750000000000031,-0.4375],"name":"bone","children":[1,7]},{"translation":[-0.375,-0.6875,0],"name":"LeftHand"},{"translation":[0.375,0.875,-0.625],"name":"l","children":[9]},{"translation":[0.5,0.3125,1.125],"name":"bone2","children":[8,10]},{"children":[11]}],"animations":[{"name":"reload_intro","samplers":[{"input":0,"output":1,"interpolation":"LINEAR"},{"input":2,"output":3,"interpolation":"LINEAR"},{"input":4,"output":5,"interpolation":"LINEAR"},{"input":6,"output":7,"interpolation":"LINEAR"},{"input":8,"output":9,"interpolation":"LINEAR"},{"input":10,"output":11,"interpolation":"LINEAR"},{"input":12,"output":13,"interpolation":"LINEAR"},{"input":14,"output":15,"interpolation":"LINEAR"},{"input":16,"output":17,"interpolation":"LINEAR"},{"input":18,"output":19,"interpolation":"LINEAR"},{"input":20,"output":21,"interpolation":"LINEAR"},{"input":22,"output":23,"interpolation":"LINEAR"}],"channels":[{"sampler":0,"target":{"node":1,"path":"rotation"}},{"sampler":1,"target":{"node":1,"path":"translation"}},{"sampler":2,"target":{"node":1,"path":"scale"}},{"sampler":3,"target":{"node":10,"path":"rotation"}},{"sampler":4,"target":{"node":10,"path":"translation"}},{"sampler":5,"target":{"node":10,"path":"scale"}},{"sampler":6,"target":{"node":8,"path":"rotation"}},{"sampler":7,"target":{"node":8,"path":"translation"}},{"sampler":8,"target":{"node":7,"path":"rotation"}},{"sampler":9,"target":{"node":7,"path":"translation"}},{"sampler":10,"target":{"node":5,"path":"rotation"}},{"sampler":11,"target":{"node":5,"path":"translation"}}]}],"bufferViews":[{"buffer":0,"byteOffset":0,"byteLength":4},{"buffer":0,"byteOffset":4,"byteLength":16},{"buffer":0,"byteOffset":20,"byteLength":4},{"buffer":0,"byteOffset":24,"byteLength":12},{"buffer":0,"byteOffset":36,"byteLength":4},{"buffer":0,"byteOffset":40,"byteLength":12},{"buffer":0,"byteOffset":52,"byteLength":4},{"buffer":0,"byteOffset":56,"byteLength":16},{"buffer":0,"byteOffset":72,"byteLength":4},{"buffer":0,"byteOffset":76,"byteLength":12},{"buffer":0,"byteOffset":88,"byteLength":4},{"buffer":0,"byteOffset":92,"byteLength":12},{"buffer":0,"byteOffset":104,"byteLength":108},{"buffer":0,"byteOffset":212,"byteLength":432},{"buffer":0,"byteOffset":644,"byteLength":104},{"buffer":0,"byteOffset":748,"byteLength":312},{"buffer":0,"byteOffset":1060,"byteLength":96},{"buffer":0,"byteOffset":1156,"byteLength":384},{"buffer":0,"byteOffset":1540,"byteLength":56},{"buffer":0,"byteOffset":1596,"byteLength":168},{"buffer":0,"byteOffset":1764,"byteLength":68},{"buffer":0,"byteOffset":1832,"byteLength":272},{"buffer":0,"byteOffset":2104,"byteLength":20},{"buffer":0,"byteOffset":2124,"byteLength":60}],"buffers":[{"byteLength":2184,"uri":"data:application/octet-stream;base64,"}],"accessors":[{"bufferView":0,"componentType":5126,"count":1,"max":[0],"min":[0],"type":"SCALAR"},{"bufferView":1,"componentType":5126,"count":1,"max":[-0.0013565137051045895,0.7372760772705078,-0.675588846206665,0.001361378701403737],"min":[-0.0013565137051045895,0.7372760772705078,-0.675588846206665,0.001361378701403737],"type":"VEC4"},{"bufferView":2,"componentType":5126,"count":1,"max":[0],"min":[0],"type":"SCALAR"},{"bufferView":3,"componentType":5126,"count":1,"max":[0.0625,-0.02500000037252903,-0.0625],"min":[0.0625,-0.02500000037252903,-0.0625],"type":"VEC3"},{"bufferView":4,"componentType":5126,"count":1,"max":[0],"min":[0],"type":"SCALAR"},{"bufferView":5,"componentType":5126,"count":1,"max":[1.75,2,1.75],"min":[1.75,2,1.75],"type":"VEC3"},{"bufferView":6,"componentType":5126,"count":1,"max":[0],"min":[0],"type":"SCALAR"},{"bufferView":7,"componentType":5126,"count":1,"max":[-0.49872279167175293,0.3177134692668915,-0.6801349520683289,0.43330147862434387],"min":[-0.49872279167175293,0.3177134692668915,-0.6801349520683289,0.43330147862434387],"type":"VEC4"},{"bufferView":8,"componentType":5126,"count":1,"max":[0],"min":[0],"type":"SCALAR"},{"bufferView":9,"componentType":5126,"count":1,"max":[-0.8125,-0.8125,-0.5],"min":[-0.8125,-0.8125,-0.5],"type":"VEC3"},{"bufferView":10,"componentType":5126,"count":1,"max":[0],"min":[0],"type":"SCALAR"},{"bufferView":11,"componentType":5126,"count":1,"max":[1.75,2,1.75],"min":[1.75,2,1.75],"type":"VEC3"},{"bufferView":12,"componentType":5126,"count":27,"max":[1.1666666269302368],"min":[0.0833333358168602],"type":"SCALAR"},{"bufferView":13,"componentType":5126,"count":27,"max":[0.016752569004893303,0.009066188707947731,0.17415140569210052,1],"min":[-0.0835733711719513,-0.1123533844947815,-0.029194654896855354,0.9813507199287415],"type":"VEC4"},{"bufferView":14,"componentType":5126,"count":26,"max":[1.0833333730697632],"min":[0.0416666679084301],"type":"SCALAR"},{"bufferView":15,"componentType":5126,"count":26,"max":[0.038750000298023224,0.11625000089406967,-0.3018749952316284],"min":[-0.2874999940395355,-0.13750000298023224,-0.4375],"type":"VEC3"},{"bufferView":16,"componentType":5126,"count":24,"max":[1.0416666269302368],"min":[0.0833333358168602],"type":"SCALAR"},{"bufferView":17,"componentType":5126,"count":24,"max":[0.04132360592484474,0.03372834622859955,0.1330195814371109,1],"min":[-0.009326228871941566,-0.06484359502792358,-0.13024672865867615,0.9893221259117126],"type":"VEC4"},{"bufferView":18,"componentType":5126,"count":14,"max":[0.5833333134651184],"min":[0.0416666679084301],"type":"SCALAR"},{"bufferView":19,"componentType":5126,"count":14,"max":[0.09000000357627869,0.22499999403953552,-0.1875],"min":[-0.03750000149011612,0.2043749988079071,-0.1875],"type":"VEC3"},{"bufferView":20,"componentType":5126,"count":17,"max":[1.1666666269302368],"min":[0.5],"type":"SCALAR"},{"bufferView":21,"componentType":5126,"count":17,"max":[0.0011871670139953494,0.0037863398902118206,0.9979153275489807,1],"min":[-0.0097154276445508,-0.00017656569252721965,-0.9867668151855469,-0.9926354289054871],"type":"VEC4"},{"bufferView":22,"componentType":5126,"count":5,"max":[0.625],"min":[0.4583333432674408],"type":"SCALAR"},{"bufferView":23,"componentType":5126,"count":5,"max":[0,0.140625,-0.125],"min":[-0.1875,0.109375,-0.125],"type":"VEC3"}]}