{"asset":{"version":"2.0","generator":"Blockbench 4.9.3 glTF exporter"},"scenes":[{"nodes":[12],"name":"blockbench_export"}],"scene":0,"nodes":[{"translation":[0.375,-0.6875,0],"name":"RightHand"},{"translation":[-0.375,0.9125000000000003,-0.1875],"name":"R","children":[0]},{"translation":[0.078125,0.09375,0],"name":"bullet5"},{"translation":[0,0.078125,-0.875],"name":"bullet"},{"translation":[-0.00042724609375,-0.140625,0.125],"name":"bullet7","children":[2,3]},{"translation":[0,0.140625,-0.125],"name":"cylinder","children":[4]},{"translation":[0,0.12006766843464556,0.10014481082165105],"name":"hammer"},{"translation":[0,0.2250000000000003,-0.1875],"name":"m1892","children":[5,6]},{"translation":[0,-0.03750000000000031,-0.4375],"name":"bone","children":[1,7]},{"translation":[-0.375,-0.6875,0],"name":"LeftHand"},{"translation":[0.375,0.875,-0.625],"name":"l","children":[9]},{"translation":[0.5,0.3125,1.125],"name":"bone2","children":[8,10]},{"children":[11]}],"animations":[{"name":"reload_outro","samplers":[{"input":0,"output":1,"interpolation":"LINEAR"},{"input":2,"output":3,"interpolation":"LINEAR"},{"input":4,"output":5,"interpolation":"LINEAR"},{"input":6,"output":7,"interpolation":"LINEAR"},{"input":8,"output":9,"interpolation":"LINEAR"},{"input":10,"output":11,"interpolation":"LINEAR"},{"input":12,"output":13,"interpolation":"LINEAR"},{"input":14,"output":15,"interpolation":"LINEAR"},{"input":16,"output":17,"interpolation":"LINEAR"},{"input":18,"output":19,"interpolation":"LINEAR"},{"input":20,"output":21,"interpolation":"LINEAR"},{"input":22,"output":23,"interpolation":"LINEAR"},{"input":24,"output":25,"interpolation":"LINEAR"},{"input":26,"output":27,"interpolation":"LINEAR"},{"input":28,"output":29,"interpolation":"LINEAR"},{"input":30,"output":31,"interpolation":"LINEAR"},{"input":32,"output":33,"interpolation":"LINEAR"},{"input":34,"output":35,"interpolation":"LINEAR"},{"input":36,"output":37,"interpolation":"LINEAR"},{"input":38,"output":39,"interpolation":"LINEAR"}],"channels":[{"sampler":0,"target":{"node":1,"path":"rotation"}},{"sampler":1,"target":{"node":1,"path":"translation"}},{"sampler":2,"target":{"node":1,"path":"scale"}},{"sampler":3,"target":{"node":10,"path":"rotation"}},{"sampler":4,"target":{"node":10,"path":"translation"}},{"sampler":5,"target":{"node":10,"path":"scale"}},{"sampler":6,"target":{"node":8,"path":"rotation"}},{"sampler":7,"target":{"node":8,"path":"translation"}},{"sampler":8,"target":{"node":7,"path":"rotation"}},{"sampler":9,"target":{"node":7,"path":"translation"}},{"sampler":10,"target":{"node":5,"path":"rotation"}},{"sampler":11,"target":{"node":5,"path":"translation"}},{"sampler":12,"target":{"node":11,"path":"rotation"}},{"sampler":13,"target":{"node":11,"path":"translation"}},{"sampler":14,"target":{"node":3,"path":"rotation"}},{"sampler":15,"target":{"node":3,"path":"translation"}},{"sampler":16,"target":{"node":3,"path":"scale"}},{"sampler":17,"target":{"node":2,"path":"rotation"}},{"sampler":18,"target":{"node":2,"path":"translation"}},{"sampler":19,"target":{"node":2,"path":"scale"}}]}],"bufferViews":[{"buffer":0,"byteOffset":0,"byteLength":4},{"buffer":0,"byteOffset":4,"byteLength":16},{"buffer":0,"byteOffset":20,"byteLength":4},{"buffer":0,"byteOffset":24,"byteLength":12},{"buffer":0,"byteOffset":36,"byteLength":4},{"buffer":0,"byteOffset":40,"byteLength":12},{"buffer":0,"byteOffset":52,"byteLength":4},{"buffer":0,"byteOffset":56,"byteLength":16},{"buffer":0,"byteOffset":72,"byteLength":4},{"buffer":0,"byteOffset":76,"byteLength":12},{"buffer":0,"byteOffset":88,"byteLength":4},{"buffer":0,"byteOffset":92,"byteLength":12},{"buffer":0,"byteOffset":104,"byteLength":112},{"buffer":0,"byteOffset":216,"byteLength":448},{"buffer":0,"byteOffset":664,"byteLength":108},{"buffer":0,"byteOffset":772,"byteLength":324},{"buffer":0,"byteOffset":1096,"byteLength":100},{"buffer":0,"byteOffset":1196,"byteLength":400},{"buffer":0,"byteOffset":1596,"byteLength":96},{"buffer":0,"byteOffset":1692,"byteLength":288},{"buffer":0,"byteOffset":1980,"byteLength":84},{"buffer":0,"byteOffset":2064,"byteLength":336},{"buffer":0,"byteOffset":2400,"byteLength":64},{"buffer":0,"byteOffset":2464,"byteLength":192},{"buffer":0,"byteOffset":2656,"byteLength":4},{"buffer":0,"byteOffset":2660,"byteLength":16},{"buffer":0,"byteOffset":2676,"byteLength":4},{"buffer":0,"byteOffset":2680,"byteLength":12},{"buffer":0,"byteOffset":2692,"byteLength":4},{"buffer":0,"byteOffset":2696,"byteLength":16},{"buffer":0,"byteOffset":2712,"byteLength":4},{"buffer":0,"byteOffset":2716,"byteLength":12},{"buffer":0,"byteOffset":2728,"byteLength":4},{"buffer":0,"byteOffset":2732,"byteLength":12},{"buffer":0,"byteOffset":2744,"byteLength":4},{"buffer":0,"byteOffset":2748,"byteLength":16},{"buffer":0,"byteOffset":2764,"byteLength":4},{"buffer":0,"byteOffset":2768,"byteLength":12},{"buffer":0,"byteOffset":2780,"byteLength":4},{"buffer":0,"byteOffset":2784,"byteLength":12}],"buffers":[{"byteLength":2796,"uri":"data:application/octet-stream;base64,"}],"accessors":[{"bufferView":0,"componentType":5126,"count":1,"max":[0.0416666679084301],"min":[0.0416666679084301],"type":"SCALAR"},{"bufferView":1,"componentType":5126,"count":1,"max":[-0.0013565137051045895,0.7372760772705078,-0.675588846206665,0.001361378701403737],"min":[-0.0013565137051045895,0.7372760772705078,-0.675588846206665,0.001361378701403737],"type":"VEC4"},{"bufferView":2,"componentType":5126,"count":1,"max":[0.0416666679084301],"min":[0.0416666679084301],"type":"SCALAR"},{"bufferView":3,"componentType":5126,"count":1,"max":[0.0625,-0.02500000037252903,-0.0625],"min":[0.0625,-0.02500000037252903,-0.0625],"type":"VEC3"},{"bufferView":4,"componentType":5126,"count":1,"max":[0],"min":[0],"type":"SCALAR"},{"bufferView":5,"componentType":5126,"count":1,"max":[1.75,2,1.75],"min":[1.75,2,1.75],"type":"VEC3"},{"bufferView":6,"componentType":5126,"count":1,"max":[0.0416666679084301],"min":[0.0416666679084301],"type":"SCALAR"},{"bufferView":7,"componentType":5126,"count":1,"max":[-0.49872279167175293,0.3177134692668915,-0.6801349520683289,0.43330147862434387],"min":[-0.49872279167175293,0.3177134692668915,-0.6801349520683289,0.43330147862434387],"type":"VEC4"},{"bufferView":8,"componentType":5126,"count":1,"max":[0.0416666679084301],"min":[0.0416666679084301],"type":"SCALAR"},{"bufferView":9,"componentType":5126,"count":1,"max":[-0.8125,-0.8125,-0.5],"min":[-0.8125,-0.8125,-0.5],"type":"VEC3"},{"bufferView":10,"componentType":5126,"count":1,"max":[0],"min":[0],"type":"SCALAR"},{"bufferView":11,"componentType":5126,"count":1,"max":[1.75,2,1.75],"min":[1.75,2,1.75],"type":"VEC3"},{"bufferView":12,"componentType":5126,"count":28,"max":[1.1666666269302368],"min":[0.0416666679084301],"type":"SCALAR"},{"bufferView":13,"componentType":5126,"count":28,"max":[0.022397322580218315,0,0.06504370272159576,1],"min":[-0.11032062023878098,-0.11596008390188217,-0.05205599591135979,0.9914948344230652],"type":"VEC4"},{"bufferView":14,"componentType":5126,"count":27,"max":[1.125],"min":[0.0416666679084301],"type":"SCALAR"},{"bufferView":15,"componentType":5126,"count":27,"max":[0,0.171875,-0.3018749952316284],"min":[-0.22812500596046448,-0.05312500149011612,-0.4375],"type":"VEC3"},{"bufferView":16,"componentType":5126,"count":25,"max":[1.0416666269302368],"min":[0.0416666679084301],"type":"SCALAR"},{"bufferView":17,"componentType":5126,"count":25,"max":[0.07662656903266907,0.06853141635656357,0.06494814157485962,1],"min":[-0.007683735340833664,0,-0.12170237302780151,0.9902691841125488],"type":"VEC4"},{"bufferView":18,"componentType":5126,"count":24,"max":[1],"min":[0.0416666679084301],"type":"SCALAR"},{"bufferView":19,"componentType":5126,"count":24,"max":[0.008750000037252903,0.22499999403953552,-0.18687500059604645],"min":[-0.04062499850988388,0.20937499403953552,-0.19750000536441803],"type":"VEC3"},{"bufferView":20,"componentType":5126,"count":21,"max":[0.875],"min":[0.0416666679084301],"type":"SCALAR"},{"bufferView":21,"componentType":5126,"count":21,"max":[0.008020981214940548,0.009282143786549568,0.9998563528060913,1],"min":[-0.00671615544706583,-0.005884460639208555,-0.9798570275306702,-0.9298024773597717],"type":"VEC4"},{"bufferView":22,"componentType":5126,"count":16,"max":[0.6666666865348816],"min":[0.0416666679084301],"type":"SCALAR"},{"bufferView":23,"componentType":5126,"count":16,"max":[0,0.140625,-0.125],"min":[-0.1875,0.109375,-0.125],"type":"VEC3"},{"bufferView":24,"componentType":5126,"count":1,"max":[0.0416666679084301],"min":[0.0416666679084301],"type":"SCALAR"},{"bufferView":25,"componentType":5126,"count":1,"max":[0,0,0,1],"min":[0,0,0,1],"type":"VEC4"},{"bufferView":26,"componentType":5126,"count":1,"max":[0.0416666679084301],"min":[0.0416666679084301],"type":"SCALAR"},{"bufferView":27,"componentType":5126,"count":1,"max":[0.5,0.3125,1.125],"min":[0.5,0.3125,1.125],"type":"VEC3"},{"bufferView":28,"componentType":5126,"count":1,"max":[0.0416666679084301],"min":[0.0416666679084301],"type":"SCALAR"},{"bufferView":29,"componentType":5126,"count":1,"max":[-0.36243805289268494,0,0,0.9320078492164612],"min":[-0.36243805289268494,0,0,0.9320078492164612],"type":"VEC4"},{"bufferView":30,"componentType":5126,"count":1,"max":[0.0416666679084301],"min":[0.0416666679084301],"type":"SCALAR"},{"bufferView":31,"componentType":5126,"count":1,"max":[-0.0625,1.140625,-0.0625],"min":[-0.0625,1.140625,-0.0625],"type":"VEC3"},{"bufferView":32,"componentType":5126,"count":1,"max":[0.0416666679084301],"min":[0.0416666679084301],"type":"SCALAR"},{"bufferView":33,"componentType":5126,"count":1,"max":[0,0,0],"min":[0,0,0],"type":"VEC3"},{"bufferView":34,"componentType":5126,"count":1,"max":[0.0416666679084301],"min":[0.0416666679084301],"type":"SCALAR"},{"bufferView":35,"componentType":5126,"count":1,"max":[0,0,0,1],"min":[0,0,0,1],"type":"VEC4"},{"bufferView":36,"componentType":5126,"count":1,"max":[0.0416666679084301],"min":[0.0416666679084301],"type":"SCALAR"},{"bufferView":37,"componentType":5126,"count":1,"max":[0.078125,0.09375,0],"min":[0.078125,0.09375,0],"type":"VEC3"},{"bufferView":38,"componentType":5126,"count":1,"max":[0.0416666679084301],"min":[0.0416666679084301],"type":"SCALAR"},{"bufferView":39,"componentType":5126,"count":1,"max":[1,1,1],"min":[1,1,1],"type":"VEC3"}]}