{"asset":{"version":"2.0","generator":"Blockbench 4.9.3 glTF exporter"},"scenes":[{"nodes":[12],"name":"blockbench_export"}],"scene":0,"nodes":[{"translation":[0.375,-0.6875,0],"name":"RightHand"},{"translation":[-0.375,0.9125000000000003,-0.1875],"name":"R","children":[0]},{"translation":[0.078125,0.09375,0],"name":"bullet5"},{"translation":[0,0.078125,-0.875],"name":"bullet"},{"translation":[-0.00042724609375,-0.140625,0.125],"name":"bullet7","children":[2,3]},{"translation":[0,0.140625,-0.125],"name":"cylinder","children":[4]},{"translation":[0,0.12006766843464556,0.10014481082165105],"name":"hammer"},{"translation":[0,0.2250000000000003,-0.1875],"name":"m1892","children":[5,6]},{"translation":[0,-0.03750000000000031,-0.4375],"name":"bone","children":[1,7]},{"translation":[-0.375,-0.6875,0],"name":"LeftHand"},{"translation":[0.375,0.875,-0.625],"name":"l","children":[9]},{"translation":[0.5,0.3125,1.125],"name":"bone2","children":[8,10]},{"children":[11]}],"animations":[{"name":"reload_loop","samplers":[{"input":0,"output":1,"interpolation":"LINEAR"},{"input":2,"output":3,"interpolation":"LINEAR"},{"input":4,"output":5,"interpolation":"LINEAR"},{"input":6,"output":7,"interpolation":"LINEAR"},{"input":8,"output":9,"interpolation":"LINEAR"},{"input":10,"output":11,"interpolation":"LINEAR"},{"input":12,"output":13,"interpolation":"LINEAR"},{"input":14,"output":15,"interpolation":"LINEAR"},{"input":16,"output":17,"interpolation":"LINEAR"},{"input":18,"output":19,"interpolation":"LINEAR"},{"input":20,"output":21,"interpolation":"LINEAR"},{"input":22,"output":23,"interpolation":"LINEAR"},{"input":24,"output":25,"interpolation":"LINEAR"},{"input":26,"output":27,"interpolation":"LINEAR"},{"input":28,"output":29,"interpolation":"LINEAR"},{"input":30,"output":31,"interpolation":"LINEAR"},{"input":32,"output":33,"interpolation":"LINEAR"},{"input":34,"output":35,"interpolation":"LINEAR"},{"input":36,"output":37,"interpolation":"LINEAR"},{"input":38,"output":39,"interpolation":"LINEAR"}],"channels":[{"sampler":0,"target":{"node":1,"path":"rotation"}},{"sampler":1,"target":{"node":1,"path":"translation"}},{"sampler":2,"target":{"node":1,"path":"scale"}},{"sampler":3,"target":{"node":10,"path":"rotation"}},{"sampler":4,"target":{"node":10,"path":"translation"}},{"sampler":5,"target":{"node":10,"path":"scale"}},{"sampler":6,"target":{"node":8,"path":"rotation"}},{"sampler":7,"target":{"node":8,"path":"translation"}},{"sampler":8,"target":{"node":7,"path":"rotation"}},{"sampler":9,"target":{"node":7,"path":"translation"}},{"sampler":10,"target":{"node":5,"path":"rotation"}},{"sampler":11,"target":{"node":5,"path":"translation"}},{"sampler":12,"target":{"node":11,"path":"rotation"}},{"sampler":13,"target":{"node":11,"path":"translation"}},{"sampler":14,"target":{"node":3,"path":"rotation"}},{"sampler":15,"target":{"node":3,"path":"translation"}},{"sampler":16,"target":{"node":3,"path":"scale"}},{"sampler":17,"target":{"node":2,"path":"rotation"}},{"sampler":18,"target":{"node":2,"path":"translation"}},{"sampler":19,"target":{"node":2,"path":"scale"}}]}],"bufferViews":[{"buffer":0,"byteOffset":0,"byteLength":4},{"buffer":0,"byteOffset":4,"byteLength":16},{"buffer":0,"byteOffset":20,"byteLength":4},{"buffer":0,"byteOffset":24,"byteLength":12},{"buffer":0,"byteOffset":36,"byteLength":4},{"buffer":0,"byteOffset":40,"byteLength":12},{"buffer":0,"byteOffset":52,"byteLength":172},{"buffer":0,"byteOffset":224,"byteLength":688},{"buffer":0,"byteOffset":912,"byteLength":168},{"buffer":0,"byteOffset":1080,"byteLength":504},{"buffer":0,"byteOffset":1584,"byteLength":4},{"buffer":0,"byteOffset":1588,"byteLength":12},{"buffer":0,"byteOffset":1600,"byteLength":4},{"buffer":0,"byteOffset":1604,"byteLength":16},{"buffer":0,"byteOffset":1620,"byteLength":4},{"buffer":0,"byteOffset":1624,"byteLength":12},{"buffer":0,"byteOffset":1636,"byteLength":148},{"buffer":0,"byteOffset":1784,"byteLength":592},{"buffer":0,"byteOffset":2376,"byteLength":4},{"buffer":0,"byteOffset":2380,"byteLength":12},{"buffer":0,"byteOffset":2392,"byteLength":136},{"buffer":0,"byteOffset":2528,"byteLength":544},{"buffer":0,"byteOffset":3072,"byteLength":4},{"buffer":0,"byteOffset":3076,"byteLength":12},{"buffer":0,"byteOffset":3088,"byteLength":168},{"buffer":0,"byteOffset":3256,"byteLength":672},{"buffer":0,"byteOffset":3928,"byteLength":168},{"buffer":0,"byteOffset":4096,"byteLength":504},{"buffer":0,"byteOffset":4600,"byteLength":128},{"buffer":0,"byteOffset":4728,"byteLength":512},{"buffer":0,"byteOffset":5240,"byteLength":128},{"buffer":0,"byteOffset":5368,"byteLength":384},{"buffer":0,"byteOffset":5752,"byteLength":124},{"buffer":0,"byteOffset":5876,"byteLength":372},{"buffer":0,"byteOffset":6248,"byteLength":84},{"buffer":0,"byteOffset":6332,"byteLength":336},{"buffer":0,"byteOffset":6668,"byteLength":84},{"buffer":0,"byteOffset":6752,"byteLength":252},{"buffer":0,"byteOffset":7004,"byteLength":36},{"buffer":0,"byteOffset":7040,"byteLength":108}],"buffers":[{"byteLength":7148,"uri":"data:application/octet-stream;base64,"}],"accessors":[{"bufferView":0,"componentType":5126,"count":1,"max":[0.0416666679084301],"min":[0.0416666679084301],"type":"SCALAR"},{"bufferView":1,"componentType":5126,"count":1,"max":[-0.0013565137051045895,0.7372760772705078,-0.675588846206665,0.001361378701403737],"min":[-0.0013565137051045895,0.7372760772705078,-0.675588846206665,0.001361378701403737],"type":"VEC4"},{"bufferView":2,"componentType":5126,"count":1,"max":[0.0416666679084301],"min":[0.0416666679084301],"type":"SCALAR"},{"bufferView":3,"componentType":5126,"count":1,"max":[0.0625,-0.02500000037252903,-0.0625],"min":[0.0625,-0.02500000037252903,-0.0625],"type":"VEC3"},{"bufferView":4,"componentType":5126,"count":1,"max":[0],"min":[0],"type":"SCALAR"},{"bufferView":5,"componentType":5126,"count":1,"max":[1.75,2,1.75],"min":[1.75,2,1.75],"type":"VEC3"},{"bufferView":6,"componentType":5126,"count":43,"max":[1.7916666269302368],"min":[0.0416666679084301],"type":"SCALAR"},{"bufferView":7,"componentType":5126,"count":43,"max":[0.21950991451740265,0.9322133660316467,-0.2976383566856384,0.43330147862434387],"min":[-0.49872279167175293,0.3177134692668915,-0.7534638047218323,-0.01677819713950157],"type":"VEC4"},{"bufferView":8,"componentType":5126,"count":42,"max":[1.75],"min":[0.0416666679084301],"type":"SCALAR"},{"bufferView":9,"componentType":5126,"count":42,"max":[-0.7012500166893005,0.46437498927116394,-0.3725000023841858],"min":[-0.8125,-0.8125,-0.6943749785423279],"type":"VEC3"},{"bufferView":10,"componentType":5126,"count":1,"max":[0],"min":[0],"type":"SCALAR"},{"bufferView":11,"componentType":5126,"count":1,"max":[1.75,2,1.75],"min":[1.75,2,1.75],"type":"VEC3"},{"bufferView":12,"componentType":5126,"count":1,"max":[0.0416666679084301],"min":[0.0416666679084301],"type":"SCALAR"},{"bufferView":13,"componentType":5126,"count":1,"max":[-0.04686187207698822,-0.03972068056464195,0.023497624322772026,0.9978346824645996],"min":[-0.04686187207698822,-0.03972068056464195,0.023497624322772026,0.9978346824645996],"type":"VEC4"},{"bufferView":14,"componentType":5126,"count":1,"max":[0.0416666679084301],"min":[0.0416666679084301],"type":"SCALAR"},{"bufferView":15,"componentType":5126,"count":1,"max":[-0.1912499964237213,0.06187500059604645,-0.3018749952316284],"min":[-0.1912499964237213,0.06187500059604645,-0.3018749952316284],"type":"VEC3"},{"bufferView":16,"componentType":5126,"count":37,"max":[1.5416666269302368],"min":[0.0416666679084301],"type":"SCALAR"},{"bufferView":17,"componentType":5126,"count":37,"max":[0.02700919657945633,0.033900752663612366,0.0685984417796135,0.9992285966873169],"min":[0.006682589650154114,0.02984745055437088,-0.025662008672952652,0.997175395488739],"type":"VEC4"},{"bufferView":18,"componentType":5126,"count":1,"max":[0.0416666679084301],"min":[0.0416666679084301],"type":"SCALAR"},{"bufferView":19,"componentType":5126,"count":1,"max":[-0.03750000149011612,0.21312500536441803,-0.1875],"min":[-0.03750000149011612,0.21312500536441803,-0.1875],"type":"VEC3"},{"bufferView":20,"componentType":5126,"count":34,"max":[1.4166666269302368],"min":[0.0416666679084301],"type":"SCALAR"},{"bufferView":21,"componentType":5126,"count":34,"max":[-0.006191677413880825,0.007165061309933662,-0.9355034232139587,0.35318103432655334],"min":[-0.0097154276445508,0.0009630664135329425,-0.9978257417678833,-0.1618502140045166],"type":"VEC4"},{"bufferView":22,"componentType":5126,"count":1,"max":[0.0416666679084301],"min":[0.0416666679084301],"type":"SCALAR"},{"bufferView":23,"componentType":5126,"count":1,"max":[-0.1875,0.109375,-0.125],"min":[-0.1875,0.109375,-0.125],"type":"VEC3"},{"bufferView":24,"componentType":5126,"count":42,"max":[1.7916666269302368],"min":[0.0833333358168602],"type":"SCALAR"},{"bufferView":25,"componentType":5126,"count":42,"max":[0.07127481698989868,0.030575724318623543,0.050894685089588165,1],"min":[0,0,-0.01612776890397072,0.9968624114990234],"type":"VEC4"},{"bufferView":26,"componentType":5126,"count":42,"max":[1.75],"min":[0.0416666679084301],"type":"SCALAR"},{"bufferView":27,"componentType":5126,"count":42,"max":[0.5,0.3343749940395355,1.1706249713897705],"min":[0.5,0.3006249964237213,1.0981249809265137],"type":"VEC3"},{"bufferView":28,"componentType":5126,"count":32,"max":[1.3333333730697632],"min":[0.0416666679084301],"type":"SCALAR"},{"bufferView":29,"componentType":5126,"count":32,"max":[0,0.08559615164995193,0,1],"min":[-0.36243805289268494,0,-0.051383260637521744,0.9320078492164612],"type":"VEC4"},{"bufferView":30,"componentType":5126,"count":32,"max":[1.3333333730697632],"min":[0.0416666679084301],"type":"SCALAR"},{"bufferView":31,"componentType":5126,"count":32,"max":[0.13750000298023224,1.140625,0.2487500011920929],"min":[-0.0625,0.04500000178813934,-0.07000000029802322],"type":"VEC3"},{"bufferView":32,"componentType":5126,"count":31,"max":[1.2916666269302368],"min":[0.0416666679084301],"type":"SCALAR"},{"bufferView":33,"componentType":5126,"count":31,"max":[1,1,1],"min":[0,0,0],"type":"VEC3"},{"bufferView":34,"componentType":5126,"count":21,"max":[1.2916666269302368],"min":[0.4583333432674408],"type":"SCALAR"},{"bufferView":35,"componentType":5126,"count":21,"max":[0.8009363412857056,0.21660488843917847,0.5059090852737427,1],"min":[-0.06501273065805435,-0.0620281845331192,-0.007142603397369385,0.23587968945503235],"type":"VEC4"},{"bufferView":36,"componentType":5126,"count":21,"max":[1.2916666269302368],"min":[0.4583333432674408],"type":"SCALAR"},{"bufferView":37,"componentType":5126,"count":21,"max":[0.11812499910593033,1.1818749904632568,0.25],"min":[-0.2331250011920929,0.09375,0],"type":"VEC3"},{"bufferView":38,"componentType":5126,"count":9,"max":[1.2916666269302368],"min":[0.9583333134651184],"type":"SCALAR"},{"bufferView":39,"componentType":5126,"count":9,"max":[1,1,1],"min":[0,0,0],"type":"VEC3"}]}