{"asset":{"version":"2.0","generator":"Blockbench 4.9.3 glTF exporter"},"scenes":[{"nodes":[9],"name":"blockbench_export"}],"scene":0,"nodes":[{"translation":[0.375,-0.6875,0],"name":"RightHand"},{"translation":[-0.375,0.4125000000000003,-0.9375],"name":"R","children":[0]},{"translation":[0,0.54296875,0.5],"name":"bolt"},{"translation":[0.00035653813427150016,0.2820876900894428,0.4767973494555767],"name":"magazine"},{"translation":[0,-0.2749999999999997,-0.9375],"name":"m200","children":[2,3]},{"translation":[0,-0.03750000000000031,0.015625],"name":"bone","children":[1,4]},{"translation":[-0.375,-0.6875,0],"name":"LeftHand"},{"translation":[0.375,0.375,-0.921875],"name":"l","children":[6]},{"translation":[0.5,0.8125,1.421875],"name":"bone2","children":[5,7]},{"children":[8]}],"animations":[{"name":"bolt","samplers":[{"input":0,"output":1,"interpolation":"LINEAR"},{"input":2,"output":3,"interpolation":"LINEAR"},{"input":4,"output":5,"interpolation":"LINEAR"},{"input":6,"output":7,"interpolation":"LINEAR"},{"input":8,"output":9,"interpolation":"LINEAR"},{"input":10,"output":11,"interpolation":"LINEAR"},{"input":12,"output":13,"interpolation":"LINEAR"},{"input":14,"output":15,"interpolation":"LINEAR"},{"input":16,"output":17,"interpolation":"LINEAR"},{"input":18,"output":19,"interpolation":"LINEAR"},{"input":20,"output":21,"interpolation":"LINEAR"},{"input":22,"output":23,"interpolation":"LINEAR"}],"channels":[{"sampler":0,"target":{"node":1,"path":"rotation"}},{"sampler":1,"target":{"node":1,"path":"translation"}},{"sampler":2,"target":{"node":1,"path":"scale"}},{"sampler":3,"target":{"node":7,"path":"rotation"}},{"sampler":4,"target":{"node":7,"path":"translation"}},{"sampler":5,"target":{"node":7,"path":"scale"}},{"sampler":6,"target":{"node":8,"path":"rotation"}},{"sampler":7,"target":{"node":8,"path":"translation"}},{"sampler":8,"target":{"node":5,"path":"rotation"}},{"sampler":9,"target":{"node":5,"path":"translation"}},{"sampler":10,"target":{"node":2,"path":"rotation"}},{"sampler":11,"target":{"node":2,"path":"translation"}}]}],"bufferViews":[{"buffer":0,"byteOffset":0,"byteLength":92},{"buffer":0,"byteOffset":92,"byteLength":368},{"buffer":0,"byteOffset":460,"byteLength":92},{"buffer":0,"byteOffset":552,"byteLength":276},{"buffer":0,"byteOffset":828,"byteLength":4},{"buffer":0,"byteOffset":832,"byteLength":12},{"buffer":0,"byteOffset":844,"byteLength":4},{"buffer":0,"byteOffset":848,"byteLength":16},{"buffer":0,"byteOffset":864,"byteLength":4},{"buffer":0,"byteOffset":868,"byteLength":12},{"buffer":0,"byteOffset":880,"byteLength":4},{"buffer":0,"byteOffset":884,"byteLength":12},{"buffer":0,"byteOffset":896,"byteLength":92},{"buffer":0,"byteOffset":988,"byteLength":368},{"buffer":0,"byteOffset":1356,"byteLength":92},{"buffer":0,"byteOffset":1448,"byteLength":276},{"buffer":0,"byteOffset":1724,"byteLength":4},{"buffer":0,"byteOffset":1728,"byteLength":16},{"buffer":0,"byteOffset":1744,"byteLength":4},{"buffer":0,"byteOffset":1748,"byteLength":12},{"buffer":0,"byteOffset":1760,"byteLength":52},{"buffer":0,"byteOffset":1812,"byteLength":208},{"buffer":0,"byteOffset":2020,"byteLength":32},{"buffer":0,"byteOffset":2052,"byteLength":96}],"buffers":[{"byteLength":2148,"uri":"data:application/octet-stream;base64,"}],"accessors":[{"bufferView":0,"componentType":5126,"count":23,"max":[1],"min":[0.0833333358168602],"type":"SCALAR"},{"bufferView":1,"componentType":5126,"count":23,"max":[0.34422755241394043,-0.7303095459938049,0.678154706954956,0.03203069791197777],"min":[0.029608871787786484,-0.8498486280441284,0.20252175629138947,-0.5254044532775879],"type":"VEC4"},{"bufferView":2,"componentType":5126,"count":23,"max":[0.9583333134651184],"min":[0.0416666679084301],"type":"SCALAR"},{"bufferView":3,"componentType":5126,"count":23,"max":[0.24375000596046448,0.3668749928474426,0.08062499761581421],"min":[0.015625,0.0062500000931322575,-0.2318750023841858],"type":"VEC3"},{"bufferView":4,"componentType":5126,"count":1,"max":[0],"min":[0],"type":"SCALAR"},{"bufferView":5,"componentType":5126,"count":1,"max":[1,1.5,1],"min":[1,1.5,1],"type":"VEC3"},{"bufferView":6,"componentType":5126,"count":1,"max":[0],"min":[0],"type":"SCALAR"},{"bufferView":7,"componentType":5126,"count":1,"max":[-0.3062918782234192,0.57386314868927,-0.6031912565231323,0.4615481197834015],"min":[-0.3062918782234192,0.57386314868927,-0.6031912565231323,0.4615481197834015],"type":"VEC4"},{"bufferView":8,"componentType":5126,"count":1,"max":[0],"min":[0],"type":"SCALAR"},{"bufferView":9,"componentType":5126,"count":1,"max":[-0.03125,0,-0.8125],"min":[-0.03125,0,-0.8125],"type":"VEC3"},{"bufferView":10,"componentType":5126,"count":1,"max":[0],"min":[0],"type":"SCALAR"},{"bufferView":11,"componentType":5126,"count":1,"max":[1,1.5,1],"min":[1,1.5,1],"type":"VEC3"},{"bufferView":12,"componentType":5126,"count":23,"max":[1],"min":[0.0833333358168602],"type":"SCALAR"},{"bufferView":13,"componentType":5126,"count":23,"max":[0.14741478860378265,0.011010425165295601,0.17538303136825562,1],"min":[-0.00640079053118825,-0.00458954693749547,-0.006833051797002554,0.9783957600593567],"type":"VEC4"},{"bufferView":14,"componentType":5126,"count":23,"max":[0.9583333134651184],"min":[0.0416666679084301],"type":"SCALAR"},{"bufferView":15,"componentType":5126,"count":23,"max":[0.5,0.8306249976158142,1.4793750047683716],"min":[0.5,0.7918750047683716,1.4018750190734863],"type":"VEC3"},{"bufferView":16,"componentType":5126,"count":1,"max":[0.0416666679084301],"min":[0.0416666679084301],"type":"SCALAR"},{"bufferView":17,"componentType":5126,"count":1,"max":[0,0,0,1],"min":[0,0,0,1],"type":"VEC4"},{"bufferView":18,"componentType":5126,"count":1,"max":[0.0416666679084301],"min":[0.0416666679084301],"type":"SCALAR"},{"bufferView":19,"componentType":5126,"count":1,"max":[0,-0.03750000149011612,0.015625],"min":[0,-0.03750000149011612,0.015625],"type":"VEC3"},{"bufferView":20,"componentType":5126,"count":13,"max":[0.7916666865348816],"min":[0.2916666567325592],"type":"SCALAR"},{"bufferView":21,"componentType":5126,"count":13,"max":[0,0,0.4809887707233429,1],"min":[0,0,0,0.8767267465591431],"type":"VEC4"},{"bufferView":22,"componentType":5126,"count":8,"max":[0.7083333134651184],"min":[0.4166666567325592],"type":"SCALAR"},{"bufferView":23,"componentType":5126,"count":8,"max":[0,0.54296875,0.75],"min":[0,0.54296875,0.5],"type":"VEC3"}]}