{"asset":{"version":"2.0","generator":"Blockbench 4.9.3 glTF exporter"},"scenes":[{"nodes":[9],"name":"blockbench_export"}],"scene":0,"nodes":[{"translation":[0.375,-0.6875,0],"name":"RightHand"},{"translation":[-0.375,0.4125000000000003,-0.9375],"name":"R","children":[0]},{"translation":[0,0.54296875,0.5],"name":"bolt"},{"translation":[0.00035653813427150016,0.2820876900894428,0.4767973494555767],"name":"magazine"},{"translation":[0,-0.2749999999999997,-0.9375],"name":"m200","children":[2,3]},{"translation":[0,-0.03750000000000031,0.015625],"name":"bone","children":[1,4]},{"translation":[-0.375,-0.6875,0],"name":"LeftHand"},{"translation":[0.375,0.375,-0.921875],"name":"l","children":[6]},{"translation":[0.5,0.8125,1.421875],"name":"bone2","children":[5,7]},{"children":[8]}],"animations":[{"name":"reload_empty","samplers":[{"input":0,"output":1,"interpolation":"LINEAR"},{"input":2,"output":3,"interpolation":"LINEAR"},{"input":4,"output":5,"interpolation":"LINEAR"},{"input":6,"output":7,"interpolation":"LINEAR"},{"input":8,"output":9,"interpolation":"LINEAR"},{"input":10,"output":11,"interpolation":"LINEAR"},{"input":12,"output":13,"interpolation":"LINEAR"},{"input":14,"output":15,"interpolation":"LINEAR"},{"input":16,"output":17,"interpolation":"LINEAR"},{"input":18,"output":19,"interpolation":"LINEAR"},{"input":20,"output":21,"interpolation":"LINEAR"},{"input":22,"output":23,"interpolation":"LINEAR"},{"input":24,"output":25,"interpolation":"LINEAR"},{"input":26,"output":27,"interpolation":"LINEAR"}],"channels":[{"sampler":0,"target":{"node":1,"path":"rotation"}},{"sampler":1,"target":{"node":1,"path":"translation"}},{"sampler":2,"target":{"node":1,"path":"scale"}},{"sampler":3,"target":{"node":7,"path":"rotation"}},{"sampler":4,"target":{"node":7,"path":"translation"}},{"sampler":5,"target":{"node":7,"path":"scale"}},{"sampler":6,"target":{"node":8,"path":"rotation"}},{"sampler":7,"target":{"node":8,"path":"translation"}},{"sampler":8,"target":{"node":5,"path":"rotation"}},{"sampler":9,"target":{"node":5,"path":"translation"}},{"sampler":10,"target":{"node":3,"path":"rotation"}},{"sampler":11,"target":{"node":3,"path":"translation"}},{"sampler":12,"target":{"node":2,"path":"rotation"}},{"sampler":13,"target":{"node":2,"path":"translation"}}]}],"bufferViews":[{"buffer":0,"byteOffset":0,"byteLength":132},{"buffer":0,"byteOffset":132,"byteLength":528},{"buffer":0,"byteOffset":660,"byteLength":132},{"buffer":0,"byteOffset":792,"byteLength":396},{"buffer":0,"byteOffset":1188,"byteLength":4},{"buffer":0,"byteOffset":1192,"byteLength":12},{"buffer":0,"byteOffset":1204,"byteLength":308},{"buffer":0,"byteOffset":1512,"byteLength":1232},{"buffer":0,"byteOffset":2744,"byteLength":308},{"buffer":0,"byteOffset":3052,"byteLength":924},{"buffer":0,"byteOffset":3976,"byteLength":4},{"buffer":0,"byteOffset":3980,"byteLength":12},{"buffer":0,"byteOffset":3992,"byteLength":504},{"buffer":0,"byteOffset":4496,"byteLength":2016},{"buffer":0,"byteOffset":6512,"byteLength":504},{"buffer":0,"byteOffset":7016,"byteLength":1512},{"buffer":0,"byteOffset":8528,"byteLength":308},{"buffer":0,"byteOffset":8836,"byteLength":1232},{"buffer":0,"byteOffset":10068,"byteLength":308},{"buffer":0,"byteOffset":10376,"byteLength":924},{"buffer":0,"byteOffset":11300,"byteLength":120},{"buffer":0,"byteOffset":11420,"byteLength":480},{"buffer":0,"byteOffset":11900,"byteLength":120},{"buffer":0,"byteOffset":12020,"byteLength":360},{"buffer":0,"byteOffset":12380,"byteLength":64},{"buffer":0,"byteOffset":12444,"byteLength":256},{"buffer":0,"byteOffset":12700,"byteLength":44},{"buffer":0,"byteOffset":12744,"byteLength":132}],"buffers":[{"byteLength":12876,"uri":"data:application/octet-stream;base64,"}],"accessors":[{"bufferView":0,"componentType":5126,"count":33,"max":[4.708333492279053],"min":[3.375],"type":"SCALAR"},{"bufferView":1,"componentType":5126,"count":33,"max":[0.029608871787786484,-0.7336236238479614,0.678154706954956,0.25622284412384033],"min":[-0.16304519772529602,-0.9369202852249146,0.27062657475471497,0.03203069791197777],"type":"VEC4"},{"bufferView":2,"componentType":5126,"count":33,"max":[4.666666507720947],"min":[3.3333332538604736],"type":"SCALAR"},{"bufferView":3,"componentType":5126,"count":33,"max":[0.2906250059604645,0.2574999928474426,0.203125],"min":[0.015625,-0.02187499962747097,-0.18687500059604645],"type":"VEC3"},{"bufferView":4,"componentType":5126,"count":1,"max":[0],"min":[0],"type":"SCALAR"},{"bufferView":5,"componentType":5126,"count":1,"max":[1,1.5,1],"min":[1,1.5,1],"type":"VEC3"},{"bufferView":6,"componentType":5126,"count":77,"max":[3.25],"min":[0.0833333358168602],"type":"SCALAR"},{"bufferView":7,"componentType":5126,"count":77,"max":[0.07248349487781525,0.8219627141952515,-0.32754969596862793,0.6433444619178772],"min":[-0.33636704087257385,0.57386314868927,-0.6133398413658142,0.30066022276878357],"type":"VEC4"},{"bufferView":8,"componentType":5126,"count":77,"max":[3.2083332538604736],"min":[0.0416666679084301],"type":"SCALAR"},{"bufferView":9,"componentType":5126,"count":77,"max":[-0.03125,0.5625,-0.4181250035762787],"min":[-0.784375011920929,-0.5287500023841858,-0.8125],"type":"VEC3"},{"bufferView":10,"componentType":5126,"count":1,"max":[0],"min":[0],"type":"SCALAR"},{"bufferView":11,"componentType":5126,"count":1,"max":[1,1.5,1],"min":[1,1.5,1],"type":"VEC3"},{"bufferView":12,"componentType":5126,"count":126,"max":[5.291666507720947],"min":[0.0833333358168602],"type":"SCALAR"},{"bufferView":13,"componentType":5126,"count":126,"max":[0.23216481506824493,0.018653640523552895,0.3709457516670227,1],"min":[-0.02332771010696888,-0.09095726907253265,-0.06265679001808167,0.9042875170707703],"type":"VEC4"},{"bufferView":14,"componentType":5126,"count":126,"max":[5.25],"min":[0.0416666679084301],"type":"SCALAR"},{"bufferView":15,"componentType":5126,"count":126,"max":[0.5218750238418579,0.8418750166893005,1.503749966621399],"min":[0.49812498688697815,0.7131249904632568,1.3762500286102295],"type":"VEC3"},{"bufferView":16,"componentType":5126,"count":77,"max":[3.25],"min":[0.0833333358168602],"type":"SCALAR"},{"bufferView":17,"componentType":5126,"count":77,"max":[0.3887219727039337,0.16155746579170227,0,1],"min":[0,0,-0.26723310351371765,0.8711851835250854],"type":"VEC4"},{"bufferView":18,"componentType":5126,"count":77,"max":[3.2083332538604736],"min":[0.0416666679084301],"type":"SCALAR"},{"bufferView":19,"componentType":5126,"count":77,"max":[0.013124999590218067,0.028750000521540642,0.015625],"min":[-0.0012499999720603228,-0.14937500655651093,-0.1237500011920929],"type":"VEC3"},{"bufferView":20,"componentType":5126,"count":30,"max":[2.0416667461395264],"min":[0.8333333134651184],"type":"SCALAR"},{"bufferView":21,"componentType":5126,"count":30,"max":[0,0,0.00007353760884143412,1],"min":[-0.22595025599002838,-0.17804309725761414,-0.10951857268810272,0.956981360912323],"type":"VEC4"},{"bufferView":22,"componentType":5126,"count":30,"max":[2],"min":[0.7916666865348816],"type":"SCALAR"},{"bufferView":23,"componentType":5126,"count":30,"max":[0.00035653813392855227,0.28208768367767334,0.9786723256111145],"min":[-0.5690184831619263,-0.5629122853279114,0.47679734230041504],"type":"VEC3"},{"bufferView":24,"componentType":5126,"count":16,"max":[4.291666507720947],"min":[3.6666667461395264],"type":"SCALAR"},{"bufferView":25,"componentType":5126,"count":16,"max":[0,0,0.36243805289268494,1],"min":[0,0,0,0.9320078492164612],"type":"VEC4"},{"bufferView":26,"componentType":5126,"count":11,"max":[4.208333492279053],"min":[3.7916667461395264],"type":"SCALAR"},{"bufferView":27,"componentType":5126,"count":11,"max":[0,0.54296875,0.8125],"min":[0,0.54296875,0.5],"type":"VEC3"}]}