{"asset":{"version":"2.0","generator":"Blockbench 4.8.3 glTF exporter"},"scenes":[{"nodes":[13],"name":"blockbench_export"}],"scene":0,"nodes":[{"translation":[0.375,-0.6875,0],"name":"RightHand"},{"translation":[-0.375,1.1000000000000003,0.8125],"name":"R","children":[0]},{"translation":[0,-0.21377357560520707,1.0010793585526314],"name":"cover_back"},{"translation":[-1.0425596802532411e-7,-0.2138308272592143,-0.9061911835259392],"name":"cover_front"},{"translation":[-9.376755665257974e-7,0.003478338602536324,-0.025347157837132928],"name":"rocket_handle_full"},{"translation":[8.905839932182857e-7,0.015647944174051576,1.775347157837133],"name":"rocket_full","children":[4]},{"translation":[4.737417600431115e-7,0.003455078855061189,0.04427083333333348],"name":"rocket_handle_empty"},{"translation":[-5.208333332951121e-7,0.01567120392152682,1.7057291666666665],"name":"rocket_empty","children":[6]},{"translation":[0,0.3500000000000003,0.3125],"name":"m202","children":[2,3,5,7]},{"translation":[0,0.02499999999999969,0],"name":"bone","children":[1,8]},{"translation":[-0.375,-0.6875,0],"name":"LeftHand"},{"translation":[0.375,1.125,0.8125],"name":"l","children":[10]},{"translation":[0.5,0.0625,-0.3125],"name":"bone2","children":[9,11]},{"children":[12]}],"animations":[{"name":"inspect","samplers":[{"input":0,"output":1,"interpolation":"LINEAR"},{"input":2,"output":3,"interpolation":"LINEAR"},{"input":4,"output":5,"interpolation":"LINEAR"},{"input":6,"output":7,"interpolation":"LINEAR"},{"input":8,"output":9,"interpolation":"LINEAR"},{"input":10,"output":11,"interpolation":"LINEAR"},{"input":12,"output":13,"interpolation":"LINEAR"},{"input":14,"output":15,"interpolation":"LINEAR"},{"input":16,"output":17,"interpolation":"LINEAR"},{"input":18,"output":19,"interpolation":"LINEAR"},{"input":20,"output":21,"interpolation":"LINEAR"},{"input":22,"output":23,"interpolation":"LINEAR"},{"input":24,"output":25,"interpolation":"LINEAR"},{"input":26,"output":27,"interpolation":"LINEAR"},{"input":28,"output":29,"interpolation":"LINEAR"},{"input":30,"output":31,"interpolation":"LINEAR"},{"input":32,"output":33,"interpolation":"LINEAR"},{"input":34,"output":35,"interpolation":"LINEAR"},{"input":36,"output":37,"interpolation":"LINEAR"},{"input":38,"output":39,"interpolation":"LINEAR"},{"input":40,"output":41,"interpolation":"LINEAR"}],"channels":[{"sampler":0,"target":{"node":12,"path":"rotation"}},{"sampler":1,"target":{"node":12,"path":"translation"}},{"sampler":2,"target":{"node":9,"path":"rotation"}},{"sampler":3,"target":{"node":9,"path":"translation"}},{"sampler":4,"target":{"node":1,"path":"rotation"}},{"sampler":5,"target":{"node":1,"path":"translation"}},{"sampler":6,"target":{"node":1,"path":"scale"}},{"sampler":7,"target":{"node":11,"path":"rotation"}},{"sampler":8,"target":{"node":11,"path":"translation"}},{"sampler":9,"target":{"node":11,"path":"scale"}},{"sampler":10,"target":{"node":2,"path":"rotation"}},{"sampler":11,"target":{"node":2,"path":"translation"}},{"sampler":12,"target":{"node":3,"path":"rotation"}},{"sampler":13,"target":{"node":3,"path":"translation"}},{"sampler":14,"target":{"node":5,"path":"rotation"}},{"sampler":15,"target":{"node":5,"path":"translation"}},{"sampler":16,"target":{"node":5,"path":"scale"}},{"sampler":17,"target":{"node":7,"path":"rotation"}},{"sampler":18,"target":{"node":7,"path":"translation"}},{"sampler":19,"target":{"node":6,"path":"rotation"}},{"sampler":20,"target":{"node":6,"path":"translation"}}]}],"bufferViews":[{"buffer":0,"byteOffset":0,"byteLength":48},{"buffer":0,"byteOffset":48,"byteLength":192},{"buffer":0,"byteOffset":240,"byteLength":44},{"buffer":0,"byteOffset":284,"byteLength":132},{"buffer":0,"byteOffset":416,"byteLength":20},{"buffer":0,"byteOffset":436,"byteLength":80},{"buffer":0,"byteOffset":516,"byteLength":16},{"buffer":0,"byteOffset":532,"byteLength":48},{"buffer":0,"byteOffset":580,"byteLength":4},{"buffer":0,"byteOffset":584,"byteLength":16},{"buffer":0,"byteOffset":600,"byteLength":4},{"buffer":0,"byteOffset":604,"byteLength":12},{"buffer":0,"byteOffset":616,"byteLength":4},{"buffer":0,"byteOffset":620,"byteLength":12},{"buffer":0,"byteOffset":632,"byteLength":40},{"buffer":0,"byteOffset":672,"byteLength":160},{"buffer":0,"byteOffset":832,"byteLength":28},{"buffer":0,"byteOffset":860,"byteLength":84},{"buffer":0,"byteOffset":944,"byteLength":4},{"buffer":0,"byteOffset":948,"byteLength":12},{"buffer":0,"byteOffset":960,"byteLength":4},{"buffer":0,"byteOffset":964,"byteLength":16},{"buffer":0,"byteOffset":980,"byteLength":4},{"buffer":0,"byteOffset":984,"byteLength":12},{"buffer":0,"byteOffset":996,"byteLength":28},{"buffer":0,"byteOffset":1024,"byteLength":112},{"buffer":0,"byteOffset":1136,"byteLength":4},{"buffer":0,"byteOffset":1140,"byteLength":12},{"buffer":0,"byteOffset":1152,"byteLength":4},{"buffer":0,"byteOffset":1156,"byteLength":16},{"buffer":0,"byteOffset":1172,"byteLength":4},{"buffer":0,"byteOffset":1176,"byteLength":12},{"buffer":0,"byteOffset":1188,"byteLength":4},{"buffer":0,"byteOffset":1192,"byteLength":12},{"buffer":0,"byteOffset":1204,"byteLength":4},{"buffer":0,"byteOffset":1208,"byteLength":16},{"buffer":0,"byteOffset":1224,"byteLength":4},{"buffer":0,"byteOffset":1228,"byteLength":12},{"buffer":0,"byteOffset":1240,"byteLength":4},{"buffer":0,"byteOffset":1244,"byteLength":16},{"buffer":0,"byteOffset":1260,"byteLength":4},{"buffer":0,"byteOffset":1264,"byteLength":12}],"buffers":[{"byteLength":1276,"uri":"data:application/octet-stream;base64,"}],"accessors":[{"bufferView":0,"componentType":5126,"count":12,"max":[3.2916667461395264],"min":[0.0416666679084301],"type":"SCALAR"},{"bufferView":1,"componentType":5126,"count":12,"max":[0.08884568512439728,0.12027265131473541,0.08845921605825424,1],"min":[0,-0.004363215994089842,-0.060196403414011,0.9867162108421326],"type":"VEC4"},{"bufferView":2,"componentType":5126,"count":11,"max":[3.2916667461395264],"min":[0.0416666679084301],"type":"SCALAR"},{"bufferView":3,"componentType":5126,"count":11,"max":[0.5,0.1628125011920929,-0.3125],"min":[0.49312499165534973,0.0625,-0.3232421875],"type":"VEC3"},{"bufferView":4,"componentType":5126,"count":5,"max":[3.2083332538604736],"min":[1.4166666269302368],"type":"SCALAR"},{"bufferView":5,"componentType":5126,"count":5,"max":[0,0.000526767282281071,0.010895529761910439,1],"min":[-0.04798661172389984,0,0,0.9987888336181641],"type":"VEC4"},{"bufferView":6,"componentType":5126,"count":4,"max":[3.2083332538604736],"min":[1.4166666269302368],"type":"SCALAR"},{"bufferView":7,"componentType":5126,"count":4,"max":[0,0.02500000037252903,0],"min":[0,0.0005859375232830644,0],"type":"VEC3"},{"bufferView":8,"componentType":5126,"count":1,"max":[0.0416666679084301],"min":[0.0416666679084301],"type":"SCALAR"},{"bufferView":9,"componentType":5126,"count":1,"max":[-0.10853659361600876,0.7682955861091614,-0.6285067200660706,-0.05404657498002052],"min":[-0.10853659361600876,0.7682955861091614,-0.6285067200660706,-0.05404657498002052],"type":"VEC4"},{"bufferView":10,"componentType":5126,"count":1,"max":[0.0416666679084301],"min":[0.0416666679084301],"type":"SCALAR"},{"bufferView":11,"componentType":5126,"count":1,"max":[0.017578125,-0.01523437537252903,0],"min":[0.017578125,-0.01523437537252903,0],"type":"VEC3"},{"bufferView":12,"componentType":5126,"count":1,"max":[0.0416666679084301],"min":[0.0416666679084301],"type":"SCALAR"},{"bufferView":13,"componentType":5126,"count":1,"max":[1,1.5,1],"min":[1,1.5,1],"type":"VEC3"},{"bufferView":14,"componentType":5126,"count":10,"max":[3.2083332538604736],"min":[0.0416666679084301],"type":"SCALAR"},{"bufferView":15,"componentType":5126,"count":10,"max":[0.111660897731781,0.9119493961334229,-0.3227148652076721,0.49889007210731506],"min":[-0.01406314130872488,0.7296497225761414,-0.4882012605667114,0.14978520572185516],"type":"VEC4"},{"bufferView":16,"componentType":5126,"count":7,"max":[3.2083332538604736],"min":[0.0416666679084301],"type":"SCALAR"},{"bufferView":17,"componentType":5126,"count":7,"max":[-0.23417969048023224,0.2666015625,0.10640624910593033],"min":[-0.3251953125,0.10062500089406967,-0.06937500089406967],"type":"VEC3"},{"bufferView":18,"componentType":5126,"count":1,"max":[0.0416666679084301],"min":[0.0416666679084301],"type":"SCALAR"},{"bufferView":19,"componentType":5126,"count":1,"max":[1,1.5,1],"min":[1,1.5,1],"type":"VEC3"},{"bufferView":20,"componentType":5126,"count":1,"max":[0.0416666679084301],"min":[0.0416666679084301],"type":"SCALAR"},{"bufferView":21,"componentType":5126,"count":1,"max":[0,0,0,1],"min":[0,0,0,1],"type":"VEC4"},{"bufferView":22,"componentType":5126,"count":1,"max":[0.0416666679084301],"min":[0.0416666679084301],"type":"SCALAR"},{"bufferView":23,"componentType":5126,"count":1,"max":[0,-0.21377357840538025,1.0010793209075928],"min":[0,-0.21377357840538025,1.0010793209075928],"type":"VEC3"},{"bufferView":24,"componentType":5126,"count":7,"max":[1.625],"min":[0.0833333358168602],"type":"SCALAR"},{"bufferView":25,"componentType":5126,"count":7,"max":[0.04579886794090271,0,0,1],"min":[-0.010908091440796852,0,0,0.9989506602287292],"type":"VEC4"},{"bufferView":26,"componentType":5126,"count":1,"max":[0.0833333358168602],"min":[0.0833333358168602],"type":"SCALAR"},{"bufferView":27,"componentType":5126,"count":1,"max":[-1.0425596741470144e-7,-0.213830828666687,-0.9061911702156067],"min":[-1.0425596741470144e-7,-0.213830828666687,-0.9061911702156067],"type":"VEC3"},{"bufferView":28,"componentType":5126,"count":1,"max":[0.0416666679084301],"min":[0.0416666679084301],"type":"SCALAR"},{"bufferView":29,"componentType":5126,"count":1,"max":[0,0,0,1],"min":[0,0,0,1],"type":"VEC4"},{"bufferView":30,"componentType":5126,"count":1,"max":[0.0416666679084301],"min":[0.0416666679084301],"type":"SCALAR"},{"bufferView":31,"componentType":5126,"count":1,"max":[8.905839763428958e-7,0.015647944062948227,1.775347113609314],"min":[8.905839763428958e-7,0.015647944062948227,1.775347113609314],"type":"VEC3"},{"bufferView":32,"componentType":5126,"count":1,"max":[0.0416666679084301],"min":[0.0416666679084301],"type":"SCALAR"},{"bufferView":33,"componentType":5126,"count":1,"max":[0,0,0],"min":[0,0,0],"type":"VEC3"},{"bufferView":34,"componentType":5126,"count":1,"max":[0.0416666679084301],"min":[0.0416666679084301],"type":"SCALAR"},{"bufferView":35,"componentType":5126,"count":1,"max":[0,0,0,1],"min":[0,0,0,1],"type":"VEC4"},{"bufferView":36,"componentType":5126,"count":1,"max":[0.0416666679084301],"min":[0.0416666679084301],"type":"SCALAR"},{"bufferView":37,"componentType":5126,"count":1,"max":[-5.208333391237829e-7,0.015671204775571823,1.7057291269302368],"min":[-5.208333391237829e-7,0.015671204775571823,1.7057291269302368],"type":"VEC3"},{"bufferView":38,"componentType":5126,"count":1,"max":[0.0416666679084301],"min":[0.0416666679084301],"type":"SCALAR"},{"bufferView":39,"componentType":5126,"count":1,"max":[0,0,0,1],"min":[0,0,0,1],"type":"VEC4"},{"bufferView":40,"componentType":5126,"count":1,"max":[0.0416666679084301],"min":[0.0416666679084301],"type":"SCALAR"},{"bufferView":41,"componentType":5126,"count":1,"max":[4.737417498290597e-7,0.0034550789278000593,0.0442708320915699],"min":[4.737417498290597e-7,0.0034550789278000593,0.0442708320915699],"type":"VEC3"}]}