{"asset":{"version":"2.0","generator":"Blockbench 4.8.3 glTF exporter"},"scenes":[{"nodes":[13],"name":"blockbench_export"}],"scene":0,"nodes":[{"translation":[0.375,-0.6875,0],"name":"RightHand"},{"translation":[-0.375,1.1000000000000003,0.8125],"name":"R","children":[0]},{"translation":[0,-0.21377357560520707,1.0010793585526314],"name":"cover_back"},{"translation":[-1.0425596802532411e-7,-0.2138308272592143,-0.9061911835259392],"name":"cover_front"},{"translation":[-9.376755665257974e-7,0.003478338602536324,-0.025347157837132928],"name":"rocket_handle_full"},{"translation":[8.905839932182857e-7,0.015647944174051576,1.775347157837133],"name":"rocket_full","children":[4]},{"translation":[4.737417600431115e-7,0.003455078855061189,0.04427083333333348],"name":"rocket_handle_empty"},{"translation":[-5.208333332951121e-7,0.01567120392152682,1.7057291666666665],"name":"rocket_empty","children":[6]},{"translation":[0,0.3500000000000003,0.3125],"name":"m202","children":[2,3,5,7]},{"translation":[0,0.02499999999999969,0],"name":"bone","children":[1,8]},{"translation":[-0.375,-0.6875,0],"name":"LeftHand"},{"translation":[0.375,1.125,0.8125],"name":"l","children":[10]},{"translation":[0.5,0.0625,-0.3125],"name":"bone2","children":[9,11]},{"children":[12]}],"animations":[{"name":"draw","samplers":[{"input":0,"output":1,"interpolation":"LINEAR"},{"input":2,"output":3,"interpolation":"LINEAR"},{"input":4,"output":5,"interpolation":"LINEAR"},{"input":6,"output":7,"interpolation":"LINEAR"},{"input":8,"output":9,"interpolation":"LINEAR"},{"input":10,"output":11,"interpolation":"LINEAR"},{"input":12,"output":13,"interpolation":"LINEAR"},{"input":14,"output":15,"interpolation":"LINEAR"},{"input":16,"output":17,"interpolation":"LINEAR"},{"input":18,"output":19,"interpolation":"LINEAR"},{"input":20,"output":21,"interpolation":"LINEAR"},{"input":22,"output":23,"interpolation":"LINEAR"},{"input":24,"output":25,"interpolation":"LINEAR"},{"input":26,"output":27,"interpolation":"LINEAR"},{"input":28,"output":29,"interpolation":"LINEAR"},{"input":30,"output":31,"interpolation":"LINEAR"},{"input":32,"output":33,"interpolation":"LINEAR"},{"input":34,"output":35,"interpolation":"LINEAR"},{"input":36,"output":37,"interpolation":"LINEAR"},{"input":38,"output":39,"interpolation":"LINEAR"},{"input":40,"output":41,"interpolation":"LINEAR"},{"input":42,"output":43,"interpolation":"LINEAR"}],"channels":[{"sampler":0,"target":{"node":12,"path":"rotation"}},{"sampler":1,"target":{"node":12,"path":"translation"}},{"sampler":2,"target":{"node":9,"path":"rotation"}},{"sampler":3,"target":{"node":9,"path":"translation"}},{"sampler":4,"target":{"node":1,"path":"rotation"}},{"sampler":5,"target":{"node":1,"path":"translation"}},{"sampler":6,"target":{"node":1,"path":"scale"}},{"sampler":7,"target":{"node":11,"path":"rotation"}},{"sampler":8,"target":{"node":11,"path":"translation"}},{"sampler":9,"target":{"node":11,"path":"scale"}},{"sampler":10,"target":{"node":2,"path":"rotation"}},{"sampler":11,"target":{"node":2,"path":"translation"}},{"sampler":12,"target":{"node":3,"path":"rotation"}},{"sampler":13,"target":{"node":3,"path":"translation"}},{"sampler":14,"target":{"node":5,"path":"rotation"}},{"sampler":15,"target":{"node":5,"path":"translation"}},{"sampler":16,"target":{"node":5,"path":"scale"}},{"sampler":17,"target":{"node":7,"path":"rotation"}},{"sampler":18,"target":{"node":7,"path":"translation"}},{"sampler":19,"target":{"node":7,"path":"scale"}},{"sampler":20,"target":{"node":6,"path":"rotation"}},{"sampler":21,"target":{"node":6,"path":"translation"}}]}],"bufferViews":[{"buffer":0,"byteOffset":0,"byteLength":80},{"buffer":0,"byteOffset":80,"byteLength":320},{"buffer":0,"byteOffset":400,"byteLength":80},{"buffer":0,"byteOffset":480,"byteLength":240},{"buffer":0,"byteOffset":720,"byteLength":88},{"buffer":0,"byteOffset":808,"byteLength":352},{"buffer":0,"byteOffset":1160,"byteLength":84},{"buffer":0,"byteOffset":1244,"byteLength":252},{"buffer":0,"byteOffset":1496,"byteLength":4},{"buffer":0,"byteOffset":1500,"byteLength":16},{"buffer":0,"byteOffset":1516,"byteLength":4},{"buffer":0,"byteOffset":1520,"byteLength":12},{"buffer":0,"byteOffset":1532,"byteLength":4},{"buffer":0,"byteOffset":1536,"byteLength":12},{"buffer":0,"byteOffset":1548,"byteLength":72},{"buffer":0,"byteOffset":1620,"byteLength":288},{"buffer":0,"byteOffset":1908,"byteLength":72},{"buffer":0,"byteOffset":1980,"byteLength":216},{"buffer":0,"byteOffset":2196,"byteLength":8},{"buffer":0,"byteOffset":2204,"byteLength":24},{"buffer":0,"byteOffset":2228,"byteLength":12},{"buffer":0,"byteOffset":2240,"byteLength":48},{"buffer":0,"byteOffset":2288,"byteLength":4},{"buffer":0,"byteOffset":2292,"byteLength":12},{"buffer":0,"byteOffset":2304,"byteLength":12},{"buffer":0,"byteOffset":2316,"byteLength":48},{"buffer":0,"byteOffset":2364,"byteLength":4},{"buffer":0,"byteOffset":2368,"byteLength":12},{"buffer":0,"byteOffset":2380,"byteLength":4},{"buffer":0,"byteOffset":2384,"byteLength":16},{"buffer":0,"byteOffset":2400,"byteLength":4},{"buffer":0,"byteOffset":2404,"byteLength":12},{"buffer":0,"byteOffset":2416,"byteLength":4},{"buffer":0,"byteOffset":2420,"byteLength":12},{"buffer":0,"byteOffset":2432,"byteLength":8},{"buffer":0,"byteOffset":2440,"byteLength":32},{"buffer":0,"byteOffset":2472,"byteLength":12},{"buffer":0,"byteOffset":2484,"byteLength":36},{"buffer":0,"byteOffset":2520,"byteLength":8},{"buffer":0,"byteOffset":2528,"byteLength":24},{"buffer":0,"byteOffset":2552,"byteLength":16},{"buffer":0,"byteOffset":2568,"byteLength":64},{"buffer":0,"byteOffset":2632,"byteLength":4},{"buffer":0,"byteOffset":2636,"byteLength":12}],"buffers":[{"byteLength":2648,"uri":"data:application/octet-stream;base64,"}],"accessors":[{"bufferView":0,"componentType":5126,"count":20,"max":[2.0833332538604736],"min":[0.0416666679084301],"type":"SCALAR"},{"bufferView":1,"componentType":5126,"count":20,"max":[0.02181488461792469,0.008271810598671436,0.01585833914577961,1],"min":[-0.5735764503479004,-0.005993384402245283,-0.01163687463849783,0.8191520571708679],"type":"VEC4"},{"bufferView":2,"componentType":5126,"count":20,"max":[2.0833332538604736],"min":[0.0416666679084301],"type":"SCALAR"},{"bufferView":3,"componentType":5126,"count":20,"max":[0.578125,0.0654296875,0.1513671875],"min":[0.5,-1.4697265625,-0.6924999952316284],"type":"VEC3"},{"bufferView":4,"componentType":5126,"count":22,"max":[2.2083332538604736],"min":[0.125],"type":"SCALAR"},{"bufferView":5,"componentType":5126,"count":22,"max":[0.032717134803533554,0.003536477917805314,0.08060301840305328,1],"min":[-0.0370606854557991,-0.0011989303166046739,-0.010902251116931438,0.9967069029808044],"type":"VEC4"},{"bufferView":6,"componentType":5126,"count":21,"max":[2.2083332538604736],"min":[0.125],"type":"SCALAR"},{"bufferView":7,"componentType":5126,"count":21,"max":[0,0.05624999850988388,0.052851561456918716],"min":[0,-0.052070312201976776,-0.3081640601158142],"type":"VEC3"},{"bufferView":8,"componentType":5126,"count":1,"max":[0.0416666679084301],"min":[0.0416666679084301],"type":"SCALAR"},{"bufferView":9,"componentType":5126,"count":1,"max":[-0.10853659361600876,0.7682955861091614,-0.6285067200660706,-0.05404657498002052],"min":[-0.10853659361600876,0.7682955861091614,-0.6285067200660706,-0.05404657498002052],"type":"VEC4"},{"bufferView":10,"componentType":5126,"count":1,"max":[0.0416666679084301],"min":[0.0416666679084301],"type":"SCALAR"},{"bufferView":11,"componentType":5126,"count":1,"max":[0.017578125,-0.01523437537252903,0],"min":[0.017578125,-0.01523437537252903,0],"type":"VEC3"},{"bufferView":12,"componentType":5126,"count":1,"max":[0.0416666679084301],"min":[0.0416666679084301],"type":"SCALAR"},{"bufferView":13,"componentType":5126,"count":1,"max":[1,1.5,1],"min":[1,1.5,1],"type":"VEC3"},{"bufferView":14,"componentType":5126,"count":18,"max":[2.2083332538604736],"min":[0.0416666679084301],"type":"SCALAR"},{"bufferView":15,"componentType":5126,"count":18,"max":[0.5411954522132874,0.9368272423744202,0.27353763580322266,0.26492953300476074],"min":[0.04673510789871216,0.7161896824836731,-0.6406503319740295,-0.16991405189037323],"type":"VEC4"},{"bufferView":16,"componentType":5126,"count":18,"max":[2.2083332538604736],"min":[0.0416666679084301],"type":"SCALAR"},{"bufferView":17,"componentType":5126,"count":18,"max":[-0.13750000298023224,0.6418750286102295,1.909999966621399],"min":[-0.39140623807907104,-0.1471875011920929,-0.9349218606948853],"type":"VEC3"},{"bufferView":18,"componentType":5126,"count":2,"max":[2.0833332538604736],"min":[0.0416666679084301],"type":"SCALAR"},{"bufferView":19,"componentType":5126,"count":2,"max":[1,1.5,1],"min":[1,1.5,1],"type":"VEC3"},{"bufferView":20,"componentType":5126,"count":3,"max":[0.5416666865348816],"min":[0.375],"type":"SCALAR"},{"bufferView":21,"componentType":5126,"count":3,"max":[0,0,0,1],"min":[-1,0,0,6.123234262925839e-17],"type":"VEC4"},{"bufferView":22,"componentType":5126,"count":1,"max":[0.375],"min":[0.375],"type":"SCALAR"},{"bufferView":23,"componentType":5126,"count":1,"max":[0,-0.21377357840538025,1.0010793209075928],"min":[0,-0.21377357840538025,1.0010793209075928],"type":"VEC3"},{"bufferView":24,"componentType":5126,"count":3,"max":[1.9166666269302368],"min":[1.7083333730697632],"type":"SCALAR"},{"bufferView":25,"componentType":5126,"count":3,"max":[1,0,0,1],"min":[0,0,0,6.123234262925839e-17],"type":"VEC4"},{"bufferView":26,"componentType":5126,"count":1,"max":[1.7083333730697632],"min":[1.7083333730697632],"type":"SCALAR"},{"bufferView":27,"componentType":5126,"count":1,"max":[-1.0425596741470144e-7,-0.213830828666687,-0.9061911702156067],"min":[-1.0425596741470144e-7,-0.213830828666687,-0.9061911702156067],"type":"VEC3"},{"bufferView":28,"componentType":5126,"count":1,"max":[0.0416666679084301],"min":[0.0416666679084301],"type":"SCALAR"},{"bufferView":29,"componentType":5126,"count":1,"max":[0,0,0,1],"min":[0,0,0,1],"type":"VEC4"},{"bufferView":30,"componentType":5126,"count":1,"max":[0.0416666679084301],"min":[0.0416666679084301],"type":"SCALAR"},{"bufferView":31,"componentType":5126,"count":1,"max":[8.905839763428958e-7,0.015647944062948227,1.775347113609314],"min":[8.905839763428958e-7,0.015647944062948227,1.775347113609314],"type":"VEC3"},{"bufferView":32,"componentType":5126,"count":1,"max":[0.0416666679084301],"min":[0.0416666679084301],"type":"SCALAR"},{"bufferView":33,"componentType":5126,"count":1,"max":[0,0,0],"min":[0,0,0],"type":"VEC3"},{"bufferView":34,"componentType":5126,"count":2,"max":[0.7916666865348816],"min":[0.375],"type":"SCALAR"},{"bufferView":35,"componentType":5126,"count":2,"max":[0,0,0,1],"min":[0,0,0,1],"type":"VEC4"},{"bufferView":36,"componentType":5126,"count":3,"max":[0.9166666865348816],"min":[0.375],"type":"SCALAR"},{"bufferView":37,"componentType":5126,"count":3,"max":[-5.208333391237829e-7,0.015671204775571823,1.7057291269302368],"min":[-5.208333391237829e-7,0.015671204775571823,0.9869791865348816],"type":"VEC3"},{"bufferView":38,"componentType":5126,"count":2,"max":[0.4166666567325592],"min":[0.375],"type":"SCALAR"},{"bufferView":39,"componentType":5126,"count":2,"max":[1,1,1],"min":[0,0,0],"type":"VEC3"},{"bufferView":40,"componentType":5126,"count":4,"max":[1.0416666269302368],"min":[0.75],"type":"SCALAR"},{"bufferView":41,"componentType":5126,"count":4,"max":[0,0,0,1],"min":[-0.6427876353263855,0,0,0.7660444378852844],"type":"VEC4"},{"bufferView":42,"componentType":5126,"count":1,"max":[0.75],"min":[0.75],"type":"SCALAR"},{"bufferView":43,"componentType":5126,"count":1,"max":[4.737417498290597e-7,0.0034550789278000593,0.0442708320915699],"min":[4.737417498290597e-7,0.0034550789278000593,0.0442708320915699],"type":"VEC3"}]}