{"asset":{"version":"2.0","generator":"Blockbench 4.8.3 glTF exporter"},"scenes":[{"nodes":[13],"name":"blockbench_export"}],"scene":0,"nodes":[{"translation":[0.375,-0.6875,0],"name":"RightHand"},{"translation":[-0.375,1.1000000000000003,0.8125],"name":"R","children":[0]},{"translation":[0,-0.21377357560520707,1.0010793585526314],"name":"cover_back"},{"translation":[-1.0425596802532411e-7,-0.2138308272592143,-0.9061911835259392],"name":"cover_front"},{"translation":[-9.376755665257974e-7,0.003478338602536324,-0.025347157837132928],"name":"rocket_handle_full"},{"translation":[8.905839932182857e-7,0.015647944174051576,1.775347157837133],"name":"rocket_full","children":[4]},{"translation":[4.737417600431115e-7,0.003455078855061189,0.04427083333333348],"name":"rocket_handle_empty"},{"translation":[-5.208333332951121e-7,0.01567120392152682,1.7057291666666665],"name":"rocket_empty","children":[6]},{"translation":[0,0.3500000000000003,0.3125],"name":"m202","children":[2,3,5,7]},{"translation":[0,0.02499999999999969,0],"name":"bone","children":[1,8]},{"translation":[-0.375,-0.6875,0],"name":"LeftHand"},{"translation":[0.375,1.125,0.8125],"name":"l","children":[10]},{"translation":[0.5,0.0625,-0.3125],"name":"bone2","children":[9,11]},{"children":[12]}],"animations":[{"name":"reload","samplers":[{"input":0,"output":1,"interpolation":"LINEAR"},{"input":2,"output":3,"interpolation":"LINEAR"},{"input":4,"output":5,"interpolation":"LINEAR"},{"input":6,"output":7,"interpolation":"LINEAR"},{"input":8,"output":9,"interpolation":"LINEAR"},{"input":10,"output":11,"interpolation":"LINEAR"},{"input":12,"output":13,"interpolation":"LINEAR"},{"input":14,"output":15,"interpolation":"LINEAR"},{"input":16,"output":17,"interpolation":"LINEAR"},{"input":18,"output":19,"interpolation":"LINEAR"},{"input":20,"output":21,"interpolation":"LINEAR"},{"input":22,"output":23,"interpolation":"LINEAR"},{"input":24,"output":25,"interpolation":"LINEAR"},{"input":26,"output":27,"interpolation":"LINEAR"},{"input":28,"output":29,"interpolation":"LINEAR"},{"input":30,"output":31,"interpolation":"LINEAR"},{"input":32,"output":33,"interpolation":"LINEAR"},{"input":34,"output":35,"interpolation":"LINEAR"},{"input":36,"output":37,"interpolation":"LINEAR"},{"input":38,"output":39,"interpolation":"LINEAR"},{"input":40,"output":41,"interpolation":"LINEAR"},{"input":42,"output":43,"interpolation":"LINEAR"},{"input":44,"output":45,"interpolation":"LINEAR"}],"channels":[{"sampler":0,"target":{"node":12,"path":"rotation"}},{"sampler":1,"target":{"node":12,"path":"translation"}},{"sampler":2,"target":{"node":9,"path":"rotation"}},{"sampler":3,"target":{"node":9,"path":"translation"}},{"sampler":4,"target":{"node":1,"path":"rotation"}},{"sampler":5,"target":{"node":1,"path":"translation"}},{"sampler":6,"target":{"node":1,"path":"scale"}},{"sampler":7,"target":{"node":11,"path":"rotation"}},{"sampler":8,"target":{"node":11,"path":"translation"}},{"sampler":9,"target":{"node":11,"path":"scale"}},{"sampler":10,"target":{"node":2,"path":"rotation"}},{"sampler":11,"target":{"node":2,"path":"translation"}},{"sampler":12,"target":{"node":3,"path":"rotation"}},{"sampler":13,"target":{"node":3,"path":"translation"}},{"sampler":14,"target":{"node":5,"path":"rotation"}},{"sampler":15,"target":{"node":5,"path":"translation"}},{"sampler":16,"target":{"node":5,"path":"scale"}},{"sampler":17,"target":{"node":7,"path":"rotation"}},{"sampler":18,"target":{"node":7,"path":"translation"}},{"sampler":19,"target":{"node":7,"path":"scale"}},{"sampler":20,"target":{"node":6,"path":"rotation"}},{"sampler":21,"target":{"node":6,"path":"translation"}},{"sampler":22,"target":{"node":4,"path":"rotation"}}]}],"bufferViews":[{"buffer":0,"byteOffset":0,"byteLength":104},{"buffer":0,"byteOffset":104,"byteLength":416},{"buffer":0,"byteOffset":520,"byteLength":100},{"buffer":0,"byteOffset":620,"byteLength":300},{"buffer":0,"byteOffset":920,"byteLength":116},{"buffer":0,"byteOffset":1036,"byteLength":464},{"buffer":0,"byteOffset":1500,"byteLength":112},{"buffer":0,"byteOffset":1612,"byteLength":336},{"buffer":0,"byteOffset":1948,"byteLength":76},{"buffer":0,"byteOffset":2024,"byteLength":304},{"buffer":0,"byteOffset":2328,"byteLength":68},{"buffer":0,"byteOffset":2396,"byteLength":204},{"buffer":0,"byteOffset":2600,"byteLength":4},{"buffer":0,"byteOffset":2604,"byteLength":12},{"buffer":0,"byteOffset":2616,"byteLength":124},{"buffer":0,"byteOffset":2740,"byteLength":496},{"buffer":0,"byteOffset":3236,"byteLength":120},{"buffer":0,"byteOffset":3356,"byteLength":360},{"buffer":0,"byteOffset":3716,"byteLength":4},{"buffer":0,"byteOffset":3720,"byteLength":12},{"buffer":0,"byteOffset":3732,"byteLength":4},{"buffer":0,"byteOffset":3736,"byteLength":16},{"buffer":0,"byteOffset":3752,"byteLength":4},{"buffer":0,"byteOffset":3756,"byteLength":12},{"buffer":0,"byteOffset":3768,"byteLength":4},{"buffer":0,"byteOffset":3772,"byteLength":16},{"buffer":0,"byteOffset":3788,"byteLength":4},{"buffer":0,"byteOffset":3792,"byteLength":12},{"buffer":0,"byteOffset":3804,"byteLength":52},{"buffer":0,"byteOffset":3856,"byteLength":208},{"buffer":0,"byteOffset":4064,"byteLength":56},{"buffer":0,"byteOffset":4120,"byteLength":168},{"buffer":0,"byteOffset":4288,"byteLength":20},{"buffer":0,"byteOffset":4308,"byteLength":60},{"buffer":0,"byteOffset":4368,"byteLength":16},{"buffer":0,"byteOffset":4384,"byteLength":64},{"buffer":0,"byteOffset":4448,"byteLength":28},{"buffer":0,"byteOffset":4476,"byteLength":84},{"buffer":0,"byteOffset":4560,"byteLength":16},{"buffer":0,"byteOffset":4576,"byteLength":48},{"buffer":0,"byteOffset":4624,"byteLength":44},{"buffer":0,"byteOffset":4668,"byteLength":176},{"buffer":0,"byteOffset":4844,"byteLength":12},{"buffer":0,"byteOffset":4856,"byteLength":36},{"buffer":0,"byteOffset":4892,"byteLength":36},{"buffer":0,"byteOffset":4928,"byteLength":144}],"buffers":[{"byteLength":5072,"uri":"data:application/octet-stream;base64,"}],"accessors":[{"bufferView":0,"componentType":5126,"count":26,"max":[3.6666667461395264],"min":[0.0416666679084301],"type":"SCALAR"},{"bufferView":1,"componentType":5126,"count":26,"max":[0,0.013230465352535248,0.01073489524424076,1],"min":[-0.05034545063972473,-0.02219274267554283,-0.0629710853099823,0.9967796802520752],"type":"VEC4"},{"bufferView":2,"componentType":5126,"count":25,"max":[3.6666667461395264],"min":[0.0416666679084301],"type":"SCALAR"},{"bufferView":3,"componentType":5126,"count":25,"max":[0.5,0.08765625208616257,-0.3084374964237213],"min":[0.45238280296325684,0.023710938170552254,-0.3650781214237213],"type":"VEC3"},{"bufferView":4,"componentType":5126,"count":29,"max":[3.875],"min":[0.0416666679084301],"type":"SCALAR"},{"bufferView":5,"componentType":5126,"count":29,"max":[0.02181488461792469,0.0814514011144638,0.09052866697311401,1],"min":[-0.6426444053649902,0,0,0.7599593997001648],"type":"VEC4"},{"bufferView":6,"componentType":5126,"count":28,"max":[3.875],"min":[0.0416666679084301],"type":"SCALAR"},{"bufferView":7,"componentType":5126,"count":28,"max":[0,0.02500000037252903,0.0783984363079071],"min":[-0.07249999791383743,-1.684023380279541,-0.3664843738079071],"type":"VEC3"},{"bufferView":8,"componentType":5126,"count":19,"max":[3.3333332538604736],"min":[0.2083333283662796],"type":"SCALAR"},{"bufferView":9,"componentType":5126,"count":19,"max":[0.49620872735977173,0.7682955861091614,0.5065882802009583,0.9966606497764587],"min":[-0.47441574931144714,-0.018534012138843536,-0.6285067200660706,-0.05404657498002052],"type":"VEC4"},{"bufferView":10,"componentType":5126,"count":17,"max":[3.3333332538604736],"min":[0.2083333283662796],"type":"SCALAR"},{"bufferView":11,"componentType":5126,"count":17,"max":[0.43062499165534973,0.3864062428474426,3.046757698059082],"min":[-0.0018749999580904841,-0.01523437537252903,0],"type":"VEC3"},{"bufferView":12,"componentType":5126,"count":1,"max":[0.2083333283662796],"min":[0.2083333283662796],"type":"SCALAR"},{"bufferView":13,"componentType":5126,"count":1,"max":[1,1.5,1],"min":[1,1.5,1],"type":"VEC3"},{"bufferView":14,"componentType":5126,"count":31,"max":[3.875],"min":[0.0416666679084301],"type":"SCALAR"},{"bufferView":15,"componentType":5126,"count":31,"max":[0.16159814596176147,0.9032964706420898,-0.3862016499042511,0.2227603942155838],"min":[-0.008060666732490063,0.44485950469970703,-0.8885078430175781,-0.029619306325912476],"type":"VEC4"},{"bufferView":16,"componentType":5126,"count":30,"max":[3.875],"min":[0.0416666679084301],"type":"SCALAR"},{"bufferView":17,"componentType":5126,"count":30,"max":[-0.32499998807907104,0.2668749988079071,-0.007695312611758709],"min":[-0.5358203053474426,-0.7914062738418579,-0.29441407322883606],"type":"VEC3"},{"bufferView":18,"componentType":5126,"count":1,"max":[0.0416666679084301],"min":[0.0416666679084301],"type":"SCALAR"},{"bufferView":19,"componentType":5126,"count":1,"max":[1,1.5,1],"min":[1,1.5,1],"type":"VEC3"},{"bufferView":20,"componentType":5126,"count":1,"max":[0.0416666679084301],"min":[0.0416666679084301],"type":"SCALAR"},{"bufferView":21,"componentType":5126,"count":1,"max":[0,0,0,1],"min":[0,0,0,1],"type":"VEC4"},{"bufferView":22,"componentType":5126,"count":1,"max":[0.0416666679084301],"min":[0.0416666679084301],"type":"SCALAR"},{"bufferView":23,"componentType":5126,"count":1,"max":[0,-0.21377357840538025,1.0010793209075928],"min":[0,-0.21377357840538025,1.0010793209075928],"type":"VEC3"},{"bufferView":24,"componentType":5126,"count":1,"max":[0.0416666679084301],"min":[0.0416666679084301],"type":"SCALAR"},{"bufferView":25,"componentType":5126,"count":1,"max":[0,0,0,1],"min":[0,0,0,1],"type":"VEC4"},{"bufferView":26,"componentType":5126,"count":1,"max":[0.0416666679084301],"min":[0.0416666679084301],"type":"SCALAR"},{"bufferView":27,"componentType":5126,"count":1,"max":[-1.0425596741470144e-7,-0.213830828666687,-0.9061911702156067],"min":[-1.0425596741470144e-7,-0.213830828666687,-0.9061911702156067],"type":"VEC3"},{"bufferView":28,"componentType":5126,"count":13,"max":[3.6666667461395264],"min":[1.25],"type":"SCALAR"},{"bufferView":29,"componentType":5126,"count":13,"max":[0.008726452477276325,0.09801340848207474,0.0010517617920413613,1],"min":[-0.0020966720767319202,0,-0.00019544643873814493,0.9951468110084534],"type":"VEC4"},{"bufferView":30,"componentType":5126,"count":14,"max":[3.6666667461395264],"min":[1.25],"type":"SCALAR"},{"bufferView":31,"componentType":5126,"count":14,"max":[0.48632901906967163,0.021272944286465645,2.4410111904144287],"min":[-0.009374109096825123,-0.23435205221176147,0.07612840831279755],"type":"VEC3"},{"bufferView":32,"componentType":5126,"count":5,"max":[3.6666667461395264],"min":[1.375],"type":"SCALAR"},{"bufferView":33,"componentType":5126,"count":5,"max":[1,1,1],"min":[0,0,0],"type":"VEC3"},{"bufferView":34,"componentType":5126,"count":4,"max":[3.6666667461395264],"min":[0.5833333134651184],"type":"SCALAR"},{"bufferView":35,"componentType":5126,"count":4,"max":[0,0,0,1],"min":[0,0,0,1],"type":"VEC4"},{"bufferView":36,"componentType":5126,"count":7,"max":[3.6666667461395264],"min":[0.5833333134651184],"type":"SCALAR"},{"bufferView":37,"componentType":5126,"count":7,"max":[-5.208333391237829e-7,0.015671204775571823,3.0807292461395264],"min":[-5.208333391237829e-7,0.015671204775571823,1.7057291269302368],"type":"VEC3"},{"bufferView":38,"componentType":5126,"count":4,"max":[3.6666667461395264],"min":[1.1666666269302368],"type":"SCALAR"},{"bufferView":39,"componentType":5126,"count":4,"max":[1,1,1],"min":[0,0,0],"type":"VEC3"},{"bufferView":40,"componentType":5126,"count":11,"max":[3.6666667461395264],"min":[0.4583333432674408],"type":"SCALAR"},{"bufferView":41,"componentType":5126,"count":11,"max":[0,0,0,1],"min":[-0.7071067690849304,0,0,0.7071067690849304],"type":"VEC4"},{"bufferView":42,"componentType":5126,"count":3,"max":[3.625],"min":[0.4583333432674408],"type":"SCALAR"},{"bufferView":43,"componentType":5126,"count":3,"max":[4.737417498290597e-7,0.0034550789278000593,0.0442708320915699],"min":[4.737417498290597e-7,0.0034550789278000593,0.0442708320915699],"type":"VEC3"},{"bufferView":44,"componentType":5126,"count":9,"max":[3.6666667461395264],"min":[1.375],"type":"SCALAR"},{"bufferView":45,"componentType":5126,"count":9,"max":[0,0,0,1],"min":[-0.7071067690849304,0,0,0.7071067690849304],"type":"VEC4"}]}