{"asset":{"version":"2.0","generator":"Blockbench 4.8.3 glTF exporter"},"scenes":[{"nodes":[11],"name":"blockbench_export"}],"scene":0,"nodes":[{"translation":[0.375,-0.6875,0],"name":"RightHand"},{"translation":[-0.4375,0.7875000000000003,-0.5625],"name":"R","children":[0]},{"translation":[0.5,0.4111328125,0.6982421875],"name":"lever"},{"translation":[0.5,0.5625,0.6875],"name":"bullets"},{"translation":[0.5000000142045454,0.5582633322426827,0.850413841632745],"name":"bolt"},{"translation":[0.49609375,0.490234375,0.912109375],"name":"hammer"},{"translation":[-0.5625,-0.3999999999999997,-1.0625],"name":"1895","children":[2,3,4,5]},{"translation":[0.03125,0.07187499999999969,0],"name":"bone","children":[1,6]},{"translation":[-0.375,-0.6875,0],"name":"LeftHand"},{"translation":[0.34375,0.859375,-0.5625],"name":"l","children":[8]},{"translation":[0.53125,0.328125,1.0625],"name":"bone2","children":[7,9]},{"children":[10]}],"animations":[{"name":"draw","samplers":[{"input":0,"output":1,"interpolation":"LINEAR"},{"input":2,"output":3,"interpolation":"LINEAR"},{"input":4,"output":5,"interpolation":"LINEAR"},{"input":6,"output":7,"interpolation":"LINEAR"},{"input":8,"output":9,"interpolation":"LINEAR"},{"input":10,"output":11,"interpolation":"LINEAR"},{"input":12,"output":13,"interpolation":"LINEAR"},{"input":14,"output":15,"interpolation":"LINEAR"},{"input":16,"output":17,"interpolation":"LINEAR"},{"input":18,"output":19,"interpolation":"LINEAR"},{"input":20,"output":21,"interpolation":"LINEAR"},{"input":22,"output":23,"interpolation":"LINEAR"},{"input":24,"output":25,"interpolation":"LINEAR"},{"input":26,"output":27,"interpolation":"LINEAR"},{"input":28,"output":29,"interpolation":"LINEAR"},{"input":30,"output":31,"interpolation":"LINEAR"},{"input":32,"output":33,"interpolation":"LINEAR"},{"input":34,"output":35,"interpolation":"LINEAR"},{"input":36,"output":37,"interpolation":"LINEAR"}],"channels":[{"sampler":0,"target":{"node":10,"path":"rotation"}},{"sampler":1,"target":{"node":10,"path":"translation"}},{"sampler":2,"target":{"node":7,"path":"rotation"}},{"sampler":3,"target":{"node":7,"path":"translation"}},{"sampler":4,"target":{"node":1,"path":"rotation"}},{"sampler":5,"target":{"node":1,"path":"translation"}},{"sampler":6,"target":{"node":1,"path":"scale"}},{"sampler":7,"target":{"node":9,"path":"rotation"}},{"sampler":8,"target":{"node":9,"path":"translation"}},{"sampler":9,"target":{"node":9,"path":"scale"}},{"sampler":10,"target":{"node":2,"path":"rotation"}},{"sampler":11,"target":{"node":2,"path":"translation"}},{"sampler":12,"target":{"node":3,"path":"rotation"}},{"sampler":13,"target":{"node":3,"path":"translation"}},{"sampler":14,"target":{"node":3,"path":"scale"}},{"sampler":15,"target":{"node":5,"path":"rotation"}},{"sampler":16,"target":{"node":5,"path":"translation"}},{"sampler":17,"target":{"node":4,"path":"rotation"}},{"sampler":18,"target":{"node":4,"path":"translation"}}]}],"bufferViews":[{"buffer":0,"byteOffset":0,"byteLength":16},{"buffer":0,"byteOffset":16,"byteLength":64},{"buffer":0,"byteOffset":80,"byteLength":16},{"buffer":0,"byteOffset":96,"byteLength":48},{"buffer":0,"byteOffset":144,"byteLength":4},{"buffer":0,"byteOffset":148,"byteLength":16},{"buffer":0,"byteOffset":164,"byteLength":4},{"buffer":0,"byteOffset":168,"byteLength":12},{"buffer":0,"byteOffset":180,"byteLength":4},{"buffer":0,"byteOffset":184,"byteLength":16},{"buffer":0,"byteOffset":200,"byteLength":4},{"buffer":0,"byteOffset":204,"byteLength":12},{"buffer":0,"byteOffset":216,"byteLength":4},{"buffer":0,"byteOffset":220,"byteLength":12},{"buffer":0,"byteOffset":232,"byteLength":16},{"buffer":0,"byteOffset":248,"byteLength":64},{"buffer":0,"byteOffset":312,"byteLength":16},{"buffer":0,"byteOffset":328,"byteLength":48},{"buffer":0,"byteOffset":376,"byteLength":8},{"buffer":0,"byteOffset":384,"byteLength":24},{"buffer":0,"byteOffset":408,"byteLength":4},{"buffer":0,"byteOffset":412,"byteLength":16},{"buffer":0,"byteOffset":428,"byteLength":4},{"buffer":0,"byteOffset":432,"byteLength":12},{"buffer":0,"byteOffset":444,"byteLength":4},{"buffer":0,"byteOffset":448,"byteLength":16},{"buffer":0,"byteOffset":464,"byteLength":4},{"buffer":0,"byteOffset":468,"byteLength":12},{"buffer":0,"byteOffset":480,"byteLength":4},{"buffer":0,"byteOffset":484,"byteLength":12},{"buffer":0,"byteOffset":496,"byteLength":4},{"buffer":0,"byteOffset":500,"byteLength":16},{"buffer":0,"byteOffset":516,"byteLength":4},{"buffer":0,"byteOffset":520,"byteLength":12},{"buffer":0,"byteOffset":532,"byteLength":4},{"buffer":0,"byteOffset":536,"byteLength":16},{"buffer":0,"byteOffset":552,"byteLength":4},{"buffer":0,"byteOffset":556,"byteLength":12}],"buffers":[{"byteLength":568,"uri":"data:application/octet-stream;base64,"}],"accessors":[{"bufferView":0,"componentType":5126,"count":4,"max":[0.4166666567325592],"min":[0.0416666679084301],"type":"SCALAR"},{"bufferView":1,"componentType":5126,"count":4,"max":[0,0.39500823616981506,0.29835963249206543,1],"min":[-0.2603604793548584,-0.036983687430620193,-0.0718831866979599,0.8289526104927063],"type":"VEC4"},{"bufferView":2,"componentType":5126,"count":4,"max":[0.4166666567325592],"min":[0.0416666679084301],"type":"SCALAR"},{"bufferView":3,"componentType":5126,"count":4,"max":[0.53125,0.328125,1.1875],"min":[0.40625,0.265625,0.9912109375],"type":"VEC3"},{"bufferView":4,"componentType":5126,"count":1,"max":[0.0416666679084301],"min":[0.0416666679084301],"type":"SCALAR"},{"bufferView":5,"componentType":5126,"count":1,"max":[0,0,0,1],"min":[0,0,0,1],"type":"VEC4"},{"bufferView":6,"componentType":5126,"count":1,"max":[0.0416666679084301],"min":[0.0416666679084301],"type":"SCALAR"},{"bufferView":7,"componentType":5126,"count":1,"max":[0.03125,0.07187499850988388,0],"min":[0.03125,0.07187499850988388,0],"type":"VEC3"},{"bufferView":8,"componentType":5126,"count":1,"max":[0],"min":[0],"type":"SCALAR"},{"bufferView":9,"componentType":5126,"count":1,"max":[-0.06580641865730286,0.7553289532661438,-0.6479695439338684,-0.0726853460073471],"min":[-0.06580641865730286,0.7553289532661438,-0.6479695439338684,-0.0726853460073471],"type":"VEC4"},{"bufferView":10,"componentType":5126,"count":1,"max":[0],"min":[0],"type":"SCALAR"},{"bufferView":11,"componentType":5126,"count":1,"max":[-0.013671875,-0.02597656287252903,-0.0625],"min":[-0.013671875,-0.02597656287252903,-0.0625],"type":"VEC3"},{"bufferView":12,"componentType":5126,"count":1,"max":[0],"min":[0],"type":"SCALAR"},{"bufferView":13,"componentType":5126,"count":1,"max":[1,1.5,1],"min":[1,1.5,1],"type":"VEC3"},{"bufferView":14,"componentType":5126,"count":4,"max":[0.4166666567325592],"min":[0.0416666679084301],"type":"SCALAR"},{"bufferView":15,"componentType":5126,"count":4,"max":[-0.1671956181526184,0.5948346257209778,-0.5572024583816528,0.5656296014785767],"min":[-0.23002900183200836,0.5061031579971313,-0.6596716046333313,0.5245216488838196],"type":"VEC4"},{"bufferView":16,"componentType":5126,"count":4,"max":[0.4166666567325592],"min":[0.0416666679084301],"type":"SCALAR"},{"bufferView":17,"componentType":5126,"count":4,"max":[-0.072265625,0.0185546875,-0.763671875],"min":[-0.072265625,0.0185546875,-0.763671875],"type":"VEC3"},{"bufferView":18,"componentType":5126,"count":2,"max":[0.2916666567325592],"min":[0.0416666679084301],"type":"SCALAR"},{"bufferView":19,"componentType":5126,"count":2,"max":[1,1.5,1],"min":[1,1.5,1],"type":"VEC3"},{"bufferView":20,"componentType":5126,"count":1,"max":[0],"min":[0],"type":"SCALAR"},{"bufferView":21,"componentType":5126,"count":1,"max":[0,0,0,1],"min":[0,0,0,1],"type":"VEC4"},{"bufferView":22,"componentType":5126,"count":1,"max":[0],"min":[0],"type":"SCALAR"},{"bufferView":23,"componentType":5126,"count":1,"max":[0.5,0.4111328125,0.6982421875],"min":[0.5,0.4111328125,0.6982421875],"type":"VEC3"},{"bufferView":24,"componentType":5126,"count":1,"max":[0],"min":[0],"type":"SCALAR"},{"bufferView":25,"componentType":5126,"count":1,"max":[0,0,0,1],"min":[0,0,0,1],"type":"VEC4"},{"bufferView":26,"componentType":5126,"count":1,"max":[0],"min":[0],"type":"SCALAR"},{"bufferView":27,"componentType":5126,"count":1,"max":[0.5,0.5625,0.6875],"min":[0.5,0.5625,0.6875],"type":"VEC3"},{"bufferView":28,"componentType":5126,"count":1,"max":[0],"min":[0],"type":"SCALAR"},{"bufferView":29,"componentType":5126,"count":1,"max":[1,1,1],"min":[1,1,1],"type":"VEC3"},{"bufferView":30,"componentType":5126,"count":1,"max":[0],"min":[0],"type":"SCALAR"},{"bufferView":31,"componentType":5126,"count":1,"max":[0.4226182699203491,0,0,0.9063078165054321],"min":[0.4226182699203491,0,0,0.9063078165054321],"type":"VEC4"},{"bufferView":32,"componentType":5126,"count":1,"max":[0],"min":[0],"type":"SCALAR"},{"bufferView":33,"componentType":5126,"count":1,"max":[0.49609375,0.490234375,0.912109375],"min":[0.49609375,0.490234375,0.912109375],"type":"VEC3"},{"bufferView":34,"componentType":5126,"count":1,"max":[0],"min":[0],"type":"SCALAR"},{"bufferView":35,"componentType":5126,"count":1,"max":[0,0,0,1],"min":[0,0,0,1],"type":"VEC4"},{"bufferView":36,"componentType":5126,"count":1,"max":[0],"min":[0],"type":"SCALAR"},{"bufferView":37,"componentType":5126,"count":1,"max":[0.5,0.55826336145401,0.8504138588905334],"min":[0.5,0.55826336145401,0.8504138588905334],"type":"VEC3"}]}