{"asset":{"version":"2.0","generator":"Blockbench 4.8.3 glTF exporter"},"scenes":[{"nodes":[11],"name":"blockbench_export"}],"scene":0,"nodes":[{"translation":[0.375,-0.6875,0],"name":"RightHand"},{"translation":[-0.4375,0.7875000000000003,-0.5625],"name":"R","children":[0]},{"translation":[0.5,0.4111328125,0.6982421875],"name":"lever"},{"translation":[0.5,0.5625,0.6875],"name":"bullets"},{"translation":[0.5000000142045454,0.5582633322426827,0.850413841632745],"name":"bolt"},{"translation":[0.49609375,0.490234375,0.912109375],"name":"hammer"},{"translation":[-0.5625,-0.3999999999999997,-1.0625],"name":"1895","children":[2,3,4,5]},{"translation":[0.03125,0.07187499999999969,0],"name":"bone","children":[1,6]},{"translation":[-0.375,-0.6875,0],"name":"LeftHand"},{"translation":[0.34375,0.859375,-0.5625],"name":"l","children":[8]},{"translation":[0.53125,0.328125,1.0625],"name":"bone2","children":[7,9]},{"children":[10]}],"animations":[{"name":"reload_end","samplers":[{"input":0,"output":1,"interpolation":"LINEAR"},{"input":2,"output":3,"interpolation":"LINEAR"},{"input":4,"output":5,"interpolation":"LINEAR"},{"input":6,"output":7,"interpolation":"LINEAR"},{"input":8,"output":9,"interpolation":"LINEAR"},{"input":10,"output":11,"interpolation":"LINEAR"},{"input":12,"output":13,"interpolation":"LINEAR"},{"input":14,"output":15,"interpolation":"LINEAR"},{"input":16,"output":17,"interpolation":"LINEAR"},{"input":18,"output":19,"interpolation":"LINEAR"},{"input":20,"output":21,"interpolation":"LINEAR"},{"input":22,"output":23,"interpolation":"LINEAR"},{"input":24,"output":25,"interpolation":"LINEAR"},{"input":26,"output":27,"interpolation":"LINEAR"},{"input":28,"output":29,"interpolation":"LINEAR"},{"input":30,"output":31,"interpolation":"LINEAR"},{"input":32,"output":33,"interpolation":"LINEAR"},{"input":34,"output":35,"interpolation":"LINEAR"},{"input":36,"output":37,"interpolation":"LINEAR"}],"channels":[{"sampler":0,"target":{"node":10,"path":"rotation"}},{"sampler":1,"target":{"node":10,"path":"translation"}},{"sampler":2,"target":{"node":7,"path":"rotation"}},{"sampler":3,"target":{"node":7,"path":"translation"}},{"sampler":4,"target":{"node":1,"path":"rotation"}},{"sampler":5,"target":{"node":1,"path":"translation"}},{"sampler":6,"target":{"node":1,"path":"scale"}},{"sampler":7,"target":{"node":9,"path":"rotation"}},{"sampler":8,"target":{"node":9,"path":"translation"}},{"sampler":9,"target":{"node":9,"path":"scale"}},{"sampler":10,"target":{"node":2,"path":"rotation"}},{"sampler":11,"target":{"node":2,"path":"translation"}},{"sampler":12,"target":{"node":3,"path":"rotation"}},{"sampler":13,"target":{"node":3,"path":"translation"}},{"sampler":14,"target":{"node":3,"path":"scale"}},{"sampler":15,"target":{"node":5,"path":"rotation"}},{"sampler":16,"target":{"node":5,"path":"translation"}},{"sampler":17,"target":{"node":4,"path":"rotation"}},{"sampler":18,"target":{"node":4,"path":"translation"}}]}],"bufferViews":[{"buffer":0,"byteOffset":0,"byteLength":40},{"buffer":0,"byteOffset":40,"byteLength":160},{"buffer":0,"byteOffset":200,"byteLength":36},{"buffer":0,"byteOffset":236,"byteLength":108},{"buffer":0,"byteOffset":344,"byteLength":36},{"buffer":0,"byteOffset":380,"byteLength":144},{"buffer":0,"byteOffset":524,"byteLength":36},{"buffer":0,"byteOffset":560,"byteLength":108},{"buffer":0,"byteOffset":668,"byteLength":28},{"buffer":0,"byteOffset":696,"byteLength":112},{"buffer":0,"byteOffset":808,"byteLength":28},{"buffer":0,"byteOffset":836,"byteLength":84},{"buffer":0,"byteOffset":920,"byteLength":4},{"buffer":0,"byteOffset":924,"byteLength":12},{"buffer":0,"byteOffset":936,"byteLength":36},{"buffer":0,"byteOffset":972,"byteLength":144},{"buffer":0,"byteOffset":1116,"byteLength":36},{"buffer":0,"byteOffset":1152,"byteLength":108},{"buffer":0,"byteOffset":1260,"byteLength":4},{"buffer":0,"byteOffset":1264,"byteLength":12},{"buffer":0,"byteOffset":1276,"byteLength":16},{"buffer":0,"byteOffset":1292,"byteLength":64},{"buffer":0,"byteOffset":1356,"byteLength":4},{"buffer":0,"byteOffset":1360,"byteLength":12},{"buffer":0,"byteOffset":1372,"byteLength":12},{"buffer":0,"byteOffset":1384,"byteLength":48},{"buffer":0,"byteOffset":1432,"byteLength":16},{"buffer":0,"byteOffset":1448,"byteLength":48},{"buffer":0,"byteOffset":1496,"byteLength":12},{"buffer":0,"byteOffset":1508,"byteLength":36},{"buffer":0,"byteOffset":1544,"byteLength":8},{"buffer":0,"byteOffset":1552,"byteLength":32},{"buffer":0,"byteOffset":1584,"byteLength":4},{"buffer":0,"byteOffset":1588,"byteLength":12},{"buffer":0,"byteOffset":1600,"byteLength":4},{"buffer":0,"byteOffset":1604,"byteLength":16},{"buffer":0,"byteOffset":1620,"byteLength":16},{"buffer":0,"byteOffset":1636,"byteLength":48}],"buffers":[{"byteLength":1684,"uri":"data:application/octet-stream;base64,"}],"accessors":[{"bufferView":0,"componentType":5126,"count":10,"max":[1.0833333730697632],"min":[0.0416666679084301],"type":"SCALAR"},{"bufferView":1,"componentType":5126,"count":10,"max":[0.050152864307165146,0.0006565369549207389,0.09538397938013077,1],"min":[-0.030161457136273384,-0.009183836169540882,-0.01308959536254406,0.9949411153793335],"type":"VEC4"},{"bufferView":2,"componentType":5126,"count":9,"max":[1.0833333730697632],"min":[0.0416666679084301],"type":"SCALAR"},{"bufferView":3,"componentType":5126,"count":9,"max":[0.53125,0.35445311665534973,1.1337499618530273],"min":[0.53125,0.31058594584465027,1.046875],"type":"VEC3"},{"bufferView":4,"componentType":5126,"count":9,"max":[1],"min":[0.0416666679084301],"type":"SCALAR"},{"bufferView":5,"componentType":5126,"count":9,"max":[0.21403682231903076,0.01043451577425003,0.5501007437705994,1],"min":[-0.02181488461792469,-0.032611556351184845,-0.03591825067996979,0.8298938870429993],"type":"VEC4"},{"bufferView":6,"componentType":5126,"count":9,"max":[1],"min":[0.0416666679084301],"type":"SCALAR"},{"bufferView":7,"componentType":5126,"count":9,"max":[0.03125,0.13187499344348907,0.05874999985098839],"min":[0.026249999180436134,0.07187499850988388,-0.0031250000465661287],"type":"VEC3"},{"bufferView":8,"componentType":5126,"count":7,"max":[1],"min":[0.0416666679084301],"type":"SCALAR"},{"bufferView":9,"componentType":5126,"count":7,"max":[-0.06577769666910172,0.7553325295448303,-0.6479650139808655,-0.0726853460073471],"min":[-0.28458935022354126,0.3470710515975952,-0.8277591466903687,-0.3585769236087799],"type":"VEC4"},{"bufferView":10,"componentType":5126,"count":7,"max":[1],"min":[0.0416666679084301],"type":"SCALAR"},{"bufferView":11,"componentType":5126,"count":7,"max":[-0.013671875,-0.02597656287252903,0.0625],"min":[-0.38874998688697815,-0.8387500047683716,-0.1875],"type":"VEC3"},{"bufferView":12,"componentType":5126,"count":1,"max":[0.0416666679084301],"min":[0.0416666679084301],"type":"SCALAR"},{"bufferView":13,"componentType":5126,"count":1,"max":[1,1.5,1],"min":[1,1.5,1],"type":"VEC3"},{"bufferView":14,"componentType":5126,"count":9,"max":[1],"min":[0.0416666679084301],"type":"SCALAR"},{"bufferView":15,"componentType":5126,"count":9,"max":[-0.07345132529735565,0.6148783564567566,-0.39909493923187256,0.6762046813964844],"min":[-0.2617326080799103,0.47396835684776306,-0.6299785375595093,0.51556396484375],"type":"VEC4"},{"bufferView":16,"componentType":5126,"count":9,"max":[1],"min":[0.0416666679084301],"type":"SCALAR"},{"bufferView":17,"componentType":5126,"count":9,"max":[-0.05781250074505806,0.3294140696525574,-0.44343748688697815],"min":[-0.17699219286441803,0.0185546875,-0.7793359160423279],"type":"VEC3"},{"bufferView":18,"componentType":5126,"count":1,"max":[0.0416666679084301],"min":[0.0416666679084301],"type":"SCALAR"},{"bufferView":19,"componentType":5126,"count":1,"max":[1,1.5,1],"min":[1,1.5,1],"type":"VEC3"},{"bufferView":20,"componentType":5126,"count":4,"max":[0.8333333134651184],"min":[0.5],"type":"SCALAR"},{"bufferView":21,"componentType":5126,"count":4,"max":[0.3420201539993286,0,0,1],"min":[0,0,0,0.9396926164627075],"type":"VEC4"},{"bufferView":22,"componentType":5126,"count":1,"max":[0.5],"min":[0.5],"type":"SCALAR"},{"bufferView":23,"componentType":5126,"count":1,"max":[0.5,0.4111328125,0.6982421875],"min":[0.5,0.4111328125,0.6982421875],"type":"VEC3"},{"bufferView":24,"componentType":5126,"count":3,"max":[0.9166666865348816],"min":[0.5],"type":"SCALAR"},{"bufferView":25,"componentType":5126,"count":3,"max":[0.04255647584795952,0,0,1],"min":[0,-0.2122723013162613,-0.7711584568023682,0.5987019538879395],"type":"VEC4"},{"bufferView":26,"componentType":5126,"count":4,"max":[0.9166666865348816],"min":[0.5],"type":"SCALAR"},{"bufferView":27,"componentType":5126,"count":4,"max":[1.8125,0.5625,0.6875],"min":[0.5,0.125,0.5625],"type":"VEC3"},{"bufferView":28,"componentType":5126,"count":3,"max":[0.7916666865348816],"min":[0.5],"type":"SCALAR"},{"bufferView":29,"componentType":5126,"count":3,"max":[1,1,1],"min":[0,0,0],"type":"VEC3"},{"bufferView":30,"componentType":5126,"count":2,"max":[0.5833333134651184],"min":[0.5],"type":"SCALAR"},{"bufferView":31,"componentType":5126,"count":2,"max":[0.4226182699203491,0,0,1],"min":[0,0,0,0.9063078165054321],"type":"VEC4"},{"bufferView":32,"componentType":5126,"count":1,"max":[0.5],"min":[0.5],"type":"SCALAR"},{"bufferView":33,"componentType":5126,"count":1,"max":[0.49609375,0.490234375,0.912109375],"min":[0.49609375,0.490234375,0.912109375],"type":"VEC3"},{"bufferView":34,"componentType":5126,"count":1,"max":[0.5],"min":[0.5],"type":"SCALAR"},{"bufferView":35,"componentType":5126,"count":1,"max":[0,0,0,1],"min":[0,0,0,1],"type":"VEC4"},{"bufferView":36,"componentType":5126,"count":4,"max":[0.8333333134651184],"min":[0.5],"type":"SCALAR"},{"bufferView":37,"componentType":5126,"count":4,"max":[0.5,0.55826336145401,1.0691637992858887],"min":[0.5,0.55826336145401,0.8504138588905334],"type":"VEC3"}]}