{"asset":{"version":"2.0","generator":"Blockbench 4.8.3 glTF exporter"},"scenes":[{"nodes":[11],"name":"blockbench_export"}],"scene":0,"nodes":[{"translation":[0.375,-0.6875,0],"name":"RightHand"},{"translation":[-0.4375,0.7875000000000003,-0.5625],"name":"R","children":[0]},{"translation":[0.5,0.4111328125,0.6982421875],"name":"lever"},{"translation":[0.5,0.5625,0.6875],"name":"bullets"},{"translation":[0.5000000142045454,0.5582633322426827,0.850413841632745],"name":"bolt"},{"translation":[0.49609375,0.490234375,0.912109375],"name":"hammer"},{"translation":[-0.5625,-0.3999999999999997,-1.0625],"name":"1895","children":[2,3,4,5]},{"translation":[0.03125,0.07187499999999969,0],"name":"bone","children":[1,6]},{"translation":[-0.375,-0.6875,0],"name":"LeftHand"},{"translation":[0.34375,0.859375,-0.5625],"name":"l","children":[8]},{"translation":[0.53125,0.328125,1.0625],"name":"bone2","children":[7,9]},{"children":[10]}],"animations":[{"name":"reload_loop","samplers":[{"input":0,"output":1,"interpolation":"LINEAR"},{"input":2,"output":3,"interpolation":"LINEAR"},{"input":4,"output":5,"interpolation":"LINEAR"},{"input":6,"output":7,"interpolation":"LINEAR"},{"input":8,"output":9,"interpolation":"LINEAR"},{"input":10,"output":11,"interpolation":"LINEAR"},{"input":12,"output":13,"interpolation":"LINEAR"},{"input":14,"output":15,"interpolation":"LINEAR"},{"input":16,"output":17,"interpolation":"LINEAR"},{"input":18,"output":19,"interpolation":"LINEAR"},{"input":20,"output":21,"interpolation":"LINEAR"},{"input":22,"output":23,"interpolation":"LINEAR"},{"input":24,"output":25,"interpolation":"LINEAR"}],"channels":[{"sampler":0,"target":{"node":10,"path":"rotation"}},{"sampler":1,"target":{"node":10,"path":"translation"}},{"sampler":2,"target":{"node":7,"path":"rotation"}},{"sampler":3,"target":{"node":7,"path":"translation"}},{"sampler":4,"target":{"node":1,"path":"rotation"}},{"sampler":5,"target":{"node":1,"path":"translation"}},{"sampler":6,"target":{"node":1,"path":"scale"}},{"sampler":7,"target":{"node":9,"path":"rotation"}},{"sampler":8,"target":{"node":9,"path":"translation"}},{"sampler":9,"target":{"node":9,"path":"scale"}},{"sampler":10,"target":{"node":3,"path":"rotation"}},{"sampler":11,"target":{"node":3,"path":"translation"}},{"sampler":12,"target":{"node":3,"path":"scale"}}]}],"bufferViews":[{"buffer":0,"byteOffset":0,"byteLength":36},{"buffer":0,"byteOffset":36,"byteLength":144},{"buffer":0,"byteOffset":180,"byteLength":36},{"buffer":0,"byteOffset":216,"byteLength":108},{"buffer":0,"byteOffset":324,"byteLength":4},{"buffer":0,"byteOffset":328,"byteLength":16},{"buffer":0,"byteOffset":344,"byteLength":4},{"buffer":0,"byteOffset":348,"byteLength":12},{"buffer":0,"byteOffset":360,"byteLength":32},{"buffer":0,"byteOffset":392,"byteLength":128},{"buffer":0,"byteOffset":520,"byteLength":32},{"buffer":0,"byteOffset":552,"byteLength":96},{"buffer":0,"byteOffset":648,"byteLength":4},{"buffer":0,"byteOffset":652,"byteLength":12},{"buffer":0,"byteOffset":664,"byteLength":4},{"buffer":0,"byteOffset":668,"byteLength":16},{"buffer":0,"byteOffset":684,"byteLength":4},{"buffer":0,"byteOffset":688,"byteLength":12},{"buffer":0,"byteOffset":700,"byteLength":4},{"buffer":0,"byteOffset":704,"byteLength":12},{"buffer":0,"byteOffset":716,"byteLength":24},{"buffer":0,"byteOffset":740,"byteLength":96},{"buffer":0,"byteOffset":836,"byteLength":28},{"buffer":0,"byteOffset":864,"byteLength":84},{"buffer":0,"byteOffset":948,"byteLength":8},{"buffer":0,"byteOffset":956,"byteLength":24}],"buffers":[{"byteLength":980,"uri":"data:application/octet-stream;base64,"}],"accessors":[{"bufferView":0,"componentType":5126,"count":9,"max":[0.875],"min":[0.0416666679084301],"type":"SCALAR"},{"bufferView":1,"componentType":5126,"count":9,"max":[0.028353292495012283,0.0009943859186023474,0.0719333067536354,0.998853325843811],"min":[-0.006484321318566799,-0.006777520291507244,0.041427768766880035,0.9973002076148987],"type":"VEC4"},{"bufferView":2,"componentType":5126,"count":9,"max":[0.875],"min":[0.0416666679084301],"type":"SCALAR"},{"bufferView":3,"componentType":5126,"count":9,"max":[0.53125,0.35445311665534973,1.1376172304153442],"min":[0.53125,0.32445311546325684,1.1112890243530273],"type":"VEC3"},{"bufferView":4,"componentType":5126,"count":1,"max":[0.875],"min":[0.875],"type":"SCALAR"},{"bufferView":5,"componentType":5126,"count":1,"max":[0.08718837052583694,-0.032611556351184845,0.5501007437705994,0.8298938870429993],"min":[0.08718837052583694,-0.032611556351184845,0.5501007437705994,0.8298938870429993],"type":"VEC4"},{"bufferView":6,"componentType":5126,"count":1,"max":[0.875],"min":[0.875],"type":"SCALAR"},{"bufferView":7,"componentType":5126,"count":1,"max":[0.026249999180436134,0.07187499850988388,0.05874999985098839],"min":[0.026249999180436134,0.07187499850988388,0.05874999985098839],"type":"VEC3"},{"bufferView":8,"componentType":5126,"count":8,"max":[0.875],"min":[0.0416666679084301],"type":"SCALAR"},{"bufferView":9,"componentType":5126,"count":8,"max":[0.22167803347110748,0.8665860891342163,-0.2976669669151306,-0.2953443229198456],"min":[-0.28458935022354126,0.3470710515975952,-0.818518877029419,-0.40848949551582336],"type":"VEC4"},{"bufferView":10,"componentType":5126,"count":8,"max":[0.875],"min":[0.0416666679084301],"type":"SCALAR"},{"bufferView":11,"componentType":5126,"count":8,"max":[0.036249998956918716,-0.028007812798023224,0.0625],"min":[-0.38874998688697815,-0.8387500047683716,-0.4266015589237213],"type":"VEC3"},{"bufferView":12,"componentType":5126,"count":1,"max":[0.0416666679084301],"min":[0.0416666679084301],"type":"SCALAR"},{"bufferView":13,"componentType":5126,"count":1,"max":[1,1.5,1],"min":[1,1.5,1],"type":"VEC3"},{"bufferView":14,"componentType":5126,"count":1,"max":[0.875],"min":[0.875],"type":"SCALAR"},{"bufferView":15,"componentType":5126,"count":1,"max":[-0.2617326080799103,0.47396835684776306,-0.6299785375595093,0.5567558407783508],"min":[-0.2617326080799103,0.47396835684776306,-0.6299785375595093,0.5567558407783508],"type":"VEC4"},{"bufferView":16,"componentType":5126,"count":1,"max":[0.875],"min":[0.875],"type":"SCALAR"},{"bufferView":17,"componentType":5126,"count":1,"max":[-0.17699219286441803,0.01875000074505806,-0.44343748688697815],"min":[-0.17699219286441803,0.01875000074505806,-0.44343748688697815],"type":"VEC3"},{"bufferView":18,"componentType":5126,"count":1,"max":[0.0416666679084301],"min":[0.0416666679084301],"type":"SCALAR"},{"bufferView":19,"componentType":5126,"count":1,"max":[1,1.5,1],"min":[1,1.5,1],"type":"VEC3"},{"bufferView":20,"componentType":5126,"count":6,"max":[0.6666666865348816],"min":[0.0416666679084301],"type":"SCALAR"},{"bufferView":21,"componentType":5126,"count":6,"max":[0.13052618503570557,0.20189957320690155,0.033525336533784866,1],"min":[0,0,0,0.9706696271896362],"type":"VEC4"},{"bufferView":22,"componentType":5126,"count":7,"max":[0.6666666865348816],"min":[0.0416666679084301],"type":"SCALAR"},{"bufferView":23,"componentType":5126,"count":7,"max":[0.59765625,0.5625,1.07421875],"min":[0.1875,-0.3076171875,0.5335156321525574],"type":"VEC3"},{"bufferView":24,"componentType":5126,"count":2,"max":[0.625],"min":[0.5833333134651184],"type":"SCALAR"},{"bufferView":25,"componentType":5126,"count":2,"max":[1,1,1],"min":[0,0,0],"type":"VEC3"}]}