{"asset":{"version":"2.0","generator":"Blockbench 4.8.3 glTF exporter"},"scenes":[{"nodes":[11],"name":"blockbench_export"}],"scene":0,"nodes":[{"translation":[0.375,-0.6875,0],"name":"RightHand"},{"translation":[-0.4375,0.7875000000000003,-0.5625],"name":"R","children":[0]},{"translation":[0.5,0.4111328125,0.6982421875],"name":"lever"},{"translation":[0.5,0.5625,0.6875],"name":"bullets"},{"translation":[0.5000000142045454,0.5582633322426827,0.850413841632745],"name":"bolt"},{"translation":[0.49609375,0.490234375,0.912109375],"name":"hammer"},{"translation":[-0.5625,-0.3999999999999997,-1.0625],"name":"1895","children":[2,3,4,5]},{"translation":[0.03125,0.07187499999999969,0],"name":"bone","children":[1,6]},{"translation":[-0.375,-0.6875,0],"name":"LeftHand"},{"translation":[0.34375,0.859375,-0.5625],"name":"l","children":[8]},{"translation":[0.53125,0.328125,1.0625],"name":"bone2","children":[7,9]},{"children":[10]}],"animations":[{"name":"reload_intro","samplers":[{"input":0,"output":1,"interpolation":"LINEAR"},{"input":2,"output":3,"interpolation":"LINEAR"},{"input":4,"output":5,"interpolation":"LINEAR"},{"input":6,"output":7,"interpolation":"LINEAR"},{"input":8,"output":9,"interpolation":"LINEAR"},{"input":10,"output":11,"interpolation":"LINEAR"},{"input":12,"output":13,"interpolation":"LINEAR"},{"input":14,"output":15,"interpolation":"LINEAR"},{"input":16,"output":17,"interpolation":"LINEAR"},{"input":18,"output":19,"interpolation":"LINEAR"},{"input":20,"output":21,"interpolation":"LINEAR"},{"input":22,"output":23,"interpolation":"LINEAR"},{"input":24,"output":25,"interpolation":"LINEAR"}],"channels":[{"sampler":0,"target":{"node":10,"path":"rotation"}},{"sampler":1,"target":{"node":10,"path":"translation"}},{"sampler":2,"target":{"node":7,"path":"rotation"}},{"sampler":3,"target":{"node":7,"path":"translation"}},{"sampler":4,"target":{"node":1,"path":"rotation"}},{"sampler":5,"target":{"node":1,"path":"translation"}},{"sampler":6,"target":{"node":1,"path":"scale"}},{"sampler":7,"target":{"node":9,"path":"rotation"}},{"sampler":8,"target":{"node":9,"path":"translation"}},{"sampler":9,"target":{"node":9,"path":"scale"}},{"sampler":10,"target":{"node":3,"path":"rotation"}},{"sampler":11,"target":{"node":3,"path":"translation"}},{"sampler":12,"target":{"node":3,"path":"scale"}}]}],"bufferViews":[{"buffer":0,"byteOffset":0,"byteLength":48},{"buffer":0,"byteOffset":48,"byteLength":192},{"buffer":0,"byteOffset":240,"byteLength":44},{"buffer":0,"byteOffset":284,"byteLength":132},{"buffer":0,"byteOffset":416,"byteLength":44},{"buffer":0,"byteOffset":460,"byteLength":176},{"buffer":0,"byteOffset":636,"byteLength":44},{"buffer":0,"byteOffset":680,"byteLength":132},{"buffer":0,"byteOffset":812,"byteLength":44},{"buffer":0,"byteOffset":856,"byteLength":176},{"buffer":0,"byteOffset":1032,"byteLength":44},{"buffer":0,"byteOffset":1076,"byteLength":132},{"buffer":0,"byteOffset":1208,"byteLength":4},{"buffer":0,"byteOffset":1212,"byteLength":12},{"buffer":0,"byteOffset":1224,"byteLength":32},{"buffer":0,"byteOffset":1256,"byteLength":128},{"buffer":0,"byteOffset":1384,"byteLength":20},{"buffer":0,"byteOffset":1404,"byteLength":60},{"buffer":0,"byteOffset":1464,"byteLength":4},{"buffer":0,"byteOffset":1468,"byteLength":12},{"buffer":0,"byteOffset":1480,"byteLength":24},{"buffer":0,"byteOffset":1504,"byteLength":96},{"buffer":0,"byteOffset":1600,"byteLength":24},{"buffer":0,"byteOffset":1624,"byteLength":72},{"buffer":0,"byteOffset":1696,"byteLength":8},{"buffer":0,"byteOffset":1704,"byteLength":24}],"buffers":[{"byteLength":1728,"uri":"data:application/octet-stream;base64,"}],"accessors":[{"bufferView":0,"componentType":5126,"count":12,"max":[0.5416666865348816],"min":[0.0833333358168602],"type":"SCALAR"},{"bufferView":1,"componentType":5126,"count":12,"max":[0.02397536113858223,0.0009943859186023474,0.05024442449212074,1],"min":[-0.0010471087880432606,-0.0000714599373168312,-0.030538512393832207,0.9985244870185852],"type":"VEC4"},{"bufferView":2,"componentType":5126,"count":11,"max":[0.5],"min":[0.0833333358168602],"type":"SCALAR"},{"bufferView":3,"componentType":5126,"count":11,"max":[0.53125,0.3531250059604645,1.1337499618530273],"min":[0.53125,0.3174999952316284,1.0575000047683716],"type":"VEC3"},{"bufferView":4,"componentType":5126,"count":11,"max":[0.4583333432674408],"min":[0.0416666679084301],"type":"SCALAR"},{"bufferView":5,"componentType":5126,"count":11,"max":[0.08942656219005585,0,0.5906941890716553,1],"min":[0,-0.03782886639237404,0,0.8011545538902283],"type":"VEC4"},{"bufferView":6,"componentType":5126,"count":11,"max":[0.4583333432674408],"min":[0.0416666679084301],"type":"SCALAR"},{"bufferView":7,"componentType":5126,"count":11,"max":[0.03187499940395355,0.07187499850988388,0.08187499642372131],"min":[0.026249999180436134,0.07187499850988388,0],"type":"VEC3"},{"bufferView":8,"componentType":5126,"count":11,"max":[0.5833333134651184],"min":[0.1666666716337204],"type":"SCALAR"},{"bufferView":9,"componentType":5126,"count":11,"max":[-0.06577769666910172,0.7553325295448303,-0.6479650139808655,-0.07271435111761093],"min":[-0.2846323847770691,0.34705856442451477,-0.8185130953788757,-0.3585680425167084],"type":"VEC4"},{"bufferView":10,"componentType":5126,"count":11,"max":[0.5833333134651184],"min":[0.1666666716337204],"type":"SCALAR"},{"bufferView":11,"componentType":5126,"count":11,"max":[-0.013749999925494194,-0.026249999180436134,0.0625],"min":[-0.38874998688697815,-0.8387500047683716,-0.0625],"type":"VEC3"},{"bufferView":12,"componentType":5126,"count":1,"max":[0.25],"min":[0.25],"type":"SCALAR"},{"bufferView":13,"componentType":5126,"count":1,"max":[1,1.5,1],"min":[1,1.5,1],"type":"VEC3"},{"bufferView":14,"componentType":5126,"count":8,"max":[0.3333333432674408],"min":[0.0416666679084301],"type":"SCALAR"},{"bufferView":15,"componentType":5126,"count":8,"max":[-0.2165934145450592,0.5915242433547974,-0.563523530960083,0.567611038684845],"min":[-0.26173707842826843,0.4533381164073944,-0.6465681195259094,0.534441351890564],"type":"VEC4"},{"bufferView":16,"componentType":5126,"count":5,"max":[0.2083333283662796],"min":[0.0416666679084301],"type":"SCALAR"},{"bufferView":17,"componentType":5126,"count":5,"max":[-0.07249999791383743,0.01875000074505806,-0.4437499940395355],"min":[-0.17687499523162842,0.01875000074505806,-0.7637500166893005],"type":"VEC3"},{"bufferView":18,"componentType":5126,"count":1,"max":[0.0416666679084301],"min":[0.0416666679084301],"type":"SCALAR"},{"bufferView":19,"componentType":5126,"count":1,"max":[1,1.5,1],"min":[1,1.5,1],"type":"VEC3"},{"bufferView":20,"componentType":5126,"count":6,"max":[0.5833333134651184],"min":[0.375],"type":"SCALAR"},{"bufferView":21,"componentType":5126,"count":6,"max":[0.13052618503570557,0,0,1],"min":[0,0,0,0.9914448857307434],"type":"VEC4"},{"bufferView":22,"componentType":5126,"count":6,"max":[0.5833333134651184],"min":[0.375],"type":"SCALAR"},{"bufferView":23,"componentType":5126,"count":6,"max":[0.5,0.5625,1.074375033378601],"min":[0.1875,-0.3075000047683716,0.6875],"type":"VEC3"},{"bufferView":24,"componentType":5126,"count":2,"max":[0.5],"min":[0.4583333432674408],"type":"SCALAR"},{"bufferView":25,"componentType":5126,"count":2,"max":[1,1,1],"min":[0,0,0],"type":"VEC3"}]}