{"asset":{"version":"2.0","generator":"Blockbench 4.8.3 glTF exporter"},"scenes":[{"nodes":[11],"name":"blockbench_export"}],"scene":0,"nodes":[{"translation":[0.375,-0.6875,0],"name":"RightHand"},{"translation":[-0.4375,0.7875000000000003,-0.5625],"name":"R","children":[0]},{"translation":[0.5,0.4111328125,0.6982421875],"name":"lever"},{"translation":[0.5,0.5625,0.6875],"name":"bullets"},{"translation":[0.5000000142045454,0.5582633322426827,0.850413841632745],"name":"bolt"},{"translation":[0.49609375,0.490234375,0.912109375],"name":"hammer"},{"translation":[-0.5625,-0.3999999999999997,-1.0625],"name":"1895","children":[2,3,4,5]},{"translation":[0.03125,0.07187499999999969,0],"name":"bone","children":[1,6]},{"translation":[-0.375,-0.6875,0],"name":"LeftHand"},{"translation":[0.34375,0.859375,-0.5625],"name":"l","children":[8]},{"translation":[0.53125,0.328125,1.0625],"name":"bone2","children":[7,9]},{"children":[10]}],"animations":[{"name":"inspect","samplers":[{"input":0,"output":1,"interpolation":"LINEAR"},{"input":2,"output":3,"interpolation":"LINEAR"},{"input":4,"output":5,"interpolation":"LINEAR"},{"input":6,"output":7,"interpolation":"LINEAR"},{"input":8,"output":9,"interpolation":"LINEAR"},{"input":10,"output":11,"interpolation":"LINEAR"},{"input":12,"output":13,"interpolation":"LINEAR"},{"input":14,"output":15,"interpolation":"LINEAR"},{"input":16,"output":17,"interpolation":"LINEAR"},{"input":18,"output":19,"interpolation":"LINEAR"},{"input":20,"output":21,"interpolation":"LINEAR"},{"input":22,"output":23,"interpolation":"LINEAR"},{"input":24,"output":25,"interpolation":"LINEAR"},{"input":26,"output":27,"interpolation":"LINEAR"},{"input":28,"output":29,"interpolation":"LINEAR"},{"input":30,"output":31,"interpolation":"LINEAR"},{"input":32,"output":33,"interpolation":"LINEAR"},{"input":34,"output":35,"interpolation":"LINEAR"},{"input":36,"output":37,"interpolation":"LINEAR"}],"channels":[{"sampler":0,"target":{"node":10,"path":"rotation"}},{"sampler":1,"target":{"node":10,"path":"translation"}},{"sampler":2,"target":{"node":7,"path":"rotation"}},{"sampler":3,"target":{"node":7,"path":"translation"}},{"sampler":4,"target":{"node":1,"path":"rotation"}},{"sampler":5,"target":{"node":1,"path":"translation"}},{"sampler":6,"target":{"node":1,"path":"scale"}},{"sampler":7,"target":{"node":9,"path":"rotation"}},{"sampler":8,"target":{"node":9,"path":"translation"}},{"sampler":9,"target":{"node":9,"path":"scale"}},{"sampler":10,"target":{"node":2,"path":"rotation"}},{"sampler":11,"target":{"node":2,"path":"translation"}},{"sampler":12,"target":{"node":3,"path":"rotation"}},{"sampler":13,"target":{"node":3,"path":"translation"}},{"sampler":14,"target":{"node":3,"path":"scale"}},{"sampler":15,"target":{"node":5,"path":"rotation"}},{"sampler":16,"target":{"node":5,"path":"translation"}},{"sampler":17,"target":{"node":4,"path":"rotation"}},{"sampler":18,"target":{"node":4,"path":"translation"}}]}],"bufferViews":[{"buffer":0,"byteOffset":0,"byteLength":380},{"buffer":0,"byteOffset":380,"byteLength":1520},{"buffer":0,"byteOffset":1900,"byteLength":380},{"buffer":0,"byteOffset":2280,"byteLength":1140},{"buffer":0,"byteOffset":3420,"byteLength":384},{"buffer":0,"byteOffset":3804,"byteLength":1536},{"buffer":0,"byteOffset":5340,"byteLength":380},{"buffer":0,"byteOffset":5720,"byteLength":1140},{"buffer":0,"byteOffset":6860,"byteLength":4},{"buffer":0,"byteOffset":6864,"byteLength":16},{"buffer":0,"byteOffset":6880,"byteLength":4},{"buffer":0,"byteOffset":6884,"byteLength":12},{"buffer":0,"byteOffset":6896,"byteLength":4},{"buffer":0,"byteOffset":6900,"byteLength":12},{"buffer":0,"byteOffset":6912,"byteLength":368},{"buffer":0,"byteOffset":7280,"byteLength":1472},{"buffer":0,"byteOffset":8752,"byteLength":368},{"buffer":0,"byteOffset":9120,"byteLength":1104},{"buffer":0,"byteOffset":10224,"byteLength":4},{"buffer":0,"byteOffset":10228,"byteLength":12},{"buffer":0,"byteOffset":10240,"byteLength":4},{"buffer":0,"byteOffset":10244,"byteLength":16},{"buffer":0,"byteOffset":10260,"byteLength":4},{"buffer":0,"byteOffset":10264,"byteLength":12},{"buffer":0,"byteOffset":10276,"byteLength":4},{"buffer":0,"byteOffset":10280,"byteLength":16},{"buffer":0,"byteOffset":10296,"byteLength":4},{"buffer":0,"byteOffset":10300,"byteLength":12},{"buffer":0,"byteOffset":10312,"byteLength":4},{"buffer":0,"byteOffset":10316,"byteLength":12},{"buffer":0,"byteOffset":10328,"byteLength":4},{"buffer":0,"byteOffset":10332,"byteLength":16},{"buffer":0,"byteOffset":10348,"byteLength":4},{"buffer":0,"byteOffset":10352,"byteLength":12},{"buffer":0,"byteOffset":10364,"byteLength":4},{"buffer":0,"byteOffset":10368,"byteLength":16},{"buffer":0,"byteOffset":10384,"byteLength":4},{"buffer":0,"byteOffset":10388,"byteLength":12}],"buffers":[{"byteLength":10400,"uri":"data:application/octet-stream;base64,"}],"accessors":[{"bufferView":0,"componentType":5126,"count":95,"max":[3.9166667461395264],"min":[0],"type":"SCALAR"},{"bufferView":1,"componentType":5126,"count":95,"max":[0.0018324395641684532,0.00034881706233136356,0.03446871414780617,1],"min":[-0.024003244936466217,-0.00009062456956598908,-0.02399597316980362,0.9993235468864441],"type":"VEC4"},{"bufferView":2,"componentType":5126,"count":95,"max":[3.9166667461395264],"min":[0],"type":"SCALAR"},{"bufferView":3,"componentType":5126,"count":95,"max":[0.5318750143051147,0.3343749940395355,1.0643750429153442],"min":[0.5224999785423279,0.3231250047683716,1.0381250381469727],"type":"VEC3"},{"bufferView":4,"componentType":5126,"count":96,"max":[3.9583332538604736],"min":[0],"type":"SCALAR"},{"bufferView":5,"componentType":5126,"count":96,"max":[0.249735027551651,0.3296205997467041,0.6319594979286194,1],"min":[-0.00323505443520844,-0.03470363840460777,-0.4160626232624054,0.7494819760322571],"type":"VEC4"},{"bufferView":6,"componentType":5126,"count":95,"max":[3.9166667461395264],"min":[0],"type":"SCALAR"},{"bufferView":7,"componentType":5126,"count":95,"max":[0.03125,0.12250000238418579,0.10875000059604645],"min":[0.03125,0.07124999910593033,-0.0018749999580904841],"type":"VEC3"},{"bufferView":8,"componentType":5126,"count":1,"max":[0],"min":[0],"type":"SCALAR"},{"bufferView":9,"componentType":5126,"count":1,"max":[-0.06577769666910172,0.7553325295448303,-0.6479650139808655,-0.07271435111761093],"min":[-0.06577769666910172,0.7553325295448303,-0.6479650139808655,-0.07271435111761093],"type":"VEC4"},{"bufferView":10,"componentType":5126,"count":1,"max":[0],"min":[0],"type":"SCALAR"},{"bufferView":11,"componentType":5126,"count":1,"max":[-0.013749999925494194,-0.026249999180436134,-0.0625],"min":[-0.013749999925494194,-0.026249999180436134,-0.0625],"type":"VEC3"},{"bufferView":12,"componentType":5126,"count":1,"max":[0],"min":[0],"type":"SCALAR"},{"bufferView":13,"componentType":5126,"count":1,"max":[1,1.5,1],"min":[1,1.5,1],"type":"VEC3"},{"bufferView":14,"componentType":5126,"count":92,"max":[3.7916667461395264],"min":[0],"type":"SCALAR"},{"bufferView":15,"componentType":5126,"count":92,"max":[-0.15174920856952667,0.6090010404586792,-0.4277845621109009,0.6465123891830444],"min":[-0.43649908900260925,0.4542097747325897,-0.7310426831245422,0.2621804177761078],"type":"VEC4"},{"bufferView":16,"componentType":5126,"count":92,"max":[3.7916667461395264],"min":[0],"type":"SCALAR"},{"bufferView":17,"componentType":5126,"count":92,"max":[-0.07249999791383743,0.13562500476837158,-0.4893749952316284],"min":[-0.6349999904632568,-0.793749988079071,-0.7637500166893005],"type":"VEC3"},{"bufferView":18,"componentType":5126,"count":1,"max":[0],"min":[0],"type":"SCALAR"},{"bufferView":19,"componentType":5126,"count":1,"max":[1,1.5,1],"min":[1,1.5,1],"type":"VEC3"},{"bufferView":20,"componentType":5126,"count":1,"max":[0],"min":[0],"type":"SCALAR"},{"bufferView":21,"componentType":5126,"count":1,"max":[0,0,0,1],"min":[0,0,0,1],"type":"VEC4"},{"bufferView":22,"componentType":5126,"count":1,"max":[0],"min":[0],"type":"SCALAR"},{"bufferView":23,"componentType":5126,"count":1,"max":[0.5,0.4111328125,0.6982421875],"min":[0.5,0.4111328125,0.6982421875],"type":"VEC3"},{"bufferView":24,"componentType":5126,"count":1,"max":[0],"min":[0],"type":"SCALAR"},{"bufferView":25,"componentType":5126,"count":1,"max":[0,0,0,1],"min":[0,0,0,1],"type":"VEC4"},{"bufferView":26,"componentType":5126,"count":1,"max":[0],"min":[0],"type":"SCALAR"},{"bufferView":27,"componentType":5126,"count":1,"max":[0.5,0.5625,0.6875],"min":[0.5,0.5625,0.6875],"type":"VEC3"},{"bufferView":28,"componentType":5126,"count":1,"max":[0],"min":[0],"type":"SCALAR"},{"bufferView":29,"componentType":5126,"count":1,"max":[1,1,1],"min":[1,1,1],"type":"VEC3"},{"bufferView":30,"componentType":5126,"count":1,"max":[0],"min":[0],"type":"SCALAR"},{"bufferView":31,"componentType":5126,"count":1,"max":[0.4226182699203491,0,0,0.9063078165054321],"min":[0.4226182699203491,0,0,0.9063078165054321],"type":"VEC4"},{"bufferView":32,"componentType":5126,"count":1,"max":[0],"min":[0],"type":"SCALAR"},{"bufferView":33,"componentType":5126,"count":1,"max":[0.49609375,0.490234375,0.912109375],"min":[0.49609375,0.490234375,0.912109375],"type":"VEC3"},{"bufferView":34,"componentType":5126,"count":1,"max":[0],"min":[0],"type":"SCALAR"},{"bufferView":35,"componentType":5126,"count":1,"max":[0,0,0,1],"min":[0,0,0,1],"type":"VEC4"},{"bufferView":36,"componentType":5126,"count":1,"max":[0],"min":[0],"type":"SCALAR"},{"bufferView":37,"componentType":5126,"count":1,"max":[0.5,0.55826336145401,0.8504138588905334],"min":[0.5,0.55826336145401,0.8504138588905334],"type":"VEC3"}]}