{"asset":{"version":"2.0","generator":"Blockbench 4.8.3 glTF exporter"},"scenes":[{"nodes":[11],"name":"blockbench_export"}],"scene":0,"nodes":[{"translation":[0.375,-0.6875,0],"name":"RightHand"},{"translation":[-0.4375,0.7875000000000003,-0.5625],"name":"R","children":[0]},{"translation":[0.5,0.4111328125,0.6982421875],"name":"lever"},{"translation":[0.5,0.5625,0.6875],"name":"bullets"},{"translation":[0.5000000142045454,0.5582633322426827,0.850413841632745],"name":"bolt"},{"translation":[0.49609375,0.490234375,0.912109375],"name":"hammer"},{"translation":[-0.5625,-0.3999999999999997,-1.0625],"name":"1895","children":[2,3,4,5]},{"translation":[0.03125,0.07187499999999969,0],"name":"bone","children":[1,6]},{"translation":[-0.375,-0.6875,0],"name":"LeftHand"},{"translation":[0.34375,0.859375,-0.5625],"name":"l","children":[8]},{"translation":[0.53125,0.328125,1.0625],"name":"bone2","children":[7,9]},{"children":[10]}],"animations":[{"name":"reload_end","samplers":[{"input":0,"output":1,"interpolation":"LINEAR"},{"input":2,"output":3,"interpolation":"LINEAR"},{"input":4,"output":5,"interpolation":"LINEAR"},{"input":6,"output":7,"interpolation":"LINEAR"},{"input":8,"output":9,"interpolation":"LINEAR"},{"input":10,"output":11,"interpolation":"LINEAR"},{"input":12,"output":13,"interpolation":"LINEAR"},{"input":14,"output":15,"interpolation":"LINEAR"},{"input":16,"output":17,"interpolation":"LINEAR"},{"input":18,"output":19,"interpolation":"LINEAR"},{"input":20,"output":21,"interpolation":"LINEAR"},{"input":22,"output":23,"interpolation":"LINEAR"},{"input":24,"output":25,"interpolation":"LINEAR"},{"input":26,"output":27,"interpolation":"LINEAR"},{"input":28,"output":29,"interpolation":"LINEAR"},{"input":30,"output":31,"interpolation":"LINEAR"},{"input":32,"output":33,"interpolation":"LINEAR"},{"input":34,"output":35,"interpolation":"LINEAR"},{"input":36,"output":37,"interpolation":"LINEAR"}],"channels":[{"sampler":0,"target":{"node":10,"path":"rotation"}},{"sampler":1,"target":{"node":10,"path":"translation"}},{"sampler":2,"target":{"node":7,"path":"rotation"}},{"sampler":3,"target":{"node":7,"path":"translation"}},{"sampler":4,"target":{"node":1,"path":"rotation"}},{"sampler":5,"target":{"node":1,"path":"translation"}},{"sampler":6,"target":{"node":1,"path":"scale"}},{"sampler":7,"target":{"node":9,"path":"rotation"}},{"sampler":8,"target":{"node":9,"path":"translation"}},{"sampler":9,"target":{"node":9,"path":"scale"}},{"sampler":10,"target":{"node":2,"path":"rotation"}},{"sampler":11,"target":{"node":2,"path":"translation"}},{"sampler":12,"target":{"node":3,"path":"rotation"}},{"sampler":13,"target":{"node":3,"path":"translation"}},{"sampler":14,"target":{"node":3,"path":"scale"}},{"sampler":15,"target":{"node":5,"path":"rotation"}},{"sampler":16,"target":{"node":5,"path":"translation"}},{"sampler":17,"target":{"node":4,"path":"rotation"}},{"sampler":18,"target":{"node":4,"path":"translation"}}]}],"bufferViews":[{"buffer":0,"byteOffset":0,"byteLength":148},{"buffer":0,"byteOffset":148,"byteLength":592},{"buffer":0,"byteOffset":740,"byteLength":144},{"buffer":0,"byteOffset":884,"byteLength":432},{"buffer":0,"byteOffset":1316,"byteLength":36},{"buffer":0,"byteOffset":1352,"byteLength":144},{"buffer":0,"byteOffset":1496,"byteLength":40},{"buffer":0,"byteOffset":1536,"byteLength":120},{"buffer":0,"byteOffset":1656,"byteLength":92},{"buffer":0,"byteOffset":1748,"byteLength":368},{"buffer":0,"byteOffset":2116,"byteLength":92},{"buffer":0,"byteOffset":2208,"byteLength":276},{"buffer":0,"byteOffset":2484,"byteLength":4},{"buffer":0,"byteOffset":2488,"byteLength":12},{"buffer":0,"byteOffset":2500,"byteLength":128},{"buffer":0,"byteOffset":2628,"byteLength":512},{"buffer":0,"byteOffset":3140,"byteLength":124},{"buffer":0,"byteOffset":3264,"byteLength":372},{"buffer":0,"byteOffset":3636,"byteLength":4},{"buffer":0,"byteOffset":3640,"byteLength":12},{"buffer":0,"byteOffset":3652,"byteLength":36},{"buffer":0,"byteOffset":3688,"byteLength":144},{"buffer":0,"byteOffset":3832,"byteLength":4},{"buffer":0,"byteOffset":3836,"byteLength":12},{"buffer":0,"byteOffset":3848,"byteLength":52},{"buffer":0,"byteOffset":3900,"byteLength":208},{"buffer":0,"byteOffset":4108,"byteLength":52},{"buffer":0,"byteOffset":4160,"byteLength":156},{"buffer":0,"byteOffset":4316,"byteLength":8},{"buffer":0,"byteOffset":4324,"byteLength":24},{"buffer":0,"byteOffset":4348,"byteLength":12},{"buffer":0,"byteOffset":4360,"byteLength":48},{"buffer":0,"byteOffset":4408,"byteLength":4},{"buffer":0,"byteOffset":4412,"byteLength":12},{"buffer":0,"byteOffset":4424,"byteLength":4},{"buffer":0,"byteOffset":4428,"byteLength":16},{"buffer":0,"byteOffset":4444,"byteLength":36},{"buffer":0,"byteOffset":4480,"byteLength":108}],"buffers":[{"byteLength":4588,"uri":"data:application/octet-stream;base64,"}],"accessors":[{"bufferView":0,"componentType":5126,"count":37,"max":[1.5],"min":[0],"type":"SCALAR"},{"bufferView":1,"componentType":5126,"count":37,"max":[0.1127827987074852,0.03538938984274864,0.5332205891609192,1],"min":[-0.02491222694516182,-0.046741779893636703,-0.016517946496605873,0.8385673761367798],"type":"VEC4"},{"bufferView":2,"componentType":5126,"count":36,"max":[1.4583333730697632],"min":[0],"type":"SCALAR"},{"bufferView":3,"componentType":5126,"count":36,"max":[0.5331249833106995,0.35749998688697815,1.134374976158142],"min":[0.48124998807907104,0.2762500047683716,0.981249988079071],"type":"VEC3"},{"bufferView":4,"componentType":5126,"count":9,"max":[0.375],"min":[0.0416666679084301],"type":"SCALAR"},{"bufferView":5,"componentType":5126,"count":9,"max":[0.08718837052583694,0.0028683270793408155,0.5501007437705994,1],"min":[-0.021568136289715767,-0.03331081569194794,0,0.8298938870429993],"type":"VEC4"},{"bufferView":6,"componentType":5126,"count":10,"max":[0.4166666567325592],"min":[0.0416666679084301],"type":"SCALAR"},{"bufferView":7,"componentType":5126,"count":10,"max":[0.03187499940395355,0.10999999940395355,0.05874999985098839],"min":[0.026249999180436134,0.07187499850988388,-0.00937500037252903],"type":"VEC3"},{"bufferView":8,"componentType":5126,"count":23,"max":[0.9583333134651184],"min":[0.0416666679084301],"type":"SCALAR"},{"bufferView":9,"componentType":5126,"count":23,"max":[-0.06577769666910172,0.7889983654022217,-0.5987290740013123,-0.07271435111761093],"min":[-0.2846323847770691,0.34705856442451477,-0.8185130953788757,-0.3585680425167084],"type":"VEC4"},{"bufferView":10,"componentType":5126,"count":23,"max":[0.9583333134651184],"min":[0.0416666679084301],"type":"SCALAR"},{"bufferView":11,"componentType":5126,"count":23,"max":[-0.013749999925494194,-0.026249999180436134,0.0625],"min":[-0.38874998688697815,-0.8387500047683716,-0.1875],"type":"VEC3"},{"bufferView":12,"componentType":5126,"count":1,"max":[0.0416666679084301],"min":[0.0416666679084301],"type":"SCALAR"},{"bufferView":13,"componentType":5126,"count":1,"max":[1,1.5,1],"min":[1,1.5,1],"type":"VEC3"},{"bufferView":14,"componentType":5126,"count":32,"max":[1.3333333730697632],"min":[0.0416666679084301],"type":"SCALAR"},{"bufferView":15,"componentType":5126,"count":32,"max":[-0.19176313281059265,0.6146240234375,-0.5295608043670654,0.5567243099212646],"min":[-0.26173707842826843,0.47400230169296265,-0.6299790143966675,0.48884475231170654],"type":"VEC4"},{"bufferView":16,"componentType":5126,"count":31,"max":[1.2916666269302368],"min":[0.0416666679084301],"type":"SCALAR"},{"bufferView":17,"componentType":5126,"count":31,"max":[-0.07249999791383743,0.01875000074505806,-0.4437499940395355],"min":[-0.17687499523162842,0.01875000074505806,-0.7825000286102295],"type":"VEC3"},{"bufferView":18,"componentType":5126,"count":1,"max":[0.0416666679084301],"min":[0.0416666679084301],"type":"SCALAR"},{"bufferView":19,"componentType":5126,"count":1,"max":[1,1.5,1],"min":[1,1.5,1],"type":"VEC3"},{"bufferView":20,"componentType":5126,"count":9,"max":[0.9166666865348816],"min":[0.5833333134651184],"type":"SCALAR"},{"bufferView":21,"componentType":5126,"count":9,"max":[0.3420201539993286,0,0,1],"min":[0,0,0,0.9396926164627075],"type":"VEC4"},{"bufferView":22,"componentType":5126,"count":1,"max":[0.5833333134651184],"min":[0.5833333134651184],"type":"SCALAR"},{"bufferView":23,"componentType":5126,"count":1,"max":[0.5,0.4111328125,0.6982421875],"min":[0.5,0.4111328125,0.6982421875],"type":"VEC3"},{"bufferView":24,"componentType":5126,"count":13,"max":[1.0833333730697632],"min":[0.5833333134651184],"type":"SCALAR"},{"bufferView":25,"componentType":5126,"count":13,"max":[0.01805810071527958,0.13683374226093292,0.861419677734375,1],"min":[-0.04690849408507347,0,0,0.4868595600128174],"type":"VEC4"},{"bufferView":26,"componentType":5126,"count":13,"max":[1.0833333730697632],"min":[0.5833333134651184],"type":"SCALAR"},{"bufferView":27,"componentType":5126,"count":13,"max":[1.6062500476837158,0.5625,0.6875],"min":[0.5,-0.2524999976158142,0.6875],"type":"VEC3"},{"bufferView":28,"componentType":5126,"count":2,"max":[0.9583333134651184],"min":[0.9166666865348816],"type":"SCALAR"},{"bufferView":29,"componentType":5126,"count":2,"max":[1,1,1],"min":[0,0,0],"type":"VEC3"},{"bufferView":30,"componentType":5126,"count":3,"max":[0.7083333134651184],"min":[0.625],"type":"SCALAR"},{"bufferView":31,"componentType":5126,"count":3,"max":[0.4226182699203491,0,0,1],"min":[0,0,0,0.9063078165054321],"type":"VEC4"},{"bufferView":32,"componentType":5126,"count":1,"max":[0.625],"min":[0.625],"type":"SCALAR"},{"bufferView":33,"componentType":5126,"count":1,"max":[0.49609375,0.490234375,0.912109375],"min":[0.49609375,0.490234375,0.912109375],"type":"VEC3"},{"bufferView":34,"componentType":5126,"count":1,"max":[0.5833333134651184],"min":[0.5833333134651184],"type":"SCALAR"},{"bufferView":35,"componentType":5126,"count":1,"max":[0,0,0,1],"min":[0,0,0,1],"type":"VEC4"},{"bufferView":36,"componentType":5126,"count":9,"max":[0.9166666865348816],"min":[0.5833333134651184],"type":"SCALAR"},{"bufferView":37,"componentType":5126,"count":9,"max":[0.5,0.55826336145401,1.0691637992858887],"min":[0.5,0.55826336145401,0.8504138588905334],"type":"VEC3"}]}