{"asset":{"version":"2.0","generator":"Blockbench 4.8.3 glTF exporter"},"scenes":[{"nodes":[11],"name":"blockbench_export"}],"scene":0,"nodes":[{"translation":[0.375,-0.6875,0],"name":"RightHand"},{"translation":[-0.4375,0.7875000000000003,-0.5625],"name":"R","children":[0]},{"translation":[0.5,0.4111328125,0.6982421875],"name":"lever"},{"translation":[0.5,0.5625,0.6875],"name":"bullets"},{"translation":[0.5000000142045454,0.5582633322426827,0.850413841632745],"name":"bolt"},{"translation":[0.49609375,0.490234375,0.912109375],"name":"hammer"},{"translation":[-0.5625,-0.3999999999999997,-1.0625],"name":"1895","children":[2,3,4,5]},{"translation":[0.03125,0.07187499999999969,0],"name":"bone","children":[1,6]},{"translation":[-0.375,-0.6875,0],"name":"LeftHand"},{"translation":[0.34375,0.859375,-0.5625],"name":"l","children":[8]},{"translation":[0.53125,0.328125,1.0625],"name":"bone2","children":[7,9]},{"children":[10]}],"animations":[{"name":"reload_intro","samplers":[{"input":0,"output":1,"interpolation":"LINEAR"},{"input":2,"output":3,"interpolation":"LINEAR"},{"input":4,"output":5,"interpolation":"LINEAR"},{"input":6,"output":7,"interpolation":"LINEAR"},{"input":8,"output":9,"interpolation":"LINEAR"},{"input":10,"output":11,"interpolation":"LINEAR"},{"input":12,"output":13,"interpolation":"LINEAR"},{"input":14,"output":15,"interpolation":"LINEAR"},{"input":16,"output":17,"interpolation":"LINEAR"},{"input":18,"output":19,"interpolation":"LINEAR"},{"input":20,"output":21,"interpolation":"LINEAR"},{"input":22,"output":23,"interpolation":"LINEAR"},{"input":24,"output":25,"interpolation":"LINEAR"}],"channels":[{"sampler":0,"target":{"node":10,"path":"rotation"}},{"sampler":1,"target":{"node":10,"path":"translation"}},{"sampler":2,"target":{"node":7,"path":"rotation"}},{"sampler":3,"target":{"node":7,"path":"translation"}},{"sampler":4,"target":{"node":1,"path":"rotation"}},{"sampler":5,"target":{"node":1,"path":"translation"}},{"sampler":6,"target":{"node":1,"path":"scale"}},{"sampler":7,"target":{"node":9,"path":"rotation"}},{"sampler":8,"target":{"node":9,"path":"translation"}},{"sampler":9,"target":{"node":9,"path":"scale"}},{"sampler":10,"target":{"node":3,"path":"rotation"}},{"sampler":11,"target":{"node":3,"path":"translation"}},{"sampler":12,"target":{"node":3,"path":"scale"}}]}],"bufferViews":[{"buffer":0,"byteOffset":0,"byteLength":12},{"buffer":0,"byteOffset":12,"byteLength":48},{"buffer":0,"byteOffset":60,"byteLength":12},{"buffer":0,"byteOffset":72,"byteLength":36},{"buffer":0,"byteOffset":108,"byteLength":16},{"buffer":0,"byteOffset":124,"byteLength":64},{"buffer":0,"byteOffset":188,"byteLength":16},{"buffer":0,"byteOffset":204,"byteLength":48},{"buffer":0,"byteOffset":252,"byteLength":12},{"buffer":0,"byteOffset":264,"byteLength":48},{"buffer":0,"byteOffset":312,"byteLength":12},{"buffer":0,"byteOffset":324,"byteLength":36},{"buffer":0,"byteOffset":360,"byteLength":4},{"buffer":0,"byteOffset":364,"byteLength":12},{"buffer":0,"byteOffset":376,"byteLength":16},{"buffer":0,"byteOffset":392,"byteLength":64},{"buffer":0,"byteOffset":456,"byteLength":8},{"buffer":0,"byteOffset":464,"byteLength":24},{"buffer":0,"byteOffset":488,"byteLength":4},{"buffer":0,"byteOffset":492,"byteLength":12},{"buffer":0,"byteOffset":504,"byteLength":12},{"buffer":0,"byteOffset":516,"byteLength":48},{"buffer":0,"byteOffset":564,"byteLength":12},{"buffer":0,"byteOffset":576,"byteLength":36},{"buffer":0,"byteOffset":612,"byteLength":8},{"buffer":0,"byteOffset":620,"byteLength":24}],"buffers":[{"byteLength":644,"uri":"data:application/octet-stream;base64,"}],"accessors":[{"bufferView":0,"componentType":5126,"count":3,"max":[0.5416666865348816],"min":[0.3333333432674408],"type":"SCALAR"},{"bufferView":1,"componentType":5126,"count":3,"max":[0.037047892808914185,0.0015365735162049532,0.041427768766880035,1],"min":[0,0,0,0.9984539151191711],"type":"VEC4"},{"bufferView":2,"componentType":5126,"count":3,"max":[0.5416666865348816],"min":[0.3333333432674408],"type":"SCALAR"},{"bufferView":3,"componentType":5126,"count":3,"max":[0.53125,0.3525390625,1.1396484375],"min":[0.53125,0.328125,1.0625],"type":"VEC3"},{"bufferView":4,"componentType":5126,"count":4,"max":[0.3333333432674408],"min":[0.0416666679084301],"type":"SCALAR"},{"bufferView":5,"componentType":5126,"count":4,"max":[0.08717556297779083,0,0.5696834921836853,1],"min":[0,-0.0369889959692955,0,0.8168567419052124],"type":"VEC4"},{"bufferView":6,"componentType":5126,"count":4,"max":[0.3333333432674408],"min":[0.0416666679084301],"type":"SCALAR"},{"bufferView":7,"componentType":5126,"count":4,"max":[0.03125,0.07187499850988388,0.08203125],"min":[0.0263671875,0.07187499850988388,0],"type":"VEC3"},{"bufferView":8,"componentType":5126,"count":3,"max":[0.5833333134651184],"min":[0.3333333432674408],"type":"SCALAR"},{"bufferView":9,"componentType":5126,"count":3,"max":[-0.06580641865730286,0.7553289532661438,-0.6479695439338684,-0.0726853460073471],"min":[-0.28458935022354126,0.3470710515975952,-0.818518877029419,-0.3585769236087799],"type":"VEC4"},{"bufferView":10,"componentType":5126,"count":3,"max":[0.5833333134651184],"min":[0.3333333432674408],"type":"SCALAR"},{"bufferView":11,"componentType":5126,"count":3,"max":[-0.013671875,-0.02597656287252903,0.0625],"min":[-0.38874998688697815,-0.8387500047683716,-0.0625],"type":"VEC3"},{"bufferView":12,"componentType":5126,"count":1,"max":[0.3333333432674408],"min":[0.3333333432674408],"type":"SCALAR"},{"bufferView":13,"componentType":5126,"count":1,"max":[1,1.5,1],"min":[1,1.5,1],"type":"VEC3"},{"bufferView":14,"componentType":5126,"count":4,"max":[0.3333333432674408],"min":[0.0416666679084301],"type":"SCALAR"},{"bufferView":15,"componentType":5126,"count":4,"max":[-0.2165694236755371,0.5915321707725525,-0.5635428428649902,0.5676045417785645],"min":[-0.2617326080799103,0.4533623456954956,-0.6465821862220764,0.534421980381012],"type":"VEC4"},{"bufferView":16,"componentType":5126,"count":2,"max":[0.2083333283662796],"min":[0.0416666679084301],"type":"SCALAR"},{"bufferView":17,"componentType":5126,"count":2,"max":[-0.072265625,0.01875000074505806,-0.44343748688697815],"min":[-0.17699219286441803,0.0185546875,-0.763671875],"type":"VEC3"},{"bufferView":18,"componentType":5126,"count":1,"max":[0.0416666679084301],"min":[0.0416666679084301],"type":"SCALAR"},{"bufferView":19,"componentType":5126,"count":1,"max":[1,1.5,1],"min":[1,1.5,1],"type":"VEC3"},{"bufferView":20,"componentType":5126,"count":3,"max":[0.5833333134651184],"min":[0.375],"type":"SCALAR"},{"bufferView":21,"componentType":5126,"count":3,"max":[0.13052618503570557,0,0,1],"min":[0,0,0,0.9914448857307434],"type":"VEC4"},{"bufferView":22,"componentType":5126,"count":3,"max":[0.5833333134651184],"min":[0.375],"type":"SCALAR"},{"bufferView":23,"componentType":5126,"count":3,"max":[0.5,0.5625,1.07421875],"min":[0.1875,-0.3076171875,0.6875],"type":"VEC3"},{"bufferView":24,"componentType":5126,"count":2,"max":[0.5],"min":[0.4583333432674408],"type":"SCALAR"},{"bufferView":25,"componentType":5126,"count":2,"max":[1,1,1],"min":[0,0,0],"type":"VEC3"}]}