{"asset":{"version":"2.0","generator":"Blockbench 4.8.3 glTF exporter"},"scenes":[{"nodes":[11],"name":"blockbench_export"}],"scene":0,"nodes":[{"translation":[0.375,-0.6875,0],"name":"RightHand"},{"translation":[-0.4375,0.7875000000000003,-0.5625],"name":"R","children":[0]},{"translation":[0.5,0.4111328125,0.6982421875],"name":"lever"},{"translation":[0.5,0.5625,0.6875],"name":"bullets"},{"translation":[0.5000000142045454,0.5582633322426827,0.850413841632745],"name":"bolt"},{"translation":[0.49609375,0.490234375,0.912109375],"name":"hammer"},{"translation":[-0.5625,-0.3999999999999997,-1.0625],"name":"1895","children":[2,3,4,5]},{"translation":[0.03125,0.07187499999999969,0],"name":"bone","children":[1,6]},{"translation":[-0.375,-0.6875,0],"name":"LeftHand"},{"translation":[0.34375,0.859375,-0.5625],"name":"l","children":[8]},{"translation":[0.53125,0.328125,1.0625],"name":"bone2","children":[7,9]},{"children":[10]}],"animations":[{"name":"reload_loop","samplers":[{"input":0,"output":1,"interpolation":"LINEAR"},{"input":2,"output":3,"interpolation":"LINEAR"},{"input":4,"output":5,"interpolation":"LINEAR"},{"input":6,"output":7,"interpolation":"LINEAR"},{"input":8,"output":9,"interpolation":"LINEAR"},{"input":10,"output":11,"interpolation":"LINEAR"},{"input":12,"output":13,"interpolation":"LINEAR"},{"input":14,"output":15,"interpolation":"LINEAR"},{"input":16,"output":17,"interpolation":"LINEAR"},{"input":18,"output":19,"interpolation":"LINEAR"},{"input":20,"output":21,"interpolation":"LINEAR"},{"input":22,"output":23,"interpolation":"LINEAR"},{"input":24,"output":25,"interpolation":"LINEAR"}],"channels":[{"sampler":0,"target":{"node":10,"path":"rotation"}},{"sampler":1,"target":{"node":10,"path":"translation"}},{"sampler":2,"target":{"node":7,"path":"rotation"}},{"sampler":3,"target":{"node":7,"path":"translation"}},{"sampler":4,"target":{"node":1,"path":"rotation"}},{"sampler":5,"target":{"node":1,"path":"translation"}},{"sampler":6,"target":{"node":1,"path":"scale"}},{"sampler":7,"target":{"node":9,"path":"rotation"}},{"sampler":8,"target":{"node":9,"path":"translation"}},{"sampler":9,"target":{"node":9,"path":"scale"}},{"sampler":10,"target":{"node":3,"path":"rotation"}},{"sampler":11,"target":{"node":3,"path":"translation"}},{"sampler":12,"target":{"node":3,"path":"scale"}}]}],"bufferViews":[{"buffer":0,"byteOffset":0,"byteLength":84},{"buffer":0,"byteOffset":84,"byteLength":336},{"buffer":0,"byteOffset":420,"byteLength":84},{"buffer":0,"byteOffset":504,"byteLength":252},{"buffer":0,"byteOffset":756,"byteLength":4},{"buffer":0,"byteOffset":760,"byteLength":16},{"buffer":0,"byteOffset":776,"byteLength":4},{"buffer":0,"byteOffset":780,"byteLength":12},{"buffer":0,"byteOffset":792,"byteLength":84},{"buffer":0,"byteOffset":876,"byteLength":336},{"buffer":0,"byteOffset":1212,"byteLength":84},{"buffer":0,"byteOffset":1296,"byteLength":252},{"buffer":0,"byteOffset":1548,"byteLength":4},{"buffer":0,"byteOffset":1552,"byteLength":12},{"buffer":0,"byteOffset":1564,"byteLength":52},{"buffer":0,"byteOffset":1616,"byteLength":208},{"buffer":0,"byteOffset":1824,"byteLength":52},{"buffer":0,"byteOffset":1876,"byteLength":156},{"buffer":0,"byteOffset":2032,"byteLength":4},{"buffer":0,"byteOffset":2036,"byteLength":12},{"buffer":0,"byteOffset":2048,"byteLength":64},{"buffer":0,"byteOffset":2112,"byteLength":256},{"buffer":0,"byteOffset":2368,"byteLength":64},{"buffer":0,"byteOffset":2432,"byteLength":192},{"buffer":0,"byteOffset":2624,"byteLength":8},{"buffer":0,"byteOffset":2632,"byteLength":24}],"buffers":[{"byteLength":2656,"uri":"data:application/octet-stream;base64,"}],"accessors":[{"bufferView":0,"componentType":5126,"count":21,"max":[0.875],"min":[0.0416666679084301],"type":"SCALAR"},{"bufferView":1,"componentType":5126,"count":21,"max":[0.03792932629585266,0.014734604395925999,0.1392529010772705,0.9994457960128784],"min":[0.006724690552800894,-0.0038732928223907948,0.028124097734689713,0.9901526570320129],"type":"VEC4"},{"bufferView":2,"componentType":5126,"count":21,"max":[0.875],"min":[0.0416666679084301],"type":"SCALAR"},{"bufferView":3,"componentType":5126,"count":21,"max":[0.550000011920929,0.35499998927116394,1.1375000476837158],"min":[0.5306249856948853,0.3331249952316284,1.1200000047683716],"type":"VEC3"},{"bufferView":4,"componentType":5126,"count":1,"max":[0.875],"min":[0.875],"type":"SCALAR"},{"bufferView":5,"componentType":5126,"count":1,"max":[0.08718837052583694,-0.032611556351184845,0.5501007437705994,0.8298938870429993],"min":[0.08718837052583694,-0.032611556351184845,0.5501007437705994,0.8298938870429993],"type":"VEC4"},{"bufferView":6,"componentType":5126,"count":1,"max":[0.875],"min":[0.875],"type":"SCALAR"},{"bufferView":7,"componentType":5126,"count":1,"max":[0.026249999180436134,0.07187499850988388,0.05874999985098839],"min":[0.026249999180436134,0.07187499850988388,0.05874999985098839],"type":"VEC3"},{"bufferView":8,"componentType":5126,"count":21,"max":[0.875],"min":[0.0416666679084301],"type":"SCALAR"},{"bufferView":9,"componentType":5126,"count":21,"max":[0.22168326377868652,0.8665820956230164,-0.29767128825187683,-0.295382559299469],"min":[-0.2846323847770691,0.34705856442451477,-0.8185130953788757,-0.4550997316837311],"type":"VEC4"},{"bufferView":10,"componentType":5126,"count":21,"max":[0.875],"min":[0.0416666679084301],"type":"SCALAR"},{"bufferView":11,"componentType":5126,"count":21,"max":[0.036249998956918716,-0.02812499925494194,0.0625],"min":[-0.38874998688697815,-0.8387500047683716,-0.4268749952316284],"type":"VEC3"},{"bufferView":12,"componentType":5126,"count":1,"max":[0.0416666679084301],"min":[0.0416666679084301],"type":"SCALAR"},{"bufferView":13,"componentType":5126,"count":1,"max":[1,1.5,1],"min":[1,1.5,1],"type":"VEC3"},{"bufferView":14,"componentType":5126,"count":13,"max":[0.875],"min":[0.375],"type":"SCALAR"},{"bufferView":15,"componentType":5126,"count":13,"max":[-0.26173707842826843,0.5060067772865295,-0.6045733094215393,0.5567243099212646],"min":[-0.2902311086654663,0.47400230169296265,-0.6299790143966675,0.5424151420593262],"type":"VEC4"},{"bufferView":16,"componentType":5126,"count":13,"max":[0.875],"min":[0.375],"type":"SCALAR"},{"bufferView":17,"componentType":5126,"count":13,"max":[-0.17687499523162842,0.01875000074505806,-0.4437499940395355],"min":[-0.17687499523162842,0.01875000074505806,-0.4437499940395355],"type":"VEC3"},{"bufferView":18,"componentType":5126,"count":1,"max":[0.0416666679084301],"min":[0.0416666679084301],"type":"SCALAR"},{"bufferView":19,"componentType":5126,"count":1,"max":[1,1.5,1],"min":[1,1.5,1],"type":"VEC3"},{"bufferView":20,"componentType":5126,"count":16,"max":[0.6666666865348816],"min":[0.0416666679084301],"type":"SCALAR"},{"bufferView":21,"componentType":5126,"count":16,"max":[0.1327468454837799,0.20186704397201538,0.03355562314391136,1],"min":[0,0,0,0.970673143863678],"type":"VEC4"},{"bufferView":22,"componentType":5126,"count":16,"max":[0.6666666865348816],"min":[0.0416666679084301],"type":"SCALAR"},{"bufferView":23,"componentType":5126,"count":16,"max":[0.5975000262260437,0.5625,1.074375033378601],"min":[0.1875,-0.3075000047683716,0.5337499976158142],"type":"VEC3"},{"bufferView":24,"componentType":5126,"count":2,"max":[0.625],"min":[0.5833333134651184],"type":"SCALAR"},{"bufferView":25,"componentType":5126,"count":2,"max":[1,1,1],"min":[0,0,0],"type":"VEC3"}]}