{"asset":{"version":"2.0","generator":"Blockbench 4.8.3 glTF exporter"},"scenes":[{"nodes":[11],"name":"blockbench_export"}],"scene":0,"nodes":[{"translation":[0.375,-0.6875,0],"name":"RightHand"},{"translation":[-0.4375,0.7875000000000003,-0.5625],"name":"R","children":[0]},{"translation":[0.5,0.4111328125,0.6982421875],"name":"lever"},{"translation":[0.5,0.5625,0.6875],"name":"bullets"},{"translation":[0.5000000142045454,0.5582633322426827,0.850413841632745],"name":"bolt"},{"translation":[0.49609375,0.490234375,0.912109375],"name":"hammer"},{"translation":[-0.5625,-0.3999999999999997,-1.0625],"name":"1895","children":[2,3,4,5]},{"translation":[0.03125,0.07187499999999969,0],"name":"bone","children":[1,6]},{"translation":[-0.375,-0.6875,0],"name":"LeftHand"},{"translation":[0.34375,0.859375,-0.5625],"name":"l","children":[8]},{"translation":[0.53125,0.328125,1.0625],"name":"bone2","children":[7,9]},{"children":[10]}],"animations":[{"name":"fire","samplers":[{"input":0,"output":1,"interpolation":"LINEAR"},{"input":2,"output":3,"interpolation":"LINEAR"},{"input":4,"output":5,"interpolation":"LINEAR"},{"input":6,"output":7,"interpolation":"LINEAR"},{"input":8,"output":9,"interpolation":"LINEAR"},{"input":10,"output":11,"interpolation":"LINEAR"},{"input":12,"output":13,"interpolation":"LINEAR"},{"input":14,"output":15,"interpolation":"LINEAR"},{"input":16,"output":17,"interpolation":"LINEAR"},{"input":18,"output":19,"interpolation":"LINEAR"},{"input":20,"output":21,"interpolation":"LINEAR"},{"input":22,"output":23,"interpolation":"LINEAR"},{"input":24,"output":25,"interpolation":"LINEAR"},{"input":26,"output":27,"interpolation":"LINEAR"},{"input":28,"output":29,"interpolation":"LINEAR"},{"input":30,"output":31,"interpolation":"LINEAR"},{"input":32,"output":33,"interpolation":"LINEAR"},{"input":34,"output":35,"interpolation":"LINEAR"},{"input":36,"output":37,"interpolation":"LINEAR"}],"channels":[{"sampler":0,"target":{"node":10,"path":"rotation"}},{"sampler":1,"target":{"node":10,"path":"translation"}},{"sampler":2,"target":{"node":7,"path":"rotation"}},{"sampler":3,"target":{"node":7,"path":"translation"}},{"sampler":4,"target":{"node":1,"path":"rotation"}},{"sampler":5,"target":{"node":1,"path":"translation"}},{"sampler":6,"target":{"node":1,"path":"scale"}},{"sampler":7,"target":{"node":9,"path":"rotation"}},{"sampler":8,"target":{"node":9,"path":"translation"}},{"sampler":9,"target":{"node":9,"path":"scale"}},{"sampler":10,"target":{"node":2,"path":"rotation"}},{"sampler":11,"target":{"node":2,"path":"translation"}},{"sampler":12,"target":{"node":3,"path":"rotation"}},{"sampler":13,"target":{"node":3,"path":"translation"}},{"sampler":14,"target":{"node":3,"path":"scale"}},{"sampler":15,"target":{"node":5,"path":"rotation"}},{"sampler":16,"target":{"node":5,"path":"translation"}},{"sampler":17,"target":{"node":4,"path":"rotation"}},{"sampler":18,"target":{"node":4,"path":"translation"}}]}],"bufferViews":[{"buffer":0,"byteOffset":0,"byteLength":124},{"buffer":0,"byteOffset":124,"byteLength":496},{"buffer":0,"byteOffset":620,"byteLength":120},{"buffer":0,"byteOffset":740,"byteLength":360},{"buffer":0,"byteOffset":1100,"byteLength":4},{"buffer":0,"byteOffset":1104,"byteLength":16},{"buffer":0,"byteOffset":1120,"byteLength":4},{"buffer":0,"byteOffset":1124,"byteLength":12},{"buffer":0,"byteOffset":1136,"byteLength":68},{"buffer":0,"byteOffset":1204,"byteLength":272},{"buffer":0,"byteOffset":1476,"byteLength":68},{"buffer":0,"byteOffset":1544,"byteLength":204},{"buffer":0,"byteOffset":1748,"byteLength":4},{"buffer":0,"byteOffset":1752,"byteLength":12},{"buffer":0,"byteOffset":1764,"byteLength":104},{"buffer":0,"byteOffset":1868,"byteLength":416},{"buffer":0,"byteOffset":2284,"byteLength":100},{"buffer":0,"byteOffset":2384,"byteLength":300},{"buffer":0,"byteOffset":2684,"byteLength":4},{"buffer":0,"byteOffset":2688,"byteLength":12},{"buffer":0,"byteOffset":2700,"byteLength":64},{"buffer":0,"byteOffset":2764,"byteLength":256},{"buffer":0,"byteOffset":3020,"byteLength":32},{"buffer":0,"byteOffset":3052,"byteLength":96},{"buffer":0,"byteOffset":3148,"byteLength":80},{"buffer":0,"byteOffset":3228,"byteLength":320},{"buffer":0,"byteOffset":3548,"byteLength":80},{"buffer":0,"byteOffset":3628,"byteLength":240},{"buffer":0,"byteOffset":3868,"byteLength":68},{"buffer":0,"byteOffset":3936,"byteLength":204},{"buffer":0,"byteOffset":4140,"byteLength":40},{"buffer":0,"byteOffset":4180,"byteLength":160},{"buffer":0,"byteOffset":4340,"byteLength":32},{"buffer":0,"byteOffset":4372,"byteLength":96},{"buffer":0,"byteOffset":4468,"byteLength":32},{"buffer":0,"byteOffset":4500,"byteLength":128},{"buffer":0,"byteOffset":4628,"byteLength":64},{"buffer":0,"byteOffset":4692,"byteLength":192}],"buffers":[{"byteLength":4884,"uri":"data:application/octet-stream;base64,"}],"accessors":[{"bufferView":0,"componentType":5126,"count":31,"max":[1.25],"min":[0],"type":"SCALAR"},{"bufferView":1,"componentType":5126,"count":31,"max":[0.11044403165578842,0.03150894120335579,0.5100582242012024,1],"min":[-0.025023791939020157,-0.04690861701965332,-0.030995016917586327,0.8552298545837402],"type":"VEC4"},{"bufferView":2,"componentType":5126,"count":30,"max":[1.2083333730697632],"min":[0],"type":"SCALAR"},{"bufferView":3,"componentType":5126,"count":30,"max":[0.5331249833106995,0.33812499046325684,1.0656249523162842],"min":[0.48124998807907104,0.2762500047683716,0.9737499952316284],"type":"VEC3"},{"bufferView":4,"componentType":5126,"count":1,"max":[0],"min":[0],"type":"SCALAR"},{"bufferView":5,"componentType":5126,"count":1,"max":[0,0,0,1],"min":[0,0,0,1],"type":"VEC4"},{"bufferView":6,"componentType":5126,"count":1,"max":[0],"min":[0],"type":"SCALAR"},{"bufferView":7,"componentType":5126,"count":1,"max":[0.03125,0.07187499850988388,0],"min":[0.03125,0.07187499850988388,0],"type":"VEC3"},{"bufferView":8,"componentType":5126,"count":17,"max":[0.6666666865348816],"min":[0],"type":"SCALAR"},{"bufferView":9,"componentType":5126,"count":17,"max":[-0.06577769666910172,0.7889983654022217,-0.5987290740013123,-0.07271435111761093],"min":[-0.19751709699630737,0.7553325295448303,-0.6479650139808655,-0.11525082588195801],"type":"VEC4"},{"bufferView":10,"componentType":5126,"count":17,"max":[0.6666666865348816],"min":[0],"type":"SCALAR"},{"bufferView":11,"componentType":5126,"count":17,"max":[-0.013749999925494194,-0.026249999180436134,-0.0625],"min":[-0.013749999925494194,-0.2762500047683716,-0.1875],"type":"VEC3"},{"bufferView":12,"componentType":5126,"count":1,"max":[0],"min":[0],"type":"SCALAR"},{"bufferView":13,"componentType":5126,"count":1,"max":[1,1.5,1],"min":[1,1.5,1],"type":"VEC3"},{"bufferView":14,"componentType":5126,"count":26,"max":[1.0416666269302368],"min":[0],"type":"SCALAR"},{"bufferView":15,"componentType":5126,"count":26,"max":[-0.21397019922733307,0.6146240234375,-0.5453552603721619,0.5373197197914124],"min":[-0.24121220409870148,0.5915242433547974,-0.5770116448402405,0.48884475231170654],"type":"VEC4"},{"bufferView":16,"componentType":5126,"count":25,"max":[1],"min":[0],"type":"SCALAR"},{"bufferView":17,"componentType":5126,"count":25,"max":[-0.07249999791383743,0.01875000074505806,-0.7637500166893005],"min":[-0.07249999791383743,0.01875000074505806,-0.7825000286102295],"type":"VEC3"},{"bufferView":18,"componentType":5126,"count":1,"max":[0],"min":[0],"type":"SCALAR"},{"bufferView":19,"componentType":5126,"count":1,"max":[1,1.5,1],"min":[1,1.5,1],"type":"VEC3"},{"bufferView":20,"componentType":5126,"count":16,"max":[0.625],"min":[0],"type":"SCALAR"},{"bufferView":21,"componentType":5126,"count":16,"max":[0.3420201539993286,0,0,1],"min":[0,0,0,0.9396926164627075],"type":"VEC4"},{"bufferView":22,"componentType":5126,"count":8,"max":[0.2916666567325592],"min":[0],"type":"SCALAR"},{"bufferView":23,"componentType":5126,"count":8,"max":[0.5,0.4111328125,0.6982421875],"min":[0.5,0.4111328125,0.6982421875],"type":"VEC3"},{"bufferView":24,"componentType":5126,"count":20,"max":[0.7916666865348816],"min":[0],"type":"SCALAR"},{"bufferView":25,"componentType":5126,"count":20,"max":[0.01805810071527958,0.13683374226093292,0.861419677734375,1],"min":[-0.04690849408507347,0,0,0.4868595600128174],"type":"VEC4"},{"bufferView":26,"componentType":5126,"count":20,"max":[0.7916666865348816],"min":[0],"type":"SCALAR"},{"bufferView":27,"componentType":5126,"count":20,"max":[1.6062500476837158,0.5625,0.6875],"min":[0.5,-0.2524999976158142,0.6875],"type":"VEC3"},{"bufferView":28,"componentType":5126,"count":17,"max":[0.6666666865348816],"min":[0],"type":"SCALAR"},{"bufferView":29,"componentType":5126,"count":17,"max":[1,1,1],"min":[0,0,0],"type":"VEC3"},{"bufferView":30,"componentType":5126,"count":10,"max":[0.4166666567325592],"min":[0.0416666679084301],"type":"SCALAR"},{"bufferView":31,"componentType":5126,"count":10,"max":[0.4226182699203491,0,0,1],"min":[0,0,0,0.9063078165054321],"type":"VEC4"},{"bufferView":32,"componentType":5126,"count":8,"max":[0.3333333432674408],"min":[0.0416666679084301],"type":"SCALAR"},{"bufferView":33,"componentType":5126,"count":8,"max":[0.49609375,0.490234375,0.912109375],"min":[0.49609375,0.490234375,0.912109375],"type":"VEC3"},{"bufferView":34,"componentType":5126,"count":8,"max":[0.2916666567325592],"min":[0],"type":"SCALAR"},{"bufferView":35,"componentType":5126,"count":8,"max":[0,0,0,1],"min":[0,0,0,1],"type":"VEC4"},{"bufferView":36,"componentType":5126,"count":16,"max":[0.625],"min":[0],"type":"SCALAR"},{"bufferView":37,"componentType":5126,"count":16,"max":[0.5,0.55826336145401,1.0691637992858887],"min":[0.5,0.55826336145401,0.8504138588905334],"type":"VEC3"}]}