{"asset":{"version":"2.0","generator":"Blockbench 4.9.3 glTF exporter"},"scenes":[{"nodes":[11],"name":"blockbench_export"}],"scene":0,"nodes":[{"translation":[0.375,-0.6875,0],"name":"RightHand"},{"translation":[-0.375,0.6000000000000003,-0.625],"name":"R","children":[0]},{"translation":[-0.5,-0.5,-0.67875],"name":"762x51"},{"translation":[0,0,0.17874999999999996],"name":"mb","children":[2]},{"translation":[-0.0057812500000000155,-0.167839375,0.017968749999999978],"name":"bolt"},{"translation":[0.05260187500000002,0.26998750000000005,0.7151050000000001],"name":"pull_handle"},{"translation":[0,-0.08749999999999969,-0.625],"name":"mcx","children":[3,4,5]},{"translation":[0,0.19249999999999973,0.12625000000000008],"name":"bone","children":[1,6]},{"translation":[-0.375,-0.6875,0],"name":"LeftHand"},{"translation":[0.375,0.7925,-0.4987499999999999],"name":"l","children":[8]},{"translation":[0.5,0.39499999999999996,0.9987499999999999],"name":"bone2","children":[7,9]},{"children":[10]}],"animations":[{"name":"tac_reload","samplers":[{"input":0,"output":1,"interpolation":"LINEAR"},{"input":2,"output":3,"interpolation":"LINEAR"},{"input":4,"output":5,"interpolation":"LINEAR"},{"input":6,"output":7,"interpolation":"LINEAR"},{"input":8,"output":9,"interpolation":"LINEAR"},{"input":10,"output":11,"interpolation":"LINEAR"},{"input":12,"output":13,"interpolation":"LINEAR"},{"input":14,"output":15,"interpolation":"LINEAR"},{"input":16,"output":17,"interpolation":"LINEAR"},{"input":18,"output":19,"interpolation":"LINEAR"},{"input":20,"output":21,"interpolation":"LINEAR"}],"channels":[{"sampler":0,"target":{"node":10,"path":"rotation"}},{"sampler":1,"target":{"node":10,"path":"translation"}},{"sampler":2,"target":{"node":1,"path":"rotation"}},{"sampler":3,"target":{"node":1,"path":"translation"}},{"sampler":4,"target":{"node":1,"path":"scale"}},{"sampler":5,"target":{"node":9,"path":"rotation"}},{"sampler":6,"target":{"node":9,"path":"translation"}},{"sampler":7,"target":{"node":9,"path":"scale"}},{"sampler":8,"target":{"node":3,"path":"rotation"}},{"sampler":9,"target":{"node":3,"path":"translation"}},{"sampler":10,"target":{"node":2,"path":"translation"}}]}],"bufferViews":[{"buffer":0,"byteOffset":0,"byteLength":180},{"buffer":0,"byteOffset":180,"byteLength":720},{"buffer":0,"byteOffset":900,"byteLength":176},{"buffer":0,"byteOffset":1076,"byteLength":528},{"buffer":0,"byteOffset":1604,"byteLength":16},{"buffer":0,"byteOffset":1620,"byteLength":64},{"buffer":0,"byteOffset":1684,"byteLength":16},{"buffer":0,"byteOffset":1700,"byteLength":48},{"buffer":0,"byteOffset":1748,"byteLength":4},{"buffer":0,"byteOffset":1752,"byteLength":12},{"buffer":0,"byteOffset":1764,"byteLength":80},{"buffer":0,"byteOffset":1844,"byteLength":320},{"buffer":0,"byteOffset":2164,"byteLength":80},{"buffer":0,"byteOffset":2244,"byteLength":240},{"buffer":0,"byteOffset":2484,"byteLength":4},{"buffer":0,"byteOffset":2488,"byteLength":12},{"buffer":0,"byteOffset":2500,"byteLength":28},{"buffer":0,"byteOffset":2528,"byteLength":112},{"buffer":0,"byteOffset":2640,"byteLength":32},{"buffer":0,"byteOffset":2672,"byteLength":96},{"buffer":0,"byteOffset":2768,"byteLength":4},{"buffer":0,"byteOffset":2772,"byteLength":12}],"buffers":[{"byteLength":2784,"uri":"data:application/octet-stream;base64,"}],"accessors":[{"bufferView":0,"componentType":5126,"count":45,"max":[2.875],"min":[0],"type":"SCALAR"},{"bufferView":1,"componentType":5126,"count":45,"max":[0.11867423355579376,0.05249979719519615,0.06498312950134277,1],"min":[-0.014091269113123417,-0.00015001420979388058,-0.20902574062347412,0.9705306887626648],"type":"VEC4"},{"bufferView":2,"componentType":5126,"count":44,"max":[2.875],"min":[0],"type":"SCALAR"},{"bufferView":3,"componentType":5126,"count":44,"max":[0.5625,0.4728125035762787,1.0050462484359741],"min":[0.4997222125530243,0.29124999046325684,0.9818055629730225],"type":"VEC3"},{"bufferView":4,"componentType":5126,"count":4,"max":[0.7916666865348816],"min":[0],"type":"SCALAR"},{"bufferView":5,"componentType":5126,"count":4,"max":[-0.09501590579748154,0.8030197620391846,-0.583135724067688,-0.07019546627998352],"min":[-0.1009184718132019,0.7601199150085449,-0.6378317475318909,-0.07972780615091324],"type":"VEC4"},{"bufferView":6,"componentType":5126,"count":4,"max":[0.7916666865348816],"min":[0],"type":"SCALAR"},{"bufferView":7,"componentType":5126,"count":4,"max":[0.029999999329447746,-0.2562499940395355,-0.17249999940395355],"min":[0.029999999329447746,-0.2775000035762787,-0.21875],"type":"VEC3"},{"bufferView":8,"componentType":5126,"count":1,"max":[0],"min":[0],"type":"SCALAR"},{"bufferView":9,"componentType":5126,"count":1,"max":[1,1.5,1],"min":[1,1.5,1],"type":"VEC3"},{"bufferView":10,"componentType":5126,"count":20,"max":[2.5833332538604736],"min":[0],"type":"SCALAR"},{"bufferView":11,"componentType":5126,"count":20,"max":[0.3730866014957428,0.9090502262115479,-0.33687925338745117,0.004734628833830357],"min":[0.16339491307735443,0.6238897442817688,-0.7598142027854919,-0.08490557968616486],"type":"VEC4"},{"bufferView":12,"componentType":5126,"count":20,"max":[2.5833332538604736],"min":[0],"type":"SCALAR"},{"bufferView":13,"componentType":5126,"count":20,"max":[-0.011874999850988388,0.19625000655651093,-0.3687500059604645],"min":[-0.7599999904632568,-1.496250033378601,-0.8762500286102295],"type":"VEC3"},{"bufferView":14,"componentType":5126,"count":1,"max":[0],"min":[0],"type":"SCALAR"},{"bufferView":15,"componentType":5126,"count":1,"max":[1,1.5,1],"min":[1,1.5,1],"type":"VEC3"},{"bufferView":16,"componentType":5126,"count":7,"max":[1.6666666269302368],"min":[0.4583333432674408],"type":"SCALAR"},{"bufferView":17,"componentType":5126,"count":7,"max":[0.2609257400035858,0,0.0036207051016390324,1],"min":[-0.11137367784976959,-0.18376019597053528,-0.19992859661579132,0.9388387203216553],"type":"VEC4"},{"bufferView":18,"componentType":5126,"count":8,"max":[1.6666666269302368],"min":[0.4583333432674408],"type":"SCALAR"},{"bufferView":19,"componentType":5126,"count":8,"max":[0.0012499999720603228,0,0.17874999344348907],"min":[-0.20624999701976776,-1.368749976158142,-0.20125000178813934],"type":"VEC3"},{"bufferView":20,"componentType":5126,"count":1,"max":[1.2083333730697632],"min":[1.2083333730697632],"type":"SCALAR"},{"bufferView":21,"componentType":5126,"count":1,"max":[-0.5,-0.4437499940395355,-0.6787499785423279],"min":[-0.5,-0.4437499940395355,-0.6787499785423279],"type":"VEC3"}]}