{"asset":{"version":"2.0","generator":"Blockbench 4.8.3 glTF exporter"},"scenes":[{"nodes":[11],"name":"blockbench_export"}],"scene":0,"nodes":[{"translation":[0.375,-0.6875,0],"name":"RightHand"},{"translation":[-0.375,1.0375000000000003,-0.625],"name":"R","children":[0]},{"translation":[0.2352986466238458,0.04863171472105804,-0.002808825431034667],"name":"chain"},{"translation":[-0.22295489662384582,-0.1236317147210581,0.3093713254310345],"name":"magazine","children":[2]},{"translation":[0.115023681550673,-0.20051334041527225,0.5094138852126244],"name":"bolt"},{"translation":[-0.00048828125,-0.04931640625,0.13623046875],"name":"cap"},{"translation":[0,0.3500000000000003,-0.625],"name":"mg42","children":[3,4,5]},{"translation":[0,0.02499999999999969,0],"name":"bone","children":[1,6]},{"translation":[-0.375,-0.6875,0],"name":"LeftHand"},{"translation":[0.375,1.0625,-0.625],"name":"l","children":[8]},{"translation":[0.5,0.125,1.125],"name":"bone2","children":[7,9]},{"children":[10]}],"animations":[{"name":"draw","samplers":[{"input":0,"output":1,"interpolation":"LINEAR"},{"input":2,"output":3,"interpolation":"LINEAR"},{"input":4,"output":5,"interpolation":"LINEAR"},{"input":6,"output":7,"interpolation":"LINEAR"},{"input":8,"output":9,"interpolation":"LINEAR"},{"input":10,"output":11,"interpolation":"LINEAR"},{"input":12,"output":13,"interpolation":"LINEAR"},{"input":14,"output":15,"interpolation":"LINEAR"},{"input":16,"output":17,"interpolation":"LINEAR"},{"input":18,"output":19,"interpolation":"LINEAR"},{"input":20,"output":21,"interpolation":"LINEAR"}],"channels":[{"sampler":0,"target":{"node":1,"path":"rotation"}},{"sampler":1,"target":{"node":1,"path":"translation"}},{"sampler":2,"target":{"node":1,"path":"scale"}},{"sampler":3,"target":{"node":9,"path":"rotation"}},{"sampler":4,"target":{"node":9,"path":"translation"}},{"sampler":5,"target":{"node":9,"path":"scale"}},{"sampler":6,"target":{"node":10,"path":"rotation"}},{"sampler":7,"target":{"node":10,"path":"translation"}},{"sampler":8,"target":{"node":7,"path":"rotation"}},{"sampler":9,"target":{"node":7,"path":"translation"}},{"sampler":10,"target":{"node":2,"path":"scale"}}]}],"bufferViews":[{"buffer":0,"byteOffset":0,"byteLength":4},{"buffer":0,"byteOffset":4,"byteLength":16},{"buffer":0,"byteOffset":20,"byteLength":4},{"buffer":0,"byteOffset":24,"byteLength":12},{"buffer":0,"byteOffset":36,"byteLength":4},{"buffer":0,"byteOffset":40,"byteLength":12},{"buffer":0,"byteOffset":52,"byteLength":4},{"buffer":0,"byteOffset":56,"byteLength":16},{"buffer":0,"byteOffset":72,"byteLength":4},{"buffer":0,"byteOffset":76,"byteLength":12},{"buffer":0,"byteOffset":88,"byteLength":4},{"buffer":0,"byteOffset":92,"byteLength":12},{"buffer":0,"byteOffset":104,"byteLength":88},{"buffer":0,"byteOffset":192,"byteLength":352},{"buffer":0,"byteOffset":544,"byteLength":88},{"buffer":0,"byteOffset":632,"byteLength":264},{"buffer":0,"byteOffset":896,"byteLength":4},{"buffer":0,"byteOffset":900,"byteLength":16},{"buffer":0,"byteOffset":916,"byteLength":4},{"buffer":0,"byteOffset":920,"byteLength":12},{"buffer":0,"byteOffset":932,"byteLength":4},{"buffer":0,"byteOffset":936,"byteLength":12}],"buffers":[{"byteLength":948,"uri":"data:application/octet-stream;base64,"}],"accessors":[{"bufferView":0,"componentType":5126,"count":1,"max":[0],"min":[0],"type":"SCALAR"},{"bufferView":1,"componentType":5126,"count":1,"max":[0.03620968759059906,-0.7393603324890137,0.6715993285179138,0.031455572694540024],"min":[0.03620968759059906,-0.7393603324890137,0.6715993285179138,0.031455572694540024],"type":"VEC4"},{"bufferView":2,"componentType":5126,"count":1,"max":[0],"min":[0],"type":"SCALAR"},{"bufferView":3,"componentType":5126,"count":1,"max":[0.016875000670552254,-0.048124998807907104,-0.0625],"min":[0.016875000670552254,-0.048124998807907104,-0.0625],"type":"VEC3"},{"bufferView":4,"componentType":5126,"count":1,"max":[0],"min":[0],"type":"SCALAR"},{"bufferView":5,"componentType":5126,"count":1,"max":[1,1.5,1],"min":[1,1.5,1],"type":"VEC3"},{"bufferView":6,"componentType":5126,"count":1,"max":[0],"min":[0],"type":"SCALAR"},{"bufferView":7,"componentType":5126,"count":1,"max":[-0.30467864871025085,0.5262027382850647,-0.5445607900619507,0.5776981711387634],"min":[-0.30467864871025085,0.5262027382850647,-0.5445607900619507,0.5776981711387634],"type":"VEC4"},{"bufferView":8,"componentType":5126,"count":1,"max":[0],"min":[0],"type":"SCALAR"},{"bufferView":9,"componentType":5126,"count":1,"max":[-0.02250000089406967,0.02187499962747097,-0.9900000095367432],"min":[-0.02250000089406967,0.02187499962747097,-0.9900000095367432],"type":"VEC3"},{"bufferView":10,"componentType":5126,"count":1,"max":[0],"min":[0],"type":"SCALAR"},{"bufferView":11,"componentType":5126,"count":1,"max":[1,1.5,1],"min":[1,1.5,1],"type":"VEC3"},{"bufferView":12,"componentType":5126,"count":22,"max":[0.9583333134651184],"min":[0.0833333358168602],"type":"SCALAR"},{"bufferView":13,"componentType":5126,"count":22,"max":[0,0.31274107098579407,0.021916991099715233,1],"min":[-0.32981249690055847,-0.002128373831510544,-0.03767060860991478,0.8904697299003601],"type":"VEC4"},{"bufferView":14,"componentType":5126,"count":22,"max":[0.9166666865348816],"min":[0.0416666679084301],"type":"SCALAR"},{"bufferView":15,"componentType":5126,"count":22,"max":[0.5,0.13375000655651093,1.375],"min":[0.5,-0.2643750011920929,1.0762499570846558],"type":"VEC3"},{"bufferView":16,"componentType":5126,"count":1,"max":[0],"min":[0],"type":"SCALAR"},{"bufferView":17,"componentType":5126,"count":1,"max":[0,0,0,1],"min":[0,0,0,1],"type":"VEC4"},{"bufferView":18,"componentType":5126,"count":1,"max":[0],"min":[0],"type":"SCALAR"},{"bufferView":19,"componentType":5126,"count":1,"max":[0,0.02500000037252903,0],"min":[0,0.02500000037252903,0],"type":"VEC3"},{"bufferView":20,"componentType":5126,"count":1,"max":[0],"min":[0],"type":"SCALAR"},{"bufferView":21,"componentType":5126,"count":1,"max":[0,0,0],"min":[0,0,0],"type":"VEC3"}]}