{"asset":{"version":"2.0","generator":"Blockbench 4.8.3 glTF exporter"},"scenes":[{"nodes":[11],"name":"blockbench_export"}],"scene":0,"nodes":[{"translation":[0.375,-0.6875,0],"name":"RightHand"},{"translation":[-0.375,1.0375000000000003,-0.625],"name":"R","children":[0]},{"translation":[0.2352986466238458,0.04863171472105804,-0.002808825431034667],"name":"chain"},{"translation":[-0.22295489662384582,-0.1236317147210581,0.3093713254310345],"name":"magazine","children":[2]},{"translation":[0.115023681550673,-0.20051334041527225,0.5094138852126244],"name":"bolt"},{"translation":[-0.00048828125,-0.04931640625,0.13623046875],"name":"cap"},{"translation":[0,0.3500000000000003,-0.625],"name":"mg42","children":[3,4,5]},{"translation":[0,0.02499999999999969,0],"name":"bone","children":[1,6]},{"translation":[-0.375,-0.6875,0],"name":"LeftHand"},{"translation":[0.375,1.0625,-0.625],"name":"l","children":[8]},{"translation":[0.5,0.125,1.125],"name":"bone2","children":[7,9]},{"children":[10]}],"animations":[{"name":"inspect","samplers":[{"input":0,"output":1,"interpolation":"LINEAR"},{"input":2,"output":3,"interpolation":"LINEAR"},{"input":4,"output":5,"interpolation":"LINEAR"},{"input":6,"output":7,"interpolation":"LINEAR"},{"input":8,"output":9,"interpolation":"LINEAR"},{"input":10,"output":11,"interpolation":"LINEAR"},{"input":12,"output":13,"interpolation":"LINEAR"},{"input":14,"output":15,"interpolation":"LINEAR"},{"input":16,"output":17,"interpolation":"LINEAR"},{"input":18,"output":19,"interpolation":"LINEAR"},{"input":20,"output":21,"interpolation":"LINEAR"},{"input":22,"output":23,"interpolation":"LINEAR"},{"input":24,"output":25,"interpolation":"LINEAR"}],"channels":[{"sampler":0,"target":{"node":1,"path":"rotation"}},{"sampler":1,"target":{"node":1,"path":"translation"}},{"sampler":2,"target":{"node":1,"path":"scale"}},{"sampler":3,"target":{"node":9,"path":"rotation"}},{"sampler":4,"target":{"node":9,"path":"translation"}},{"sampler":5,"target":{"node":9,"path":"scale"}},{"sampler":6,"target":{"node":10,"path":"rotation"}},{"sampler":7,"target":{"node":10,"path":"translation"}},{"sampler":8,"target":{"node":7,"path":"rotation"}},{"sampler":9,"target":{"node":7,"path":"translation"}},{"sampler":10,"target":{"node":2,"path":"rotation"}},{"sampler":11,"target":{"node":2,"path":"translation"}},{"sampler":12,"target":{"node":5,"path":"rotation"}}]}],"bufferViews":[{"buffer":0,"byteOffset":0,"byteLength":212},{"buffer":0,"byteOffset":212,"byteLength":848},{"buffer":0,"byteOffset":1060,"byteLength":212},{"buffer":0,"byteOffset":1272,"byteLength":636},{"buffer":0,"byteOffset":1908,"byteLength":4},{"buffer":0,"byteOffset":1912,"byteLength":12},{"buffer":0,"byteOffset":1924,"byteLength":484},{"buffer":0,"byteOffset":2408,"byteLength":1936},{"buffer":0,"byteOffset":4344,"byteLength":484},{"buffer":0,"byteOffset":4828,"byteLength":1452},{"buffer":0,"byteOffset":6280,"byteLength":4},{"buffer":0,"byteOffset":6284,"byteLength":12},{"buffer":0,"byteOffset":6296,"byteLength":512},{"buffer":0,"byteOffset":6808,"byteLength":2048},{"buffer":0,"byteOffset":8856,"byteLength":508},{"buffer":0,"byteOffset":9364,"byteLength":1524},{"buffer":0,"byteOffset":10888,"byteLength":480},{"buffer":0,"byteOffset":11368,"byteLength":1920},{"buffer":0,"byteOffset":13288,"byteLength":480},{"buffer":0,"byteOffset":13768,"byteLength":1440},{"buffer":0,"byteOffset":15208,"byteLength":8},{"buffer":0,"byteOffset":15216,"byteLength":32},{"buffer":0,"byteOffset":15248,"byteLength":8},{"buffer":0,"byteOffset":15256,"byteLength":24},{"buffer":0,"byteOffset":15280,"byteLength":156},{"buffer":0,"byteOffset":15436,"byteLength":624}],"buffers":[{"byteLength":16060,"uri":"data:application/octet-stream;base64,"}],"accessors":[{"bufferView":0,"componentType":5126,"count":53,"max":[2.625],"min":[0.4583333432674408],"type":"SCALAR"},{"bufferView":1,"componentType":5126,"count":53,"max":[0.2102586328983307,-0.7393603324890137,0.6715993285179138,0.14808902144432068],"min":[0.008149838075041771,-0.8650140166282654,0.4824802577495575,-0.036885105073451996],"type":"VEC4"},{"bufferView":2,"componentType":5126,"count":53,"max":[2.5833332538604736],"min":[0.4166666567325592],"type":"SCALAR"},{"bufferView":3,"componentType":5126,"count":53,"max":[0.19562500715255737,0.8331249952316284,0.1381250023841858],"min":[0.016875000670552254,-0.048124998807907104,-0.7137500047683716],"type":"VEC3"},{"bufferView":4,"componentType":5126,"count":1,"max":[0.0416666679084301],"min":[0.0416666679084301],"type":"SCALAR"},{"bufferView":5,"componentType":5126,"count":1,"max":[1,1.5,1],"min":[1,1.5,1],"type":"VEC3"},{"bufferView":6,"componentType":5126,"count":121,"max":[5.083333492279053],"min":[0.0833333358168602],"type":"SCALAR"},{"bufferView":7,"componentType":5126,"count":121,"max":[-0.13700295984745026,0.7062448859214783,-0.40056106448173523,0.6891401410102844],"min":[-0.30467864871025085,0.5262027382850647,-0.5676985383033752,0.40740031003952026],"type":"VEC4"},{"bufferView":8,"componentType":5126,"count":121,"max":[5.041666507720947],"min":[0.0416666679084301],"type":"SCALAR"},{"bufferView":9,"componentType":5126,"count":121,"max":[-0.02250000089406967,0.32624998688697815,-0.7574999928474426],"min":[-0.23624999821186066,0.02187499962747097,-0.9900000095367432],"type":"VEC3"},{"bufferView":10,"componentType":5126,"count":1,"max":[0.0416666679084301],"min":[0.0416666679084301],"type":"SCALAR"},{"bufferView":11,"componentType":5126,"count":1,"max":[1,1.5,1],"min":[1,1.5,1],"type":"VEC3"},{"bufferView":12,"componentType":5126,"count":128,"max":[5.333333492279053],"min":[0.0416666679084301],"type":"SCALAR"},{"bufferView":13,"componentType":5126,"count":128,"max":[0.002268786309286952,0.0009748429292812943,0.0015705936821177602,1],"min":[-0.03960496187210083,-0.000018390666809864342,-0.017452554777264595,0.9992063045501709],"type":"VEC4"},{"bufferView":14,"componentType":5126,"count":127,"max":[5.291666507720947],"min":[0.0416666679084301],"type":"SCALAR"},{"bufferView":15,"componentType":5126,"count":127,"max":[0.5,0.125,1.1387499570846558],"min":[0.5,0.10750000178813934,1.1143749952316284],"type":"VEC3"},{"bufferView":16,"componentType":5126,"count":120,"max":[5.041666507720947],"min":[0.0833333358168602],"type":"SCALAR"},{"bufferView":17,"componentType":5126,"count":120,"max":[0.219172403216362,0.15369151532649994,0.045099079608917236,1],"min":[-0.03644837439060211,0,-0.26334092020988464,0.9446139335632324],"type":"VEC4"},{"bufferView":18,"componentType":5126,"count":120,"max":[5],"min":[0.0416666679084301],"type":"SCALAR"},{"bufferView":19,"componentType":5126,"count":120,"max":[0,0.02500000037252903,0.07500000298023224],"min":[0,-0.04500000178813934,-0.03187499940395355],"type":"VEC3"},{"bufferView":20,"componentType":5126,"count":2,"max":[0.0416666679084301],"min":[0],"type":"SCALAR"},{"bufferView":21,"componentType":5126,"count":2,"max":[0,0,0,1],"min":[0,0,-0.037079744040966034,0.9993122816085815],"type":"VEC4"},{"bufferView":22,"componentType":5126,"count":2,"max":[0.0416666679084301],"min":[0],"type":"SCALAR"},{"bufferView":23,"componentType":5126,"count":2,"max":[0.23529864847660065,0.04863171651959419,-0.00280882534570992],"min":[0.14717364311218262,0.036756712943315506,-0.00280882534570992],"type":"VEC3"},{"bufferView":24,"componentType":5126,"count":39,"max":[2.25],"min":[0.6666666865348816],"type":"SCALAR"},{"bufferView":25,"componentType":5126,"count":39,"max":[0,0,0,1],"min":[-0.8932144641876221,0,0,0.44963082671165466],"type":"VEC4"}]}