{"asset":{"version":"2.0","generator":"Blockbench 4.8.3 glTF exporter"},"scenes":[{"nodes":[11],"name":"blockbench_export"}],"scene":0,"nodes":[{"translation":[0.375,-0.6875,0],"name":"RightHand"},{"translation":[-0.375,1.0375000000000003,-0.625],"name":"R","children":[0]},{"translation":[0.2352986466238458,0.04863171472105804,-0.002808825431034667],"name":"chain"},{"translation":[-0.22295489662384582,-0.1236317147210581,0.3093713254310345],"name":"magazine","children":[2]},{"translation":[0.115023681550673,-0.20051334041527225,0.5094138852126244],"name":"bolt"},{"translation":[-0.00048828125,-0.04931640625,0.13623046875],"name":"cap"},{"translation":[0,0.3500000000000003,-0.625],"name":"mg42","children":[3,4,5]},{"translation":[0,0.02499999999999969,0],"name":"bone","children":[1,6]},{"translation":[-0.375,-0.6875,0],"name":"LeftHand"},{"translation":[0.375,1.0625,-0.625],"name":"l","children":[8]},{"translation":[0.5,0.125,1.125],"name":"bone2","children":[7,9]},{"children":[10]}],"animations":[{"name":"reload","samplers":[{"input":0,"output":1,"interpolation":"LINEAR"},{"input":2,"output":3,"interpolation":"LINEAR"},{"input":4,"output":5,"interpolation":"LINEAR"},{"input":6,"output":7,"interpolation":"LINEAR"},{"input":8,"output":9,"interpolation":"LINEAR"},{"input":10,"output":11,"interpolation":"LINEAR"},{"input":12,"output":13,"interpolation":"LINEAR"},{"input":14,"output":15,"interpolation":"LINEAR"},{"input":16,"output":17,"interpolation":"LINEAR"},{"input":18,"output":19,"interpolation":"LINEAR"},{"input":20,"output":21,"interpolation":"LINEAR"},{"input":22,"output":23,"interpolation":"LINEAR"},{"input":24,"output":25,"interpolation":"LINEAR"},{"input":26,"output":27,"interpolation":"LINEAR"},{"input":28,"output":29,"interpolation":"LINEAR"},{"input":30,"output":31,"interpolation":"LINEAR"},{"input":32,"output":33,"interpolation":"LINEAR"},{"input":34,"output":35,"interpolation":"LINEAR"}],"channels":[{"sampler":0,"target":{"node":1,"path":"rotation"}},{"sampler":1,"target":{"node":1,"path":"translation"}},{"sampler":2,"target":{"node":1,"path":"scale"}},{"sampler":3,"target":{"node":9,"path":"rotation"}},{"sampler":4,"target":{"node":9,"path":"translation"}},{"sampler":5,"target":{"node":9,"path":"scale"}},{"sampler":6,"target":{"node":10,"path":"rotation"}},{"sampler":7,"target":{"node":10,"path":"translation"}},{"sampler":8,"target":{"node":7,"path":"rotation"}},{"sampler":9,"target":{"node":7,"path":"translation"}},{"sampler":10,"target":{"node":3,"path":"rotation"}},{"sampler":11,"target":{"node":3,"path":"translation"}},{"sampler":12,"target":{"node":2,"path":"rotation"}},{"sampler":13,"target":{"node":2,"path":"translation"}},{"sampler":14,"target":{"node":2,"path":"scale"}},{"sampler":15,"target":{"node":4,"path":"translation"}},{"sampler":16,"target":{"node":5,"path":"rotation"}},{"sampler":17,"target":{"node":5,"path":"translation"}}]}],"bufferViews":[{"buffer":0,"byteOffset":0,"byteLength":460},{"buffer":0,"byteOffset":460,"byteLength":1840},{"buffer":0,"byteOffset":2300,"byteLength":456},{"buffer":0,"byteOffset":2756,"byteLength":1368},{"buffer":0,"byteOffset":4124,"byteLength":4},{"buffer":0,"byteOffset":4128,"byteLength":12},{"buffer":0,"byteOffset":4140,"byteLength":488},{"buffer":0,"byteOffset":4628,"byteLength":1952},{"buffer":0,"byteOffset":6580,"byteLength":484},{"buffer":0,"byteOffset":7064,"byteLength":1452},{"buffer":0,"byteOffset":8516,"byteLength":4},{"buffer":0,"byteOffset":8520,"byteLength":12},{"buffer":0,"byteOffset":8532,"byteLength":484},{"buffer":0,"byteOffset":9016,"byteLength":1936},{"buffer":0,"byteOffset":10952,"byteLength":484},{"buffer":0,"byteOffset":11436,"byteLength":1452},{"buffer":0,"byteOffset":12888,"byteLength":500},{"buffer":0,"byteOffset":13388,"byteLength":2000},{"buffer":0,"byteOffset":15388,"byteLength":496},{"buffer":0,"byteOffset":15884,"byteLength":1488},{"buffer":0,"byteOffset":17372,"byteLength":116},{"buffer":0,"byteOffset":17488,"byteLength":464},{"buffer":0,"byteOffset":17952,"byteLength":116},{"buffer":0,"byteOffset":18068,"byteLength":348},{"buffer":0,"byteOffset":18416,"byteLength":488},{"buffer":0,"byteOffset":18904,"byteLength":1952},{"buffer":0,"byteOffset":20856,"byteLength":488},{"buffer":0,"byteOffset":21344,"byteLength":1464},{"buffer":0,"byteOffset":22808,"byteLength":276},{"buffer":0,"byteOffset":23084,"byteLength":828},{"buffer":0,"byteOffset":23912,"byteLength":64},{"buffer":0,"byteOffset":23976,"byteLength":192},{"buffer":0,"byteOffset":24168,"byteLength":440},{"buffer":0,"byteOffset":24608,"byteLength":1760},{"buffer":0,"byteOffset":26368,"byteLength":4},{"buffer":0,"byteOffset":26372,"byteLength":12}],"buffers":[{"byteLength":26384,"uri":"data:application/octet-stream;base64,"}],"accessors":[{"bufferView":0,"componentType":5126,"count":115,"max":[4.791666507720947],"min":[0.0416666679084301],"type":"SCALAR"},{"bufferView":1,"componentType":5126,"count":115,"max":[0.3812240660190582,-0.7180954813957214,0.6723939776420593,0.19250211119651794],"min":[-0.060022033751010895,-0.8789191246032715,0.4393778443336487,-0.12066496163606644],"type":"VEC4"},{"bufferView":2,"componentType":5126,"count":114,"max":[4.75],"min":[0.0416666679084301],"type":"SCALAR"},{"bufferView":3,"componentType":5126,"count":114,"max":[0.27125000953674316,0.5681250095367432,0.15000000596046448],"min":[-0.030625000596046448,-0.07750000059604645,-0.5818750262260437],"type":"VEC3"},{"bufferView":4,"componentType":5126,"count":1,"max":[0.0416666679084301],"min":[0.0416666679084301],"type":"SCALAR"},{"bufferView":5,"componentType":5126,"count":1,"max":[1,1.5,1],"min":[1,1.5,1],"type":"VEC3"},{"bufferView":6,"componentType":5126,"count":122,"max":[5.083333492279053],"min":[0.0416666679084301],"type":"SCALAR"},{"bufferView":7,"componentType":5126,"count":122,"max":[0.3325633406639099,0.8907971382141113,-0.3445475697517395,0.5875780582427979],"min":[-0.35008329153060913,0.522668719291687,-0.7916699051856995,-0.09981224685907364],"type":"VEC4"},{"bufferView":8,"componentType":5126,"count":121,"max":[5.041666507720947],"min":[0.0416666679084301],"type":"SCALAR"},{"bufferView":9,"componentType":5126,"count":121,"max":[0.02812499925494194,0.7587500214576721,-0.00937500037252903],"min":[-1.1843750476837158,-0.3243750035762787,-0.9900000095367432],"type":"VEC3"},{"bufferView":10,"componentType":5126,"count":1,"max":[0.0416666679084301],"min":[0.0416666679084301],"type":"SCALAR"},{"bufferView":11,"componentType":5126,"count":1,"max":[1,1.5,1],"min":[1,1.5,1],"type":"VEC3"},{"bufferView":12,"componentType":5126,"count":121,"max":[5.041666507720947],"min":[0.0416666679084301],"type":"SCALAR"},{"bufferView":13,"componentType":5126,"count":121,"max":[0.028168847784399986,0.001367664081044495,0.02609078586101532,1],"min":[-0.031850848346948624,-0.014565838500857353,-0.024301089346408844,0.9992755651473999],"type":"VEC4"},{"bufferView":14,"componentType":5126,"count":121,"max":[5.041666507720947],"min":[0.0416666679084301],"type":"SCALAR"},{"bufferView":15,"componentType":5126,"count":121,"max":[0.5106250047683716,0.125,1.183750033378601],"min":[0.4925000071525574,0.0768750011920929,1.1087499856948853],"type":"VEC3"},{"bufferView":16,"componentType":5126,"count":125,"max":[5.208333492279053],"min":[0.0416666679084301],"type":"SCALAR"},{"bufferView":17,"componentType":5126,"count":125,"max":[0.1815003752708435,0.000926066713873297,0.07738704234361649,1],"min":[-0.008726535364985466,-0.024420160800218582,-0.02247452735900879,0.9827508330345154],"type":"VEC4"},{"bufferView":18,"componentType":5126,"count":124,"max":[5.166666507720947],"min":[0.0416666679084301],"type":"SCALAR"},{"bufferView":19,"componentType":5126,"count":124,"max":[0.013124999590218067,0.02500000037252903,0.1862500011920929],"min":[-0.011250000447034836,-0.05312500149011612,-0.026875000447034836],"type":"VEC3"},{"bufferView":20,"componentType":5126,"count":29,"max":[3.125],"min":[1.9583333730697632],"type":"SCALAR"},{"bufferView":21,"componentType":5126,"count":29,"max":[0,0,0.0523359552025795,1],"min":[0,0,0,0.9986295104026794],"type":"VEC4"},{"bufferView":22,"componentType":5126,"count":29,"max":[3.125],"min":[1.9583333730697632],"type":"SCALAR"},{"bufferView":23,"componentType":5126,"count":29,"max":[-0.2229548990726471,-0.05425671488046646,0.30937132239341736],"min":[-0.9054548740386963,-0.6517567038536072,0.30937132239341736],"type":"VEC3"},{"bufferView":24,"componentType":5126,"count":122,"max":[5.083333492279053],"min":[0.0416666679084301],"type":"SCALAR"},{"bufferView":25,"componentType":5126,"count":122,"max":[0,0,0.028357798233628273,1],"min":[0,0,-0.09367390722036362,0.9956029057502747],"type":"VEC4"},{"bufferView":26,"componentType":5126,"count":122,"max":[5.083333492279053],"min":[0.0416666679084301],"type":"SCALAR"},{"bufferView":27,"componentType":5126,"count":122,"max":[0.23529864847660065,0.04863171651959419,-0.00280882534570992],"min":[0.0809236466884613,0.03488171473145485,-0.00280882534570992],"type":"VEC3"},{"bufferView":28,"componentType":5126,"count":69,"max":[5.041666507720947],"min":[0.0416666679084301],"type":"SCALAR"},{"bufferView":29,"componentType":5126,"count":69,"max":[1,1,1],"min":[0,0,0],"type":"VEC3"},{"bufferView":30,"componentType":5126,"count":16,"max":[0.6666666865348816],"min":[0.0416666679084301],"type":"SCALAR"},{"bufferView":31,"componentType":5126,"count":16,"max":[0.11502368003129959,-0.2005133330821991,0.8219138979911804],"min":[0.11502368003129959,-0.2005133330821991,0.5094138979911804],"type":"VEC3"},{"bufferView":32,"componentType":5126,"count":110,"max":[4.583333492279053],"min":[0.0416666679084301],"type":"SCALAR"},{"bufferView":33,"componentType":5126,"count":110,"max":[0,0,0,1],"min":[-0.8660253882408142,0,0,0.5],"type":"VEC4"},{"bufferView":34,"componentType":5126,"count":1,"max":[0.0416666679084301],"min":[0.0416666679084301],"type":"SCALAR"},{"bufferView":35,"componentType":5126,"count":1,"max":[-0.00048828125,-0.04931640625,0.13623046875],"min":[-0.00048828125,-0.04931640625,0.13623046875],"type":"VEC3"}]}