{"asset":{"version":"2.0","generator":"Blockbench 4.9.1 glTF exporter"},"scenes":[{"nodes":[8],"name":"blockbench_export"}],"scene":0,"nodes":[{"translation":[0.375,-0.6875,0],"name":"RightHand"},{"translation":[-0.42431640625,0.9125000000000003,-0.35791015625],"name":"R","children":[0]},{"translation":[-0.2996155356372839,-0.0273437476942322,-0.48387284455605467],"name":"mag_standard"},{"translation":[-0.04931640625,0.2250000000000003,-0.35791015625],"name":"mp18","children":[2]},{"translation":[0.04931640625,-0.03750000000000031,-0.26708984375],"name":"bone","children":[1,3]},{"translation":[-0.375,-0.6875,0],"name":"LeftHand"},{"translation":[0.375,0.875,-0.625],"name":"l","children":[5]},{"translation":[0.5,0.3125,1.125],"name":"bone2","children":[4,6]},{"children":[7]}],"animations":[{"name":"reload","samplers":[{"input":0,"output":1,"interpolation":"LINEAR"},{"input":2,"output":3,"interpolation":"LINEAR"},{"input":4,"output":5,"interpolation":"LINEAR"},{"input":6,"output":7,"interpolation":"LINEAR"},{"input":8,"output":9,"interpolation":"LINEAR"},{"input":10,"output":11,"interpolation":"LINEAR"},{"input":12,"output":13,"interpolation":"LINEAR"},{"input":14,"output":15,"interpolation":"LINEAR"},{"input":16,"output":17,"interpolation":"LINEAR"},{"input":18,"output":19,"interpolation":"LINEAR"},{"input":20,"output":21,"interpolation":"LINEAR"},{"input":22,"output":23,"interpolation":"LINEAR"},{"input":24,"output":25,"interpolation":"LINEAR"},{"input":26,"output":27,"interpolation":"LINEAR"},{"input":28,"output":29,"interpolation":"LINEAR"}],"channels":[{"sampler":0,"target":{"node":1,"path":"rotation"}},{"sampler":1,"target":{"node":1,"path":"translation"}},{"sampler":2,"target":{"node":1,"path":"scale"}},{"sampler":3,"target":{"node":6,"path":"rotation"}},{"sampler":4,"target":{"node":6,"path":"translation"}},{"sampler":5,"target":{"node":6,"path":"scale"}},{"sampler":6,"target":{"node":3,"path":"rotation"}},{"sampler":7,"target":{"node":3,"path":"translation"}},{"sampler":8,"target":{"node":2,"path":"rotation"}},{"sampler":9,"target":{"node":2,"path":"translation"}},{"sampler":10,"target":{"node":2,"path":"scale"}},{"sampler":11,"target":{"node":7,"path":"rotation"}},{"sampler":12,"target":{"node":7,"path":"translation"}},{"sampler":13,"target":{"node":4,"path":"rotation"}},{"sampler":14,"target":{"node":4,"path":"translation"}}]}],"bufferViews":[{"buffer":0,"byteOffset":0,"byteLength":392},{"buffer":0,"byteOffset":392,"byteLength":1568},{"buffer":0,"byteOffset":1960,"byteLength":388},{"buffer":0,"byteOffset":2348,"byteLength":1164},{"buffer":0,"byteOffset":3512,"byteLength":4},{"buffer":0,"byteOffset":3516,"byteLength":12},{"buffer":0,"byteOffset":3528,"byteLength":388},{"buffer":0,"byteOffset":3916,"byteLength":1552},{"buffer":0,"byteOffset":5468,"byteLength":384},{"buffer":0,"byteOffset":5852,"byteLength":1152},{"buffer":0,"byteOffset":7004,"byteLength":4},{"buffer":0,"byteOffset":7008,"byteLength":12},{"buffer":0,"byteOffset":7020,"byteLength":388},{"buffer":0,"byteOffset":7408,"byteLength":1552},{"buffer":0,"byteOffset":8960,"byteLength":356},{"buffer":0,"byteOffset":9316,"byteLength":1068},{"buffer":0,"byteOffset":10384,"byteLength":200},{"buffer":0,"byteOffset":10584,"byteLength":800},{"buffer":0,"byteOffset":11384,"byteLength":204},{"buffer":0,"byteOffset":11588,"byteLength":612},{"buffer":0,"byteOffset":12200,"byteLength":60},{"buffer":0,"byteOffset":12260,"byteLength":180},{"buffer":0,"byteOffset":12440,"byteLength":436},{"buffer":0,"byteOffset":12876,"byteLength":1744},{"buffer":0,"byteOffset":14620,"byteLength":436},{"buffer":0,"byteOffset":15056,"byteLength":1308},{"buffer":0,"byteOffset":16364,"byteLength":384},{"buffer":0,"byteOffset":16748,"byteLength":1536},{"buffer":0,"byteOffset":18284,"byteLength":384},{"buffer":0,"byteOffset":18668,"byteLength":1152}],"buffers":[{"byteLength":19820,"uri":"data:application/octet-stream;base64,"}],"accessors":[{"bufferView":0,"componentType":5126,"count":98,"max":[4.083333492279053],"min":[0.0416666679084301],"type":"SCALAR"},{"bufferView":1,"componentType":5126,"count":98,"max":[0.1250695139169693,0.8952243328094482,-0.3797403573989868,-0.03429900109767914],"min":[-0.09363603591918945,0.6085149645805359,-0.7858267426490784,-0.19845783710479736],"type":"VEC4"},{"bufferView":2,"componentType":5126,"count":97,"max":[4.041666507720947],"min":[0.0416666679084301],"type":"SCALAR"},{"bufferView":3,"componentType":5126,"count":97,"max":[0.3244335949420929,0.2512499988079071,0.02958984300494194],"min":[-0.029316406697034836,-0.22562499344348907,-0.31666016578674316],"type":"VEC3"},{"bufferView":4,"componentType":5126,"count":1,"max":[0.0416666679084301],"min":[0.0416666679084301],"type":"SCALAR"},{"bufferView":5,"componentType":5126,"count":1,"max":[1,1.5,1],"min":[1,1.5,1],"type":"VEC3"},{"bufferView":6,"componentType":5126,"count":97,"max":[4.041666507720947],"min":[0.0416666679084301],"type":"SCALAR"},{"bufferView":7,"componentType":5126,"count":97,"max":[0.17239943146705627,0.9453373551368713,-0.305374413728714,0.585064172744751],"min":[-0.5400224328041077,0.4946718215942383,-0.6053987741470337,-0.14046747982501984],"type":"VEC4"},{"bufferView":8,"componentType":5126,"count":96,"max":[4],"min":[0.0416666679084301],"type":"SCALAR"},{"bufferView":9,"componentType":5126,"count":96,"max":[-0.03750000149011612,0.4675000011920929,-0.29374998807907104],"min":[-1.3487499952316284,-0.5806249976158142,-0.8943750262260437],"type":"VEC3"},{"bufferView":10,"componentType":5126,"count":1,"max":[0.0416666679084301],"min":[0.0416666679084301],"type":"SCALAR"},{"bufferView":11,"componentType":5126,"count":1,"max":[1,1.5,1],"min":[1,1.5,1],"type":"VEC3"},{"bufferView":12,"componentType":5126,"count":97,"max":[4.041666507720947],"min":[0.0416666679084301],"type":"SCALAR"},{"bufferView":13,"componentType":5126,"count":97,"max":[0,0,0.9999626874923706,1],"min":[0,0,-0.9999626874923706,-0.973479151725769],"type":"VEC4"},{"bufferView":14,"componentType":5126,"count":89,"max":[3.7083332538604736],"min":[0.0416666679084301],"type":"SCALAR"},{"bufferView":15,"componentType":5126,"count":89,"max":[-0.04931640625,0.3425000011920929,-0.35791015625],"min":[-0.04931640625,0.22499999403953552,-0.35791015625],"type":"VEC3"},{"bufferView":16,"componentType":5126,"count":50,"max":[2.5833332538604736],"min":[0.5416666865348816],"type":"SCALAR"},{"bufferView":17,"componentType":5126,"count":50,"max":[0,0.23144501447677612,0.7423065900802612,1],"min":[-0.19207800924777985,-0.15043112635612488,0,0.6680208444595337],"type":"VEC4"},{"bufferView":18,"componentType":5126,"count":51,"max":[2.5833332538604736],"min":[0.5],"type":"SCALAR"},{"bufferView":19,"componentType":5126,"count":51,"max":[-0.2996155321598053,-0.016718747094273567,0.17487715184688568],"min":[-1.3683655261993408,-0.758593738079071,-0.7044978737831116],"type":"VEC3"},{"bufferView":20,"componentType":5126,"count":15,"max":[1.2916666269302368],"min":[0.7083333134651184],"type":"SCALAR"},{"bufferView":21,"componentType":5126,"count":15,"max":[1,1,1],"min":[0,0,0],"type":"VEC3"},{"bufferView":22,"componentType":5126,"count":109,"max":[4.583333492279053],"min":[0.0833333358168602],"type":"SCALAR"},{"bufferView":23,"componentType":5126,"count":109,"max":[0.02960996888577938,0.034984041005373,0.05171249061822891,1],"min":[-0.029683105647563934,-0.0010420127073302865,-0.008811457082629204,0.9976314902305603],"type":"VEC4"},{"bufferView":24,"componentType":5126,"count":109,"max":[4.541666507720947],"min":[0.0416666679084301],"type":"SCALAR"},{"bufferView":25,"componentType":5126,"count":109,"max":[0.5143749713897705,0.31812500953674316,1.1512500047683716],"min":[0.49812498688697815,0.2668749988079071,1.096250057220459],"type":"VEC3"},{"bufferView":26,"componentType":5126,"count":96,"max":[4.041666507720947],"min":[0.0833333358168602],"type":"SCALAR"},{"bufferView":27,"componentType":5126,"count":96,"max":[0.2286764681339264,0.17505919933319092,0.05237472802400589,1],"min":[0,-0.005846323445439339,-0.30487164855003357,0.9305995106697083],"type":"VEC4"},{"bufferView":28,"componentType":5126,"count":96,"max":[4],"min":[0.0416666679084301],"type":"SCALAR"},{"bufferView":29,"componentType":5126,"count":96,"max":[0.20369140803813934,-0.03750000149011612,0.2304101586341858],"min":[0.04931640625,-0.2887499928474426,-0.26708984375],"type":"VEC3"}]}