{"asset":{"version":"2.0","generator":"Blockbench 4.9.1 glTF exporter"},"scenes":[{"nodes":[8],"name":"blockbench_export"}],"scene":0,"nodes":[{"translation":[0.375,-0.6875,0],"name":"RightHand"},{"translation":[-0.42431640625,0.9125000000000003,-0.35791015625],"name":"R","children":[0]},{"translation":[-0.2996155356372839,-0.0273437476942322,-0.48387284455605467],"name":"mag_standard"},{"translation":[-0.04931640625,0.2250000000000003,-0.35791015625],"name":"mp18","children":[2]},{"translation":[0.04931640625,-0.03750000000000031,-0.26708984375],"name":"bone","children":[1,3]},{"translation":[-0.375,-0.6875,0],"name":"LeftHand"},{"translation":[0.375,0.875,-0.625],"name":"l","children":[5]},{"translation":[0.5,0.3125,1.125],"name":"bone2","children":[4,6]},{"children":[7]}],"animations":[{"name":"inspect","samplers":[{"input":0,"output":1,"interpolation":"LINEAR"},{"input":2,"output":3,"interpolation":"LINEAR"},{"input":4,"output":5,"interpolation":"LINEAR"},{"input":6,"output":7,"interpolation":"LINEAR"},{"input":8,"output":9,"interpolation":"LINEAR"},{"input":10,"output":11,"interpolation":"LINEAR"},{"input":12,"output":13,"interpolation":"LINEAR"},{"input":14,"output":15,"interpolation":"LINEAR"},{"input":16,"output":17,"interpolation":"LINEAR"},{"input":18,"output":19,"interpolation":"LINEAR"},{"input":20,"output":21,"interpolation":"LINEAR"},{"input":22,"output":23,"interpolation":"LINEAR"}],"channels":[{"sampler":0,"target":{"node":1,"path":"rotation"}},{"sampler":1,"target":{"node":1,"path":"translation"}},{"sampler":2,"target":{"node":1,"path":"scale"}},{"sampler":3,"target":{"node":6,"path":"rotation"}},{"sampler":4,"target":{"node":6,"path":"translation"}},{"sampler":5,"target":{"node":6,"path":"scale"}},{"sampler":6,"target":{"node":7,"path":"rotation"}},{"sampler":7,"target":{"node":7,"path":"translation"}},{"sampler":8,"target":{"node":4,"path":"rotation"}},{"sampler":9,"target":{"node":4,"path":"translation"}},{"sampler":10,"target":{"node":2,"path":"rotation"}},{"sampler":11,"target":{"node":2,"path":"translation"}}]}],"bufferViews":[{"buffer":0,"byteOffset":0,"byteLength":260},{"buffer":0,"byteOffset":260,"byteLength":1040},{"buffer":0,"byteOffset":1300,"byteLength":260},{"buffer":0,"byteOffset":1560,"byteLength":780},{"buffer":0,"byteOffset":2340,"byteLength":4},{"buffer":0,"byteOffset":2344,"byteLength":12},{"buffer":0,"byteOffset":2356,"byteLength":448},{"buffer":0,"byteOffset":2804,"byteLength":1792},{"buffer":0,"byteOffset":4596,"byteLength":448},{"buffer":0,"byteOffset":5044,"byteLength":1344},{"buffer":0,"byteOffset":6388,"byteLength":4},{"buffer":0,"byteOffset":6392,"byteLength":12},{"buffer":0,"byteOffset":6404,"byteLength":504},{"buffer":0,"byteOffset":6908,"byteLength":2016},{"buffer":0,"byteOffset":8924,"byteLength":504},{"buffer":0,"byteOffset":9428,"byteLength":1512},{"buffer":0,"byteOffset":10940,"byteLength":448},{"buffer":0,"byteOffset":11388,"byteLength":1792},{"buffer":0,"byteOffset":13180,"byteLength":448},{"buffer":0,"byteOffset":13628,"byteLength":1344},{"buffer":0,"byteOffset":14972,"byteLength":4},{"buffer":0,"byteOffset":14976,"byteLength":16},{"buffer":0,"byteOffset":14992,"byteLength":4},{"buffer":0,"byteOffset":14996,"byteLength":12}],"buffers":[{"byteLength":15008,"uri":"data:application/octet-stream;base64,"}],"accessors":[{"bufferView":0,"componentType":5126,"count":65,"max":[4.708333492279053],"min":[2.0416667461395264],"type":"SCALAR"},{"bufferView":1,"componentType":5126,"count":65,"max":[0.05365239083766937,0.8058574795722961,-0.5834685564041138,0.0853843241930008],"min":[-0.08236894011497498,0.7465798258781433,-0.6583077311515808,-0.04964674264192581],"type":"VEC4"},{"bufferView":2,"componentType":5126,"count":65,"max":[4.666666507720947],"min":[2],"type":"SCALAR"},{"bufferView":3,"componentType":5126,"count":65,"max":[-0.00869140587747097,0.006874999962747097,0.01083984412252903],"min":[-0.032441407442092896,0.006874999962747097,0.01083984412252903],"type":"VEC3"},{"bufferView":4,"componentType":5126,"count":1,"max":[0.0416666679084301],"min":[0.0416666679084301],"type":"SCALAR"},{"bufferView":5,"componentType":5126,"count":1,"max":[1,1.5,1],"min":[1,1.5,1],"type":"VEC3"},{"bufferView":6,"componentType":5126,"count":112,"max":[4.708333492279053],"min":[0.0833333358168602],"type":"SCALAR"},{"bufferView":7,"componentType":5126,"count":112,"max":[-0.103180430829525,0.6987912654876709,-0.38125887513160706,0.6082268953323364],"min":[-0.44092682003974915,0.3983411490917206,-0.7014560699462891,0.3935037851333618],"type":"VEC4"},{"bufferView":8,"componentType":5126,"count":112,"max":[4.666666507720947],"min":[0.0416666679084301],"type":"SCALAR"},{"bufferView":9,"componentType":5126,"count":112,"max":[-0.04125000163912773,0.12187500298023224,-0.8368750214576721],"min":[-0.47187501192092896,-0.7087500095367432,-1.0075000524520874],"type":"VEC3"},{"bufferView":10,"componentType":5126,"count":1,"max":[0.0416666679084301],"min":[0.0416666679084301],"type":"SCALAR"},{"bufferView":11,"componentType":5126,"count":1,"max":[1,1.5,1],"min":[1,1.5,1],"type":"VEC3"},{"bufferView":12,"componentType":5126,"count":126,"max":[5.291666507720947],"min":[0.0833333358168602],"type":"SCALAR"},{"bufferView":13,"componentType":5126,"count":126,"max":[0.03267235308885574,0.0002653763222042471,0.01448926329612732,1],"min":[-0.0327044278383255,-0.008995020762085915,-0.05492159351706505,0.9979483485221863],"type":"VEC4"},{"bufferView":14,"componentType":5126,"count":126,"max":[5.25],"min":[0.0416666679084301],"type":"SCALAR"},{"bufferView":15,"componentType":5126,"count":126,"max":[0.5,0.3187499940395355,1.1643749475479126],"min":[0.5,0.2775000035762787,1.081874966621399],"type":"VEC3"},{"bufferView":16,"componentType":5126,"count":112,"max":[4.708333492279053],"min":[0.0833333358168602],"type":"SCALAR"},{"bufferView":17,"componentType":5126,"count":112,"max":[0.24230876564979553,0.18383382260799408,0.6253687739372253,1],"min":[0,-0.06780225038528442,-0.3852735757827759,0.7403530478477478],"type":"VEC4"},{"bufferView":18,"componentType":5126,"count":112,"max":[4.666666507720947],"min":[0.0416666679084301],"type":"SCALAR"},{"bufferView":19,"componentType":5126,"count":112,"max":[0.12119140475988388,0.05312500149011612,-0.2320898473262787],"min":[0.04931640625,-0.16312499344348907,-0.4327148497104645],"type":"VEC3"},{"bufferView":20,"componentType":5126,"count":1,"max":[0.0416666679084301],"min":[0.0416666679084301],"type":"SCALAR"},{"bufferView":21,"componentType":5126,"count":1,"max":[0,0,0,1],"min":[0,0,0,1],"type":"VEC4"},{"bufferView":22,"componentType":5126,"count":1,"max":[0.0416666679084301],"min":[0.0416666679084301],"type":"SCALAR"},{"bufferView":23,"componentType":5126,"count":1,"max":[-0.2996155321598053,-0.02734374813735485,-0.48387283086776733],"min":[-0.2996155321598053,-0.02734374813735485,-0.48387283086776733],"type":"VEC3"}]}