{"asset":{"version":"2.0","generator":"Blockbench 4.9.3 glTF exporter"},"scenes":[{"nodes":[10],"name":"blockbench_export"}],"scene":0,"nodes":[{"translation":[0.375,-0.6875,0],"name":"RightHand"},{"translation":[-0.375,0.7875000000000003,-0.5],"name":"R","children":[0]},{"translation":[0.44429043381607863,0.7139607774816469,0.21724759615384617],"name":"handle"},{"translation":[0.49893465908483164,0.3141619314930656,0.44688004742374254],"name":"magazine_default"},{"translation":[0.49893465908483164,0.3141619314930656,0.44688004742374254],"name":"magazine_default2"},{"translation":[-0.5,-0.3999999999999997,-1],"name":"railgun","children":[2,3,4]},{"translation":[0,-0.03750000000000031,0.0625],"name":"bone","children":[1,5]},{"translation":[-0.375,-0.6875,0],"name":"LeftHand"},{"translation":[0.375,0.75,-0.4375],"name":"l","children":[7]},{"translation":[0.5,0.4375,0.9375],"name":"bone2","children":[6,8]},{"children":[9]}],"animations":[{"name":"reload_norm","samplers":[{"input":0,"output":1,"interpolation":"LINEAR"},{"input":2,"output":3,"interpolation":"LINEAR"},{"input":4,"output":5,"interpolation":"LINEAR"},{"input":6,"output":7,"interpolation":"LINEAR"},{"input":8,"output":9,"interpolation":"LINEAR"},{"input":10,"output":11,"interpolation":"LINEAR"},{"input":12,"output":13,"interpolation":"LINEAR"},{"input":14,"output":15,"interpolation":"LINEAR"},{"input":16,"output":17,"interpolation":"LINEAR"},{"input":18,"output":19,"interpolation":"LINEAR"},{"input":20,"output":21,"interpolation":"LINEAR"},{"input":22,"output":23,"interpolation":"LINEAR"},{"input":24,"output":25,"interpolation":"LINEAR"},{"input":26,"output":27,"interpolation":"LINEAR"},{"input":28,"output":29,"interpolation":"LINEAR"}],"channels":[{"sampler":0,"target":{"node":1,"path":"rotation"}},{"sampler":1,"target":{"node":1,"path":"translation"}},{"sampler":2,"target":{"node":1,"path":"scale"}},{"sampler":3,"target":{"node":8,"path":"rotation"}},{"sampler":4,"target":{"node":8,"path":"translation"}},{"sampler":5,"target":{"node":8,"path":"scale"}},{"sampler":6,"target":{"node":3,"path":"rotation"}},{"sampler":7,"target":{"node":3,"path":"translation"}},{"sampler":8,"target":{"node":3,"path":"scale"}},{"sampler":9,"target":{"node":9,"path":"rotation"}},{"sampler":10,"target":{"node":9,"path":"translation"}},{"sampler":11,"target":{"node":6,"path":"rotation"}},{"sampler":12,"target":{"node":6,"path":"translation"}},{"sampler":13,"target":{"node":4,"path":"rotation"}},{"sampler":14,"target":{"node":4,"path":"translation"}}]}],"bufferViews":[{"buffer":0,"byteOffset":0,"byteLength":4},{"buffer":0,"byteOffset":4,"byteLength":16},{"buffer":0,"byteOffset":20,"byteLength":4},{"buffer":0,"byteOffset":24,"byteLength":12},{"buffer":0,"byteOffset":36,"byteLength":4},{"buffer":0,"byteOffset":40,"byteLength":12},{"buffer":0,"byteOffset":52,"byteLength":240},{"buffer":0,"byteOffset":292,"byteLength":960},{"buffer":0,"byteOffset":1252,"byteLength":240},{"buffer":0,"byteOffset":1492,"byteLength":720},{"buffer":0,"byteOffset":2212,"byteLength":4},{"buffer":0,"byteOffset":2216,"byteLength":12},{"buffer":0,"byteOffset":2228,"byteLength":52},{"buffer":0,"byteOffset":2280,"byteLength":208},{"buffer":0,"byteOffset":2488,"byteLength":48},{"buffer":0,"byteOffset":2536,"byteLength":144},{"buffer":0,"byteOffset":2680,"byteLength":8},{"buffer":0,"byteOffset":2688,"byteLength":24},{"buffer":0,"byteOffset":2712,"byteLength":292},{"buffer":0,"byteOffset":3004,"byteLength":1168},{"buffer":0,"byteOffset":4172,"byteLength":292},{"buffer":0,"byteOffset":4464,"byteLength":876},{"buffer":0,"byteOffset":5340,"byteLength":240},{"buffer":0,"byteOffset":5580,"byteLength":960},{"buffer":0,"byteOffset":6540,"byteLength":240},{"buffer":0,"byteOffset":6780,"byteLength":720},{"buffer":0,"byteOffset":7500,"byteLength":208},{"buffer":0,"byteOffset":7708,"byteLength":832},{"buffer":0,"byteOffset":8540,"byteLength":208},{"buffer":0,"byteOffset":8748,"byteLength":624}],"buffers":[{"byteLength":9372,"uri":"data:application/octet-stream;base64,"}],"accessors":[{"bufferView":0,"componentType":5126,"count":1,"max":[0],"min":[0],"type":"SCALAR"},{"bufferView":1,"componentType":5126,"count":1,"max":[0.028760259971022606,-0.7511242032051086,0.6587182879447937,0.03279479220509529],"min":[0.028760259971022606,-0.7511242032051086,0.6587182879447937,0.03279479220509529],"type":"VEC4"},{"bufferView":2,"componentType":5126,"count":1,"max":[0],"min":[0],"type":"SCALAR"},{"bufferView":3,"componentType":5126,"count":1,"max":[0.015625,-0.00937500037252903,-0.09375],"min":[0.015625,-0.00937500037252903,-0.09375],"type":"VEC3"},{"bufferView":4,"componentType":5126,"count":1,"max":[0],"min":[0],"type":"SCALAR"},{"bufferView":5,"componentType":5126,"count":1,"max":[1,1.5,1],"min":[1,1.5,1],"type":"VEC3"},{"bufferView":6,"componentType":5126,"count":60,"max":[2.5416667461395264],"min":[0.0833333358168602],"type":"SCALAR"},{"bufferView":7,"componentType":5126,"count":60,"max":[0.0801176130771637,0.8252718448638916,-0.16808655858039856,0.6712807416915894],"min":[-0.6339017152786255,0.3964886963367462,-0.5988649725914001,0.2719993591308594],"type":"VEC4"},{"bufferView":8,"componentType":5126,"count":60,"max":[2.5],"min":[0.0416666679084301],"type":"SCALAR"},{"bufferView":9,"componentType":5126,"count":60,"max":[-0.014375000260770321,0.21437500417232513,0.03500000014901161],"min":[-0.8887500166893005,-0.8568750023841858,-0.6862499713897705],"type":"VEC3"},{"bufferView":10,"componentType":5126,"count":1,"max":[0],"min":[0],"type":"SCALAR"},{"bufferView":11,"componentType":5126,"count":1,"max":[1,1.5,1],"min":[1,1.5,1],"type":"VEC3"},{"bufferView":12,"componentType":5126,"count":13,"max":[1.3333333730697632],"min":[0.8333333134651184],"type":"SCALAR"},{"bufferView":13,"componentType":5126,"count":13,"max":[0,0,0.13052618503570557,1],"min":[0,0,-0.9978589415550232,-0.9914448857307434],"type":"VEC4"},{"bufferView":14,"componentType":5126,"count":12,"max":[1.2916666269302368],"min":[0.8333333134651184],"type":"SCALAR"},{"bufferView":15,"componentType":5126,"count":12,"max":[2.248934745788574,0.31416192650794983,0.446880042552948],"min":[0.49893465638160706,0.12666192650794983,0.446880042552948],"type":"VEC3"},{"bufferView":16,"componentType":5126,"count":2,"max":[1.3333333730697632],"min":[1.2916666269302368],"type":"SCALAR"},{"bufferView":17,"componentType":5126,"count":2,"max":[1,1,1],"min":[0,0,0],"type":"VEC3"},{"bufferView":18,"componentType":5126,"count":73,"max":[3.0833332538604736],"min":[0.0833333358168602],"type":"SCALAR"},{"bufferView":19,"componentType":5126,"count":73,"max":[0.1140783354640007,0.060491129755973816,0.04326155409216881,1],"min":[-0.04636567085981369,-0.018105624243617058,-0.07974347472190857,0.9930282831192017],"type":"VEC4"},{"bufferView":20,"componentType":5126,"count":73,"max":[3.0416667461395264],"min":[0.0416666679084301],"type":"SCALAR"},{"bufferView":21,"componentType":5126,"count":73,"max":[0.5381249785423279,0.4662500023841858,0.96875],"min":[0.47437500953674316,0.4012500047683716,0.9106249809265137],"type":"VEC3"},{"bufferView":22,"componentType":5126,"count":60,"max":[2.5416667461395264],"min":[0.0833333358168602],"type":"SCALAR"},{"bufferView":23,"componentType":5126,"count":60,"max":[0.08979205787181854,0.08070972561836243,0.16616229712963104,1],"min":[-0.011573951691389084,-0.019831635057926178,-0.09834790229797363,0.9816106557846069],"type":"VEC4"},{"bufferView":24,"componentType":5126,"count":60,"max":[2.5],"min":[0.0416666679084301],"type":"SCALAR"},{"bufferView":25,"componentType":5126,"count":60,"max":[0.051249999552965164,0.045625001192092896,0.0768750011920929],"min":[-0.10999999940395355,-0.05874999985098839,-0.027499999850988388],"type":"VEC3"},{"bufferView":26,"componentType":5126,"count":52,"max":[2.125],"min":[0],"type":"SCALAR"},{"bufferView":27,"componentType":5126,"count":52,"max":[0.9930317401885986,0.09540047496557236,0.1349211037158966,1],"min":[-0.0972508043050766,-0.15281087160110474,-0.2275853157043457,-0.9832189083099365],"type":"VEC4"},{"bufferView":28,"componentType":5126,"count":52,"max":[2.125],"min":[0],"type":"SCALAR"},{"bufferView":29,"componentType":5126,"count":52,"max":[0.5764346718788147,2.43166184425354,1.0718801021575928],"min":[-0.1735653430223465,-0.43583807349205017,0.446880042552948],"type":"VEC3"}]}