{"asset":{"version":"2.0","generator":"Blockbench 4.9.3 glTF exporter"},"scenes":[{"nodes":[10],"name":"blockbench_export"}],"scene":0,"nodes":[{"translation":[0.375,-0.6875,0],"name":"RightHand"},{"translation":[-0.375,0.7875000000000003,-0.5],"name":"R","children":[0]},{"translation":[0.44429043381607863,0.7139607774816469,0.21724759615384617],"name":"handle"},{"translation":[0.49893465908483164,0.3141619314930656,0.44688004742374254],"name":"magazine_default"},{"translation":[0.49893465908483164,0.3141619314930656,0.44688004742374254],"name":"magazine_default2"},{"translation":[-0.5,-0.3999999999999997,-1],"name":"railgun","children":[2,3,4]},{"translation":[0,-0.03750000000000031,0.0625],"name":"bone","children":[1,5]},{"translation":[-0.375,-0.6875,0],"name":"LeftHand"},{"translation":[0.375,0.75,-0.4375],"name":"l","children":[7]},{"translation":[0.5,0.4375,0.9375],"name":"bone2","children":[6,8]},{"children":[9]}],"animations":[{"name":"draw","samplers":[{"input":0,"output":1,"interpolation":"LINEAR"},{"input":2,"output":3,"interpolation":"LINEAR"},{"input":4,"output":5,"interpolation":"LINEAR"},{"input":6,"output":7,"interpolation":"LINEAR"},{"input":8,"output":9,"interpolation":"LINEAR"},{"input":10,"output":11,"interpolation":"LINEAR"},{"input":12,"output":13,"interpolation":"LINEAR"},{"input":14,"output":15,"interpolation":"LINEAR"}],"channels":[{"sampler":0,"target":{"node":1,"path":"rotation"}},{"sampler":1,"target":{"node":1,"path":"translation"}},{"sampler":2,"target":{"node":1,"path":"scale"}},{"sampler":3,"target":{"node":8,"path":"rotation"}},{"sampler":4,"target":{"node":8,"path":"translation"}},{"sampler":5,"target":{"node":8,"path":"scale"}},{"sampler":6,"target":{"node":9,"path":"rotation"}},{"sampler":7,"target":{"node":9,"path":"translation"}}]}],"bufferViews":[{"buffer":0,"byteOffset":0,"byteLength":4},{"buffer":0,"byteOffset":4,"byteLength":16},{"buffer":0,"byteOffset":20,"byteLength":4},{"buffer":0,"byteOffset":24,"byteLength":12},{"buffer":0,"byteOffset":36,"byteLength":4},{"buffer":0,"byteOffset":40,"byteLength":12},{"buffer":0,"byteOffset":52,"byteLength":4},{"buffer":0,"byteOffset":56,"byteLength":16},{"buffer":0,"byteOffset":72,"byteLength":4},{"buffer":0,"byteOffset":76,"byteLength":12},{"buffer":0,"byteOffset":88,"byteLength":4},{"buffer":0,"byteOffset":92,"byteLength":12},{"buffer":0,"byteOffset":104,"byteLength":64},{"buffer":0,"byteOffset":168,"byteLength":256},{"buffer":0,"byteOffset":424,"byteLength":64},{"buffer":0,"byteOffset":488,"byteLength":192}],"buffers":[{"byteLength":680,"uri":"data:application/octet-stream;base64,"}],"accessors":[{"bufferView":0,"componentType":5126,"count":1,"max":[0],"min":[0],"type":"SCALAR"},{"bufferView":1,"componentType":5126,"count":1,"max":[0.028760259971022606,-0.7511242032051086,0.6587182879447937,0.03279479220509529],"min":[0.028760259971022606,-0.7511242032051086,0.6587182879447937,0.03279479220509529],"type":"VEC4"},{"bufferView":2,"componentType":5126,"count":1,"max":[0],"min":[0],"type":"SCALAR"},{"bufferView":3,"componentType":5126,"count":1,"max":[0.015625,-0.00937500037252903,-0.09375],"min":[0.015625,-0.00937500037252903,-0.09375],"type":"VEC3"},{"bufferView":4,"componentType":5126,"count":1,"max":[0],"min":[0],"type":"SCALAR"},{"bufferView":5,"componentType":5126,"count":1,"max":[1,1.5,1],"min":[1,1.5,1],"type":"VEC3"},{"bufferView":6,"componentType":5126,"count":1,"max":[0],"min":[0],"type":"SCALAR"},{"bufferView":7,"componentType":5126,"count":1,"max":[-0.39901092648506165,0.4483855664730072,-0.4348824918270111,0.6712807416915894],"min":[-0.39901092648506165,0.4483855664730072,-0.4348824918270111,0.6712807416915894],"type":"VEC4"},{"bufferView":8,"componentType":5126,"count":1,"max":[0],"min":[0],"type":"SCALAR"},{"bufferView":9,"componentType":5126,"count":1,"max":[-0.03687499836087227,-0.10687500238418579,0.03375000134110451],"min":[-0.03687499836087227,-0.10687500238418579,0.03375000134110451],"type":"VEC3"},{"bufferView":10,"componentType":5126,"count":1,"max":[0],"min":[0],"type":"SCALAR"},{"bufferView":11,"componentType":5126,"count":1,"max":[1,1.5,1],"min":[1,1.5,1],"type":"VEC3"},{"bufferView":12,"componentType":5126,"count":16,"max":[0.7083333134651184],"min":[0.0833333358168602],"type":"SCALAR"},{"bufferView":13,"componentType":5126,"count":16,"max":[0.07554405182600021,0.007082722615450621,0,1],"min":[-0.40274667739868164,0,-0.056108854711055756,0.9153114557266235],"type":"VEC4"},{"bufferView":14,"componentType":5126,"count":16,"max":[0.6666666865348816],"min":[0.0416666679084301],"type":"SCALAR"},{"bufferView":15,"componentType":5126,"count":16,"max":[0.5,0.47437500953674316,0.9693750143051147],"min":[0.5,-0.375,0.7831249833106995],"type":"VEC3"}]}