{"asset":{"version":"2.0","generator":"Blockbench 4.8.3 glTF exporter"},"scenes":[{"nodes":[10],"name":"blockbench_export"}],"scene":0,"nodes":[{"translation":[0.375,-0.6875,0],"name":"RightHand"},{"translation":[-0.375,1.1004882812500003,-0.02490234375],"name":"R","children":[0]},{"name":"bolt"},{"translation":[0.04966187775838371,-0.0015012879088446285,0.12998765106011456],"name":"bullet"},{"translation":[-0.11842300683290247,0.020322865373466725,-0.3587576156170107],"name":"mag","children":[3]},{"translation":[0,0.4129882812500003,-0.02490234375],"name":"root","children":[2,4]},{"translation":[0,-0.03457031250000031,-0.04345703125],"name":"bone","children":[1,5]},{"translation":[-0.375,-0.6875,0],"name":"LeftHand"},{"translation":[0.375,1.06591796875,-0.068359375],"name":"l","children":[7]},{"translation":[0.5,0.12158203125,0.568359375],"name":"bone2","children":[6,8]},{"children":[9]}],"animations":[{"name":"static_state","samplers":[{"input":0,"output":1,"interpolation":"LINEAR"},{"input":2,"output":3,"interpolation":"LINEAR"},{"input":4,"output":5,"interpolation":"LINEAR"},{"input":6,"output":7,"interpolation":"LINEAR"},{"input":8,"output":9,"interpolation":"LINEAR"},{"input":10,"output":11,"interpolation":"LINEAR"},{"input":12,"output":13,"interpolation":"LINEAR"},{"input":14,"output":15,"interpolation":"LINEAR"},{"input":16,"output":17,"interpolation":"LINEAR"},{"input":18,"output":19,"interpolation":"LINEAR"},{"input":20,"output":21,"interpolation":"LINEAR"},{"input":22,"output":23,"interpolation":"LINEAR"},{"input":24,"output":25,"interpolation":"LINEAR"},{"input":26,"output":27,"interpolation":"LINEAR"}],"channels":[{"sampler":0,"target":{"node":2,"path":"rotation"}},{"sampler":1,"target":{"node":2,"path":"translation"}},{"sampler":2,"target":{"node":4,"path":"rotation"}},{"sampler":3,"target":{"node":4,"path":"translation"}},{"sampler":4,"target":{"node":9,"path":"rotation"}},{"sampler":5,"target":{"node":9,"path":"translation"}},{"sampler":6,"target":{"node":6,"path":"rotation"}},{"sampler":7,"target":{"node":6,"path":"translation"}},{"sampler":8,"target":{"node":1,"path":"rotation"}},{"sampler":9,"target":{"node":1,"path":"translation"}},{"sampler":10,"target":{"node":1,"path":"scale"}},{"sampler":11,"target":{"node":8,"path":"rotation"}},{"sampler":12,"target":{"node":8,"path":"translation"}},{"sampler":13,"target":{"node":8,"path":"scale"}}]}],"bufferViews":[{"buffer":0,"byteOffset":0,"byteLength":4},{"buffer":0,"byteOffset":4,"byteLength":16},{"buffer":0,"byteOffset":20,"byteLength":4},{"buffer":0,"byteOffset":24,"byteLength":12},{"buffer":0,"byteOffset":36,"byteLength":4},{"buffer":0,"byteOffset":40,"byteLength":16},{"buffer":0,"byteOffset":56,"byteLength":4},{"buffer":0,"byteOffset":60,"byteLength":12},{"buffer":0,"byteOffset":72,"byteLength":4},{"buffer":0,"byteOffset":76,"byteLength":16},{"buffer":0,"byteOffset":92,"byteLength":4},{"buffer":0,"byteOffset":96,"byteLength":12},{"buffer":0,"byteOffset":108,"byteLength":4},{"buffer":0,"byteOffset":112,"byteLength":16},{"buffer":0,"byteOffset":128,"byteLength":4},{"buffer":0,"byteOffset":132,"byteLength":12},{"buffer":0,"byteOffset":144,"byteLength":4},{"buffer":0,"byteOffset":148,"byteLength":16},{"buffer":0,"byteOffset":164,"byteLength":4},{"buffer":0,"byteOffset":168,"byteLength":12},{"buffer":0,"byteOffset":180,"byteLength":4},{"buffer":0,"byteOffset":184,"byteLength":12},{"buffer":0,"byteOffset":196,"byteLength":4},{"buffer":0,"byteOffset":200,"byteLength":16},{"buffer":0,"byteOffset":216,"byteLength":4},{"buffer":0,"byteOffset":220,"byteLength":12},{"buffer":0,"byteOffset":232,"byteLength":4},{"buffer":0,"byteOffset":236,"byteLength":12}],"buffers":[{"byteLength":248,"uri":"data:application/octet-stream;base64,"}],"accessors":[{"bufferView":0,"componentType":5126,"count":1,"max":[0],"min":[0],"type":"SCALAR"},{"bufferView":1,"componentType":5126,"count":1,"max":[0,0,0,1],"min":[0,0,0,1],"type":"VEC4"},{"bufferView":2,"componentType":5126,"count":1,"max":[0],"min":[0],"type":"SCALAR"},{"bufferView":3,"componentType":5126,"count":1,"max":[0,0,0],"min":[0,0,0],"type":"VEC3"},{"bufferView":4,"componentType":5126,"count":1,"max":[0],"min":[0],"type":"SCALAR"},{"bufferView":5,"componentType":5126,"count":1,"max":[0,0,0,1],"min":[0,0,0,1],"type":"VEC4"},{"bufferView":6,"componentType":5126,"count":1,"max":[0],"min":[0],"type":"SCALAR"},{"bufferView":7,"componentType":5126,"count":1,"max":[-0.11842300742864609,0.02032286487519741,-0.3587576150894165],"min":[-0.11842300742864609,0.02032286487519741,-0.3587576150894165],"type":"VEC3"},{"bufferView":8,"componentType":5126,"count":1,"max":[0],"min":[0],"type":"SCALAR"},{"bufferView":9,"componentType":5126,"count":1,"max":[0,0,0,1],"min":[0,0,0,1],"type":"VEC4"},{"bufferView":10,"componentType":5126,"count":1,"max":[0],"min":[0],"type":"SCALAR"},{"bufferView":11,"componentType":5126,"count":1,"max":[0.5,0.12158203125,0.568359375],"min":[0.5,0.12158203125,0.568359375],"type":"VEC3"},{"bufferView":12,"componentType":5126,"count":1,"max":[0],"min":[0],"type":"SCALAR"},{"bufferView":13,"componentType":5126,"count":1,"max":[0,0,0,1],"min":[0,0,0,1],"type":"VEC4"},{"bufferView":14,"componentType":5126,"count":1,"max":[0],"min":[0],"type":"SCALAR"},{"bufferView":15,"componentType":5126,"count":1,"max":[0,-0.03457031399011612,-0.04345703125],"min":[0,-0.03457031399011612,-0.04345703125],"type":"VEC3"},{"bufferView":16,"componentType":5126,"count":1,"max":[0],"min":[0],"type":"SCALAR"},{"bufferView":17,"componentType":5126,"count":1,"max":[-0.04549085721373558,0.7329387068748474,-0.6782169342041016,-0.027444498613476753],"min":[-0.04549085721373558,0.7329387068748474,-0.6782169342041016,-0.027444498613476753],"type":"VEC4"},{"bufferView":18,"componentType":5126,"count":1,"max":[0],"min":[0],"type":"SCALAR"},{"bufferView":19,"componentType":5126,"count":1,"max":[0.037109375,0.05068359524011612,-0.02490234375],"min":[0.037109375,0.05068359524011612,-0.02490234375],"type":"VEC3"},{"bufferView":20,"componentType":5126,"count":1,"max":[0],"min":[0],"type":"SCALAR"},{"bufferView":21,"componentType":5126,"count":1,"max":[1,1.5,1],"min":[1,1.5,1],"type":"VEC3"},{"bufferView":22,"componentType":5126,"count":1,"max":[0],"min":[0],"type":"SCALAR"},{"bufferView":23,"componentType":5126,"count":1,"max":[-0.3274250626564026,0.5180395245552063,-0.5657662153244019,0.5516670346260071],"min":[-0.3274250626564026,0.5180395245552063,-0.5657662153244019,0.5516670346260071],"type":"VEC4"},{"bufferView":24,"componentType":5126,"count":1,"max":[0],"min":[0],"type":"SCALAR"},{"bufferView":25,"componentType":5126,"count":1,"max":[-0.0390625,0.09130859375,-0.7509765625],"min":[-0.0390625,0.09130859375,-0.7509765625],"type":"VEC3"},{"bufferView":26,"componentType":5126,"count":1,"max":[0],"min":[0],"type":"SCALAR"},{"bufferView":27,"componentType":5126,"count":1,"max":[1,1.5,1],"min":[1,1.5,1],"type":"VEC3"}]}