{"asset":{"version":"2.0","generator":"Blockbench 4.8.3 glTF exporter"},"scenes":[{"nodes":[10],"name":"blockbench_export"}],"scene":0,"nodes":[{"name":"bolt"},{"translation":[0.04966187775838371,-0.0015012879088446285,0.12998765106011456],"name":"bullet"},{"translation":[-0.11842300683290247,0.020322865373466725,-0.3587576156170107],"name":"mag","children":[1]},{"translation":[0,0.4129882812500003,-0.02490234375],"name":"root","children":[0,2]},{"translation":[0.375,-0.6875,0],"name":"RightHand"},{"translation":[-0.375,1.1004882812500003,-0.02490234375],"name":"R","children":[4]},{"translation":[0,-0.03457031250000031,-0.04345703125],"name":"bone","children":[3,5]},{"translation":[-0.375,-0.6875,0],"name":"LeftHand"},{"translation":[0.375,1.06591796875,-0.068359375],"name":"l","children":[7]},{"translation":[0.5,0.12158203125,0.568359375],"name":"bone2","children":[6,8]},{"children":[9]}],"animations":[{"name":"reload_empty","samplers":[{"input":0,"output":1,"interpolation":"LINEAR"},{"input":2,"output":3,"interpolation":"LINEAR"},{"input":4,"output":5,"interpolation":"LINEAR"},{"input":6,"output":7,"interpolation":"LINEAR"},{"input":8,"output":9,"interpolation":"LINEAR"},{"input":10,"output":11,"interpolation":"LINEAR"},{"input":12,"output":13,"interpolation":"LINEAR"},{"input":14,"output":15,"interpolation":"LINEAR"},{"input":16,"output":17,"interpolation":"LINEAR"},{"input":18,"output":19,"interpolation":"LINEAR"},{"input":20,"output":21,"interpolation":"LINEAR"},{"input":22,"output":23,"interpolation":"LINEAR"},{"input":24,"output":25,"interpolation":"LINEAR"},{"input":26,"output":27,"interpolation":"LINEAR"},{"input":28,"output":29,"interpolation":"LINEAR"},{"input":30,"output":31,"interpolation":"LINEAR"},{"input":32,"output":33,"interpolation":"LINEAR"}],"channels":[{"sampler":0,"target":{"node":0,"path":"rotation"}},{"sampler":1,"target":{"node":0,"path":"translation"}},{"sampler":2,"target":{"node":2,"path":"rotation"}},{"sampler":3,"target":{"node":2,"path":"translation"}},{"sampler":4,"target":{"node":9,"path":"rotation"}},{"sampler":5,"target":{"node":9,"path":"translation"}},{"sampler":6,"target":{"node":6,"path":"rotation"}},{"sampler":7,"target":{"node":6,"path":"translation"}},{"sampler":8,"target":{"node":5,"path":"rotation"}},{"sampler":9,"target":{"node":5,"path":"translation"}},{"sampler":10,"target":{"node":5,"path":"scale"}},{"sampler":11,"target":{"node":8,"path":"rotation"}},{"sampler":12,"target":{"node":8,"path":"translation"}},{"sampler":13,"target":{"node":8,"path":"scale"}},{"sampler":14,"target":{"node":1,"path":"rotation"}},{"sampler":15,"target":{"node":1,"path":"translation"}},{"sampler":16,"target":{"node":1,"path":"scale"}}]}],"bufferViews":[{"buffer":0,"byteOffset":0,"byteLength":20},{"buffer":0,"byteOffset":20,"byteLength":80},{"buffer":0,"byteOffset":100,"byteLength":16},{"buffer":0,"byteOffset":116,"byteLength":48},{"buffer":0,"byteOffset":164,"byteLength":32},{"buffer":0,"byteOffset":196,"byteLength":128},{"buffer":0,"byteOffset":324,"byteLength":32},{"buffer":0,"byteOffset":356,"byteLength":96},{"buffer":0,"byteOffset":452,"byteLength":72},{"buffer":0,"byteOffset":524,"byteLength":288},{"buffer":0,"byteOffset":812,"byteLength":72},{"buffer":0,"byteOffset":884,"byteLength":216},{"buffer":0,"byteOffset":1100,"byteLength":104},{"buffer":0,"byteOffset":1204,"byteLength":416},{"buffer":0,"byteOffset":1620,"byteLength":104},{"buffer":0,"byteOffset":1724,"byteLength":312},{"buffer":0,"byteOffset":2036,"byteLength":36},{"buffer":0,"byteOffset":2072,"byteLength":144},{"buffer":0,"byteOffset":2216,"byteLength":36},{"buffer":0,"byteOffset":2252,"byteLength":108},{"buffer":0,"byteOffset":2360,"byteLength":4},{"buffer":0,"byteOffset":2364,"byteLength":12},{"buffer":0,"byteOffset":2376,"byteLength":108},{"buffer":0,"byteOffset":2484,"byteLength":432},{"buffer":0,"byteOffset":2916,"byteLength":104},{"buffer":0,"byteOffset":3020,"byteLength":312},{"buffer":0,"byteOffset":3332,"byteLength":4},{"buffer":0,"byteOffset":3336,"byteLength":12},{"buffer":0,"byteOffset":3348,"byteLength":20},{"buffer":0,"byteOffset":3368,"byteLength":80},{"buffer":0,"byteOffset":3448,"byteLength":24},{"buffer":0,"byteOffset":3472,"byteLength":72},{"buffer":0,"byteOffset":3544,"byteLength":20},{"buffer":0,"byteOffset":3564,"byteLength":60}],"buffers":[{"byteLength":3624,"uri":"data:application/octet-stream;base64,"}],"accessors":[{"bufferView":0,"componentType":5126,"count":5,"max":[3],"min":[0.0416666679084301],"type":"SCALAR"},{"bufferView":1,"componentType":5126,"count":5,"max":[0,0,0.18008996546268463,1],"min":[0,0,0,0.9836501479148865],"type":"VEC4"},{"bufferView":2,"componentType":5126,"count":4,"max":[2.9166667461395264],"min":[0.0416666679084301],"type":"SCALAR"},{"bufferView":3,"componentType":5126,"count":4,"max":[0,0,0.6162499785423279],"min":[0,0,0],"type":"VEC3"},{"bufferView":4,"componentType":5126,"count":8,"max":[1.5416666269302368],"min":[0.0416666679084301],"type":"SCALAR"},{"bufferView":5,"componentType":5126,"count":8,"max":[0.022741178050637245,0.05232350155711174,0.4867618978023529,1],"min":[-0.0030569816008210182,-0.08713756501674652,0,0.869175910949707],"type":"VEC4"},{"bufferView":6,"componentType":5126,"count":8,"max":[1.5416666269302368],"min":[0.0416666679084301],"type":"SCALAR"},{"bufferView":7,"componentType":5126,"count":8,"max":[-0.11842300742864609,0.02032286487519741,-0.3587576150894165],"min":[-1.6752979755401611,-1.1134271621704102,-0.6243826150894165],"type":"VEC3"},{"bufferView":8,"componentType":5126,"count":18,"max":[3.2916667461395264],"min":[0.0416666679084301],"type":"SCALAR"},{"bufferView":9,"componentType":5126,"count":18,"max":[0.004116989206522703,0.030517667531967163,0,1],"min":[-0.004662315361201763,-0.0045674508437514305,-0.05669333040714264,0.9983817338943481],"type":"VEC4"},{"bufferView":10,"componentType":5126,"count":18,"max":[3.2916667461395264],"min":[0.0416666679084301],"type":"SCALAR"},{"bufferView":11,"componentType":5126,"count":18,"max":[0.5186523199081421,0.14316406846046448,0.6364843845367432],"min":[0.5,0.08339843899011612,0.568359375],"type":"VEC3"},{"bufferView":12,"componentType":5126,"count":26,"max":[3.2916667461395264],"min":[0.0416666679084301],"type":"SCALAR"},{"bufferView":13,"componentType":5126,"count":26,"max":[0.03734390437602997,0.02534647099673748,0.06322598457336426,1],"min":[-0.01088799349963665,-0.010477136820554733,-0.05974248796701431,0.9974600076675415],"type":"VEC4"},{"bufferView":14,"componentType":5126,"count":26,"max":[3.2916667461395264],"min":[0.0416666679084301],"type":"SCALAR"},{"bufferView":15,"componentType":5126,"count":26,"max":[0.06519531458616257,-0.03457031399011612,0.025800781324505806],"min":[0,-0.09019531309604645,-0.10640624910593033],"type":"VEC3"},{"bufferView":16,"componentType":5126,"count":9,"max":[3.2916667461395264],"min":[0.0416666679084301],"type":"SCALAR"},{"bufferView":17,"componentType":5126,"count":9,"max":[0.012783880345523357,0.9642205834388733,-0.2478822022676468,0.043913256376981735],"min":[-0.07365134358406067,0.7329387068748474,-0.6782169342041016,-0.16830380260944366],"type":"VEC4"},{"bufferView":18,"componentType":5126,"count":9,"max":[3.2916667461395264],"min":[0.0416666679084301],"type":"SCALAR"},{"bufferView":19,"componentType":5126,"count":9,"max":[0.26587891578674316,0.45625001192092896,0.6099804639816284],"min":[0.03687499836087227,0.05048828199505806,-0.02490234375],"type":"VEC3"},{"bufferView":20,"componentType":5126,"count":1,"max":[0.0416666679084301],"min":[0.0416666679084301],"type":"SCALAR"},{"bufferView":21,"componentType":5126,"count":1,"max":[1,1.5,1],"min":[1,1.5,1],"type":"VEC3"},{"bufferView":22,"componentType":5126,"count":27,"max":[3.2916667461395264],"min":[0.0416666679084301],"type":"SCALAR"},{"bufferView":23,"componentType":5126,"count":27,"max":[0.06251158565282822,0.8058425784111023,-0.38358941674232483,0.6246234178543091],"min":[-0.5085825324058533,0.4456016421318054,-0.6923637986183167,-0.0841447189450264],"type":"VEC4"},{"bufferView":24,"componentType":5126,"count":26,"max":[3.2916667461395264],"min":[0.0416666679084301],"type":"SCALAR"},{"bufferView":25,"componentType":5126,"count":26,"max":[-0.0390625,0.3728320300579071,-0.18787109851837158],"min":[-1.6050000190734863,-0.6224218606948853,-0.7733203172683716],"type":"VEC3"},{"bufferView":26,"componentType":5126,"count":1,"max":[0.0416666679084301],"min":[0.0416666679084301],"type":"SCALAR"},{"bufferView":27,"componentType":5126,"count":1,"max":[1,1.5,1],"min":[1,1.5,1],"type":"VEC3"},{"bufferView":28,"componentType":5126,"count":5,"max":[3.3333332538604736],"min":[0.5],"type":"SCALAR"},{"bufferView":29,"componentType":5126,"count":5,"max":[0,0,0.11075282841920853,1],"min":[-0.5984934568405151,-0.6426158547401428,0,0.4653860926628113],"type":"VEC4"},{"bufferView":30,"componentType":5126,"count":6,"max":[3.3333332538604736],"min":[0.5],"type":"SCALAR"},{"bufferView":31,"componentType":5126,"count":6,"max":[1.8196033239364624,0.31734636425971985,0.1299876570701599],"min":[0.04966187849640846,-0.29310286045074463,0.1299876570701599],"type":"VEC3"},{"bufferView":32,"componentType":5126,"count":5,"max":[3.2083332538604736],"min":[0.5],"type":"SCALAR"},{"bufferView":33,"componentType":5126,"count":5,"max":[1,1,1],"min":[0,0,0],"type":"VEC3"}]}