{"asset":{"version":"2.0","generator":"Blockbench 4.8.3 glTF exporter"},"scenes":[{"nodes":[10],"name":"blockbench_export"}],"scene":0,"nodes":[{"translation":[0.375,-0.6875,0],"name":"RightHand"},{"translation":[-0.375,1.1004882812500003,-0.02490234375],"name":"R","children":[0]},{"name":"bolt"},{"translation":[0.04966187775838371,-0.0015012879088446285,0.12998765106011456],"name":"bullet"},{"translation":[-0.11842300683290247,0.020322865373466725,-0.3587576156170107],"name":"mag","children":[3]},{"translation":[0,0.4129882812500003,-0.02490234375],"name":"root","children":[2,4]},{"translation":[0,-0.03457031250000031,-0.04345703125],"name":"bone","children":[1,5]},{"translation":[-0.375,-0.6875,0],"name":"LeftHand"},{"translation":[0.375,1.06591796875,-0.068359375],"name":"l","children":[7]},{"translation":[0.5,0.12158203125,0.568359375],"name":"bone2","children":[6,8]},{"children":[9]}],"animations":[{"name":"fire","samplers":[{"input":0,"output":1,"interpolation":"LINEAR"},{"input":2,"output":3,"interpolation":"LINEAR"},{"input":4,"output":5,"interpolation":"LINEAR"},{"input":6,"output":7,"interpolation":"LINEAR"},{"input":8,"output":9,"interpolation":"LINEAR"},{"input":10,"output":11,"interpolation":"LINEAR"},{"input":12,"output":13,"interpolation":"LINEAR"},{"input":14,"output":15,"interpolation":"LINEAR"},{"input":16,"output":17,"interpolation":"LINEAR"},{"input":18,"output":19,"interpolation":"LINEAR"},{"input":20,"output":21,"interpolation":"LINEAR"},{"input":22,"output":23,"interpolation":"LINEAR"},{"input":24,"output":25,"interpolation":"LINEAR"},{"input":26,"output":27,"interpolation":"LINEAR"},{"input":28,"output":29,"interpolation":"LINEAR"},{"input":30,"output":31,"interpolation":"LINEAR"},{"input":32,"output":33,"interpolation":"LINEAR"}],"channels":[{"sampler":0,"target":{"node":2,"path":"rotation"}},{"sampler":1,"target":{"node":2,"path":"translation"}},{"sampler":2,"target":{"node":4,"path":"rotation"}},{"sampler":3,"target":{"node":4,"path":"translation"}},{"sampler":4,"target":{"node":9,"path":"rotation"}},{"sampler":5,"target":{"node":9,"path":"translation"}},{"sampler":6,"target":{"node":6,"path":"rotation"}},{"sampler":7,"target":{"node":6,"path":"translation"}},{"sampler":8,"target":{"node":1,"path":"rotation"}},{"sampler":9,"target":{"node":1,"path":"translation"}},{"sampler":10,"target":{"node":1,"path":"scale"}},{"sampler":11,"target":{"node":8,"path":"rotation"}},{"sampler":12,"target":{"node":8,"path":"translation"}},{"sampler":13,"target":{"node":8,"path":"scale"}},{"sampler":14,"target":{"node":3,"path":"rotation"}},{"sampler":15,"target":{"node":3,"path":"translation"}},{"sampler":16,"target":{"node":3,"path":"scale"}}]}],"bufferViews":[{"buffer":0,"byteOffset":0,"byteLength":24},{"buffer":0,"byteOffset":24,"byteLength":96},{"buffer":0,"byteOffset":120,"byteLength":24},{"buffer":0,"byteOffset":144,"byteLength":72},{"buffer":0,"byteOffset":216,"byteLength":4},{"buffer":0,"byteOffset":220,"byteLength":16},{"buffer":0,"byteOffset":236,"byteLength":4},{"buffer":0,"byteOffset":240,"byteLength":12},{"buffer":0,"byteOffset":252,"byteLength":4},{"buffer":0,"byteOffset":256,"byteLength":16},{"buffer":0,"byteOffset":272,"byteLength":4},{"buffer":0,"byteOffset":276,"byteLength":12},{"buffer":0,"byteOffset":288,"byteLength":36},{"buffer":0,"byteOffset":324,"byteLength":144},{"buffer":0,"byteOffset":468,"byteLength":36},{"buffer":0,"byteOffset":504,"byteLength":108},{"buffer":0,"byteOffset":612,"byteLength":36},{"buffer":0,"byteOffset":648,"byteLength":144},{"buffer":0,"byteOffset":792,"byteLength":36},{"buffer":0,"byteOffset":828,"byteLength":108},{"buffer":0,"byteOffset":936,"byteLength":4},{"buffer":0,"byteOffset":940,"byteLength":12},{"buffer":0,"byteOffset":952,"byteLength":36},{"buffer":0,"byteOffset":988,"byteLength":144},{"buffer":0,"byteOffset":1132,"byteLength":36},{"buffer":0,"byteOffset":1168,"byteLength":108},{"buffer":0,"byteOffset":1276,"byteLength":4},{"buffer":0,"byteOffset":1280,"byteLength":12},{"buffer":0,"byteOffset":1292,"byteLength":16},{"buffer":0,"byteOffset":1308,"byteLength":64},{"buffer":0,"byteOffset":1372,"byteLength":16},{"buffer":0,"byteOffset":1388,"byteLength":48},{"buffer":0,"byteOffset":1436,"byteLength":8},{"buffer":0,"byteOffset":1444,"byteLength":24}],"buffers":[{"byteLength":1468,"uri":"data:application/octet-stream;base64,"}],"accessors":[{"bufferView":0,"componentType":5126,"count":6,"max":[0.6666666865348816],"min":[0.0416666679084301],"type":"SCALAR"},{"bufferView":1,"componentType":5126,"count":6,"max":[0,0,0.18866696953773499,1],"min":[0,0,0,0.9820411205291748],"type":"VEC4"},{"bufferView":2,"componentType":5126,"count":6,"max":[0.5833333134651184],"min":[0.0416666679084301],"type":"SCALAR"},{"bufferView":3,"componentType":5126,"count":6,"max":[0,0,0.596875011920929],"min":[0,0,0],"type":"VEC3"},{"bufferView":4,"componentType":5126,"count":1,"max":[0.0416666679084301],"min":[0.0416666679084301],"type":"SCALAR"},{"bufferView":5,"componentType":5126,"count":1,"max":[0,0,0,1],"min":[0,0,0,1],"type":"VEC4"},{"bufferView":6,"componentType":5126,"count":1,"max":[0.0416666679084301],"min":[0.0416666679084301],"type":"SCALAR"},{"bufferView":7,"componentType":5126,"count":1,"max":[-0.11842300742864609,0.02032286487519741,-0.3587576150894165],"min":[-0.11842300742864609,0.02032286487519741,-0.3587576150894165],"type":"VEC3"},{"bufferView":8,"componentType":5126,"count":1,"max":[0.0416666679084301],"min":[0.0416666679084301],"type":"SCALAR"},{"bufferView":9,"componentType":5126,"count":1,"max":[0,0,0,1],"min":[0,0,0,1],"type":"VEC4"},{"bufferView":10,"componentType":5126,"count":1,"max":[0.0416666679084301],"min":[0.0416666679084301],"type":"SCALAR"},{"bufferView":11,"componentType":5126,"count":1,"max":[0.5,0.12158203125,0.568359375],"min":[0.5,0.12158203125,0.568359375],"type":"VEC3"},{"bufferView":12,"componentType":5126,"count":9,"max":[0.9166666865348816],"min":[0.0416666679084301],"type":"SCALAR"},{"bufferView":13,"componentType":5126,"count":9,"max":[0.017352038994431496,0.004231730941683054,0.010865896940231323,1],"min":[0,-0.010525315068662167,-0.02409358322620392,0.9995957612991333],"type":"VEC4"},{"bufferView":14,"componentType":5126,"count":9,"max":[0.9166666865348816],"min":[0.0416666679084301],"type":"SCALAR"},{"bufferView":15,"componentType":5126,"count":9,"max":[0,-0.025175781920552254,0.03857421875],"min":[-0.010175781324505806,-0.03457031399011612,-0.06166015565395355],"type":"VEC3"},{"bufferView":16,"componentType":5126,"count":9,"max":[1],"min":[0.0416666679084301],"type":"SCALAR"},{"bufferView":17,"componentType":5126,"count":9,"max":[0.10789364576339722,0.9217489361763,-0.2841324508190155,0.06118093803524971],"min":[-0.11185482889413834,0.6933254599571228,-0.7124723792076111,-0.23906148970127106],"type":"VEC4"},{"bufferView":18,"componentType":5126,"count":9,"max":[1],"min":[0.0416666679084301],"type":"SCALAR"},{"bufferView":19,"componentType":5126,"count":9,"max":[0.4756445288658142,0.43861329555511475,0.5300976634025574],"min":[0.037109375,0.05068359524011612,-0.1123046875],"type":"VEC3"},{"bufferView":20,"componentType":5126,"count":1,"max":[0.0416666679084301],"min":[0.0416666679084301],"type":"SCALAR"},{"bufferView":21,"componentType":5126,"count":1,"max":[1,1.5,1],"min":[1,1.5,1],"type":"VEC3"},{"bufferView":22,"componentType":5126,"count":9,"max":[1],"min":[0.0416666679084301],"type":"SCALAR"},{"bufferView":23,"componentType":5126,"count":9,"max":[-0.2926276922225952,0.5541726350784302,-0.5475366711616516,0.574543297290802],"min":[-0.3415718674659729,0.5058295130729675,-0.5667608976364136,0.5392136573791504],"type":"VEC4"},{"bufferView":24,"componentType":5126,"count":9,"max":[1],"min":[0.0416666679084301],"type":"SCALAR"},{"bufferView":25,"componentType":5126,"count":9,"max":[-0.0390625,0.09154296666383743,-0.6556445360183716],"min":[-0.07765624672174454,0.09130859375,-0.7509765625],"type":"VEC3"},{"bufferView":26,"componentType":5126,"count":1,"max":[0.0416666679084301],"min":[0.0416666679084301],"type":"SCALAR"},{"bufferView":27,"componentType":5126,"count":1,"max":[1,1.5,1],"min":[1,1.5,1],"type":"VEC3"},{"bufferView":28,"componentType":5126,"count":4,"max":[1],"min":[0.2916666567325592],"type":"SCALAR"},{"bufferView":29,"componentType":5126,"count":4,"max":[0,0.07204641401767731,0.5085945725440979,1],"min":[-0.8661230206489563,-0.2543887197971344,0,0.10058192163705826],"type":"VEC4"},{"bufferView":30,"componentType":5126,"count":4,"max":[1],"min":[0.2916666567325592],"type":"SCALAR"},{"bufferView":31,"componentType":5126,"count":4,"max":[1.5780408382415771,0.34224870800971985,0.1299876570701599],"min":[0.04966187849640846,-0.8315207958221436,-0.2557545304298401],"type":"VEC3"},{"bufferView":32,"componentType":5126,"count":2,"max":[0.8333333134651184],"min":[0.7916666865348816],"type":"SCALAR"},{"bufferView":33,"componentType":5126,"count":2,"max":[1,1,1],"min":[0,0,0],"type":"VEC3"}]}