{"asset":{"version":"2.0","generator":"Blockbench 4.8.3 glTF exporter"},"scenes":[{"nodes":[10],"name":"blockbench_export"}],"scene":0,"nodes":[{"name":"bolt"},{"translation":[0.04966187775838371,-0.0015012879088446285,0.12998765106011456],"name":"bullet"},{"translation":[-0.11842300683290247,0.020322865373466725,-0.3587576156170107],"name":"mag","children":[1]},{"translation":[0,0.4129882812500003,-0.02490234375],"name":"root","children":[0,2]},{"translation":[0.375,-0.6875,0],"name":"RightHand"},{"translation":[-0.375,1.1004882812500003,-0.02490234375],"name":"R","children":[4]},{"translation":[0,-0.03457031250000031,-0.04345703125],"name":"bone","children":[3,5]},{"translation":[-0.375,-0.6875,0],"name":"LeftHand"},{"translation":[0.375,1.06591796875,-0.068359375],"name":"l","children":[7]},{"translation":[0.5,0.12158203125,0.568359375],"name":"bone2","children":[6,8]},{"children":[9]}],"animations":[{"name":"draw","samplers":[{"input":0,"output":1,"interpolation":"LINEAR"},{"input":2,"output":3,"interpolation":"LINEAR"},{"input":4,"output":5,"interpolation":"LINEAR"},{"input":6,"output":7,"interpolation":"LINEAR"},{"input":8,"output":9,"interpolation":"LINEAR"},{"input":10,"output":11,"interpolation":"LINEAR"},{"input":12,"output":13,"interpolation":"LINEAR"},{"input":14,"output":15,"interpolation":"LINEAR"},{"input":16,"output":17,"interpolation":"LINEAR"},{"input":18,"output":19,"interpolation":"LINEAR"},{"input":20,"output":21,"interpolation":"LINEAR"},{"input":22,"output":23,"interpolation":"LINEAR"},{"input":24,"output":25,"interpolation":"LINEAR"},{"input":26,"output":27,"interpolation":"LINEAR"}],"channels":[{"sampler":0,"target":{"node":0,"path":"rotation"}},{"sampler":1,"target":{"node":0,"path":"translation"}},{"sampler":2,"target":{"node":2,"path":"rotation"}},{"sampler":3,"target":{"node":2,"path":"translation"}},{"sampler":4,"target":{"node":9,"path":"rotation"}},{"sampler":5,"target":{"node":9,"path":"translation"}},{"sampler":6,"target":{"node":6,"path":"rotation"}},{"sampler":7,"target":{"node":6,"path":"translation"}},{"sampler":8,"target":{"node":5,"path":"rotation"}},{"sampler":9,"target":{"node":5,"path":"translation"}},{"sampler":10,"target":{"node":5,"path":"scale"}},{"sampler":11,"target":{"node":8,"path":"rotation"}},{"sampler":12,"target":{"node":8,"path":"translation"}},{"sampler":13,"target":{"node":8,"path":"scale"}}]}],"bufferViews":[{"buffer":0,"byteOffset":0,"byteLength":20},{"buffer":0,"byteOffset":20,"byteLength":80},{"buffer":0,"byteOffset":100,"byteLength":16},{"buffer":0,"byteOffset":116,"byteLength":48},{"buffer":0,"byteOffset":164,"byteLength":4},{"buffer":0,"byteOffset":168,"byteLength":16},{"buffer":0,"byteOffset":184,"byteLength":4},{"buffer":0,"byteOffset":188,"byteLength":12},{"buffer":0,"byteOffset":200,"byteLength":36},{"buffer":0,"byteOffset":236,"byteLength":144},{"buffer":0,"byteOffset":380,"byteLength":36},{"buffer":0,"byteOffset":416,"byteLength":108},{"buffer":0,"byteOffset":524,"byteLength":20},{"buffer":0,"byteOffset":544,"byteLength":80},{"buffer":0,"byteOffset":624,"byteLength":20},{"buffer":0,"byteOffset":644,"byteLength":60},{"buffer":0,"byteOffset":704,"byteLength":24},{"buffer":0,"byteOffset":728,"byteLength":96},{"buffer":0,"byteOffset":824,"byteLength":24},{"buffer":0,"byteOffset":848,"byteLength":72},{"buffer":0,"byteOffset":920,"byteLength":4},{"buffer":0,"byteOffset":924,"byteLength":12},{"buffer":0,"byteOffset":936,"byteLength":20},{"buffer":0,"byteOffset":956,"byteLength":80},{"buffer":0,"byteOffset":1036,"byteLength":20},{"buffer":0,"byteOffset":1056,"byteLength":60},{"buffer":0,"byteOffset":1116,"byteLength":4},{"buffer":0,"byteOffset":1120,"byteLength":12}],"buffers":[{"byteLength":1132,"uri":"data:application/octet-stream;base64,"}],"accessors":[{"bufferView":0,"componentType":5126,"count":5,"max":[0.875],"min":[0],"type":"SCALAR"},{"bufferView":1,"componentType":5126,"count":5,"max":[0,0,0.19509032368659973,1],"min":[0,0,0,0.9807852506637573],"type":"VEC4"},{"bufferView":2,"componentType":5126,"count":4,"max":[0.7916666865348816],"min":[0],"type":"SCALAR"},{"bufferView":3,"componentType":5126,"count":4,"max":[0,0,0.60009765625],"min":[0,0,0],"type":"VEC3"},{"bufferView":4,"componentType":5126,"count":1,"max":[0.0416666679084301],"min":[0.0416666679084301],"type":"SCALAR"},{"bufferView":5,"componentType":5126,"count":1,"max":[0,0,0,1],"min":[0,0,0,1],"type":"VEC4"},{"bufferView":6,"componentType":5126,"count":1,"max":[0.0416666679084301],"min":[0.0416666679084301],"type":"SCALAR"},{"bufferView":7,"componentType":5126,"count":1,"max":[-0.11842300742864609,0.02032286487519741,-0.3587576150894165],"min":[-0.11842300742864609,0.02032286487519741,-0.3587576150894165],"type":"VEC3"},{"bufferView":8,"componentType":5126,"count":9,"max":[1.125],"min":[0.0416666679084301],"type":"SCALAR"},{"bufferView":9,"componentType":5126,"count":9,"max":[0.0024845844600349665,0.01752583496272564,0.04579189047217369,1],"min":[-0.006855493877083063,0,-0.010908091440796852,0.9987985491752625],"type":"VEC4"},{"bufferView":10,"componentType":5126,"count":9,"max":[1.125],"min":[0.0416666679084301],"type":"SCALAR"},{"bufferView":11,"componentType":5126,"count":9,"max":[0.5,0.13916015625,0.576367199420929],"min":[0.5,0.10658203065395355,0.48705077171325684],"type":"VEC3"},{"bufferView":12,"componentType":5126,"count":5,"max":[0.5833333134651184],"min":[0.0416666679084301],"type":"SCALAR"},{"bufferView":13,"componentType":5126,"count":5,"max":[0.03425123915076256,0.25140973925590515,0.1357424259185791,1],"min":[-0.3815627098083496,-0.012787651270627975,-0.05485817417502403,0.8790773749351501],"type":"VEC4"},{"bufferView":14,"componentType":5126,"count":5,"max":[0.5833333134651184],"min":[0.0416666679084301],"type":"SCALAR"},{"bufferView":15,"componentType":5126,"count":5,"max":[0,0.02792968787252903,0.0361328125],"min":[0,-0.8495117425918579,-0.06865234673023224],"type":"VEC3"},{"bufferView":16,"componentType":5126,"count":6,"max":[1.125],"min":[0.4583333432674408],"type":"SCALAR"},{"bufferView":17,"componentType":5126,"count":6,"max":[0.06588569283485413,0.9395444989204407,-0.3278229534626007,-0.027444498613476753],"min":[-0.09500811249017715,0.7329387068748474,-0.6782169342041016,-0.272940456867218],"type":"VEC4"},{"bufferView":18,"componentType":5126,"count":6,"max":[1.125],"min":[0.4583333432674408],"type":"SCALAR"},{"bufferView":19,"componentType":5126,"count":6,"max":[0.23804686963558197,0.43855467438697815,0.544921875],"min":[0.037109375,0.05068359524011612,-0.034003905951976776],"type":"VEC3"},{"bufferView":20,"componentType":5126,"count":1,"max":[0.4583333432674408],"min":[0.4583333432674408],"type":"SCALAR"},{"bufferView":21,"componentType":5126,"count":1,"max":[1,1.5,1],"min":[1,1.5,1],"type":"VEC3"},{"bufferView":22,"componentType":5126,"count":5,"max":[0.5833333134651184],"min":[0.0416666679084301],"type":"SCALAR"},{"bufferView":23,"componentType":5126,"count":5,"max":[-0.09015443176031113,0.5228375196456909,-0.5526373386383057,0.582326352596283],"min":[-0.3274250626564026,0.5076457262039185,-0.7622456550598145,0.37080278992652893],"type":"VEC4"},{"bufferView":24,"componentType":5126,"count":5,"max":[0.5833333134651184],"min":[0.0416666679084301],"type":"SCALAR"},{"bufferView":25,"componentType":5126,"count":5,"max":[-0.022285155951976776,0.20263671875,-0.7508593797683716],"min":[-0.83056640625,-1.06494140625,-1.07861328125],"type":"VEC3"},{"bufferView":26,"componentType":5126,"count":1,"max":[0.0416666679084301],"min":[0.0416666679084301],"type":"SCALAR"},{"bufferView":27,"componentType":5126,"count":1,"max":[1,1.5,1],"min":[1,1.5,1],"type":"VEC3"}]}