{"asset":{"version":"2.0","generator":"Blockbench 4.8.3 glTF exporter"},"scenes":[{"nodes":[10],"name":"blockbench_export"}],"scene":0,"nodes":[{"translation":[0.375,-0.6875,0],"name":"RightHand"},{"translation":[-0.375,1.1004882812500003,-0.02490234375],"name":"R","children":[0]},{"name":"bolt"},{"translation":[0.04966187775838371,-0.0015012879088446285,0.12998765106011456],"name":"bullet"},{"translation":[-0.11842300683290247,0.020322865373466725,-0.3587576156170107],"name":"mag","children":[3]},{"translation":[0,0.4129882812500003,-0.02490234375],"name":"root","children":[2,4]},{"translation":[0,-0.03457031250000031,-0.04345703125],"name":"bone","children":[1,5]},{"translation":[-0.375,-0.6875,0],"name":"LeftHand"},{"translation":[0.375,1.06591796875,-0.068359375],"name":"l","children":[7]},{"translation":[0.5,0.12158203125,0.568359375],"name":"bone2","children":[6,8]},{"children":[9]}],"animations":[{"name":"reload_norm","samplers":[{"input":0,"output":1,"interpolation":"LINEAR"},{"input":2,"output":3,"interpolation":"LINEAR"},{"input":4,"output":5,"interpolation":"LINEAR"},{"input":6,"output":7,"interpolation":"LINEAR"},{"input":8,"output":9,"interpolation":"LINEAR"},{"input":10,"output":11,"interpolation":"LINEAR"},{"input":12,"output":13,"interpolation":"LINEAR"},{"input":14,"output":15,"interpolation":"LINEAR"},{"input":16,"output":17,"interpolation":"LINEAR"},{"input":18,"output":19,"interpolation":"LINEAR"},{"input":20,"output":21,"interpolation":"LINEAR"},{"input":22,"output":23,"interpolation":"LINEAR"},{"input":24,"output":25,"interpolation":"LINEAR"},{"input":26,"output":27,"interpolation":"LINEAR"}],"channels":[{"sampler":0,"target":{"node":2,"path":"rotation"}},{"sampler":1,"target":{"node":2,"path":"translation"}},{"sampler":2,"target":{"node":4,"path":"rotation"}},{"sampler":3,"target":{"node":4,"path":"translation"}},{"sampler":4,"target":{"node":9,"path":"rotation"}},{"sampler":5,"target":{"node":9,"path":"translation"}},{"sampler":6,"target":{"node":6,"path":"rotation"}},{"sampler":7,"target":{"node":6,"path":"translation"}},{"sampler":8,"target":{"node":1,"path":"rotation"}},{"sampler":9,"target":{"node":1,"path":"translation"}},{"sampler":10,"target":{"node":1,"path":"scale"}},{"sampler":11,"target":{"node":8,"path":"rotation"}},{"sampler":12,"target":{"node":8,"path":"translation"}},{"sampler":13,"target":{"node":8,"path":"scale"}}]}],"bufferViews":[{"buffer":0,"byteOffset":0,"byteLength":4},{"buffer":0,"byteOffset":4,"byteLength":16},{"buffer":0,"byteOffset":20,"byteLength":4},{"buffer":0,"byteOffset":24,"byteLength":12},{"buffer":0,"byteOffset":36,"byteLength":152},{"buffer":0,"byteOffset":188,"byteLength":608},{"buffer":0,"byteOffset":796,"byteLength":160},{"buffer":0,"byteOffset":956,"byteLength":480},{"buffer":0,"byteOffset":1436,"byteLength":244},{"buffer":0,"byteOffset":1680,"byteLength":976},{"buffer":0,"byteOffset":2656,"byteLength":240},{"buffer":0,"byteOffset":2896,"byteLength":720},{"buffer":0,"byteOffset":3616,"byteLength":228},{"buffer":0,"byteOffset":3844,"byteLength":912},{"buffer":0,"byteOffset":4756,"byteLength":228},{"buffer":0,"byteOffset":4984,"byteLength":684},{"buffer":0,"byteOffset":5668,"byteLength":4},{"buffer":0,"byteOffset":5672,"byteLength":16},{"buffer":0,"byteOffset":5688,"byteLength":228},{"buffer":0,"byteOffset":5916,"byteLength":684},{"buffer":0,"byteOffset":6600,"byteLength":228},{"buffer":0,"byteOffset":6828,"byteLength":684},{"buffer":0,"byteOffset":7512,"byteLength":240},{"buffer":0,"byteOffset":7752,"byteLength":960},{"buffer":0,"byteOffset":8712,"byteLength":240},{"buffer":0,"byteOffset":8952,"byteLength":720},{"buffer":0,"byteOffset":9672,"byteLength":4},{"buffer":0,"byteOffset":9676,"byteLength":12}],"buffers":[{"byteLength":9688,"uri":"data:application/octet-stream;base64,"}],"accessors":[{"bufferView":0,"componentType":5126,"count":1,"max":[0.0416666679084301],"min":[0.0416666679084301],"type":"SCALAR"},{"bufferView":1,"componentType":5126,"count":1,"max":[0,0,0,1],"min":[0,0,0,1],"type":"VEC4"},{"bufferView":2,"componentType":5126,"count":1,"max":[0.0416666679084301],"min":[0.0416666679084301],"type":"SCALAR"},{"bufferView":3,"componentType":5126,"count":1,"max":[0,0,0],"min":[0,0,0],"type":"VEC3"},{"bufferView":4,"componentType":5126,"count":38,"max":[2],"min":[0.4583333432674408],"type":"SCALAR"},{"bufferView":5,"componentType":5126,"count":38,"max":[0.0005998060223646462,0.04354923218488693,0.41968971490859985,1],"min":[-0.0024729047436267138,-0.0031811604276299477,-0.0010471973801031709,0.9076676368713379],"type":"VEC4"},{"bufferView":6,"componentType":5126,"count":40,"max":[2.0833332538604736],"min":[0.4583333432674408],"type":"SCALAR"},{"bufferView":7,"componentType":5126,"count":40,"max":[-0.11842300742864609,0.08532286435365677,-0.3587576150894165],"min":[-1.7296730279922485,-0.9634271264076233,-0.3587576150894165],"type":"VEC3"},{"bufferView":8,"componentType":5126,"count":61,"max":[2.5416667461395264],"min":[0.0416666679084301],"type":"SCALAR"},{"bufferView":9,"componentType":5126,"count":61,"max":[0,0.006810957565903664,0.010968182235956192,1],"min":[-0.014069161377847195,-0.04152369499206543,-0.012936186045408249,0.9990977048873901],"type":"VEC4"},{"bufferView":10,"componentType":5126,"count":60,"max":[2.5],"min":[0.0416666679084301],"type":"SCALAR"},{"bufferView":11,"componentType":5126,"count":60,"max":[0.512499988079071,0.12345702946186066,0.5746093988418579],"min":[0.49937498569488525,0.07408203184604645,0.5564844012260437],"type":"VEC3"},{"bufferView":12,"componentType":5126,"count":57,"max":[2.4166667461395264],"min":[0.0833333358168602],"type":"SCALAR"},{"bufferView":13,"componentType":5126,"count":57,"max":[0.06056438758969307,0.013145312666893005,0.055862367153167725,1],"min":[0,-0.01231749914586544,-0.03429778292775154,0.9974988102912903],"type":"VEC4"},{"bufferView":14,"componentType":5126,"count":57,"max":[2.375],"min":[0.0416666679084301],"type":"SCALAR"},{"bufferView":15,"componentType":5126,"count":57,"max":[0.008750000037252903,-0.030195312574505806,0.014667969197034836],"min":[-0.014999999664723873,-0.05582031235098839,-0.04345703125],"type":"VEC3"},{"bufferView":16,"componentType":5126,"count":1,"max":[0.0416666679084301],"min":[0.0416666679084301],"type":"SCALAR"},{"bufferView":17,"componentType":5126,"count":1,"max":[-0.045506637543439865,0.7329488396644592,-0.6782057881355286,-0.027422597631812096],"min":[-0.045506637543439865,0.7329488396644592,-0.6782057881355286,-0.027422597631812096],"type":"VEC4"},{"bufferView":18,"componentType":5126,"count":57,"max":[2.375],"min":[0.0416666679084301],"type":"SCALAR"},{"bufferView":19,"componentType":5126,"count":57,"max":[0.03687499836087227,0.05048828199505806,-0.02490234375],"min":[0.03687499836087227,0.05048828199505806,-0.02490234375],"type":"VEC3"},{"bufferView":20,"componentType":5126,"count":57,"max":[2.375],"min":[0.0416666679084301],"type":"SCALAR"},{"bufferView":21,"componentType":5126,"count":57,"max":[1,1.5,1],"min":[1,1.5,1],"type":"VEC3"},{"bufferView":22,"componentType":5126,"count":60,"max":[2.5416667461395264],"min":[0.0833333358168602],"type":"SCALAR"},{"bufferView":23,"componentType":5126,"count":60,"max":[-0.07359275221824646,0.7998653650283813,-0.463714063167572,0.551699161529541],"min":[-0.5045984983444214,0.5180107951164246,-0.6480425000190735,0.13262414932250977],"type":"VEC4"},{"bufferView":24,"componentType":5126,"count":60,"max":[2.5],"min":[0.0416666679084301],"type":"SCALAR"},{"bufferView":25,"componentType":5126,"count":60,"max":[-0.039374999701976776,0.34654295444488525,-0.13273437321186066],"min":[-1.8406250476837158,-0.9459570050239563,-0.7508593797683716],"type":"VEC3"},{"bufferView":26,"componentType":5126,"count":1,"max":[0.0416666679084301],"min":[0.0416666679084301],"type":"SCALAR"},{"bufferView":27,"componentType":5126,"count":1,"max":[1,1.5,1],"min":[1,1.5,1],"type":"VEC3"}]}