{"asset":{"version":"2.0","generator":"Blockbench 4.8.3 glTF exporter"},"scenes":[{"nodes":[10],"name":"blockbench_export"}],"scene":0,"nodes":[{"name":"bolt"},{"translation":[0.04966187775838371,-0.0015012879088446285,0.12998765106011456],"name":"bullet"},{"translation":[-0.11842300683290247,0.020322865373466725,-0.3587576156170107],"name":"mag","children":[1]},{"translation":[0,0.4129882812500003,-0.02490234375],"name":"root","children":[0,2]},{"translation":[0.375,-0.6875,0],"name":"RightHand"},{"translation":[-0.375,1.1004882812500003,-0.02490234375],"name":"R","children":[4]},{"translation":[0,-0.03457031250000031,-0.04345703125],"name":"bone","children":[3,5]},{"translation":[-0.375,-0.6875,0],"name":"LeftHand"},{"translation":[0.375,1.06591796875,-0.068359375],"name":"l","children":[7]},{"translation":[0.5,0.12158203125,0.568359375],"name":"bone2","children":[6,8]},{"children":[9]}],"animations":[{"name":"reload_norm","samplers":[{"input":0,"output":1,"interpolation":"LINEAR"},{"input":2,"output":3,"interpolation":"LINEAR"},{"input":4,"output":5,"interpolation":"LINEAR"},{"input":6,"output":7,"interpolation":"LINEAR"},{"input":8,"output":9,"interpolation":"LINEAR"},{"input":10,"output":11,"interpolation":"LINEAR"},{"input":12,"output":13,"interpolation":"LINEAR"},{"input":14,"output":15,"interpolation":"LINEAR"},{"input":16,"output":17,"interpolation":"LINEAR"},{"input":18,"output":19,"interpolation":"LINEAR"},{"input":20,"output":21,"interpolation":"LINEAR"},{"input":22,"output":23,"interpolation":"LINEAR"},{"input":24,"output":25,"interpolation":"LINEAR"},{"input":26,"output":27,"interpolation":"LINEAR"}],"channels":[{"sampler":0,"target":{"node":0,"path":"rotation"}},{"sampler":1,"target":{"node":0,"path":"translation"}},{"sampler":2,"target":{"node":2,"path":"rotation"}},{"sampler":3,"target":{"node":2,"path":"translation"}},{"sampler":4,"target":{"node":9,"path":"rotation"}},{"sampler":5,"target":{"node":9,"path":"translation"}},{"sampler":6,"target":{"node":6,"path":"rotation"}},{"sampler":7,"target":{"node":6,"path":"translation"}},{"sampler":8,"target":{"node":5,"path":"rotation"}},{"sampler":9,"target":{"node":5,"path":"translation"}},{"sampler":10,"target":{"node":5,"path":"scale"}},{"sampler":11,"target":{"node":8,"path":"rotation"}},{"sampler":12,"target":{"node":8,"path":"translation"}},{"sampler":13,"target":{"node":8,"path":"scale"}}]}],"bufferViews":[{"buffer":0,"byteOffset":0,"byteLength":4},{"buffer":0,"byteOffset":4,"byteLength":16},{"buffer":0,"byteOffset":20,"byteLength":4},{"buffer":0,"byteOffset":24,"byteLength":12},{"buffer":0,"byteOffset":36,"byteLength":32},{"buffer":0,"byteOffset":68,"byteLength":128},{"buffer":0,"byteOffset":196,"byteLength":32},{"buffer":0,"byteOffset":228,"byteLength":96},{"buffer":0,"byteOffset":324,"byteLength":60},{"buffer":0,"byteOffset":384,"byteLength":240},{"buffer":0,"byteOffset":624,"byteLength":60},{"buffer":0,"byteOffset":684,"byteLength":180},{"buffer":0,"byteOffset":864,"byteLength":76},{"buffer":0,"byteOffset":940,"byteLength":304},{"buffer":0,"byteOffset":1244,"byteLength":76},{"buffer":0,"byteOffset":1320,"byteLength":228},{"buffer":0,"byteOffset":1548,"byteLength":4},{"buffer":0,"byteOffset":1552,"byteLength":16},{"buffer":0,"byteOffset":1568,"byteLength":4},{"buffer":0,"byteOffset":1572,"byteLength":12},{"buffer":0,"byteOffset":1584,"byteLength":4},{"buffer":0,"byteOffset":1588,"byteLength":12},{"buffer":0,"byteOffset":1600,"byteLength":80},{"buffer":0,"byteOffset":1680,"byteLength":320},{"buffer":0,"byteOffset":2000,"byteLength":76},{"buffer":0,"byteOffset":2076,"byteLength":228},{"buffer":0,"byteOffset":2304,"byteLength":4},{"buffer":0,"byteOffset":2308,"byteLength":12}],"buffers":[{"byteLength":2320,"uri":"data:application/octet-stream;base64,"}],"accessors":[{"bufferView":0,"componentType":5126,"count":1,"max":[0.0416666679084301],"min":[0.0416666679084301],"type":"SCALAR"},{"bufferView":1,"componentType":5126,"count":1,"max":[0,0,0,1],"min":[0,0,0,1],"type":"VEC4"},{"bufferView":2,"componentType":5126,"count":1,"max":[0.0416666679084301],"min":[0.0416666679084301],"type":"SCALAR"},{"bufferView":3,"componentType":5126,"count":1,"max":[0,0,0],"min":[0,0,0],"type":"VEC3"},{"bufferView":4,"componentType":5126,"count":8,"max":[1.5416666269302368],"min":[0.0416666679084301],"type":"SCALAR"},{"bufferView":5,"componentType":5126,"count":8,"max":[0.022741178050637245,0.05232350155711174,0.4867618978023529,1],"min":[-0.0030569816008210182,-0.08713756501674652,0,0.869175910949707],"type":"VEC4"},{"bufferView":6,"componentType":5126,"count":8,"max":[1.5416666269302368],"min":[0.0416666679084301],"type":"SCALAR"},{"bufferView":7,"componentType":5126,"count":8,"max":[-0.11842300742864609,0.02032286487519741,-0.3587576150894165],"min":[-1.6752979755401611,-1.1134271621704102,-0.6243826150894165],"type":"VEC3"},{"bufferView":8,"componentType":5126,"count":15,"max":[2.4583332538604736],"min":[0.0416666679084301],"type":"SCALAR"},{"bufferView":9,"componentType":5126,"count":15,"max":[0.0009895832045003772,0.030517667531967163,0.015270455740392208,1],"min":[-0.00013326325279194862,0,-0.034902650862932205,0.999390721321106],"type":"VEC4"},{"bufferView":10,"componentType":5126,"count":15,"max":[2.4583332538604736],"min":[0.0416666679084301],"type":"SCALAR"},{"bufferView":11,"componentType":5126,"count":15,"max":[0.5186523199081421,0.12158203125,0.6364843845367432],"min":[0.5,0.08339843899011612,0.54443359375],"type":"VEC3"},{"bufferView":12,"componentType":5126,"count":19,"max":[2.3333332538604736],"min":[0.0416666679084301],"type":"SCALAR"},{"bufferView":13,"componentType":5126,"count":19,"max":[0.03734390437602997,0.02534647099673748,0,1],"min":[0,-0.010477136820554733,-0.05974248796701431,0.9974600076675415],"type":"VEC4"},{"bufferView":14,"componentType":5126,"count":19,"max":[2.3333332538604736],"min":[0.0416666679084301],"type":"SCALAR"},{"bufferView":15,"componentType":5126,"count":19,"max":[0.06519531458616257,-0.03457031399011612,0.025800781324505806],"min":[0,-0.09019531309604645,-0.04345703125],"type":"VEC3"},{"bufferView":16,"componentType":5126,"count":1,"max":[0.0416666679084301],"min":[0.0416666679084301],"type":"SCALAR"},{"bufferView":17,"componentType":5126,"count":1,"max":[-0.04549085721373558,0.7329387068748474,-0.6782169342041016,-0.027444498613476753],"min":[-0.04549085721373558,0.7329387068748474,-0.6782169342041016,-0.027444498613476753],"type":"VEC4"},{"bufferView":18,"componentType":5126,"count":1,"max":[0.0416666679084301],"min":[0.0416666679084301],"type":"SCALAR"},{"bufferView":19,"componentType":5126,"count":1,"max":[0.037109375,0.05068359524011612,-0.02490234375],"min":[0.037109375,0.05068359524011612,-0.02490234375],"type":"VEC3"},{"bufferView":20,"componentType":5126,"count":1,"max":[0.0416666679084301],"min":[0.0416666679084301],"type":"SCALAR"},{"bufferView":21,"componentType":5126,"count":1,"max":[1,1.5,1],"min":[1,1.5,1],"type":"VEC3"},{"bufferView":22,"componentType":5126,"count":20,"max":[2.4583332538604736],"min":[0.0416666679084301],"type":"SCALAR"},{"bufferView":23,"componentType":5126,"count":20,"max":[0.06251158565282822,0.8058425784111023,-0.38358941674232483,0.5516670346260071],"min":[-0.5085825324058533,0.5062053203582764,-0.6923637986183167,-0.0841447189450264],"type":"VEC4"},{"bufferView":24,"componentType":5126,"count":19,"max":[2.4583332538604736],"min":[0.0416666679084301],"type":"SCALAR"},{"bufferView":25,"componentType":5126,"count":19,"max":[-0.0390625,0.3728320300579071,-0.18787109851837158],"min":[-1.6050000190734863,-0.6224218606948853,-0.7509765625],"type":"VEC3"},{"bufferView":26,"componentType":5126,"count":1,"max":[0.0416666679084301],"min":[0.0416666679084301],"type":"SCALAR"},{"bufferView":27,"componentType":5126,"count":1,"max":[1,1.5,1],"min":[1,1.5,1],"type":"VEC3"}]}