{"asset":{"version":"2.0","generator":"Blockbench 4.8.3 glTF exporter"},"scenes":[{"nodes":[10],"name":"blockbench_export"}],"scene":0,"nodes":[{"translation":[0.375,-0.6875,0],"name":"RightHand"},{"translation":[-0.375,1.1004882812500003,-0.02490234375],"name":"R","children":[0]},{"name":"bolt"},{"translation":[0.04966187775838371,-0.0015012879088446285,0.12998765106011456],"name":"bullet"},{"translation":[-0.11842300683290247,0.020322865373466725,-0.3587576156170107],"name":"mag","children":[3]},{"translation":[0,0.4129882812500003,-0.02490234375],"name":"root","children":[2,4]},{"translation":[0,-0.03457031250000031,-0.04345703125],"name":"bone","children":[1,5]},{"translation":[-0.375,-0.6875,0],"name":"LeftHand"},{"translation":[0.375,1.06591796875,-0.068359375],"name":"l","children":[7]},{"translation":[0.5,0.12158203125,0.568359375],"name":"bone2","children":[6,8]},{"children":[9]}],"animations":[{"name":"inspect","samplers":[{"input":0,"output":1,"interpolation":"LINEAR"},{"input":2,"output":3,"interpolation":"LINEAR"},{"input":4,"output":5,"interpolation":"LINEAR"},{"input":6,"output":7,"interpolation":"LINEAR"},{"input":8,"output":9,"interpolation":"LINEAR"},{"input":10,"output":11,"interpolation":"LINEAR"},{"input":12,"output":13,"interpolation":"LINEAR"},{"input":14,"output":15,"interpolation":"LINEAR"},{"input":16,"output":17,"interpolation":"LINEAR"},{"input":18,"output":19,"interpolation":"LINEAR"},{"input":20,"output":21,"interpolation":"LINEAR"},{"input":22,"output":23,"interpolation":"LINEAR"},{"input":24,"output":25,"interpolation":"LINEAR"},{"input":26,"output":27,"interpolation":"LINEAR"},{"input":28,"output":29,"interpolation":"LINEAR"},{"input":30,"output":31,"interpolation":"LINEAR"}],"channels":[{"sampler":0,"target":{"node":2,"path":"rotation"}},{"sampler":1,"target":{"node":2,"path":"translation"}},{"sampler":2,"target":{"node":4,"path":"rotation"}},{"sampler":3,"target":{"node":4,"path":"translation"}},{"sampler":4,"target":{"node":9,"path":"rotation"}},{"sampler":5,"target":{"node":9,"path":"translation"}},{"sampler":6,"target":{"node":6,"path":"rotation"}},{"sampler":7,"target":{"node":6,"path":"translation"}},{"sampler":8,"target":{"node":1,"path":"rotation"}},{"sampler":9,"target":{"node":1,"path":"translation"}},{"sampler":10,"target":{"node":1,"path":"scale"}},{"sampler":11,"target":{"node":8,"path":"rotation"}},{"sampler":12,"target":{"node":8,"path":"translation"}},{"sampler":13,"target":{"node":8,"path":"scale"}},{"sampler":14,"target":{"node":3,"path":"rotation"}},{"sampler":15,"target":{"node":3,"path":"translation"}}]}],"bufferViews":[{"buffer":0,"byteOffset":0,"byteLength":32},{"buffer":0,"byteOffset":32,"byteLength":128},{"buffer":0,"byteOffset":160,"byteLength":32},{"buffer":0,"byteOffset":192,"byteLength":96},{"buffer":0,"byteOffset":288,"byteLength":28},{"buffer":0,"byteOffset":316,"byteLength":112},{"buffer":0,"byteOffset":428,"byteLength":28},{"buffer":0,"byteOffset":456,"byteLength":84},{"buffer":0,"byteOffset":540,"byteLength":68},{"buffer":0,"byteOffset":608,"byteLength":272},{"buffer":0,"byteOffset":880,"byteLength":68},{"buffer":0,"byteOffset":948,"byteLength":204},{"buffer":0,"byteOffset":1152,"byteLength":108},{"buffer":0,"byteOffset":1260,"byteLength":432},{"buffer":0,"byteOffset":1692,"byteLength":112},{"buffer":0,"byteOffset":1804,"byteLength":336},{"buffer":0,"byteOffset":2140,"byteLength":56},{"buffer":0,"byteOffset":2196,"byteLength":224},{"buffer":0,"byteOffset":2420,"byteLength":52},{"buffer":0,"byteOffset":2472,"byteLength":156},{"buffer":0,"byteOffset":2628,"byteLength":4},{"buffer":0,"byteOffset":2632,"byteLength":12},{"buffer":0,"byteOffset":2644,"byteLength":104},{"buffer":0,"byteOffset":2748,"byteLength":416},{"buffer":0,"byteOffset":3164,"byteLength":108},{"buffer":0,"byteOffset":3272,"byteLength":324},{"buffer":0,"byteOffset":3596,"byteLength":4},{"buffer":0,"byteOffset":3600,"byteLength":12},{"buffer":0,"byteOffset":3612,"byteLength":8},{"buffer":0,"byteOffset":3620,"byteLength":32},{"buffer":0,"byteOffset":3652,"byteLength":16},{"buffer":0,"byteOffset":3668,"byteLength":48}],"buffers":[{"byteLength":3716,"uri":"data:application/octet-stream;base64,"}],"accessors":[{"bufferView":0,"componentType":5126,"count":8,"max":[4],"min":[0.0416666679084301],"type":"SCALAR"},{"bufferView":1,"componentType":5126,"count":8,"max":[0,0,0.22920039296150208,1],"min":[0,0,0,0.9733792543411255],"type":"VEC4"},{"bufferView":2,"componentType":5126,"count":8,"max":[3.9166667461395264],"min":[0.0416666679084301],"type":"SCALAR"},{"bufferView":3,"componentType":5126,"count":8,"max":[0,0,0.20947265625],"min":[0,0,0],"type":"VEC3"},{"bufferView":4,"componentType":5126,"count":7,"max":[1.75],"min":[0.0416666679084301],"type":"SCALAR"},{"bufferView":5,"componentType":5126,"count":7,"max":[0,0,0.15892472863197327,1],"min":[-0.031830716878175735,-0.15037569403648376,0,0.9758344888687134],"type":"VEC4"},{"bufferView":6,"componentType":5126,"count":7,"max":[1.75],"min":[0.0416666679084301],"type":"SCALAR"},{"bufferView":7,"componentType":5126,"count":7,"max":[-0.11842300742864609,0.02032286487519741,-0.3587576150894165],"min":[-0.4104152023792267,0.02032286487519741,-0.3587576150894165],"type":"VEC3"},{"bufferView":8,"componentType":5126,"count":17,"max":[4.458333492279053],"min":[0.0416666679084301],"type":"SCALAR"},{"bufferView":9,"componentType":5126,"count":17,"max":[0.036477383226156235,0.0389879085123539,0.043369852006435394,1],"min":[-0.015262860804796219,-0.0002283579669892788,-0.032715268433094025,0.9981216192245483],"type":"VEC4"},{"bufferView":10,"componentType":5126,"count":17,"max":[4.458333492279053],"min":[0.0416666679084301],"type":"SCALAR"},{"bufferView":11,"componentType":5126,"count":17,"max":[0.5,0.12158203125,0.6415429711341858],"min":[0.5,0.06740234047174454,0.53955078125],"type":"VEC3"},{"bufferView":12,"componentType":5126,"count":27,"max":[4.291666507720947],"min":[0.0416666679084301],"type":"SCALAR"},{"bufferView":13,"componentType":5126,"count":27,"max":[0.2011076658964157,0.1645374298095703,0.404173344373703,1],"min":[-0.00016657786909490824,-0.09127297252416611,-0.15016372501850128,0.8935245275497437],"type":"VEC4"},{"bufferView":14,"componentType":5126,"count":28,"max":[4.291666507720947],"min":[0.0416666679084301],"type":"SCALAR"},{"bufferView":15,"componentType":5126,"count":28,"max":[0.10335937142372131,0.09042968600988388,0.009765625],"min":[-0.004570312332361937,-0.05560546740889549,-0.3168359398841858],"type":"VEC3"},{"bufferView":16,"componentType":5126,"count":14,"max":[4.291666507720947],"min":[0.0416666679084301],"type":"SCALAR"},{"bufferView":17,"componentType":5126,"count":14,"max":[0.12048427015542984,0.8763543963432312,-0.39022666215896606,-0.027422597631812096],"min":[-0.045506637543439865,0.7329387068748474,-0.6782169342041016,-0.2806796431541443],"type":"VEC4"},{"bufferView":18,"componentType":5126,"count":13,"max":[4.291666507720947],"min":[0.0416666679084301],"type":"SCALAR"},{"bufferView":19,"componentType":5126,"count":13,"max":[0.35749998688697815,0.4505273401737213,0.20509766042232513],"min":[0.03687499836087227,0.05048828199505806,-0.02490234375],"type":"VEC3"},{"bufferView":20,"componentType":5126,"count":1,"max":[0.0416666679084301],"min":[0.0416666679084301],"type":"SCALAR"},{"bufferView":21,"componentType":5126,"count":1,"max":[1,1.5,1],"min":[1,1.5,1],"type":"VEC3"},{"bufferView":22,"componentType":5126,"count":26,"max":[4.291666507720947],"min":[0.0416666679084301],"type":"SCALAR"},{"bufferView":23,"componentType":5126,"count":26,"max":[0.02092018350958824,0.9062255620956421,-0.3574378192424774,0.800391674041748],"min":[-0.33353760838508606,0.3632147014141083,-0.5657662153244019,0.054770734161138535],"type":"VEC4"},{"bufferView":24,"componentType":5126,"count":27,"max":[4.291666507720947],"min":[0.0416666679084301],"type":"SCALAR"},{"bufferView":25,"componentType":5126,"count":27,"max":[0.045625001192092896,0.4684179723262787,0.06851562857627869],"min":[-0.7068750262260437,0.09130859375,-0.8128125071525574],"type":"VEC3"},{"bufferView":26,"componentType":5126,"count":1,"max":[0.0416666679084301],"min":[0.0416666679084301],"type":"SCALAR"},{"bufferView":27,"componentType":5126,"count":1,"max":[1,1.5,1],"min":[1,1.5,1],"type":"VEC3"},{"bufferView":28,"componentType":5126,"count":2,"max":[4.125],"min":[2.625],"type":"SCALAR"},{"bufferView":29,"componentType":5126,"count":2,"max":[0,0,0,1],"min":[0,0,0,1],"type":"VEC4"},{"bufferView":30,"componentType":5126,"count":4,"max":[4.125],"min":[2.625],"type":"SCALAR"},{"bufferView":31,"componentType":5126,"count":4,"max":[0.13657593727111816,-0.0015012879157438874,0.1299876570701599],"min":[0.04966187849640846,-0.0015012879157438874,0.1299876570701599],"type":"VEC3"}]}