{"asset":{"version":"2.0","generator":"Blockbench 4.8.3 glTF exporter"},"scenes":[{"nodes":[9],"name":"blockbench_export"}],"scene":0,"nodes":[{"translation":[-0.375,-0.6875,0],"name":"LeftHand"},{"translation":[0.4375,0.5625,0],"name":"L","children":[0]},{"translation":[0.375,-0.6875,0],"name":"RightHand"},{"translation":[-0.33441507469220133,0.9139678933612242,0.37251409063746244],"name":"R1","children":[2]},{"translation":[0.5,0.5,0.5],"name":"default_gun"},{"translation":[0.5,0.5,0.5],"name":"mag"},{"translation":[-0.45941507469220133,-0.2735321066387758,-0.12748590936253756],"name":"guns","children":[4,5]},{"translation":[0.02191507469220133,-0.3514678933612242,-0.37251409063746244],"name":"R","children":[3,6]},{"translation":[0.4375,0.625,0.5],"name":"bone","children":[1,7]},{"children":[8]}],"animations":[{"name":"inspect","samplers":[{"input":0,"output":1,"interpolation":"LINEAR"},{"input":2,"output":3,"interpolation":"LINEAR"},{"input":4,"output":5,"interpolation":"LINEAR"},{"input":6,"output":7,"interpolation":"LINEAR"},{"input":8,"output":9,"interpolation":"LINEAR"},{"input":10,"output":11,"interpolation":"LINEAR"},{"input":12,"output":13,"interpolation":"LINEAR"},{"input":14,"output":15,"interpolation":"LINEAR"}],"channels":[{"sampler":0,"target":{"node":1,"path":"rotation"}},{"sampler":1,"target":{"node":1,"path":"translation"}},{"sampler":2,"target":{"node":3,"path":"rotation"}},{"sampler":3,"target":{"node":3,"path":"translation"}},{"sampler":4,"target":{"node":0,"path":"rotation"}},{"sampler":5,"target":{"node":0,"path":"translation"}},{"sampler":6,"target":{"node":7,"path":"rotation"}},{"sampler":7,"target":{"node":7,"path":"translation"}}]}],"bufferViews":[{"buffer":0,"byteOffset":0,"byteLength":4},{"buffer":0,"byteOffset":4,"byteLength":16},{"buffer":0,"byteOffset":20,"byteLength":4},{"buffer":0,"byteOffset":24,"byteLength":12},{"buffer":0,"byteOffset":36,"byteLength":4},{"buffer":0,"byteOffset":40,"byteLength":16},{"buffer":0,"byteOffset":56,"byteLength":4},{"buffer":0,"byteOffset":60,"byteLength":12},{"buffer":0,"byteOffset":72,"byteLength":16},{"buffer":0,"byteOffset":88,"byteLength":64},{"buffer":0,"byteOffset":152,"byteLength":16},{"buffer":0,"byteOffset":168,"byteLength":48},{"buffer":0,"byteOffset":216,"byteLength":52},{"buffer":0,"byteOffset":268,"byteLength":208},{"buffer":0,"byteOffset":476,"byteLength":52},{"buffer":0,"byteOffset":528,"byteLength":156}],"buffers":[{"byteLength":684,"uri":"data:application/octet-stream;base64,"}],"accessors":[{"bufferView":0,"componentType":5126,"count":1,"max":[0],"min":[0],"type":"SCALAR"},{"bufferView":1,"componentType":5126,"count":1,"max":[0.14877842366695404,0.7631495594978333,-0.6093351244926453,0.1554941087961197],"min":[0.14877842366695404,0.7631495594978333,-0.6093351244926453,0.1554941087961197],"type":"VEC4"},{"bufferView":2,"componentType":5126,"count":1,"max":[0],"min":[0],"type":"SCALAR"},{"bufferView":3,"componentType":5126,"count":1,"max":[0.03125,-0.34375,-0.48124998807907104],"min":[0.03125,-0.34375,-0.48124998807907104],"type":"VEC3"},{"bufferView":4,"componentType":5126,"count":1,"max":[0],"min":[0],"type":"SCALAR"},{"bufferView":5,"componentType":5126,"count":1,"max":[-0.09194473922252655,0.7600180506706238,-0.6367612481117249,-0.09194473922252655],"min":[-0.09194473922252655,0.7600180506706238,-0.6367612481117249,-0.09194473922252655],"type":"VEC4"},{"bufferView":6,"componentType":5126,"count":1,"max":[0],"min":[0],"type":"SCALAR"},{"bufferView":7,"componentType":5126,"count":1,"max":[0.12183492630720139,0.06396789103746414,0.07563909143209457],"min":[0.12183492630720139,0.06396789103746414,0.07563909143209457],"type":"VEC3"},{"bufferView":8,"componentType":5126,"count":4,"max":[4],"min":[0],"type":"SCALAR"},{"bufferView":9,"componentType":5126,"count":4,"max":[0.5532466173171997,0.07762397825717926,0,1],"min":[0,0,-0.2856135070323944,0.7786639928817749],"type":"VEC4"},{"bufferView":10,"componentType":5126,"count":4,"max":[4],"min":[0],"type":"SCALAR"},{"bufferView":11,"componentType":5126,"count":4,"max":[-0.25,-0.6875,0.125],"min":[-0.375,-0.6875,0],"type":"VEC3"},{"bufferView":12,"componentType":5126,"count":13,"max":[4],"min":[0],"type":"SCALAR"},{"bufferView":13,"componentType":5126,"count":13,"max":[0.14341701567173004,0.30898743867874146,0.45620739459991455,1],"min":[-0.3082903027534485,0,-0.16523286700248718,0.8822853565216064],"type":"VEC4"},{"bufferView":14,"componentType":5126,"count":13,"max":[4],"min":[0],"type":"SCALAR"},{"bufferView":15,"componentType":5126,"count":13,"max":[0.15597757697105408,-0.30361634492874146,-0.30415472388267517],"min":[0.021915074437856674,-0.45775696635246277,-0.6964203119277954],"type":"VEC3"}]}