{"asset":{"version":"2.0","generator":"Blockbench 4.8.3 glTF exporter"},"scenes":[{"nodes":[9],"name":"blockbench_export"}],"scene":0,"nodes":[{"translation":[-0.375,-0.6875,0],"name":"LeftHand"},{"translation":[0.4375,0.5625,0],"name":"L","children":[0]},{"translation":[0.375,-0.6875,0],"name":"RightHand"},{"translation":[-0.33441507469220133,0.9139678933612242,0.37251409063746244],"name":"R1","children":[2]},{"translation":[0.5,0.5,0.5],"name":"default_gun"},{"translation":[0.5,0.5,0.5],"name":"mag"},{"translation":[-0.45941507469220133,-0.2735321066387758,-0.12748590936253756],"name":"guns","children":[4,5]},{"translation":[0.02191507469220133,-0.3514678933612242,-0.37251409063746244],"name":"R","children":[3,6]},{"translation":[0.4375,0.625,0.5],"name":"bone","children":[1,7]},{"children":[8]}],"animations":[{"name":"reload_norm","samplers":[{"input":0,"output":1,"interpolation":"LINEAR"},{"input":2,"output":3,"interpolation":"LINEAR"},{"input":4,"output":5,"interpolation":"LINEAR"},{"input":6,"output":7,"interpolation":"LINEAR"},{"input":8,"output":9,"interpolation":"LINEAR"},{"input":10,"output":11,"interpolation":"LINEAR"},{"input":12,"output":13,"interpolation":"LINEAR"},{"input":14,"output":15,"interpolation":"LINEAR"}],"channels":[{"sampler":0,"target":{"node":1,"path":"rotation"}},{"sampler":1,"target":{"node":1,"path":"translation"}},{"sampler":2,"target":{"node":3,"path":"rotation"}},{"sampler":3,"target":{"node":3,"path":"translation"}},{"sampler":4,"target":{"node":7,"path":"rotation"}},{"sampler":5,"target":{"node":7,"path":"translation"}},{"sampler":6,"target":{"node":5,"path":"rotation"}},{"sampler":7,"target":{"node":5,"path":"translation"}}]}],"bufferViews":[{"buffer":0,"byteOffset":0,"byteLength":52},{"buffer":0,"byteOffset":52,"byteLength":208},{"buffer":0,"byteOffset":260,"byteLength":52},{"buffer":0,"byteOffset":312,"byteLength":156},{"buffer":0,"byteOffset":468,"byteLength":4},{"buffer":0,"byteOffset":472,"byteLength":16},{"buffer":0,"byteOffset":488,"byteLength":4},{"buffer":0,"byteOffset":492,"byteLength":12},{"buffer":0,"byteOffset":504,"byteLength":28},{"buffer":0,"byteOffset":532,"byteLength":112},{"buffer":0,"byteOffset":644,"byteLength":8},{"buffer":0,"byteOffset":652,"byteLength":24},{"buffer":0,"byteOffset":676,"byteLength":32},{"buffer":0,"byteOffset":708,"byteLength":128},{"buffer":0,"byteOffset":836,"byteLength":40},{"buffer":0,"byteOffset":876,"byteLength":120}],"buffers":[{"byteLength":996,"uri":"data:application/octet-stream;base64,"}],"accessors":[{"bufferView":0,"componentType":5126,"count":13,"max":[2.7916667461395264],"min":[0],"type":"SCALAR"},{"bufferView":1,"componentType":5126,"count":13,"max":[0.3280310034751892,0.9718418717384338,0.26580357551574707,0.4691389501094818],"min":[-0.026149524375796318,0.5458704233169556,-0.8193613886833191,0.05814646556973457],"type":"VEC4"},{"bufferView":2,"componentType":5126,"count":13,"max":[2.7916667461395264],"min":[0],"type":"SCALAR"},{"bufferView":3,"componentType":5126,"count":13,"max":[0.03125,0.12617187201976776,0.39167967438697815],"min":[-0.3388671875,-0.6298046708106995,-0.48124998807907104],"type":"VEC3"},{"bufferView":4,"componentType":5126,"count":1,"max":[0],"min":[0],"type":"SCALAR"},{"bufferView":5,"componentType":5126,"count":1,"max":[-0.09194473922252655,0.7600180506706238,-0.6367612481117249,-0.09194473922252655],"min":[-0.09194473922252655,0.7600180506706238,-0.6367612481117249,-0.09194473922252655],"type":"VEC4"},{"bufferView":6,"componentType":5126,"count":1,"max":[0],"min":[0],"type":"SCALAR"},{"bufferView":7,"componentType":5126,"count":1,"max":[0.12183492630720139,0.06396789103746414,0.07563909143209457],"min":[0.12183492630720139,0.06396789103746414,0.07563909143209457],"type":"VEC3"},{"bufferView":8,"componentType":5126,"count":7,"max":[2.7916667461395264],"min":[0],"type":"SCALAR"},{"bufferView":9,"componentType":5126,"count":7,"max":[0.19150355458259583,0,0.08147811889648438,1],"min":[0,-0.06545703113079071,0,0.9766557812690735],"type":"VEC4"},{"bufferView":10,"componentType":5126,"count":2,"max":[2.7916667461395264],"min":[0],"type":"SCALAR"},{"bufferView":11,"componentType":5126,"count":2,"max":[0.021915074437856674,-0.35146790742874146,-0.37251409888267517],"min":[0.021915074437856674,-0.35146790742874146,-0.37251409888267517],"type":"VEC3"},{"bufferView":12,"componentType":5126,"count":8,"max":[2.2916667461395264],"min":[0.2916666567325592],"type":"SCALAR"},{"bufferView":13,"componentType":5126,"count":8,"max":[0,0.3838118612766266,0.575096607208252,1],"min":[-0.576667845249176,-0.015843676403164864,-0.0010347837815061212,0.43520867824554443],"type":"VEC4"},{"bufferView":14,"componentType":5126,"count":10,"max":[2.2916667461395264],"min":[0.2916666567325592],"type":"SCALAR"},{"bufferView":15,"componentType":5126,"count":10,"max":[0.5107421875,0.635937511920929,1.370273470878601],"min":[0.21875,-0.5993750095367432,0.24304687976837158],"type":"VEC3"}]}