{"asset":{"version":"2.0","generator":"Blockbench 4.8.3 glTF exporter"},"scenes":[{"nodes":[9],"name":"blockbench_export"}],"scene":0,"nodes":[{"translation":[0.375,-0.6875,0],"name":"RightHand"},{"translation":[-0.4326171875,0.8031250000000003,0.1875],"name":"R","children":[0]},{"translation":[0.5,0.5,0.5],"name":"bolt"},{"translation":[0.5,0.578125,0.625],"name":"mag"},{"translation":[-0.5576171875,-0.3843749999999997,-0.3125],"name":"p90","children":[2,3]},{"translation":[-0.0048828125,0.01621093749999969,0.0107421875],"name":"bone","children":[1,4]},{"translation":[-0.375,-0.6875,0],"name":"LeftHand"},{"translation":[0.3125,0.8193359375,0.1982421875],"name":"l","children":[6]},{"translation":[0.5625,0.3681640625,0.3017578125],"name":"bone2","children":[5,7]},{"children":[8]}],"animations":[{"name":"reload_norm","samplers":[{"input":0,"output":1,"interpolation":"LINEAR"},{"input":2,"output":3,"interpolation":"LINEAR"},{"input":4,"output":5,"interpolation":"LINEAR"},{"input":6,"output":7,"interpolation":"LINEAR"},{"input":8,"output":9,"interpolation":"LINEAR"},{"input":10,"output":11,"interpolation":"LINEAR"},{"input":12,"output":13,"interpolation":"LINEAR"},{"input":14,"output":15,"interpolation":"LINEAR"},{"input":16,"output":17,"interpolation":"LINEAR"},{"input":18,"output":19,"interpolation":"LINEAR"},{"input":20,"output":21,"interpolation":"LINEAR"},{"input":22,"output":23,"interpolation":"LINEAR"}],"channels":[{"sampler":0,"target":{"node":8,"path":"rotation"}},{"sampler":1,"target":{"node":8,"path":"translation"}},{"sampler":2,"target":{"node":5,"path":"rotation"}},{"sampler":3,"target":{"node":5,"path":"translation"}},{"sampler":4,"target":{"node":1,"path":"rotation"}},{"sampler":5,"target":{"node":1,"path":"translation"}},{"sampler":6,"target":{"node":1,"path":"scale"}},{"sampler":7,"target":{"node":7,"path":"rotation"}},{"sampler":8,"target":{"node":7,"path":"translation"}},{"sampler":9,"target":{"node":7,"path":"scale"}},{"sampler":10,"target":{"node":3,"path":"rotation"}},{"sampler":11,"target":{"node":3,"path":"translation"}}]}],"bufferViews":[{"buffer":0,"byteOffset":0,"byteLength":16},{"buffer":0,"byteOffset":16,"byteLength":64},{"buffer":0,"byteOffset":80,"byteLength":16},{"buffer":0,"byteOffset":96,"byteLength":48},{"buffer":0,"byteOffset":144,"byteLength":92},{"buffer":0,"byteOffset":236,"byteLength":368},{"buffer":0,"byteOffset":604,"byteLength":72},{"buffer":0,"byteOffset":676,"byteLength":216},{"buffer":0,"byteOffset":892,"byteLength":4},{"buffer":0,"byteOffset":896,"byteLength":16},{"buffer":0,"byteOffset":912,"byteLength":4},{"buffer":0,"byteOffset":916,"byteLength":12},{"buffer":0,"byteOffset":928,"byteLength":4},{"buffer":0,"byteOffset":932,"byteLength":12},{"buffer":0,"byteOffset":944,"byteLength":80},{"buffer":0,"byteOffset":1024,"byteLength":320},{"buffer":0,"byteOffset":1344,"byteLength":72},{"buffer":0,"byteOffset":1416,"byteLength":216},{"buffer":0,"byteOffset":1632,"byteLength":4},{"buffer":0,"byteOffset":1636,"byteLength":12},{"buffer":0,"byteOffset":1648,"byteLength":36},{"buffer":0,"byteOffset":1684,"byteLength":144},{"buffer":0,"byteOffset":1828,"byteLength":36},{"buffer":0,"byteOffset":1864,"byteLength":108}],"buffers":[{"byteLength":1972,"uri":"data:application/octet-stream;base64,"}],"accessors":[{"bufferView":0,"componentType":5126,"count":4,"max":[2.3333332538604736],"min":[0],"type":"SCALAR"},{"bufferView":1,"componentType":5126,"count":4,"max":[0,0.2639922797679901,0.07952788472175598,1],"min":[-0.009763261303305626,0,0,0.9611939191818237],"type":"VEC4"},{"bufferView":2,"componentType":5126,"count":4,"max":[2.3333332538604736],"min":[0],"type":"SCALAR"},{"bufferView":3,"componentType":5126,"count":4,"max":[0.5625,0.3681640625,0.34375],"min":[0.544921875,0.3681640625,0.3017578125],"type":"VEC3"},{"bufferView":4,"componentType":5126,"count":23,"max":[2.5],"min":[0],"type":"SCALAR"},{"bufferView":5,"componentType":5126,"count":23,"max":[0.018775392323732376,0.02795775607228279,0.06337594240903854,1],"min":[-0.03883971646428108,-0.1257319450378418,-0.07448243349790573,0.9898598194122314],"type":"VEC4"},{"bufferView":6,"componentType":5126,"count":18,"max":[2.5],"min":[0],"type":"SCALAR"},{"bufferView":7,"componentType":5126,"count":18,"max":[-0.0048828125,0.03148437663912773,0.04777343571186066],"min":[-0.03199218586087227,-0.042265623807907104,0.0107421875],"type":"VEC3"},{"bufferView":8,"componentType":5126,"count":1,"max":[0],"min":[0],"type":"SCALAR"},{"bufferView":9,"componentType":5126,"count":1,"max":[-0.09630520641803741,0.7296109199523926,-0.6743117570877075,-0.06080161780118942],"min":[-0.09630520641803741,0.7296109199523926,-0.6743117570877075,-0.06080161780118942],"type":"VEC4"},{"bufferView":10,"componentType":5126,"count":1,"max":[0],"min":[0],"type":"SCALAR"},{"bufferView":11,"componentType":5126,"count":1,"max":[0.0126953125,-0.08261718600988388,-0.046875],"min":[0.0126953125,-0.08261718600988388,-0.046875],"type":"VEC3"},{"bufferView":12,"componentType":5126,"count":1,"max":[0],"min":[0],"type":"SCALAR"},{"bufferView":13,"componentType":5126,"count":1,"max":[1,1.5,1],"min":[1,1.5,1],"type":"VEC3"},{"bufferView":14,"componentType":5126,"count":20,"max":[2.5],"min":[0],"type":"SCALAR"},{"bufferView":15,"componentType":5126,"count":20,"max":[0.4586646556854248,0.6572855710983276,-0.056084129959344864,0.7709687948226929],"min":[-0.1960279643535614,0.4453531801700592,-0.835912823677063,0.18917815387248993],"type":"VEC4"},{"bufferView":16,"componentType":5126,"count":18,"max":[2.5],"min":[0],"type":"SCALAR"},{"bufferView":17,"componentType":5126,"count":18,"max":[-0.125,0.4737890660762787,0.5655078291893005],"min":[-0.59765625,-0.45753905177116394,-0.3427734375],"type":"VEC3"},{"bufferView":18,"componentType":5126,"count":1,"max":[0],"min":[0],"type":"SCALAR"},{"bufferView":19,"componentType":5126,"count":1,"max":[1,1.5,1],"min":[1,1.5,1],"type":"VEC3"},{"bufferView":20,"componentType":5126,"count":9,"max":[1.7083333730697632],"min":[0.2916666567325592],"type":"SCALAR"},{"bufferView":21,"componentType":5126,"count":9,"max":[0,0.49686399102211,0.18969905376434326,1],"min":[-0.4679358899593353,-0.043031927198171616,0,0.7497304677963257],"type":"VEC4"},{"bufferView":22,"componentType":5126,"count":9,"max":[1.7083333730697632],"min":[0.2916666567325592],"type":"SCALAR"},{"bufferView":23,"componentType":5126,"count":9,"max":[0.5,0.7099999785423279,1.0137499570846558],"min":[0.18937499821186066,-0.03999999910593033,0.26374998688697815],"type":"VEC3"}]}