{"asset":{"version":"2.0","generator":"Blockbench 4.8.3 glTF exporter"},"scenes":[{"nodes":[9],"name":"blockbench_export"}],"scene":0,"nodes":[{"translation":[0.375,-0.6875,0],"name":"RightHand"},{"translation":[-0.4326171875,0.8031250000000003,0.1875],"name":"R","children":[0]},{"translation":[0.5,0.5,0.5],"name":"bolt"},{"translation":[0.5,0.578125,0.625],"name":"mag"},{"translation":[-0.5576171875,-0.3843749999999997,-0.3125],"name":"p90","children":[2,3]},{"translation":[-0.0048828125,0.01621093749999969,0.0107421875],"name":"bone","children":[1,4]},{"translation":[-0.375,-0.6875,0],"name":"LeftHand"},{"translation":[0.3125,0.8193359375,0.1982421875],"name":"l","children":[6]},{"translation":[0.5625,0.3681640625,0.3017578125],"name":"bone2","children":[5,7]},{"children":[8]}],"animations":[{"name":"reload_empty","samplers":[{"input":0,"output":1,"interpolation":"LINEAR"},{"input":2,"output":3,"interpolation":"LINEAR"},{"input":4,"output":5,"interpolation":"LINEAR"},{"input":6,"output":7,"interpolation":"LINEAR"},{"input":8,"output":9,"interpolation":"LINEAR"},{"input":10,"output":11,"interpolation":"LINEAR"},{"input":12,"output":13,"interpolation":"LINEAR"},{"input":14,"output":15,"interpolation":"LINEAR"},{"input":16,"output":17,"interpolation":"LINEAR"},{"input":18,"output":19,"interpolation":"LINEAR"},{"input":20,"output":21,"interpolation":"LINEAR"},{"input":22,"output":23,"interpolation":"LINEAR"},{"input":24,"output":25,"interpolation":"LINEAR"}],"channels":[{"sampler":0,"target":{"node":8,"path":"rotation"}},{"sampler":1,"target":{"node":8,"path":"translation"}},{"sampler":2,"target":{"node":5,"path":"rotation"}},{"sampler":3,"target":{"node":5,"path":"translation"}},{"sampler":4,"target":{"node":1,"path":"rotation"}},{"sampler":5,"target":{"node":1,"path":"translation"}},{"sampler":6,"target":{"node":1,"path":"scale"}},{"sampler":7,"target":{"node":7,"path":"rotation"}},{"sampler":8,"target":{"node":7,"path":"translation"}},{"sampler":9,"target":{"node":7,"path":"scale"}},{"sampler":10,"target":{"node":3,"path":"rotation"}},{"sampler":11,"target":{"node":3,"path":"translation"}},{"sampler":12,"target":{"node":2,"path":"translation"}}]}],"bufferViews":[{"buffer":0,"byteOffset":0,"byteLength":40},{"buffer":0,"byteOffset":40,"byteLength":160},{"buffer":0,"byteOffset":200,"byteLength":40},{"buffer":0,"byteOffset":240,"byteLength":120},{"buffer":0,"byteOffset":360,"byteLength":112},{"buffer":0,"byteOffset":472,"byteLength":448},{"buffer":0,"byteOffset":920,"byteLength":88},{"buffer":0,"byteOffset":1008,"byteLength":264},{"buffer":0,"byteOffset":1272,"byteLength":4},{"buffer":0,"byteOffset":1276,"byteLength":16},{"buffer":0,"byteOffset":1292,"byteLength":4},{"buffer":0,"byteOffset":1296,"byteLength":12},{"buffer":0,"byteOffset":1308,"byteLength":4},{"buffer":0,"byteOffset":1312,"byteLength":12},{"buffer":0,"byteOffset":1324,"byteLength":92},{"buffer":0,"byteOffset":1416,"byteLength":368},{"buffer":0,"byteOffset":1784,"byteLength":88},{"buffer":0,"byteOffset":1872,"byteLength":264},{"buffer":0,"byteOffset":2136,"byteLength":4},{"buffer":0,"byteOffset":2140,"byteLength":12},{"buffer":0,"byteOffset":2152,"byteLength":36},{"buffer":0,"byteOffset":2188,"byteLength":144},{"buffer":0,"byteOffset":2332,"byteLength":36},{"buffer":0,"byteOffset":2368,"byteLength":108},{"buffer":0,"byteOffset":2476,"byteLength":16},{"buffer":0,"byteOffset":2492,"byteLength":48}],"buffers":[{"byteLength":2540,"uri":"data:application/octet-stream;base64,"}],"accessors":[{"bufferView":0,"componentType":5126,"count":10,"max":[2.9166667461395264],"min":[0],"type":"SCALAR"},{"bufferView":1,"componentType":5126,"count":10,"max":[0.010434914380311966,0.2639922797679901,0.09444528818130493,1],"min":[-0.030114484950900078,0,0,0.9606148600578308],"type":"VEC4"},{"bufferView":2,"componentType":5126,"count":10,"max":[2.9166667461395264],"min":[0],"type":"SCALAR"},{"bufferView":3,"componentType":5126,"count":10,"max":[0.5625,0.3681640625,0.38050782680511475],"min":[0.5336718559265137,0.3681640625,0.3017578125],"type":"VEC3"},{"bufferView":4,"componentType":5126,"count":28,"max":[2.9166667461395264],"min":[0],"type":"SCALAR"},{"bufferView":5,"componentType":5126,"count":28,"max":[0.02451072633266449,0.02795775607228279,0.06337594240903854,1],"min":[-0.03883971646428108,-0.17768734693527222,-0.07448243349790573,0.9832010865211487],"type":"VEC4"},{"bufferView":6,"componentType":5126,"count":22,"max":[2.9166667461395264],"min":[0],"type":"SCALAR"},{"bufferView":7,"componentType":5126,"count":22,"max":[0.016679687425494194,0.03148437663912773,0.1159375011920929],"min":[-0.03199218586087227,-0.042265623807907104,-0.00046874998952262104],"type":"VEC3"},{"bufferView":8,"componentType":5126,"count":1,"max":[0],"min":[0],"type":"SCALAR"},{"bufferView":9,"componentType":5126,"count":1,"max":[-0.09630520641803741,0.7296109199523926,-0.6743117570877075,-0.06080161780118942],"min":[-0.09630520641803741,0.7296109199523926,-0.6743117570877075,-0.06080161780118942],"type":"VEC4"},{"bufferView":10,"componentType":5126,"count":1,"max":[0],"min":[0],"type":"SCALAR"},{"bufferView":11,"componentType":5126,"count":1,"max":[0.0126953125,-0.08261718600988388,-0.046875],"min":[0.0126953125,-0.08261718600988388,-0.046875],"type":"VEC3"},{"bufferView":12,"componentType":5126,"count":1,"max":[0],"min":[0],"type":"SCALAR"},{"bufferView":13,"componentType":5126,"count":1,"max":[1,1.5,1],"min":[1,1.5,1],"type":"VEC3"},{"bufferView":14,"componentType":5126,"count":23,"max":[2.9166667461395264],"min":[0],"type":"SCALAR"},{"bufferView":15,"componentType":5126,"count":23,"max":[0.4586646556854248,0.6999787092208862,-0.056084129959344864,0.7709687948226929],"min":[-0.1960279643535614,0.4453531801700592,-0.835912823677063,0.18917815387248993],"type":"VEC4"},{"bufferView":16,"componentType":5126,"count":22,"max":[2.9166667461395264],"min":[0],"type":"SCALAR"},{"bufferView":17,"componentType":5126,"count":22,"max":[-0.10554687678813934,0.4737890660762787,0.5655078291893005],"min":[-0.59765625,-0.45753905177116394,-0.41429686546325684],"type":"VEC3"},{"bufferView":18,"componentType":5126,"count":1,"max":[0],"min":[0],"type":"SCALAR"},{"bufferView":19,"componentType":5126,"count":1,"max":[1,1.5,1],"min":[1,1.5,1],"type":"VEC3"},{"bufferView":20,"componentType":5126,"count":9,"max":[1.7083333730697632],"min":[0.2916666567325592],"type":"SCALAR"},{"bufferView":21,"componentType":5126,"count":9,"max":[0,0.49686399102211,0.18969905376434326,1],"min":[-0.4679358899593353,-0.043031927198171616,0,0.7497304677963257],"type":"VEC4"},{"bufferView":22,"componentType":5126,"count":9,"max":[1.7083333730697632],"min":[0.2916666567325592],"type":"SCALAR"},{"bufferView":23,"componentType":5126,"count":9,"max":[0.5,0.7099999785423279,1.0137499570846558],"min":[0.18937499821186066,-0.03999999910593033,0.26374998688697815],"type":"VEC3"},{"bufferView":24,"componentType":5126,"count":4,"max":[2.5833332538604736],"min":[2.2916667461395264],"type":"SCALAR"},{"bufferView":25,"componentType":5126,"count":4,"max":[0.5,0.5,0.69140625],"min":[0.5,0.5,0.5],"type":"VEC3"}]}