{"asset":{"version":"2.0","generator":"Blockbench 4.8.3 glTF exporter"},"scenes":[{"nodes":[9],"name":"blockbench_export"}],"scene":0,"nodes":[{"translation":[0.375,-0.6875,0],"name":"RightHand"},{"translation":[-0.4326171875,0.8031250000000003,0.1875],"name":"R","children":[0]},{"translation":[0.5,0.5,0.5],"name":"bolt"},{"translation":[0.5,0.578125,0.625],"name":"mag"},{"translation":[-0.5576171875,-0.3843749999999997,-0.3125],"name":"p90","children":[2,3]},{"translation":[-0.0048828125,0.01621093749999969,0.0107421875],"name":"bone","children":[1,4]},{"translation":[-0.375,-0.6875,0],"name":"LeftHand"},{"translation":[0.3125,0.8193359375,0.1982421875],"name":"l","children":[6]},{"translation":[0.5625,0.3681640625,0.3017578125],"name":"bone2","children":[5,7]},{"children":[8]}],"animations":[{"name":"draw","samplers":[{"input":0,"output":1,"interpolation":"LINEAR"},{"input":2,"output":3,"interpolation":"LINEAR"},{"input":4,"output":5,"interpolation":"LINEAR"},{"input":6,"output":7,"interpolation":"LINEAR"},{"input":8,"output":9,"interpolation":"LINEAR"},{"input":10,"output":11,"interpolation":"LINEAR"},{"input":12,"output":13,"interpolation":"LINEAR"},{"input":14,"output":15,"interpolation":"LINEAR"},{"input":16,"output":17,"interpolation":"LINEAR"},{"input":18,"output":19,"interpolation":"LINEAR"}],"channels":[{"sampler":0,"target":{"node":8,"path":"rotation"}},{"sampler":1,"target":{"node":8,"path":"translation"}},{"sampler":2,"target":{"node":5,"path":"rotation"}},{"sampler":3,"target":{"node":5,"path":"translation"}},{"sampler":4,"target":{"node":1,"path":"rotation"}},{"sampler":5,"target":{"node":1,"path":"translation"}},{"sampler":6,"target":{"node":1,"path":"scale"}},{"sampler":7,"target":{"node":7,"path":"rotation"}},{"sampler":8,"target":{"node":7,"path":"translation"}},{"sampler":9,"target":{"node":7,"path":"scale"}}]}],"bufferViews":[{"buffer":0,"byteOffset":0,"byteLength":20},{"buffer":0,"byteOffset":20,"byteLength":80},{"buffer":0,"byteOffset":100,"byteLength":16},{"buffer":0,"byteOffset":116,"byteLength":48},{"buffer":0,"byteOffset":164,"byteLength":20},{"buffer":0,"byteOffset":184,"byteLength":80},{"buffer":0,"byteOffset":264,"byteLength":8},{"buffer":0,"byteOffset":272,"byteLength":24},{"buffer":0,"byteOffset":296,"byteLength":4},{"buffer":0,"byteOffset":300,"byteLength":16},{"buffer":0,"byteOffset":316,"byteLength":4},{"buffer":0,"byteOffset":320,"byteLength":12},{"buffer":0,"byteOffset":332,"byteLength":4},{"buffer":0,"byteOffset":336,"byteLength":12},{"buffer":0,"byteOffset":348,"byteLength":16},{"buffer":0,"byteOffset":364,"byteLength":64},{"buffer":0,"byteOffset":428,"byteLength":12},{"buffer":0,"byteOffset":440,"byteLength":36},{"buffer":0,"byteOffset":476,"byteLength":4},{"buffer":0,"byteOffset":480,"byteLength":12}],"buffers":[{"byteLength":492,"uri":"data:application/octet-stream;base64,"}],"accessors":[{"bufferView":0,"componentType":5126,"count":5,"max":[0.5],"min":[0],"type":"SCALAR"},{"bufferView":1,"componentType":5126,"count":5,"max":[0,0.42365536093711853,0.27888569235801697,1],"min":[-0.09190193563699722,-0.002505847718566656,-0.037047892808914185,0.8569089770317078],"type":"VEC4"},{"bufferView":2,"componentType":5126,"count":4,"max":[0.5],"min":[0],"type":"SCALAR"},{"bufferView":3,"componentType":5126,"count":4,"max":[0.5625,0.3681640625,1.134765625],"min":[0.30859375,0.171875,0.248046875],"type":"VEC3"},{"bufferView":4,"componentType":5126,"count":5,"max":[0.5],"min":[0],"type":"SCALAR"},{"bufferView":5,"componentType":5126,"count":5,"max":[0.002549078781157732,0,0,1],"min":[-0.0020213837269693613,-0.03705989196896553,-0.03269658237695694,0.9987772703170776],"type":"VEC4"},{"bufferView":6,"componentType":5126,"count":2,"max":[0.5],"min":[0],"type":"SCALAR"},{"bufferView":7,"componentType":5126,"count":2,"max":[-0.0048828125,0.01621093787252903,0.0107421875],"min":[-0.0048828125,0.01621093787252903,0.0107421875],"type":"VEC3"},{"bufferView":8,"componentType":5126,"count":1,"max":[0],"min":[0],"type":"SCALAR"},{"bufferView":9,"componentType":5126,"count":1,"max":[-0.09630520641803741,0.7296109199523926,-0.6743117570877075,-0.06080161780118942],"min":[-0.09630520641803741,0.7296109199523926,-0.6743117570877075,-0.06080161780118942],"type":"VEC4"},{"bufferView":10,"componentType":5126,"count":1,"max":[0],"min":[0],"type":"SCALAR"},{"bufferView":11,"componentType":5126,"count":1,"max":[0.0126953125,-0.08261718600988388,-0.046875],"min":[0.0126953125,-0.08261718600988388,-0.046875],"type":"VEC3"},{"bufferView":12,"componentType":5126,"count":1,"max":[0],"min":[0],"type":"SCALAR"},{"bufferView":13,"componentType":5126,"count":1,"max":[1,1.5,1],"min":[1,1.5,1],"type":"VEC3"},{"bufferView":14,"componentType":5126,"count":4,"max":[0.5],"min":[0],"type":"SCALAR"},{"bufferView":15,"componentType":5126,"count":4,"max":[-0.06981690227985382,0.680310070514679,-0.6247122883796692,0.38812965154647827],"min":[-0.08737243711948395,0.6488509178161621,-0.64862459897995,0.36971530318260193],"type":"VEC4"},{"bufferView":16,"componentType":5126,"count":3,"max":[0.5],"min":[0],"type":"SCALAR"},{"bufferView":17,"componentType":5126,"count":3,"max":[-0.13375000655651093,-0.0732421875,-0.3427734375],"min":[-0.1337890625,-0.11027343571186066,-0.34300780296325684],"type":"VEC3"},{"bufferView":18,"componentType":5126,"count":1,"max":[0],"min":[0],"type":"SCALAR"},{"bufferView":19,"componentType":5126,"count":1,"max":[1,1.5,1],"min":[1,1.5,1],"type":"VEC3"}]}