{"asset":{"version":"2.0","generator":"Blockbench 4.8.3 glTF exporter"},"scenes":[{"nodes":[9],"name":"blockbench_export"}],"scene":0,"nodes":[{"translation":[-0.375,-0.6875,0],"name":"LeftHand"},{"translation":[0.4375,0.5625,0],"name":"L","children":[0]},{"translation":[0.375,-0.6875,0],"name":"RightHand"},{"translation":[-0.33441507469220133,0.9139678933612242,0.37251409063746244],"name":"R1","children":[2]},{"translation":[0.5,0.5,0.5],"name":"default_gun"},{"translation":[0.5,0.5,0.5],"name":"mag"},{"translation":[-0.45941507469220133,-0.2735321066387758,-0.12748590936253756],"name":"guns","children":[4,5]},{"translation":[0.02191507469220133,-0.3514678933612242,-0.37251409063746244],"name":"R","children":[3,6]},{"translation":[0.4375,0.625,0.5],"name":"bone","children":[1,7]},{"children":[8]}],"animations":[{"name":"static_state","samplers":[{"input":0,"output":1,"interpolation":"LINEAR"},{"input":2,"output":3,"interpolation":"LINEAR"},{"input":4,"output":5,"interpolation":"LINEAR"},{"input":6,"output":7,"interpolation":"LINEAR"},{"input":8,"output":9,"interpolation":"LINEAR"}],"channels":[{"sampler":0,"target":{"node":1,"path":"rotation"}},{"sampler":1,"target":{"node":1,"path":"translation"}},{"sampler":2,"target":{"node":0,"path":"translation"}},{"sampler":3,"target":{"node":3,"path":"rotation"}},{"sampler":4,"target":{"node":3,"path":"translation"}}]}],"bufferViews":[{"buffer":0,"byteOffset":0,"byteLength":4},{"buffer":0,"byteOffset":4,"byteLength":16},{"buffer":0,"byteOffset":20,"byteLength":4},{"buffer":0,"byteOffset":24,"byteLength":12},{"buffer":0,"byteOffset":36,"byteLength":4},{"buffer":0,"byteOffset":40,"byteLength":12},{"buffer":0,"byteOffset":52,"byteLength":4},{"buffer":0,"byteOffset":56,"byteLength":16},{"buffer":0,"byteOffset":72,"byteLength":4},{"buffer":0,"byteOffset":76,"byteLength":12}],"buffers":[{"byteLength":88,"uri":"data:application/octet-stream;base64,"}],"accessors":[{"bufferView":0,"componentType":5126,"count":1,"max":[0],"min":[0],"type":"SCALAR"},{"bufferView":1,"componentType":5126,"count":1,"max":[0.08169940859079361,0.7732124924659729,-0.6205686330795288,0.10179535299539566],"min":[0.08169940859079361,0.7732124924659729,-0.6205686330795288,0.10179535299539566],"type":"VEC4"},{"bufferView":2,"componentType":5126,"count":1,"max":[0],"min":[0],"type":"SCALAR"},{"bufferView":3,"componentType":5126,"count":1,"max":[0.03125,-0.34375,-0.48124998807907104],"min":[0.03125,-0.34375,-0.48124998807907104],"type":"VEC3"},{"bufferView":4,"componentType":5126,"count":1,"max":[0],"min":[0],"type":"SCALAR"},{"bufferView":5,"componentType":5126,"count":1,"max":[-0.375,-0.625,0],"min":[-0.375,-0.625,0],"type":"VEC3"},{"bufferView":6,"componentType":5126,"count":1,"max":[0],"min":[0],"type":"SCALAR"},{"bufferView":7,"componentType":5126,"count":1,"max":[-0.09194473922252655,0.7600180506706238,-0.6367612481117249,-0.09194473922252655],"min":[-0.09194473922252655,0.7600180506706238,-0.6367612481117249,-0.09194473922252655],"type":"VEC4"},{"bufferView":8,"componentType":5126,"count":1,"max":[0],"min":[0],"type":"SCALAR"},{"bufferView":9,"componentType":5126,"count":1,"max":[0.12183492630720139,0.06396789103746414,0.07563909143209457],"min":[0.12183492630720139,0.06396789103746414,0.07563909143209457],"type":"VEC3"}]}