{"asset":{"version":"2.0","generator":"Blockbench 4.8.3 glTF exporter"},"scenes":[{"nodes":[9],"name":"blockbench_export"}],"scene":0,"nodes":[{"translation":[0.375,-0.6875,0],"name":"RightHand"},{"translation":[-0.4326171875,0.8031250000000003,0.1875],"name":"R","children":[0]},{"translation":[0.5,0.5,0.5],"name":"bolt"},{"translation":[0.5,0.578125,0.625],"name":"mag"},{"translation":[-0.5576171875,-0.3843749999999997,-0.3125],"name":"p90","children":[2,3]},{"translation":[-0.0048828125,0.01621093749999969,0.0107421875],"name":"bone","children":[1,4]},{"translation":[-0.375,-0.6875,0],"name":"LeftHand"},{"translation":[0.3125,0.8193359375,0.1982421875],"name":"l","children":[6]},{"translation":[0.5625,0.3681640625,0.3017578125],"name":"bone2","children":[5,7]},{"children":[8]}],"animations":[{"name":"inspect","samplers":[{"input":0,"output":1,"interpolation":"LINEAR"},{"input":2,"output":3,"interpolation":"LINEAR"},{"input":4,"output":5,"interpolation":"LINEAR"},{"input":6,"output":7,"interpolation":"LINEAR"},{"input":8,"output":9,"interpolation":"LINEAR"},{"input":10,"output":11,"interpolation":"LINEAR"},{"input":12,"output":13,"interpolation":"LINEAR"},{"input":14,"output":15,"interpolation":"LINEAR"},{"input":16,"output":17,"interpolation":"LINEAR"},{"input":18,"output":19,"interpolation":"LINEAR"}],"channels":[{"sampler":0,"target":{"node":8,"path":"rotation"}},{"sampler":1,"target":{"node":8,"path":"translation"}},{"sampler":2,"target":{"node":5,"path":"rotation"}},{"sampler":3,"target":{"node":5,"path":"translation"}},{"sampler":4,"target":{"node":1,"path":"rotation"}},{"sampler":5,"target":{"node":1,"path":"translation"}},{"sampler":6,"target":{"node":1,"path":"scale"}},{"sampler":7,"target":{"node":7,"path":"rotation"}},{"sampler":8,"target":{"node":7,"path":"translation"}},{"sampler":9,"target":{"node":7,"path":"scale"}}]}],"bufferViews":[{"buffer":0,"byteOffset":0,"byteLength":16},{"buffer":0,"byteOffset":16,"byteLength":64},{"buffer":0,"byteOffset":80,"byteLength":16},{"buffer":0,"byteOffset":96,"byteLength":48},{"buffer":0,"byteOffset":144,"byteLength":76},{"buffer":0,"byteOffset":220,"byteLength":304},{"buffer":0,"byteOffset":524,"byteLength":72},{"buffer":0,"byteOffset":596,"byteLength":216},{"buffer":0,"byteOffset":812,"byteLength":4},{"buffer":0,"byteOffset":816,"byteLength":16},{"buffer":0,"byteOffset":832,"byteLength":4},{"buffer":0,"byteOffset":836,"byteLength":12},{"buffer":0,"byteOffset":848,"byteLength":4},{"buffer":0,"byteOffset":852,"byteLength":12},{"buffer":0,"byteOffset":864,"byteLength":44},{"buffer":0,"byteOffset":908,"byteLength":176},{"buffer":0,"byteOffset":1084,"byteLength":32},{"buffer":0,"byteOffset":1116,"byteLength":96},{"buffer":0,"byteOffset":1212,"byteLength":4},{"buffer":0,"byteOffset":1216,"byteLength":12}],"buffers":[{"byteLength":1228,"uri":"data:application/octet-stream;base64,"}],"accessors":[{"bufferView":0,"componentType":5126,"count":4,"max":[4.5],"min":[0],"type":"SCALAR"},{"bufferView":1,"componentType":5126,"count":4,"max":[0,0,0.06969709694385529,1],"min":[-0.00459087872877717,-0.019594410434365273,-0.06321379542350769,0.9975224733352661],"type":"VEC4"},{"bufferView":2,"componentType":5126,"count":4,"max":[4.5],"min":[0],"type":"SCALAR"},{"bufferView":3,"componentType":5126,"count":4,"max":[0.5625,0.3681640625,0.32808592915534973],"min":[0.5625,0.3681640625,0.263671875],"type":"VEC3"},{"bufferView":4,"componentType":5126,"count":19,"max":[4.333333492279053],"min":[0],"type":"SCALAR"},{"bufferView":5,"componentType":5126,"count":19,"max":[0.25691139698028564,0.28670135140419006,0.6372833847999573,1],"min":[0,-0.15915077924728394,-0.39869382977485657,0.7313663959503174],"type":"VEC4"},{"bufferView":6,"componentType":5126,"count":18,"max":[4.333333492279053],"min":[0],"type":"SCALAR"},{"bufferView":7,"componentType":5126,"count":18,"max":[0.012500000186264515,0.2505859434604645,0.0107421875],"min":[-0.0048828125,0.01621093787252903,-0.1962890625],"type":"VEC3"},{"bufferView":8,"componentType":5126,"count":1,"max":[0],"min":[0],"type":"SCALAR"},{"bufferView":9,"componentType":5126,"count":1,"max":[-0.09630520641803741,0.7296109199523926,-0.6743117570877075,-0.06080161780118942],"min":[-0.09630520641803741,0.7296109199523926,-0.6743117570877075,-0.06080161780118942],"type":"VEC4"},{"bufferView":10,"componentType":5126,"count":1,"max":[0],"min":[0],"type":"SCALAR"},{"bufferView":11,"componentType":5126,"count":1,"max":[0.0126953125,-0.08261718600988388,-0.046875],"min":[0.0126953125,-0.08261718600988388,-0.046875],"type":"VEC3"},{"bufferView":12,"componentType":5126,"count":1,"max":[0],"min":[0],"type":"SCALAR"},{"bufferView":13,"componentType":5126,"count":1,"max":[1,1.5,1],"min":[1,1.5,1],"type":"VEC3"},{"bufferView":14,"componentType":5126,"count":11,"max":[4.333333492279053],"min":[0],"type":"SCALAR"},{"bufferView":15,"componentType":5126,"count":11,"max":[-0.06956455856561661,0.6488509178161621,-0.44630831480026245,0.68962162733078],"min":[-0.3476013243198395,0.5007779002189636,-0.7863202095031738,0.10059162229299545],"type":"VEC4"},{"bufferView":16,"componentType":5126,"count":8,"max":[4.333333492279053],"min":[0],"type":"SCALAR"},{"bufferView":17,"componentType":5126,"count":8,"max":[-0.13375000655651093,0.11433593928813934,-0.09300781041383743],"min":[-0.5712500214576721,-0.6356640458106995,-0.44175779819488525],"type":"VEC3"},{"bufferView":18,"componentType":5126,"count":1,"max":[0],"min":[0],"type":"SCALAR"},{"bufferView":19,"componentType":5126,"count":1,"max":[1,1.5,1],"min":[1,1.5,1],"type":"VEC3"}]}