{"asset":{"version":"2.0","generator":"Blockbench 4.8.3 glTF exporter"},"scenes":[{"nodes":[10],"name":"blockbench_export"}],"scene":0,"nodes":[{"name":"LeftHand"},{"translation":[-0.25,0,-0.125],"name":"L","children":[0]},{"translation":[0.5,0.5,0.5],"name":"RightHand"},{"name":"R1","children":[2]},{"translation":[0.5,0.5,0.5],"name":"pp_19mag"},{"translation":[0.5,0.5,0.5],"name":"pp_19bolthold"},{"translation":[0.5,0.5,0.5],"name":"default_gun"},{"name":"pp19","children":[4,5,6]},{"translation":[-0.75,-0.5,-0.625],"name":"R","children":[3,7]},{"translation":[0.75,0.5,0.625],"name":"bone","children":[1,8]},{"children":[9]}],"animations":[{"name":"reload_norm","samplers":[{"input":0,"output":1,"interpolation":"LINEAR"},{"input":2,"output":3,"interpolation":"LINEAR"},{"input":4,"output":5,"interpolation":"LINEAR"},{"input":6,"output":7,"interpolation":"LINEAR"},{"input":8,"output":9,"interpolation":"LINEAR"},{"input":10,"output":11,"interpolation":"LINEAR"},{"input":12,"output":13,"interpolation":"LINEAR"},{"input":14,"output":15,"interpolation":"LINEAR"},{"input":16,"output":17,"interpolation":"LINEAR"},{"input":18,"output":19,"interpolation":"LINEAR"}],"channels":[{"sampler":0,"target":{"node":9,"path":"rotation"}},{"sampler":1,"target":{"node":9,"path":"translation"}},{"sampler":2,"target":{"node":0,"path":"rotation"}},{"sampler":3,"target":{"node":0,"path":"translation"}},{"sampler":4,"target":{"node":2,"path":"rotation"}},{"sampler":5,"target":{"node":2,"path":"translation"}},{"sampler":6,"target":{"node":4,"path":"rotation"}},{"sampler":7,"target":{"node":4,"path":"translation"}},{"sampler":8,"target":{"node":8,"path":"rotation"}},{"sampler":9,"target":{"node":8,"path":"translation"}}]}],"bufferViews":[{"buffer":0,"byteOffset":0,"byteLength":128},{"buffer":0,"byteOffset":128,"byteLength":512},{"buffer":0,"byteOffset":640,"byteLength":136},{"buffer":0,"byteOffset":776,"byteLength":408},{"buffer":0,"byteOffset":1184,"byteLength":140},{"buffer":0,"byteOffset":1324,"byteLength":560},{"buffer":0,"byteOffset":1884,"byteLength":132},{"buffer":0,"byteOffset":2016,"byteLength":396},{"buffer":0,"byteOffset":2412,"byteLength":8},{"buffer":0,"byteOffset":2420,"byteLength":32},{"buffer":0,"byteOffset":2452,"byteLength":8},{"buffer":0,"byteOffset":2460,"byteLength":24},{"buffer":0,"byteOffset":2484,"byteLength":116},{"buffer":0,"byteOffset":2600,"byteLength":464},{"buffer":0,"byteOffset":3064,"byteLength":112},{"buffer":0,"byteOffset":3176,"byteLength":336},{"buffer":0,"byteOffset":3512,"byteLength":20},{"buffer":0,"byteOffset":3532,"byteLength":80},{"buffer":0,"byteOffset":3612,"byteLength":20},{"buffer":0,"byteOffset":3632,"byteLength":60}],"buffers":[{"byteLength":3692,"uri":"data:application/octet-stream;base64,"}],"accessors":[{"bufferView":0,"componentType":5126,"count":32,"max":[1.8799999952316284],"min":[0],"type":"SCALAR"},{"bufferView":1,"componentType":5126,"count":32,"max":[0.11918321251869202,0.15386837720870972,0,1],"min":[0,0,-0.11963452398777008,0.9739966988563538],"type":"VEC4"},{"bufferView":2,"componentType":5126,"count":34,"max":[1.8799999952316284],"min":[0],"type":"SCALAR"},{"bufferView":3,"componentType":5126,"count":34,"max":[0.848437488079071,0.5,0.7024999856948853],"min":[0.75,0.4737499952316284,0.625],"type":"VEC3"},{"bufferView":4,"componentType":5126,"count":35,"max":[1.8799999952316284],"min":[0],"type":"SCALAR"},{"bufferView":5,"componentType":5126,"count":35,"max":[-0.09427107125520706,-0.1597866266965866,0.9604016542434692,-0.0353892520070076],"min":[-0.4230521023273468,-0.8339881896972656,0.45370304584503174,-0.25876644253730774],"type":"VEC4"},{"bufferView":6,"componentType":5126,"count":33,"max":[1.8799999952316284],"min":[0],"type":"SCALAR"},{"bufferView":7,"componentType":5126,"count":33,"max":[0.09062500298023224,-0.47218748927116394,0.6208754181861877],"min":[-0.18331925570964813,-1.4637500047683716,0.18468749523162842],"type":"VEC3"},{"bufferView":8,"componentType":5126,"count":2,"max":[1.8799999952316284],"min":[0],"type":"SCALAR"},{"bufferView":9,"componentType":5126,"count":2,"max":[-0.07765614241361618,0.7255493402481079,-0.6826295852661133,-0.039553795009851456],"min":[-0.07765614241361618,0.7255493402481079,-0.6826295852661133,-0.039553795009851456],"type":"VEC4"},{"bufferView":10,"componentType":5126,"count":2,"max":[1.8799999952316284],"min":[0],"type":"SCALAR"},{"bufferView":11,"componentType":5126,"count":2,"max":[0.2578125,0.2593750059604645,1.303125023841858],"min":[0.2578125,0.2593750059604645,1.303125023841858],"type":"VEC3"},{"bufferView":12,"componentType":5126,"count":29,"max":[1.6399999856948853],"min":[0],"type":"SCALAR"},{"bufferView":13,"componentType":5126,"count":29,"max":[0.05887080356478691,0,0.02572428621351719,1],"min":[-0.8894961476325989,-0.1601085513830185,-0.024341044947504997,0.45694267749786377],"type":"VEC4"},{"bufferView":14,"componentType":5126,"count":28,"max":[1.6399999856948853],"min":[0],"type":"SCALAR"},{"bufferView":15,"componentType":5126,"count":28,"max":[0.6156250238418579,0.5049999952316284,1.2424999475479126],"min":[0.03437500074505806,-1.234375,0.37011927366256714],"type":"VEC3"},{"bufferView":16,"componentType":5126,"count":5,"max":[1.8799999952316284],"min":[0],"type":"SCALAR"},{"bufferView":17,"componentType":5126,"count":5,"max":[0,0,0,1],"min":[-0.019633691757917404,0,0,0.9998072385787964],"type":"VEC4"},{"bufferView":18,"componentType":5126,"count":5,"max":[1.8799999952316284],"min":[0],"type":"SCALAR"},{"bufferView":19,"componentType":5126,"count":5,"max":[-0.75,-0.48124998807907104,-0.625],"min":[-0.75,-0.5,-0.625],"type":"VEC3"}]}