{"asset":{"version":"2.0","generator":"Blockbench 4.8.3 glTF exporter"},"scenes":[{"nodes":[10],"name":"blockbench_export"}],"scene":0,"nodes":[{"name":"LeftHand"},{"translation":[-0.25,0,-0.125],"name":"L","children":[0]},{"translation":[0.5,0.5,0.5],"name":"RightHand"},{"name":"R1","children":[2]},{"translation":[0.5,0.5,0.5],"name":"pp_19mag"},{"translation":[0.5,0.5,0.5],"name":"pp_19bolthold"},{"translation":[0.5,0.5,0.5],"name":"default_gun"},{"name":"pp19","children":[4,5,6]},{"translation":[-0.75,-0.5,-0.625],"name":"R","children":[3,7]},{"translation":[0.75,0.5,0.625],"name":"bone","children":[1,8]},{"children":[9]}],"animations":[{"name":"reload_empty","samplers":[{"input":0,"output":1,"interpolation":"LINEAR"},{"input":2,"output":3,"interpolation":"LINEAR"},{"input":4,"output":5,"interpolation":"LINEAR"},{"input":6,"output":7,"interpolation":"LINEAR"},{"input":8,"output":9,"interpolation":"LINEAR"},{"input":10,"output":11,"interpolation":"LINEAR"},{"input":12,"output":13,"interpolation":"LINEAR"},{"input":14,"output":15,"interpolation":"LINEAR"},{"input":16,"output":17,"interpolation":"LINEAR"},{"input":18,"output":19,"interpolation":"LINEAR"},{"input":20,"output":21,"interpolation":"LINEAR"},{"input":22,"output":23,"interpolation":"LINEAR"}],"channels":[{"sampler":0,"target":{"node":9,"path":"rotation"}},{"sampler":1,"target":{"node":9,"path":"translation"}},{"sampler":2,"target":{"node":0,"path":"rotation"}},{"sampler":3,"target":{"node":0,"path":"translation"}},{"sampler":4,"target":{"node":2,"path":"rotation"}},{"sampler":5,"target":{"node":2,"path":"translation"}},{"sampler":6,"target":{"node":4,"path":"rotation"}},{"sampler":7,"target":{"node":4,"path":"translation"}},{"sampler":8,"target":{"node":5,"path":"rotation"}},{"sampler":9,"target":{"node":5,"path":"translation"}},{"sampler":10,"target":{"node":8,"path":"rotation"}},{"sampler":11,"target":{"node":8,"path":"translation"}}]}],"bufferViews":[{"buffer":0,"byteOffset":0,"byteLength":216},{"buffer":0,"byteOffset":216,"byteLength":864},{"buffer":0,"byteOffset":1080,"byteLength":200},{"buffer":0,"byteOffset":1280,"byteLength":600},{"buffer":0,"byteOffset":1880,"byteLength":248},{"buffer":0,"byteOffset":2128,"byteLength":992},{"buffer":0,"byteOffset":3120,"byteLength":240},{"buffer":0,"byteOffset":3360,"byteLength":720},{"buffer":0,"byteOffset":4080,"byteLength":12},{"buffer":0,"byteOffset":4092,"byteLength":48},{"buffer":0,"byteOffset":4140,"byteLength":12},{"buffer":0,"byteOffset":4152,"byteLength":36},{"buffer":0,"byteOffset":4188,"byteLength":136},{"buffer":0,"byteOffset":4324,"byteLength":544},{"buffer":0,"byteOffset":4868,"byteLength":148},{"buffer":0,"byteOffset":5016,"byteLength":444},{"buffer":0,"byteOffset":5460,"byteLength":8},{"buffer":0,"byteOffset":5468,"byteLength":32},{"buffer":0,"byteOffset":5500,"byteLength":24},{"buffer":0,"byteOffset":5524,"byteLength":72},{"buffer":0,"byteOffset":5596,"byteLength":8},{"buffer":0,"byteOffset":5604,"byteLength":32},{"buffer":0,"byteOffset":5636,"byteLength":8},{"buffer":0,"byteOffset":5644,"byteLength":24}],"buffers":[{"byteLength":5668,"uri":"data:application/octet-stream;base64,"}],"accessors":[{"bufferView":0,"componentType":5126,"count":54,"max":[3.799999952316284],"min":[0],"type":"SCALAR"},{"bufferView":1,"componentType":5126,"count":54,"max":[0.18452802300453186,0.15386837720870972,0.7070007920265198,1],"min":[0,-0.020960869267582893,-0.11597570031881332,0.6862996220588684],"type":"VEC4"},{"bufferView":2,"componentType":5126,"count":50,"max":[3.799999952316284],"min":[0],"type":"SCALAR"},{"bufferView":3,"componentType":5126,"count":50,"max":[0.9212499856948853,0.604687511920929,0.8762500286102295],"min":[0.75,0.49000000953674316,0.6028125286102295],"type":"VEC3"},{"bufferView":4,"componentType":5126,"count":62,"max":[3.799999952316284],"min":[0],"type":"SCALAR"},{"bufferView":5,"componentType":5126,"count":62,"max":[-0.09427107125520706,-0.1597866266965866,0.9604016542434692,0.15024995803833008],"min":[-0.7114645838737488,-0.8339881896972656,0.45370304584503174,-0.25876644253730774],"type":"VEC4"},{"bufferView":6,"componentType":5126,"count":60,"max":[3.799999952316284],"min":[0],"type":"SCALAR"},{"bufferView":7,"componentType":5126,"count":60,"max":[0.09062500298023224,0.43185004591941833,0.6208754181861877],"min":[-0.4846875071525574,-1.4637500047683716,0.142312690615654],"type":"VEC3"},{"bufferView":8,"componentType":5126,"count":3,"max":[3.799999952316284],"min":[0],"type":"SCALAR"},{"bufferView":9,"componentType":5126,"count":3,"max":[-0.07765614241361618,0.7255493402481079,-0.6826295852661133,-0.039553795009851456],"min":[-0.07765614241361618,0.7255493402481079,-0.6826295852661133,-0.039553795009851456],"type":"VEC4"},{"bufferView":10,"componentType":5126,"count":3,"max":[3.799999952316284],"min":[0],"type":"SCALAR"},{"bufferView":11,"componentType":5126,"count":3,"max":[0.2578125,0.2593750059604645,1.303125023841858],"min":[0.2578125,0.2593750059604645,1.2703125476837158],"type":"VEC3"},{"bufferView":12,"componentType":5126,"count":34,"max":[2.119999885559082],"min":[0],"type":"SCALAR"},{"bufferView":13,"componentType":5126,"count":34,"max":[0.05887080356478691,0,0.02572428621351719,1],"min":[-0.8894961476325989,-0.1601085513830185,-0.024341044947504997,0.45694267749786377],"type":"VEC4"},{"bufferView":14,"componentType":5126,"count":37,"max":[2.119999885559082],"min":[0],"type":"SCALAR"},{"bufferView":15,"componentType":5126,"count":37,"max":[0.6156250238418579,0.5049999952316284,1.2424999475479126],"min":[0.03437500074505806,-1.234375,0.37011927366256714],"type":"VEC3"},{"bufferView":16,"componentType":5126,"count":2,"max":[2.759999990463257],"min":[0],"type":"SCALAR"},{"bufferView":17,"componentType":5126,"count":2,"max":[0,0,0,1],"min":[0,0,0,1],"type":"VEC4"},{"bufferView":18,"componentType":5126,"count":6,"max":[3.0799999237060547],"min":[0],"type":"SCALAR"},{"bufferView":19,"componentType":5126,"count":6,"max":[0.5,0.5,0.6078125238418579],"min":[0.5,0.5,0.49687498807907104],"type":"VEC3"},{"bufferView":20,"componentType":5126,"count":2,"max":[3.799999952316284],"min":[0],"type":"SCALAR"},{"bufferView":21,"componentType":5126,"count":2,"max":[0,0,0,1],"min":[0,0,0,1],"type":"VEC4"},{"bufferView":22,"componentType":5126,"count":2,"max":[3.799999952316284],"min":[0],"type":"SCALAR"},{"bufferView":23,"componentType":5126,"count":2,"max":[-0.75,-0.5,-0.625],"min":[-0.75,-0.5,-0.625],"type":"VEC3"}]}