{"asset":{"version":"2.0","generator":"Blockbench 4.8.3 glTF exporter"},"scenes":[{"nodes":[10],"name":"blockbench_export"}],"scene":0,"nodes":[{"name":"LeftHand"},{"translation":[-0.25,0,-0.125],"name":"L","children":[0]},{"translation":[0.5,0.5,0.5],"name":"RightHand"},{"name":"R1","children":[2]},{"translation":[0.5,0.5,0.5],"name":"pp_19mag"},{"translation":[0.5,0.5,0.5],"name":"pp_19bolthold"},{"translation":[0.5,0.5,0.5],"name":"default_gun"},{"name":"pp19","children":[4,5,6]},{"translation":[-0.75,-0.5,-0.625],"name":"R","children":[3,7]},{"translation":[0.75,0.5,0.625],"name":"bone","children":[1,8]},{"children":[9]}],"animations":[{"name":"draw","samplers":[{"input":0,"output":1,"interpolation":"LINEAR"},{"input":2,"output":3,"interpolation":"LINEAR"},{"input":4,"output":5,"interpolation":"LINEAR"},{"input":6,"output":7,"interpolation":"LINEAR"},{"input":8,"output":9,"interpolation":"LINEAR"},{"input":10,"output":11,"interpolation":"LINEAR"},{"input":12,"output":13,"interpolation":"LINEAR"},{"input":14,"output":15,"interpolation":"LINEAR"}],"channels":[{"sampler":0,"target":{"node":9,"path":"rotation"}},{"sampler":1,"target":{"node":9,"path":"translation"}},{"sampler":2,"target":{"node":0,"path":"rotation"}},{"sampler":3,"target":{"node":0,"path":"translation"}},{"sampler":4,"target":{"node":2,"path":"rotation"}},{"sampler":5,"target":{"node":2,"path":"translation"}},{"sampler":6,"target":{"node":5,"path":"rotation"}},{"sampler":7,"target":{"node":5,"path":"translation"}}]}],"bufferViews":[{"buffer":0,"byteOffset":0,"byteLength":92},{"buffer":0,"byteOffset":92,"byteLength":368},{"buffer":0,"byteOffset":460,"byteLength":88},{"buffer":0,"byteOffset":548,"byteLength":264},{"buffer":0,"byteOffset":812,"byteLength":64},{"buffer":0,"byteOffset":876,"byteLength":256},{"buffer":0,"byteOffset":1132,"byteLength":68},{"buffer":0,"byteOffset":1200,"byteLength":204},{"buffer":0,"byteOffset":1404,"byteLength":8},{"buffer":0,"byteOffset":1412,"byteLength":32},{"buffer":0,"byteOffset":1444,"byteLength":8},{"buffer":0,"byteOffset":1452,"byteLength":24},{"buffer":0,"byteOffset":1476,"byteLength":8},{"buffer":0,"byteOffset":1484,"byteLength":32},{"buffer":0,"byteOffset":1516,"byteLength":32},{"buffer":0,"byteOffset":1548,"byteLength":96}],"buffers":[{"byteLength":1644,"uri":"data:application/octet-stream;base64,"}],"accessors":[{"bufferView":0,"componentType":5126,"count":23,"max":[1.3600000143051147],"min":[0],"type":"SCALAR"},{"bufferView":1,"componentType":5126,"count":23,"max":[0.18452802300453186,0.1818539947271347,0.7070007920265198,1],"min":[-0.5534569621086121,-0.0163444634526968,0,0.6862996220588684],"type":"VEC4"},{"bufferView":2,"componentType":5126,"count":22,"max":[1.3600000143051147],"min":[0],"type":"SCALAR"},{"bufferView":3,"componentType":5126,"count":22,"max":[1.0187499523162842,0.604687511920929,1.295312523841858],"min":[0.75,-0.0062500000931322575,0.6028125286102295],"type":"VEC3"},{"bufferView":4,"componentType":5126,"count":16,"max":[1.0800000429153442],"min":[0],"type":"SCALAR"},{"bufferView":5,"componentType":5126,"count":16,"max":[-0.15204639732837677,-0.3012026250362396,0.6244131326675415,0.16793327033519745],"min":[-0.7062729001045227,-0.9026132822036743,0.3316355049610138,-0.2310258150100708],"type":"VEC4"},{"bufferView":6,"componentType":5126,"count":17,"max":[1.0800000429153442],"min":[0],"type":"SCALAR"},{"bufferView":7,"componentType":5126,"count":17,"max":[-0.04053269699215889,0.46068286895751953,0.5312088131904602],"min":[-0.4846875071525574,-0.5703125,0.2671875059604645],"type":"VEC3"},{"bufferView":8,"componentType":5126,"count":2,"max":[1.0800000429153442],"min":[0],"type":"SCALAR"},{"bufferView":9,"componentType":5126,"count":2,"max":[-0.07765614241361618,0.7255493402481079,-0.6826295852661133,-0.039553795009851456],"min":[-0.07765614241361618,0.7255493402481079,-0.6826295852661133,-0.039553795009851456],"type":"VEC4"},{"bufferView":10,"componentType":5126,"count":2,"max":[1.0800000429153442],"min":[0],"type":"SCALAR"},{"bufferView":11,"componentType":5126,"count":2,"max":[0.2578125,0.2593750059604645,1.2703125476837158],"min":[0.2578125,0.2593750059604645,1.2703125476837158],"type":"VEC3"},{"bufferView":12,"componentType":5126,"count":2,"max":[0.2800000011920929],"min":[0],"type":"SCALAR"},{"bufferView":13,"componentType":5126,"count":2,"max":[0,0,0,1],"min":[0,0,0,1],"type":"VEC4"},{"bufferView":14,"componentType":5126,"count":8,"max":[0.6399999856948853],"min":[0],"type":"SCALAR"},{"bufferView":15,"componentType":5126,"count":8,"max":[0.5,0.5,0.6078125238418579],"min":[0.5,0.5,0.49687498807907104],"type":"VEC3"}]}