{"asset":{"version":"2.0","generator":"Blockbench 4.8.3 glTF exporter"},"scenes":[{"nodes":[9],"name":"blockbench_export"}],"scene":0,"nodes":[{"translation":[0.375,-0.6875,0],"name":"RightHand"},{"translation":[-0.4296875,0.8578125000000003,-0.158203125],"name":"R","children":[0]},{"translation":[0.5,0.4716796875,-0.4375],"name":"pp19_mag_standard"},{"translation":[0.5,0.5888671875,0.130859375],"name":"pp19_bolt"},{"translation":[-0.5546875,-0.3296874999999997,-0.658203125],"name":"pp19","children":[2,3]},{"translation":[0,0.01718749999999969,0.0888671875],"name":"bone","children":[1,4]},{"translation":[-0.375,-0.6875,0],"name":"LeftHand"},{"translation":[0.3203125,0.875,-0.0693359375],"name":"l","children":[6]},{"translation":[0.5546875,0.3125,0.5693359375],"name":"bone2","children":[5,7]},{"children":[8]}],"animations":[{"name":"reload_empty","samplers":[{"input":0,"output":1,"interpolation":"LINEAR"},{"input":2,"output":3,"interpolation":"LINEAR"},{"input":4,"output":5,"interpolation":"LINEAR"},{"input":6,"output":7,"interpolation":"LINEAR"},{"input":8,"output":9,"interpolation":"LINEAR"},{"input":10,"output":11,"interpolation":"LINEAR"},{"input":12,"output":13,"interpolation":"LINEAR"},{"input":14,"output":15,"interpolation":"LINEAR"},{"input":16,"output":17,"interpolation":"LINEAR"},{"input":18,"output":19,"interpolation":"LINEAR"},{"input":20,"output":21,"interpolation":"LINEAR"},{"input":22,"output":23,"interpolation":"LINEAR"},{"input":24,"output":25,"interpolation":"LINEAR"}],"channels":[{"sampler":0,"target":{"node":8,"path":"rotation"}},{"sampler":1,"target":{"node":8,"path":"translation"}},{"sampler":2,"target":{"node":5,"path":"rotation"}},{"sampler":3,"target":{"node":5,"path":"translation"}},{"sampler":4,"target":{"node":1,"path":"rotation"}},{"sampler":5,"target":{"node":1,"path":"translation"}},{"sampler":6,"target":{"node":1,"path":"scale"}},{"sampler":7,"target":{"node":7,"path":"rotation"}},{"sampler":8,"target":{"node":7,"path":"translation"}},{"sampler":9,"target":{"node":7,"path":"scale"}},{"sampler":10,"target":{"node":2,"path":"rotation"}},{"sampler":11,"target":{"node":2,"path":"translation"}},{"sampler":12,"target":{"node":3,"path":"translation"}}]}],"bufferViews":[{"buffer":0,"byteOffset":0,"byteLength":68},{"buffer":0,"byteOffset":68,"byteLength":272},{"buffer":0,"byteOffset":340,"byteLength":32},{"buffer":0,"byteOffset":372,"byteLength":96},{"buffer":0,"byteOffset":468,"byteLength":80},{"buffer":0,"byteOffset":548,"byteLength":320},{"buffer":0,"byteOffset":868,"byteLength":64},{"buffer":0,"byteOffset":932,"byteLength":192},{"buffer":0,"byteOffset":1124,"byteLength":4},{"buffer":0,"byteOffset":1128,"byteLength":16},{"buffer":0,"byteOffset":1144,"byteLength":4},{"buffer":0,"byteOffset":1148,"byteLength":12},{"buffer":0,"byteOffset":1160,"byteLength":4},{"buffer":0,"byteOffset":1164,"byteLength":12},{"buffer":0,"byteOffset":1176,"byteLength":80},{"buffer":0,"byteOffset":1256,"byteLength":320},{"buffer":0,"byteOffset":1576,"byteLength":72},{"buffer":0,"byteOffset":1648,"byteLength":216},{"buffer":0,"byteOffset":1864,"byteLength":4},{"buffer":0,"byteOffset":1868,"byteLength":12},{"buffer":0,"byteOffset":1880,"byteLength":28},{"buffer":0,"byteOffset":1908,"byteLength":112},{"buffer":0,"byteOffset":2020,"byteLength":28},{"buffer":0,"byteOffset":2048,"byteLength":84},{"buffer":0,"byteOffset":2132,"byteLength":12},{"buffer":0,"byteOffset":2144,"byteLength":36}],"buffers":[{"byteLength":2180,"uri":"data:application/octet-stream;base64,"}],"accessors":[{"bufferView":0,"componentType":5126,"count":17,"max":[2.7916667461395264],"min":[0],"type":"SCALAR"},{"bufferView":1,"componentType":5126,"count":17,"max":[0.10669171810150146,0.07716948539018631,0.05883031710982323,1],"min":[-0.000404469232307747,0,-0.31543365120887756,0.9416016936302185],"type":"VEC4"},{"bufferView":2,"componentType":5126,"count":8,"max":[2.7083332538604736],"min":[0],"type":"SCALAR"},{"bufferView":3,"componentType":5126,"count":8,"max":[0.5546875,0.3125,0.6536718606948853],"min":[0.5546875,0.28125,0.5693359375],"type":"VEC3"},{"bufferView":4,"componentType":5126,"count":20,"max":[2.9583332538604736],"min":[0.5],"type":"SCALAR"},{"bufferView":5,"componentType":5126,"count":20,"max":[0.0239731352776289,0.14391382038593292,0.06538056582212448,1],"min":[-0.03704070299863815,-0.001169550814665854,-0.29376500844955444,0.9507179856300354],"type":"VEC4"},{"bufferView":6,"componentType":5126,"count":16,"max":[2.9583332538604736],"min":[0.5],"type":"SCALAR"},{"bufferView":7,"componentType":5126,"count":16,"max":[0,0.058085937052965164,0.24617187678813934],"min":[-0.02250000089406967,0.01718750037252903,0.072265625],"type":"VEC3"},{"bufferView":8,"componentType":5126,"count":1,"max":[0],"min":[0],"type":"SCALAR"},{"bufferView":9,"componentType":5126,"count":1,"max":[0.11646057665348053,-0.7547268271446228,0.6381920576095581,0.09764835238456726],"min":[0.11646057665348053,-0.7547268271446228,0.6381920576095581,0.09764835238456726],"type":"VEC4"},{"bufferView":10,"componentType":5126,"count":1,"max":[0],"min":[0],"type":"SCALAR"},{"bufferView":11,"componentType":5126,"count":1,"max":[-0.02734375,-0.00937500037252903,-0.083984375],"min":[-0.02734375,-0.00937500037252903,-0.083984375],"type":"VEC3"},{"bufferView":12,"componentType":5126,"count":1,"max":[0],"min":[0],"type":"SCALAR"},{"bufferView":13,"componentType":5126,"count":1,"max":[1,1.5,1],"min":[1,1.5,1],"type":"VEC3"},{"bufferView":14,"componentType":5126,"count":20,"max":[2.9583332538604736],"min":[0],"type":"SCALAR"},{"bufferView":15,"componentType":5126,"count":20,"max":[0.12024407088756561,0.6752933859825134,-0.22682538628578186,0.910298228263855],"min":[-0.4579145908355713,0.2560637593269348,-0.7228912711143494,0.44963952898979187],"type":"VEC4"},{"bufferView":16,"componentType":5126,"count":18,"max":[2.9583332538604736],"min":[0],"type":"SCALAR"},{"bufferView":17,"componentType":5126,"count":18,"max":[0.11136718839406967,0.11710937321186066,0.04874999821186066],"min":[-0.26656249165534973,-0.9943749904632568,-0.7216796875],"type":"VEC3"},{"bufferView":18,"componentType":5126,"count":1,"max":[0],"min":[0],"type":"SCALAR"},{"bufferView":19,"componentType":5126,"count":1,"max":[1,1.5,1],"min":[1,1.5,1],"type":"VEC3"},{"bufferView":20,"componentType":5126,"count":7,"max":[1.7083333730697632],"min":[0.5],"type":"SCALAR"},{"bufferView":21,"componentType":5126,"count":7,"max":[0.1477404683828354,0.010746479965746403,0.0018707294948399067,1],"min":[0,-0.03020307421684265,-0.004513879772275686,0.9885545969009399],"type":"VEC4"},{"bufferView":22,"componentType":5126,"count":7,"max":[1.7083333730697632],"min":[0.5833333134651184],"type":"SCALAR"},{"bufferView":23,"componentType":5126,"count":7,"max":[0.5158984661102295,0.4716796875,0.1681250035762787],"min":[0.3134765625,-0.5751953125,-0.5321875214576721],"type":"VEC3"},{"bufferView":24,"componentType":5126,"count":3,"max":[2.3333332538604736],"min":[2.0833332538604736],"type":"SCALAR"},{"bufferView":25,"componentType":5126,"count":3,"max":[0.5,0.5888671875,0.42578125],"min":[0.5,0.5888671875,0.130859375],"type":"VEC3"}]}