{"asset":{"version":"2.0","generator":"Blockbench 4.8.3 glTF exporter"},"scenes":[{"nodes":[9],"name":"blockbench_export"}],"scene":0,"nodes":[{"translation":[0.375,-0.6875,0],"name":"RightHand"},{"translation":[-0.4296875,0.8578125000000003,-0.158203125],"name":"R","children":[0]},{"translation":[0.5,0.4716796875,-0.4375],"name":"pp19_mag_standard"},{"translation":[0.5,0.5888671875,0.130859375],"name":"pp19_bolt"},{"translation":[-0.5546875,-0.3296874999999997,-0.658203125],"name":"pp19","children":[2,3]},{"translation":[0,0.01718749999999969,0.0888671875],"name":"bone","children":[1,4]},{"translation":[-0.375,-0.6875,0],"name":"LeftHand"},{"translation":[0.3203125,0.875,-0.0693359375],"name":"l","children":[6]},{"translation":[0.5546875,0.3125,0.5693359375],"name":"bone2","children":[5,7]},{"children":[8]}],"animations":[{"name":"reload_norm","samplers":[{"input":0,"output":1,"interpolation":"LINEAR"},{"input":2,"output":3,"interpolation":"LINEAR"},{"input":4,"output":5,"interpolation":"LINEAR"},{"input":6,"output":7,"interpolation":"LINEAR"},{"input":8,"output":9,"interpolation":"LINEAR"},{"input":10,"output":11,"interpolation":"LINEAR"},{"input":12,"output":13,"interpolation":"LINEAR"},{"input":14,"output":15,"interpolation":"LINEAR"},{"input":16,"output":17,"interpolation":"LINEAR"},{"input":18,"output":19,"interpolation":"LINEAR"},{"input":20,"output":21,"interpolation":"LINEAR"},{"input":22,"output":23,"interpolation":"LINEAR"}],"channels":[{"sampler":0,"target":{"node":8,"path":"rotation"}},{"sampler":1,"target":{"node":8,"path":"translation"}},{"sampler":2,"target":{"node":5,"path":"rotation"}},{"sampler":3,"target":{"node":5,"path":"translation"}},{"sampler":4,"target":{"node":1,"path":"rotation"}},{"sampler":5,"target":{"node":1,"path":"translation"}},{"sampler":6,"target":{"node":1,"path":"scale"}},{"sampler":7,"target":{"node":7,"path":"rotation"}},{"sampler":8,"target":{"node":7,"path":"translation"}},{"sampler":9,"target":{"node":7,"path":"scale"}},{"sampler":10,"target":{"node":2,"path":"rotation"}},{"sampler":11,"target":{"node":2,"path":"translation"}}]}],"bufferViews":[{"buffer":0,"byteOffset":0,"byteLength":68},{"buffer":0,"byteOffset":68,"byteLength":272},{"buffer":0,"byteOffset":340,"byteLength":32},{"buffer":0,"byteOffset":372,"byteLength":96},{"buffer":0,"byteOffset":468,"byteLength":68},{"buffer":0,"byteOffset":536,"byteLength":272},{"buffer":0,"byteOffset":808,"byteLength":56},{"buffer":0,"byteOffset":864,"byteLength":168},{"buffer":0,"byteOffset":1032,"byteLength":4},{"buffer":0,"byteOffset":1036,"byteLength":16},{"buffer":0,"byteOffset":1052,"byteLength":4},{"buffer":0,"byteOffset":1056,"byteLength":12},{"buffer":0,"byteOffset":1068,"byteLength":4},{"buffer":0,"byteOffset":1072,"byteLength":12},{"buffer":0,"byteOffset":1084,"byteLength":72},{"buffer":0,"byteOffset":1156,"byteLength":288},{"buffer":0,"byteOffset":1444,"byteLength":68},{"buffer":0,"byteOffset":1512,"byteLength":204},{"buffer":0,"byteOffset":1716,"byteLength":4},{"buffer":0,"byteOffset":1720,"byteLength":12},{"buffer":0,"byteOffset":1732,"byteLength":28},{"buffer":0,"byteOffset":1760,"byteLength":112},{"buffer":0,"byteOffset":1872,"byteLength":28},{"buffer":0,"byteOffset":1900,"byteLength":84}],"buffers":[{"byteLength":1984,"uri":"data:application/octet-stream;base64,"}],"accessors":[{"bufferView":0,"componentType":5126,"count":17,"max":[2.5],"min":[0],"type":"SCALAR"},{"bufferView":1,"componentType":5126,"count":17,"max":[0.10669171810150146,0.07677771151065826,0.02181488461792469,1],"min":[0,0,-0.31543365120887756,0.9416016936302185],"type":"VEC4"},{"bufferView":2,"componentType":5126,"count":8,"max":[2.375],"min":[0],"type":"SCALAR"},{"bufferView":3,"componentType":5126,"count":8,"max":[0.5546875,0.3125,0.6507421731948853],"min":[0.5546875,0.2772265672683716,0.5693359375],"type":"VEC3"},{"bufferView":4,"componentType":5126,"count":17,"max":[2.4583332538604736],"min":[0.5],"type":"SCALAR"},{"bufferView":5,"componentType":5126,"count":17,"max":[0.03188430145382881,0.04051947593688965,0.07616227120161057,1],"min":[-0.03704070299863815,-0.001169550814665854,-0.12667010724544525,0.9912512302398682],"type":"VEC4"},{"bufferView":6,"componentType":5126,"count":14,"max":[2.4583332538604736],"min":[0.5],"type":"SCALAR"},{"bufferView":7,"componentType":5126,"count":14,"max":[0,0.07582031190395355,0.1528906226158142],"min":[-0.02250000089406967,0.01718750037252903,0.0693359375],"type":"VEC3"},{"bufferView":8,"componentType":5126,"count":1,"max":[0],"min":[0],"type":"SCALAR"},{"bufferView":9,"componentType":5126,"count":1,"max":[0.11646057665348053,-0.7547268271446228,0.6381920576095581,0.09764835238456726],"min":[0.11646057665348053,-0.7547268271446228,0.6381920576095581,0.09764835238456726],"type":"VEC4"},{"bufferView":10,"componentType":5126,"count":1,"max":[0],"min":[0],"type":"SCALAR"},{"bufferView":11,"componentType":5126,"count":1,"max":[-0.02734375,-0.00937500037252903,-0.083984375],"min":[-0.02734375,-0.00937500037252903,-0.083984375],"type":"VEC3"},{"bufferView":12,"componentType":5126,"count":1,"max":[0],"min":[0],"type":"SCALAR"},{"bufferView":13,"componentType":5126,"count":1,"max":[1,1.5,1],"min":[1,1.5,1],"type":"VEC3"},{"bufferView":14,"componentType":5126,"count":18,"max":[2.5],"min":[0],"type":"SCALAR"},{"bufferView":15,"componentType":5126,"count":18,"max":[-0.055134400725364685,0.6752933859825134,-0.32588669657707214,0.7660172581672668],"min":[-0.4579145908355713,0.2560637593269348,-0.7228912711143494,0.44963952898979187],"type":"VEC4"},{"bufferView":16,"componentType":5126,"count":17,"max":[2.5],"min":[0],"type":"SCALAR"},{"bufferView":17,"componentType":5126,"count":17,"max":[-0.05183593928813934,0.012578125111758709,-0.12371093779802322],"min":[-0.26656249165534973,-0.9943749904632568,-0.7216796875],"type":"VEC3"},{"bufferView":18,"componentType":5126,"count":1,"max":[0],"min":[0],"type":"SCALAR"},{"bufferView":19,"componentType":5126,"count":1,"max":[1,1.5,1],"min":[1,1.5,1],"type":"VEC3"},{"bufferView":20,"componentType":5126,"count":7,"max":[1.7083333730697632],"min":[0.5],"type":"SCALAR"},{"bufferView":21,"componentType":5126,"count":7,"max":[0.1477404683828354,0.010746479965746403,0.0018707294948399067,1],"min":[0,-0.03020307421684265,-0.004513879772275686,0.9885545969009399],"type":"VEC4"},{"bufferView":22,"componentType":5126,"count":7,"max":[1.7083333730697632],"min":[0.5833333134651184],"type":"SCALAR"},{"bufferView":23,"componentType":5126,"count":7,"max":[0.5158984661102295,0.4716796875,0.1681250035762787],"min":[0.3134765625,-0.5751953125,-0.5321875214576721],"type":"VEC3"}]}