{"asset":{"version":"2.0","generator":"Blockbench 4.8.3 glTF exporter"},"scenes":[{"nodes":[10],"name":"blockbench_export"}],"scene":0,"nodes":[{"name":"LeftHand"},{"translation":[-0.25,0,-0.125],"name":"L","children":[0]},{"translation":[0.5,0.5,0.5],"name":"RightHand"},{"name":"R1","children":[2]},{"translation":[0.5,0.5,0.5],"name":"pp_19mag"},{"translation":[0.5,0.5,0.5],"name":"pp_19bolthold"},{"translation":[0.5,0.5,0.5],"name":"default_gun"},{"name":"pp19","children":[4,5,6]},{"translation":[-0.75,-0.5,-0.625],"name":"R","children":[3,7]},{"translation":[0.75,0.5,0.625],"name":"bone","children":[1,8]},{"children":[9]}],"animations":[{"name":"inspect","samplers":[{"input":0,"output":1,"interpolation":"LINEAR"},{"input":2,"output":3,"interpolation":"LINEAR"},{"input":4,"output":5,"interpolation":"LINEAR"},{"input":6,"output":7,"interpolation":"LINEAR"},{"input":8,"output":9,"interpolation":"LINEAR"},{"input":10,"output":11,"interpolation":"LINEAR"},{"input":12,"output":13,"interpolation":"LINEAR"},{"input":14,"output":15,"interpolation":"LINEAR"}],"channels":[{"sampler":0,"target":{"node":0,"path":"rotation"}},{"sampler":1,"target":{"node":0,"path":"translation"}},{"sampler":2,"target":{"node":2,"path":"rotation"}},{"sampler":3,"target":{"node":2,"path":"translation"}},{"sampler":4,"target":{"node":4,"path":"rotation"}},{"sampler":5,"target":{"node":4,"path":"translation"}},{"sampler":6,"target":{"node":8,"path":"rotation"}},{"sampler":7,"target":{"node":8,"path":"translation"}}]}],"bufferViews":[{"buffer":0,"byteOffset":0,"byteLength":448},{"buffer":0,"byteOffset":448,"byteLength":1792},{"buffer":0,"byteOffset":2240,"byteLength":452},{"buffer":0,"byteOffset":2692,"byteLength":1356},{"buffer":0,"byteOffset":4048,"byteLength":8},{"buffer":0,"byteOffset":4056,"byteLength":32},{"buffer":0,"byteOffset":4088,"byteLength":8},{"buffer":0,"byteOffset":4096,"byteLength":24},{"buffer":0,"byteOffset":4120,"byteLength":8},{"buffer":0,"byteOffset":4128,"byteLength":32},{"buffer":0,"byteOffset":4160,"byteLength":8},{"buffer":0,"byteOffset":4168,"byteLength":24},{"buffer":0,"byteOffset":4192,"byteLength":428},{"buffer":0,"byteOffset":4620,"byteLength":1712},{"buffer":0,"byteOffset":6332,"byteLength":436},{"buffer":0,"byteOffset":6768,"byteLength":1308}],"buffers":[{"byteLength":8076,"uri":"data:application/octet-stream;base64,"}],"accessors":[{"bufferView":0,"componentType":5126,"count":112,"max":[6.239999771118164],"min":[0],"type":"SCALAR"},{"bufferView":1,"componentType":5126,"count":112,"max":[-0.18428145349025726,-0.7789568305015564,0.48324060440063477,-0.022326385602355003],"min":[-0.348344624042511,-0.9344231486320496,0.03759736567735672,-0.3431089520454407],"type":"VEC4"},{"bufferView":2,"componentType":5126,"count":113,"max":[6.239999771118164],"min":[0],"type":"SCALAR"},{"bufferView":3,"componentType":5126,"count":113,"max":[-0.03303547576069832,-0.4889551103115082,0.2671875059604645],"min":[-0.3831685185432434,-0.8414872288703918,-0.1808115690946579],"type":"VEC3"},{"bufferView":4,"componentType":5126,"count":2,"max":[6.239999771118164],"min":[0],"type":"SCALAR"},{"bufferView":5,"componentType":5126,"count":2,"max":[-0.07765614241361618,0.7255493402481079,-0.6826295852661133,-0.039553795009851456],"min":[-0.07765614241361618,0.7255493402481079,-0.6826295852661133,-0.039553795009851456],"type":"VEC4"},{"bufferView":6,"componentType":5126,"count":2,"max":[6.239999771118164],"min":[0],"type":"SCALAR"},{"bufferView":7,"componentType":5126,"count":2,"max":[0.2578125,0.2593750059604645,1.303125023841858],"min":[0.2578125,0.2593750059604645,1.303125023841858],"type":"VEC3"},{"bufferView":8,"componentType":5126,"count":2,"max":[3.799999952316284],"min":[0],"type":"SCALAR"},{"bufferView":9,"componentType":5126,"count":2,"max":[0,0,0,1],"min":[0,0,0,1],"type":"VEC4"},{"bufferView":10,"componentType":5126,"count":2,"max":[3.799999952316284],"min":[0],"type":"SCALAR"},{"bufferView":11,"componentType":5126,"count":2,"max":[0.5,0.5,0.5],"min":[0.5,0.5,0.5],"type":"VEC3"},{"bufferView":12,"componentType":5126,"count":107,"max":[6.039999961853027],"min":[0],"type":"SCALAR"},{"bufferView":13,"componentType":5126,"count":107,"max":[0.2553039789199829,0.5816309452056885,0.6737441420555115,1],"min":[-0.05502314865589142,-0.05664758011698723,-0.12425977736711502,0.7147398591041565],"type":"VEC4"},{"bufferView":14,"componentType":5126,"count":109,"max":[6.039999961853027],"min":[0],"type":"SCALAR"},{"bufferView":15,"componentType":5126,"count":109,"max":[-0.037563256919384,-0.43450096249580383,0.1726459264755249],"min":[-0.7545060515403748,-0.5,-1.0295642614364624],"type":"VEC3"}]}