{"asset":{"version":"2.0","generator":"Blockbench 4.8.3 glTF exporter"},"scenes":[{"nodes":[9],"name":"blockbench_export"}],"scene":0,"nodes":[{"translation":[0.375,-0.6875,0],"name":"RightHand"},{"translation":[-0.4296875,0.8578125000000003,-0.158203125],"name":"R","children":[0]},{"translation":[0.5,0.4716796875,-0.4375],"name":"pp19_mag_standard"},{"translation":[0.5,0.5888671875,0.130859375],"name":"pp19_bolt"},{"translation":[-0.5546875,-0.3296874999999997,-0.658203125],"name":"pp19","children":[2,3]},{"translation":[0,0.01718749999999969,0.0888671875],"name":"bone","children":[1,4]},{"translation":[-0.375,-0.6875,0],"name":"LeftHand"},{"translation":[0.3203125,0.875,-0.0693359375],"name":"l","children":[6]},{"translation":[0.5546875,0.3125,0.5693359375],"name":"bone2","children":[5,7]},{"children":[8]}],"animations":[{"name":"draw","samplers":[{"input":0,"output":1,"interpolation":"LINEAR"},{"input":2,"output":3,"interpolation":"LINEAR"},{"input":4,"output":5,"interpolation":"LINEAR"},{"input":6,"output":7,"interpolation":"LINEAR"},{"input":8,"output":9,"interpolation":"LINEAR"},{"input":10,"output":11,"interpolation":"LINEAR"},{"input":12,"output":13,"interpolation":"LINEAR"},{"input":14,"output":15,"interpolation":"LINEAR"},{"input":16,"output":17,"interpolation":"LINEAR"},{"input":18,"output":19,"interpolation":"LINEAR"}],"channels":[{"sampler":0,"target":{"node":8,"path":"rotation"}},{"sampler":1,"target":{"node":8,"path":"translation"}},{"sampler":2,"target":{"node":5,"path":"rotation"}},{"sampler":3,"target":{"node":5,"path":"translation"}},{"sampler":4,"target":{"node":1,"path":"rotation"}},{"sampler":5,"target":{"node":1,"path":"translation"}},{"sampler":6,"target":{"node":1,"path":"scale"}},{"sampler":7,"target":{"node":7,"path":"rotation"}},{"sampler":8,"target":{"node":7,"path":"translation"}},{"sampler":9,"target":{"node":7,"path":"scale"}}]}],"bufferViews":[{"buffer":0,"byteOffset":0,"byteLength":20},{"buffer":0,"byteOffset":20,"byteLength":80},{"buffer":0,"byteOffset":100,"byteLength":12},{"buffer":0,"byteOffset":112,"byteLength":36},{"buffer":0,"byteOffset":148,"byteLength":4},{"buffer":0,"byteOffset":152,"byteLength":16},{"buffer":0,"byteOffset":168,"byteLength":4},{"buffer":0,"byteOffset":172,"byteLength":12},{"buffer":0,"byteOffset":184,"byteLength":4},{"buffer":0,"byteOffset":188,"byteLength":16},{"buffer":0,"byteOffset":204,"byteLength":4},{"buffer":0,"byteOffset":208,"byteLength":12},{"buffer":0,"byteOffset":220,"byteLength":4},{"buffer":0,"byteOffset":224,"byteLength":12},{"buffer":0,"byteOffset":236,"byteLength":12},{"buffer":0,"byteOffset":248,"byteLength":48},{"buffer":0,"byteOffset":296,"byteLength":8},{"buffer":0,"byteOffset":304,"byteLength":24},{"buffer":0,"byteOffset":328,"byteLength":4},{"buffer":0,"byteOffset":332,"byteLength":12}],"buffers":[{"byteLength":344,"uri":"data:application/octet-stream;base64,"}],"accessors":[{"bufferView":0,"componentType":5126,"count":5,"max":[0.5],"min":[0],"type":"SCALAR"},{"bufferView":1,"componentType":5126,"count":5,"max":[0,0.439727246761322,0.26042819023132324,1],"min":[-0.2857325077056885,-0.037139903753995895,-0.03538307175040245,0.8106626868247986],"type":"VEC4"},{"bufferView":2,"componentType":5126,"count":3,"max":[0.4166666567325592],"min":[0],"type":"SCALAR"},{"bufferView":3,"componentType":5126,"count":3,"max":[0.5546875,0.3125,0.775390625],"min":[0.5546875,0.177734375,0.5693359375],"type":"VEC3"},{"bufferView":4,"componentType":5126,"count":1,"max":[0],"min":[0],"type":"SCALAR"},{"bufferView":5,"componentType":5126,"count":1,"max":[0,0,0,1],"min":[0,0,0,1],"type":"VEC4"},{"bufferView":6,"componentType":5126,"count":1,"max":[0],"min":[0],"type":"SCALAR"},{"bufferView":7,"componentType":5126,"count":1,"max":[0,0.01718750037252903,0.0888671875],"min":[0,0.01718750037252903,0.0888671875],"type":"VEC3"},{"bufferView":8,"componentType":5126,"count":1,"max":[0],"min":[0],"type":"SCALAR"},{"bufferView":9,"componentType":5126,"count":1,"max":[0.11646057665348053,-0.7547268271446228,0.6381920576095581,0.09764835238456726],"min":[0.11646057665348053,-0.7547268271446228,0.6381920576095581,0.09764835238456726],"type":"VEC4"},{"bufferView":10,"componentType":5126,"count":1,"max":[0],"min":[0],"type":"SCALAR"},{"bufferView":11,"componentType":5126,"count":1,"max":[-0.02734375,-0.00937500037252903,-0.083984375],"min":[-0.02734375,-0.00937500037252903,-0.083984375],"type":"VEC3"},{"bufferView":12,"componentType":5126,"count":1,"max":[0],"min":[0],"type":"SCALAR"},{"bufferView":13,"componentType":5126,"count":1,"max":[1,1.5,1],"min":[1,1.5,1],"type":"VEC3"},{"bufferView":14,"componentType":5126,"count":3,"max":[0.3333333432674408],"min":[0],"type":"SCALAR"},{"bufferView":15,"componentType":5126,"count":3,"max":[-0.011475310660898685,0.6059650182723999,-0.5062280297279358,0.6225672364234924],"min":[-0.17764747142791748,0.47273045778274536,-0.6235417127609253,0.5407917499542236],"type":"VEC4"},{"bufferView":16,"componentType":5126,"count":2,"max":[0.3333333432674408],"min":[0],"type":"SCALAR"},{"bufferView":17,"componentType":5126,"count":2,"max":[-0.0849609375,0,-0.7216796875],"min":[-0.0849609375,0,-0.7216796875],"type":"VEC3"},{"bufferView":18,"componentType":5126,"count":1,"max":[0],"min":[0],"type":"SCALAR"},{"bufferView":19,"componentType":5126,"count":1,"max":[1,1.5,1],"min":[1,1.5,1],"type":"VEC3"}]}