{"asset":{"version":"2.0","generator":"Blockbench 4.8.3 glTF exporter"},"scenes":[{"nodes":[9],"name":"blockbench_export"}],"scene":0,"nodes":[{"translation":[0.375,-0.6875,0],"name":"RightHand"},{"translation":[-0.4296875,0.8578125000000003,-0.158203125],"name":"R","children":[0]},{"translation":[0.5,0.4716796875,-0.4375],"name":"pp19_mag_standard"},{"translation":[0.5,0.5888671875,0.130859375],"name":"pp19_bolt"},{"translation":[-0.5546875,-0.3296874999999997,-0.658203125],"name":"pp19","children":[2,3]},{"translation":[0,0.01718749999999969,0.0888671875],"name":"bone","children":[1,4]},{"translation":[-0.375,-0.6875,0],"name":"LeftHand"},{"translation":[0.3203125,0.875,-0.0693359375],"name":"l","children":[6]},{"translation":[0.5546875,0.3125,0.5693359375],"name":"bone2","children":[5,7]},{"children":[8]}],"animations":[{"name":"inspect","samplers":[{"input":0,"output":1,"interpolation":"LINEAR"},{"input":2,"output":3,"interpolation":"LINEAR"},{"input":4,"output":5,"interpolation":"LINEAR"},{"input":6,"output":7,"interpolation":"LINEAR"},{"input":8,"output":9,"interpolation":"LINEAR"},{"input":10,"output":11,"interpolation":"LINEAR"},{"input":12,"output":13,"interpolation":"LINEAR"},{"input":14,"output":15,"interpolation":"LINEAR"},{"input":16,"output":17,"interpolation":"LINEAR"},{"input":18,"output":19,"interpolation":"LINEAR"}],"channels":[{"sampler":0,"target":{"node":8,"path":"rotation"}},{"sampler":1,"target":{"node":8,"path":"translation"}},{"sampler":2,"target":{"node":5,"path":"rotation"}},{"sampler":3,"target":{"node":5,"path":"translation"}},{"sampler":4,"target":{"node":1,"path":"rotation"}},{"sampler":5,"target":{"node":1,"path":"translation"}},{"sampler":6,"target":{"node":1,"path":"scale"}},{"sampler":7,"target":{"node":7,"path":"rotation"}},{"sampler":8,"target":{"node":7,"path":"translation"}},{"sampler":9,"target":{"node":7,"path":"scale"}}]}],"bufferViews":[{"buffer":0,"byteOffset":0,"byteLength":76},{"buffer":0,"byteOffset":76,"byteLength":304},{"buffer":0,"byteOffset":380,"byteLength":12},{"buffer":0,"byteOffset":392,"byteLength":36},{"buffer":0,"byteOffset":428,"byteLength":108},{"buffer":0,"byteOffset":536,"byteLength":432},{"buffer":0,"byteOffset":968,"byteLength":76},{"buffer":0,"byteOffset":1044,"byteLength":228},{"buffer":0,"byteOffset":1272,"byteLength":4},{"buffer":0,"byteOffset":1276,"byteLength":16},{"buffer":0,"byteOffset":1292,"byteLength":4},{"buffer":0,"byteOffset":1296,"byteLength":12},{"buffer":0,"byteOffset":1308,"byteLength":4},{"buffer":0,"byteOffset":1312,"byteLength":12},{"buffer":0,"byteOffset":1324,"byteLength":48},{"buffer":0,"byteOffset":1372,"byteLength":192},{"buffer":0,"byteOffset":1564,"byteLength":28},{"buffer":0,"byteOffset":1592,"byteLength":84},{"buffer":0,"byteOffset":1676,"byteLength":4},{"buffer":0,"byteOffset":1680,"byteLength":12}],"buffers":[{"byteLength":1692,"uri":"data:application/octet-stream;base64,"}],"accessors":[{"bufferView":0,"componentType":5126,"count":19,"max":[4],"min":[0],"type":"SCALAR"},{"bufferView":1,"componentType":5126,"count":19,"max":[0.07634836435317993,0.020965252071619034,0.04143970087170601,1],"min":[0,-0.016706446185708046,-0.2835325598716736,0.9569872617721558],"type":"VEC4"},{"bufferView":2,"componentType":5126,"count":3,"max":[3.8333332538604736],"min":[0],"type":"SCALAR"},{"bufferView":3,"componentType":5126,"count":3,"max":[0.5546875,0.3583984375,0.5693359375],"min":[0.5224609375,0.3125,0.5693359375],"type":"VEC3"},{"bufferView":4,"componentType":5126,"count":27,"max":[4],"min":[0.2083333283662796],"type":"SCALAR"},{"bufferView":5,"componentType":5126,"count":27,"max":[0.12351281940937042,0.07540784031152725,0.8982006311416626,1],"min":[-0.007545745000243187,-0.021710138767957687,-0.2309401035308838,0.4218085706233978],"type":"VEC4"},{"bufferView":6,"componentType":5126,"count":19,"max":[4],"min":[0.2083333283662796],"type":"SCALAR"},{"bufferView":7,"componentType":5126,"count":19,"max":[0.009999999776482582,0.0703125,0.1767578125],"min":[0,0.01718750037252903,0.0888671875],"type":"VEC3"},{"bufferView":8,"componentType":5126,"count":1,"max":[0],"min":[0],"type":"SCALAR"},{"bufferView":9,"componentType":5126,"count":1,"max":[0.11646057665348053,-0.7547268271446228,0.6381920576095581,0.09764835238456726],"min":[0.11646057665348053,-0.7547268271446228,0.6381920576095581,0.09764835238456726],"type":"VEC4"},{"bufferView":10,"componentType":5126,"count":1,"max":[0],"min":[0],"type":"SCALAR"},{"bufferView":11,"componentType":5126,"count":1,"max":[-0.02734375,-0.00937500037252903,-0.083984375],"min":[-0.02734375,-0.00937500037252903,-0.083984375],"type":"VEC3"},{"bufferView":12,"componentType":5126,"count":1,"max":[0],"min":[0],"type":"SCALAR"},{"bufferView":13,"componentType":5126,"count":1,"max":[1,1.5,1],"min":[1,1.5,1],"type":"VEC3"},{"bufferView":14,"componentType":5126,"count":12,"max":[4],"min":[0],"type":"SCALAR"},{"bufferView":15,"componentType":5126,"count":12,"max":[-0.17372295260429382,0.6059650182723999,-0.4065798819065094,0.743233859539032],"min":[-0.3281494677066803,0.34927064180374146,-0.8176829218864441,0.3189249038696289],"type":"VEC4"},{"bufferView":16,"componentType":5126,"count":7,"max":[4],"min":[0],"type":"SCALAR"},{"bufferView":17,"componentType":5126,"count":7,"max":[-0.0771484375,0,-0.3399609327316284],"min":[-0.39308592677116394,-0.984570324420929,-0.7216796875],"type":"VEC3"},{"bufferView":18,"componentType":5126,"count":1,"max":[0],"min":[0],"type":"SCALAR"},{"bufferView":19,"componentType":5126,"count":1,"max":[1,1.5,1],"min":[1,1.5,1],"type":"VEC3"}]}