{"asset":{"version":"2.0","generator":"Blockbench 4.8.3 glTF exporter"},"scenes":[{"nodes":[12],"name":"blockbench_export"}],"scene":0,"nodes":[{"translation":[0.375,-0.6875,0],"name":"RightHand"},{"translation":[-0.4140625,0.8480468750000003,-0.625],"name":"R","children":[0]},{"translation":[-0.04813371000829958,-0.4715986019548887,-0.634765625],"name":"group5"},{"translation":[0.5129774600082996,0.6044111019548887,0.634765625],"name":"ppk20_bolt","children":[2]},{"translation":[0.51171875,-0.363985,-0.09211750000000002],"name":"mag"},{"translation":[-0.94921875,0.0625,-0.09375],"name":"mb","children":[4]},{"translation":[0.5,0.4375,0.59375],"name":"ppk20_standard_magazine","children":[5]},{"translation":[-0.5390625,-0.3394531249999997,-1.125],"name":"gun","children":[3,6]},{"translation":[-0.0234375,0.02695312499999969,0.0625],"name":"bone","children":[1,7]},{"translation":[-0.375,-0.6875,0],"name":"LeftHand"},{"translation":[0.3125,0.875,-0.5625],"name":"l","children":[9]},{"translation":[0.5625,0.3125,1.0625],"name":"bone2","children":[8,10]},{"children":[11]}],"animations":[{"name":"draw","samplers":[{"input":0,"output":1,"interpolation":"LINEAR"},{"input":2,"output":3,"interpolation":"LINEAR"},{"input":4,"output":5,"interpolation":"LINEAR"},{"input":6,"output":7,"interpolation":"LINEAR"},{"input":8,"output":9,"interpolation":"LINEAR"},{"input":10,"output":11,"interpolation":"LINEAR"},{"input":12,"output":13,"interpolation":"LINEAR"},{"input":14,"output":15,"interpolation":"LINEAR"},{"input":16,"output":17,"interpolation":"LINEAR"},{"input":18,"output":19,"interpolation":"LINEAR"},{"input":20,"output":21,"interpolation":"LINEAR"},{"input":22,"output":23,"interpolation":"LINEAR"},{"input":24,"output":25,"interpolation":"LINEAR"},{"input":26,"output":27,"interpolation":"LINEAR"}],"channels":[{"sampler":0,"target":{"node":11,"path":"rotation"}},{"sampler":1,"target":{"node":11,"path":"translation"}},{"sampler":2,"target":{"node":8,"path":"rotation"}},{"sampler":3,"target":{"node":8,"path":"translation"}},{"sampler":4,"target":{"node":1,"path":"rotation"}},{"sampler":5,"target":{"node":1,"path":"translation"}},{"sampler":6,"target":{"node":1,"path":"scale"}},{"sampler":7,"target":{"node":10,"path":"rotation"}},{"sampler":8,"target":{"node":10,"path":"translation"}},{"sampler":9,"target":{"node":10,"path":"scale"}},{"sampler":10,"target":{"node":3,"path":"rotation"}},{"sampler":11,"target":{"node":3,"path":"translation"}},{"sampler":12,"target":{"node":6,"path":"rotation"}},{"sampler":13,"target":{"node":6,"path":"translation"}}]}],"bufferViews":[{"buffer":0,"byteOffset":0,"byteLength":16},{"buffer":0,"byteOffset":16,"byteLength":64},{"buffer":0,"byteOffset":80,"byteLength":16},{"buffer":0,"byteOffset":96,"byteLength":48},{"buffer":0,"byteOffset":144,"byteLength":4},{"buffer":0,"byteOffset":148,"byteLength":16},{"buffer":0,"byteOffset":164,"byteLength":4},{"buffer":0,"byteOffset":168,"byteLength":12},{"buffer":0,"byteOffset":180,"byteLength":4},{"buffer":0,"byteOffset":184,"byteLength":16},{"buffer":0,"byteOffset":200,"byteLength":4},{"buffer":0,"byteOffset":204,"byteLength":12},{"buffer":0,"byteOffset":216,"byteLength":4},{"buffer":0,"byteOffset":220,"byteLength":12},{"buffer":0,"byteOffset":232,"byteLength":4},{"buffer":0,"byteOffset":236,"byteLength":16},{"buffer":0,"byteOffset":252,"byteLength":4},{"buffer":0,"byteOffset":256,"byteLength":12},{"buffer":0,"byteOffset":268,"byteLength":4},{"buffer":0,"byteOffset":272,"byteLength":12},{"buffer":0,"byteOffset":284,"byteLength":4},{"buffer":0,"byteOffset":288,"byteLength":16},{"buffer":0,"byteOffset":304,"byteLength":4},{"buffer":0,"byteOffset":308,"byteLength":12},{"buffer":0,"byteOffset":320,"byteLength":4},{"buffer":0,"byteOffset":324,"byteLength":16},{"buffer":0,"byteOffset":340,"byteLength":4},{"buffer":0,"byteOffset":344,"byteLength":12}],"buffers":[{"byteLength":356,"uri":"data:application/octet-stream;base64,"}],"accessors":[{"bufferView":0,"componentType":5126,"count":4,"max":[0.375],"min":[0.0416666679084301],"type":"SCALAR"},{"bufferView":1,"componentType":5126,"count":4,"max":[0.021794121712446213,0.46897292137145996,0.4526343047618866,1],"min":[-0.23641057312488556,-0.002054699929431081,-0.04360900819301605,0.7206224203109741],"type":"VEC4"},{"bufferView":2,"componentType":5126,"count":4,"max":[0.375],"min":[0.0416666679084301],"type":"SCALAR"},{"bufferView":3,"componentType":5126,"count":4,"max":[0.5625,0.3125,1.1103515625],"min":[0.5625,0.220703125,1.005859375],"type":"VEC3"},{"bufferView":4,"componentType":5126,"count":1,"max":[0.0416666679084301],"min":[0.0416666679084301],"type":"SCALAR"},{"bufferView":5,"componentType":5126,"count":1,"max":[0,0,0,1],"min":[0,0,0,1],"type":"VEC4"},{"bufferView":6,"componentType":5126,"count":1,"max":[0.0416666679084301],"min":[0.0416666679084301],"type":"SCALAR"},{"bufferView":7,"componentType":5126,"count":1,"max":[-0.0234375,0.02695312537252903,0.0625],"min":[-0.0234375,0.02695312537252903,0.0625],"type":"VEC3"},{"bufferView":8,"componentType":5126,"count":1,"max":[0.0416666679084301],"min":[0.0416666679084301],"type":"SCALAR"},{"bufferView":9,"componentType":5126,"count":1,"max":[0.07453223317861557,-0.7471408843994141,0.6597143411636353,0.031661298125982285],"min":[0.07453223317861557,-0.7471408843994141,0.6597143411636353,0.031661298125982285],"type":"VEC4"},{"bufferView":10,"componentType":5126,"count":1,"max":[0.0416666679084301],"min":[0.0416666679084301],"type":"SCALAR"},{"bufferView":11,"componentType":5126,"count":1,"max":[0.00390625,-0.03378906100988388,-0.1083984375],"min":[0.00390625,-0.03378906100988388,-0.1083984375],"type":"VEC3"},{"bufferView":12,"componentType":5126,"count":1,"max":[0.0416666679084301],"min":[0.0416666679084301],"type":"SCALAR"},{"bufferView":13,"componentType":5126,"count":1,"max":[1,1.5,1],"min":[1,1.5,1],"type":"VEC3"},{"bufferView":14,"componentType":5126,"count":1,"max":[0.0416666679084301],"min":[0.0416666679084301],"type":"SCALAR"},{"bufferView":15,"componentType":5126,"count":1,"max":[-0.2488996386528015,0.5947816371917725,-0.573040783405304,0.5058735609054565],"min":[-0.2488996386528015,0.5947816371917725,-0.573040783405304,0.5058735609054565],"type":"VEC4"},{"bufferView":16,"componentType":5126,"count":1,"max":[0.0416666679084301],"min":[0.0416666679084301],"type":"SCALAR"},{"bufferView":17,"componentType":5126,"count":1,"max":[-0.091796875,0.05859375,-0.822265625],"min":[-0.091796875,0.05859375,-0.822265625],"type":"VEC3"},{"bufferView":18,"componentType":5126,"count":1,"max":[0.0416666679084301],"min":[0.0416666679084301],"type":"SCALAR"},{"bufferView":19,"componentType":5126,"count":1,"max":[1,1.5,1],"min":[1,1.5,1],"type":"VEC3"},{"bufferView":20,"componentType":5126,"count":1,"max":[0],"min":[0],"type":"SCALAR"},{"bufferView":21,"componentType":5126,"count":1,"max":[0,0,0,1],"min":[0,0,0,1],"type":"VEC4"},{"bufferView":22,"componentType":5126,"count":1,"max":[0],"min":[0],"type":"SCALAR"},{"bufferView":23,"componentType":5126,"count":1,"max":[0.5129774808883667,0.6044111251831055,0.634765625],"min":[0.5129774808883667,0.6044111251831055,0.634765625],"type":"VEC3"},{"bufferView":24,"componentType":5126,"count":1,"max":[0],"min":[0],"type":"SCALAR"},{"bufferView":25,"componentType":5126,"count":1,"max":[0,0,0,1],"min":[0,0,0,1],"type":"VEC4"},{"bufferView":26,"componentType":5126,"count":1,"max":[0],"min":[0],"type":"SCALAR"},{"bufferView":27,"componentType":5126,"count":1,"max":[0.5,0.4375,0.59375],"min":[0.5,0.4375,0.59375],"type":"VEC3"}]}