{"asset":{"version":"2.0","generator":"Blockbench 4.8.3 glTF exporter"},"scenes":[{"nodes":[12],"name":"blockbench_export"}],"scene":0,"nodes":[{"translation":[0.375,-0.6875,0],"name":"RightHand"},{"translation":[-0.4140625,0.8480468750000003,-0.625],"name":"R","children":[0]},{"translation":[-0.04813371000829958,-0.4715986019548887,-0.634765625],"name":"group5"},{"translation":[0.5129774600082996,0.6044111019548887,0.634765625],"name":"ppk20_bolt","children":[2]},{"translation":[0.51171875,-0.363985,-0.09211750000000002],"name":"mag"},{"translation":[-0.94921875,0.0625,-0.09375],"name":"mb","children":[4]},{"translation":[0.5,0.4375,0.59375],"name":"ppk20_standard_magazine","children":[5]},{"translation":[-0.5390625,-0.3394531249999997,-1.125],"name":"gun","children":[3,6]},{"translation":[-0.0234375,0.02695312499999969,0.0625],"name":"bone","children":[1,7]},{"translation":[-0.375,-0.6875,0],"name":"LeftHand"},{"translation":[0.3125,0.875,-0.5625],"name":"l","children":[9]},{"translation":[0.5625,0.3125,1.0625],"name":"bone2","children":[8,10]},{"children":[11]}],"animations":[{"name":"inspect","samplers":[{"input":0,"output":1,"interpolation":"LINEAR"},{"input":2,"output":3,"interpolation":"LINEAR"},{"input":4,"output":5,"interpolation":"LINEAR"},{"input":6,"output":7,"interpolation":"LINEAR"},{"input":8,"output":9,"interpolation":"LINEAR"},{"input":10,"output":11,"interpolation":"LINEAR"},{"input":12,"output":13,"interpolation":"LINEAR"},{"input":14,"output":15,"interpolation":"LINEAR"},{"input":16,"output":17,"interpolation":"LINEAR"},{"input":18,"output":19,"interpolation":"LINEAR"},{"input":20,"output":21,"interpolation":"LINEAR"},{"input":22,"output":23,"interpolation":"LINEAR"},{"input":24,"output":25,"interpolation":"LINEAR"},{"input":26,"output":27,"interpolation":"LINEAR"}],"channels":[{"sampler":0,"target":{"node":11,"path":"rotation"}},{"sampler":1,"target":{"node":11,"path":"translation"}},{"sampler":2,"target":{"node":8,"path":"rotation"}},{"sampler":3,"target":{"node":8,"path":"translation"}},{"sampler":4,"target":{"node":1,"path":"rotation"}},{"sampler":5,"target":{"node":1,"path":"translation"}},{"sampler":6,"target":{"node":1,"path":"scale"}},{"sampler":7,"target":{"node":10,"path":"rotation"}},{"sampler":8,"target":{"node":10,"path":"translation"}},{"sampler":9,"target":{"node":10,"path":"scale"}},{"sampler":10,"target":{"node":3,"path":"rotation"}},{"sampler":11,"target":{"node":3,"path":"translation"}},{"sampler":12,"target":{"node":6,"path":"rotation"}},{"sampler":13,"target":{"node":6,"path":"translation"}}]}],"bufferViews":[{"buffer":0,"byteOffset":0,"byteLength":28},{"buffer":0,"byteOffset":28,"byteLength":112},{"buffer":0,"byteOffset":140,"byteLength":28},{"buffer":0,"byteOffset":168,"byteLength":84},{"buffer":0,"byteOffset":252,"byteLength":60},{"buffer":0,"byteOffset":312,"byteLength":240},{"buffer":0,"byteOffset":552,"byteLength":56},{"buffer":0,"byteOffset":608,"byteLength":168},{"buffer":0,"byteOffset":776,"byteLength":4},{"buffer":0,"byteOffset":780,"byteLength":16},{"buffer":0,"byteOffset":796,"byteLength":4},{"buffer":0,"byteOffset":800,"byteLength":12},{"buffer":0,"byteOffset":812,"byteLength":4},{"buffer":0,"byteOffset":816,"byteLength":12},{"buffer":0,"byteOffset":828,"byteLength":40},{"buffer":0,"byteOffset":868,"byteLength":160},{"buffer":0,"byteOffset":1028,"byteLength":32},{"buffer":0,"byteOffset":1060,"byteLength":96},{"buffer":0,"byteOffset":1156,"byteLength":4},{"buffer":0,"byteOffset":1160,"byteLength":12},{"buffer":0,"byteOffset":1172,"byteLength":4},{"buffer":0,"byteOffset":1176,"byteLength":16},{"buffer":0,"byteOffset":1192,"byteLength":4},{"buffer":0,"byteOffset":1196,"byteLength":12},{"buffer":0,"byteOffset":1208,"byteLength":4},{"buffer":0,"byteOffset":1212,"byteLength":16},{"buffer":0,"byteOffset":1228,"byteLength":4},{"buffer":0,"byteOffset":1232,"byteLength":12}],"buffers":[{"byteLength":1244,"uri":"data:application/octet-stream;base64,"}],"accessors":[{"bufferView":0,"componentType":5126,"count":7,"max":[4.083333492279053],"min":[0.0416666679084301],"type":"SCALAR"},{"bufferView":1,"componentType":5126,"count":7,"max":[0.015270891599357128,0.015035071410238743,0.02617669850587845,1],"min":[-0.010903704911470413,0,-0.02835611067712307,0.9995383620262146],"type":"VEC4"},{"bufferView":2,"componentType":5126,"count":7,"max":[4.083333492279053],"min":[0.0416666679084301],"type":"SCALAR"},{"bufferView":3,"componentType":5126,"count":7,"max":[0.5625,0.318359375,1.0751953125],"min":[0.5625,0.30835938453674316,1.046875],"type":"VEC3"},{"bufferView":4,"componentType":5126,"count":15,"max":[3.9166667461395264],"min":[0.0416666679084301],"type":"SCALAR"},{"bufferView":5,"componentType":5126,"count":15,"max":[0.2782144248485565,0.2643769383430481,0.5892225503921509,1],"min":[0,0,-0.3643772006034851,0.7611826062202454],"type":"VEC4"},{"bufferView":6,"componentType":5126,"count":14,"max":[3.9166667461395264],"min":[0.0416666679084301],"type":"SCALAR"},{"bufferView":7,"componentType":5126,"count":14,"max":[-0.0234375,0.02695312537252903,0.11249999701976776],"min":[-0.0234375,-0.014296875335276127,0.037109375],"type":"VEC3"},{"bufferView":8,"componentType":5126,"count":1,"max":[0.0416666679084301],"min":[0.0416666679084301],"type":"SCALAR"},{"bufferView":9,"componentType":5126,"count":1,"max":[0.07453223317861557,-0.7471408843994141,0.6597143411636353,0.031661298125982285],"min":[0.07453223317861557,-0.7471408843994141,0.6597143411636353,0.031661298125982285],"type":"VEC4"},{"bufferView":10,"componentType":5126,"count":1,"max":[0.0416666679084301],"min":[0.0416666679084301],"type":"SCALAR"},{"bufferView":11,"componentType":5126,"count":1,"max":[0.00390625,-0.03378906100988388,-0.1083984375],"min":[0.00390625,-0.03378906100988388,-0.1083984375],"type":"VEC3"},{"bufferView":12,"componentType":5126,"count":1,"max":[0.0416666679084301],"min":[0.0416666679084301],"type":"SCALAR"},{"bufferView":13,"componentType":5126,"count":1,"max":[1,1.5,1],"min":[1,1.5,1],"type":"VEC3"},{"bufferView":14,"componentType":5126,"count":10,"max":[3.9166667461395264],"min":[0.0416666679084301],"type":"SCALAR"},{"bufferView":15,"componentType":5126,"count":10,"max":[-0.1334918737411499,0.6999544501304626,-0.47015154361724854,0.5377484560012817],"min":[-0.3907947540283203,0.5332025289535522,-0.6653838753700256,0.34672993421554565],"type":"VEC4"},{"bufferView":16,"componentType":5126,"count":8,"max":[3.9166667461395264],"min":[0.0416666679084301],"type":"SCALAR"},{"bufferView":17,"componentType":5126,"count":8,"max":[-0.091796875,0.12812499701976776,-0.13500000536441803],"min":[-0.8418750166893005,-0.3787499964237213,-0.822265625],"type":"VEC3"},{"bufferView":18,"componentType":5126,"count":1,"max":[0.0416666679084301],"min":[0.0416666679084301],"type":"SCALAR"},{"bufferView":19,"componentType":5126,"count":1,"max":[1,1.5,1],"min":[1,1.5,1],"type":"VEC3"},{"bufferView":20,"componentType":5126,"count":1,"max":[0.0416666679084301],"min":[0.0416666679084301],"type":"SCALAR"},{"bufferView":21,"componentType":5126,"count":1,"max":[0,0,0,1],"min":[0,0,0,1],"type":"VEC4"},{"bufferView":22,"componentType":5126,"count":1,"max":[0.0416666679084301],"min":[0.0416666679084301],"type":"SCALAR"},{"bufferView":23,"componentType":5126,"count":1,"max":[0.5129774808883667,0.6044111251831055,0.634765625],"min":[0.5129774808883667,0.6044111251831055,0.634765625],"type":"VEC3"},{"bufferView":24,"componentType":5126,"count":1,"max":[0.0416666679084301],"min":[0.0416666679084301],"type":"SCALAR"},{"bufferView":25,"componentType":5126,"count":1,"max":[0,0,0,1],"min":[0,0,0,1],"type":"VEC4"},{"bufferView":26,"componentType":5126,"count":1,"max":[0.0416666679084301],"min":[0.0416666679084301],"type":"SCALAR"},{"bufferView":27,"componentType":5126,"count":1,"max":[0.5,0.4375,0.59375],"min":[0.5,0.4375,0.59375],"type":"VEC3"}]}