{"asset":{"version":"2.0","generator":"Blockbench 4.8.3 glTF exporter"},"scenes":[{"nodes":[8],"name":"blockbench_export"}],"scene":0,"nodes":[{"translation":[-0.375,-0.6875,0],"name":"LeftHand"},{"translation":[0.875,1.1875,0.5],"name":"L","children":[0]},{"translation":[0.375,-0.6875,0],"name":"RightHand"},{"translation":[0.125,1.1875,0.5],"name":"R1","children":[2]},{"translation":[0.5,0.5,0.5],"name":"ppk20_bolt"},{"translation":[0.5,0.5,0.5],"name":"ppk20_standard_magazine"},{"name":"GUN","children":[4,5]},{"name":"R","children":[3,6]},{"children":[1,7]}],"animations":[{"name":"reload_empty","samplers":[{"input":0,"output":1,"interpolation":"LINEAR"},{"input":2,"output":3,"interpolation":"LINEAR"},{"input":4,"output":5,"interpolation":"LINEAR"},{"input":6,"output":7,"interpolation":"LINEAR"},{"input":8,"output":9,"interpolation":"LINEAR"},{"input":10,"output":11,"interpolation":"LINEAR"},{"input":12,"output":13,"interpolation":"LINEAR"},{"input":14,"output":15,"interpolation":"LINEAR"},{"input":16,"output":17,"interpolation":"LINEAR"},{"input":18,"output":19,"interpolation":"LINEAR"},{"input":20,"output":21,"interpolation":"LINEAR"}],"channels":[{"sampler":0,"target":{"node":1,"path":"translation"}},{"sampler":1,"target":{"node":0,"path":"rotation"}},{"sampler":2,"target":{"node":0,"path":"translation"}},{"sampler":3,"target":{"node":2,"path":"rotation"}},{"sampler":4,"target":{"node":2,"path":"translation"}},{"sampler":5,"target":{"node":7,"path":"rotation"}},{"sampler":6,"target":{"node":7,"path":"translation"}},{"sampler":7,"target":{"node":5,"path":"rotation"}},{"sampler":8,"target":{"node":5,"path":"translation"}},{"sampler":9,"target":{"node":4,"path":"rotation"}},{"sampler":10,"target":{"node":4,"path":"translation"}}]}],"bufferViews":[{"buffer":0,"byteOffset":0,"byteLength":4},{"buffer":0,"byteOffset":4,"byteLength":12},{"buffer":0,"byteOffset":16,"byteLength":56},{"buffer":0,"byteOffset":72,"byteLength":224},{"buffer":0,"byteOffset":296,"byteLength":44},{"buffer":0,"byteOffset":340,"byteLength":132},{"buffer":0,"byteOffset":472,"byteLength":4},{"buffer":0,"byteOffset":476,"byteLength":16},{"buffer":0,"byteOffset":492,"byteLength":4},{"buffer":0,"byteOffset":496,"byteLength":12},{"buffer":0,"byteOffset":508,"byteLength":32},{"buffer":0,"byteOffset":540,"byteLength":128},{"buffer":0,"byteOffset":668,"byteLength":32},{"buffer":0,"byteOffset":700,"byteLength":96},{"buffer":0,"byteOffset":796,"byteLength":24},{"buffer":0,"byteOffset":820,"byteLength":96},{"buffer":0,"byteOffset":916,"byteLength":24},{"buffer":0,"byteOffset":940,"byteLength":72},{"buffer":0,"byteOffset":1012,"byteLength":8},{"buffer":0,"byteOffset":1020,"byteLength":32},{"buffer":0,"byteOffset":1052,"byteLength":16},{"buffer":0,"byteOffset":1068,"byteLength":48}],"buffers":[{"byteLength":1116,"uri":"data:application/octet-stream;base64,"}],"accessors":[{"bufferView":0,"componentType":5126,"count":1,"max":[0],"min":[0],"type":"SCALAR"},{"bufferView":1,"componentType":5126,"count":1,"max":[0,1.1875,0.5],"min":[0,1.1875,0.5],"type":"VEC3"},{"bufferView":2,"componentType":5126,"count":14,"max":[2.4166667461395264],"min":[0],"type":"SCALAR"},{"bufferView":3,"componentType":5126,"count":14,"max":[0.1077537089586258,0.8488397002220154,-0.26403501629829407,0.6728650331497192],"min":[-0.20459617674350739,0.43854445219039917,-0.8612268567085266,0.19538156688213348],"type":"VEC4"},{"bufferView":4,"componentType":5126,"count":11,"max":[2.4166667461395264],"min":[0],"type":"SCALAR"},{"bufferView":5,"componentType":5126,"count":11,"max":[0.3623046875,-0.6112499833106995,0.8989062309265137],"min":[-0.07124999910593033,-1.0016406774520874,0.4951171875],"type":"VEC3"},{"bufferView":6,"componentType":5126,"count":1,"max":[0],"min":[0],"type":"SCALAR"},{"bufferView":7,"componentType":5126,"count":1,"max":[-0.09688383340835571,0.764674723148346,-0.6281642317771912,-0.10628172010183334],"min":[-0.09688383340835571,0.764674723148346,-0.6281642317771912,-0.10628172010183334],"type":"VEC4"},{"bufferView":8,"componentType":5126,"count":1,"max":[0],"min":[0],"type":"SCALAR"},{"bufferView":9,"componentType":5126,"count":1,"max":[0.234375,-1.01171875,1.2177734375],"min":[0.234375,-1.01171875,1.2177734375],"type":"VEC3"},{"bufferView":10,"componentType":5126,"count":8,"max":[2.4166667461395264],"min":[0],"type":"SCALAR"},{"bufferView":11,"componentType":5126,"count":8,"max":[0.1715608388185501,0.0500514879822731,0.4508427083492279,1],"min":[0,-0.005948998965322971,-0.19152280688285828,0.8761748671531677],"type":"VEC4"},{"bufferView":12,"componentType":5126,"count":8,"max":[2.4166667461395264],"min":[0],"type":"SCALAR"},{"bufferView":13,"componentType":5126,"count":8,"max":[0.408203125,0.5390625,0],"min":[0,-0.0234375,-0.2734375],"type":"VEC3"},{"bufferView":14,"componentType":5126,"count":6,"max":[1.2083333730697632],"min":[0.2916666567325592],"type":"SCALAR"},{"bufferView":15,"componentType":5126,"count":6,"max":[0.019633691757917404,0.03235609084367752,0,1],"min":[-0.1648673564195633,-0.001698210253380239,-0.2565345764160156,0.9523685574531555],"type":"VEC4"},{"bufferView":16,"componentType":5126,"count":6,"max":[1.2083333730697632],"min":[0.2916666567325592],"type":"SCALAR"},{"bufferView":17,"componentType":5126,"count":6,"max":[0.5,0.5,0.5633203387260437],"min":[0.3935546875,-0.6142187714576721,0.5],"type":"VEC3"},{"bufferView":18,"componentType":5126,"count":2,"max":[2.0416667461395264],"min":[1.625],"type":"SCALAR"},{"bufferView":19,"componentType":5126,"count":2,"max":[0,0,0,1],"min":[0,0,0,1],"type":"VEC4"},{"bufferView":20,"componentType":5126,"count":4,"max":[2.0416667461395264],"min":[1.625],"type":"SCALAR"},{"bufferView":21,"componentType":5126,"count":4,"max":[0.5,0.5,0.7392578125],"min":[0.5,0.5,0.5],"type":"VEC3"}]}