{"asset":{"version":"2.0","generator":"Blockbench 4.8.3 glTF exporter"},"scenes":[{"nodes":[12],"name":"blockbench_export"}],"scene":0,"nodes":[{"translation":[0.375,-0.6875,0],"name":"RightHand"},{"translation":[-0.4140625,0.8480468750000003,-0.625],"name":"R","children":[0]},{"translation":[-0.04813371000829958,-0.4715986019548887,-0.634765625],"name":"group5"},{"translation":[0.5129774600082996,0.6044111019548887,0.634765625],"name":"ppk20_bolt","children":[2]},{"translation":[0.51171875,-0.363985,-0.09211750000000002],"name":"mag"},{"translation":[-0.94921875,0.0625,-0.09375],"name":"mb","children":[4]},{"translation":[0.5,0.4375,0.59375],"name":"ppk20_standard_magazine","children":[5]},{"translation":[-0.5390625,-0.3394531249999997,-1.125],"name":"gun","children":[3,6]},{"translation":[-0.0234375,0.02695312499999969,0.0625],"name":"bone","children":[1,7]},{"translation":[-0.375,-0.6875,0],"name":"LeftHand"},{"translation":[0.3125,0.875,-0.5625],"name":"l","children":[9]},{"translation":[0.5625,0.3125,1.0625],"name":"bone2","children":[8,10]},{"children":[11]}],"animations":[{"name":"reload_empty","samplers":[{"input":0,"output":1,"interpolation":"LINEAR"},{"input":2,"output":3,"interpolation":"LINEAR"},{"input":4,"output":5,"interpolation":"LINEAR"},{"input":6,"output":7,"interpolation":"LINEAR"},{"input":8,"output":9,"interpolation":"LINEAR"},{"input":10,"output":11,"interpolation":"LINEAR"},{"input":12,"output":13,"interpolation":"LINEAR"},{"input":14,"output":15,"interpolation":"LINEAR"},{"input":16,"output":17,"interpolation":"LINEAR"},{"input":18,"output":19,"interpolation":"LINEAR"},{"input":20,"output":21,"interpolation":"LINEAR"},{"input":22,"output":23,"interpolation":"LINEAR"},{"input":24,"output":25,"interpolation":"LINEAR"},{"input":26,"output":27,"interpolation":"LINEAR"}],"channels":[{"sampler":0,"target":{"node":11,"path":"rotation"}},{"sampler":1,"target":{"node":11,"path":"translation"}},{"sampler":2,"target":{"node":8,"path":"rotation"}},{"sampler":3,"target":{"node":8,"path":"translation"}},{"sampler":4,"target":{"node":1,"path":"rotation"}},{"sampler":5,"target":{"node":1,"path":"translation"}},{"sampler":6,"target":{"node":1,"path":"scale"}},{"sampler":7,"target":{"node":10,"path":"rotation"}},{"sampler":8,"target":{"node":10,"path":"translation"}},{"sampler":9,"target":{"node":10,"path":"scale"}},{"sampler":10,"target":{"node":3,"path":"rotation"}},{"sampler":11,"target":{"node":3,"path":"translation"}},{"sampler":12,"target":{"node":6,"path":"rotation"}},{"sampler":13,"target":{"node":6,"path":"translation"}}]}],"bufferViews":[{"buffer":0,"byteOffset":0,"byteLength":60},{"buffer":0,"byteOffset":60,"byteLength":240},{"buffer":0,"byteOffset":300,"byteLength":60},{"buffer":0,"byteOffset":360,"byteLength":180},{"buffer":0,"byteOffset":540,"byteLength":112},{"buffer":0,"byteOffset":652,"byteLength":448},{"buffer":0,"byteOffset":1100,"byteLength":104},{"buffer":0,"byteOffset":1204,"byteLength":312},{"buffer":0,"byteOffset":1516,"byteLength":24},{"buffer":0,"byteOffset":1540,"byteLength":96},{"buffer":0,"byteOffset":1636,"byteLength":24},{"buffer":0,"byteOffset":1660,"byteLength":72},{"buffer":0,"byteOffset":1732,"byteLength":4},{"buffer":0,"byteOffset":1736,"byteLength":12},{"buffer":0,"byteOffset":1748,"byteLength":92},{"buffer":0,"byteOffset":1840,"byteLength":368},{"buffer":0,"byteOffset":2208,"byteLength":88},{"buffer":0,"byteOffset":2296,"byteLength":264},{"buffer":0,"byteOffset":2560,"byteLength":4},{"buffer":0,"byteOffset":2564,"byteLength":12},{"buffer":0,"byteOffset":2576,"byteLength":4},{"buffer":0,"byteOffset":2580,"byteLength":16},{"buffer":0,"byteOffset":2596,"byteLength":16},{"buffer":0,"byteOffset":2612,"byteLength":48},{"buffer":0,"byteOffset":2660,"byteLength":24},{"buffer":0,"byteOffset":2684,"byteLength":96},{"buffer":0,"byteOffset":2780,"byteLength":24},{"buffer":0,"byteOffset":2804,"byteLength":72}],"buffers":[{"byteLength":2876,"uri":"data:application/octet-stream;base64,"}],"accessors":[{"bufferView":0,"componentType":5126,"count":15,"max":[2.4583332538604736],"min":[0.0416666679084301],"type":"SCALAR"},{"bufferView":1,"componentType":5126,"count":15,"max":[0.021813586354255676,0.0009276767377741635,0.015270128846168518,1],"min":[-0.056679755449295044,-0.0013020362239331007,-0.02617296203970909,0.998153567314148],"type":"VEC4"},{"bufferView":2,"componentType":5126,"count":15,"max":[2.4583332538604736],"min":[0.0416666679084301],"type":"SCALAR"},{"bufferView":3,"componentType":5126,"count":15,"max":[0.5625,0.3125,1.1025390625],"min":[0.5625,0.3037109375,1.015625],"type":"VEC3"},{"bufferView":4,"componentType":5126,"count":28,"max":[2.3333332538604736],"min":[0.0416666679084301],"type":"SCALAR"},{"bufferView":5,"componentType":5126,"count":28,"max":[0.34411507844924927,0.23416487872600555,0.3618137538433075,1],"min":[0,-0.10637678951025009,-0.3995998501777649,0.8283270001411438],"type":"VEC4"},{"bufferView":6,"componentType":5126,"count":26,"max":[2.3333332538604736],"min":[0.0416666679084301],"type":"SCALAR"},{"bufferView":7,"componentType":5126,"count":26,"max":[0.06785156577825546,0.03378906100988388,0.23984375596046448],"min":[-0.0234375,-0.014921874739229679,0.01953125],"type":"VEC3"},{"bufferView":8,"componentType":5126,"count":6,"max":[2.1666667461395264],"min":[1.6666666269302368],"type":"SCALAR"},{"bufferView":9,"componentType":5126,"count":6,"max":[0.19563107192516327,-0.7471408843994141,0.6597143411636353,0.031661298125982285],"min":[0.003847592044621706,-0.8738089799880981,0.4388095736503601,-0.16580967605113983],"type":"VEC4"},{"bufferView":10,"componentType":5126,"count":6,"max":[2.1666667461395264],"min":[1.6666666269302368],"type":"SCALAR"},{"bufferView":11,"componentType":5126,"count":6,"max":[0.29691407084465027,0.15492187440395355,-0.1083984375],"min":[0.00390625,-0.03378906100988388,-0.5299999713897705],"type":"VEC3"},{"bufferView":12,"componentType":5126,"count":1,"max":[1.6666666269302368],"min":[1.6666666269302368],"type":"SCALAR"},{"bufferView":13,"componentType":5126,"count":1,"max":[1,1.5,1],"min":[1,1.5,1],"type":"VEC3"},{"bufferView":14,"componentType":5126,"count":23,"max":[2.3333332538604736],"min":[0.0416666679084301],"type":"SCALAR"},{"bufferView":15,"componentType":5126,"count":23,"max":[0.07172216475009918,0.8245505690574646,-0.43988919258117676,0.701974630355835],"min":[-0.30424898862838745,0.5276108384132385,-0.7138105034828186,0.1011500284075737],"type":"VEC4"},{"bufferView":16,"componentType":5126,"count":22,"max":[2.3333332538604736],"min":[0.0416666679084301],"type":"SCALAR"},{"bufferView":17,"componentType":5126,"count":22,"max":[-0.019960938021540642,0.5655859112739563,-0.42320311069488525],"min":[-1.0343749523162842,-0.6006249785423279,-0.822265625],"type":"VEC3"},{"bufferView":18,"componentType":5126,"count":1,"max":[0.0416666679084301],"min":[0.0416666679084301],"type":"SCALAR"},{"bufferView":19,"componentType":5126,"count":1,"max":[1,1.5,1],"min":[1,1.5,1],"type":"VEC3"},{"bufferView":20,"componentType":5126,"count":1,"max":[1.7916666269302368],"min":[1.7916666269302368],"type":"SCALAR"},{"bufferView":21,"componentType":5126,"count":1,"max":[0,0,0,1],"min":[0,0,0,1],"type":"VEC4"},{"bufferView":22,"componentType":5126,"count":4,"max":[2.0416667461395264],"min":[1.7916666269302368],"type":"SCALAR"},{"bufferView":23,"componentType":5126,"count":4,"max":[0.5129774808883667,0.6044111251831055,0.947265625],"min":[0.5129774808883667,0.6044111251831055,0.634765625],"type":"VEC3"},{"bufferView":24,"componentType":5126,"count":6,"max":[1.2916666269302368],"min":[0.4583333432674408],"type":"SCALAR"},{"bufferView":25,"componentType":5126,"count":6,"max":[0.13483519852161407,0,0.002059313701465726,1],"min":[0,-0.2164396196603775,0,0.9762960076332092],"type":"VEC4"},{"bufferView":26,"componentType":5126,"count":6,"max":[1.2916666269302368],"min":[0.4583333432674408],"type":"SCALAR"},{"bufferView":27,"componentType":5126,"count":6,"max":[0.58203125,0.4375,0.78125],"min":[0.4617578089237213,-0.982421875,0.5810546875],"type":"VEC3"}]}