{"asset":{"version":"2.0","generator":"Blockbench 4.8.3 glTF exporter"},"scenes":[{"nodes":[8],"name":"blockbench_export"}],"scene":0,"nodes":[{"translation":[-0.375,-0.6875,0],"name":"LeftHand"},{"translation":[0.875,1.1875,0.5],"name":"L","children":[0]},{"translation":[0.375,-0.6875,0],"name":"RightHand"},{"translation":[0.125,1.1875,0.5],"name":"R1","children":[2]},{"translation":[0.5,0.5,0.5],"name":"ppk20_bolt"},{"translation":[0.5,0.5,0.5],"name":"ppk20_standard_magazine"},{"name":"GUN","children":[4,5]},{"name":"R","children":[3,6]},{"children":[1,7]}],"animations":[{"name":"inspect","samplers":[{"input":0,"output":1,"interpolation":"LINEAR"},{"input":2,"output":3,"interpolation":"LINEAR"},{"input":4,"output":5,"interpolation":"LINEAR"},{"input":6,"output":7,"interpolation":"LINEAR"},{"input":8,"output":9,"interpolation":"LINEAR"},{"input":10,"output":11,"interpolation":"LINEAR"},{"input":12,"output":13,"interpolation":"LINEAR"}],"channels":[{"sampler":0,"target":{"node":1,"path":"translation"}},{"sampler":1,"target":{"node":0,"path":"rotation"}},{"sampler":2,"target":{"node":0,"path":"translation"}},{"sampler":3,"target":{"node":2,"path":"rotation"}},{"sampler":4,"target":{"node":2,"path":"translation"}},{"sampler":5,"target":{"node":7,"path":"rotation"}},{"sampler":6,"target":{"node":7,"path":"translation"}}]}],"bufferViews":[{"buffer":0,"byteOffset":0,"byteLength":4},{"buffer":0,"byteOffset":4,"byteLength":12},{"buffer":0,"byteOffset":16,"byteLength":36},{"buffer":0,"byteOffset":52,"byteLength":144},{"buffer":0,"byteOffset":196,"byteLength":32},{"buffer":0,"byteOffset":228,"byteLength":96},{"buffer":0,"byteOffset":324,"byteLength":4},{"buffer":0,"byteOffset":328,"byteLength":16},{"buffer":0,"byteOffset":344,"byteLength":4},{"buffer":0,"byteOffset":348,"byteLength":12},{"buffer":0,"byteOffset":360,"byteLength":36},{"buffer":0,"byteOffset":396,"byteLength":144},{"buffer":0,"byteOffset":540,"byteLength":36},{"buffer":0,"byteOffset":576,"byteLength":108}],"buffers":[{"byteLength":684,"uri":"data:application/octet-stream;base64,"}],"accessors":[{"bufferView":0,"componentType":5126,"count":1,"max":[0],"min":[0],"type":"SCALAR"},{"bufferView":1,"componentType":5126,"count":1,"max":[0,1.1875,0.5],"min":[0,1.1875,0.5],"type":"VEC3"},{"bufferView":2,"componentType":5126,"count":9,"max":[3.5],"min":[0],"type":"SCALAR"},{"bufferView":3,"componentType":5126,"count":9,"max":[-0.019140662625432014,0.7269401550292969,-0.43817004561424255,0.7428482174873352],"min":[-0.22462838888168335,0.41790860891342163,-0.5574669241905212,0.4005275070667267],"type":"VEC4"},{"bufferView":4,"componentType":5126,"count":8,"max":[3.5],"min":[0],"type":"SCALAR"},{"bufferView":5,"componentType":5126,"count":8,"max":[0.36250001192092896,-0.8203125,0.4951171875],"min":[0.23261718451976776,-0.840624988079071,0.19214843213558197],"type":"VEC3"},{"bufferView":6,"componentType":5126,"count":1,"max":[0],"min":[0],"type":"SCALAR"},{"bufferView":7,"componentType":5126,"count":1,"max":[-0.09688383340835571,0.764674723148346,-0.6281642317771912,-0.10628172010183334],"min":[-0.09688383340835571,0.764674723148346,-0.6281642317771912,-0.10628172010183334],"type":"VEC4"},{"bufferView":8,"componentType":5126,"count":1,"max":[0],"min":[0],"type":"SCALAR"},{"bufferView":9,"componentType":5126,"count":1,"max":[0.234375,-1.01171875,1.2177734375],"min":[0.234375,-1.01171875,1.2177734375],"type":"VEC3"},{"bufferView":10,"componentType":5126,"count":9,"max":[3.5],"min":[0],"type":"SCALAR"},{"bufferView":11,"componentType":5126,"count":9,"max":[0.23356252908706665,0.32538411021232605,0.6000772714614868,1],"min":[0,-0.004199137911200523,-0.07432184368371964,0.7688059210777283],"type":"VEC4"},{"bufferView":12,"componentType":5126,"count":9,"max":[3.5],"min":[0],"type":"SCALAR"},{"bufferView":13,"componentType":5126,"count":9,"max":[0.8724218606948853,0.1376953125,0.34375],"min":[-0.12890625,-0.06964843720197678,-0.534375011920929],"type":"VEC3"}]}