{"asset":{"version":"2.0","generator":"Blockbench 4.8.3 glTF exporter"},"scenes":[{"nodes":[8],"name":"blockbench_export"}],"scene":0,"nodes":[{"translation":[-0.375,-0.6875,0],"name":"LeftHand"},{"translation":[0.875,1.1875,0.5],"name":"L","children":[0]},{"translation":[0.375,-0.6875,0],"name":"RightHand"},{"translation":[0.125,1.1875,0.5],"name":"R1","children":[2]},{"translation":[0.5,0.5,0.5],"name":"ppk20_bolt"},{"translation":[0.5,0.5,0.5],"name":"ppk20_standard_magazine"},{"name":"GUN","children":[4,5]},{"name":"R","children":[3,6]},{"children":[1,7]}],"animations":[{"name":"draw","samplers":[{"input":0,"output":1,"interpolation":"LINEAR"},{"input":2,"output":3,"interpolation":"LINEAR"},{"input":4,"output":5,"interpolation":"LINEAR"},{"input":6,"output":7,"interpolation":"LINEAR"},{"input":8,"output":9,"interpolation":"LINEAR"},{"input":10,"output":11,"interpolation":"LINEAR"},{"input":12,"output":13,"interpolation":"LINEAR"}],"channels":[{"sampler":0,"target":{"node":1,"path":"translation"}},{"sampler":1,"target":{"node":0,"path":"rotation"}},{"sampler":2,"target":{"node":0,"path":"translation"}},{"sampler":3,"target":{"node":2,"path":"rotation"}},{"sampler":4,"target":{"node":2,"path":"translation"}},{"sampler":5,"target":{"node":7,"path":"rotation"}},{"sampler":6,"target":{"node":7,"path":"translation"}}]}],"bufferViews":[{"buffer":0,"byteOffset":0,"byteLength":4},{"buffer":0,"byteOffset":4,"byteLength":12},{"buffer":0,"byteOffset":16,"byteLength":8},{"buffer":0,"byteOffset":24,"byteLength":32},{"buffer":0,"byteOffset":56,"byteLength":8},{"buffer":0,"byteOffset":64,"byteLength":24},{"buffer":0,"byteOffset":88,"byteLength":4},{"buffer":0,"byteOffset":92,"byteLength":16},{"buffer":0,"byteOffset":108,"byteLength":4},{"buffer":0,"byteOffset":112,"byteLength":12},{"buffer":0,"byteOffset":124,"byteLength":8},{"buffer":0,"byteOffset":132,"byteLength":32},{"buffer":0,"byteOffset":164,"byteLength":8},{"buffer":0,"byteOffset":172,"byteLength":24}],"buffers":[{"byteLength":196,"uri":"data:application/octet-stream;base64,"}],"accessors":[{"bufferView":0,"componentType":5126,"count":1,"max":[0],"min":[0],"type":"SCALAR"},{"bufferView":1,"componentType":5126,"count":1,"max":[0,1.1875,0.5],"min":[0,1.1875,0.5],"type":"VEC3"},{"bufferView":2,"componentType":5126,"count":2,"max":[0.4166666567325592],"min":[0],"type":"SCALAR"},{"bufferView":3,"componentType":5126,"count":2,"max":[-0.019140662625432014,0.7269401550292969,-0.5574669241905212,0.4005275070667267],"min":[-0.4511052668094635,0.4303201735019684,-0.7254281044006348,0.2916892468929291],"type":"VEC4"},{"bufferView":4,"componentType":5126,"count":2,"max":[0.4166666567325592],"min":[0],"type":"SCALAR"},{"bufferView":5,"componentType":5126,"count":2,"max":[0.384765625,-0.8203125,0.4951171875],"min":[0.3623046875,-0.9736328125,0.3583984375],"type":"VEC3"},{"bufferView":6,"componentType":5126,"count":1,"max":[0],"min":[0],"type":"SCALAR"},{"bufferView":7,"componentType":5126,"count":1,"max":[-0.09688383340835571,0.764674723148346,-0.6281642317771912,-0.10628172010183334],"min":[-0.09688383340835571,0.764674723148346,-0.6281642317771912,-0.10628172010183334],"type":"VEC4"},{"bufferView":8,"componentType":5126,"count":1,"max":[0],"min":[0],"type":"SCALAR"},{"bufferView":9,"componentType":5126,"count":1,"max":[0.234375,-1.01171875,1.2177734375],"min":[0.234375,-1.01171875,1.2177734375],"type":"VEC3"},{"bufferView":10,"componentType":5126,"count":2,"max":[0.4166666567325592],"min":[0],"type":"SCALAR"},{"bufferView":11,"componentType":5126,"count":2,"max":[0,0.18994393944740295,0.0680624321103096,1],"min":[-0.37044578790664673,0,0,0.9066745638847351],"type":"VEC4"},{"bufferView":12,"componentType":5126,"count":2,"max":[0.4166666567325592],"min":[0],"type":"SCALAR"},{"bufferView":13,"componentType":5126,"count":2,"max":[0,0,0.63671875],"min":[-0.0634765625,-0.91796875,0],"type":"VEC3"}]}