{"asset":{"version":"2.0","generator":"Blockbench 4.8.3 glTF exporter"},"scenes":[{"nodes":[11],"name":"blockbench_export"}],"scene":0,"nodes":[{"translation":[0.375,-0.6875,0],"name":"RightHand"},{"translation":[-0.375,0.7250000000000003,-0.25],"name":"R","children":[0]},{"translation":[0.029296875,0.18359375,0],"name":"slide"},{"translation":[0,0,-0.1875],"name":"qsz92_slide2","children":[2]},{"translation":[-0.5,-0.5,-0.6875],"name":"qsz92_body"},{"translation":[0.017578125,-0.0087890625,0.0361328125],"name":"qsz92_mag"},{"translation":[0,0.03750000000000031,-0.0625],"name":"qsz92","children":[3,4,5]},{"translation":[-0.0625,-0.03750000000000031,0.0625],"name":"bone","children":[1,6]},{"translation":[-0.375,-0.6875,0],"name":"LeftHand"},{"translation":[0.3125,0.6875,-0.1875],"name":"l","children":[8]},{"translation":[0.5625,0.5,0.6875],"name":"bone2","children":[7,9]},{"children":[10]}],"animations":[{"name":"reload_norm","samplers":[{"input":0,"output":1,"interpolation":"LINEAR"},{"input":2,"output":3,"interpolation":"LINEAR"},{"input":4,"output":5,"interpolation":"LINEAR"},{"input":6,"output":7,"interpolation":"LINEAR"},{"input":8,"output":9,"interpolation":"LINEAR"},{"input":10,"output":11,"interpolation":"LINEAR"},{"input":12,"output":13,"interpolation":"LINEAR"},{"input":14,"output":15,"interpolation":"LINEAR"},{"input":16,"output":17,"interpolation":"LINEAR"},{"input":18,"output":19,"interpolation":"LINEAR"},{"input":20,"output":21,"interpolation":"LINEAR"},{"input":22,"output":23,"interpolation":"LINEAR"},{"input":24,"output":25,"interpolation":"LINEAR"},{"input":26,"output":27,"interpolation":"LINEAR"}],"channels":[{"sampler":0,"target":{"node":10,"path":"rotation"}},{"sampler":1,"target":{"node":10,"path":"translation"}},{"sampler":2,"target":{"node":7,"path":"rotation"}},{"sampler":3,"target":{"node":7,"path":"translation"}},{"sampler":4,"target":{"node":1,"path":"rotation"}},{"sampler":5,"target":{"node":1,"path":"translation"}},{"sampler":6,"target":{"node":1,"path":"scale"}},{"sampler":7,"target":{"node":9,"path":"rotation"}},{"sampler":8,"target":{"node":9,"path":"translation"}},{"sampler":9,"target":{"node":9,"path":"scale"}},{"sampler":10,"target":{"node":6,"path":"rotation"}},{"sampler":11,"target":{"node":6,"path":"translation"}},{"sampler":12,"target":{"node":5,"path":"rotation"}},{"sampler":13,"target":{"node":5,"path":"translation"}}]}],"bufferViews":[{"buffer":0,"byteOffset":0,"byteLength":52},{"buffer":0,"byteOffset":52,"byteLength":208},{"buffer":0,"byteOffset":260,"byteLength":32},{"buffer":0,"byteOffset":292,"byteLength":96},{"buffer":0,"byteOffset":388,"byteLength":72},{"buffer":0,"byteOffset":460,"byteLength":288},{"buffer":0,"byteOffset":748,"byteLength":56},{"buffer":0,"byteOffset":804,"byteLength":168},{"buffer":0,"byteOffset":972,"byteLength":64},{"buffer":0,"byteOffset":1036,"byteLength":256},{"buffer":0,"byteOffset":1292,"byteLength":12},{"buffer":0,"byteOffset":1304,"byteLength":36},{"buffer":0,"byteOffset":1340,"byteLength":4},{"buffer":0,"byteOffset":1344,"byteLength":12},{"buffer":0,"byteOffset":1356,"byteLength":40},{"buffer":0,"byteOffset":1396,"byteLength":160},{"buffer":0,"byteOffset":1556,"byteLength":32},{"buffer":0,"byteOffset":1588,"byteLength":96},{"buffer":0,"byteOffset":1684,"byteLength":4},{"buffer":0,"byteOffset":1688,"byteLength":12},{"buffer":0,"byteOffset":1700,"byteLength":76},{"buffer":0,"byteOffset":1776,"byteLength":304},{"buffer":0,"byteOffset":2080,"byteLength":12},{"buffer":0,"byteOffset":2092,"byteLength":36},{"buffer":0,"byteOffset":2128,"byteLength":24},{"buffer":0,"byteOffset":2152,"byteLength":96},{"buffer":0,"byteOffset":2248,"byteLength":24},{"buffer":0,"byteOffset":2272,"byteLength":72}],"buffers":[{"byteLength":2344,"uri":"data:application/octet-stream;base64,"}],"accessors":[{"bufferView":0,"componentType":5126,"count":13,"max":[1.8333333730697632],"min":[0],"type":"SCALAR"},{"bufferView":1,"componentType":5126,"count":13,"max":[0.025129036977887154,0.03407926484942436,0.004661753308027983,1],"min":[-0.019480258226394653,-0.017443062737584114,-0.03366997092962265,0.9985676407814026],"type":"VEC4"},{"bufferView":2,"componentType":5126,"count":8,"max":[1.8333333730697632],"min":[0],"type":"SCALAR"},{"bufferView":3,"componentType":5126,"count":8,"max":[0.580078125,0.5,0.7554296851158142],"min":[0.5428906083106995,0.44140625,0.6875],"type":"VEC3"},{"bufferView":4,"componentType":5126,"count":18,"max":[1.8333333730697632],"min":[0],"type":"SCALAR"},{"bufferView":5,"componentType":5126,"count":18,"max":[0.24434010684490204,0.23527517914772034,0.5540614128112793,1],"min":[-0.47748175263404846,-0.3001537024974823,-0.22796544432640076,0.658801794052124],"type":"VEC4"},{"bufferView":6,"componentType":5126,"count":14,"max":[1.6666666269302368],"min":[0],"type":"SCALAR"},{"bufferView":7,"componentType":5126,"count":14,"max":[0.3651171922683716,0.3746093809604645,0.25566405057907104],"min":[-0.641796886920929,-0.3794531226158142,0.0625],"type":"VEC3"},{"bufferView":8,"componentType":5126,"count":16,"max":[1.6666666269302368],"min":[0],"type":"SCALAR"},{"bufferView":9,"componentType":5126,"count":16,"max":[0.14261573553085327,0.9000574350357056,-0.3874538242816925,0.16511116921901703],"min":[-0.0886843279004097,0.719891369342804,-0.6877304911613464,0.023857537657022476],"type":"VEC4"},{"bufferView":10,"componentType":5126,"count":3,"max":[1.6666666269302368],"min":[0],"type":"SCALAR"},{"bufferView":11,"componentType":5126,"count":3,"max":[0.068359375,-0.13437500596046448,-0.08874999731779099],"min":[0.06812500208616257,-0.13437500596046448,-0.0888671875],"type":"VEC3"},{"bufferView":12,"componentType":5126,"count":1,"max":[0],"min":[0],"type":"SCALAR"},{"bufferView":13,"componentType":5126,"count":1,"max":[1.75,2,1.75],"min":[1.75,2,1.75],"type":"VEC3"},{"bufferView":14,"componentType":5126,"count":10,"max":[1.8333333730697632],"min":[0],"type":"SCALAR"},{"bufferView":15,"componentType":5126,"count":10,"max":[-0.06416820734739304,0.6795459389686584,-0.5927414298057556,0.4467278718948364],"min":[-0.13043850660324097,0.5031546950340271,-0.8417279720306396,0.1793527901172638],"type":"VEC4"},{"bufferView":16,"componentType":5126,"count":8,"max":[1.6666666269302368],"min":[0],"type":"SCALAR"},{"bufferView":17,"componentType":5126,"count":8,"max":[-0.1552734375,-0.345703125,0.16484375298023224],"min":[-0.6668750047683716,-0.8846874833106995,-0.0625],"type":"VEC3"},{"bufferView":18,"componentType":5126,"count":1,"max":[0],"min":[0],"type":"SCALAR"},{"bufferView":19,"componentType":5126,"count":1,"max":[1.75,2,1.75],"min":[1.75,2,1.75],"type":"VEC3"},{"bufferView":20,"componentType":5126,"count":19,"max":[1.8333333730697632],"min":[0],"type":"SCALAR"},{"bufferView":21,"componentType":5126,"count":19,"max":[0.22005227208137512,0.11235365271568298,0.12042112648487091,1],"min":[-0.03489949554204941,-0.21941381692886353,-0.05015716329216957,0.9490282535552979],"type":"VEC4"},{"bufferView":22,"componentType":5126,"count":3,"max":[1.6666666269302368],"min":[0],"type":"SCALAR"},{"bufferView":23,"componentType":5126,"count":3,"max":[0,0.03750000149011612,-0.0625],"min":[0,0.03750000149011612,-0.0625],"type":"VEC3"},{"bufferView":24,"componentType":5126,"count":6,"max":[1.3333333730697632],"min":[0.25],"type":"SCALAR"},{"bufferView":25,"componentType":5126,"count":6,"max":[0,0.0007337918505072594,0.5318595170974731,1],"min":[-0.09790709614753723,-0.12613612413406372,-0.27841803431510925,0.8447167277336121],"type":"VEC4"},{"bufferView":26,"componentType":5126,"count":6,"max":[1.3333333730697632],"min":[0.25],"type":"SCALAR"},{"bufferView":27,"componentType":5126,"count":6,"max":[0.5615234375,0.1787109375,0.333984375],"min":[-0.357421875,-1.2255859375,-0.2138671875],"type":"VEC3"}]}