{"asset":{"version":"2.0","generator":"Blockbench 4.8.3 glTF exporter"},"scenes":[{"nodes":[11],"name":"blockbench_export"}],"scene":0,"nodes":[{"translation":[0.375,-0.6875,0],"name":"RightHand"},{"translation":[-0.375,0.7250000000000003,-0.25],"name":"R","children":[0]},{"translation":[0.029296875,0.18359375,0],"name":"slide"},{"translation":[0,0,-0.1875],"name":"qsz92_slide2","children":[2]},{"translation":[-0.5,-0.5,-0.6875],"name":"qsz92_body"},{"translation":[0.017578125,-0.0087890625,0.0361328125],"name":"qsz92_mag"},{"translation":[0,0.03750000000000031,-0.0625],"name":"qsz92","children":[3,4,5]},{"translation":[-0.0625,-0.03750000000000031,0.0625],"name":"bone","children":[1,6]},{"translation":[-0.375,-0.6875,0],"name":"LeftHand"},{"translation":[0.3125,0.6875,-0.1875],"name":"l","children":[8]},{"translation":[0.5625,0.5,0.6875],"name":"bone2","children":[7,9]},{"children":[10]}],"animations":[{"name":"inspect","samplers":[{"input":0,"output":1,"interpolation":"LINEAR"},{"input":2,"output":3,"interpolation":"LINEAR"},{"input":4,"output":5,"interpolation":"LINEAR"},{"input":6,"output":7,"interpolation":"LINEAR"},{"input":8,"output":9,"interpolation":"LINEAR"},{"input":10,"output":11,"interpolation":"LINEAR"},{"input":12,"output":13,"interpolation":"LINEAR"},{"input":14,"output":15,"interpolation":"LINEAR"},{"input":16,"output":17,"interpolation":"LINEAR"},{"input":18,"output":19,"interpolation":"LINEAR"},{"input":20,"output":21,"interpolation":"LINEAR"},{"input":22,"output":23,"interpolation":"LINEAR"}],"channels":[{"sampler":0,"target":{"node":10,"path":"rotation"}},{"sampler":1,"target":{"node":10,"path":"translation"}},{"sampler":2,"target":{"node":7,"path":"rotation"}},{"sampler":3,"target":{"node":7,"path":"translation"}},{"sampler":4,"target":{"node":1,"path":"rotation"}},{"sampler":5,"target":{"node":1,"path":"translation"}},{"sampler":6,"target":{"node":1,"path":"scale"}},{"sampler":7,"target":{"node":9,"path":"rotation"}},{"sampler":8,"target":{"node":9,"path":"translation"}},{"sampler":9,"target":{"node":9,"path":"scale"}},{"sampler":10,"target":{"node":6,"path":"rotation"}},{"sampler":11,"target":{"node":6,"path":"translation"}}]}],"bufferViews":[{"buffer":0,"byteOffset":0,"byteLength":48},{"buffer":0,"byteOffset":48,"byteLength":192},{"buffer":0,"byteOffset":240,"byteLength":28},{"buffer":0,"byteOffset":268,"byteLength":84},{"buffer":0,"byteOffset":352,"byteLength":100},{"buffer":0,"byteOffset":452,"byteLength":400},{"buffer":0,"byteOffset":852,"byteLength":76},{"buffer":0,"byteOffset":928,"byteLength":228},{"buffer":0,"byteOffset":1156,"byteLength":80},{"buffer":0,"byteOffset":1236,"byteLength":320},{"buffer":0,"byteOffset":1556,"byteLength":36},{"buffer":0,"byteOffset":1592,"byteLength":108},{"buffer":0,"byteOffset":1700,"byteLength":4},{"buffer":0,"byteOffset":1704,"byteLength":12},{"buffer":0,"byteOffset":1716,"byteLength":16},{"buffer":0,"byteOffset":1732,"byteLength":64},{"buffer":0,"byteOffset":1796,"byteLength":16},{"buffer":0,"byteOffset":1812,"byteLength":48},{"buffer":0,"byteOffset":1860,"byteLength":4},{"buffer":0,"byteOffset":1864,"byteLength":12},{"buffer":0,"byteOffset":1876,"byteLength":56},{"buffer":0,"byteOffset":1932,"byteLength":224},{"buffer":0,"byteOffset":2156,"byteLength":28},{"buffer":0,"byteOffset":2184,"byteLength":84}],"buffers":[{"byteLength":2268,"uri":"data:application/octet-stream;base64,"}],"accessors":[{"bufferView":0,"componentType":5126,"count":12,"max":[3.0416667461395264],"min":[0],"type":"SCALAR"},{"bufferView":1,"componentType":5126,"count":12,"max":[0.03211253508925438,0.035897232592105865,0.12024583667516708,1],"min":[0,-0.0297758337110281,0,0.9924044609069824],"type":"VEC4"},{"bufferView":2,"componentType":5126,"count":7,"max":[3.0416667461395264],"min":[0],"type":"SCALAR"},{"bufferView":3,"componentType":5126,"count":7,"max":[0.5625,0.5274999737739563,0.705078125],"min":[0.45500001311302185,0.5,0.6630077958106995],"type":"VEC3"},{"bufferView":4,"componentType":5126,"count":25,"max":[2.9166667461395264],"min":[0],"type":"SCALAR"},{"bufferView":5,"componentType":5126,"count":25,"max":[0.2748490571975708,0.3432040512561798,0.27046701312065125,1],"min":[-0.262113481760025,-0.02830136939883232,-0.2593993544578552,0.8983818292617798],"type":"VEC4"},{"bufferView":6,"componentType":5126,"count":19,"max":[2.9166667461395264],"min":[0],"type":"SCALAR"},{"bufferView":7,"componentType":5126,"count":19,"max":[0.125,0.6499999761581421,0.82421875],"min":[-0.13671875,-0.150390625,-0.0361328125],"type":"VEC3"},{"bufferView":8,"componentType":5126,"count":20,"max":[3.0416667461395264],"min":[0],"type":"SCALAR"},{"bufferView":9,"componentType":5126,"count":20,"max":[0.05661929398775101,0.804780125617981,-0.5861278176307678,0.16680581867694855],"min":[-0.25845402479171753,0.593591034412384,-0.7550620436668396,-0.10360940545797348],"type":"VEC4"},{"bufferView":10,"componentType":5126,"count":9,"max":[3.0416667461395264],"min":[0],"type":"SCALAR"},{"bufferView":11,"componentType":5126,"count":9,"max":[0.5534765720367432,-0.13437500596046448,0.07898437231779099],"min":[-0.3321875035762787,-0.48500001430511475,-0.10242187231779099],"type":"VEC3"},{"bufferView":12,"componentType":5126,"count":1,"max":[0],"min":[0],"type":"SCALAR"},{"bufferView":13,"componentType":5126,"count":1,"max":[1.75,2,1.75],"min":[1.75,2,1.75],"type":"VEC3"},{"bufferView":14,"componentType":5126,"count":4,"max":[2.9583332538604736],"min":[0],"type":"SCALAR"},{"bufferView":15,"componentType":5126,"count":4,"max":[0.07746634632349014,0.6762453317642212,-0.6189349889755249,0.39258095622062683],"min":[-0.07410755008459091,0.3105936348438263,-0.9155852198600769,0.24338102340698242],"type":"VEC4"},{"bufferView":16,"componentType":5126,"count":4,"max":[2.9583332538604736],"min":[0],"type":"SCALAR"},{"bufferView":17,"componentType":5126,"count":4,"max":[-0.1552734375,-0.345703125,1.0625],"min":[-0.2800000011920929,-0.7831249833106995,-0.0625],"type":"VEC3"},{"bufferView":18,"componentType":5126,"count":1,"max":[0],"min":[0],"type":"SCALAR"},{"bufferView":19,"componentType":5126,"count":1,"max":[1.75,2,1.75],"min":[1.75,2,1.75],"type":"VEC3"},{"bufferView":20,"componentType":5126,"count":14,"max":[2.875],"min":[0.0416666679084301],"type":"SCALAR"},{"bufferView":21,"componentType":5126,"count":14,"max":[0.8728597164154053,0.37130656838417053,0.1911853700876236,1],"min":[-0.10911929607391357,-0.032456494867801666,-0.006230724044144154,-0.9967342019081116],"type":"VEC4"},{"bufferView":22,"componentType":5126,"count":7,"max":[2.4583332538604736],"min":[0.0416666679084301],"type":"SCALAR"},{"bufferView":23,"componentType":5126,"count":7,"max":[0,0.5843750238418579,0.0458984375],"min":[-0.455078125,-0.22750000655651093,-0.279296875],"type":"VEC3"}]}