{"asset":{"version":"2.0","generator":"Blockbench 4.8.3 glTF exporter"},"scenes":[{"nodes":[11],"name":"blockbench_export"}],"scene":0,"nodes":[{"translation":[0.375,-0.6875,0],"name":"RightHand"},{"translation":[-0.375,0.7250000000000003,-0.25],"name":"R","children":[0]},{"translation":[0.029296875,0.18359375,0],"name":"slide"},{"translation":[0,0,-0.1875],"name":"qsz92_slide2","children":[2]},{"translation":[-0.5,-0.5,-0.6875],"name":"qsz92_body"},{"translation":[0.017578125,-0.0087890625,0.0361328125],"name":"qsz92_mag"},{"translation":[0,0.03750000000000031,-0.0625],"name":"qsz92","children":[3,4,5]},{"translation":[-0.0625,-0.03750000000000031,0.0625],"name":"bone","children":[1,6]},{"translation":[-0.375,-0.6875,0],"name":"LeftHand"},{"translation":[0.3125,0.6875,-0.1875],"name":"l","children":[8]},{"translation":[0.5625,0.5,0.6875],"name":"bone2","children":[7,9]},{"children":[10]}],"animations":[{"name":"draw","samplers":[{"input":0,"output":1,"interpolation":"LINEAR"},{"input":2,"output":3,"interpolation":"LINEAR"},{"input":4,"output":5,"interpolation":"LINEAR"},{"input":6,"output":7,"interpolation":"LINEAR"},{"input":8,"output":9,"interpolation":"LINEAR"},{"input":10,"output":11,"interpolation":"LINEAR"},{"input":12,"output":13,"interpolation":"LINEAR"},{"input":14,"output":15,"interpolation":"LINEAR"},{"input":16,"output":17,"interpolation":"LINEAR"},{"input":18,"output":19,"interpolation":"LINEAR"},{"input":20,"output":21,"interpolation":"LINEAR"},{"input":22,"output":23,"interpolation":"LINEAR"}],"channels":[{"sampler":0,"target":{"node":10,"path":"rotation"}},{"sampler":1,"target":{"node":10,"path":"translation"}},{"sampler":2,"target":{"node":7,"path":"rotation"}},{"sampler":3,"target":{"node":7,"path":"translation"}},{"sampler":4,"target":{"node":1,"path":"rotation"}},{"sampler":5,"target":{"node":1,"path":"translation"}},{"sampler":6,"target":{"node":1,"path":"scale"}},{"sampler":7,"target":{"node":9,"path":"rotation"}},{"sampler":8,"target":{"node":9,"path":"translation"}},{"sampler":9,"target":{"node":9,"path":"scale"}},{"sampler":10,"target":{"node":6,"path":"rotation"}},{"sampler":11,"target":{"node":6,"path":"translation"}}]}],"bufferViews":[{"buffer":0,"byteOffset":0,"byteLength":32},{"buffer":0,"byteOffset":32,"byteLength":128},{"buffer":0,"byteOffset":160,"byteLength":28},{"buffer":0,"byteOffset":188,"byteLength":84},{"buffer":0,"byteOffset":272,"byteLength":32},{"buffer":0,"byteOffset":304,"byteLength":128},{"buffer":0,"byteOffset":432,"byteLength":32},{"buffer":0,"byteOffset":464,"byteLength":96},{"buffer":0,"byteOffset":560,"byteLength":28},{"buffer":0,"byteOffset":588,"byteLength":112},{"buffer":0,"byteOffset":700,"byteLength":28},{"buffer":0,"byteOffset":728,"byteLength":84},{"buffer":0,"byteOffset":812,"byteLength":4},{"buffer":0,"byteOffset":816,"byteLength":12},{"buffer":0,"byteOffset":828,"byteLength":20},{"buffer":0,"byteOffset":848,"byteLength":80},{"buffer":0,"byteOffset":928,"byteLength":20},{"buffer":0,"byteOffset":948,"byteLength":60},{"buffer":0,"byteOffset":1008,"byteLength":4},{"buffer":0,"byteOffset":1012,"byteLength":12},{"buffer":0,"byteOffset":1024,"byteLength":24},{"buffer":0,"byteOffset":1048,"byteLength":96},{"buffer":0,"byteOffset":1144,"byteLength":20},{"buffer":0,"byteOffset":1164,"byteLength":60}],"buffers":[{"byteLength":1224,"uri":"data:application/octet-stream;base64,"}],"accessors":[{"bufferView":0,"componentType":5126,"count":8,"max":[0.9583333134651184],"min":[0],"type":"SCALAR"},{"bufferView":1,"componentType":5126,"count":8,"max":[0.05818194895982742,0.035897232592105865,0.09394381195306778,1],"min":[-0.0010839259484782815,-0.06843070685863495,-0.04873303323984146,0.9947648644447327],"type":"VEC4"},{"bufferView":2,"componentType":5126,"count":7,"max":[0.875],"min":[0],"type":"SCALAR"},{"bufferView":3,"componentType":5126,"count":7,"max":[0.5625,0.5537890791893005,0.705078125],"min":[0.45500001311302185,0.5,0.6630077958106995],"type":"VEC3"},{"bufferView":4,"componentType":5126,"count":8,"max":[0.875],"min":[0],"type":"SCALAR"},{"bufferView":5,"componentType":5126,"count":8,"max":[0.2748490571975708,0.17565976083278656,0.15677066147327423,1],"min":[-0.5187732577323914,-0.02830136939883232,-0.0957537442445755,0.8549118638038635],"type":"VEC4"},{"bufferView":6,"componentType":5126,"count":8,"max":[0.875],"min":[0],"type":"SCALAR"},{"bufferView":7,"componentType":5126,"count":8,"max":[0.125,0.6499999761581421,0.82421875],"min":[-0.13671875,-0.7875000238418579,-0.0361328125],"type":"VEC3"},{"bufferView":8,"componentType":5126,"count":7,"max":[0.9583333134651184],"min":[0],"type":"SCALAR"},{"bufferView":9,"componentType":5126,"count":7,"max":[0.05661929398775101,0.7231201529502869,-0.6678826808929443,0.16680581867694855],"min":[-0.25845402479171753,0.593591034412384,-0.7550620436668396,-0.10360940545797348],"type":"VEC4"},{"bufferView":10,"componentType":5126,"count":7,"max":[0.9583333134651184],"min":[0],"type":"SCALAR"},{"bufferView":11,"componentType":5126,"count":7,"max":[0.5534765720367432,-0.13437500596046448,0.07898437231779099],"min":[-0.3321875035762787,-0.48500001430511475,-0.10242187231779099],"type":"VEC3"},{"bufferView":12,"componentType":5126,"count":1,"max":[0],"min":[0],"type":"SCALAR"},{"bufferView":13,"componentType":5126,"count":1,"max":[1.75,2,1.75],"min":[1.75,2,1.75],"type":"VEC3"},{"bufferView":14,"componentType":5126,"count":5,"max":[0.9583333134651184],"min":[0],"type":"SCALAR"},{"bufferView":15,"componentType":5126,"count":5,"max":[0.07750944793224335,0.6826764345169067,-0.5909320712089539,0.4285041093826294],"min":[-0.07972919195890427,0.3105873465538025,-0.9155852198600769,0.24338102340698242],"type":"VEC4"},{"bufferView":16,"componentType":5126,"count":5,"max":[0.9583333134651184],"min":[0],"type":"SCALAR"},{"bufferView":17,"componentType":5126,"count":5,"max":[-0.1552734375,-0.2890625,1.0625],"min":[-0.2802734375,-0.783203125,-0.0625],"type":"VEC3"},{"bufferView":18,"componentType":5126,"count":1,"max":[0],"min":[0],"type":"SCALAR"},{"bufferView":19,"componentType":5126,"count":1,"max":[1.75,2,1.75],"min":[1.75,2,1.75],"type":"VEC3"},{"bufferView":20,"componentType":5126,"count":6,"max":[0.7916666865348816],"min":[0.0833333358168602],"type":"SCALAR"},{"bufferView":21,"componentType":5126,"count":6,"max":[0,0.37130656838417053,0.1911853700876236,1],"min":[-0.10911929607391357,0,0,0.9047220945358276],"type":"VEC4"},{"bufferView":22,"componentType":5126,"count":5,"max":[0.7916666865348816],"min":[0.0833333358168602],"type":"SCALAR"},{"bufferView":23,"componentType":5126,"count":5,"max":[0,0.5843750238418579,0.0458984375],"min":[-0.455078125,-0.22750000655651093,-0.279296875],"type":"VEC3"}]}