{"asset":{"version":"2.0","generator":"Blockbench 4.8.3 glTF exporter"},"scenes":[{"nodes":[11],"name":"blockbench_export"}],"scene":0,"nodes":[{"translation":[0.375,-0.6875,0],"name":"RightHand"},{"translation":[-0.375,0.7250000000000003,-0.25],"name":"R","children":[0]},{"translation":[0.029296875,0.18359375,0],"name":"slide"},{"translation":[0,0,-0.1875],"name":"qsz92_slide2","children":[2]},{"translation":[-0.5,-0.5,-0.6875],"name":"qsz92_body"},{"translation":[0.017578125,-0.0087890625,0.0361328125],"name":"qsz92_mag"},{"translation":[0,0.03750000000000031,-0.0625],"name":"qsz92","children":[3,4,5]},{"translation":[-0.0625,-0.03750000000000031,0.0625],"name":"bone","children":[1,6]},{"translation":[-0.375,-0.6875,0],"name":"LeftHand"},{"translation":[0.3125,0.6875,-0.1875],"name":"l","children":[8]},{"translation":[0.5625,0.5,0.6875],"name":"bone2","children":[7,9]},{"children":[10]}],"animations":[{"name":"reload_empty","samplers":[{"input":0,"output":1,"interpolation":"LINEAR"},{"input":2,"output":3,"interpolation":"LINEAR"},{"input":4,"output":5,"interpolation":"LINEAR"},{"input":6,"output":7,"interpolation":"LINEAR"},{"input":8,"output":9,"interpolation":"LINEAR"},{"input":10,"output":11,"interpolation":"LINEAR"},{"input":12,"output":13,"interpolation":"LINEAR"},{"input":14,"output":15,"interpolation":"LINEAR"},{"input":16,"output":17,"interpolation":"LINEAR"},{"input":18,"output":19,"interpolation":"LINEAR"},{"input":20,"output":21,"interpolation":"LINEAR"},{"input":22,"output":23,"interpolation":"LINEAR"},{"input":24,"output":25,"interpolation":"LINEAR"},{"input":26,"output":27,"interpolation":"LINEAR"},{"input":28,"output":29,"interpolation":"LINEAR"},{"input":30,"output":31,"interpolation":"LINEAR"}],"channels":[{"sampler":0,"target":{"node":10,"path":"rotation"}},{"sampler":1,"target":{"node":10,"path":"translation"}},{"sampler":2,"target":{"node":7,"path":"rotation"}},{"sampler":3,"target":{"node":7,"path":"translation"}},{"sampler":4,"target":{"node":1,"path":"rotation"}},{"sampler":5,"target":{"node":1,"path":"translation"}},{"sampler":6,"target":{"node":1,"path":"scale"}},{"sampler":7,"target":{"node":9,"path":"rotation"}},{"sampler":8,"target":{"node":9,"path":"translation"}},{"sampler":9,"target":{"node":9,"path":"scale"}},{"sampler":10,"target":{"node":6,"path":"rotation"}},{"sampler":11,"target":{"node":6,"path":"translation"}},{"sampler":12,"target":{"node":2,"path":"rotation"}},{"sampler":13,"target":{"node":2,"path":"translation"}},{"sampler":14,"target":{"node":5,"path":"rotation"}},{"sampler":15,"target":{"node":5,"path":"translation"}}]}],"bufferViews":[{"buffer":0,"byteOffset":0,"byteLength":72},{"buffer":0,"byteOffset":72,"byteLength":288},{"buffer":0,"byteOffset":360,"byteLength":4},{"buffer":0,"byteOffset":364,"byteLength":12},{"buffer":0,"byteOffset":376,"byteLength":84},{"buffer":0,"byteOffset":460,"byteLength":336},{"buffer":0,"byteOffset":796,"byteLength":76},{"buffer":0,"byteOffset":872,"byteLength":228},{"buffer":0,"byteOffset":1100,"byteLength":72},{"buffer":0,"byteOffset":1172,"byteLength":288},{"buffer":0,"byteOffset":1460,"byteLength":16},{"buffer":0,"byteOffset":1476,"byteLength":48},{"buffer":0,"byteOffset":1524,"byteLength":4},{"buffer":0,"byteOffset":1528,"byteLength":12},{"buffer":0,"byteOffset":1540,"byteLength":52},{"buffer":0,"byteOffset":1592,"byteLength":208},{"buffer":0,"byteOffset":1800,"byteLength":52},{"buffer":0,"byteOffset":1852,"byteLength":156},{"buffer":0,"byteOffset":2008,"byteLength":4},{"buffer":0,"byteOffset":2012,"byteLength":12},{"buffer":0,"byteOffset":2024,"byteLength":60},{"buffer":0,"byteOffset":2084,"byteLength":240},{"buffer":0,"byteOffset":2324,"byteLength":32},{"buffer":0,"byteOffset":2356,"byteLength":96},{"buffer":0,"byteOffset":2452,"byteLength":8},{"buffer":0,"byteOffset":2460,"byteLength":32},{"buffer":0,"byteOffset":2492,"byteLength":12},{"buffer":0,"byteOffset":2504,"byteLength":36},{"buffer":0,"byteOffset":2540,"byteLength":20},{"buffer":0,"byteOffset":2560,"byteLength":80},{"buffer":0,"byteOffset":2640,"byteLength":24},{"buffer":0,"byteOffset":2664,"byteLength":72}],"buffers":[{"byteLength":2736,"uri":"data:application/octet-stream;base64,"}],"accessors":[{"bufferView":0,"componentType":5126,"count":18,"max":[2.125],"min":[0],"type":"SCALAR"},{"bufferView":1,"componentType":5126,"count":18,"max":[0.08207494020462036,0.04356915503740311,0.06325012445449829,1],"min":[-0.017647473141551018,-0.05516600236296654,-0.05448777228593826,0.9949408769607544],"type":"VEC4"},{"bufferView":2,"componentType":5126,"count":1,"max":[0],"min":[0],"type":"SCALAR"},{"bufferView":3,"componentType":5126,"count":1,"max":[0.5625,0.5,0.6875],"min":[0.5625,0.5,0.6875],"type":"VEC3"},{"bufferView":4,"componentType":5126,"count":21,"max":[2.125],"min":[0],"type":"SCALAR"},{"bufferView":5,"componentType":5126,"count":21,"max":[0.24417497217655182,0.18475554883480072,0.060990434139966965,1],"min":[-0.0967593565583229,-0.03467223048210144,-0.47991621494293213,0.8443877696990967],"type":"VEC4"},{"bufferView":6,"componentType":5126,"count":19,"max":[2.125],"min":[0],"type":"SCALAR"},{"bufferView":7,"componentType":5126,"count":19,"max":[0.193359375,0.16703124344348907,0.115234375],"min":[-0.08812499791383743,-0.16914062201976776,-0.2903124988079071],"type":"VEC3"},{"bufferView":8,"componentType":5126,"count":18,"max":[2.125],"min":[0.125],"type":"SCALAR"},{"bufferView":9,"componentType":5126,"count":18,"max":[-0.01197101827710867,0.7611087560653687,-0.6423231363296509,0.030784109607338905],"min":[-0.12448637187480927,0.6951552033424377,-0.7143794298171997,-0.07742062211036682],"type":"VEC4"},{"bufferView":10,"componentType":5126,"count":4,"max":[1.9583333730697632],"min":[0.125],"type":"SCALAR"},{"bufferView":11,"componentType":5126,"count":4,"max":[0.068359375,0.00917968712747097,-0.056523438543081284],"min":[-0.15746094286441803,-0.13437500596046448,-0.0888671875],"type":"VEC3"},{"bufferView":12,"componentType":5126,"count":1,"max":[0.125],"min":[0.125],"type":"SCALAR"},{"bufferView":13,"componentType":5126,"count":1,"max":[1.75,2,1.75],"min":[1.75,2,1.75],"type":"VEC3"},{"bufferView":14,"componentType":5126,"count":13,"max":[2.125],"min":[0],"type":"SCALAR"},{"bufferView":15,"componentType":5126,"count":13,"max":[0.003558938391506672,0.9101990461349487,-0.3605645000934601,0.4173859655857086],"min":[-0.30681756138801575,0.5376109480857849,-0.7709740996360779,0.0713069885969162],"type":"VEC4"},{"bufferView":16,"componentType":5126,"count":13,"max":[2.125],"min":[0],"type":"SCALAR"},{"bufferView":17,"componentType":5126,"count":13,"max":[-0.1552734375,-0.16500000655651093,0.1368750035762787],"min":[-1.4247655868530273,-0.9150000214576721,-0.20695312321186066],"type":"VEC3"},{"bufferView":18,"componentType":5126,"count":1,"max":[0],"min":[0],"type":"SCALAR"},{"bufferView":19,"componentType":5126,"count":1,"max":[1.75,2,1.75],"min":[1.75,2,1.75],"type":"VEC3"},{"bufferView":20,"componentType":5126,"count":15,"max":[2.125],"min":[0],"type":"SCALAR"},{"bufferView":21,"componentType":5126,"count":15,"max":[0.8911994099617004,0.09136977046728134,0.12450388073921204,1],"min":[-0.24425247311592102,-0.01134935300797224,-0.05882655456662178,-1],"type":"VEC4"},{"bufferView":22,"componentType":5126,"count":8,"max":[2.125],"min":[0],"type":"SCALAR"},{"bufferView":23,"componentType":5126,"count":8,"max":[0,0.21546874940395355,0.008124999701976776],"min":[-0.392578125,0.0006249999860301614,-0.0625],"type":"VEC3"},{"bufferView":24,"componentType":5126,"count":2,"max":[1.6666666269302368],"min":[0],"type":"SCALAR"},{"bufferView":25,"componentType":5126,"count":2,"max":[0,0,0,1],"min":[0,0,0,1],"type":"VEC4"},{"bufferView":26,"componentType":5126,"count":3,"max":[1.75],"min":[0],"type":"SCALAR"},{"bufferView":27,"componentType":5126,"count":3,"max":[0.029296875,0.18359375,0.1875],"min":[0.029296875,0.18359375,0],"type":"VEC3"},{"bufferView":28,"componentType":5126,"count":5,"max":[1.125],"min":[0.5833333134651184],"type":"SCALAR"},{"bufferView":29,"componentType":5126,"count":5,"max":[0.06913086771965027,0.17163629829883575,0,1],"min":[0,0,-0.21080522239208221,0.9607958793640137],"type":"VEC4"},{"bufferView":30,"componentType":5126,"count":6,"max":[1.125],"min":[0.5833333134651184],"type":"SCALAR"},{"bufferView":31,"componentType":5126,"count":6,"max":[0.017578125,-0.0087890625,0.08203125],"min":[-0.2775000035762787,-0.9267578125,-0.0969531238079071],"type":"VEC3"}]}