{"asset":{"version":"2.0","generator":"Blockbench 4.8.3 glTF exporter"},"scenes":[{"nodes":[11],"name":"blockbench_export"}],"scene":0,"nodes":[{"translation":[0.375,-0.6875,0],"name":"RightHand"},{"translation":[-0.375,0.7250000000000003,-0.25],"name":"R","children":[0]},{"translation":[0.029296875,0.18359375,0],"name":"slide"},{"translation":[0,0,-0.1875],"name":"qsz92_slide2","children":[2]},{"translation":[-0.5,-0.5,-0.6875],"name":"qsz92_body"},{"translation":[0.017578125,-0.0087890625,0.0361328125],"name":"qsz92_mag"},{"translation":[0,0.03750000000000031,-0.0625],"name":"qsz92","children":[3,4,5]},{"translation":[-0.0625,-0.03750000000000031,0.0625],"name":"bone","children":[1,6]},{"translation":[-0.375,-0.6875,0],"name":"LeftHand"},{"translation":[0.3125,0.6875,-0.1875],"name":"l","children":[8]},{"translation":[0.5625,0.5,0.6875],"name":"bone2","children":[7,9]},{"children":[10]}],"animations":[{"name":"static_state","samplers":[{"input":0,"output":1,"interpolation":"LINEAR"},{"input":2,"output":3,"interpolation":"LINEAR"},{"input":4,"output":5,"interpolation":"LINEAR"},{"input":6,"output":7,"interpolation":"LINEAR"},{"input":8,"output":9,"interpolation":"LINEAR"},{"input":10,"output":11,"interpolation":"LINEAR"},{"input":12,"output":13,"interpolation":"LINEAR"},{"input":14,"output":15,"interpolation":"LINEAR"},{"input":16,"output":17,"interpolation":"LINEAR"},{"input":18,"output":19,"interpolation":"LINEAR"}],"channels":[{"sampler":0,"target":{"node":10,"path":"rotation"}},{"sampler":1,"target":{"node":10,"path":"translation"}},{"sampler":2,"target":{"node":7,"path":"rotation"}},{"sampler":3,"target":{"node":7,"path":"translation"}},{"sampler":4,"target":{"node":1,"path":"rotation"}},{"sampler":5,"target":{"node":1,"path":"translation"}},{"sampler":6,"target":{"node":1,"path":"scale"}},{"sampler":7,"target":{"node":9,"path":"rotation"}},{"sampler":8,"target":{"node":9,"path":"translation"}},{"sampler":9,"target":{"node":9,"path":"scale"}}]}],"bufferViews":[{"buffer":0,"byteOffset":0,"byteLength":4},{"buffer":0,"byteOffset":4,"byteLength":16},{"buffer":0,"byteOffset":20,"byteLength":4},{"buffer":0,"byteOffset":24,"byteLength":12},{"buffer":0,"byteOffset":36,"byteLength":4},{"buffer":0,"byteOffset":40,"byteLength":16},{"buffer":0,"byteOffset":56,"byteLength":4},{"buffer":0,"byteOffset":60,"byteLength":12},{"buffer":0,"byteOffset":72,"byteLength":4},{"buffer":0,"byteOffset":76,"byteLength":16},{"buffer":0,"byteOffset":92,"byteLength":4},{"buffer":0,"byteOffset":96,"byteLength":12},{"buffer":0,"byteOffset":108,"byteLength":4},{"buffer":0,"byteOffset":112,"byteLength":12},{"buffer":0,"byteOffset":124,"byteLength":4},{"buffer":0,"byteOffset":128,"byteLength":16},{"buffer":0,"byteOffset":144,"byteLength":4},{"buffer":0,"byteOffset":148,"byteLength":12},{"buffer":0,"byteOffset":160,"byteLength":4},{"buffer":0,"byteOffset":164,"byteLength":12}],"buffers":[{"byteLength":176,"uri":"data:application/octet-stream;base64,"}],"accessors":[{"bufferView":0,"componentType":5126,"count":1,"max":[0],"min":[0],"type":"SCALAR"},{"bufferView":1,"componentType":5126,"count":1,"max":[0,0,0,1],"min":[0,0,0,1],"type":"VEC4"},{"bufferView":2,"componentType":5126,"count":1,"max":[0],"min":[0],"type":"SCALAR"},{"bufferView":3,"componentType":5126,"count":1,"max":[0.5625,0.5,0.6875],"min":[0.5625,0.5,0.6875],"type":"VEC3"},{"bufferView":4,"componentType":5126,"count":1,"max":[0],"min":[0],"type":"SCALAR"},{"bufferView":5,"componentType":5126,"count":1,"max":[0,0,0,1],"min":[0,0,0,1],"type":"VEC4"},{"bufferView":6,"componentType":5126,"count":1,"max":[0],"min":[0],"type":"SCALAR"},{"bufferView":7,"componentType":5126,"count":1,"max":[-0.0625,-0.03750000149011612,0.0625],"min":[-0.0625,-0.03750000149011612,0.0625],"type":"VEC3"},{"bufferView":8,"componentType":5126,"count":1,"max":[0],"min":[0],"type":"SCALAR"},{"bufferView":9,"componentType":5126,"count":1,"max":[-0.0886843279004097,0.719891369342804,-0.6877304911613464,0.030302749946713448],"min":[-0.0886843279004097,0.719891369342804,-0.6877304911613464,0.030302749946713448],"type":"VEC4"},{"bufferView":10,"componentType":5126,"count":1,"max":[0],"min":[0],"type":"SCALAR"},{"bufferView":11,"componentType":5126,"count":1,"max":[0.068359375,-0.13437500596046448,-0.0888671875],"min":[0.068359375,-0.13437500596046448,-0.0888671875],"type":"VEC3"},{"bufferView":12,"componentType":5126,"count":1,"max":[0],"min":[0],"type":"SCALAR"},{"bufferView":13,"componentType":5126,"count":1,"max":[1.75,2,1.75],"min":[1.75,2,1.75],"type":"VEC3"},{"bufferView":14,"componentType":5126,"count":1,"max":[0],"min":[0],"type":"SCALAR"},{"bufferView":15,"componentType":5126,"count":1,"max":[-0.07410755008459091,0.6762453317642212,-0.6189349889755249,0.39258095622062683],"min":[-0.07410755008459091,0.6762453317642212,-0.6189349889755249,0.39258095622062683],"type":"VEC4"},{"bufferView":16,"componentType":5126,"count":1,"max":[0],"min":[0],"type":"SCALAR"},{"bufferView":17,"componentType":5126,"count":1,"max":[-0.1552734375,-0.345703125,-0.0625],"min":[-0.1552734375,-0.345703125,-0.0625],"type":"VEC3"},{"bufferView":18,"componentType":5126,"count":1,"max":[0],"min":[0],"type":"SCALAR"},{"bufferView":19,"componentType":5126,"count":1,"max":[1.75,2,1.75],"min":[1.75,2,1.75],"type":"VEC3"}]}