{"asset":{"version":"2.0","generator":"Blockbench 4.9.3 glTF exporter"},"scenes":[{"nodes":[9],"name":"blockbench_export"}],"scene":0,"nodes":[{"translation":[0.478515625,0,0],"name":"rfb_bolt"},{"translation":[0.77734375,0.5,0.5],"name":"rfb_standard_mag"},{"translation":[-0.5,-0.5874999999999997,-1.125],"name":"rbf","children":[0,1]},{"translation":[-0.375,-0.6875,0],"name":"LeftHand"},{"translation":[0.375,0.6000000000000003,-0.625],"name":"l","children":[3]},{"translation":[0.375,-0.6875,0],"name":"RightHand"},{"translation":[-0.375,0.6000000000000003,-0.625],"name":"R","children":[5]},{"translation":[0,0.2749999999999997,0],"name":"bone","children":[2,4,6]},{"translation":[0.5,0.3125,1.125],"name":"bone2","children":[7]},{"children":[8]}],"animations":[{"name":"Reload2","samplers":[{"input":0,"output":1,"interpolation":"LINEAR"},{"input":2,"output":3,"interpolation":"LINEAR"},{"input":4,"output":5,"interpolation":"LINEAR"},{"input":6,"output":7,"interpolation":"LINEAR"},{"input":8,"output":9,"interpolation":"LINEAR"},{"input":10,"output":11,"interpolation":"LINEAR"},{"input":12,"output":13,"interpolation":"LINEAR"},{"input":14,"output":15,"interpolation":"LINEAR"},{"input":16,"output":17,"interpolation":"LINEAR"},{"input":18,"output":19,"interpolation":"LINEAR"},{"input":20,"output":21,"interpolation":"LINEAR"},{"input":22,"output":23,"interpolation":"LINEAR"}],"channels":[{"sampler":0,"target":{"node":8,"path":"rotation"}},{"sampler":1,"target":{"node":8,"path":"translation"}},{"sampler":2,"target":{"node":4,"path":"rotation"}},{"sampler":3,"target":{"node":4,"path":"translation"}},{"sampler":4,"target":{"node":4,"path":"scale"}},{"sampler":5,"target":{"node":6,"path":"rotation"}},{"sampler":6,"target":{"node":6,"path":"translation"}},{"sampler":7,"target":{"node":6,"path":"scale"}},{"sampler":8,"target":{"node":1,"path":"rotation"}},{"sampler":9,"target":{"node":1,"path":"translation"}},{"sampler":10,"target":{"node":0,"path":"rotation"}},{"sampler":11,"target":{"node":0,"path":"translation"}}]}],"bufferViews":[{"buffer":0,"byteOffset":0,"byteLength":256},{"buffer":0,"byteOffset":256,"byteLength":1024},{"buffer":0,"byteOffset":1280,"byteLength":256},{"buffer":0,"byteOffset":1536,"byteLength":768},{"buffer":0,"byteOffset":2304,"byteLength":240},{"buffer":0,"byteOffset":2544,"byteLength":960},{"buffer":0,"byteOffset":3504,"byteLength":240},{"buffer":0,"byteOffset":3744,"byteLength":720},{"buffer":0,"byteOffset":4464,"byteLength":4},{"buffer":0,"byteOffset":4468,"byteLength":12},{"buffer":0,"byteOffset":4480,"byteLength":4},{"buffer":0,"byteOffset":4484,"byteLength":16},{"buffer":0,"byteOffset":4500,"byteLength":4},{"buffer":0,"byteOffset":4504,"byteLength":12},{"buffer":0,"byteOffset":4516,"byteLength":4},{"buffer":0,"byteOffset":4520,"byteLength":12},{"buffer":0,"byteOffset":4532,"byteLength":208},{"buffer":0,"byteOffset":4740,"byteLength":832},{"buffer":0,"byteOffset":5572,"byteLength":208},{"buffer":0,"byteOffset":5780,"byteLength":624},{"buffer":0,"byteOffset":6404,"byteLength":4},{"buffer":0,"byteOffset":6408,"byteLength":16},{"buffer":0,"byteOffset":6424,"byteLength":4},{"buffer":0,"byteOffset":6428,"byteLength":12}],"buffers":[{"byteLength":6440,"uri":"data:application/octet-stream;base64,"}],"accessors":[{"bufferView":0,"componentType":5126,"count":64,"max":[2.7083332538604736],"min":[0.0833333358168602],"type":"SCALAR"},{"bufferView":1,"componentType":5126,"count":64,"max":[0.24824027717113495,0.2702762186527252,0.04352853447198868,1],"min":[-0.004873416852205992,-0.005242586135864258,-0.4266144335269928,0.8479800820350647],"type":"VEC4"},{"bufferView":2,"componentType":5126,"count":64,"max":[2.7083332538604736],"min":[0.0833333358168602],"type":"SCALAR"},{"bufferView":3,"componentType":5126,"count":64,"max":[0.550000011920929,0.3231250047683716,1.2012499570846558],"min":[0.3812499940395355,0.046875,0.7331249713897705],"type":"VEC3"},{"bufferView":4,"componentType":5126,"count":60,"max":[2.5416667461395264],"min":[0.0833333358168602],"type":"SCALAR"},{"bufferView":5,"componentType":5126,"count":60,"max":[0.13586163520812988,-0.5991547107696533,0.5914784073829651,-0.2961549460887909],"min":[-0.1765710711479187,-0.8493033647537231,0.4029805660247803,-0.563302755355835],"type":"VEC4"},{"bufferView":6,"componentType":5126,"count":60,"max":[2.5416667461395264],"min":[0.0833333358168602],"type":"SCALAR"},{"bufferView":7,"componentType":5126,"count":60,"max":[-0.012500000186264515,-0.1862500011920929,0.5849999785423279],"min":[-0.6468750238418579,-0.887499988079071,-0.9975000023841858],"type":"VEC3"},{"bufferView":8,"componentType":5126,"count":1,"max":[0.0833333358168602],"min":[0.0833333358168602],"type":"SCALAR"},{"bufferView":9,"componentType":5126,"count":1,"max":[1,1.5,1],"min":[1,1.5,1],"type":"VEC3"},{"bufferView":10,"componentType":5126,"count":1,"max":[0],"min":[0],"type":"SCALAR"},{"bufferView":11,"componentType":5126,"count":1,"max":[-0.1569916158914566,0.7081853151321411,-0.6720412969589233,-0.14895516633987427],"min":[-0.1569916158914566,0.7081853151321411,-0.6720412969589233,-0.14895516633987427],"type":"VEC4"},{"bufferView":12,"componentType":5126,"count":1,"max":[0],"min":[0],"type":"SCALAR"},{"bufferView":13,"componentType":5126,"count":1,"max":[0.012500000186264515,-0.2874999940395355,-0.5625],"min":[0.012500000186264515,-0.2874999940395355,-0.5625],"type":"VEC3"},{"bufferView":14,"componentType":5126,"count":1,"max":[0],"min":[0],"type":"SCALAR"},{"bufferView":15,"componentType":5126,"count":1,"max":[1,1.5,1],"min":[1,1.5,1],"type":"VEC3"},{"bufferView":16,"componentType":5126,"count":52,"max":[2.125],"min":[0],"type":"SCALAR"},{"bufferView":17,"componentType":5126,"count":52,"max":[0,0,0.009948212653398514,1],"min":[0,0,-0.24708357453346252,0.9689942002296448],"type":"VEC4"},{"bufferView":18,"componentType":5126,"count":52,"max":[2.125],"min":[0],"type":"SCALAR"},{"bufferView":19,"componentType":5126,"count":52,"max":[0.8160937428474426,0.5162500143051147,1.2481249570846558],"min":[0.17234374582767487,-0.19812500476837158,0.39937499165534973],"type":"VEC3"},{"bufferView":20,"componentType":5126,"count":1,"max":[0],"min":[0],"type":"SCALAR"},{"bufferView":21,"componentType":5126,"count":1,"max":[0,0,0,1],"min":[0,0,0,1],"type":"VEC4"},{"bufferView":22,"componentType":5126,"count":1,"max":[0],"min":[0],"type":"SCALAR"},{"bufferView":23,"componentType":5126,"count":1,"max":[0.478515625,0,0],"min":[0.478515625,0,0],"type":"VEC3"}]}