{"asset":{"version":"2.0","generator":"Blockbench 4.9.3 glTF exporter"},"scenes":[{"nodes":[9],"name":"blockbench_export"}],"scene":0,"nodes":[{"translation":[0.478515625,0,0],"name":"rfb_bolt"},{"translation":[0.77734375,0.5,0.5],"name":"rfb_standard_mag"},{"translation":[-0.5,-0.5874999999999997,-1.125],"name":"rbf","children":[0,1]},{"translation":[-0.375,-0.6875,0],"name":"LeftHand"},{"translation":[0.375,0.6000000000000003,-0.625],"name":"l","children":[3]},{"translation":[0.375,-0.6875,0],"name":"RightHand"},{"translation":[-0.375,0.6000000000000003,-0.625],"name":"R","children":[5]},{"translation":[0,0.2749999999999997,0],"name":"bone","children":[2,4,6]},{"translation":[0.5,0.3125,1.125],"name":"bone2","children":[7]},{"children":[8]}],"animations":[{"name":"Inspection","samplers":[{"input":0,"output":1,"interpolation":"LINEAR"},{"input":2,"output":3,"interpolation":"LINEAR"},{"input":4,"output":5,"interpolation":"LINEAR"},{"input":6,"output":7,"interpolation":"LINEAR"},{"input":8,"output":9,"interpolation":"LINEAR"},{"input":10,"output":11,"interpolation":"LINEAR"},{"input":12,"output":13,"interpolation":"LINEAR"},{"input":14,"output":15,"interpolation":"LINEAR"}],"channels":[{"sampler":0,"target":{"node":8,"path":"rotation"}},{"sampler":1,"target":{"node":8,"path":"translation"}},{"sampler":2,"target":{"node":4,"path":"rotation"}},{"sampler":3,"target":{"node":4,"path":"translation"}},{"sampler":4,"target":{"node":4,"path":"scale"}},{"sampler":5,"target":{"node":6,"path":"rotation"}},{"sampler":6,"target":{"node":6,"path":"translation"}},{"sampler":7,"target":{"node":6,"path":"scale"}}]}],"bufferViews":[{"buffer":0,"byteOffset":0,"byteLength":480},{"buffer":0,"byteOffset":480,"byteLength":1920},{"buffer":0,"byteOffset":2400,"byteLength":480},{"buffer":0,"byteOffset":2880,"byteLength":1440},{"buffer":0,"byteOffset":4320,"byteLength":444},{"buffer":0,"byteOffset":4764,"byteLength":1776},{"buffer":0,"byteOffset":6540,"byteLength":444},{"buffer":0,"byteOffset":6984,"byteLength":1332},{"buffer":0,"byteOffset":8316,"byteLength":4},{"buffer":0,"byteOffset":8320,"byteLength":12},{"buffer":0,"byteOffset":8332,"byteLength":448},{"buffer":0,"byteOffset":8780,"byteLength":1792},{"buffer":0,"byteOffset":10572,"byteLength":448},{"buffer":0,"byteOffset":11020,"byteLength":1344},{"buffer":0,"byteOffset":12364,"byteLength":200},{"buffer":0,"byteOffset":12564,"byteLength":600}],"buffers":[{"byteLength":13164,"uri":"data:application/octet-stream;base64,"}],"accessors":[{"bufferView":0,"componentType":5126,"count":120,"max":[5.041666507720947],"min":[0.0833333358168602],"type":"SCALAR"},{"bufferView":1,"componentType":5126,"count":120,"max":[0.19650505483150482,0.5505764484405518,0.057651691138744354,1],"min":[-0.0030351511668413877,-0.0018819619435817003,-0.2471291571855545,0.8251951932907104],"type":"VEC4"},{"bufferView":2,"componentType":5126,"count":120,"max":[5.041666507720947],"min":[0.0833333358168602],"type":"SCALAR"},{"bufferView":3,"componentType":5126,"count":120,"max":[0.5418750047683716,0.5137500166893005,1.2100000381469727],"min":[0.47187501192092896,0.1743749976158142,0.5062500238418579],"type":"VEC3"},{"bufferView":4,"componentType":5126,"count":111,"max":[4.583333492279053],"min":[0],"type":"SCALAR"},{"bufferView":5,"componentType":5126,"count":111,"max":[0.07078265398740768,-0.5862827301025391,0.5761809945106506,-0.4394732713699341],"min":[-0.04654783383011818,-0.845104455947876,0.30078643560409546,-0.5650467872619629],"type":"VEC4"},{"bufferView":6,"componentType":5126,"count":111,"max":[4.583333492279053],"min":[0],"type":"SCALAR"},{"bufferView":7,"componentType":5126,"count":111,"max":[0.05312500149011612,-0.20000000298023224,-0.2706249952316284],"min":[-0.28312501311302185,-1.6675000190734863,-0.9881250262260437],"type":"VEC3"},{"bufferView":8,"componentType":5126,"count":1,"max":[0],"min":[0],"type":"SCALAR"},{"bufferView":9,"componentType":5126,"count":1,"max":[1,1.5,1],"min":[1,1.5,1],"type":"VEC3"},{"bufferView":10,"componentType":5126,"count":112,"max":[4.625],"min":[0],"type":"SCALAR"},{"bufferView":11,"componentType":5126,"count":112,"max":[-0.033084768801927567,0.9309965968132019,-0.34662458300590515,0.1513972282409668],"min":[-0.1640310287475586,0.6971291303634644,-0.6833826899528503,-0.22734566032886505],"type":"VEC4"},{"bufferView":12,"componentType":5126,"count":112,"max":[4.625],"min":[0],"type":"SCALAR"},{"bufferView":13,"componentType":5126,"count":112,"max":[0.15000000596046448,-0.2643750011920929,0.11874999850988388],"min":[0.008750000037252903,-0.6000000238418579,-0.590624988079071],"type":"VEC3"},{"bufferView":14,"componentType":5126,"count":50,"max":[2.0416667461395264],"min":[0],"type":"SCALAR"},{"bufferView":15,"componentType":5126,"count":50,"max":[1,1.5,1],"min":[1,1.5,1],"type":"VEC3"}]}