{"asset":{"version":"2.0","generator":"Blockbench 4.9.3 glTF exporter"},"scenes":[{"nodes":[9],"name":"blockbench_export"}],"scene":0,"nodes":[{"translation":[0.478515625,0,0],"name":"rfb_bolt"},{"translation":[0.77734375,0.5,0.5],"name":"rfb_standard_mag"},{"translation":[-0.5,-0.5874999999999997,-1.125],"name":"rbf","children":[0,1]},{"translation":[-0.375,-0.6875,0],"name":"LeftHand"},{"translation":[0.375,0.6000000000000003,-0.625],"name":"l","children":[3]},{"translation":[0.375,-0.6875,0],"name":"RightHand"},{"translation":[-0.375,0.6000000000000003,-0.625],"name":"R","children":[5]},{"translation":[0,0.2749999999999997,0],"name":"bone","children":[2,4,6]},{"translation":[0.5,0.3125,1.125],"name":"bone2","children":[7]},{"children":[8]}],"animations":[{"name":"static","samplers":[{"input":0,"output":1,"interpolation":"LINEAR"},{"input":2,"output":3,"interpolation":"LINEAR"},{"input":4,"output":5,"interpolation":"STEP"},{"input":6,"output":7,"interpolation":"STEP"},{"input":8,"output":9,"interpolation":"LINEAR"},{"input":10,"output":11,"interpolation":"LINEAR"},{"input":12,"output":13,"interpolation":"LINEAR"},{"input":14,"output":15,"interpolation":"LINEAR"}],"channels":[{"sampler":0,"target":{"node":8,"path":"rotation"}},{"sampler":1,"target":{"node":8,"path":"translation"}},{"sampler":2,"target":{"node":4,"path":"rotation"}},{"sampler":3,"target":{"node":4,"path":"translation"}},{"sampler":4,"target":{"node":4,"path":"scale"}},{"sampler":5,"target":{"node":6,"path":"rotation"}},{"sampler":6,"target":{"node":6,"path":"translation"}},{"sampler":7,"target":{"node":6,"path":"scale"}}]}],"bufferViews":[{"buffer":0,"byteOffset":0,"byteLength":4},{"buffer":0,"byteOffset":4,"byteLength":16},{"buffer":0,"byteOffset":20,"byteLength":4},{"buffer":0,"byteOffset":24,"byteLength":12},{"buffer":0,"byteOffset":36,"byteLength":4},{"buffer":0,"byteOffset":40,"byteLength":16},{"buffer":0,"byteOffset":56,"byteLength":4},{"buffer":0,"byteOffset":60,"byteLength":12},{"buffer":0,"byteOffset":72,"byteLength":4},{"buffer":0,"byteOffset":76,"byteLength":12},{"buffer":0,"byteOffset":88,"byteLength":4},{"buffer":0,"byteOffset":92,"byteLength":16},{"buffer":0,"byteOffset":108,"byteLength":4},{"buffer":0,"byteOffset":112,"byteLength":12},{"buffer":0,"byteOffset":124,"byteLength":4},{"buffer":0,"byteOffset":128,"byteLength":12}],"buffers":[{"byteLength":140,"uri":"data:application/octet-stream;base64,"}],"accessors":[{"bufferView":0,"componentType":5126,"count":1,"max":[0],"min":[0],"type":"SCALAR"},{"bufferView":1,"componentType":5126,"count":1,"max":[0,0,0,1],"min":[0,0,0,1],"type":"VEC4"},{"bufferView":2,"componentType":5126,"count":1,"max":[0],"min":[0],"type":"SCALAR"},{"bufferView":3,"componentType":5126,"count":1,"max":[0.5,0.3125,1.125],"min":[0.5,0.3125,1.125],"type":"VEC3"},{"bufferView":4,"componentType":5126,"count":1,"max":[0],"min":[0],"type":"SCALAR"},{"bufferView":5,"componentType":5126,"count":1,"max":[0.0688544362783432,-0.6100250482559204,0.565560519695282,-0.5506994128227234],"min":[0.0688544362783432,-0.6100250482559204,0.565560519695282,-0.5506994128227234],"type":"VEC4"},{"bufferView":6,"componentType":5126,"count":1,"max":[0],"min":[0],"type":"SCALAR"},{"bufferView":7,"componentType":5126,"count":1,"max":[-0.09531249850988388,-0.20000000298023224,-0.942187488079071],"min":[-0.09531249850988388,-0.20000000298023224,-0.942187488079071],"type":"VEC3"},{"bufferView":8,"componentType":5126,"count":1,"max":[0],"min":[0],"type":"SCALAR"},{"bufferView":9,"componentType":5126,"count":1,"max":[1,1.5,1],"min":[1,1.5,1],"type":"VEC3"},{"bufferView":10,"componentType":5126,"count":1,"max":[0],"min":[0],"type":"SCALAR"},{"bufferView":11,"componentType":5126,"count":1,"max":[-0.15699975192546844,0.7081801295280457,-0.6720378398895264,-0.14898720383644104],"min":[-0.15699975192546844,0.7081801295280457,-0.6720378398895264,-0.14898720383644104],"type":"VEC4"},{"bufferView":12,"componentType":5126,"count":1,"max":[0],"min":[0],"type":"SCALAR"},{"bufferView":13,"componentType":5126,"count":1,"max":[0.012500000186264515,-0.2874999940395355,-0.5625],"min":[0.012500000186264515,-0.2874999940395355,-0.5625],"type":"VEC3"},{"bufferView":14,"componentType":5126,"count":1,"max":[0],"min":[0],"type":"SCALAR"},{"bufferView":15,"componentType":5126,"count":1,"max":[1,1.5,1],"min":[1,1.5,1],"type":"VEC3"}]}