{"asset":{"version":"2.0","generator":"Blockbench 4.9.3 glTF exporter"},"scenes":[{"nodes":[9],"name":"blockbench_export"}],"scene":0,"nodes":[{"translation":[0.478515625,0,0],"name":"rfb_bolt"},{"translation":[0.77734375,0.5,0.5],"name":"rfb_standard_mag"},{"translation":[-0.5,-0.5874999999999997,-1.125],"name":"rbf","children":[0,1]},{"translation":[-0.375,-0.6875,0],"name":"LeftHand"},{"translation":[0.375,0.6000000000000003,-0.625],"name":"l","children":[3]},{"translation":[0.375,-0.6875,0],"name":"RightHand"},{"translation":[-0.375,0.6000000000000003,-0.625],"name":"R","children":[5]},{"translation":[0,0.2749999999999997,0],"name":"bone","children":[2,4,6]},{"translation":[0.5,0.3125,1.125],"name":"bone2","children":[7]},{"children":[8]}],"animations":[{"name":"TakeOut","samplers":[{"input":0,"output":1,"interpolation":"LINEAR"},{"input":2,"output":3,"interpolation":"LINEAR"},{"input":4,"output":5,"interpolation":"LINEAR"},{"input":6,"output":7,"interpolation":"LINEAR"},{"input":8,"output":9,"interpolation":"LINEAR"},{"input":10,"output":11,"interpolation":"LINEAR"},{"input":12,"output":13,"interpolation":"LINEAR"},{"input":14,"output":15,"interpolation":"LINEAR"}],"channels":[{"sampler":0,"target":{"node":4,"path":"rotation"}},{"sampler":1,"target":{"node":4,"path":"translation"}},{"sampler":2,"target":{"node":4,"path":"scale"}},{"sampler":3,"target":{"node":6,"path":"rotation"}},{"sampler":4,"target":{"node":6,"path":"translation"}},{"sampler":5,"target":{"node":6,"path":"scale"}},{"sampler":6,"target":{"node":8,"path":"rotation"}},{"sampler":7,"target":{"node":8,"path":"translation"}}]}],"bufferViews":[{"buffer":0,"byteOffset":0,"byteLength":4},{"buffer":0,"byteOffset":4,"byteLength":16},{"buffer":0,"byteOffset":20,"byteLength":4},{"buffer":0,"byteOffset":24,"byteLength":12},{"buffer":0,"byteOffset":36,"byteLength":4},{"buffer":0,"byteOffset":40,"byteLength":12},{"buffer":0,"byteOffset":52,"byteLength":4},{"buffer":0,"byteOffset":56,"byteLength":16},{"buffer":0,"byteOffset":72,"byteLength":4},{"buffer":0,"byteOffset":76,"byteLength":12},{"buffer":0,"byteOffset":88,"byteLength":4},{"buffer":0,"byteOffset":92,"byteLength":12},{"buffer":0,"byteOffset":104,"byteLength":68},{"buffer":0,"byteOffset":172,"byteLength":272},{"buffer":0,"byteOffset":444,"byteLength":68},{"buffer":0,"byteOffset":512,"byteLength":204}],"buffers":[{"byteLength":716,"uri":"data:application/octet-stream;base64,"}],"accessors":[{"bufferView":0,"componentType":5126,"count":1,"max":[0],"min":[0],"type":"SCALAR"},{"bufferView":1,"componentType":5126,"count":1,"max":[0.0688377097249031,-0.6099984049797058,0.5655933022499084,-0.5506972670555115],"min":[0.0688377097249031,-0.6099984049797058,0.5655933022499084,-0.5506972670555115],"type":"VEC4"},{"bufferView":2,"componentType":5126,"count":1,"max":[0],"min":[0],"type":"SCALAR"},{"bufferView":3,"componentType":5126,"count":1,"max":[-0.09562499821186066,-0.20000000298023224,-0.9418749809265137],"min":[-0.09562499821186066,-0.20000000298023224,-0.9418749809265137],"type":"VEC3"},{"bufferView":4,"componentType":5126,"count":1,"max":[0],"min":[0],"type":"SCALAR"},{"bufferView":5,"componentType":5126,"count":1,"max":[1,1.5,1],"min":[1,1.5,1],"type":"VEC3"},{"bufferView":6,"componentType":5126,"count":1,"max":[0],"min":[0],"type":"SCALAR"},{"bufferView":7,"componentType":5126,"count":1,"max":[-0.1569916158914566,0.7081853151321411,-0.6720412969589233,-0.14895516633987427],"min":[-0.1569916158914566,0.7081853151321411,-0.6720412969589233,-0.14895516633987427],"type":"VEC4"},{"bufferView":8,"componentType":5126,"count":1,"max":[0],"min":[0],"type":"SCALAR"},{"bufferView":9,"componentType":5126,"count":1,"max":[0.012500000186264515,-0.2874999940395355,-0.5625],"min":[0.012500000186264515,-0.2874999940395355,-0.5625],"type":"VEC3"},{"bufferView":10,"componentType":5126,"count":1,"max":[0],"min":[0],"type":"SCALAR"},{"bufferView":11,"componentType":5126,"count":1,"max":[1,1.5,1],"min":[1,1.5,1],"type":"VEC3"},{"bufferView":12,"componentType":5126,"count":17,"max":[0.6666666865348816],"min":[0],"type":"SCALAR"},{"bufferView":13,"componentType":5126,"count":17,"max":[0.17541316151618958,0.19868001341819763,0.13460685312747955,1],"min":[-0.12881556153297424,-0.013594526797533035,-0.021809693425893784,0.9549662470817566],"type":"VEC4"},{"bufferView":14,"componentType":5126,"count":17,"max":[0.6666666865348816],"min":[0],"type":"SCALAR"},{"bufferView":15,"componentType":5126,"count":17,"max":[0.5874999761581421,0.3187499940395355,1.25],"min":[0.49812498688697815,-1.0625,0.6875],"type":"VEC3"}]}