{"asset":{"version":"2.0","generator":"Blockbench 4.9.3 glTF exporter"},"scenes":[{"nodes":[9],"name":"blockbench_export"}],"scene":0,"nodes":[{"translation":[0.478515625,0,0],"name":"rfb_bolt"},{"translation":[0.77734375,0.5,0.5],"name":"rfb_standard_mag"},{"translation":[-0.5,-0.5874999999999997,-1.125],"name":"rbf","children":[0,1]},{"translation":[-0.375,-0.6875,0],"name":"LeftHand"},{"translation":[0.375,0.6000000000000003,-0.625],"name":"l","children":[3]},{"translation":[0.375,-0.6875,0],"name":"RightHand"},{"translation":[-0.375,0.6000000000000003,-0.625],"name":"R","children":[5]},{"translation":[0,0.2749999999999997,0],"name":"bone","children":[2,4,6]},{"translation":[0.5,0.3125,1.125],"name":"bone2","children":[7]},{"children":[8]}],"animations":[{"name":"Reload","samplers":[{"input":0,"output":1,"interpolation":"LINEAR"},{"input":2,"output":3,"interpolation":"LINEAR"},{"input":4,"output":5,"interpolation":"LINEAR"},{"input":6,"output":7,"interpolation":"LINEAR"},{"input":8,"output":9,"interpolation":"LINEAR"},{"input":10,"output":11,"interpolation":"LINEAR"},{"input":12,"output":13,"interpolation":"LINEAR"},{"input":14,"output":15,"interpolation":"LINEAR"},{"input":16,"output":17,"interpolation":"LINEAR"},{"input":18,"output":19,"interpolation":"LINEAR"},{"input":20,"output":21,"interpolation":"LINEAR"},{"input":22,"output":23,"interpolation":"LINEAR"}],"channels":[{"sampler":0,"target":{"node":8,"path":"rotation"}},{"sampler":1,"target":{"node":8,"path":"translation"}},{"sampler":2,"target":{"node":4,"path":"rotation"}},{"sampler":3,"target":{"node":4,"path":"translation"}},{"sampler":4,"target":{"node":4,"path":"scale"}},{"sampler":5,"target":{"node":6,"path":"rotation"}},{"sampler":6,"target":{"node":6,"path":"translation"}},{"sampler":7,"target":{"node":6,"path":"scale"}},{"sampler":8,"target":{"node":1,"path":"rotation"}},{"sampler":9,"target":{"node":1,"path":"translation"}},{"sampler":10,"target":{"node":0,"path":"rotation"}},{"sampler":11,"target":{"node":0,"path":"translation"}}]}],"bufferViews":[{"buffer":0,"byteOffset":0,"byteLength":312},{"buffer":0,"byteOffset":312,"byteLength":1248},{"buffer":0,"byteOffset":1560,"byteLength":312},{"buffer":0,"byteOffset":1872,"byteLength":936},{"buffer":0,"byteOffset":2808,"byteLength":296},{"buffer":0,"byteOffset":3104,"byteLength":1184},{"buffer":0,"byteOffset":4288,"byteLength":296},{"buffer":0,"byteOffset":4584,"byteLength":888},{"buffer":0,"byteOffset":5472,"byteLength":4},{"buffer":0,"byteOffset":5476,"byteLength":12},{"buffer":0,"byteOffset":5488,"byteLength":4},{"buffer":0,"byteOffset":5492,"byteLength":16},{"buffer":0,"byteOffset":5508,"byteLength":4},{"buffer":0,"byteOffset":5512,"byteLength":12},{"buffer":0,"byteOffset":5524,"byteLength":4},{"buffer":0,"byteOffset":5528,"byteLength":12},{"buffer":0,"byteOffset":5540,"byteLength":208},{"buffer":0,"byteOffset":5748,"byteLength":832},{"buffer":0,"byteOffset":6580,"byteLength":208},{"buffer":0,"byteOffset":6788,"byteLength":624},{"buffer":0,"byteOffset":7412,"byteLength":248},{"buffer":0,"byteOffset":7660,"byteLength":992},{"buffer":0,"byteOffset":8652,"byteLength":268},{"buffer":0,"byteOffset":8920,"byteLength":804}],"buffers":[{"byteLength":9724,"uri":"data:application/octet-stream;base64,"}],"accessors":[{"bufferView":0,"componentType":5126,"count":78,"max":[3.2916667461395264],"min":[0.0833333358168602],"type":"SCALAR"},{"bufferView":1,"componentType":5126,"count":78,"max":[0.24188606441020966,0.2702762186527252,0.054711248725652695,1],"min":[-0.001217947225086391,-0.0013995618792250752,-0.4266144335269928,0.8479800820350647],"type":"VEC4"},{"bufferView":2,"componentType":5126,"count":78,"max":[3.2916667461395264],"min":[0.0833333358168602],"type":"SCALAR"},{"bufferView":3,"componentType":5126,"count":78,"max":[0.550000011920929,0.3231250047683716,1.1875],"min":[0.3812499940395355,0.046875,0.7456250190734863],"type":"VEC3"},{"bufferView":4,"componentType":5126,"count":74,"max":[3.125],"min":[0.0833333358168602],"type":"SCALAR"},{"bufferView":5,"componentType":5126,"count":74,"max":[0.13058173656463623,-0.5991547107696533,0.6658046841621399,0.02682681195437908],"min":[-0.43029990792274475,-0.9609507322311401,-0.08136129379272461,-0.563302755355835],"type":"VEC4"},{"bufferView":6,"componentType":5126,"count":74,"max":[3.125],"min":[0.0833333358168602],"type":"SCALAR"},{"bufferView":7,"componentType":5126,"count":74,"max":[-0.013124999590218067,-0.054375000298023224,0.37062498927116394],"min":[-0.36375001072883606,-1.3574999570846558,-1.0668749809265137],"type":"VEC3"},{"bufferView":8,"componentType":5126,"count":1,"max":[0.0833333358168602],"min":[0.0833333358168602],"type":"SCALAR"},{"bufferView":9,"componentType":5126,"count":1,"max":[1,1.5,1],"min":[1,1.5,1],"type":"VEC3"},{"bufferView":10,"componentType":5126,"count":1,"max":[0],"min":[0],"type":"SCALAR"},{"bufferView":11,"componentType":5126,"count":1,"max":[-0.1569916158914566,0.7081853151321411,-0.6720412969589233,-0.14895516633987427],"min":[-0.1569916158914566,0.7081853151321411,-0.6720412969589233,-0.14895516633987427],"type":"VEC4"},{"bufferView":12,"componentType":5126,"count":1,"max":[0],"min":[0],"type":"SCALAR"},{"bufferView":13,"componentType":5126,"count":1,"max":[0.012500000186264515,-0.2874999940395355,-0.5625],"min":[0.012500000186264515,-0.2874999940395355,-0.5625],"type":"VEC3"},{"bufferView":14,"componentType":5126,"count":1,"max":[0],"min":[0],"type":"SCALAR"},{"bufferView":15,"componentType":5126,"count":1,"max":[1,1.5,1],"min":[1,1.5,1],"type":"VEC3"},{"bufferView":16,"componentType":5126,"count":52,"max":[2.125],"min":[0],"type":"SCALAR"},{"bufferView":17,"componentType":5126,"count":52,"max":[0.33393269777297974,0.12664125859737396,0.19274063408374786,1],"min":[-0.02427707239985466,-0.20335163176059723,-0.5378299355506897,0.8032451868057251],"type":"VEC4"},{"bufferView":18,"componentType":5126,"count":52,"max":[2.125],"min":[0],"type":"SCALAR"},{"bufferView":19,"componentType":5126,"count":52,"max":[1.1417187452316284,0.6875,1.1875],"min":[0.44234374165534973,-1.725000023841858,-0.5456249713897705],"type":"VEC3"},{"bufferView":20,"componentType":5126,"count":62,"max":[2.5416667461395264],"min":[0],"type":"SCALAR"},{"bufferView":21,"componentType":5126,"count":62,"max":[0,0,0,1],"min":[0,0,0,1],"type":"VEC4"},{"bufferView":22,"componentType":5126,"count":67,"max":[2.75],"min":[0],"type":"SCALAR"},{"bufferView":23,"componentType":5126,"count":67,"max":[0.478515625,0,0.3125],"min":[0.478515625,0,0],"type":"VEC3"}]}