{"asset":{"version":"2.0","generator":"Blockbench 4.9.0 glTF exporter"},"scenes":[{"nodes":[11],"name":"blockbench_export"}],"scene":0,"nodes":[{"translation":[0.375,-0.6875,0],"name":"RightHand"},{"translation":[-0.375,0.6000000000000003,-0.625],"name":"R","children":[0]},{"name":"bolt"},{"translation":[0.5,0.5,0.5],"name":"main","children":[2]},{"translation":[0.4853515625,0.49609375,0.5625],"name":"mag"},{"translation":[0.5,0.5,0.5],"name":"handle2"},{"translation":[-0.5,-0.5874999999999997,-1.125],"name":"sa58","children":[3,4,5]},{"translation":[-0.03125,0.2232421874999997,0.25],"name":"bone","children":[1,6]},{"translation":[-0.375,-0.6875,0],"name":"LeftHand"},{"translation":[0.34375,0.8232421875,-0.375],"name":"l","children":[8]},{"translation":[0.53125,0.3642578125,0.875],"name":"bone2","children":[7,9]},{"children":[10]}],"animations":[{"name":"draw","samplers":[{"input":0,"output":1,"interpolation":"LINEAR"},{"input":2,"output":3,"interpolation":"LINEAR"},{"input":4,"output":5,"interpolation":"LINEAR"},{"input":6,"output":7,"interpolation":"LINEAR"},{"input":8,"output":9,"interpolation":"LINEAR"},{"input":10,"output":11,"interpolation":"LINEAR"},{"input":12,"output":13,"interpolation":"LINEAR"},{"input":14,"output":15,"interpolation":"LINEAR"}],"channels":[{"sampler":0,"target":{"node":1,"path":"rotation"}},{"sampler":1,"target":{"node":1,"path":"translation"}},{"sampler":2,"target":{"node":1,"path":"scale"}},{"sampler":3,"target":{"node":9,"path":"rotation"}},{"sampler":4,"target":{"node":9,"path":"translation"}},{"sampler":5,"target":{"node":9,"path":"scale"}},{"sampler":6,"target":{"node":10,"path":"rotation"}},{"sampler":7,"target":{"node":10,"path":"translation"}}]}],"bufferViews":[{"buffer":0,"byteOffset":0,"byteLength":4},{"buffer":0,"byteOffset":4,"byteLength":16},{"buffer":0,"byteOffset":20,"byteLength":4},{"buffer":0,"byteOffset":24,"byteLength":12},{"buffer":0,"byteOffset":36,"byteLength":4},{"buffer":0,"byteOffset":40,"byteLength":12},{"buffer":0,"byteOffset":52,"byteLength":4},{"buffer":0,"byteOffset":56,"byteLength":16},{"buffer":0,"byteOffset":72,"byteLength":4},{"buffer":0,"byteOffset":76,"byteLength":12},{"buffer":0,"byteOffset":88,"byteLength":4},{"buffer":0,"byteOffset":92,"byteLength":12},{"buffer":0,"byteOffset":104,"byteLength":80},{"buffer":0,"byteOffset":184,"byteLength":320},{"buffer":0,"byteOffset":504,"byteLength":76},{"buffer":0,"byteOffset":580,"byteLength":228}],"buffers":[{"byteLength":808,"uri":"data:application/octet-stream;base64,"}],"accessors":[{"bufferView":0,"componentType":5126,"count":1,"max":[0.6666666865348816],"min":[0.6666666865348816],"type":"SCALAR"},{"bufferView":1,"componentType":5126,"count":1,"max":[-0.08233357965946198,0.7269910573959351,-0.6759165525436401,-0.0885549783706665],"min":[-0.08233357965946198,0.7269910573959351,-0.6759165525436401,-0.0885549783706665],"type":"VEC4"},{"bufferView":2,"componentType":5126,"count":1,"max":[0.6666666865348816],"min":[0.6666666865348816],"type":"SCALAR"},{"bufferView":3,"componentType":5126,"count":1,"max":[0.02250000089406967,-0.2643750011920929,-0.32249999046325684],"min":[0.02250000089406967,-0.2643750011920929,-0.32249999046325684],"type":"VEC3"},{"bufferView":4,"componentType":5126,"count":1,"max":[0.6666666865348816],"min":[0.6666666865348816],"type":"SCALAR"},{"bufferView":5,"componentType":5126,"count":1,"max":[1,1.5,1],"min":[1,1.5,1],"type":"VEC3"},{"bufferView":6,"componentType":5126,"count":1,"max":[0.6666666865348816],"min":[0.6666666865348816],"type":"SCALAR"},{"bufferView":7,"componentType":5126,"count":1,"max":[-0.26801690459251404,0.5650404095649719,-0.5730401277542114,0.529642641544342],"min":[-0.26801690459251404,0.5650404095649719,-0.5730401277542114,0.529642641544342],"type":"VEC4"},{"bufferView":8,"componentType":5126,"count":1,"max":[0.6666666865348816],"min":[0.6666666865348816],"type":"SCALAR"},{"bufferView":9,"componentType":5126,"count":1,"max":[-0.09187500178813934,0.03824218735098839,-0.7599999904632568],"min":[-0.09187500178813934,0.03824218735098839,-0.7599999904632568],"type":"VEC3"},{"bufferView":10,"componentType":5126,"count":1,"max":[0.6666666865348816],"min":[0.6666666865348816],"type":"SCALAR"},{"bufferView":11,"componentType":5126,"count":1,"max":[1,1.5,1],"min":[1,1.5,1],"type":"VEC3"},{"bufferView":12,"componentType":5126,"count":20,"max":[0.7916666865348816],"min":[0],"type":"SCALAR"},{"bufferView":13,"componentType":5126,"count":20,"max":[0.14533858001232147,0.39804014563560486,0.27511417865753174,1],"min":[-0.3122583031654358,-0.026811061426997185,-0.05256275087594986,0.8175395727157593],"type":"VEC4"},{"bufferView":14,"componentType":5126,"count":19,"max":[0.75],"min":[0],"type":"SCALAR"},{"bufferView":15,"componentType":5126,"count":19,"max":[0.5550000071525574,0.4436328113079071,0.9743750095367432],"min":[0.484375,-0.046992186456918716,0.8662499785423279],"type":"VEC3"}]}