{"asset":{"version":"2.0","generator":"Blockbench 4.8.3 glTF exporter"},"scenes":[{"nodes":[9],"name":"blockbench_export"}],"scene":0,"nodes":[{"translation":[0.375,-0.6875,0],"name":"RightHand"},{"translation":[-0.375,0.6000000000000003,-0.625],"name":"R","children":[0]},{"translation":[0.4853515625,0.49609375,0.5625],"name":"mag"},{"translation":[0.5,0.5,0.5],"name":"handle2"},{"translation":[-0.5,-0.5874999999999997,-1.125],"name":"sa58","children":[2,3]},{"translation":[-0.03125,0.2232421874999997,0.25],"name":"bone","children":[1,4]},{"translation":[-0.375,-0.6875,0],"name":"LeftHand"},{"translation":[0.34375,0.8232421875,-0.375],"name":"l","children":[6]},{"translation":[0.53125,0.3642578125,0.875],"name":"bone2","children":[5,7]},{"children":[8]}],"animations":[{"name":"draw","samplers":[{"input":0,"output":1,"interpolation":"LINEAR"},{"input":2,"output":3,"interpolation":"LINEAR"},{"input":4,"output":5,"interpolation":"LINEAR"},{"input":6,"output":7,"interpolation":"LINEAR"},{"input":8,"output":9,"interpolation":"LINEAR"},{"input":10,"output":11,"interpolation":"LINEAR"},{"input":12,"output":13,"interpolation":"LINEAR"},{"input":14,"output":15,"interpolation":"LINEAR"},{"input":16,"output":17,"interpolation":"LINEAR"},{"input":18,"output":19,"interpolation":"LINEAR"}],"channels":[{"sampler":0,"target":{"node":1,"path":"rotation"}},{"sampler":1,"target":{"node":1,"path":"translation"}},{"sampler":2,"target":{"node":1,"path":"scale"}},{"sampler":3,"target":{"node":7,"path":"rotation"}},{"sampler":4,"target":{"node":7,"path":"translation"}},{"sampler":5,"target":{"node":7,"path":"scale"}},{"sampler":6,"target":{"node":8,"path":"rotation"}},{"sampler":7,"target":{"node":8,"path":"translation"}},{"sampler":8,"target":{"node":5,"path":"rotation"}},{"sampler":9,"target":{"node":5,"path":"translation"}}]}],"bufferViews":[{"buffer":0,"byteOffset":0,"byteLength":4},{"buffer":0,"byteOffset":4,"byteLength":16},{"buffer":0,"byteOffset":20,"byteLength":4},{"buffer":0,"byteOffset":24,"byteLength":12},{"buffer":0,"byteOffset":36,"byteLength":4},{"buffer":0,"byteOffset":40,"byteLength":12},{"buffer":0,"byteOffset":52,"byteLength":16},{"buffer":0,"byteOffset":68,"byteLength":64},{"buffer":0,"byteOffset":132,"byteLength":12},{"buffer":0,"byteOffset":144,"byteLength":36},{"buffer":0,"byteOffset":180,"byteLength":8},{"buffer":0,"byteOffset":188,"byteLength":24},{"buffer":0,"byteOffset":212,"byteLength":24},{"buffer":0,"byteOffset":236,"byteLength":96},{"buffer":0,"byteOffset":332,"byteLength":20},{"buffer":0,"byteOffset":352,"byteLength":60},{"buffer":0,"byteOffset":412,"byteLength":20},{"buffer":0,"byteOffset":432,"byteLength":80},{"buffer":0,"byteOffset":512,"byteLength":8},{"buffer":0,"byteOffset":520,"byteLength":24}],"buffers":[{"byteLength":544,"uri":"data:application/octet-stream;base64,"}],"accessors":[{"bufferView":0,"componentType":5126,"count":1,"max":[0],"min":[0],"type":"SCALAR"},{"bufferView":1,"componentType":5126,"count":1,"max":[-0.11553824692964554,0.722439169883728,-0.6711745262145996,-0.11940408498048782],"min":[-0.11553824692964554,0.722439169883728,-0.6711745262145996,-0.11940408498048782],"type":"VEC4"},{"bufferView":2,"componentType":5126,"count":1,"max":[0],"min":[0],"type":"SCALAR"},{"bufferView":3,"componentType":5126,"count":1,"max":[0.0224609375,-0.2642578184604645,-0.322265625],"min":[0.0224609375,-0.2642578184604645,-0.322265625],"type":"VEC3"},{"bufferView":4,"componentType":5126,"count":1,"max":[0],"min":[0],"type":"SCALAR"},{"bufferView":5,"componentType":5126,"count":1,"max":[1,1.5,1],"min":[1,1.5,1],"type":"VEC3"},{"bufferView":6,"componentType":5126,"count":4,"max":[0.6666666865348816],"min":[0],"type":"SCALAR"},{"bufferView":7,"componentType":5126,"count":4,"max":[-0.15556100010871887,0.5145323872566223,-0.5940939784049988,0.5632339715957642],"min":[-0.25510042905807495,0.358808308839798,-0.7419631481170654,0.5390017628669739],"type":"VEC4"},{"bufferView":8,"componentType":5126,"count":3,"max":[0.6666666865348816],"min":[0],"type":"SCALAR"},{"bufferView":9,"componentType":5126,"count":3,"max":[-0.091796875,-0.001953125,-0.759765625],"min":[-0.091796875,-0.001953125,-0.759765625],"type":"VEC3"},{"bufferView":10,"componentType":5126,"count":2,"max":[0.6666666865348816],"min":[0],"type":"SCALAR"},{"bufferView":11,"componentType":5126,"count":2,"max":[1,1.5,1],"min":[1,1.5,1],"type":"VEC3"},{"bufferView":12,"componentType":5126,"count":6,"max":[0.5416666865348816],"min":[0],"type":"SCALAR"},{"bufferView":13,"componentType":5126,"count":6,"max":[0.09265991300344467,0.3980241119861603,0.27508434653282166,1],"min":[-0.3122453987598419,0,0,0.8175623416900635],"type":"VEC4"},{"bufferView":14,"componentType":5126,"count":5,"max":[0.5416666865348816],"min":[0],"type":"SCALAR"},{"bufferView":15,"componentType":5126,"count":5,"max":[0.53125,0.3994140625,0.974609375],"min":[0.484375,-0.046875,0.8663281202316284],"type":"VEC3"},{"bufferView":16,"componentType":5126,"count":5,"max":[0.6666666865348816],"min":[0.3333333432674408],"type":"SCALAR"},{"bufferView":17,"componentType":5126,"count":5,"max":[0.00009518508886685595,0.004552471451461315,0,1],"min":[-0.00862919446080923,-0.006543380673974752,-0.021814677864313126,0.999715268611908],"type":"VEC4"},{"bufferView":18,"componentType":5126,"count":2,"max":[0.6666666865348816],"min":[0.3333333432674408],"type":"SCALAR"},{"bufferView":19,"componentType":5126,"count":2,"max":[-0.03125,0.22324219346046448,0.25],"min":[-0.03125,0.22324219346046448,0.25],"type":"VEC3"}]}