{"asset":{"version":"2.0","generator":"Blockbench 4.9.0 glTF exporter"},"scenes":[{"nodes":[11],"name":"blockbench_export"}],"scene":0,"nodes":[{"translation":[0.375,-0.6875,0],"name":"RightHand"},{"translation":[-0.375,0.6000000000000003,-0.625],"name":"R","children":[0]},{"name":"bolt"},{"translation":[0.5,0.5,0.5],"name":"main","children":[2]},{"translation":[0.4853515625,0.49609375,0.5625],"name":"mag"},{"translation":[0.5,0.5,0.5],"name":"handle2"},{"translation":[-0.5,-0.5874999999999997,-1.125],"name":"sa58","children":[3,4,5]},{"translation":[-0.03125,0.2232421874999997,0.25],"name":"bone","children":[1,6]},{"translation":[-0.375,-0.6875,0],"name":"LeftHand"},{"translation":[0.34375,0.8232421875,-0.375],"name":"l","children":[8]},{"translation":[0.53125,0.3642578125,0.875],"name":"bone2","children":[7,9]},{"children":[10]}],"animations":[{"name":"inspect","samplers":[{"input":0,"output":1,"interpolation":"LINEAR"},{"input":2,"output":3,"interpolation":"LINEAR"},{"input":4,"output":5,"interpolation":"LINEAR"},{"input":6,"output":7,"interpolation":"LINEAR"},{"input":8,"output":9,"interpolation":"LINEAR"},{"input":10,"output":11,"interpolation":"LINEAR"},{"input":12,"output":13,"interpolation":"LINEAR"},{"input":14,"output":15,"interpolation":"LINEAR"},{"input":16,"output":17,"interpolation":"LINEAR"},{"input":18,"output":19,"interpolation":"LINEAR"}],"channels":[{"sampler":0,"target":{"node":10,"path":"rotation"}},{"sampler":1,"target":{"node":10,"path":"translation"}},{"sampler":2,"target":{"node":1,"path":"rotation"}},{"sampler":3,"target":{"node":1,"path":"translation"}},{"sampler":4,"target":{"node":1,"path":"scale"}},{"sampler":5,"target":{"node":9,"path":"rotation"}},{"sampler":6,"target":{"node":9,"path":"translation"}},{"sampler":7,"target":{"node":9,"path":"scale"}},{"sampler":8,"target":{"node":7,"path":"rotation"}},{"sampler":9,"target":{"node":7,"path":"translation"}}]}],"bufferViews":[{"buffer":0,"byteOffset":0,"byteLength":340},{"buffer":0,"byteOffset":340,"byteLength":1360},{"buffer":0,"byteOffset":1700,"byteLength":336},{"buffer":0,"byteOffset":2036,"byteLength":1008},{"buffer":0,"byteOffset":3044,"byteLength":4},{"buffer":0,"byteOffset":3048,"byteLength":16},{"buffer":0,"byteOffset":3064,"byteLength":4},{"buffer":0,"byteOffset":3068,"byteLength":12},{"buffer":0,"byteOffset":3080,"byteLength":4},{"buffer":0,"byteOffset":3084,"byteLength":12},{"buffer":0,"byteOffset":3096,"byteLength":296},{"buffer":0,"byteOffset":3392,"byteLength":1184},{"buffer":0,"byteOffset":4576,"byteLength":296},{"buffer":0,"byteOffset":4872,"byteLength":888},{"buffer":0,"byteOffset":5760,"byteLength":4},{"buffer":0,"byteOffset":5764,"byteLength":12},{"buffer":0,"byteOffset":5776,"byteLength":4},{"buffer":0,"byteOffset":5780,"byteLength":16},{"buffer":0,"byteOffset":5796,"byteLength":4},{"buffer":0,"byteOffset":5800,"byteLength":12}],"buffers":[{"byteLength":5812,"uri":"data:application/octet-stream;base64,"}],"accessors":[{"bufferView":0,"componentType":5126,"count":85,"max":[3.5],"min":[0],"type":"SCALAR"},{"bufferView":1,"componentType":5126,"count":85,"max":[0.3857552409172058,0.4358554780483246,0.7139800786972046,1],"min":[-0.06111856922507286,-0.002327985130250454,-0.10384116321802139,0.5457394123077393],"type":"VEC4"},{"bufferView":2,"componentType":5126,"count":84,"max":[3.4583332538604736],"min":[0],"type":"SCALAR"},{"bufferView":3,"componentType":5126,"count":84,"max":[0.5956249833106995,0.47675782442092896,0.875],"min":[0.5293750166893005,0.34550780057907104,0.8025000095367432],"type":"VEC3"},{"bufferView":4,"componentType":5126,"count":1,"max":[0],"min":[0],"type":"SCALAR"},{"bufferView":5,"componentType":5126,"count":1,"max":[-0.08233357965946198,0.7269910573959351,-0.6759165525436401,-0.0885549783706665],"min":[-0.08233357965946198,0.7269910573959351,-0.6759165525436401,-0.0885549783706665],"type":"VEC4"},{"bufferView":6,"componentType":5126,"count":1,"max":[0],"min":[0],"type":"SCALAR"},{"bufferView":7,"componentType":5126,"count":1,"max":[0.02250000089406967,-0.2643750011920929,-0.32249999046325684],"min":[0.02250000089406967,-0.2643750011920929,-0.32249999046325684],"type":"VEC3"},{"bufferView":8,"componentType":5126,"count":1,"max":[0],"min":[0],"type":"SCALAR"},{"bufferView":9,"componentType":5126,"count":1,"max":[1,1.5,1],"min":[1,1.5,1],"type":"VEC3"},{"bufferView":10,"componentType":5126,"count":74,"max":[3.0416667461395264],"min":[0],"type":"SCALAR"},{"bufferView":11,"componentType":5126,"count":74,"max":[0.016929643228650093,0.7846060991287231,-0.4327831268310547,0.529642641544342],"min":[-0.26801690459251404,0.5650404095649719,-0.5730401277542114,0.4436275362968445],"type":"VEC4"},{"bufferView":12,"componentType":5126,"count":74,"max":[3.0416667461395264],"min":[0],"type":"SCALAR"},{"bufferView":13,"componentType":5126,"count":74,"max":[-0.09187500178813934,0.03824218735098839,-0.6274999976158142],"min":[-0.09187500178813934,0.03824218735098839,-0.7599999904632568],"type":"VEC3"},{"bufferView":14,"componentType":5126,"count":1,"max":[0],"min":[0],"type":"SCALAR"},{"bufferView":15,"componentType":5126,"count":1,"max":[1,1.5,1],"min":[1,1.5,1],"type":"VEC3"},{"bufferView":16,"componentType":5126,"count":1,"max":[0],"min":[0],"type":"SCALAR"},{"bufferView":17,"componentType":5126,"count":1,"max":[0,0,0,1],"min":[0,0,0,1],"type":"VEC4"},{"bufferView":18,"componentType":5126,"count":1,"max":[0],"min":[0],"type":"SCALAR"},{"bufferView":19,"componentType":5126,"count":1,"max":[-0.03125,0.22324219346046448,0.25],"min":[-0.03125,0.22324219346046448,0.25],"type":"VEC3"}]}