{"asset":{"version":"2.0","generator":"Blockbench 4.9.0 glTF exporter"},"scenes":[{"nodes":[11],"name":"blockbench_export"}],"scene":0,"nodes":[{"translation":[0.375,-0.6875,0],"name":"RightHand"},{"translation":[-0.375,0.6000000000000003,-0.625],"name":"R","children":[0]},{"name":"bolt"},{"translation":[0.5,0.5,0.5],"name":"main","children":[2]},{"translation":[0.4853515625,0.49609375,0.5625],"name":"mag"},{"translation":[0.5,0.5,0.5],"name":"handle2"},{"translation":[-0.5,-0.5874999999999997,-1.125],"name":"sa58","children":[3,4,5]},{"translation":[-0.03125,0.2232421874999997,0.25],"name":"bone","children":[1,6]},{"translation":[-0.375,-0.6875,0],"name":"LeftHand"},{"translation":[0.34375,0.8232421875,-0.375],"name":"l","children":[8]},{"translation":[0.53125,0.3642578125,0.875],"name":"bone2","children":[7,9]},{"children":[10]}],"animations":[{"name":"reload_empty_peny","samplers":[{"input":0,"output":1,"interpolation":"LINEAR"},{"input":2,"output":3,"interpolation":"LINEAR"},{"input":4,"output":5,"interpolation":"LINEAR"},{"input":6,"output":7,"interpolation":"LINEAR"},{"input":8,"output":9,"interpolation":"LINEAR"},{"input":10,"output":11,"interpolation":"LINEAR"},{"input":12,"output":13,"interpolation":"LINEAR"},{"input":14,"output":15,"interpolation":"LINEAR"},{"input":16,"output":17,"interpolation":"LINEAR"},{"input":18,"output":19,"interpolation":"LINEAR"},{"input":20,"output":21,"interpolation":"LINEAR"}],"channels":[{"sampler":0,"target":{"node":10,"path":"rotation"}},{"sampler":1,"target":{"node":10,"path":"translation"}},{"sampler":2,"target":{"node":1,"path":"rotation"}},{"sampler":3,"target":{"node":1,"path":"translation"}},{"sampler":4,"target":{"node":1,"path":"scale"}},{"sampler":5,"target":{"node":9,"path":"rotation"}},{"sampler":6,"target":{"node":9,"path":"translation"}},{"sampler":7,"target":{"node":9,"path":"scale"}},{"sampler":8,"target":{"node":4,"path":"rotation"}},{"sampler":9,"target":{"node":4,"path":"translation"}},{"sampler":10,"target":{"node":5,"path":"translation"}}]}],"bufferViews":[{"buffer":0,"byteOffset":0,"byteLength":344},{"buffer":0,"byteOffset":344,"byteLength":1376},{"buffer":0,"byteOffset":1720,"byteLength":340},{"buffer":0,"byteOffset":2060,"byteLength":1020},{"buffer":0,"byteOffset":3080,"byteLength":4},{"buffer":0,"byteOffset":3084,"byteLength":16},{"buffer":0,"byteOffset":3100,"byteLength":4},{"buffer":0,"byteOffset":3104,"byteLength":12},{"buffer":0,"byteOffset":3116,"byteLength":4},{"buffer":0,"byteOffset":3120,"byteLength":12},{"buffer":0,"byteOffset":3132,"byteLength":316},{"buffer":0,"byteOffset":3448,"byteLength":1264},{"buffer":0,"byteOffset":4712,"byteLength":316},{"buffer":0,"byteOffset":5028,"byteLength":948},{"buffer":0,"byteOffset":5976,"byteLength":4},{"buffer":0,"byteOffset":5980,"byteLength":12},{"buffer":0,"byteOffset":5992,"byteLength":128},{"buffer":0,"byteOffset":6120,"byteLength":512},{"buffer":0,"byteOffset":6632,"byteLength":128},{"buffer":0,"byteOffset":6760,"byteLength":384},{"buffer":0,"byteOffset":7144,"byteLength":28},{"buffer":0,"byteOffset":7172,"byteLength":84}],"buffers":[{"byteLength":7256,"uri":"data:application/octet-stream;base64,"}],"accessors":[{"bufferView":0,"componentType":5126,"count":86,"max":[3.5833332538604736],"min":[0.0416666679084301],"type":"SCALAR"},{"bufferView":1,"componentType":5126,"count":86,"max":[0.17659327387809753,0.12724901735782623,0.18690764904022217,1],"min":[-0.010886832140386105,-0.002327985130250454,-0.2971872389316559,0.9362850189208984],"type":"VEC4"},{"bufferView":2,"componentType":5126,"count":85,"max":[3.5416667461395264],"min":[0.0416666679084301],"type":"SCALAR"},{"bufferView":3,"componentType":5126,"count":85,"max":[0.6468750238418579,0.44925782084465027,0.9243749976158142],"min":[0.528124988079071,0.34550780057907104,0.8349999785423279],"type":"VEC3"},{"bufferView":4,"componentType":5126,"count":1,"max":[0],"min":[0],"type":"SCALAR"},{"bufferView":5,"componentType":5126,"count":1,"max":[-0.08233357965946198,0.7269910573959351,-0.6759165525436401,-0.0885549783706665],"min":[-0.08233357965946198,0.7269910573959351,-0.6759165525436401,-0.0885549783706665],"type":"VEC4"},{"bufferView":6,"componentType":5126,"count":1,"max":[0],"min":[0],"type":"SCALAR"},{"bufferView":7,"componentType":5126,"count":1,"max":[0.02250000089406967,-0.2643750011920929,-0.32249999046325684],"min":[0.02250000089406967,-0.2643750011920929,-0.32249999046325684],"type":"VEC3"},{"bufferView":8,"componentType":5126,"count":1,"max":[0],"min":[0],"type":"SCALAR"},{"bufferView":9,"componentType":5126,"count":1,"max":[1,1.5,1],"min":[1,1.5,1],"type":"VEC3"},{"bufferView":10,"componentType":5126,"count":79,"max":[3.2916667461395264],"min":[0.0416666679084301],"type":"SCALAR"},{"bufferView":11,"componentType":5126,"count":79,"max":[-0.023314129561185837,0.8030617833137512,-0.3836435079574585,0.5999650359153748],"min":[-0.4281986951828003,0.5650404095649719,-0.6283984184265137,0.27699440717697144],"type":"VEC4"},{"bufferView":12,"componentType":5126,"count":79,"max":[3.2916667461395264],"min":[0.0416666679084301],"type":"SCALAR"},{"bufferView":13,"componentType":5126,"count":79,"max":[-0.06562499701976776,0.15199218690395355,-0.12999999523162842],"min":[-0.2731249928474426,-1.170507788658142,-0.7599999904632568],"type":"VEC3"},{"bufferView":14,"componentType":5126,"count":1,"max":[0.0416666679084301],"min":[0.0416666679084301],"type":"SCALAR"},{"bufferView":15,"componentType":5126,"count":1,"max":[1,1.5,1],"min":[1,1.5,1],"type":"VEC3"},{"bufferView":16,"componentType":5126,"count":32,"max":[1.75],"min":[0.4583333432674408],"type":"SCALAR"},{"bufferView":17,"componentType":5126,"count":32,"max":[0.44228869676589966,0.18537013232707977,0,1],"min":[0,0,-0.1976044476032257,0.8968727588653564],"type":"VEC4"},{"bufferView":18,"componentType":5126,"count":32,"max":[1.75],"min":[0.4583333432674408],"type":"SCALAR"},{"bufferView":19,"componentType":5126,"count":32,"max":[0.4853515625,0.49609375,0.6812499761581421],"min":[0.34285154938697815,-0.5389062762260437,0.3412500023841858],"type":"VEC3"},{"bufferView":20,"componentType":5126,"count":7,"max":[2.875],"min":[2.625],"type":"SCALAR"},{"bufferView":21,"componentType":5126,"count":7,"max":[0.5,0.5,0.7649999856948853],"min":[0.5,0.5,0.5],"type":"VEC3"}]}