{"asset":{"version":"2.0","generator":"Blockbench 4.9.0 glTF exporter"},"scenes":[{"nodes":[11],"name":"blockbench_export"}],"scene":0,"nodes":[{"translation":[0.375,-0.6875,0],"name":"RightHand"},{"translation":[-0.375,0.6000000000000003,-0.625],"name":"R","children":[0]},{"name":"bolt"},{"translation":[0.5,0.5,0.5],"name":"main","children":[2]},{"translation":[0.4853515625,0.49609375,0.5625],"name":"mag"},{"translation":[0.5,0.5,0.5],"name":"handle2"},{"translation":[-0.5,-0.5874999999999997,-1.125],"name":"sa58","children":[3,4,5]},{"translation":[-0.03125,0.2232421874999997,0.25],"name":"bone","children":[1,6]},{"translation":[-0.375,-0.6875,0],"name":"LeftHand"},{"translation":[0.34375,0.8232421875,-0.375],"name":"l","children":[8]},{"translation":[0.53125,0.3642578125,0.875],"name":"bone2","children":[7,9]},{"children":[10]}],"animations":[{"name":"reload_norm_peny","samplers":[{"input":0,"output":1,"interpolation":"LINEAR"},{"input":2,"output":3,"interpolation":"LINEAR"},{"input":4,"output":5,"interpolation":"LINEAR"},{"input":6,"output":7,"interpolation":"LINEAR"},{"input":8,"output":9,"interpolation":"LINEAR"},{"input":10,"output":11,"interpolation":"LINEAR"},{"input":12,"output":13,"interpolation":"LINEAR"},{"input":14,"output":15,"interpolation":"LINEAR"},{"input":16,"output":17,"interpolation":"LINEAR"},{"input":18,"output":19,"interpolation":"LINEAR"}],"channels":[{"sampler":0,"target":{"node":10,"path":"rotation"}},{"sampler":1,"target":{"node":10,"path":"translation"}},{"sampler":2,"target":{"node":1,"path":"rotation"}},{"sampler":3,"target":{"node":1,"path":"translation"}},{"sampler":4,"target":{"node":1,"path":"scale"}},{"sampler":5,"target":{"node":9,"path":"rotation"}},{"sampler":6,"target":{"node":9,"path":"translation"}},{"sampler":7,"target":{"node":9,"path":"scale"}},{"sampler":8,"target":{"node":4,"path":"rotation"}},{"sampler":9,"target":{"node":4,"path":"translation"}}]}],"bufferViews":[{"buffer":0,"byteOffset":0,"byteLength":264},{"buffer":0,"byteOffset":264,"byteLength":1056},{"buffer":0,"byteOffset":1320,"byteLength":260},{"buffer":0,"byteOffset":1580,"byteLength":780},{"buffer":0,"byteOffset":2360,"byteLength":4},{"buffer":0,"byteOffset":2364,"byteLength":16},{"buffer":0,"byteOffset":2380,"byteLength":4},{"buffer":0,"byteOffset":2384,"byteLength":12},{"buffer":0,"byteOffset":2396,"byteLength":4},{"buffer":0,"byteOffset":2400,"byteLength":12},{"buffer":0,"byteOffset":2412,"byteLength":244},{"buffer":0,"byteOffset":2656,"byteLength":976},{"buffer":0,"byteOffset":3632,"byteLength":244},{"buffer":0,"byteOffset":3876,"byteLength":732},{"buffer":0,"byteOffset":4608,"byteLength":4},{"buffer":0,"byteOffset":4612,"byteLength":12},{"buffer":0,"byteOffset":4624,"byteLength":124},{"buffer":0,"byteOffset":4748,"byteLength":496},{"buffer":0,"byteOffset":5244,"byteLength":124},{"buffer":0,"byteOffset":5368,"byteLength":372}],"buffers":[{"byteLength":5740,"uri":"data:application/octet-stream;base64,"}],"accessors":[{"bufferView":0,"componentType":5126,"count":66,"max":[2.75],"min":[0.0416666679084301],"type":"SCALAR"},{"bufferView":1,"componentType":5126,"count":66,"max":[0.17659327387809753,0.1274239718914032,0.020502842962741852,1],"min":[-0.010974258184432983,-0.003128908108919859,-0.2971872389316559,0.9362850189208984],"type":"VEC4"},{"bufferView":2,"componentType":5126,"count":65,"max":[2.7083332538604736],"min":[0.0416666679084301],"type":"SCALAR"},{"bufferView":3,"componentType":5126,"count":65,"max":[0.5806249976158142,0.44925782084465027,0.875],"min":[0.528124988079071,0.34550780057907104,0.8356249928474426],"type":"VEC3"},{"bufferView":4,"componentType":5126,"count":1,"max":[0],"min":[0],"type":"SCALAR"},{"bufferView":5,"componentType":5126,"count":1,"max":[-0.08233357965946198,0.7269910573959351,-0.6759165525436401,-0.0885549783706665],"min":[-0.08233357965946198,0.7269910573959351,-0.6759165525436401,-0.0885549783706665],"type":"VEC4"},{"bufferView":6,"componentType":5126,"count":1,"max":[0],"min":[0],"type":"SCALAR"},{"bufferView":7,"componentType":5126,"count":1,"max":[0.02250000089406967,-0.2643750011920929,-0.32249999046325684],"min":[0.02250000089406967,-0.2643750011920929,-0.32249999046325684],"type":"VEC3"},{"bufferView":8,"componentType":5126,"count":1,"max":[0],"min":[0],"type":"SCALAR"},{"bufferView":9,"componentType":5126,"count":1,"max":[1,1.5,1],"min":[1,1.5,1],"type":"VEC3"},{"bufferView":10,"componentType":5126,"count":61,"max":[2.5416667461395264],"min":[0.0416666679084301],"type":"SCALAR"},{"bufferView":11,"componentType":5126,"count":61,"max":[-0.023314129561185837,0.7235326766967773,-0.4124479293823242,0.5999650359153748],"min":[-0.4281986951828003,0.5650404095649719,-0.6283984184265137,0.31590041518211365],"type":"VEC4"},{"bufferView":12,"componentType":5126,"count":61,"max":[2.5416667461395264],"min":[0.0416666679084301],"type":"SCALAR"},{"bufferView":13,"componentType":5126,"count":61,"max":[-0.06562499701976776,0.03824218735098839,-0.14124999940395355],"min":[-0.2693749964237213,-1.170507788658142,-0.7599999904632568],"type":"VEC3"},{"bufferView":14,"componentType":5126,"count":1,"max":[0.0416666679084301],"min":[0.0416666679084301],"type":"SCALAR"},{"bufferView":15,"componentType":5126,"count":1,"max":[1,1.5,1],"min":[1,1.5,1],"type":"VEC3"},{"bufferView":16,"componentType":5126,"count":31,"max":[1.7083333730697632],"min":[0.4583333432674408],"type":"SCALAR"},{"bufferView":17,"componentType":5126,"count":31,"max":[0.44228869676589966,0.18537013232707977,0,1],"min":[0,0,-0.1976044476032257,0.8968727588653564],"type":"VEC4"},{"bufferView":18,"componentType":5126,"count":31,"max":[1.7083333730697632],"min":[0.4583333432674408],"type":"SCALAR"},{"bufferView":19,"componentType":5126,"count":31,"max":[0.4853515625,0.49609375,0.6812499761581421],"min":[0.34285154938697815,-0.5389062762260437,0.3412500023841858],"type":"VEC3"}]}