{"asset":{"version":"2.0","generator":"Blockbench 4.8.3 glTF exporter"},"scenes":[{"nodes":[9],"name":"blockbench_export"}],"scene":0,"nodes":[{"translation":[0.375,-0.6875,0],"name":"RightHand"},{"translation":[-0.375,0.6000000000000003,-0.625],"name":"R","children":[0]},{"translation":[0.4853515625,0.49609375,0.5625],"name":"mag"},{"translation":[0.5,0.5,0.5],"name":"handle2"},{"translation":[-0.5,-0.5874999999999997,-1.125],"name":"sa58","children":[2,3]},{"translation":[-0.03125,0.2232421874999997,0.25],"name":"bone","children":[1,4]},{"translation":[-0.375,-0.6875,0],"name":"LeftHand"},{"translation":[0.34375,0.8232421875,-0.375],"name":"l","children":[6]},{"translation":[0.53125,0.3642578125,0.875],"name":"bone2","children":[5,7]},{"children":[8]}],"animations":[{"name":"reload_empty","samplers":[{"input":0,"output":1,"interpolation":"LINEAR"},{"input":2,"output":3,"interpolation":"LINEAR"},{"input":4,"output":5,"interpolation":"LINEAR"},{"input":6,"output":7,"interpolation":"LINEAR"},{"input":8,"output":9,"interpolation":"LINEAR"},{"input":10,"output":11,"interpolation":"LINEAR"},{"input":12,"output":13,"interpolation":"LINEAR"},{"input":14,"output":15,"interpolation":"LINEAR"},{"input":16,"output":17,"interpolation":"LINEAR"},{"input":18,"output":19,"interpolation":"LINEAR"},{"input":20,"output":21,"interpolation":"LINEAR"},{"input":22,"output":23,"interpolation":"LINEAR"},{"input":24,"output":25,"interpolation":"LINEAR"}],"channels":[{"sampler":0,"target":{"node":8,"path":"rotation"}},{"sampler":1,"target":{"node":8,"path":"translation"}},{"sampler":2,"target":{"node":1,"path":"rotation"}},{"sampler":3,"target":{"node":1,"path":"translation"}},{"sampler":4,"target":{"node":1,"path":"scale"}},{"sampler":5,"target":{"node":7,"path":"rotation"}},{"sampler":6,"target":{"node":7,"path":"translation"}},{"sampler":7,"target":{"node":7,"path":"scale"}},{"sampler":8,"target":{"node":5,"path":"rotation"}},{"sampler":9,"target":{"node":5,"path":"translation"}},{"sampler":10,"target":{"node":2,"path":"rotation"}},{"sampler":11,"target":{"node":2,"path":"translation"}},{"sampler":12,"target":{"node":3,"path":"translation"}}]}],"bufferViews":[{"buffer":0,"byteOffset":0,"byteLength":40},{"buffer":0,"byteOffset":40,"byteLength":160},{"buffer":0,"byteOffset":200,"byteLength":28},{"buffer":0,"byteOffset":228,"byteLength":84},{"buffer":0,"byteOffset":312,"byteLength":4},{"buffer":0,"byteOffset":316,"byteLength":16},{"buffer":0,"byteOffset":332,"byteLength":4},{"buffer":0,"byteOffset":336,"byteLength":12},{"buffer":0,"byteOffset":348,"byteLength":4},{"buffer":0,"byteOffset":352,"byteLength":12},{"buffer":0,"byteOffset":364,"byteLength":88},{"buffer":0,"byteOffset":452,"byteLength":352},{"buffer":0,"byteOffset":804,"byteLength":80},{"buffer":0,"byteOffset":884,"byteLength":240},{"buffer":0,"byteOffset":1124,"byteLength":4},{"buffer":0,"byteOffset":1128,"byteLength":12},{"buffer":0,"byteOffset":1140,"byteLength":108},{"buffer":0,"byteOffset":1248,"byteLength":432},{"buffer":0,"byteOffset":1680,"byteLength":96},{"buffer":0,"byteOffset":1776,"byteLength":288},{"buffer":0,"byteOffset":2064,"byteLength":24},{"buffer":0,"byteOffset":2088,"byteLength":96},{"buffer":0,"byteOffset":2184,"byteLength":28},{"buffer":0,"byteOffset":2212,"byteLength":84},{"buffer":0,"byteOffset":2296,"byteLength":16},{"buffer":0,"byteOffset":2312,"byteLength":48}],"buffers":[{"byteLength":2360,"uri":"data:application/octet-stream;base64,"}],"accessors":[{"bufferView":0,"componentType":5126,"count":10,"max":[2.875],"min":[0],"type":"SCALAR"},{"bufferView":1,"componentType":5126,"count":10,"max":[0.034523166716098785,0.02614286169409752,0.02181488461792469,1],"min":[0,0,-0.07995246350765228,0.9960765242576599],"type":"VEC4"},{"bufferView":2,"componentType":5126,"count":7,"max":[2.7083332538604736],"min":[0],"type":"SCALAR"},{"bufferView":3,"componentType":5126,"count":7,"max":[0.53125,0.3779296875,0.875],"min":[0.53125,0.3642578125,0.875],"type":"VEC3"},{"bufferView":4,"componentType":5126,"count":1,"max":[0],"min":[0],"type":"SCALAR"},{"bufferView":5,"componentType":5126,"count":1,"max":[-0.11553824692964554,0.722439169883728,-0.6711745262145996,-0.11940408498048782],"min":[-0.11553824692964554,0.722439169883728,-0.6711745262145996,-0.11940408498048782],"type":"VEC4"},{"bufferView":6,"componentType":5126,"count":1,"max":[0],"min":[0],"type":"SCALAR"},{"bufferView":7,"componentType":5126,"count":1,"max":[0.0224609375,-0.2642578184604645,-0.322265625],"min":[0.0224609375,-0.2642578184604645,-0.322265625],"type":"VEC3"},{"bufferView":8,"componentType":5126,"count":1,"max":[0],"min":[0],"type":"SCALAR"},{"bufferView":9,"componentType":5126,"count":1,"max":[1,1.5,1],"min":[1,1.5,1],"type":"VEC3"},{"bufferView":10,"componentType":5126,"count":22,"max":[2.875],"min":[0],"type":"SCALAR"},{"bufferView":11,"componentType":5126,"count":22,"max":[-0.0068535818718373775,0.8572826385498047,-0.2592373788356781,0.655450165271759],"min":[-0.3744124472141266,0.5145323872566223,-0.7610435485839844,0.1907416582107544],"type":"VEC4"},{"bufferView":12,"componentType":5126,"count":20,"max":[2.875],"min":[0],"type":"SCALAR"},{"bufferView":13,"componentType":5126,"count":20,"max":[-0.0625,0.1091015636920929,-0.01914062537252903],"min":[-0.9925000071525574,-0.8387109637260437,-0.7599999904632568],"type":"VEC3"},{"bufferView":14,"componentType":5126,"count":1,"max":[0],"min":[0],"type":"SCALAR"},{"bufferView":15,"componentType":5126,"count":1,"max":[1,1.5,1],"min":[1,1.5,1],"type":"VEC3"},{"bufferView":16,"componentType":5126,"count":27,"max":[2.875],"min":[0.0416666679084301],"type":"SCALAR"},{"bufferView":17,"componentType":5126,"count":27,"max":[0.117947056889534,0.18460099399089813,0.2547968327999115,1],"min":[-0.03032788075506687,-0.010154192335903645,-0.22932058572769165,0.955285906791687],"type":"VEC4"},{"bufferView":18,"componentType":5126,"count":24,"max":[2.875],"min":[0.0416666679084301],"type":"SCALAR"},{"bufferView":19,"componentType":5126,"count":24,"max":[0.07500000298023224,0.32863280177116394,0.41214844584465027],"min":[-0.04703124985098839,0.12054687738418579,0.25],"type":"VEC3"},{"bufferView":20,"componentType":5126,"count":6,"max":[1.4583333730697632],"min":[0.3333333432674408],"type":"SCALAR"},{"bufferView":21,"componentType":5126,"count":6,"max":[0.1238500103354454,0.008762801066040993,0,1],"min":[-0.16368979215621948,-0.12578430771827698,-0.1877564936876297,0.9602788090705872],"type":"VEC4"},{"bufferView":22,"componentType":5126,"count":7,"max":[1.4583333730697632],"min":[0.3333333432674408],"type":"SCALAR"},{"bufferView":23,"componentType":5126,"count":7,"max":[0.4853515625,0.49609375,0.5625],"min":[-0.1639062464237213,-0.669921875,0.4375],"type":"VEC3"},{"bufferView":24,"componentType":5126,"count":4,"max":[2.375],"min":[2.0833332538604736],"type":"SCALAR"},{"bufferView":25,"componentType":5126,"count":4,"max":[0.5,0.5,0.7648046612739563],"min":[0.5,0.5,0.5],"type":"VEC3"}]}