{"asset":{"version":"2.0","generator":"Blockbench 4.8.3 glTF exporter"},"scenes":[{"nodes":[9],"name":"blockbench_export"}],"scene":0,"nodes":[{"translation":[0.375,-0.6875,0],"name":"RightHand"},{"translation":[-0.375,0.6000000000000003,-0.625],"name":"R","children":[0]},{"translation":[0.4853515625,0.49609375,0.5625],"name":"mag"},{"translation":[0.5,0.5,0.5],"name":"handle2"},{"translation":[-0.5,-0.5874999999999997,-1.125],"name":"sa58","children":[2,3]},{"translation":[-0.03125,0.2232421874999997,0.25],"name":"bone","children":[1,4]},{"translation":[-0.375,-0.6875,0],"name":"LeftHand"},{"translation":[0.34375,0.8232421875,-0.375],"name":"l","children":[6]},{"translation":[0.53125,0.3642578125,0.875],"name":"bone2","children":[5,7]},{"children":[8]}],"animations":[{"name":"inspect","samplers":[{"input":0,"output":1,"interpolation":"LINEAR"},{"input":2,"output":3,"interpolation":"LINEAR"},{"input":4,"output":5,"interpolation":"LINEAR"},{"input":6,"output":7,"interpolation":"LINEAR"},{"input":8,"output":9,"interpolation":"LINEAR"},{"input":10,"output":11,"interpolation":"LINEAR"},{"input":12,"output":13,"interpolation":"LINEAR"},{"input":14,"output":15,"interpolation":"LINEAR"},{"input":16,"output":17,"interpolation":"LINEAR"},{"input":18,"output":19,"interpolation":"LINEAR"}],"channels":[{"sampler":0,"target":{"node":8,"path":"rotation"}},{"sampler":1,"target":{"node":8,"path":"translation"}},{"sampler":2,"target":{"node":1,"path":"rotation"}},{"sampler":3,"target":{"node":1,"path":"translation"}},{"sampler":4,"target":{"node":1,"path":"scale"}},{"sampler":5,"target":{"node":7,"path":"rotation"}},{"sampler":6,"target":{"node":7,"path":"translation"}},{"sampler":7,"target":{"node":7,"path":"scale"}},{"sampler":8,"target":{"node":5,"path":"rotation"}},{"sampler":9,"target":{"node":5,"path":"translation"}}]}],"bufferViews":[{"buffer":0,"byteOffset":0,"byteLength":88},{"buffer":0,"byteOffset":88,"byteLength":352},{"buffer":0,"byteOffset":440,"byteLength":20},{"buffer":0,"byteOffset":460,"byteLength":60},{"buffer":0,"byteOffset":520,"byteLength":4},{"buffer":0,"byteOffset":524,"byteLength":16},{"buffer":0,"byteOffset":540,"byteLength":4},{"buffer":0,"byteOffset":544,"byteLength":12},{"buffer":0,"byteOffset":556,"byteLength":4},{"buffer":0,"byteOffset":560,"byteLength":12},{"buffer":0,"byteOffset":572,"byteLength":96},{"buffer":0,"byteOffset":668,"byteLength":384},{"buffer":0,"byteOffset":1052,"byteLength":72},{"buffer":0,"byteOffset":1124,"byteLength":216},{"buffer":0,"byteOffset":1340,"byteLength":12},{"buffer":0,"byteOffset":1352,"byteLength":36},{"buffer":0,"byteOffset":1388,"byteLength":100},{"buffer":0,"byteOffset":1488,"byteLength":400},{"buffer":0,"byteOffset":1888,"byteLength":60},{"buffer":0,"byteOffset":1948,"byteLength":180}],"buffers":[{"byteLength":2128,"uri":"data:application/octet-stream;base64,"}],"accessors":[{"bufferView":0,"componentType":5126,"count":22,"max":[3.9166667461395264],"min":[0],"type":"SCALAR"},{"bufferView":1,"componentType":5126,"count":22,"max":[0.00960804894566536,0.42498844861984253,0.021811561658978462,1],"min":[-0.04714498296380043,0,-0.10052955150604248,0.8997851610183716],"type":"VEC4"},{"bufferView":2,"componentType":5126,"count":5,"max":[3.75],"min":[0],"type":"SCALAR"},{"bufferView":3,"componentType":5126,"count":5,"max":[0.53125,0.3642578125,0.875],"min":[0.5166015625,0.29296875,0.809374988079071],"type":"VEC3"},{"bufferView":4,"componentType":5126,"count":1,"max":[0],"min":[0],"type":"SCALAR"},{"bufferView":5,"componentType":5126,"count":1,"max":[-0.11553824692964554,0.722439169883728,-0.6711745262145996,-0.11940408498048782],"min":[-0.11553824692964554,0.722439169883728,-0.6711745262145996,-0.11940408498048782],"type":"VEC4"},{"bufferView":6,"componentType":5126,"count":1,"max":[0],"min":[0],"type":"SCALAR"},{"bufferView":7,"componentType":5126,"count":1,"max":[0.0224609375,-0.2642578184604645,-0.322265625],"min":[0.0224609375,-0.2642578184604645,-0.322265625],"type":"VEC3"},{"bufferView":8,"componentType":5126,"count":1,"max":[0],"min":[0],"type":"SCALAR"},{"bufferView":9,"componentType":5126,"count":1,"max":[1,1.5,1],"min":[1,1.5,1],"type":"VEC3"},{"bufferView":10,"componentType":5126,"count":24,"max":[3.875],"min":[0],"type":"SCALAR"},{"bufferView":11,"componentType":5126,"count":24,"max":[-0.0697515606880188,0.5145323872566223,-0.4073118567466736,0.8460828065872192],"min":[-0.25510042905807495,0.2684389054775238,-0.6102429032325745,0.5615108013153076],"type":"VEC4"},{"bufferView":12,"componentType":5126,"count":18,"max":[3.875],"min":[0],"type":"SCALAR"},{"bufferView":13,"componentType":5126,"count":18,"max":[0.22554688155651093,0.2014453113079071,-0.6841796636581421],"min":[-0.19929687678813934,-0.04828124865889549,-0.7763671875],"type":"VEC3"},{"bufferView":14,"componentType":5126,"count":3,"max":[3.875],"min":[0],"type":"SCALAR"},{"bufferView":15,"componentType":5126,"count":3,"max":[1,1.5,1],"min":[1,1.5,1],"type":"VEC3"},{"bufferView":16,"componentType":5126,"count":25,"max":[3.875],"min":[0],"type":"SCALAR"},{"bufferView":17,"componentType":5126,"count":25,"max":[0.05945486202836037,0.13603642582893372,0.7126327157020569,1],"min":[-0.023990264162421227,-0.1720210611820221,-0.1859893649816513,0.6785233020782471],"type":"VEC4"},{"bufferView":18,"componentType":5126,"count":15,"max":[3.875],"min":[0],"type":"SCALAR"},{"bufferView":19,"componentType":5126,"count":15,"max":[0.15562500059604645,0.22324219346046448,0.2668749988079071],"min":[-0.046875,-0.0052734375931322575,0.15406249463558197],"type":"VEC3"}]}