{"asset":{"version":"2.0","generator":"Blockbench 4.8.3 glTF exporter"},"scenes":[{"nodes":[9],"name":"blockbench_export"}],"scene":0,"nodes":[{"translation":[-0.375,-0.6875,0],"name":"LeftHand"},{"translation":[0.3291015625,0.921875,-0.8037109375],"name":"L","children":[0]},{"translation":[0.375,-0.75,0],"name":"RightHand"},{"translation":[-0.375,0.875,-0.8125],"name":"R","children":[2]},{"translation":[0.455078125,0.375,0.578125],"name":"svd_bolt"},{"translation":[0.5009765625,0.2890625,0.865234375],"name":"svd_magazine"},{"translation":[-0.5,-0.375,-1.3125],"name":"svd2","children":[4,5]},{"translation":[-0.0458984375,0.109375,0.0087890625],"name":"bone","children":[3,6]},{"translation":[0.5458984375,0.265625,1.3037109375],"name":"bone2","children":[1,7]},{"children":[8]}],"animations":[{"name":"inspect","samplers":[{"input":0,"output":1,"interpolation":"LINEAR"},{"input":2,"output":3,"interpolation":"LINEAR"},{"input":4,"output":5,"interpolation":"LINEAR"},{"input":6,"output":7,"interpolation":"LINEAR"},{"input":8,"output":9,"interpolation":"LINEAR"},{"input":10,"output":11,"interpolation":"LINEAR"},{"input":12,"output":13,"interpolation":"LINEAR"},{"input":14,"output":15,"interpolation":"LINEAR"},{"input":16,"output":17,"interpolation":"LINEAR"},{"input":18,"output":19,"interpolation":"LINEAR"}],"channels":[{"sampler":0,"target":{"node":1,"path":"rotation"}},{"sampler":1,"target":{"node":1,"path":"translation"}},{"sampler":2,"target":{"node":1,"path":"scale"}},{"sampler":3,"target":{"node":3,"path":"rotation"}},{"sampler":4,"target":{"node":3,"path":"translation"}},{"sampler":5,"target":{"node":3,"path":"scale"}},{"sampler":6,"target":{"node":8,"path":"rotation"}},{"sampler":7,"target":{"node":8,"path":"translation"}},{"sampler":8,"target":{"node":7,"path":"rotation"}},{"sampler":9,"target":{"node":7,"path":"translation"}}]}],"bufferViews":[{"buffer":0,"byteOffset":0,"byteLength":72},{"buffer":0,"byteOffset":72,"byteLength":288},{"buffer":0,"byteOffset":360,"byteLength":60},{"buffer":0,"byteOffset":420,"byteLength":180},{"buffer":0,"byteOffset":600,"byteLength":12},{"buffer":0,"byteOffset":612,"byteLength":36},{"buffer":0,"byteOffset":648,"byteLength":4},{"buffer":0,"byteOffset":652,"byteLength":16},{"buffer":0,"byteOffset":668,"byteLength":4},{"buffer":0,"byteOffset":672,"byteLength":12},{"buffer":0,"byteOffset":684,"byteLength":4},{"buffer":0,"byteOffset":688,"byteLength":12},{"buffer":0,"byteOffset":700,"byteLength":60},{"buffer":0,"byteOffset":760,"byteLength":240},{"buffer":0,"byteOffset":1000,"byteLength":48},{"buffer":0,"byteOffset":1048,"byteLength":144},{"buffer":0,"byteOffset":1192,"byteLength":84},{"buffer":0,"byteOffset":1276,"byteLength":336},{"buffer":0,"byteOffset":1612,"byteLength":52},{"buffer":0,"byteOffset":1664,"byteLength":156}],"buffers":[{"byteLength":1820,"uri":"data:application/octet-stream;base64,"}],"accessors":[{"bufferView":0,"componentType":5126,"count":18,"max":[3.4166667461395264],"min":[0.1666666716337204],"type":"SCALAR"},{"bufferView":1,"componentType":5126,"count":18,"max":[0.0782729908823967,0.7877117395401001,-0.49991536140441895,0.4550778865814209],"min":[-0.13852602243423462,0.2770845890045166,-0.8885824680328369,0.31030309200286865],"type":"VEC4"},{"bufferView":2,"componentType":5126,"count":15,"max":[3.4166667461395264],"min":[0.1666666716337204],"type":"SCALAR"},{"bufferView":3,"componentType":5126,"count":15,"max":[-0.12531250715255737,0.0361328125,-0.5292578339576721],"min":[-0.22652344405651093,-0.20910155773162842,-0.921875],"type":"VEC3"},{"bufferView":4,"componentType":5126,"count":3,"max":[3.4166667461395264],"min":[0.1666666716337204],"type":"SCALAR"},{"bufferView":5,"componentType":5126,"count":3,"max":[1,1.5,1],"min":[1,1.5,1],"type":"VEC3"},{"bufferView":6,"componentType":5126,"count":1,"max":[0],"min":[0],"type":"SCALAR"},{"bufferView":7,"componentType":5126,"count":1,"max":[-0.10038318485021591,0.7600789666175842,-0.6360419392585754,-0.08748628944158554],"min":[-0.10038318485021591,0.7600789666175842,-0.6360419392585754,-0.08748628944158554],"type":"VEC4"},{"bufferView":8,"componentType":5126,"count":1,"max":[0],"min":[0],"type":"SCALAR"},{"bufferView":9,"componentType":5126,"count":1,"max":[0.02734375,-0.154296875,-0.10546875],"min":[0.02734375,-0.154296875,-0.10546875],"type":"VEC3"},{"bufferView":10,"componentType":5126,"count":1,"max":[0],"min":[0],"type":"SCALAR"},{"bufferView":11,"componentType":5126,"count":1,"max":[1,1.5,1],"min":[1,1.5,1],"type":"VEC3"},{"bufferView":12,"componentType":5126,"count":15,"max":[3.4166667461395264],"min":[0],"type":"SCALAR"},{"bufferView":13,"componentType":5126,"count":15,"max":[0.3733184337615967,0.06297188997268677,0.589189350605011,1],"min":[0,-0.14285214245319366,-0.15556484460830688,0.7599008083343506],"type":"VEC4"},{"bufferView":14,"componentType":5126,"count":12,"max":[3.4166667461395264],"min":[0],"type":"SCALAR"},{"bufferView":15,"componentType":5126,"count":12,"max":[0.5458984375,0.30179688334465027,1.3274608850479126],"min":[0.5458984375,0.265625,1.3037109375],"type":"VEC3"},{"bufferView":16,"componentType":5126,"count":21,"max":[3.4166667461395264],"min":[0],"type":"SCALAR"},{"bufferView":17,"componentType":5126,"count":21,"max":[0.017430439591407776,0.04198601469397545,0.16746889054775238,1],"min":[-0.09285947680473328,-0.0009460408473387361,-0.11087677627801895,0.9822050333023071],"type":"VEC4"},{"bufferView":18,"componentType":5126,"count":13,"max":[3.4166667461395264],"min":[0],"type":"SCALAR"},{"bufferView":19,"componentType":5126,"count":13,"max":[-0.0458984375,0.13171875476837158,0.13152343034744263],"min":[-0.09964843839406967,0.109375,0.001953125],"type":"VEC3"}]}