{"asset":{"version":"2.0","generator":"Blockbench 4.9.2 glTF exporter"},"scenes":[{"nodes":[10],"name":"blockbench_export"}],"scene":0,"nodes":[{"translation":[-0.375,-0.6875,0],"name":"LeftHand"},{"translation":[0.3291015625,0.921875,-0.8037109375],"name":"L","children":[0]},{"translation":[0.375,-0.75,0],"name":"RightHand"},{"translation":[-0.375,0.875,-0.8125],"name":"R","children":[2]},{"translation":[0.455078125,0.375,0.578125],"name":"svd_bolt"},{"translation":[-0.0009765625,0.2109375,-0.365234375],"name":"762x54"},{"translation":[0.5009765625,0.2890625,0.865234375],"name":"svd_magazine","children":[5]},{"translation":[-0.5,-0.375,-1.3125],"name":"svd2","children":[4,6]},{"translation":[-0.0458984375,0.109375,0.0087890625],"name":"bone","children":[3,7]},{"translation":[0.5458984375,0.265625,1.3037109375],"name":"bone2","children":[1,8]},{"children":[9]}],"animations":[{"name":"reload_norm","samplers":[{"input":0,"output":1,"interpolation":"LINEAR"},{"input":2,"output":3,"interpolation":"LINEAR"},{"input":4,"output":5,"interpolation":"LINEAR"},{"input":6,"output":7,"interpolation":"LINEAR"},{"input":8,"output":9,"interpolation":"LINEAR"},{"input":10,"output":11,"interpolation":"LINEAR"},{"input":12,"output":13,"interpolation":"LINEAR"},{"input":14,"output":15,"interpolation":"LINEAR"},{"input":16,"output":17,"interpolation":"LINEAR"},{"input":18,"output":19,"interpolation":"LINEAR"},{"input":20,"output":21,"interpolation":"LINEAR"},{"input":22,"output":23,"interpolation":"LINEAR"}],"channels":[{"sampler":0,"target":{"node":1,"path":"rotation"}},{"sampler":1,"target":{"node":1,"path":"translation"}},{"sampler":2,"target":{"node":1,"path":"scale"}},{"sampler":3,"target":{"node":3,"path":"rotation"}},{"sampler":4,"target":{"node":3,"path":"translation"}},{"sampler":5,"target":{"node":3,"path":"scale"}},{"sampler":6,"target":{"node":9,"path":"rotation"}},{"sampler":7,"target":{"node":9,"path":"translation"}},{"sampler":8,"target":{"node":8,"path":"rotation"}},{"sampler":9,"target":{"node":8,"path":"translation"}},{"sampler":10,"target":{"node":6,"path":"rotation"}},{"sampler":11,"target":{"node":6,"path":"translation"}}]}],"bufferViews":[{"buffer":0,"byteOffset":0,"byteLength":200},{"buffer":0,"byteOffset":200,"byteLength":800},{"buffer":0,"byteOffset":1000,"byteLength":200},{"buffer":0,"byteOffset":1200,"byteLength":600},{"buffer":0,"byteOffset":1800,"byteLength":8},{"buffer":0,"byteOffset":1808,"byteLength":24},{"buffer":0,"byteOffset":1832,"byteLength":8},{"buffer":0,"byteOffset":1840,"byteLength":32},{"buffer":0,"byteOffset":1872,"byteLength":156},{"buffer":0,"byteOffset":2028,"byteLength":468},{"buffer":0,"byteOffset":2496,"byteLength":112},{"buffer":0,"byteOffset":2608,"byteLength":336},{"buffer":0,"byteOffset":2944,"byteLength":216},{"buffer":0,"byteOffset":3160,"byteLength":864},{"buffer":0,"byteOffset":4024,"byteLength":220},{"buffer":0,"byteOffset":4244,"byteLength":660},{"buffer":0,"byteOffset":4904,"byteLength":188},{"buffer":0,"byteOffset":5092,"byteLength":752},{"buffer":0,"byteOffset":5844,"byteLength":192},{"buffer":0,"byteOffset":6036,"byteLength":576},{"buffer":0,"byteOffset":6612,"byteLength":32},{"buffer":0,"byteOffset":6644,"byteLength":128},{"buffer":0,"byteOffset":6772,"byteLength":24},{"buffer":0,"byteOffset":6796,"byteLength":72}],"buffers":[{"byteLength":6868,"uri":"data:application/octet-stream;base64,"}],"accessors":[{"bufferView":0,"componentType":5126,"count":50,"max":[2.875],"min":[0],"type":"SCALAR"},{"bufferView":1,"componentType":5126,"count":50,"max":[0.20383237302303314,0.7935711145401001,-0.329996258020401,0.5640869736671448],"min":[-0.32046273350715637,0.5078963041305542,-0.7318558692932129,0.3445664048194885],"type":"VEC4"},{"bufferView":2,"componentType":5126,"count":50,"max":[2.8333332538604736],"min":[0],"type":"SCALAR"},{"bufferView":3,"componentType":5126,"count":50,"max":[-0.06298828125,0.5437962412834167,-0.44160547852516174],"min":[-0.45036134123802185,-0.7913841605186462,-1.0190658569335938],"type":"VEC3"},{"bufferView":4,"componentType":5126,"count":2,"max":[0.0416666679084301],"min":[0],"type":"SCALAR"},{"bufferView":5,"componentType":5126,"count":2,"max":[1,1.5,1],"min":[1,1.5,1],"type":"VEC3"},{"bufferView":6,"componentType":5126,"count":2,"max":[0.0416666679084301],"min":[0],"type":"SCALAR"},{"bufferView":7,"componentType":5126,"count":2,"max":[-0.10038318485021591,0.7600789666175842,-0.6360419392585754,-0.08748628944158554],"min":[-0.10038318485021591,0.7600789666175842,-0.6360419392585754,-0.08748628944158554],"type":"VEC4"},{"bufferView":8,"componentType":5126,"count":39,"max":[2.8333332538604736],"min":[0],"type":"SCALAR"},{"bufferView":9,"componentType":5126,"count":39,"max":[0.02734375,-0.154296875,-0.10546875],"min":[0.02734375,-0.154296875,-0.10546875],"type":"VEC3"},{"bufferView":10,"componentType":5126,"count":28,"max":[2.8333332538604736],"min":[0],"type":"SCALAR"},{"bufferView":11,"componentType":5126,"count":28,"max":[1,1.5,1],"min":[1,1.5,1],"type":"VEC3"},{"bufferView":12,"componentType":5126,"count":54,"max":[3.25],"min":[0],"type":"SCALAR"},{"bufferView":13,"componentType":5126,"count":54,"max":[0.052809614688158035,0.035777557641267776,0.03076888993382454,1],"min":[-0.07921447604894638,-0.034049082547426224,-0.03902287036180496,0.9967048168182373],"type":"VEC4"},{"bufferView":14,"componentType":5126,"count":55,"max":[3.25],"min":[0],"type":"SCALAR"},{"bufferView":15,"componentType":5126,"count":55,"max":[0.558349609375,0.270751953125,1.3970507383346558],"min":[0.5306177735328674,0.228271484375,1.242919921875],"type":"VEC3"},{"bufferView":16,"componentType":5126,"count":47,"max":[2.875],"min":[0],"type":"SCALAR"},{"bufferView":17,"componentType":5126,"count":47,"max":[0.45946377515792847,0.2567574977874756,0,1],"min":[0,0,-0.35914888978004456,0.8097271919250488],"type":"VEC4"},{"bufferView":18,"componentType":5126,"count":48,"max":[2.8333332538604736],"min":[0],"type":"SCALAR"},{"bufferView":19,"componentType":5126,"count":48,"max":[0.1437695324420929,0.109375,0.086669921875],"min":[-0.0458984375,-0.029072266072034836,0.0087890625],"type":"VEC3"},{"bufferView":20,"componentType":5126,"count":8,"max":[2.25],"min":[0.75],"type":"SCALAR"},{"bufferView":21,"componentType":5126,"count":8,"max":[0.2777279019355774,0.006544922478497028,0.062352731823921204,1],"min":[-0.3572902977466583,-0.5033125281333923,-0.005463910289108753,0.8124165534973145],"type":"VEC4"},{"bufferView":22,"componentType":5126,"count":6,"max":[2.2083332538604736],"min":[0.7083333134651184],"type":"SCALAR"},{"bufferView":23,"componentType":5126,"count":6,"max":[1.0084375143051147,0.2890625,1.186279296875],"min":[0.5009765625,-0.984375,0.84912109375],"type":"VEC3"}]}