{"asset":{"version":"2.0","generator":"Blockbench 4.9.2 glTF exporter"},"scenes":[{"nodes":[10],"name":"blockbench_export"}],"scene":0,"nodes":[{"translation":[-0.375,-0.6875,0],"name":"LeftHand"},{"translation":[0.3291015625,0.921875,-0.8037109375],"name":"L","children":[0]},{"translation":[0.375,-0.75,0],"name":"RightHand"},{"translation":[-0.375,0.875,-0.8125],"name":"R","children":[2]},{"translation":[0.455078125,0.375,0.578125],"name":"svd_bolt"},{"translation":[-0.0009765625,0.2109375,-0.365234375],"name":"762x54"},{"translation":[0.5009765625,0.2890625,0.865234375],"name":"svd_magazine","children":[5]},{"translation":[-0.5,-0.375,-1.3125],"name":"svd2","children":[4,6]},{"translation":[-0.0458984375,0.109375,0.0087890625],"name":"bone","children":[3,7]},{"translation":[0.5458984375,0.265625,1.3037109375],"name":"bone2","children":[1,8]},{"children":[9]}],"animations":[{"name":"static_state","samplers":[{"input":0,"output":1,"interpolation":"LINEAR"},{"input":2,"output":3,"interpolation":"LINEAR"},{"input":4,"output":5,"interpolation":"LINEAR"},{"input":6,"output":7,"interpolation":"LINEAR"},{"input":8,"output":9,"interpolation":"LINEAR"},{"input":10,"output":11,"interpolation":"LINEAR"}],"channels":[{"sampler":0,"target":{"node":1,"path":"rotation"}},{"sampler":1,"target":{"node":1,"path":"translation"}},{"sampler":2,"target":{"node":1,"path":"scale"}},{"sampler":3,"target":{"node":3,"path":"rotation"}},{"sampler":4,"target":{"node":3,"path":"translation"}},{"sampler":5,"target":{"node":3,"path":"scale"}}]}],"bufferViews":[{"buffer":0,"byteOffset":0,"byteLength":4},{"buffer":0,"byteOffset":4,"byteLength":16},{"buffer":0,"byteOffset":20,"byteLength":4},{"buffer":0,"byteOffset":24,"byteLength":12},{"buffer":0,"byteOffset":36,"byteLength":4},{"buffer":0,"byteOffset":40,"byteLength":12},{"buffer":0,"byteOffset":52,"byteLength":4},{"buffer":0,"byteOffset":56,"byteLength":16},{"buffer":0,"byteOffset":72,"byteLength":4},{"buffer":0,"byteOffset":76,"byteLength":12},{"buffer":0,"byteOffset":88,"byteLength":4},{"buffer":0,"byteOffset":92,"byteLength":12}],"buffers":[{"byteLength":104,"uri":"data:application/octet-stream;base64,"}],"accessors":[{"bufferView":0,"componentType":5126,"count":1,"max":[0],"min":[0],"type":"SCALAR"},{"bufferView":1,"componentType":5126,"count":1,"max":[-0.32046273350715637,0.542043149471283,-0.5637680888175964,0.5344702005386353],"min":[-0.32046273350715637,0.542043149471283,-0.5637680888175964,0.5344702005386353],"type":"VEC4"},{"bufferView":2,"componentType":5126,"count":1,"max":[0],"min":[0],"type":"SCALAR"},{"bufferView":3,"componentType":5126,"count":1,"max":[-0.06298828125,-0.005615234375,-0.921875],"min":[-0.06298828125,-0.005615234375,-0.921875],"type":"VEC3"},{"bufferView":4,"componentType":5126,"count":1,"max":[0],"min":[0],"type":"SCALAR"},{"bufferView":5,"componentType":5126,"count":1,"max":[1,1.5,1],"min":[1,1.5,1],"type":"VEC3"},{"bufferView":6,"componentType":5126,"count":1,"max":[0],"min":[0],"type":"SCALAR"},{"bufferView":7,"componentType":5126,"count":1,"max":[-0.10038318485021591,0.7600789666175842,-0.6360419392585754,-0.08748628944158554],"min":[-0.10038318485021591,0.7600789666175842,-0.6360419392585754,-0.08748628944158554],"type":"VEC4"},{"bufferView":8,"componentType":5126,"count":1,"max":[0],"min":[0],"type":"SCALAR"},{"bufferView":9,"componentType":5126,"count":1,"max":[0.02734375,-0.154296875,-0.10546875],"min":[0.02734375,-0.154296875,-0.10546875],"type":"VEC3"},{"bufferView":10,"componentType":5126,"count":1,"max":[0],"min":[0],"type":"SCALAR"},{"bufferView":11,"componentType":5126,"count":1,"max":[1,1.5,1],"min":[1,1.5,1],"type":"VEC3"}]}