{"asset":{"version":"2.0","generator":"Blockbench 4.9.3 glTF exporter"},"scenes":[{"nodes":[10],"name":"blockbench_export"}],"scene":0,"nodes":[{"translation":[-0.375,-0.6875,0],"name":"LeftHand"},{"translation":[0.3291015625,0.921875,-0.8037109375],"name":"L","children":[0]},{"translation":[0.375,-0.75,0],"name":"RightHand"},{"translation":[-0.375,0.875,-0.8125],"name":"R","children":[2]},{"translation":[0.455078125,0.375,0.578125],"name":"svd_bolt"},{"translation":[-0.0009765625,0.2109375,-0.365234375],"name":"762x54"},{"translation":[0.5009765625,0.2890625,0.865234375],"name":"svd_magazine","children":[5]},{"translation":[-0.5,-0.375,-1.3125],"name":"svd2","children":[4,6]},{"translation":[-0.0458984375,0.109375,0.0087890625],"name":"bone","children":[3,7]},{"translation":[0.5458984375,0.265625,1.3037109375],"name":"bone2","children":[1,8]},{"children":[9]}],"animations":[{"name":"reload_empty","samplers":[{"input":0,"output":1,"interpolation":"LINEAR"},{"input":2,"output":3,"interpolation":"LINEAR"},{"input":4,"output":5,"interpolation":"LINEAR"},{"input":6,"output":7,"interpolation":"LINEAR"},{"input":8,"output":9,"interpolation":"LINEAR"},{"input":10,"output":11,"interpolation":"LINEAR"},{"input":12,"output":13,"interpolation":"LINEAR"},{"input":14,"output":15,"interpolation":"LINEAR"},{"input":16,"output":17,"interpolation":"LINEAR"},{"input":18,"output":19,"interpolation":"LINEAR"},{"input":20,"output":21,"interpolation":"LINEAR"},{"input":22,"output":23,"interpolation":"LINEAR"},{"input":24,"output":25,"interpolation":"LINEAR"},{"input":26,"output":27,"interpolation":"LINEAR"},{"input":28,"output":29,"interpolation":"LINEAR"}],"channels":[{"sampler":0,"target":{"node":1,"path":"rotation"}},{"sampler":1,"target":{"node":1,"path":"translation"}},{"sampler":2,"target":{"node":1,"path":"scale"}},{"sampler":3,"target":{"node":3,"path":"rotation"}},{"sampler":4,"target":{"node":3,"path":"translation"}},{"sampler":5,"target":{"node":3,"path":"scale"}},{"sampler":6,"target":{"node":9,"path":"rotation"}},{"sampler":7,"target":{"node":9,"path":"translation"}},{"sampler":8,"target":{"node":8,"path":"rotation"}},{"sampler":9,"target":{"node":8,"path":"translation"}},{"sampler":10,"target":{"node":6,"path":"rotation"}},{"sampler":11,"target":{"node":6,"path":"translation"}},{"sampler":12,"target":{"node":4,"path":"translation"}},{"sampler":13,"target":{"node":5,"path":"translation"}},{"sampler":14,"target":{"node":5,"path":"scale"}}]}],"bufferViews":[{"buffer":0,"byteOffset":0,"byteLength":280},{"buffer":0,"byteOffset":280,"byteLength":1120},{"buffer":0,"byteOffset":1400,"byteLength":276},{"buffer":0,"byteOffset":1676,"byteLength":828},{"buffer":0,"byteOffset":2504,"byteLength":8},{"buffer":0,"byteOffset":2512,"byteLength":24},{"buffer":0,"byteOffset":2536,"byteLength":56},{"buffer":0,"byteOffset":2592,"byteLength":224},{"buffer":0,"byteOffset":2816,"byteLength":56},{"buffer":0,"byteOffset":2872,"byteLength":168},{"buffer":0,"byteOffset":3040,"byteLength":160},{"buffer":0,"byteOffset":3200,"byteLength":480},{"buffer":0,"byteOffset":3680,"byteLength":336},{"buffer":0,"byteOffset":4016,"byteLength":1344},{"buffer":0,"byteOffset":5360,"byteLength":340},{"buffer":0,"byteOffset":5700,"byteLength":1020},{"buffer":0,"byteOffset":6720,"byteLength":272},{"buffer":0,"byteOffset":6992,"byteLength":1088},{"buffer":0,"byteOffset":8080,"byteLength":272},{"buffer":0,"byteOffset":8352,"byteLength":816},{"buffer":0,"byteOffset":9168,"byteLength":32},{"buffer":0,"byteOffset":9200,"byteLength":128},{"buffer":0,"byteOffset":9328,"byteLength":24},{"buffer":0,"byteOffset":9352,"byteLength":72},{"buffer":0,"byteOffset":9424,"byteLength":20},{"buffer":0,"byteOffset":9444,"byteLength":60},{"buffer":0,"byteOffset":9504,"byteLength":16},{"buffer":0,"byteOffset":9520,"byteLength":48},{"buffer":0,"byteOffset":9568,"byteLength":12},{"buffer":0,"byteOffset":9580,"byteLength":36}],"buffers":[{"byteLength":9616,"uri":"data:application/octet-stream;base64,"}],"accessors":[{"bufferView":0,"componentType":5126,"count":70,"max":[4.291666507720947],"min":[0],"type":"SCALAR"},{"bufferView":1,"componentType":5126,"count":70,"max":[0.20383237302303314,0.8025781512260437,-0.329996258020401,0.5344702005386353],"min":[-0.32046273350715637,0.5078963041305542,-0.7318558692932129,0.3445664048194885],"type":"VEC4"},{"bufferView":2,"componentType":5126,"count":69,"max":[4.25],"min":[0],"type":"SCALAR"},{"bufferView":3,"componentType":5126,"count":69,"max":[-0.0504772812128067,0.5437962412834167,-0.42988598346710205],"min":[-0.45036134123802185,-0.7913841605186462,-1.0190658569335938],"type":"VEC3"},{"bufferView":4,"componentType":5126,"count":2,"max":[0.0416666679084301],"min":[0],"type":"SCALAR"},{"bufferView":5,"componentType":5126,"count":2,"max":[1,1.5,1],"min":[1,1.5,1],"type":"VEC3"},{"bufferView":6,"componentType":5126,"count":14,"max":[3.875],"min":[0],"type":"SCALAR"},{"bufferView":7,"componentType":5126,"count":14,"max":[0.2854938805103302,0.7653294205665588,-0.5321091413497925,-0.08748628944158554],"min":[-0.10038318485021591,0.7081058621406555,-0.6360419392585754,-0.36125144362449646],"type":"VEC4"},{"bufferView":8,"componentType":5126,"count":14,"max":[3.8333332538604736],"min":[0],"type":"SCALAR"},{"bufferView":9,"componentType":5126,"count":14,"max":[0.2045598328113556,-0.02494879625737667,-0.10546875],"min":[0.02734375,-0.17108725011348724,-0.3800390660762787],"type":"VEC3"},{"bufferView":10,"componentType":5126,"count":40,"max":[4.25],"min":[0],"type":"SCALAR"},{"bufferView":11,"componentType":5126,"count":40,"max":[1,1.5,1],"min":[1,1.5,1],"type":"VEC3"},{"bufferView":12,"componentType":5126,"count":84,"max":[4.958333492279053],"min":[0],"type":"SCALAR"},{"bufferView":13,"componentType":5126,"count":84,"max":[0.052809614688158035,0.04912110045552254,0.49340808391571045,1],"min":[-0.16415958106517792,-0.6088037490844727,-0.09597370028495789,0.6474621891975403],"type":"VEC4"},{"bufferView":14,"componentType":5126,"count":85,"max":[4.916666507720947],"min":[0],"type":"SCALAR"},{"bufferView":15,"componentType":5126,"count":85,"max":[0.558349609375,0.26766499876976013,1.3970507383346558],"min":[0.5237120389938354,0.21949689090251923,1.2499065399169922],"type":"VEC3"},{"bufferView":16,"componentType":5126,"count":68,"max":[4.291666507720947],"min":[0],"type":"SCALAR"},{"bufferView":17,"componentType":5126,"count":68,"max":[0.45946377515792847,0.2567574977874756,0,1],"min":[0,0,-0.35914888978004456,0.8097271919250488],"type":"VEC4"},{"bufferView":18,"componentType":5126,"count":68,"max":[4.25],"min":[0],"type":"SCALAR"},{"bufferView":19,"componentType":5126,"count":68,"max":[0.14642232656478882,0.109375,0.086669921875],"min":[-0.0458984375,-0.048699818551540375,0.0087890625],"type":"VEC3"},{"bufferView":20,"componentType":5126,"count":8,"max":[2.25],"min":[0.75],"type":"SCALAR"},{"bufferView":21,"componentType":5126,"count":8,"max":[0.2777279019355774,0.006544922478497028,0.062352731823921204,1],"min":[-0.3572902977466583,-0.5033125281333923,-0.005463910289108753,0.8124165534973145],"type":"VEC4"},{"bufferView":22,"componentType":5126,"count":6,"max":[2.2083332538604736],"min":[0.7083333134651184],"type":"SCALAR"},{"bufferView":23,"componentType":5126,"count":6,"max":[1.0084375143051147,0.2890625,1.186279296875],"min":[0.5009765625,-0.984375,0.84912109375],"type":"VEC3"},{"bufferView":24,"componentType":5126,"count":5,"max":[3.5416667461395264],"min":[0.0416666679084301],"type":"SCALAR"},{"bufferView":25,"componentType":5126,"count":5,"max":[0.455078125,0.375,0.956298828125],"min":[0.455078125,0.375,0.578125],"type":"VEC3"},{"bufferView":26,"componentType":5126,"count":4,"max":[4.708333492279053],"min":[2.25],"type":"SCALAR"},{"bufferView":27,"componentType":5126,"count":4,"max":[-0.0009765625,0.2734375,-0.365234375],"min":[-0.0009765625,0.2109375,-0.365234375],"type":"VEC3"},{"bufferView":28,"componentType":5126,"count":3,"max":[1.7916666269302368],"min":[0.0416666679084301],"type":"SCALAR"},{"bufferView":29,"componentType":5126,"count":3,"max":[1,1,1],"min":[0,0,0],"type":"VEC3"}]}