{"asset":{"version":"2.0","generator":"Blockbench 4.8.3 glTF exporter"},"scenes":[{"nodes":[9],"name":"blockbench_export"}],"scene":0,"nodes":[{"translation":[-0.375,-0.6875,0],"name":"LeftHand"},{"translation":[0.3291015625,0.921875,-0.8037109375],"name":"L","children":[0]},{"translation":[0.375,-0.75,0],"name":"RightHand"},{"translation":[-0.375,0.875,-0.8125],"name":"R","children":[2]},{"translation":[0.455078125,0.375,0.578125],"name":"svd_bolt"},{"translation":[0.5009765625,0.2890625,0.865234375],"name":"svd_magazine"},{"translation":[-0.5,-0.375,-1.3125],"name":"svd2","children":[4,5]},{"translation":[-0.0458984375,0.109375,0.0087890625],"name":"bone","children":[3,6]},{"translation":[0.5458984375,0.265625,1.3037109375],"name":"bone2","children":[1,7]},{"children":[8]}],"animations":[{"name":"reload_norm","samplers":[{"input":0,"output":1,"interpolation":"LINEAR"},{"input":2,"output":3,"interpolation":"LINEAR"},{"input":4,"output":5,"interpolation":"LINEAR"},{"input":6,"output":7,"interpolation":"LINEAR"},{"input":8,"output":9,"interpolation":"LINEAR"},{"input":10,"output":11,"interpolation":"LINEAR"},{"input":12,"output":13,"interpolation":"LINEAR"},{"input":14,"output":15,"interpolation":"LINEAR"},{"input":16,"output":17,"interpolation":"LINEAR"},{"input":18,"output":19,"interpolation":"LINEAR"},{"input":20,"output":21,"interpolation":"LINEAR"},{"input":22,"output":23,"interpolation":"LINEAR"},{"input":24,"output":25,"interpolation":"LINEAR"},{"input":26,"output":27,"interpolation":"LINEAR"}],"channels":[{"sampler":0,"target":{"node":1,"path":"rotation"}},{"sampler":1,"target":{"node":1,"path":"translation"}},{"sampler":2,"target":{"node":1,"path":"scale"}},{"sampler":3,"target":{"node":3,"path":"rotation"}},{"sampler":4,"target":{"node":3,"path":"translation"}},{"sampler":5,"target":{"node":3,"path":"scale"}},{"sampler":6,"target":{"node":7,"path":"rotation"}},{"sampler":7,"target":{"node":7,"path":"translation"}},{"sampler":8,"target":{"node":7,"path":"scale"}},{"sampler":9,"target":{"node":5,"path":"rotation"}},{"sampler":10,"target":{"node":5,"path":"translation"}},{"sampler":11,"target":{"node":8,"path":"rotation"}},{"sampler":12,"target":{"node":8,"path":"translation"}},{"sampler":13,"target":{"node":8,"path":"scale"}}]}],"bufferViews":[{"buffer":0,"byteOffset":0,"byteLength":76},{"buffer":0,"byteOffset":76,"byteLength":304},{"buffer":0,"byteOffset":380,"byteLength":60},{"buffer":0,"byteOffset":440,"byteLength":180},{"buffer":0,"byteOffset":620,"byteLength":8},{"buffer":0,"byteOffset":628,"byteLength":24},{"buffer":0,"byteOffset":652,"byteLength":4},{"buffer":0,"byteOffset":656,"byteLength":16},{"buffer":0,"byteOffset":672,"byteLength":4},{"buffer":0,"byteOffset":676,"byteLength":12},{"buffer":0,"byteOffset":688,"byteLength":4},{"buffer":0,"byteOffset":692,"byteLength":12},{"buffer":0,"byteOffset":704,"byteLength":76},{"buffer":0,"byteOffset":780,"byteLength":304},{"buffer":0,"byteOffset":1084,"byteLength":52},{"buffer":0,"byteOffset":1136,"byteLength":156},{"buffer":0,"byteOffset":1292,"byteLength":8},{"buffer":0,"byteOffset":1300,"byteLength":24},{"buffer":0,"byteOffset":1324,"byteLength":36},{"buffer":0,"byteOffset":1360,"byteLength":144},{"buffer":0,"byteOffset":1504,"byteLength":32},{"buffer":0,"byteOffset":1536,"byteLength":96},{"buffer":0,"byteOffset":1632,"byteLength":88},{"buffer":0,"byteOffset":1720,"byteLength":352},{"buffer":0,"byteOffset":2072,"byteLength":60},{"buffer":0,"byteOffset":2132,"byteLength":180},{"buffer":0,"byteOffset":2312,"byteLength":12},{"buffer":0,"byteOffset":2324,"byteLength":36}],"buffers":[{"byteLength":2360,"uri":"data:application/octet-stream;base64,"}],"accessors":[{"bufferView":0,"componentType":5126,"count":19,"max":[2.5],"min":[0],"type":"SCALAR"},{"bufferView":1,"componentType":5126,"count":19,"max":[0.10105594992637634,0.7877117395401001,-0.49820810556411743,0.42747414112091064],"min":[-0.18661685287952423,0.2865612208843231,-0.9509001970291138,0.042515821754932404],"type":"VEC4"},{"bufferView":2,"componentType":5126,"count":15,"max":[2.25],"min":[0],"type":"SCALAR"},{"bufferView":3,"componentType":5126,"count":15,"max":[-0.12628906965255737,0.0361328125,-0.23808594048023224],"min":[-0.7886328101158142,-0.7743750214576721,-0.921875],"type":"VEC3"},{"bufferView":4,"componentType":5126,"count":2,"max":[2.25],"min":[0],"type":"SCALAR"},{"bufferView":5,"componentType":5126,"count":2,"max":[1,1.5,1],"min":[1,1.5,1],"type":"VEC3"},{"bufferView":6,"componentType":5126,"count":1,"max":[0],"min":[0],"type":"SCALAR"},{"bufferView":7,"componentType":5126,"count":1,"max":[-0.10038318485021591,0.7600789666175842,-0.6360419392585754,-0.08748628944158554],"min":[-0.10038318485021591,0.7600789666175842,-0.6360419392585754,-0.08748628944158554],"type":"VEC4"},{"bufferView":8,"componentType":5126,"count":1,"max":[0],"min":[0],"type":"SCALAR"},{"bufferView":9,"componentType":5126,"count":1,"max":[0.02734375,-0.154296875,-0.10546875],"min":[0.02734375,-0.154296875,-0.10546875],"type":"VEC3"},{"bufferView":10,"componentType":5126,"count":1,"max":[0],"min":[0],"type":"SCALAR"},{"bufferView":11,"componentType":5126,"count":1,"max":[1,1.5,1],"min":[1,1.5,1],"type":"VEC3"},{"bufferView":12,"componentType":5126,"count":19,"max":[2.25],"min":[0],"type":"SCALAR"},{"bufferView":13,"componentType":5126,"count":19,"max":[0.05106421932578087,0.01533864438533783,0,1],"min":[-0.0192855391651392,0,-0.21671037375926971,0.9757692217826843],"type":"VEC4"},{"bufferView":14,"componentType":5126,"count":13,"max":[2.25],"min":[0],"type":"SCALAR"},{"bufferView":15,"componentType":5126,"count":13,"max":[-0.013671875,0.12949219346046448,0.01953125],"min":[-0.0458984375,0.0791015625,0.0087890625],"type":"VEC3"},{"bufferView":16,"componentType":5126,"count":2,"max":[2.25],"min":[0],"type":"SCALAR"},{"bufferView":17,"componentType":5126,"count":2,"max":[1,1,1],"min":[1,1,1],"type":"VEC3"},{"bufferView":18,"componentType":5126,"count":9,"max":[1.5833333730697632],"min":[0.3333333432674408],"type":"SCALAR"},{"bufferView":19,"componentType":5126,"count":9,"max":[0.20345574617385864,0,0,1],"min":[-0.05656271427869797,-0.32668617367744446,-0.4201647937297821,0.84471195936203],"type":"VEC4"},{"bufferView":20,"componentType":5126,"count":8,"max":[1.5833333730697632],"min":[0.3333333432674408],"type":"SCALAR"},{"bufferView":21,"componentType":5126,"count":8,"max":[0.5009765625,0.2890625,1.1680468320846558],"min":[0.047734376043081284,-0.49242186546325684,0.8294922113418579],"type":"VEC3"},{"bufferView":22,"componentType":5126,"count":22,"max":[2.5],"min":[0],"type":"SCALAR"},{"bufferView":23,"componentType":5126,"count":22,"max":[0.31460803747177124,0.0858764722943306,0.036613065749406815,1],"min":[-0.008723544888198376,-0.01333045307546854,-0.060393352061510086,0.9456464648246765],"type":"VEC4"},{"bufferView":24,"componentType":5126,"count":15,"max":[2.5],"min":[0],"type":"SCALAR"},{"bufferView":25,"componentType":5126,"count":15,"max":[0.5458984375,0.2958984375,1.3200781345367432],"min":[0.5458984375,0.25925782322883606,1.2760156393051147],"type":"VEC3"},{"bufferView":26,"componentType":5126,"count":3,"max":[2.5],"min":[0],"type":"SCALAR"},{"bufferView":27,"componentType":5126,"count":3,"max":[1,1,1],"min":[1,1,1],"type":"VEC3"}]}