{"asset":{"version":"2.0","generator":"Blockbench 4.8.3 glTF exporter"},"scenes":[{"nodes":[9],"name":"blockbench_export"}],"scene":0,"nodes":[{"translation":[-0.375,-0.6875,0],"name":"LeftHand"},{"translation":[0.3291015625,0.921875,-0.8037109375],"name":"L","children":[0]},{"translation":[0.375,-0.75,0],"name":"RightHand"},{"translation":[-0.375,0.875,-0.8125],"name":"R","children":[2]},{"translation":[0.455078125,0.375,0.578125],"name":"svd_bolt"},{"translation":[0.5009765625,0.2890625,0.865234375],"name":"svd_magazine"},{"translation":[-0.5,-0.375,-1.3125],"name":"svd2","children":[4,5]},{"translation":[-0.0458984375,0.109375,0.0087890625],"name":"bone","children":[3,6]},{"translation":[0.5458984375,0.265625,1.3037109375],"name":"bone2","children":[1,7]},{"children":[8]}],"animations":[{"name":"draw","samplers":[{"input":0,"output":1,"interpolation":"LINEAR"},{"input":2,"output":3,"interpolation":"LINEAR"},{"input":4,"output":5,"interpolation":"LINEAR"},{"input":6,"output":7,"interpolation":"LINEAR"},{"input":8,"output":9,"interpolation":"LINEAR"},{"input":10,"output":11,"interpolation":"LINEAR"},{"input":12,"output":13,"interpolation":"LINEAR"},{"input":14,"output":15,"interpolation":"LINEAR"},{"input":16,"output":17,"interpolation":"LINEAR"},{"input":18,"output":19,"interpolation":"LINEAR"},{"input":20,"output":21,"interpolation":"LINEAR"}],"channels":[{"sampler":0,"target":{"node":1,"path":"rotation"}},{"sampler":1,"target":{"node":1,"path":"translation"}},{"sampler":2,"target":{"node":1,"path":"scale"}},{"sampler":3,"target":{"node":3,"path":"rotation"}},{"sampler":4,"target":{"node":3,"path":"translation"}},{"sampler":5,"target":{"node":3,"path":"scale"}},{"sampler":6,"target":{"node":7,"path":"rotation"}},{"sampler":7,"target":{"node":7,"path":"translation"}},{"sampler":8,"target":{"node":7,"path":"scale"}},{"sampler":9,"target":{"node":8,"path":"rotation"}},{"sampler":10,"target":{"node":8,"path":"translation"}}]}],"bufferViews":[{"buffer":0,"byteOffset":0,"byteLength":24},{"buffer":0,"byteOffset":24,"byteLength":96},{"buffer":0,"byteOffset":120,"byteLength":8},{"buffer":0,"byteOffset":128,"byteLength":24},{"buffer":0,"byteOffset":152,"byteLength":8},{"buffer":0,"byteOffset":160,"byteLength":24},{"buffer":0,"byteOffset":184,"byteLength":4},{"buffer":0,"byteOffset":188,"byteLength":16},{"buffer":0,"byteOffset":204,"byteLength":4},{"buffer":0,"byteOffset":208,"byteLength":12},{"buffer":0,"byteOffset":220,"byteLength":4},{"buffer":0,"byteOffset":224,"byteLength":12},{"buffer":0,"byteOffset":236,"byteLength":4},{"buffer":0,"byteOffset":240,"byteLength":16},{"buffer":0,"byteOffset":256,"byteLength":4},{"buffer":0,"byteOffset":260,"byteLength":12},{"buffer":0,"byteOffset":272,"byteLength":4},{"buffer":0,"byteOffset":276,"byteLength":12},{"buffer":0,"byteOffset":288,"byteLength":32},{"buffer":0,"byteOffset":320,"byteLength":128},{"buffer":0,"byteOffset":448,"byteLength":24},{"buffer":0,"byteOffset":472,"byteLength":72}],"buffers":[{"byteLength":544,"uri":"data:application/octet-stream;base64,"}],"accessors":[{"bufferView":0,"componentType":5126,"count":6,"max":[0.625],"min":[0],"type":"SCALAR"},{"bufferView":1,"componentType":5126,"count":6,"max":[-0.010352709330618382,0.8025435209274292,-0.47326043248176575,0.3688114583492279],"min":[-0.05117307975888252,0.7877117395401001,-0.49991536140441895,0.3503810465335846],"type":"VEC4"},{"bufferView":2,"componentType":5126,"count":2,"max":[0.625],"min":[0],"type":"SCALAR"},{"bufferView":3,"componentType":5126,"count":2,"max":[-0.1474609375,0.0361328125,-0.921875],"min":[-0.1474609375,0.0361328125,-0.921875],"type":"VEC3"},{"bufferView":4,"componentType":5126,"count":2,"max":[0.625],"min":[0],"type":"SCALAR"},{"bufferView":5,"componentType":5126,"count":2,"max":[1,1.5,1],"min":[1,1.5,1],"type":"VEC3"},{"bufferView":6,"componentType":5126,"count":1,"max":[0],"min":[0],"type":"SCALAR"},{"bufferView":7,"componentType":5126,"count":1,"max":[-0.10038318485021591,0.7600789666175842,-0.6360419392585754,-0.08748628944158554],"min":[-0.10038318485021591,0.7600789666175842,-0.6360419392585754,-0.08748628944158554],"type":"VEC4"},{"bufferView":8,"componentType":5126,"count":1,"max":[0],"min":[0],"type":"SCALAR"},{"bufferView":9,"componentType":5126,"count":1,"max":[0.02734375,-0.154296875,-0.10546875],"min":[0.02734375,-0.154296875,-0.10546875],"type":"VEC3"},{"bufferView":10,"componentType":5126,"count":1,"max":[0],"min":[0],"type":"SCALAR"},{"bufferView":11,"componentType":5126,"count":1,"max":[1,1.5,1],"min":[1,1.5,1],"type":"VEC3"},{"bufferView":12,"componentType":5126,"count":1,"max":[0],"min":[0],"type":"SCALAR"},{"bufferView":13,"componentType":5126,"count":1,"max":[0,0,0,1],"min":[0,0,0,1],"type":"VEC4"},{"bufferView":14,"componentType":5126,"count":1,"max":[0],"min":[0],"type":"SCALAR"},{"bufferView":15,"componentType":5126,"count":1,"max":[-0.0458984375,0.109375,0.0087890625],"min":[-0.0458984375,0.109375,0.0087890625],"type":"VEC3"},{"bufferView":16,"componentType":5126,"count":1,"max":[0],"min":[0],"type":"SCALAR"},{"bufferView":17,"componentType":5126,"count":1,"max":[1,1,1],"min":[1,1,1],"type":"VEC3"},{"bufferView":18,"componentType":5126,"count":8,"max":[0.625],"min":[0],"type":"SCALAR"},{"bufferView":19,"componentType":5126,"count":8,"max":[0.0928296372294426,0.2690384089946747,0.46063724160194397,1],"min":[-0.45691239833831787,-0.0010068622650578618,-0.01422120165079832,0.7118024230003357],"type":"VEC4"},{"bufferView":20,"componentType":5126,"count":6,"max":[0.625],"min":[0],"type":"SCALAR"},{"bufferView":21,"componentType":5126,"count":6,"max":[0.8583984375,0.265625,1.6162109375],"min":[0.5458984375,-0.171875,1.203710913658142],"type":"VEC3"}]}