{"asset":{"version":"2.0","generator":"Blockbench 4.8.3 glTF exporter"},"scenes":[{"nodes":[9],"name":"blockbench_export"}],"scene":0,"nodes":[{"translation":[-0.375,-0.6875,0],"name":"LeftHand"},{"translation":[0.3291015625,0.921875,-0.8037109375],"name":"L","children":[0]},{"translation":[0.375,-0.75,0],"name":"RightHand"},{"translation":[-0.375,0.875,-0.8125],"name":"R","children":[2]},{"translation":[0.455078125,0.375,0.578125],"name":"svd_bolt"},{"translation":[0.5009765625,0.2890625,0.865234375],"name":"svd_magazine"},{"translation":[-0.5,-0.375,-1.3125],"name":"svd2","children":[4,5]},{"translation":[-0.0458984375,0.109375,0.0087890625],"name":"bone","children":[3,6]},{"translation":[0.5458984375,0.265625,1.3037109375],"name":"bone2","children":[1,7]},{"children":[8]}],"animations":[{"name":"reload_empty","samplers":[{"input":0,"output":1,"interpolation":"LINEAR"},{"input":2,"output":3,"interpolation":"LINEAR"},{"input":4,"output":5,"interpolation":"LINEAR"},{"input":6,"output":7,"interpolation":"LINEAR"},{"input":8,"output":9,"interpolation":"LINEAR"},{"input":10,"output":11,"interpolation":"LINEAR"},{"input":12,"output":13,"interpolation":"LINEAR"},{"input":14,"output":15,"interpolation":"LINEAR"},{"input":16,"output":17,"interpolation":"LINEAR"},{"input":18,"output":19,"interpolation":"LINEAR"},{"input":20,"output":21,"interpolation":"LINEAR"},{"input":22,"output":23,"interpolation":"LINEAR"},{"input":24,"output":25,"interpolation":"LINEAR"},{"input":26,"output":27,"interpolation":"LINEAR"},{"input":28,"output":29,"interpolation":"LINEAR"},{"input":30,"output":31,"interpolation":"LINEAR"}],"channels":[{"sampler":0,"target":{"node":1,"path":"rotation"}},{"sampler":1,"target":{"node":1,"path":"translation"}},{"sampler":2,"target":{"node":1,"path":"scale"}},{"sampler":3,"target":{"node":3,"path":"rotation"}},{"sampler":4,"target":{"node":3,"path":"translation"}},{"sampler":5,"target":{"node":3,"path":"scale"}},{"sampler":6,"target":{"node":7,"path":"rotation"}},{"sampler":7,"target":{"node":7,"path":"translation"}},{"sampler":8,"target":{"node":7,"path":"scale"}},{"sampler":9,"target":{"node":5,"path":"rotation"}},{"sampler":10,"target":{"node":5,"path":"translation"}},{"sampler":11,"target":{"node":5,"path":"scale"}},{"sampler":12,"target":{"node":8,"path":"rotation"}},{"sampler":13,"target":{"node":8,"path":"translation"}},{"sampler":14,"target":{"node":8,"path":"scale"}},{"sampler":15,"target":{"node":4,"path":"translation"}}]}],"bufferViews":[{"buffer":0,"byteOffset":0,"byteLength":84},{"buffer":0,"byteOffset":84,"byteLength":336},{"buffer":0,"byteOffset":420,"byteLength":80},{"buffer":0,"byteOffset":500,"byteLength":240},{"buffer":0,"byteOffset":740,"byteLength":12},{"buffer":0,"byteOffset":752,"byteLength":36},{"buffer":0,"byteOffset":788,"byteLength":36},{"buffer":0,"byteOffset":824,"byteLength":144},{"buffer":0,"byteOffset":968,"byteLength":32},{"buffer":0,"byteOffset":1000,"byteLength":96},{"buffer":0,"byteOffset":1096,"byteLength":12},{"buffer":0,"byteOffset":1108,"byteLength":36},{"buffer":0,"byteOffset":1144,"byteLength":76},{"buffer":0,"byteOffset":1220,"byteLength":304},{"buffer":0,"byteOffset":1524,"byteLength":64},{"buffer":0,"byteOffset":1588,"byteLength":192},{"buffer":0,"byteOffset":1780,"byteLength":12},{"buffer":0,"byteOffset":1792,"byteLength":36},{"buffer":0,"byteOffset":1828,"byteLength":44},{"buffer":0,"byteOffset":1872,"byteLength":176},{"buffer":0,"byteOffset":2048,"byteLength":32},{"buffer":0,"byteOffset":2080,"byteLength":96},{"buffer":0,"byteOffset":2176,"byteLength":16},{"buffer":0,"byteOffset":2192,"byteLength":48},{"buffer":0,"byteOffset":2240,"byteLength":32},{"buffer":0,"byteOffset":2272,"byteLength":128},{"buffer":0,"byteOffset":2400,"byteLength":12},{"buffer":0,"byteOffset":2412,"byteLength":36},{"buffer":0,"byteOffset":2448,"byteLength":12},{"buffer":0,"byteOffset":2460,"byteLength":36},{"buffer":0,"byteOffset":2496,"byteLength":16},{"buffer":0,"byteOffset":2512,"byteLength":48}],"buffers":[{"byteLength":2560,"uri":"data:application/octet-stream;base64,"}],"accessors":[{"bufferView":0,"componentType":5126,"count":21,"max":[3.25],"min":[0],"type":"SCALAR"},{"bufferView":1,"componentType":5126,"count":21,"max":[0.10105594992637634,0.7877117395401001,-0.49991536140441895,0.5501689314842224],"min":[-0.20873254537582397,0.29643726348876953,-0.9452346563339233,0.026448186486959457],"type":"VEC4"},{"bufferView":2,"componentType":5126,"count":20,"max":[3.25],"min":[0],"type":"SCALAR"},{"bufferView":3,"componentType":5126,"count":20,"max":[-0.125,0.04500000178813934,-0.4155859351158142],"min":[-0.6940234303474426,-1.224218726158142,-0.9316015839576721],"type":"VEC3"},{"bufferView":4,"componentType":5126,"count":3,"max":[3.25],"min":[0],"type":"SCALAR"},{"bufferView":5,"componentType":5126,"count":3,"max":[1,1.5,1],"min":[1,1.5,1],"type":"VEC3"},{"bufferView":6,"componentType":5126,"count":9,"max":[2.875],"min":[0],"type":"SCALAR"},{"bufferView":7,"componentType":5126,"count":9,"max":[0.10657574981451035,0.8229073882102966,-0.561923623085022,-0.008324847556650639],"min":[-0.10038318485021591,0.7553959488868713,-0.6521639227867126,-0.08748628944158554],"type":"VEC4"},{"bufferView":8,"componentType":5126,"count":8,"max":[2.875],"min":[0],"type":"SCALAR"},{"bufferView":9,"componentType":5126,"count":8,"max":[0.24562500417232513,-0.03230468928813934,-0.10546875],"min":[0.02734375,-0.154296875,-0.5069921612739563],"type":"VEC3"},{"bufferView":10,"componentType":5126,"count":3,"max":[2.875],"min":[0],"type":"SCALAR"},{"bufferView":11,"componentType":5126,"count":3,"max":[1,1.5,1],"min":[1,1.5,1],"type":"VEC3"},{"bufferView":12,"componentType":5126,"count":19,"max":[3.25],"min":[0],"type":"SCALAR"},{"bufferView":13,"componentType":5126,"count":19,"max":[0.06540312618017197,0.08325650542974472,0.605574905872345,1],"min":[-0.0887058898806572,-0.00026175027596764266,-0.2340783029794693,0.7945501804351807],"type":"VEC4"},{"bufferView":14,"componentType":5126,"count":16,"max":[3.25],"min":[0],"type":"SCALAR"},{"bufferView":15,"componentType":5126,"count":16,"max":[-0.020273437723517418,0.11749999970197678,0.11089843511581421],"min":[-0.0458984375,0.07183593511581421,0.0010937500046566129],"type":"VEC3"},{"bufferView":16,"componentType":5126,"count":3,"max":[3.25],"min":[0],"type":"SCALAR"},{"bufferView":17,"componentType":5126,"count":3,"max":[1,1,1],"min":[1,1,1],"type":"VEC3"},{"bufferView":18,"componentType":5126,"count":11,"max":[1.5],"min":[0.3333333432674408],"type":"SCALAR"},{"bufferView":19,"componentType":5126,"count":11,"max":[0.10639485716819763,0.3720957338809967,0.3652473986148834,1],"min":[-0.8638899326324463,-0.17858733236789703,-0.31122153997421265,0.041017379611730576],"type":"VEC4"},{"bufferView":20,"componentType":5126,"count":8,"max":[1.5],"min":[0.3333333432674408],"type":"SCALAR"},{"bufferView":21,"componentType":5126,"count":8,"max":[0.5309765338897705,0.2890625,0.9553906321525574],"min":[-0.3038281202316284,-1.2619531154632568,-0.28312501311302185],"type":"VEC3"},{"bufferView":22,"componentType":5126,"count":4,"max":[0.875],"min":[0.4166666567325592],"type":"SCALAR"},{"bufferView":23,"componentType":5126,"count":4,"max":[1,1,1],"min":[0,0,0],"type":"VEC3"},{"bufferView":24,"componentType":5126,"count":8,"max":[3.25],"min":[0],"type":"SCALAR"},{"bufferView":25,"componentType":5126,"count":8,"max":[0.28594377636909485,0.05126940831542015,0.01308959536254406,1],"min":[0,0,-0.03138172626495361,0.9563591480255127],"type":"VEC4"},{"bufferView":26,"componentType":5126,"count":3,"max":[3.25],"min":[0],"type":"SCALAR"},{"bufferView":27,"componentType":5126,"count":3,"max":[0.5458984375,0.265625,1.3037109375],"min":[0.5458984375,0.265625,1.3037109375],"type":"VEC3"},{"bufferView":28,"componentType":5126,"count":3,"max":[3.25],"min":[0],"type":"SCALAR"},{"bufferView":29,"componentType":5126,"count":3,"max":[1,1,1],"min":[1,1,1],"type":"VEC3"},{"bufferView":30,"componentType":5126,"count":4,"max":[2.5416667461395264],"min":[1.9166666269302368],"type":"SCALAR"},{"bufferView":31,"componentType":5126,"count":4,"max":[0.455078125,0.375,0.8291015625],"min":[0.455078125,0.375,0.5823047161102295],"type":"VEC3"}]}