{"asset":{"version":"2.0","generator":"Blockbench 4.9.2 glTF exporter"},"scenes":[{"nodes":[10],"name":"blockbench_export"}],"scene":0,"nodes":[{"translation":[-0.375,-0.6875,0],"name":"LeftHand"},{"translation":[0.3291015625,0.921875,-0.8037109375],"name":"L","children":[0]},{"translation":[0.375,-0.75,0],"name":"RightHand"},{"translation":[-0.375,0.875,-0.8125],"name":"R","children":[2]},{"translation":[0.455078125,0.375,0.578125],"name":"svd_bolt"},{"translation":[-0.0009765625,0.2109375,-0.365234375],"name":"762x54"},{"translation":[0.5009765625,0.2890625,0.865234375],"name":"svd_magazine","children":[5]},{"translation":[-0.5,-0.375,-1.3125],"name":"svd2","children":[4,6]},{"translation":[-0.0458984375,0.109375,0.0087890625],"name":"bone","children":[3,7]},{"translation":[0.5458984375,0.265625,1.3037109375],"name":"bone2","children":[1,8]},{"children":[9]}],"animations":[{"name":"inspect","samplers":[{"input":0,"output":1,"interpolation":"LINEAR"},{"input":2,"output":3,"interpolation":"LINEAR"},{"input":4,"output":5,"interpolation":"LINEAR"},{"input":6,"output":7,"interpolation":"LINEAR"},{"input":8,"output":9,"interpolation":"LINEAR"},{"input":10,"output":11,"interpolation":"LINEAR"},{"input":12,"output":13,"interpolation":"LINEAR"},{"input":14,"output":15,"interpolation":"LINEAR"},{"input":16,"output":17,"interpolation":"LINEAR"},{"input":18,"output":19,"interpolation":"LINEAR"}],"channels":[{"sampler":0,"target":{"node":1,"path":"rotation"}},{"sampler":1,"target":{"node":1,"path":"translation"}},{"sampler":2,"target":{"node":1,"path":"scale"}},{"sampler":3,"target":{"node":3,"path":"rotation"}},{"sampler":4,"target":{"node":3,"path":"translation"}},{"sampler":5,"target":{"node":3,"path":"scale"}},{"sampler":6,"target":{"node":9,"path":"rotation"}},{"sampler":7,"target":{"node":9,"path":"translation"}},{"sampler":8,"target":{"node":8,"path":"rotation"}},{"sampler":9,"target":{"node":8,"path":"translation"}}]}],"bufferViews":[{"buffer":0,"byteOffset":0,"byteLength":260},{"buffer":0,"byteOffset":260,"byteLength":1040},{"buffer":0,"byteOffset":1300,"byteLength":256},{"buffer":0,"byteOffset":1556,"byteLength":768},{"buffer":0,"byteOffset":2324,"byteLength":8},{"buffer":0,"byteOffset":2332,"byteLength":24},{"buffer":0,"byteOffset":2356,"byteLength":12},{"buffer":0,"byteOffset":2368,"byteLength":48},{"buffer":0,"byteOffset":2416,"byteLength":12},{"buffer":0,"byteOffset":2428,"byteLength":36},{"buffer":0,"byteOffset":2464,"byteLength":12},{"buffer":0,"byteOffset":2476,"byteLength":36},{"buffer":0,"byteOffset":2512,"byteLength":320},{"buffer":0,"byteOffset":2832,"byteLength":1280},{"buffer":0,"byteOffset":4112,"byteLength":324},{"buffer":0,"byteOffset":4436,"byteLength":972},{"buffer":0,"byteOffset":5408,"byteLength":260},{"buffer":0,"byteOffset":5668,"byteLength":1040},{"buffer":0,"byteOffset":6708,"byteLength":260},{"buffer":0,"byteOffset":6968,"byteLength":780}],"buffers":[{"byteLength":7748,"uri":"data:application/octet-stream;base64,"}],"accessors":[{"bufferView":0,"componentType":5126,"count":65,"max":[4.125],"min":[0],"type":"SCALAR"},{"bufferView":1,"componentType":5126,"count":65,"max":[0.27793896198272705,0.7188349366188049,-0.3990499973297119,0.6730839014053345],"min":[-0.32046273350715637,0.542043149471283,-0.6442644000053406,0.31324928998947144],"type":"VEC4"},{"bufferView":2,"componentType":5126,"count":64,"max":[4.083333492279053],"min":[0],"type":"SCALAR"},{"bufferView":3,"componentType":5126,"count":64,"max":[-0.03916255757212639,0.3900786340236664,-0.46410253643989563],"min":[-0.1604446917772293,-0.005615234375,-0.9251043796539307],"type":"VEC3"},{"bufferView":4,"componentType":5126,"count":2,"max":[0.0416666679084301],"min":[0],"type":"SCALAR"},{"bufferView":5,"componentType":5126,"count":2,"max":[1,1.5,1],"min":[1,1.5,1],"type":"VEC3"},{"bufferView":6,"componentType":5126,"count":3,"max":[4.083333492279053],"min":[0],"type":"SCALAR"},{"bufferView":7,"componentType":5126,"count":3,"max":[-0.10038318485021591,0.7600789666175842,-0.6360419392585754,-0.08748628944158554],"min":[-0.10038318485021591,0.7600789666175842,-0.6360419392585754,-0.08748628944158554],"type":"VEC4"},{"bufferView":8,"componentType":5126,"count":3,"max":[4.083333492279053],"min":[0],"type":"SCALAR"},{"bufferView":9,"componentType":5126,"count":3,"max":[0.02734375,-0.154296875,-0.10546875],"min":[0.02734375,-0.154296875,-0.10546875],"type":"VEC3"},{"bufferView":10,"componentType":5126,"count":3,"max":[4.083333492279053],"min":[0],"type":"SCALAR"},{"bufferView":11,"componentType":5126,"count":3,"max":[1,1.5,1],"min":[1,1.5,1],"type":"VEC3"},{"bufferView":12,"componentType":5126,"count":80,"max":[4.958333492279053],"min":[0],"type":"SCALAR"},{"bufferView":13,"componentType":5126,"count":80,"max":[0.19126132130622864,0.10678157955408096,0.5799951553344727,1],"min":[-0.050518594682216644,-0.22203584015369415,-0.13536612689495087,0.7835927605628967],"type":"VEC4"},{"bufferView":14,"componentType":5126,"count":81,"max":[4.916666507720947],"min":[0],"type":"SCALAR"},{"bufferView":15,"componentType":5126,"count":81,"max":[0.5471262335777283,0.3244234323501587,1.3340526819229126],"min":[0.529052734375,0.2459573894739151,1.1985864639282227],"type":"VEC3"},{"bufferView":16,"componentType":5126,"count":65,"max":[4.083333492279053],"min":[0],"type":"SCALAR"},{"bufferView":17,"componentType":5126,"count":65,"max":[0.16399168968200684,0.046185895800590515,0,1],"min":[0,-0.004309513606131077,-0.23318511247634888,0.9592896699905396],"type":"VEC4"},{"bufferView":18,"componentType":5126,"count":65,"max":[4.041666507720947],"min":[0],"type":"SCALAR"},{"bufferView":19,"componentType":5126,"count":65,"max":[-0.013242187909781933,0.12841796875,0.019775390625],"min":[-0.07371962070465088,0.10479110479354858,0.0087890625],"type":"VEC3"}]}