{"asset":{"version":"2.0","generator":"Blockbench 4.9.3 glTF exporter"},"scenes":[{"nodes":[17],"name":"blockbench_export"}],"scene":0,"nodes":[{"translation":[0.375,-0.6875,0],"name":"RightHand"},{"translation":[-0.375,0.6000000000000003,-0.625],"name":"R","children":[0]},{"translation":[0,0.234375,0.453125],"name":"hammer"},{"name":"octagon14"},{"translation":[-0.030625000000000013,-0.3911564361234836,-0.17097279488796535],"name":"octagon13"},{"translation":[0.030625000000000013,0.3911564361234836,0.17097279488796535],"name":"group","children":[4]},{"translation":[0,-0.15625,0.03125],"name":"barrel","children":[3,5]},{"translation":[-0.07250976562499994,0.2902832031250002,0.24609375],"name":"shell"},{"translation":[0,-0.24755859375,-0.203125],"name":"bullet_shell","children":[7]},{"translation":[0.006738933234060607,-1.0197650497782829,1.1939796598300592],"name":"bullet"},{"translation":[0,0.09130859375,0.234375],"name":"cylinder","children":[8,9]},{"translation":[0,0.15625,-0.03125],"name":"front","children":[6,10]},{"translation":[0,-0.08749999999999969,-0.625],"name":"sw_model3","children":[2,11]},{"translation":[0,0.2749999999999997,0],"name":"bone","children":[1,12]},{"translation":[-0.375,-0.6875,0],"name":"LeftHand"},{"translation":[0.375,0.875,-0.625],"name":"l","children":[14]},{"translation":[0.5,0.3125,1.125],"name":"bone2","children":[13,15]},{"children":[16]}],"animations":[{"name":"reload_loop","samplers":[{"input":0,"output":1,"interpolation":"LINEAR"},{"input":2,"output":3,"interpolation":"LINEAR"},{"input":4,"output":5,"interpolation":"LINEAR"},{"input":6,"output":7,"interpolation":"LINEAR"},{"input":8,"output":9,"interpolation":"LINEAR"},{"input":10,"output":11,"interpolation":"LINEAR"},{"input":12,"output":13,"interpolation":"LINEAR"},{"input":14,"output":15,"interpolation":"LINEAR"},{"input":16,"output":17,"interpolation":"LINEAR"},{"input":18,"output":19,"interpolation":"LINEAR"},{"input":20,"output":21,"interpolation":"LINEAR"},{"input":22,"output":23,"interpolation":"LINEAR"},{"input":24,"output":25,"interpolation":"LINEAR"},{"input":26,"output":27,"interpolation":"LINEAR"},{"input":28,"output":29,"interpolation":"LINEAR"},{"input":30,"output":31,"interpolation":"LINEAR"},{"input":32,"output":33,"interpolation":"LINEAR"},{"input":34,"output":35,"interpolation":"LINEAR"}],"channels":[{"sampler":0,"target":{"node":1,"path":"rotation"}},{"sampler":1,"target":{"node":1,"path":"translation"}},{"sampler":2,"target":{"node":1,"path":"scale"}},{"sampler":3,"target":{"node":15,"path":"rotation"}},{"sampler":4,"target":{"node":15,"path":"translation"}},{"sampler":5,"target":{"node":15,"path":"scale"}},{"sampler":6,"target":{"node":11,"path":"rotation"}},{"sampler":7,"target":{"node":16,"path":"rotation"}},{"sampler":8,"target":{"node":16,"path":"translation"}},{"sampler":9,"target":{"node":13,"path":"rotation"}},{"sampler":10,"target":{"node":13,"path":"translation"}},{"sampler":11,"target":{"node":9,"path":"rotation"}},{"sampler":12,"target":{"node":9,"path":"translation"}},{"sampler":13,"target":{"node":9,"path":"scale"}},{"sampler":14,"target":{"node":10,"path":"rotation"}},{"sampler":15,"target":{"node":7,"path":"rotation"}},{"sampler":16,"target":{"node":7,"path":"translation"}},{"sampler":17,"target":{"node":7,"path":"scale"}}]}],"bufferViews":[{"buffer":0,"byteOffset":0,"byteLength":4},{"buffer":0,"byteOffset":4,"byteLength":16},{"buffer":0,"byteOffset":20,"byteLength":4},{"buffer":0,"byteOffset":24,"byteLength":12},{"buffer":0,"byteOffset":36,"byteLength":4},{"buffer":0,"byteOffset":40,"byteLength":12},{"buffer":0,"byteOffset":52,"byteLength":168},{"buffer":0,"byteOffset":220,"byteLength":672},{"buffer":0,"byteOffset":892,"byteLength":168},{"buffer":0,"byteOffset":1060,"byteLength":504},{"buffer":0,"byteOffset":1564,"byteLength":4},{"buffer":0,"byteOffset":1568,"byteLength":12},{"buffer":0,"byteOffset":1580,"byteLength":4},{"buffer":0,"byteOffset":1584,"byteLength":16},{"buffer":0,"byteOffset":1600,"byteLength":160},{"buffer":0,"byteOffset":1760,"byteLength":640},{"buffer":0,"byteOffset":2400,"byteLength":156},{"buffer":0,"byteOffset":2556,"byteLength":468},{"buffer":0,"byteOffset":3024,"byteLength":4},{"buffer":0,"byteOffset":3028,"byteLength":16},{"buffer":0,"byteOffset":3044,"byteLength":4},{"buffer":0,"byteOffset":3048,"byteLength":12},{"buffer":0,"byteOffset":3060,"byteLength":132},{"buffer":0,"byteOffset":3192,"byteLength":528},{"buffer":0,"byteOffset":3720,"byteLength":132},{"buffer":0,"byteOffset":3852,"byteLength":396},{"buffer":0,"byteOffset":4248,"byteLength":132},{"buffer":0,"byteOffset":4380,"byteLength":396},{"buffer":0,"byteOffset":4776,"byteLength":24},{"buffer":0,"byteOffset":4800,"byteLength":96},{"buffer":0,"byteOffset":4896,"byteLength":92},{"buffer":0,"byteOffset":4988,"byteLength":368},{"buffer":0,"byteOffset":5356,"byteLength":84},{"buffer":0,"byteOffset":5440,"byteLength":252},{"buffer":0,"byteOffset":5692,"byteLength":12},{"buffer":0,"byteOffset":5704,"byteLength":36}],"buffers":[{"byteLength":5740,"uri":"data:application/octet-stream;base64,"}],"accessors":[{"bufferView":0,"componentType":5126,"count":1,"max":[0],"min":[0],"type":"SCALAR"},{"bufferView":1,"componentType":5126,"count":1,"max":[-0.0020498859230428934,0.7517794966697693,-0.6594082713127136,0.0020301761105656624],"min":[-0.0020498859230428934,0.7517794966697693,-0.6594082713127136,0.0020301761105656624],"type":"VEC4"},{"bufferView":2,"componentType":5126,"count":1,"max":[0],"min":[0],"type":"SCALAR"},{"bufferView":3,"componentType":5126,"count":1,"max":[0.03125,-0.19687500596046448,-0.1875],"min":[0.03125,-0.19687500596046448,-0.1875],"type":"VEC3"},{"bufferView":4,"componentType":5126,"count":1,"max":[0],"min":[0],"type":"SCALAR"},{"bufferView":5,"componentType":5126,"count":1,"max":[1.75,2,1.75],"min":[1.75,2,1.75],"type":"VEC3"},{"bufferView":6,"componentType":5126,"count":42,"max":[1.75],"min":[0.0416666679084301],"type":"SCALAR"},{"bufferView":7,"componentType":5126,"count":42,"max":[0.20730730891227722,0.944966197013855,-0.27039265632629395,0.3415791690349579],"min":[-0.20917491614818573,0.5542670488357544,-0.7296283841133118,-0.025766439735889435],"type":"VEC4"},{"bufferView":8,"componentType":5126,"count":42,"max":[1.75],"min":[0.0416666679084301],"type":"SCALAR"},{"bufferView":9,"componentType":5126,"count":42,"max":[-0.4375,0.7512500286102295,-0.30562499165534973],"min":[-0.6924999952316284,-0.8662499785423279,-0.5081250071525574],"type":"VEC3"},{"bufferView":10,"componentType":5126,"count":1,"max":[0],"min":[0],"type":"SCALAR"},{"bufferView":11,"componentType":5126,"count":1,"max":[1.75,2,1.75],"min":[1.75,2,1.75],"type":"VEC3"},{"bufferView":12,"componentType":5126,"count":1,"max":[0.0416666679084301],"min":[0.0416666679084301],"type":"SCALAR"},{"bufferView":13,"componentType":5126,"count":1,"max":[-0.4617486000061035,0,0,0.8870108127593994],"min":[-0.4617486000061035,0,0,0.8870108127593994],"type":"VEC4"},{"bufferView":14,"componentType":5126,"count":40,"max":[1.6666666269302368],"min":[0.0416666679084301],"type":"SCALAR"},{"bufferView":15,"componentType":5126,"count":40,"max":[0.11440575122833252,0.05541830137372017,-0.008204108104109764,0.9997576475143433],"min":[-0.0028291463386267424,0.01321153063327074,-0.03208446502685547,0.9922073483467102],"type":"VEC4"},{"bufferView":16,"componentType":5126,"count":39,"max":[1.625],"min":[0.0416666679084301],"type":"SCALAR"},{"bufferView":17,"componentType":5126,"count":39,"max":[0.5,0.3137499988079071,1.159999966621399],"min":[0.5,0.2762500047683716,1.109375],"type":"VEC3"},{"bufferView":18,"componentType":5126,"count":1,"max":[0.0416666679084301],"min":[0.0416666679084301],"type":"SCALAR"},{"bufferView":19,"componentType":5126,"count":1,"max":[0.06961135566234589,0.1202254667878151,0.19555813074111938,0.9708023071289062],"min":[0.06961135566234589,0.1202254667878151,0.19555813074111938,0.9708023071289062],"type":"VEC4"},{"bufferView":20,"componentType":5126,"count":1,"max":[0.0416666679084301],"min":[0.0416666679084301],"type":"SCALAR"},{"bufferView":21,"componentType":5126,"count":1,"max":[-0.04937500134110451,0.2212499976158142,0.11874999850988388],"min":[-0.04937500134110451,0.2212499976158142,0.11874999850988388],"type":"VEC3"},{"bufferView":22,"componentType":5126,"count":33,"max":[1.375],"min":[0.0416666679084301],"type":"SCALAR"},{"bufferView":23,"componentType":5126,"count":33,"max":[0.582156240940094,0,0.10606279969215393,1],"min":[0,-0.5526391267776489,-0.15416942536830902,0.592615008354187],"type":"VEC4"},{"bufferView":24,"componentType":5126,"count":33,"max":[1.375],"min":[0.0416666679084301],"type":"SCALAR"},{"bufferView":25,"componentType":5126,"count":33,"max":[-0.01076106633991003,0.3164849579334259,0.2746046483516693],"min":[-0.45826107263565063,-0.6435150504112244,-0.9303953647613525],"type":"VEC3"},{"bufferView":26,"componentType":5126,"count":33,"max":[1.375],"min":[0.0416666679084301],"type":"SCALAR"},{"bufferView":27,"componentType":5126,"count":33,"max":[1,1,1],"min":[0,0,0],"type":"VEC3"},{"bufferView":28,"componentType":5126,"count":6,"max":[1.5],"min":[1.2916666269302368],"type":"SCALAR"},{"bufferView":29,"componentType":5126,"count":6,"max":[0,0,0.5,1],"min":[0,0,0,0.8660253882408142],"type":"VEC4"},{"bufferView":30,"componentType":5126,"count":23,"max":[1.2916666269302368],"min":[0.4583333432674408],"type":"SCALAR"},{"bufferView":31,"componentType":5126,"count":23,"max":[0.7010864019393921,0.4922407865524292,0,1],"min":[-0.6721268892288208,-0.2726520597934723,-0.9724921584129333,-0.7162084579467773],"type":"VEC4"},{"bufferView":32,"componentType":5126,"count":21,"max":[1.2916666269302368],"min":[0.4583333432674408],"type":"SCALAR"},{"bufferView":33,"componentType":5126,"count":21,"max":[-0.015009765513241291,0.7052832245826721,0.6067187786102295],"min":[-1.168759822845459,0.2640331983566284,-0.1407812535762787],"type":"VEC3"},{"bufferView":34,"componentType":5126,"count":3,"max":[1.2916666269302368],"min":[1.2083333730697632],"type":"SCALAR"},{"bufferView":35,"componentType":5126,"count":3,"max":[1,1,1],"min":[0,0,0],"type":"VEC3"}]}