{"asset":{"version":"2.0","generator":"Blockbench 4.9.3 glTF exporter"},"scenes":[{"nodes":[17],"name":"blockbench_export"}],"scene":0,"nodes":[{"translation":[0.375,-0.6875,0],"name":"RightHand"},{"translation":[-0.375,0.6000000000000003,-0.625],"name":"R","children":[0]},{"translation":[0,0.234375,0.453125],"name":"hammer"},{"name":"octagon14"},{"translation":[-0.030625000000000013,-0.3911564361234836,-0.17097279488796535],"name":"octagon13"},{"translation":[0.030625000000000013,0.3911564361234836,0.17097279488796535],"name":"group","children":[4]},{"translation":[0,-0.15625,0.03125],"name":"barrel","children":[3,5]},{"translation":[-0.07250976562499994,0.2902832031250002,0.24609375],"name":"shell"},{"translation":[0,-0.24755859375,-0.203125],"name":"bullet_shell","children":[7]},{"translation":[0.006738933234060607,-1.0197650497782829,1.1939796598300592],"name":"bullet"},{"translation":[0,0.09130859375,0.234375],"name":"cylinder","children":[8,9]},{"translation":[0,0.15625,-0.03125],"name":"front","children":[6,10]},{"translation":[0,-0.08749999999999969,-0.625],"name":"sw_model3","children":[2,11]},{"translation":[0,0.2749999999999997,0],"name":"bone","children":[1,12]},{"translation":[-0.375,-0.6875,0],"name":"LeftHand"},{"translation":[0.375,0.875,-0.625],"name":"l","children":[14]},{"translation":[0.5,0.3125,1.125],"name":"bone2","children":[13,15]},{"children":[16]}],"animations":[{"name":"reload_outro","samplers":[{"input":0,"output":1,"interpolation":"LINEAR"},{"input":2,"output":3,"interpolation":"LINEAR"},{"input":4,"output":5,"interpolation":"LINEAR"},{"input":6,"output":7,"interpolation":"LINEAR"},{"input":8,"output":9,"interpolation":"LINEAR"},{"input":10,"output":11,"interpolation":"LINEAR"},{"input":12,"output":13,"interpolation":"LINEAR"},{"input":14,"output":15,"interpolation":"LINEAR"},{"input":16,"output":17,"interpolation":"LINEAR"},{"input":18,"output":19,"interpolation":"LINEAR"},{"input":20,"output":21,"interpolation":"LINEAR"},{"input":22,"output":23,"interpolation":"LINEAR"},{"input":24,"output":25,"interpolation":"LINEAR"},{"input":26,"output":27,"interpolation":"LINEAR"},{"input":28,"output":29,"interpolation":"LINEAR"},{"input":30,"output":31,"interpolation":"LINEAR"},{"input":32,"output":33,"interpolation":"LINEAR"}],"channels":[{"sampler":0,"target":{"node":1,"path":"rotation"}},{"sampler":1,"target":{"node":1,"path":"translation"}},{"sampler":2,"target":{"node":1,"path":"scale"}},{"sampler":3,"target":{"node":15,"path":"rotation"}},{"sampler":4,"target":{"node":15,"path":"translation"}},{"sampler":5,"target":{"node":15,"path":"scale"}},{"sampler":6,"target":{"node":11,"path":"rotation"}},{"sampler":7,"target":{"node":16,"path":"rotation"}},{"sampler":8,"target":{"node":16,"path":"translation"}},{"sampler":9,"target":{"node":13,"path":"rotation"}},{"sampler":10,"target":{"node":13,"path":"translation"}},{"sampler":11,"target":{"node":9,"path":"rotation"}},{"sampler":12,"target":{"node":9,"path":"translation"}},{"sampler":13,"target":{"node":9,"path":"scale"}},{"sampler":14,"target":{"node":10,"path":"rotation"}},{"sampler":15,"target":{"node":7,"path":"rotation"}},{"sampler":16,"target":{"node":7,"path":"translation"}}]}],"bufferViews":[{"buffer":0,"byteOffset":0,"byteLength":4},{"buffer":0,"byteOffset":4,"byteLength":16},{"buffer":0,"byteOffset":20,"byteLength":4},{"buffer":0,"byteOffset":24,"byteLength":12},{"buffer":0,"byteOffset":36,"byteLength":4},{"buffer":0,"byteOffset":40,"byteLength":12},{"buffer":0,"byteOffset":52,"byteLength":4},{"buffer":0,"byteOffset":56,"byteLength":16},{"buffer":0,"byteOffset":72,"byteLength":4},{"buffer":0,"byteOffset":76,"byteLength":12},{"buffer":0,"byteOffset":88,"byteLength":4},{"buffer":0,"byteOffset":92,"byteLength":12},{"buffer":0,"byteOffset":104,"byteLength":56},{"buffer":0,"byteOffset":160,"byteLength":224},{"buffer":0,"byteOffset":384,"byteLength":24},{"buffer":0,"byteOffset":408,"byteLength":96},{"buffer":0,"byteOffset":504,"byteLength":20},{"buffer":0,"byteOffset":524,"byteLength":60},{"buffer":0,"byteOffset":584,"byteLength":116},{"buffer":0,"byteOffset":700,"byteLength":464},{"buffer":0,"byteOffset":1164,"byteLength":108},{"buffer":0,"byteOffset":1272,"byteLength":324},{"buffer":0,"byteOffset":1596,"byteLength":8},{"buffer":0,"byteOffset":1604,"byteLength":32},{"buffer":0,"byteOffset":1636,"byteLength":8},{"buffer":0,"byteOffset":1644,"byteLength":24},{"buffer":0,"byteOffset":1668,"byteLength":4},{"buffer":0,"byteOffset":1672,"byteLength":12},{"buffer":0,"byteOffset":1684,"byteLength":52},{"buffer":0,"byteOffset":1736,"byteLength":208},{"buffer":0,"byteOffset":1944,"byteLength":4},{"buffer":0,"byteOffset":1948,"byteLength":16},{"buffer":0,"byteOffset":1964,"byteLength":4},{"buffer":0,"byteOffset":1968,"byteLength":12}],"buffers":[{"byteLength":1980,"uri":"data:application/octet-stream;base64,"}],"accessors":[{"bufferView":0,"componentType":5126,"count":1,"max":[0],"min":[0],"type":"SCALAR"},{"bufferView":1,"componentType":5126,"count":1,"max":[-0.0020498859230428934,0.7517794966697693,-0.6594082713127136,0.0020301761105656624],"min":[-0.0020498859230428934,0.7517794966697693,-0.6594082713127136,0.0020301761105656624],"type":"VEC4"},{"bufferView":2,"componentType":5126,"count":1,"max":[0],"min":[0],"type":"SCALAR"},{"bufferView":3,"componentType":5126,"count":1,"max":[0.03125,-0.19687500596046448,-0.1875],"min":[0.03125,-0.19687500596046448,-0.1875],"type":"VEC3"},{"bufferView":4,"componentType":5126,"count":1,"max":[0],"min":[0],"type":"SCALAR"},{"bufferView":5,"componentType":5126,"count":1,"max":[1.75,2,1.75],"min":[1.75,2,1.75],"type":"VEC3"},{"bufferView":6,"componentType":5126,"count":1,"max":[0.0416666679084301],"min":[0.0416666679084301],"type":"SCALAR"},{"bufferView":7,"componentType":5126,"count":1,"max":[-0.20917491614818573,0.5542670488357544,-0.7296283841133118,0.3415791690349579],"min":[-0.20917491614818573,0.5542670488357544,-0.7296283841133118,0.3415791690349579],"type":"VEC4"},{"bufferView":8,"componentType":5126,"count":1,"max":[0.0416666679084301],"min":[0.0416666679084301],"type":"SCALAR"},{"bufferView":9,"componentType":5126,"count":1,"max":[-0.4375,-0.8662499785423279,-0.38374999165534973],"min":[-0.4375,-0.8662499785423279,-0.38374999165534973],"type":"VEC3"},{"bufferView":10,"componentType":5126,"count":1,"max":[0],"min":[0],"type":"SCALAR"},{"bufferView":11,"componentType":5126,"count":1,"max":[1.75,2,1.75],"min":[1.75,2,1.75],"type":"VEC3"},{"bufferView":12,"componentType":5126,"count":14,"max":[0.5833333134651184],"min":[0.0416666679084301],"type":"SCALAR"},{"bufferView":13,"componentType":5126,"count":14,"max":[0,0,0,1],"min":[-0.4617486000061035,0,0,0.8870108127593994],"type":"VEC4"},{"bufferView":14,"componentType":5126,"count":6,"max":[0.25],"min":[0.0416666679084301],"type":"SCALAR"},{"bufferView":15,"componentType":5126,"count":6,"max":[0,0.01321153063327074,0,1],"min":[-0.0018627725075930357,0,-0.01751050539314747,0.9997576475143433],"type":"VEC4"},{"bufferView":16,"componentType":5126,"count":5,"max":[0.2083333283662796],"min":[0.0416666679084301],"type":"SCALAR"},{"bufferView":17,"componentType":5126,"count":5,"max":[0.5,0.3125,1.125],"min":[0.5,0.2893750071525574,1.109375],"type":"VEC3"},{"bufferView":18,"componentType":5126,"count":29,"max":[1.2083333730697632],"min":[0.0416666679084301],"type":"SCALAR"},{"bufferView":19,"componentType":5126,"count":29,"max":[0.16829639673233032,0.1202254667878151,0.19555813074111938,1],"min":[-0.18229787051677704,-0.0732949897646904,-0.01091054081916809,0.9708023071289062],"type":"VEC4"},{"bufferView":20,"componentType":5126,"count":27,"max":[1.125],"min":[0.0416666679084301],"type":"SCALAR"},{"bufferView":21,"componentType":5126,"count":27,"max":[0,0.2750000059604645,0.11874999850988388],"min":[-0.04937500134110451,0.17249999940395355,-0.03500000014901161],"type":"VEC3"},{"bufferView":22,"componentType":5126,"count":2,"max":[0.0833333358168602],"min":[0.0416666679084301],"type":"SCALAR"},{"bufferView":23,"componentType":5126,"count":2,"max":[0.429383248090744,0,0.10606279969215393,1],"min":[0,-0.2150740921497345,0,0.8707031011581421],"type":"VEC4"},{"bufferView":24,"componentType":5126,"count":2,"max":[0.0833333358168602],"min":[0.0416666679084301],"type":"SCALAR"},{"bufferView":25,"componentType":5126,"count":2,"max":[0.006738933268934488,-0.6435150504112244,1.1939796209335327],"min":[-0.45826107263565063,-1.019765019416809,-0.9303953647613525],"type":"VEC3"},{"bufferView":26,"componentType":5126,"count":1,"max":[0.0416666679084301],"min":[0.0416666679084301],"type":"SCALAR"},{"bufferView":27,"componentType":5126,"count":1,"max":[1,1,1],"min":[1,1,1],"type":"VEC3"},{"bufferView":28,"componentType":5126,"count":13,"max":[0.5416666865348816],"min":[0.0416666679084301],"type":"SCALAR"},{"bufferView":29,"componentType":5126,"count":13,"max":[0,0,0.5,1],"min":[0,0,0,0.8660253882408142],"type":"VEC4"},{"bufferView":30,"componentType":5126,"count":1,"max":[0.0416666679084301],"min":[0.0416666679084301],"type":"SCALAR"},{"bufferView":31,"componentType":5126,"count":1,"max":[0,0,0,1],"min":[0,0,0,1],"type":"VEC4"},{"bufferView":32,"componentType":5126,"count":1,"max":[0.0416666679084301],"min":[0.0416666679084301],"type":"SCALAR"},{"bufferView":33,"componentType":5126,"count":1,"max":[-0.072509765625,0.290283203125,0.24609375],"min":[-0.072509765625,0.290283203125,0.24609375],"type":"VEC3"}]}