{"asset":{"version":"2.0","generator":"Blockbench 4.9.3 glTF exporter"},"scenes":[{"nodes":[17],"name":"blockbench_export"}],"scene":0,"nodes":[{"translation":[0.375,-0.6875,0],"name":"RightHand"},{"translation":[-0.375,0.6000000000000003,-0.625],"name":"R","children":[0]},{"translation":[0,0.234375,0.453125],"name":"hammer"},{"name":"octagon14"},{"translation":[-0.030625000000000013,-0.3911564361234836,-0.17097279488796535],"name":"octagon13"},{"translation":[0.030625000000000013,0.3911564361234836,0.17097279488796535],"name":"group","children":[4]},{"translation":[0,-0.15625,0.03125],"name":"barrel","children":[3,5]},{"translation":[-0.07250976562499994,0.2902832031250002,0.24609375],"name":"shell"},{"translation":[0,-0.24755859375,-0.203125],"name":"bullet_shell","children":[7]},{"translation":[0.006738933234060607,-1.0197650497782829,1.1939796598300592],"name":"bullet"},{"translation":[0,0.09130859375,0.234375],"name":"cylinder","children":[8,9]},{"translation":[0,0.15625,-0.03125],"name":"front","children":[6,10]},{"translation":[0,-0.08749999999999969,-0.625],"name":"sw_model3","children":[2,11]},{"translation":[0,0.2749999999999997,0],"name":"bone","children":[1,12]},{"translation":[-0.375,-0.6875,0],"name":"LeftHand"},{"translation":[0.375,0.875,-0.625],"name":"l","children":[14]},{"translation":[0.5,0.3125,1.125],"name":"bone2","children":[13,15]},{"children":[16]}],"animations":[{"name":"draw","samplers":[{"input":0,"output":1,"interpolation":"LINEAR"},{"input":2,"output":3,"interpolation":"LINEAR"},{"input":4,"output":5,"interpolation":"LINEAR"},{"input":6,"output":7,"interpolation":"LINEAR"},{"input":8,"output":9,"interpolation":"LINEAR"},{"input":10,"output":11,"interpolation":"LINEAR"},{"input":12,"output":13,"interpolation":"LINEAR"},{"input":14,"output":15,"interpolation":"LINEAR"}],"channels":[{"sampler":0,"target":{"node":1,"path":"rotation"}},{"sampler":1,"target":{"node":1,"path":"translation"}},{"sampler":2,"target":{"node":1,"path":"scale"}},{"sampler":3,"target":{"node":15,"path":"rotation"}},{"sampler":4,"target":{"node":15,"path":"translation"}},{"sampler":5,"target":{"node":15,"path":"scale"}},{"sampler":6,"target":{"node":13,"path":"rotation"}},{"sampler":7,"target":{"node":13,"path":"translation"}}]}],"bufferViews":[{"buffer":0,"byteOffset":0,"byteLength":4},{"buffer":0,"byteOffset":4,"byteLength":16},{"buffer":0,"byteOffset":20,"byteLength":4},{"buffer":0,"byteOffset":24,"byteLength":12},{"buffer":0,"byteOffset":36,"byteLength":4},{"buffer":0,"byteOffset":40,"byteLength":12},{"buffer":0,"byteOffset":52,"byteLength":4},{"buffer":0,"byteOffset":56,"byteLength":16},{"buffer":0,"byteOffset":72,"byteLength":4},{"buffer":0,"byteOffset":76,"byteLength":12},{"buffer":0,"byteOffset":88,"byteLength":4},{"buffer":0,"byteOffset":92,"byteLength":12},{"buffer":0,"byteOffset":104,"byteLength":76},{"buffer":0,"byteOffset":180,"byteLength":304},{"buffer":0,"byteOffset":484,"byteLength":72},{"buffer":0,"byteOffset":556,"byteLength":216}],"buffers":[{"byteLength":772,"uri":"data:application/octet-stream;base64,"}],"accessors":[{"bufferView":0,"componentType":5126,"count":1,"max":[0],"min":[0],"type":"SCALAR"},{"bufferView":1,"componentType":5126,"count":1,"max":[-0.0020498859230428934,0.7517794966697693,-0.6594082713127136,0.0020301761105656624],"min":[-0.0020498859230428934,0.7517794966697693,-0.6594082713127136,0.0020301761105656624],"type":"VEC4"},{"bufferView":2,"componentType":5126,"count":1,"max":[0],"min":[0],"type":"SCALAR"},{"bufferView":3,"componentType":5126,"count":1,"max":[0.03125,-0.19687500596046448,-0.1875],"min":[0.03125,-0.19687500596046448,-0.1875],"type":"VEC3"},{"bufferView":4,"componentType":5126,"count":1,"max":[0],"min":[0],"type":"SCALAR"},{"bufferView":5,"componentType":5126,"count":1,"max":[1.75,2,1.75],"min":[1.75,2,1.75],"type":"VEC3"},{"bufferView":6,"componentType":5126,"count":1,"max":[0],"min":[0],"type":"SCALAR"},{"bufferView":7,"componentType":5126,"count":1,"max":[-0.4832361936569214,0.4174530804157257,-0.7162947654724121,0.281313955783844],"min":[-0.4832361936569214,0.4174530804157257,-0.7162947654724121,0.281313955783844],"type":"VEC4"},{"bufferView":8,"componentType":5126,"count":1,"max":[0],"min":[0],"type":"SCALAR"},{"bufferView":9,"componentType":5126,"count":1,"max":[-0.6875,-0.875,-0.0625],"min":[-0.6875,-0.875,-0.0625],"type":"VEC3"},{"bufferView":10,"componentType":5126,"count":1,"max":[0],"min":[0],"type":"SCALAR"},{"bufferView":11,"componentType":5126,"count":1,"max":[1.75,2,1.75],"min":[1.75,2,1.75],"type":"VEC3"},{"bufferView":12,"componentType":5126,"count":19,"max":[0.8333333134651184],"min":[0.0833333358168602],"type":"SCALAR"},{"bufferView":13,"componentType":5126,"count":19,"max":[0.04967918246984482,0.1444486826658249,0.08798908442258835,1],"min":[-0.32581445574760437,-0.029112065210938454,-0.04201073944568634,0.9301813840866089],"type":"VEC4"},{"bufferView":14,"componentType":5126,"count":18,"max":[0.75],"min":[0.0416666679084301],"type":"SCALAR"},{"bufferView":15,"componentType":5126,"count":18,"max":[0,0.3556250035762787,0.027499999850988388],"min":[0,-0.4749999940395355,-0.10625000298023224],"type":"VEC3"}]}