{"asset":{"version":"2.0","generator":"Blockbench 4.9.3 glTF exporter"},"scenes":[{"nodes":[17],"name":"blockbench_export"}],"scene":0,"nodes":[{"translation":[0.375,-0.6875,0],"name":"RightHand"},{"translation":[-0.375,0.6000000000000003,-0.625],"name":"R","children":[0]},{"translation":[0,0.234375,0.453125],"name":"hammer"},{"name":"octagon14"},{"translation":[-0.030625000000000013,-0.3911564361234836,-0.17097279488796535],"name":"octagon13"},{"translation":[0.030625000000000013,0.3911564361234836,0.17097279488796535],"name":"group","children":[4]},{"translation":[0,-0.15625,0.03125],"name":"barrel","children":[3,5]},{"translation":[-0.07250976562499994,0.2902832031250002,0.24609375],"name":"shell"},{"translation":[0,-0.24755859375,-0.203125],"name":"bullet_shell","children":[7]},{"translation":[0.006738933234060607,-1.0197650497782829,1.1939796598300592],"name":"bullet"},{"translation":[0,0.09130859375,0.234375],"name":"cylinder","children":[8,9]},{"translation":[0,0.15625,-0.03125],"name":"front","children":[6,10]},{"translation":[0,-0.08749999999999969,-0.625],"name":"sw_model3","children":[2,11]},{"translation":[0,0.2749999999999997,0],"name":"bone","children":[1,12]},{"translation":[-0.375,-0.6875,0],"name":"LeftHand"},{"translation":[0.375,0.875,-0.625],"name":"l","children":[14]},{"translation":[0.5,0.3125,1.125],"name":"bone2","children":[13,15]},{"children":[16]}],"animations":[{"name":"reload_intro","samplers":[{"input":0,"output":1,"interpolation":"LINEAR"},{"input":2,"output":3,"interpolation":"LINEAR"},{"input":4,"output":5,"interpolation":"LINEAR"},{"input":6,"output":7,"interpolation":"LINEAR"},{"input":8,"output":9,"interpolation":"LINEAR"},{"input":10,"output":11,"interpolation":"LINEAR"},{"input":12,"output":13,"interpolation":"LINEAR"},{"input":14,"output":15,"interpolation":"LINEAR"},{"input":16,"output":17,"interpolation":"LINEAR"},{"input":18,"output":19,"interpolation":"LINEAR"},{"input":20,"output":21,"interpolation":"LINEAR"}],"channels":[{"sampler":0,"target":{"node":1,"path":"rotation"}},{"sampler":1,"target":{"node":1,"path":"translation"}},{"sampler":2,"target":{"node":1,"path":"scale"}},{"sampler":3,"target":{"node":15,"path":"rotation"}},{"sampler":4,"target":{"node":15,"path":"translation"}},{"sampler":5,"target":{"node":15,"path":"scale"}},{"sampler":6,"target":{"node":11,"path":"rotation"}},{"sampler":7,"target":{"node":16,"path":"rotation"}},{"sampler":8,"target":{"node":16,"path":"translation"}},{"sampler":9,"target":{"node":13,"path":"rotation"}},{"sampler":10,"target":{"node":13,"path":"translation"}}]}],"bufferViews":[{"buffer":0,"byteOffset":0,"byteLength":4},{"buffer":0,"byteOffset":4,"byteLength":16},{"buffer":0,"byteOffset":20,"byteLength":4},{"buffer":0,"byteOffset":24,"byteLength":12},{"buffer":0,"byteOffset":36,"byteLength":4},{"buffer":0,"byteOffset":40,"byteLength":12},{"buffer":0,"byteOffset":52,"byteLength":116},{"buffer":0,"byteOffset":168,"byteLength":464},{"buffer":0,"byteOffset":632,"byteLength":124},{"buffer":0,"byteOffset":756,"byteLength":372},{"buffer":0,"byteOffset":1128,"byteLength":4},{"buffer":0,"byteOffset":1132,"byteLength":12},{"buffer":0,"byteOffset":1144,"byteLength":20},{"buffer":0,"byteOffset":1164,"byteLength":80},{"buffer":0,"byteOffset":1244,"byteLength":128},{"buffer":0,"byteOffset":1372,"byteLength":512},{"buffer":0,"byteOffset":1884,"byteLength":128},{"buffer":0,"byteOffset":2012,"byteLength":384},{"buffer":0,"byteOffset":2396,"byteLength":120},{"buffer":0,"byteOffset":2516,"byteLength":480},{"buffer":0,"byteOffset":2996,"byteLength":128},{"buffer":0,"byteOffset":3124,"byteLength":384}],"buffers":[{"byteLength":3508,"uri":"data:application/octet-stream;base64,"}],"accessors":[{"bufferView":0,"componentType":5126,"count":1,"max":[0],"min":[0],"type":"SCALAR"},{"bufferView":1,"componentType":5126,"count":1,"max":[-0.0020498859230428934,0.7517794966697693,-0.6594082713127136,0.0020301761105656624],"min":[-0.0020498859230428934,0.7517794966697693,-0.6594082713127136,0.0020301761105656624],"type":"VEC4"},{"bufferView":2,"componentType":5126,"count":1,"max":[0],"min":[0],"type":"SCALAR"},{"bufferView":3,"componentType":5126,"count":1,"max":[0.03125,-0.19687500596046448,-0.1875],"min":[0.03125,-0.19687500596046448,-0.1875],"type":"VEC3"},{"bufferView":4,"componentType":5126,"count":1,"max":[0],"min":[0],"type":"SCALAR"},{"bufferView":5,"componentType":5126,"count":1,"max":[1.75,2,1.75],"min":[1.75,2,1.75],"type":"VEC3"},{"bufferView":6,"componentType":5126,"count":29,"max":[1.375],"min":[0.2083333283662796],"type":"SCALAR"},{"bufferView":7,"componentType":5126,"count":29,"max":[0.188696950674057,0.8481261134147644,-0.4107472598552704,0.4720037281513214],"min":[-0.4832361936569214,0.4174530804157257,-0.7296283841133118,0.20628762245178223],"type":"VEC4"},{"bufferView":8,"componentType":5126,"count":31,"max":[1.3333333730697632],"min":[0.0833333358168602],"type":"SCALAR"},{"bufferView":9,"componentType":5126,"count":31,"max":[-0.4375,0.5,-0.0625],"min":[-0.6875,-0.875,-0.8212500214576721],"type":"VEC3"},{"bufferView":10,"componentType":5126,"count":1,"max":[0],"min":[0],"type":"SCALAR"},{"bufferView":11,"componentType":5126,"count":1,"max":[1.75,2,1.75],"min":[1.75,2,1.75],"type":"VEC3"},{"bufferView":12,"componentType":5126,"count":5,"max":[0.9583333134651184],"min":[0.7916666865348816],"type":"SCALAR"},{"bufferView":13,"componentType":5126,"count":5,"max":[0,0,0,1],"min":[-0.4617486000061035,0,0,0.8870108127593994],"type":"VEC4"},{"bufferView":14,"componentType":5126,"count":32,"max":[1.375],"min":[0.0833333358168602],"type":"SCALAR"},{"bufferView":15,"componentType":5126,"count":32,"max":[0.01646236702799797,0.015269729308784008,0.03933204337954521,1],"min":[-0.04156772792339325,0,-0.01751050539314747,0.9983770251274109],"type":"VEC4"},{"bufferView":16,"componentType":5126,"count":32,"max":[1.3333333730697632],"min":[0.0416666679084301],"type":"SCALAR"},{"bufferView":17,"componentType":5126,"count":32,"max":[0.5,0.3149999976158142,1.1281249523162842],"min":[0.5,0.27687498927116394,1.0793750286102295],"type":"VEC3"},{"bufferView":18,"componentType":5126,"count":30,"max":[1.375],"min":[0.1666666716337204],"type":"SCALAR"},{"bufferView":19,"componentType":5126,"count":30,"max":[0.06961135566234589,0.127898171544075,0.22507867217063904,1],"min":[0,0,0,0.9686325788497925],"type":"VEC4"},{"bufferView":20,"componentType":5126,"count":32,"max":[1.3333333730697632],"min":[0.0416666679084301],"type":"SCALAR"},{"bufferView":21,"componentType":5126,"count":32,"max":[0,0.2750000059604645,0.11874999850988388],"min":[-0.08187499642372131,0.21312500536441803,0],"type":"VEC3"}]}