{"asset":{"version":"2.0","generator":"Blockbench 4.8.3 glTF exporter"},"scenes":[{"nodes":[14],"name":"blockbench_export"}],"scene":0,"nodes":[{"translation":[0,0.01025374999999995,0.05371124999999999],"name":"bone"},{"translation":[0.0625,-0.75,-1.5334217187499999],"name":"Light"},{"translation":[0,-0.004414009969323507,0.050048906250000025],"name":"bullet","children":[1]},{"translation":[0,0.007832134969323556,0.10351531250000001],"name":"Magazine_3","children":[2]},{"translation":[0,0.06103499999999995,0.05371124999999999],"name":"Magazine_2","children":[3]},{"translation":[-0.5,0.546525625,-0.285645625],"name":"Magazine_1","children":[0,4]},{"translation":[0,-0.43910375,0.07080187500000001],"name":"gunbody","children":[5]},{"translation":[0.5,-0.07421875,-0.109375],"name":"Firstcurse","children":[6]},{"translation":[0.375,-0.625,0.0625],"name":"RightHand"},{"translation":[-0.375,0.390625,0.078125],"name":"R","children":[8]},{"translation":[0,-0.015625,0.109375],"name":"bone1","children":[7,9]},{"translation":[-0.375,-0.625,0.0625],"name":"LeftHand"},{"translation":[0.375,0.375,0.1875],"name":"L","children":[11]},{"translation":[0.5,0.75,0.25],"name":"bone2","children":[10,12]},{"children":[13]}],"animations":[{"name":"fire","samplers":[{"input":0,"output":1,"interpolation":"LINEAR"},{"input":2,"output":3,"interpolation":"LINEAR"},{"input":4,"output":5,"interpolation":"LINEAR"},{"input":6,"output":7,"interpolation":"LINEAR"},{"input":8,"output":9,"interpolation":"LINEAR"},{"input":10,"output":11,"interpolation":"LINEAR"},{"input":12,"output":13,"interpolation":"LINEAR"}],"channels":[{"sampler":0,"target":{"node":12,"path":"rotation"}},{"sampler":1,"target":{"node":12,"path":"translation"}},{"sampler":2,"target":{"node":10,"path":"translation"}},{"sampler":3,"target":{"node":9,"path":"rotation"}},{"sampler":4,"target":{"node":9,"path":"translation"}},{"sampler":5,"target":{"node":13,"path":"rotation"}},{"sampler":6,"target":{"node":13,"path":"translation"}}]}],"bufferViews":[{"buffer":0,"byteOffset":0,"byteLength":4},{"buffer":0,"byteOffset":4,"byteLength":16},{"buffer":0,"byteOffset":20,"byteLength":4},{"buffer":0,"byteOffset":24,"byteLength":12},{"buffer":0,"byteOffset":36,"byteLength":4},{"buffer":0,"byteOffset":40,"byteLength":12},{"buffer":0,"byteOffset":52,"byteLength":16},{"buffer":0,"byteOffset":68,"byteLength":64},{"buffer":0,"byteOffset":132,"byteLength":16},{"buffer":0,"byteOffset":148,"byteLength":48},{"buffer":0,"byteOffset":196,"byteLength":64},{"buffer":0,"byteOffset":260,"byteLength":256},{"buffer":0,"byteOffset":516,"byteLength":56},{"buffer":0,"byteOffset":572,"byteLength":168}],"buffers":[{"byteLength":740,"uri":"data:application/octet-stream;base64,"}],"accessors":[{"bufferView":0,"componentType":5126,"count":1,"max":[0],"min":[0],"type":"SCALAR"},{"bufferView":1,"componentType":5126,"count":1,"max":[0.0726630762219429,0.7761774659156799,-0.6252424716949463,-0.03661322966217995],"min":[0.0726630762219429,0.7761774659156799,-0.6252424716949463,-0.03661322966217995],"type":"VEC4"},{"bufferView":2,"componentType":5126,"count":1,"max":[0],"min":[0],"type":"SCALAR"},{"bufferView":3,"componentType":5126,"count":1,"max":[-0.039374999701976776,-0.1368750035762787,0.1681250035762787],"min":[-0.039374999701976776,-0.1368750035762787,0.1681250035762787],"type":"VEC3"},{"bufferView":4,"componentType":5126,"count":1,"max":[0],"min":[0],"type":"SCALAR"},{"bufferView":5,"componentType":5126,"count":1,"max":[0,-0.015625,0.109375],"min":[0,-0.015625,0.109375],"type":"VEC3"},{"bufferView":6,"componentType":5126,"count":4,"max":[0.125],"min":[0],"type":"SCALAR"},{"bufferView":7,"componentType":5126,"count":4,"max":[-0.00196917075663805,0.7511528730392456,-0.6594070196151733,-0.0307878740131855],"min":[-0.00196917075663805,0.7511528730392456,-0.6594070196151733,-0.0307878740131855],"type":"VEC4"},{"bufferView":8,"componentType":5126,"count":4,"max":[0.125],"min":[0],"type":"SCALAR"},{"bufferView":9,"componentType":5126,"count":4,"max":[0.019375000149011612,-0.06624999642372131,0.015625],"min":[0.019375000149011612,-0.06624999642372131,0.015625],"type":"VEC3"},{"bufferView":10,"componentType":5126,"count":16,"max":[0.625],"min":[0],"type":"SCALAR"},{"bufferView":11,"componentType":5126,"count":16,"max":[0.26043567061424255,0.0007840260514058173,0,1],"min":[0,-0.02349497564136982,-0.025009946897625923,0.965058445930481],"type":"VEC4"},{"bufferView":12,"componentType":5126,"count":14,"max":[0.5416666865348816],"min":[0],"type":"SCALAR"},{"bufferView":13,"componentType":5126,"count":14,"max":[0.5550000071525574,0.7668750286102295,0.4293749928474426],"min":[0.5,0.75,0.25],"type":"VEC3"}]}