{"asset":{"version":"2.0","generator":"Blockbench 4.8.3 glTF exporter"},"scenes":[{"nodes":[17],"name":"blockbench_export"}],"scene":0,"nodes":[{"translation":[0.375,-0.625,0.0625],"name":"RightHand"},{"translation":[-0.375,0.390625,0.078125],"name":"R","children":[0]},{"translation":[-0.00390625,0.015625,1.0078125],"name":"sight_left"},{"translation":[0.02734375,0.015625,1.0078125],"name":"sight_right"},{"translation":[0.01953125,0.9765625,-0.23046875],"name":"Sight_1","children":[2,3]},{"translation":[-0.03125,-0.65234375,-0.7578125],"name":"Sight","children":[4]},{"translation":[0,0.6062155038911284,0.07365031244927045],"name":"hammer"},{"translation":[0,-0.004414009969323507,0.050048906250000025],"name":"bullet"},{"translation":[0,0.007832134969323556,0.10351531250000001],"name":"Magazine_3","children":[7]},{"translation":[0,0.06103499999999995,0.05371124999999999],"name":"Magazine_2","children":[8]},{"translation":[0,0.546525625,-0.285645625],"name":"Magazine_1","children":[9]},{"translation":[0,-0.43910375,0.07080187500000001],"name":"gunbody","children":[6,10]},{"translation":[0,-0.07421875,-0.109375],"name":"Lastword","children":[5,11]},{"translation":[0,-0.015625,0.109375],"name":"bone1","children":[1,12]},{"translation":[-0.375,-0.625,0.0625],"name":"LeftHand"},{"translation":[0.375,0.375,0.1875],"name":"L","children":[14]},{"translation":[0.5,0.75,0.25],"name":"bone2","children":[13,15]},{"children":[16]}],"animations":[{"name":"static_state","samplers":[{"input":0,"output":1,"interpolation":"LINEAR"},{"input":2,"output":3,"interpolation":"LINEAR"},{"input":4,"output":5,"interpolation":"LINEAR"},{"input":6,"output":7,"interpolation":"LINEAR"},{"input":8,"output":9,"interpolation":"LINEAR"},{"input":10,"output":11,"interpolation":"LINEAR"},{"input":12,"output":13,"interpolation":"LINEAR"},{"input":14,"output":15,"interpolation":"LINEAR"}],"channels":[{"sampler":0,"target":{"node":12,"path":"rotation"}},{"sampler":1,"target":{"node":12,"path":"translation"}},{"sampler":2,"target":{"node":15,"path":"rotation"}},{"sampler":3,"target":{"node":15,"path":"translation"}},{"sampler":4,"target":{"node":13,"path":"rotation"}},{"sampler":5,"target":{"node":13,"path":"translation"}},{"sampler":6,"target":{"node":1,"path":"rotation"}},{"sampler":7,"target":{"node":1,"path":"translation"}}]}],"bufferViews":[{"buffer":0,"byteOffset":0,"byteLength":4},{"buffer":0,"byteOffset":4,"byteLength":16},{"buffer":0,"byteOffset":20,"byteLength":4},{"buffer":0,"byteOffset":24,"byteLength":12},{"buffer":0,"byteOffset":36,"byteLength":4},{"buffer":0,"byteOffset":40,"byteLength":16},{"buffer":0,"byteOffset":56,"byteLength":4},{"buffer":0,"byteOffset":60,"byteLength":12},{"buffer":0,"byteOffset":72,"byteLength":4},{"buffer":0,"byteOffset":76,"byteLength":16},{"buffer":0,"byteOffset":92,"byteLength":4},{"buffer":0,"byteOffset":96,"byteLength":12},{"buffer":0,"byteOffset":108,"byteLength":4},{"buffer":0,"byteOffset":112,"byteLength":16},{"buffer":0,"byteOffset":128,"byteLength":4},{"buffer":0,"byteOffset":132,"byteLength":12}],"buffers":[{"byteLength":144,"uri":"data:application/octet-stream;base64,"}],"accessors":[{"bufferView":0,"componentType":5126,"count":1,"max":[0],"min":[0],"type":"SCALAR"},{"bufferView":1,"componentType":5126,"count":1,"max":[0,0,0,1],"min":[0,0,0,1],"type":"VEC4"},{"bufferView":2,"componentType":5126,"count":1,"max":[0],"min":[0],"type":"SCALAR"},{"bufferView":3,"componentType":5126,"count":1,"max":[0,-0.07421875,-0.109375],"min":[0,-0.07421875,-0.109375],"type":"VEC3"},{"bufferView":4,"componentType":5126,"count":1,"max":[0],"min":[0],"type":"SCALAR"},{"bufferView":5,"componentType":5126,"count":1,"max":[0.0726398304104805,0.7761921882629395,-0.625227153301239,-0.03660880774259567],"min":[0.0726398304104805,0.7761921882629395,-0.625227153301239,-0.03660880774259567],"type":"VEC4"},{"bufferView":6,"componentType":5126,"count":1,"max":[0],"min":[0],"type":"SCALAR"},{"bufferView":7,"componentType":5126,"count":1,"max":[-0.0390625,-0.13671875,0.16796875],"min":[-0.0390625,-0.13671875,0.16796875],"type":"VEC3"},{"bufferView":8,"componentType":5126,"count":1,"max":[0],"min":[0],"type":"SCALAR"},{"bufferView":9,"componentType":5126,"count":1,"max":[0,0,0,1],"min":[0,0,0,1],"type":"VEC4"},{"bufferView":10,"componentType":5126,"count":1,"max":[0],"min":[0],"type":"SCALAR"},{"bufferView":11,"componentType":5126,"count":1,"max":[0,-0.015625,0.109375],"min":[0,-0.015625,0.109375],"type":"VEC3"},{"bufferView":12,"componentType":5126,"count":1,"max":[0],"min":[0],"type":"SCALAR"},{"bufferView":13,"componentType":5126,"count":1,"max":[-0.0020172656513750553,0.7511682510375977,-0.659389853477478,-0.030777527019381523],"min":[-0.0020172656513750553,0.7511682510375977,-0.659389853477478,-0.030777527019381523],"type":"VEC4"},{"bufferView":14,"componentType":5126,"count":1,"max":[0],"min":[0],"type":"SCALAR"},{"bufferView":15,"componentType":5126,"count":1,"max":[0.01953125,-0.06640625,0.015625],"min":[0.01953125,-0.06640625,0.015625],"type":"VEC3"}]}