{"asset":{"version":"2.0","generator":"Blockbench 4.8.3 glTF exporter"},"scenes":[{"nodes":[17],"name":"blockbench_export"}],"scene":0,"nodes":[{"translation":[0.375,-0.625,0.0625],"name":"RightHand"},{"translation":[-0.375,0.390625,0.078125],"name":"R","children":[0]},{"translation":[-0.00390625,0.015625,1.0078125],"name":"sight_left"},{"translation":[0.02734375,0.015625,1.0078125],"name":"sight_right"},{"translation":[0.01953125,0.9765625,-0.23046875],"name":"Sight_1","children":[2,3]},{"translation":[-0.03125,-0.65234375,-0.7578125],"name":"Sight","children":[4]},{"translation":[0,0.6062155038911284,0.07365031244927045],"name":"hammer"},{"translation":[0,-0.004414009969323507,0.050048906250000025],"name":"bullet"},{"translation":[0,0.007832134969323556,0.10351531250000001],"name":"Magazine_3","children":[7]},{"translation":[0,0.06103499999999995,0.05371124999999999],"name":"Magazine_2","children":[8]},{"translation":[0,0.546525625,-0.285645625],"name":"Magazine_1","children":[9]},{"translation":[0,-0.43910375,0.07080187500000001],"name":"gunbody","children":[6,10]},{"translation":[0,-0.07421875,-0.109375],"name":"Lastword","children":[5,11]},{"translation":[0,-0.015625,0.109375],"name":"bone1","children":[1,12]},{"translation":[-0.375,-0.625,0.0625],"name":"LeftHand"},{"translation":[0.375,0.375,0.1875],"name":"L","children":[14]},{"translation":[0.5,0.75,0.25],"name":"bone2","children":[13,15]},{"children":[16]}],"animations":[{"name":"draw","samplers":[{"input":0,"output":1,"interpolation":"LINEAR"},{"input":2,"output":3,"interpolation":"LINEAR"},{"input":4,"output":5,"interpolation":"LINEAR"},{"input":6,"output":7,"interpolation":"LINEAR"},{"input":8,"output":9,"interpolation":"LINEAR"},{"input":10,"output":11,"interpolation":"LINEAR"},{"input":12,"output":13,"interpolation":"LINEAR"},{"input":14,"output":15,"interpolation":"LINEAR"},{"input":16,"output":17,"interpolation":"LINEAR"},{"input":18,"output":19,"interpolation":"LINEAR"}],"channels":[{"sampler":0,"target":{"node":15,"path":"rotation"}},{"sampler":1,"target":{"node":15,"path":"translation"}},{"sampler":2,"target":{"node":1,"path":"rotation"}},{"sampler":3,"target":{"node":1,"path":"translation"}},{"sampler":4,"target":{"node":12,"path":"rotation"}},{"sampler":5,"target":{"node":12,"path":"translation"}},{"sampler":6,"target":{"node":13,"path":"rotation"}},{"sampler":7,"target":{"node":13,"path":"translation"}},{"sampler":8,"target":{"node":16,"path":"rotation"}},{"sampler":9,"target":{"node":16,"path":"translation"}}]}],"bufferViews":[{"buffer":0,"byteOffset":0,"byteLength":40},{"buffer":0,"byteOffset":40,"byteLength":160},{"buffer":0,"byteOffset":200,"byteLength":36},{"buffer":0,"byteOffset":236,"byteLength":108},{"buffer":0,"byteOffset":344,"byteLength":4},{"buffer":0,"byteOffset":348,"byteLength":16},{"buffer":0,"byteOffset":364,"byteLength":4},{"buffer":0,"byteOffset":368,"byteLength":12},{"buffer":0,"byteOffset":380,"byteLength":72},{"buffer":0,"byteOffset":452,"byteLength":288},{"buffer":0,"byteOffset":740,"byteLength":72},{"buffer":0,"byteOffset":812,"byteLength":216},{"buffer":0,"byteOffset":1028,"byteLength":80},{"buffer":0,"byteOffset":1108,"byteLength":320},{"buffer":0,"byteOffset":1428,"byteLength":84},{"buffer":0,"byteOffset":1512,"byteLength":252},{"buffer":0,"byteOffset":1764,"byteLength":24},{"buffer":0,"byteOffset":1788,"byteLength":96},{"buffer":0,"byteOffset":1884,"byteLength":24},{"buffer":0,"byteOffset":1908,"byteLength":72}],"buffers":[{"byteLength":1980,"uri":"data:application/octet-stream;base64,"}],"accessors":[{"bufferView":0,"componentType":5126,"count":10,"max":[0.875],"min":[0.5],"type":"SCALAR"},{"bufferView":1,"componentType":5126,"count":10,"max":[0.0726630762219429,0.7767358422279358,-0.420109361410141,0.2830585241317749],"min":[-0.4741750955581665,0.7200999855995178,-0.6420003771781921,-0.03860314190387726],"type":"VEC4"},{"bufferView":2,"componentType":5126,"count":9,"max":[0.8333333134651184],"min":[0.5],"type":"SCALAR"},{"bufferView":3,"componentType":5126,"count":9,"max":[-0.039374999701976776,-0.1368750035762787,0.1681250035762787],"min":[-0.6018750071525574,-0.4375,0.0062500000931322575],"type":"VEC3"},{"bufferView":4,"componentType":5126,"count":1,"max":[0],"min":[0],"type":"SCALAR"},{"bufferView":5,"componentType":5126,"count":1,"max":[-0.00196917075663805,0.7511528730392456,-0.6594070196151733,-0.0307878740131855],"min":[-0.00196917075663805,0.7511528730392456,-0.6594070196151733,-0.0307878740131855],"type":"VEC4"},{"bufferView":6,"componentType":5126,"count":1,"max":[0],"min":[0],"type":"SCALAR"},{"bufferView":7,"componentType":5126,"count":1,"max":[0.019375000149011612,-0.06624999642372131,0.015625],"min":[0.019375000149011612,-0.06624999642372131,0.015625],"type":"VEC3"},{"bufferView":8,"componentType":5126,"count":18,"max":[0.8333333134651184],"min":[0.125],"type":"SCALAR"},{"bufferView":9,"componentType":5126,"count":18,"max":[0.9990020394325256,0.003515907796099782,0.031012581661343575,0.9996839761734009],"min":[-0.31823769211769104,-0.032656390219926834,-0.01925039477646351,-1],"type":"VEC4"},{"bufferView":10,"componentType":5126,"count":18,"max":[0.75],"min":[0.0416666679084301],"type":"SCALAR"},{"bufferView":11,"componentType":5126,"count":18,"max":[0,0.012031249701976776,-0.09749999642372131],"min":[-0.125,-0.17546874284744263,-0.109375],"type":"VEC3"},{"bufferView":12,"componentType":5126,"count":20,"max":[0.7916666865348816],"min":[0],"type":"SCALAR"},{"bufferView":13,"componentType":5126,"count":20,"max":[0.35617730021476746,0.14616484940052032,0.08429969102144241,1],"min":[-0.09344307333230972,-0.025035686790943146,-0.2782021164894104,0.8856166005134583],"type":"VEC4"},{"bufferView":14,"componentType":5126,"count":21,"max":[0.8333333134651184],"min":[0],"type":"SCALAR"},{"bufferView":15,"componentType":5126,"count":21,"max":[0.1693750023841858,0.2043749988079071,0.47437500953674316],"min":[-0.01875000074505806,-1.347499966621399,-0.1368750035762787],"type":"VEC3"},{"bufferView":16,"componentType":5126,"count":6,"max":[1],"min":[0.7916666865348816],"type":"SCALAR"},{"bufferView":17,"componentType":5126,"count":6,"max":[0,0,0,1],"min":[-0.04579886794090271,0,0,0.9989506602287292],"type":"VEC4"},{"bufferView":18,"componentType":5126,"count":6,"max":[0.9583333134651184],"min":[0.75],"type":"SCALAR"},{"bufferView":19,"componentType":5126,"count":6,"max":[0.5006250143051147,0.75,0.25],"min":[0.5,0.7012500166893005,0.2462500035762787],"type":"VEC3"}]}