{"asset":{"version":"2.0","generator":"Blockbench 4.8.3 glTF exporter"},"scenes":[{"nodes":[17],"name":"blockbench_export"}],"scene":0,"nodes":[{"translation":[0.375,-0.625,0.0625],"name":"RightHand"},{"translation":[-0.375,0.390625,0.078125],"name":"R","children":[0]},{"translation":[-0.00390625,0.015625,1.0078125],"name":"sight_left"},{"translation":[0.02734375,0.015625,1.0078125],"name":"sight_right"},{"translation":[0.01953125,0.9765625,-0.23046875],"name":"Sight_1","children":[2,3]},{"translation":[-0.03125,-0.65234375,-0.7578125],"name":"Sight","children":[4]},{"translation":[0,0.6062155038911284,0.07365031244927045],"name":"hammer"},{"translation":[0,-0.004414009969323507,0.050048906250000025],"name":"bullet"},{"translation":[0,0.007832134969323556,0.10351531250000001],"name":"Magazine_3","children":[7]},{"translation":[0,0.06103499999999995,0.05371124999999999],"name":"Magazine_2","children":[8]},{"translation":[0,0.546525625,-0.285645625],"name":"Magazine_1","children":[9]},{"translation":[0,-0.43910375,0.07080187500000001],"name":"gunbody","children":[6,10]},{"translation":[0,-0.07421875,-0.109375],"name":"Lastword","children":[5,11]},{"translation":[0,-0.015625,0.109375],"name":"bone1","children":[1,12]},{"translation":[-0.375,-0.625,0.0625],"name":"LeftHand"},{"translation":[0.375,0.375,0.1875],"name":"L","children":[14]},{"translation":[0.5,0.75,0.25],"name":"bone2","children":[13,15]},{"children":[16]}],"animations":[{"name":"inspect","samplers":[{"input":0,"output":1,"interpolation":"LINEAR"},{"input":2,"output":3,"interpolation":"LINEAR"},{"input":4,"output":5,"interpolation":"LINEAR"},{"input":6,"output":7,"interpolation":"LINEAR"},{"input":8,"output":9,"interpolation":"LINEAR"},{"input":10,"output":11,"interpolation":"LINEAR"},{"input":12,"output":13,"interpolation":"LINEAR"},{"input":14,"output":15,"interpolation":"LINEAR"}],"channels":[{"sampler":0,"target":{"node":12,"path":"rotation"}},{"sampler":1,"target":{"node":12,"path":"translation"}},{"sampler":2,"target":{"node":15,"path":"rotation"}},{"sampler":3,"target":{"node":15,"path":"translation"}},{"sampler":4,"target":{"node":13,"path":"rotation"}},{"sampler":5,"target":{"node":13,"path":"translation"}},{"sampler":6,"target":{"node":1,"path":"rotation"}},{"sampler":7,"target":{"node":1,"path":"translation"}}]}],"bufferViews":[{"buffer":0,"byteOffset":0,"byteLength":488},{"buffer":0,"byteOffset":488,"byteLength":1952},{"buffer":0,"byteOffset":2440,"byteLength":476},{"buffer":0,"byteOffset":2916,"byteLength":1428},{"buffer":0,"byteOffset":4344,"byteLength":532},{"buffer":0,"byteOffset":4876,"byteLength":2128},{"buffer":0,"byteOffset":7004,"byteLength":524},{"buffer":0,"byteOffset":7528,"byteLength":1572},{"buffer":0,"byteOffset":9100,"byteLength":536},{"buffer":0,"byteOffset":9636,"byteLength":2144},{"buffer":0,"byteOffset":11780,"byteLength":540},{"buffer":0,"byteOffset":12320,"byteLength":1620},{"buffer":0,"byteOffset":13940,"byteLength":4},{"buffer":0,"byteOffset":13944,"byteLength":16},{"buffer":0,"byteOffset":13960,"byteLength":4},{"buffer":0,"byteOffset":13964,"byteLength":12}],"buffers":[{"byteLength":13976,"uri":"data:application/octet-stream;base64,"}],"accessors":[{"bufferView":0,"componentType":5126,"count":122,"max":[5],"min":[0],"type":"SCALAR"},{"bufferView":1,"componentType":5126,"count":122,"max":[0.998979926109314,0.04361524060368538,0.04241684451699257,1],"min":[-0.9715054631233215,-0.04361920803785324,-0.0436164066195488,-0.9990440607070923],"type":"VEC4"},{"bufferView":2,"componentType":5126,"count":119,"max":[4.916666507720947],"min":[0],"type":"SCALAR"},{"bufferView":3,"componentType":5126,"count":119,"max":[0,0.023281250149011612,-0.109375],"min":[-0.10562500357627869,-0.10171875357627869,-0.1681250035762787],"type":"VEC3"},{"bufferView":4,"componentType":5126,"count":133,"max":[5.5],"min":[0],"type":"SCALAR"},{"bufferView":5,"componentType":5126,"count":133,"max":[0.3017829358577728,0.7761774659156799,-0.2743574380874634,0.6483761668205261],"min":[-0.009082804434001446,0.5652706027030945,-0.6901408433914185,-0.03661322966217995],"type":"VEC4"},{"bufferView":6,"componentType":5126,"count":131,"max":[5.416666507720947],"min":[0],"type":"SCALAR"},{"bufferView":7,"componentType":5126,"count":131,"max":[-0.015625,0.140625,0.17874999344348907],"min":[-0.31687501072883606,-0.4412499964237213,-0.07000000029802322],"type":"VEC3"},{"bufferView":8,"componentType":5126,"count":134,"max":[5.541666507720947],"min":[0],"type":"SCALAR"},{"bufferView":9,"componentType":5126,"count":134,"max":[0.28835535049438477,0.34013062715530396,0.07609906047582626,1],"min":[-0.17157325148582458,-0.1529102325439453,-0.5765431523323059,0.8115182518959045],"type":"VEC4"},{"bufferView":10,"componentType":5126,"count":135,"max":[5.583333492279053],"min":[0],"type":"SCALAR"},{"bufferView":11,"componentType":5126,"count":135,"max":[0.2068749964237213,0.1599999964237213,0.19374999403953552],"min":[-0.0012499999720603228,-0.18187500536441803,-0.007499999832361937],"type":"VEC3"},{"bufferView":12,"componentType":5126,"count":1,"max":[0],"min":[0],"type":"SCALAR"},{"bufferView":13,"componentType":5126,"count":1,"max":[-0.00196917075663805,0.7511528730392456,-0.6594070196151733,-0.0307878740131855],"min":[-0.00196917075663805,0.7511528730392456,-0.6594070196151733,-0.0307878740131855],"type":"VEC4"},{"bufferView":14,"componentType":5126,"count":1,"max":[0],"min":[0],"type":"SCALAR"},{"bufferView":15,"componentType":5126,"count":1,"max":[0.019375000149011612,-0.06624999642372131,0.015625],"min":[0.019375000149011612,-0.06624999642372131,0.015625],"type":"VEC3"}]}