{"asset":{"version":"2.0","generator":"Blockbench 4.8.3 glTF exporter"},"scenes":[{"nodes":[17],"name":"blockbench_export"}],"scene":0,"nodes":[{"translation":[0.375,-0.625,0.0625],"name":"RightHand"},{"translation":[-0.375,0.390625,0.078125],"name":"R","children":[0]},{"translation":[-0.00390625,0.015625,1.0078125],"name":"sight_left"},{"translation":[0.02734375,0.015625,1.0078125],"name":"sight_right"},{"translation":[0.01953125,0.9765625,-0.23046875],"name":"Sight_1","children":[2,3]},{"translation":[-0.03125,-0.65234375,-0.7578125],"name":"Sight","children":[4]},{"translation":[0,0.6062155038911284,0.07365031244927045],"name":"hammer"},{"translation":[0,-0.004414009969323507,0.050048906250000025],"name":"bullet"},{"translation":[0,0.007832134969323556,0.10351531250000001],"name":"Magazine_3","children":[7]},{"translation":[0,0.06103499999999995,0.05371124999999999],"name":"Magazine_2","children":[8]},{"translation":[0,0.546525625,-0.285645625],"name":"Magazine_1","children":[9]},{"translation":[0,-0.43910375,0.07080187500000001],"name":"gunbody","children":[6,10]},{"translation":[0,-0.07421875,-0.109375],"name":"Lastword","children":[5,11]},{"translation":[0,-0.015625,0.109375],"name":"bone1","children":[1,12]},{"translation":[-0.375,-0.625,0.0625],"name":"LeftHand"},{"translation":[0.375,0.375,0.1875],"name":"L","children":[14]},{"translation":[0.5,0.75,0.25],"name":"bone2","children":[13,15]},{"children":[16]}],"animations":[{"name":"reload","samplers":[{"input":0,"output":1,"interpolation":"LINEAR"},{"input":2,"output":3,"interpolation":"LINEAR"},{"input":4,"output":5,"interpolation":"LINEAR"},{"input":6,"output":7,"interpolation":"LINEAR"},{"input":8,"output":9,"interpolation":"LINEAR"},{"input":10,"output":11,"interpolation":"LINEAR"},{"input":12,"output":13,"interpolation":"LINEAR"},{"input":14,"output":15,"interpolation":"LINEAR"},{"input":16,"output":17,"interpolation":"LINEAR"},{"input":18,"output":19,"interpolation":"LINEAR"},{"input":20,"output":21,"interpolation":"LINEAR"},{"input":22,"output":23,"interpolation":"LINEAR"},{"input":24,"output":25,"interpolation":"LINEAR"}],"channels":[{"sampler":0,"target":{"node":12,"path":"rotation"}},{"sampler":1,"target":{"node":12,"path":"translation"}},{"sampler":2,"target":{"node":15,"path":"rotation"}},{"sampler":3,"target":{"node":15,"path":"translation"}},{"sampler":4,"target":{"node":13,"path":"rotation"}},{"sampler":5,"target":{"node":13,"path":"translation"}},{"sampler":6,"target":{"node":1,"path":"rotation"}},{"sampler":7,"target":{"node":1,"path":"translation"}},{"sampler":8,"target":{"node":10,"path":"rotation"}},{"sampler":9,"target":{"node":8,"path":"rotation"}},{"sampler":10,"target":{"node":7,"path":"rotation"}},{"sampler":11,"target":{"node":7,"path":"translation"}},{"sampler":12,"target":{"node":9,"path":"translation"}}]}],"bufferViews":[{"buffer":0,"byteOffset":0,"byteLength":204},{"buffer":0,"byteOffset":204,"byteLength":816},{"buffer":0,"byteOffset":1020,"byteLength":204},{"buffer":0,"byteOffset":1224,"byteLength":612},{"buffer":0,"byteOffset":1836,"byteLength":224},{"buffer":0,"byteOffset":2060,"byteLength":896},{"buffer":0,"byteOffset":2956,"byteLength":220},{"buffer":0,"byteOffset":3176,"byteLength":660},{"buffer":0,"byteOffset":3836,"byteLength":232},{"buffer":0,"byteOffset":4068,"byteLength":928},{"buffer":0,"byteOffset":4996,"byteLength":224},{"buffer":0,"byteOffset":5220,"byteLength":672},{"buffer":0,"byteOffset":5892,"byteLength":4},{"buffer":0,"byteOffset":5896,"byteLength":16},{"buffer":0,"byteOffset":5912,"byteLength":4},{"buffer":0,"byteOffset":5916,"byteLength":12},{"buffer":0,"byteOffset":5928,"byteLength":152},{"buffer":0,"byteOffset":6080,"byteLength":608},{"buffer":0,"byteOffset":6688,"byteLength":156},{"buffer":0,"byteOffset":6844,"byteLength":624},{"buffer":0,"byteOffset":7468,"byteLength":76},{"buffer":0,"byteOffset":7544,"byteLength":304},{"buffer":0,"byteOffset":7848,"byteLength":76},{"buffer":0,"byteOffset":7924,"byteLength":228},{"buffer":0,"byteOffset":8152,"byteLength":160},{"buffer":0,"byteOffset":8312,"byteLength":480}],"buffers":[{"byteLength":8792,"uri":"data:application/octet-stream;base64,"}],"accessors":[{"bufferView":0,"componentType":5126,"count":51,"max":[2.0833332538604736],"min":[0],"type":"SCALAR"},{"bufferView":1,"componentType":5126,"count":51,"max":[0,0,0,1],"min":[-0.08715574443340302,0,0,0.9961947202682495],"type":"VEC4"},{"bufferView":2,"componentType":5126,"count":51,"max":[2.0833332538604736],"min":[0],"type":"SCALAR"},{"bufferView":3,"componentType":5126,"count":51,"max":[0,-0.07421875,-0.109375],"min":[-0.09000000357627869,-0.09359374642372131,-0.18000000715255737],"type":"VEC3"},{"bufferView":4,"componentType":5126,"count":56,"max":[2.2916667461395264],"min":[0],"type":"SCALAR"},{"bufferView":5,"componentType":5126,"count":56,"max":[0.48126015067100525,0.8975674510002136,-0.24124887585639954,0.31723546981811523],"min":[-0.5282032489776611,0.6053224802017212,-0.7918107509613037,-0.2092028558254242],"type":"VEC4"},{"bufferView":6,"componentType":5126,"count":55,"max":[2.25],"min":[0],"type":"SCALAR"},{"bufferView":7,"componentType":5126,"count":55,"max":[-0.039374999701976776,0.1431249976158142,0.7268750071525574],"min":[-0.7306249737739563,-0.5118749737739563,0.0062500000931322575],"type":"VEC3"},{"bufferView":8,"componentType":5126,"count":58,"max":[2.375],"min":[0],"type":"SCALAR"},{"bufferView":9,"componentType":5126,"count":58,"max":[0.7496089935302734,0.3571389615535736,0.16080135107040405,1],"min":[-0.1258535087108612,-0.24767468869686127,-0.2870849072933197,0.6271741390228271],"type":"VEC4"},{"bufferView":10,"componentType":5126,"count":56,"max":[2.2916667461395264],"min":[0],"type":"SCALAR"},{"bufferView":11,"componentType":5126,"count":56,"max":[0.1875,0.30375000834465027,0.6287500262260437],"min":[-0.07999999821186066,-0.045625001192092896,0.10437499731779099],"type":"VEC3"},{"bufferView":12,"componentType":5126,"count":1,"max":[0],"min":[0],"type":"SCALAR"},{"bufferView":13,"componentType":5126,"count":1,"max":[-0.00196917075663805,0.7511528730392456,-0.6594070196151733,-0.0307878740131855],"min":[-0.00196917075663805,0.7511528730392456,-0.6594070196151733,-0.0307878740131855],"type":"VEC4"},{"bufferView":14,"componentType":5126,"count":1,"max":[0],"min":[0],"type":"SCALAR"},{"bufferView":15,"componentType":5126,"count":1,"max":[0.019375000149011612,-0.06624999642372131,0.015625],"min":[0.019375000149011612,-0.06624999642372131,0.015625],"type":"VEC3"},{"bufferView":16,"componentType":5126,"count":38,"max":[1.875],"min":[0.3333333432674408],"type":"SCALAR"},{"bufferView":17,"componentType":5126,"count":38,"max":[0,0,0.8576613068580627,1],"min":[0,0,0,0.5142149925231934],"type":"VEC4"},{"bufferView":18,"componentType":5126,"count":39,"max":[1.9166666269302368],"min":[0.3333333432674408],"type":"SCALAR"},{"bufferView":19,"componentType":5126,"count":39,"max":[0,0,0.5555702447891235,1],"min":[0,0,0,0.8314695954322815],"type":"VEC4"},{"bufferView":20,"componentType":5126,"count":19,"max":[1.5],"min":[0.75],"type":"SCALAR"},{"bufferView":21,"componentType":5126,"count":19,"max":[0,0.39803871512413025,0.058173999190330505,1],"min":[-0.1412355750799179,-0.027545345947146416,0,0.9058982133865356],"type":"VEC4"},{"bufferView":22,"componentType":5126,"count":19,"max":[1.5],"min":[0.75],"type":"SCALAR"},{"bufferView":23,"componentType":5126,"count":19,"max":[0.453125,0.20683598518371582,0.9975488781929016],"min":[-0.054999999701976776,-0.004414009861648083,0.05004890635609627],"type":"VEC3"},{"bufferView":24,"componentType":5126,"count":40,"max":[1.9166666269302368],"min":[0.2916666567325592],"type":"SCALAR"},{"bufferView":25,"componentType":5126,"count":40,"max":[0,0.1310350000858307,0.05371125042438507],"min":[0,0.061034999787807465,0.05371125042438507],"type":"VEC3"}]}