{"asset":{"version":"2.0","generator":"Blockbench 4.8.3 glTF exporter"},"scenes":[{"nodes":[17],"name":"blockbench_export"}],"scene":0,"nodes":[{"translation":[0.375,-0.625,0.0625],"name":"RightHand"},{"translation":[-0.375,0.390625,0.078125],"name":"R","children":[0]},{"translation":[-0.00390625,0.015625,1.0078125],"name":"sight_left"},{"translation":[0.02734375,0.015625,1.0078125],"name":"sight_right"},{"translation":[0.01953125,0.9765625,-0.23046875],"name":"Sight_1","children":[2,3]},{"translation":[-0.03125,-0.65234375,-0.7578125],"name":"Sight","children":[4]},{"translation":[0,0.6062155038911284,0.07365031244927045],"name":"hammer"},{"translation":[0,-0.004414009969323507,0.050048906250000025],"name":"bullet"},{"translation":[0,0.007832134969323556,0.10351531250000001],"name":"Magazine_3","children":[7]},{"translation":[0,0.06103499999999995,0.05371124999999999],"name":"Magazine_2","children":[8]},{"translation":[0,0.546525625,-0.285645625],"name":"Magazine_1","children":[9]},{"translation":[0,-0.43910375,0.07080187500000001],"name":"gunbody","children":[6,10]},{"translation":[0,-0.07421875,-0.109375],"name":"Lastword","children":[5,11]},{"translation":[0,-0.015625,0.109375],"name":"bone1","children":[1,12]},{"translation":[-0.375,-0.625,0.0625],"name":"LeftHand"},{"translation":[0.375,0.375,0.1875],"name":"L","children":[14]},{"translation":[0.5,0.75,0.25],"name":"bone2","children":[13,15]},{"children":[16]}],"animations":[{"name":"fire","samplers":[{"input":0,"output":1,"interpolation":"LINEAR"},{"input":2,"output":3,"interpolation":"LINEAR"},{"input":4,"output":5,"interpolation":"LINEAR"},{"input":6,"output":7,"interpolation":"LINEAR"},{"input":8,"output":9,"interpolation":"LINEAR"},{"input":10,"output":11,"interpolation":"LINEAR"},{"input":12,"output":13,"interpolation":"LINEAR"},{"input":14,"output":15,"interpolation":"LINEAR"},{"input":16,"output":17,"interpolation":"LINEAR"},{"input":18,"output":19,"interpolation":"LINEAR"},{"input":20,"output":21,"interpolation":"LINEAR"}],"channels":[{"sampler":0,"target":{"node":12,"path":"rotation"}},{"sampler":1,"target":{"node":12,"path":"translation"}},{"sampler":2,"target":{"node":15,"path":"rotation"}},{"sampler":3,"target":{"node":15,"path":"translation"}},{"sampler":4,"target":{"node":13,"path":"rotation"}},{"sampler":5,"target":{"node":13,"path":"translation"}},{"sampler":6,"target":{"node":1,"path":"rotation"}},{"sampler":7,"target":{"node":1,"path":"translation"}},{"sampler":8,"target":{"node":3,"path":"translation"}},{"sampler":9,"target":{"node":2,"path":"translation"}},{"sampler":10,"target":{"node":6,"path":"rotation"}}]}],"bufferViews":[{"buffer":0,"byteOffset":0,"byteLength":28},{"buffer":0,"byteOffset":28,"byteLength":112},{"buffer":0,"byteOffset":140,"byteLength":24},{"buffer":0,"byteOffset":164,"byteLength":72},{"buffer":0,"byteOffset":236,"byteLength":60},{"buffer":0,"byteOffset":296,"byteLength":240},{"buffer":0,"byteOffset":536,"byteLength":60},{"buffer":0,"byteOffset":596,"byteLength":180},{"buffer":0,"byteOffset":776,"byteLength":56},{"buffer":0,"byteOffset":832,"byteLength":224},{"buffer":0,"byteOffset":1056,"byteLength":52},{"buffer":0,"byteOffset":1108,"byteLength":156},{"buffer":0,"byteOffset":1264,"byteLength":24},{"buffer":0,"byteOffset":1288,"byteLength":96},{"buffer":0,"byteOffset":1384,"byteLength":24},{"buffer":0,"byteOffset":1408,"byteLength":72},{"buffer":0,"byteOffset":1480,"byteLength":36},{"buffer":0,"byteOffset":1516,"byteLength":108},{"buffer":0,"byteOffset":1624,"byteLength":36},{"buffer":0,"byteOffset":1660,"byteLength":108},{"buffer":0,"byteOffset":1768,"byteLength":12},{"buffer":0,"byteOffset":1780,"byteLength":48}],"buffers":[{"byteLength":1828,"uri":"data:application/octet-stream;base64,"}],"accessors":[{"bufferView":0,"componentType":5126,"count":7,"max":[0.25],"min":[0],"type":"SCALAR"},{"bufferView":1,"componentType":5126,"count":7,"max":[0.04361938685178757,0,0,1],"min":[0,0,0,0.9990482330322266],"type":"VEC4"},{"bufferView":2,"componentType":5126,"count":6,"max":[0.2083333283662796],"min":[0],"type":"SCALAR"},{"bufferView":3,"componentType":5126,"count":6,"max":[0,-0.07421875,-0.109375],"min":[0,-0.07421875,-0.109375],"type":"VEC3"},{"bufferView":4,"componentType":5126,"count":15,"max":[0.5833333134651184],"min":[0],"type":"SCALAR"},{"bufferView":5,"componentType":5126,"count":15,"max":[0.5805813670158386,0.8290997743606567,0.10445618629455566,-0.03661322966217995],"min":[0.0726630762219429,0.7523400783538818,-0.6252424716949463,-0.3950851857662201],"type":"VEC4"},{"bufferView":6,"componentType":5126,"count":15,"max":[0.5833333134651184],"min":[0],"type":"SCALAR"},{"bufferView":7,"componentType":5126,"count":15,"max":[0.1599999964237213,-0.0037499999161809683,0.42625001072883606],"min":[-0.039374999701976776,-0.1368750035762787,0.1681250035762787],"type":"VEC3"},{"bufferView":8,"componentType":5126,"count":14,"max":[0.5416666865348816],"min":[0],"type":"SCALAR"},{"bufferView":9,"componentType":5126,"count":14,"max":[0.030350374057888985,0.001127937575802207,0,1],"min":[-0.0008719174074940383,-0.007362870965152979,-0.02674911729991436,0.9991542100906372],"type":"VEC4"},{"bufferView":10,"componentType":5126,"count":13,"max":[0.5],"min":[0],"type":"SCALAR"},{"bufferView":11,"componentType":5126,"count":13,"max":[0.0018749999580904841,-0.015625,0.14875000715255737],"min":[-0.02812499925494194,-0.05624999850988388,0.10562500357627869],"type":"VEC3"},{"bufferView":12,"componentType":5126,"count":6,"max":[0.2083333283662796],"min":[0],"type":"SCALAR"},{"bufferView":13,"componentType":5126,"count":6,"max":[-0.00196917075663805,0.7511528730392456,-0.6594070196151733,-0.0307878740131855],"min":[-0.00196917075663805,0.7511528730392456,-0.6594070196151733,-0.0307878740131855],"type":"VEC4"},{"bufferView":14,"componentType":5126,"count":6,"max":[0.2083333283662796],"min":[0],"type":"SCALAR"},{"bufferView":15,"componentType":5126,"count":6,"max":[0.019375000149011612,-0.06624999642372131,0.015625],"min":[0.019375000149011612,-0.06624999642372131,0.015625],"type":"VEC3"},{"bufferView":16,"componentType":5126,"count":9,"max":[0.3333333432674408],"min":[0],"type":"SCALAR"},{"bufferView":17,"componentType":5126,"count":9,"max":[0.04296875,0.015625,1.0078125],"min":[0.02734375,0.015625,1.0078125],"type":"VEC3"},{"bufferView":18,"componentType":5126,"count":9,"max":[0.3333333432674408],"min":[0],"type":"SCALAR"},{"bufferView":19,"componentType":5126,"count":9,"max":[-0.00390625,0.015625,1.0078125],"min":[-0.01953125,0.015625,1.0078125],"type":"VEC3"},{"bufferView":20,"componentType":5126,"count":3,"max":[0.125],"min":[0.0416666679084301],"type":"SCALAR"},{"bufferView":21,"componentType":5126,"count":3,"max":[0.258819043636322,0,0,1],"min":[0,0,0,0.9659258127212524],"type":"VEC4"}]}