{"asset":{"version":"2.0","generator":"Blockbench 4.9.3 glTF exporter"},"scenes":[{"nodes":[8],"name":"blockbench_export"}],"scene":0,"nodes":[{"translation":[0.375,-0.6875,0],"name":"RightHand"},{"translation":[-0.4375,0.5375000000000003,-0.5],"name":"R","children":[0]},{"translation":[-5.551115123125783e-17,0.017540780345088214,0.26576695704675624],"name":"mag"},{"translation":[-0.0625,-0.1499999999999997,-0.5],"name":"txc_amendment","children":[2]},{"translation":[0.0625,-0.03750000000000031,0],"name":"bone","children":[1,3]},{"translation":[-0.375,-0.6875,0],"name":"LeftHand"},{"translation":[0.375,0.5,-0.5],"name":"l","children":[5]},{"translation":[0.5,0.6875,1],"name":"bone2","children":[4,6]},{"children":[7]}],"animations":[{"name":"reload","samplers":[{"input":0,"output":1,"interpolation":"LINEAR"},{"input":2,"output":3,"interpolation":"LINEAR"},{"input":4,"output":5,"interpolation":"LINEAR"},{"input":6,"output":7,"interpolation":"LINEAR"},{"input":8,"output":9,"interpolation":"LINEAR"},{"input":10,"output":11,"interpolation":"LINEAR"},{"input":12,"output":13,"interpolation":"LINEAR"},{"input":14,"output":15,"interpolation":"LINEAR"},{"input":16,"output":17,"interpolation":"LINEAR"},{"input":18,"output":19,"interpolation":"LINEAR"},{"input":20,"output":21,"interpolation":"LINEAR"},{"input":22,"output":23,"interpolation":"LINEAR"}],"channels":[{"sampler":0,"target":{"node":1,"path":"rotation"}},{"sampler":1,"target":{"node":1,"path":"translation"}},{"sampler":2,"target":{"node":1,"path":"scale"}},{"sampler":3,"target":{"node":6,"path":"rotation"}},{"sampler":4,"target":{"node":6,"path":"translation"}},{"sampler":5,"target":{"node":6,"path":"scale"}},{"sampler":6,"target":{"node":7,"path":"rotation"}},{"sampler":7,"target":{"node":7,"path":"translation"}},{"sampler":8,"target":{"node":4,"path":"rotation"}},{"sampler":9,"target":{"node":4,"path":"translation"}},{"sampler":10,"target":{"node":2,"path":"rotation"}},{"sampler":11,"target":{"node":2,"path":"translation"}}]}],"bufferViews":[{"buffer":0,"byteOffset":0,"byteLength":4},{"buffer":0,"byteOffset":4,"byteLength":16},{"buffer":0,"byteOffset":20,"byteLength":4},{"buffer":0,"byteOffset":24,"byteLength":12},{"buffer":0,"byteOffset":36,"byteLength":4},{"buffer":0,"byteOffset":40,"byteLength":12},{"buffer":0,"byteOffset":52,"byteLength":276},{"buffer":0,"byteOffset":328,"byteLength":1104},{"buffer":0,"byteOffset":1432,"byteLength":276},{"buffer":0,"byteOffset":1708,"byteLength":828},{"buffer":0,"byteOffset":2536,"byteLength":4},{"buffer":0,"byteOffset":2540,"byteLength":12},{"buffer":0,"byteOffset":2552,"byteLength":340},{"buffer":0,"byteOffset":2892,"byteLength":1360},{"buffer":0,"byteOffset":4252,"byteLength":340},{"buffer":0,"byteOffset":4592,"byteLength":1020},{"buffer":0,"byteOffset":5612,"byteLength":276},{"buffer":0,"byteOffset":5888,"byteLength":1104},{"buffer":0,"byteOffset":6992,"byteLength":276},{"buffer":0,"byteOffset":7268,"byteLength":828},{"buffer":0,"byteOffset":8096,"byteLength":152},{"buffer":0,"byteOffset":8248,"byteLength":608},{"buffer":0,"byteOffset":8856,"byteLength":136},{"buffer":0,"byteOffset":8992,"byteLength":408}],"buffers":[{"byteLength":9400,"uri":"data:application/octet-stream;base64,"}],"accessors":[{"bufferView":0,"componentType":5126,"count":1,"max":[0],"min":[0],"type":"SCALAR"},{"bufferView":1,"componentType":5126,"count":1,"max":[0.05234173312783241,-0.7210013270378113,0.6898864507675171,0.03839399293065071],"min":[0.05234173312783241,-0.7210013270378113,0.6898864507675171,0.03839399293065071],"type":"VEC4"},{"bufferView":2,"componentType":5126,"count":1,"max":[0],"min":[0],"type":"SCALAR"},{"bufferView":3,"componentType":5126,"count":1,"max":[-0.026875000447034836,-0.0012499999720603228,-0.0625],"min":[-0.026875000447034836,-0.0012499999720603228,-0.0625],"type":"VEC3"},{"bufferView":4,"componentType":5126,"count":1,"max":[0],"min":[0],"type":"SCALAR"},{"bufferView":5,"componentType":5126,"count":1,"max":[1,1.5,1],"min":[1,1.5,1],"type":"VEC3"},{"bufferView":6,"componentType":5126,"count":69,"max":[2.9166667461395264],"min":[0.0833333358168602],"type":"SCALAR"},{"bufferView":7,"componentType":5126,"count":69,"max":[0.10242735594511032,0.7943030595779419,-0.3007048964500427,0.6958009600639343],"min":[-0.34066343307495117,0.5706890225410461,-0.7181207537651062,0.206330806016922],"type":"VEC4"},{"bufferView":8,"componentType":5126,"count":69,"max":[2.875],"min":[0.0416666679084301],"type":"SCALAR"},{"bufferView":9,"componentType":5126,"count":69,"max":[0.029999999329447746,0.6331250071525574,-0.203125],"min":[-0.7443749904632568,-0.643750011920929,-0.7275000214576721],"type":"VEC3"},{"bufferView":10,"componentType":5126,"count":1,"max":[0],"min":[0],"type":"SCALAR"},{"bufferView":11,"componentType":5126,"count":1,"max":[1,1.5,1],"min":[1,1.5,1],"type":"VEC3"},{"bufferView":12,"componentType":5126,"count":85,"max":[3.5833332538604736],"min":[0.0833333358168602],"type":"SCALAR"},{"bufferView":13,"componentType":5126,"count":85,"max":[0.09116410464048386,0.06182064116001129,0.05780022591352463,1],"min":[-0.047895148396492004,-0.018768683075904846,-0.0556655079126358,0.9934142231941223],"type":"VEC4"},{"bufferView":14,"componentType":5126,"count":85,"max":[3.5416667461395264],"min":[0.0416666679084301],"type":"SCALAR"},{"bufferView":15,"componentType":5126,"count":85,"max":[0.5106250047683716,0.7106249928474426,1.066249966621399],"min":[0.48875001072883606,0.6524999737739563,0.9162499904632568],"type":"VEC3"},{"bufferView":16,"componentType":5126,"count":69,"max":[2.9166667461395264],"min":[0.0833333358168602],"type":"SCALAR"},{"bufferView":17,"componentType":5126,"count":69,"max":[0.495846688747406,0.10653384774923325,0,1],"min":[0,0,-0.2868068218231201,0.8144139051437378],"type":"VEC4"},{"bufferView":18,"componentType":5126,"count":69,"max":[2.875],"min":[0.0416666679084301],"type":"SCALAR"},{"bufferView":19,"componentType":5126,"count":69,"max":[0.0625,0.09937500208616257,0.0925000011920929],"min":[0.0625,-0.03750000149011612,-0.006874999962747097],"type":"VEC3"},{"bufferView":20,"componentType":5126,"count":38,"max":[2.4166667461395264],"min":[0.875],"type":"SCALAR"},{"bufferView":21,"componentType":5126,"count":38,"max":[0.23838895559310913,0.05308912321925163,0,1],"min":[-0.0709838718175888,-0.19484306871891022,-0.12241087108850479,0.9609943628311157],"type":"VEC4"},{"bufferView":22,"componentType":5126,"count":34,"max":[2.4166667461395264],"min":[1.0416666269302368],"type":"SCALAR"},{"bufferView":23,"componentType":5126,"count":34,"max":[-5.551115123125783e-17,0.01754078082740307,0.8138919472694397],"min":[-0.3606249988079071,-0.7599592208862305,0.2657669484615326],"type":"VEC3"}]}