{"asset":{"version":"2.0","generator":"Blockbench 4.9.3 glTF exporter"},"scenes":[{"nodes":[8],"name":"blockbench_export"}],"scene":0,"nodes":[{"translation":[0.375,-0.6875,0],"name":"RightHand"},{"translation":[-0.4375,0.5375000000000003,-0.5],"name":"R","children":[0]},{"translation":[-5.551115123125783e-17,0.017540780345088214,0.26576695704675624],"name":"mag"},{"translation":[-0.0625,-0.1499999999999997,-0.5],"name":"txc_amendment","children":[2]},{"translation":[0.0625,-0.03750000000000031,0],"name":"bone","children":[1,3]},{"translation":[-0.375,-0.6875,0],"name":"LeftHand"},{"translation":[0.375,0.5,-0.5],"name":"l","children":[5]},{"translation":[0.5,0.6875,1],"name":"bone2","children":[4,6]},{"children":[7]}],"animations":[{"name":"draw","samplers":[{"input":0,"output":1,"interpolation":"LINEAR"},{"input":2,"output":3,"interpolation":"LINEAR"},{"input":4,"output":5,"interpolation":"LINEAR"},{"input":6,"output":7,"interpolation":"LINEAR"},{"input":8,"output":9,"interpolation":"LINEAR"},{"input":10,"output":11,"interpolation":"LINEAR"},{"input":12,"output":13,"interpolation":"LINEAR"},{"input":14,"output":15,"interpolation":"LINEAR"},{"input":16,"output":17,"interpolation":"LINEAR"},{"input":18,"output":19,"interpolation":"LINEAR"}],"channels":[{"sampler":0,"target":{"node":1,"path":"rotation"}},{"sampler":1,"target":{"node":1,"path":"translation"}},{"sampler":2,"target":{"node":1,"path":"scale"}},{"sampler":3,"target":{"node":6,"path":"rotation"}},{"sampler":4,"target":{"node":6,"path":"translation"}},{"sampler":5,"target":{"node":6,"path":"scale"}},{"sampler":6,"target":{"node":7,"path":"rotation"}},{"sampler":7,"target":{"node":7,"path":"translation"}},{"sampler":8,"target":{"node":4,"path":"rotation"}},{"sampler":9,"target":{"node":4,"path":"translation"}}]}],"bufferViews":[{"buffer":0,"byteOffset":0,"byteLength":4},{"buffer":0,"byteOffset":4,"byteLength":16},{"buffer":0,"byteOffset":20,"byteLength":4},{"buffer":0,"byteOffset":24,"byteLength":12},{"buffer":0,"byteOffset":36,"byteLength":4},{"buffer":0,"byteOffset":40,"byteLength":12},{"buffer":0,"byteOffset":52,"byteLength":92},{"buffer":0,"byteOffset":144,"byteLength":368},{"buffer":0,"byteOffset":512,"byteLength":4},{"buffer":0,"byteOffset":516,"byteLength":12},{"buffer":0,"byteOffset":528,"byteLength":4},{"buffer":0,"byteOffset":532,"byteLength":12},{"buffer":0,"byteOffset":544,"byteLength":112},{"buffer":0,"byteOffset":656,"byteLength":448},{"buffer":0,"byteOffset":1104,"byteLength":112},{"buffer":0,"byteOffset":1216,"byteLength":336},{"buffer":0,"byteOffset":1552,"byteLength":112},{"buffer":0,"byteOffset":1664,"byteLength":448},{"buffer":0,"byteOffset":2112,"byteLength":4},{"buffer":0,"byteOffset":2116,"byteLength":12}],"buffers":[{"byteLength":2128,"uri":"data:application/octet-stream;base64,"}],"accessors":[{"bufferView":0,"componentType":5126,"count":1,"max":[0],"min":[0],"type":"SCALAR"},{"bufferView":1,"componentType":5126,"count":1,"max":[0.05234173312783241,-0.7210013270378113,0.6898864507675171,0.03839399293065071],"min":[0.05234173312783241,-0.7210013270378113,0.6898864507675171,0.03839399293065071],"type":"VEC4"},{"bufferView":2,"componentType":5126,"count":1,"max":[0],"min":[0],"type":"SCALAR"},{"bufferView":3,"componentType":5126,"count":1,"max":[-0.026875000447034836,-0.0012499999720603228,-0.0625],"min":[-0.026875000447034836,-0.0012499999720603228,-0.0625],"type":"VEC3"},{"bufferView":4,"componentType":5126,"count":1,"max":[0],"min":[0],"type":"SCALAR"},{"bufferView":5,"componentType":5126,"count":1,"max":[1,1.5,1],"min":[1,1.5,1],"type":"VEC3"},{"bufferView":6,"componentType":5126,"count":23,"max":[1],"min":[0.0833333358168602],"type":"SCALAR"},{"bufferView":7,"componentType":5126,"count":23,"max":[-0.22506435215473175,0.614255964756012,-0.5629705786705017,0.5086899995803833],"min":[-0.2587672770023346,0.5986985564231873,-0.5880478620529175,0.47832968831062317],"type":"VEC4"},{"bufferView":8,"componentType":5126,"count":1,"max":[0.0416666679084301],"min":[0.0416666679084301],"type":"SCALAR"},{"bufferView":9,"componentType":5126,"count":1,"max":[-0.07500000298023224,-0.14687499403953552,-0.7275000214576721],"min":[-0.07500000298023224,-0.14687499403953552,-0.7275000214576721],"type":"VEC3"},{"bufferView":10,"componentType":5126,"count":1,"max":[0],"min":[0],"type":"SCALAR"},{"bufferView":11,"componentType":5126,"count":1,"max":[1,1.5,1],"min":[1,1.5,1],"type":"VEC3"},{"bufferView":12,"componentType":5126,"count":28,"max":[1.2083333730697632],"min":[0.0833333358168602],"type":"SCALAR"},{"bufferView":13,"componentType":5126,"count":28,"max":[0.019623180851340294,0.478329062461853,0.37160322070121765,1],"min":[-0.24348801374435425,-0.06807657331228256,-0.031168604269623756,0.7575129866600037],"type":"VEC4"},{"bufferView":14,"componentType":5126,"count":28,"max":[1.1666666269302368],"min":[0.0416666679084301],"type":"SCALAR"},{"bufferView":15,"componentType":5126,"count":28,"max":[0.5,0.7193750143051147,1.125],"min":[0.5,0.3125,0.8962500095367432],"type":"VEC3"},{"bufferView":16,"componentType":5126,"count":28,"max":[1.2083333730697632],"min":[0.0833333358168602],"type":"SCALAR"},{"bufferView":17,"componentType":5126,"count":28,"max":[0,0,0,1],"min":[0,0,-0.02399597316980362,0.9997120499610901],"type":"VEC4"},{"bufferView":18,"componentType":5126,"count":1,"max":[0.0416666679084301],"min":[0.0416666679084301],"type":"SCALAR"},{"bufferView":19,"componentType":5126,"count":1,"max":[0.0625,-0.03750000149011612,0],"min":[0.0625,-0.03750000149011612,0],"type":"VEC3"}]}