{"asset":{"version":"2.0","generator":"Blockbench 4.9.3 glTF exporter"},"scenes":[{"nodes":[8],"name":"blockbench_export"}],"scene":0,"nodes":[{"translation":[0.375,-0.6875,0],"name":"RightHand"},{"translation":[-0.375,0.9750000000000003,-0.3125],"name":"R","children":[0]},{"translation":[-7.095785070632132e-11,-0.14361192917197357,-0.4373924879334844],"name":"mag"},{"translation":[0,0.2875000000000003,-0.3125],"name":"x26","children":[2]},{"translation":[0,-0.10000000000000031,-0.3125],"name":"bone","children":[1,3]},{"translation":[-0.375,-0.6875,0],"name":"LeftHand"},{"translation":[0.375,0.875,-0.625],"name":"l","children":[5]},{"translation":[0.5,0.3125,1.125],"name":"bone2","children":[4,6]},{"children":[7]}],"animations":[{"name":"reload","samplers":[{"input":0,"output":1,"interpolation":"LINEAR"},{"input":2,"output":3,"interpolation":"LINEAR"},{"input":4,"output":5,"interpolation":"LINEAR"},{"input":6,"output":7,"interpolation":"LINEAR"},{"input":8,"output":9,"interpolation":"LINEAR"},{"input":10,"output":11,"interpolation":"LINEAR"},{"input":12,"output":13,"interpolation":"LINEAR"},{"input":14,"output":15,"interpolation":"LINEAR"},{"input":16,"output":17,"interpolation":"LINEAR"},{"input":18,"output":19,"interpolation":"LINEAR"},{"input":20,"output":21,"interpolation":"LINEAR"},{"input":22,"output":23,"interpolation":"LINEAR"},{"input":24,"output":25,"interpolation":"LINEAR"}],"channels":[{"sampler":0,"target":{"node":1,"path":"rotation"}},{"sampler":1,"target":{"node":1,"path":"translation"}},{"sampler":2,"target":{"node":1,"path":"scale"}},{"sampler":3,"target":{"node":6,"path":"rotation"}},{"sampler":4,"target":{"node":6,"path":"translation"}},{"sampler":5,"target":{"node":6,"path":"scale"}},{"sampler":6,"target":{"node":2,"path":"rotation"}},{"sampler":7,"target":{"node":2,"path":"translation"}},{"sampler":8,"target":{"node":2,"path":"scale"}},{"sampler":9,"target":{"node":7,"path":"rotation"}},{"sampler":10,"target":{"node":7,"path":"translation"}},{"sampler":11,"target":{"node":4,"path":"rotation"}},{"sampler":12,"target":{"node":4,"path":"translation"}}]}],"bufferViews":[{"buffer":0,"byteOffset":0,"byteLength":4},{"buffer":0,"byteOffset":4,"byteLength":16},{"buffer":0,"byteOffset":20,"byteLength":4},{"buffer":0,"byteOffset":24,"byteLength":12},{"buffer":0,"byteOffset":36,"byteLength":4},{"buffer":0,"byteOffset":40,"byteLength":12},{"buffer":0,"byteOffset":52,"byteLength":224},{"buffer":0,"byteOffset":276,"byteLength":896},{"buffer":0,"byteOffset":1172,"byteLength":224},{"buffer":0,"byteOffset":1396,"byteLength":672},{"buffer":0,"byteOffset":2068,"byteLength":4},{"buffer":0,"byteOffset":2072,"byteLength":12},{"buffer":0,"byteOffset":2084,"byteLength":144},{"buffer":0,"byteOffset":2228,"byteLength":576},{"buffer":0,"byteOffset":2804,"byteLength":148},{"buffer":0,"byteOffset":2952,"byteLength":444},{"buffer":0,"byteOffset":3396,"byteLength":40},{"buffer":0,"byteOffset":3436,"byteLength":120},{"buffer":0,"byteOffset":3556,"byteLength":256},{"buffer":0,"byteOffset":3812,"byteLength":1024},{"buffer":0,"byteOffset":4836,"byteLength":256},{"buffer":0,"byteOffset":5092,"byteLength":768},{"buffer":0,"byteOffset":5860,"byteLength":224},{"buffer":0,"byteOffset":6084,"byteLength":896},{"buffer":0,"byteOffset":6980,"byteLength":224},{"buffer":0,"byteOffset":7204,"byteLength":672}],"buffers":[{"byteLength":7876,"uri":"data:application/octet-stream;base64,"}],"accessors":[{"bufferView":0,"componentType":5126,"count":1,"max":[0.0416666679084301],"min":[0.0416666679084301],"type":"SCALAR"},{"bufferView":1,"componentType":5126,"count":1,"max":[0.04641612619161606,-0.7932823896408081,0.6054368615150452,0.044662874191999435],"min":[0.04641612619161606,-0.7932823896408081,0.6054368615150452,0.044662874191999435],"type":"VEC4"},{"bufferView":2,"componentType":5126,"count":1,"max":[0.0416666679084301],"min":[0.0416666679084301],"type":"SCALAR"},{"bufferView":3,"componentType":5126,"count":1,"max":[0.02250000089406967,-0.048124998807907104,-0.08500000089406967],"min":[0.02250000089406967,-0.048124998807907104,-0.08500000089406967],"type":"VEC3"},{"bufferView":4,"componentType":5126,"count":1,"max":[0.0416666679084301],"min":[0.0416666679084301],"type":"SCALAR"},{"bufferView":5,"componentType":5126,"count":1,"max":[1.5,2,1.5],"min":[1.5,2,1.5],"type":"VEC3"},{"bufferView":6,"componentType":5126,"count":56,"max":[2.375],"min":[0.0833333358168602],"type":"SCALAR"},{"bufferView":7,"componentType":5126,"count":56,"max":[-0.18379861116409302,0.6217137575149536,-0.4671795666217804,0.6083616018295288],"min":[-0.43194103240966797,0.48290538787841797,-0.7134755253791809,0.26683729887008667],"type":"VEC4"},{"bufferView":8,"componentType":5126,"count":56,"max":[2.3333332538604736],"min":[0.0416666679084301],"type":"SCALAR"},{"bufferView":9,"componentType":5126,"count":56,"max":[-0.09437499940395355,-0.0012499999720603228,-0.2862499952316284],"min":[-0.9068750143051147,-1.3550000190734863,-1.091249942779541],"type":"VEC3"},{"bufferView":10,"componentType":5126,"count":1,"max":[0.0416666679084301],"min":[0.0416666679084301],"type":"SCALAR"},{"bufferView":11,"componentType":5126,"count":1,"max":[1.5,2,1.5],"min":[1.5,2,1.5],"type":"VEC3"},{"bufferView":12,"componentType":5126,"count":36,"max":[1.9166666269302368],"min":[0.4583333432674408],"type":"SCALAR"},{"bufferView":13,"componentType":5126,"count":36,"max":[0,0.10302417725324631,0.07525386661291122,1],"min":[-0.38556423783302307,-0.5885747075080872,-0.17586225271224976,0.8027398586273193],"type":"VEC4"},{"bufferView":14,"componentType":5126,"count":37,"max":[1.9583333730697632],"min":[0.4583333432674408],"type":"SCALAR"},{"bufferView":15,"componentType":5126,"count":37,"max":[1.1806249618530273,-0.14361192286014557,0.27448251843452454],"min":[-0.8943750262260437,-0.934861958026886,-2.471142530441284],"type":"VEC3"},{"bufferView":16,"componentType":5126,"count":10,"max":[1.375],"min":[1],"type":"SCALAR"},{"bufferView":17,"componentType":5126,"count":10,"max":[1,1,1],"min":[0,0,0],"type":"VEC3"},{"bufferView":18,"componentType":5126,"count":64,"max":[2.7083332538604736],"min":[0.0833333358168602],"type":"SCALAR"},{"bufferView":19,"componentType":5126,"count":64,"max":[0.06322412937879562,0.016964443027973175,0.05001038312911987,1],"min":[-0.052122630178928375,-0.06823234260082245,-0.025722894817590714,0.9963064789772034],"type":"VEC4"},{"bufferView":20,"componentType":5126,"count":64,"max":[2.6666667461395264],"min":[0.0416666679084301],"type":"SCALAR"},{"bufferView":21,"componentType":5126,"count":64,"max":[0.5,0.3206250071525574,1.2106250524520874],"min":[0.5,0.25062501430511475,1.080625057220459],"type":"VEC3"},{"bufferView":22,"componentType":5126,"count":56,"max":[2.375],"min":[0.0833333358168602],"type":"SCALAR"},{"bufferView":23,"componentType":5126,"count":56,"max":[0.12107601761817932,0.09745512157678604,0.08463031053543091,1],"min":[-0.030423680320382118,-0.29634615778923035,-0.1337372213602066,0.9458149671554565],"type":"VEC4"},{"bufferView":24,"componentType":5126,"count":56,"max":[2.3333332538604736],"min":[0.0416666679084301],"type":"SCALAR"},{"bufferView":25,"componentType":5126,"count":56,"max":[0.23000000417232513,-0.061250001192092896,-0.1862500011920929],"min":[-0.035624999552965164,-0.22312499582767487,-0.39375001192092896],"type":"VEC3"}]}