{"asset":{"version":"2.0","generator":"Blockbench 4.9.3 glTF exporter"},"scenes":[{"nodes":[8],"name":"blockbench_export"}],"scene":0,"nodes":[{"translation":[0.375,-0.6875,0],"name":"RightHand"},{"translation":[-0.375,0.9750000000000003,-0.3125],"name":"R","children":[0]},{"translation":[-7.095785070632132e-11,-0.14361192917197357,-0.4373924879334844],"name":"mag"},{"translation":[0,0.2875000000000003,-0.3125],"name":"x26","children":[2]},{"translation":[0,-0.10000000000000031,-0.3125],"name":"bone","children":[1,3]},{"translation":[-0.375,-0.6875,0],"name":"LeftHand"},{"translation":[0.375,0.875,-0.625],"name":"l","children":[5]},{"translation":[0.5,0.3125,1.125],"name":"bone2","children":[4,6]},{"children":[7]}],"animations":[{"name":"inspect","samplers":[{"input":0,"output":1,"interpolation":"LINEAR"},{"input":2,"output":3,"interpolation":"LINEAR"},{"input":4,"output":5,"interpolation":"LINEAR"},{"input":6,"output":7,"interpolation":"LINEAR"},{"input":8,"output":9,"interpolation":"LINEAR"},{"input":10,"output":11,"interpolation":"LINEAR"},{"input":12,"output":13,"interpolation":"LINEAR"},{"input":14,"output":15,"interpolation":"LINEAR"},{"input":16,"output":17,"interpolation":"LINEAR"},{"input":18,"output":19,"interpolation":"LINEAR"}],"channels":[{"sampler":0,"target":{"node":1,"path":"rotation"}},{"sampler":1,"target":{"node":1,"path":"translation"}},{"sampler":2,"target":{"node":1,"path":"scale"}},{"sampler":3,"target":{"node":6,"path":"rotation"}},{"sampler":4,"target":{"node":6,"path":"translation"}},{"sampler":5,"target":{"node":6,"path":"scale"}},{"sampler":6,"target":{"node":7,"path":"rotation"}},{"sampler":7,"target":{"node":7,"path":"translation"}},{"sampler":8,"target":{"node":4,"path":"rotation"}},{"sampler":9,"target":{"node":4,"path":"translation"}}]}],"bufferViews":[{"buffer":0,"byteOffset":0,"byteLength":4},{"buffer":0,"byteOffset":4,"byteLength":16},{"buffer":0,"byteOffset":20,"byteLength":4},{"buffer":0,"byteOffset":24,"byteLength":12},{"buffer":0,"byteOffset":36,"byteLength":4},{"buffer":0,"byteOffset":40,"byteLength":12},{"buffer":0,"byteOffset":52,"byteLength":436},{"buffer":0,"byteOffset":488,"byteLength":1744},{"buffer":0,"byteOffset":2232,"byteLength":436},{"buffer":0,"byteOffset":2668,"byteLength":1308},{"buffer":0,"byteOffset":3976,"byteLength":4},{"buffer":0,"byteOffset":3980,"byteLength":12},{"buffer":0,"byteOffset":3992,"byteLength":28},{"buffer":0,"byteOffset":4020,"byteLength":112},{"buffer":0,"byteOffset":4132,"byteLength":28},{"buffer":0,"byteOffset":4160,"byteLength":84},{"buffer":0,"byteOffset":4244,"byteLength":436},{"buffer":0,"byteOffset":4680,"byteLength":1744},{"buffer":0,"byteOffset":6424,"byteLength":436},{"buffer":0,"byteOffset":6860,"byteLength":1308}],"buffers":[{"byteLength":8168,"uri":"data:application/octet-stream;base64,"}],"accessors":[{"bufferView":0,"componentType":5126,"count":1,"max":[0.0416666679084301],"min":[0.0416666679084301],"type":"SCALAR"},{"bufferView":1,"componentType":5126,"count":1,"max":[0.04641612619161606,-0.7932823896408081,0.6054368615150452,0.044662874191999435],"min":[0.04641612619161606,-0.7932823896408081,0.6054368615150452,0.044662874191999435],"type":"VEC4"},{"bufferView":2,"componentType":5126,"count":1,"max":[0.0416666679084301],"min":[0.0416666679084301],"type":"SCALAR"},{"bufferView":3,"componentType":5126,"count":1,"max":[0.02250000089406967,-0.048124998807907104,-0.08500000089406967],"min":[0.02250000089406967,-0.048124998807907104,-0.08500000089406967],"type":"VEC3"},{"bufferView":4,"componentType":5126,"count":1,"max":[0.0416666679084301],"min":[0.0416666679084301],"type":"SCALAR"},{"bufferView":5,"componentType":5126,"count":1,"max":[1.5,2,1.5],"min":[1.5,2,1.5],"type":"VEC3"},{"bufferView":6,"componentType":5126,"count":109,"max":[4.583333492279053],"min":[0.0833333358168602],"type":"SCALAR"},{"bufferView":7,"componentType":5126,"count":109,"max":[-0.3139558732509613,0.538138210773468,-0.5031136870384216,0.598928689956665],"min":[-0.5371453762054443,0.407242089509964,-0.681581437587738,0.28473764657974243],"type":"VEC4"},{"bufferView":8,"componentType":5126,"count":109,"max":[4.541666507720947],"min":[0.0416666679084301],"type":"SCALAR"},{"bufferView":9,"componentType":5126,"count":109,"max":[-0.09437499940395355,-0.2512499988079071,-0.2162500023841858],"min":[-0.9381250143051147,-1.165624976158142,-0.2862499952316284],"type":"VEC3"},{"bufferView":10,"componentType":5126,"count":1,"max":[0.0416666679084301],"min":[0.0416666679084301],"type":"SCALAR"},{"bufferView":11,"componentType":5126,"count":1,"max":[1.5,2,1.5],"min":[1.5,2,1.5],"type":"VEC3"},{"bufferView":12,"componentType":5126,"count":7,"max":[4.833333492279053],"min":[4.583333492279053],"type":"SCALAR"},{"bufferView":13,"componentType":5126,"count":7,"max":[0.028365636244416237,0.0005157316918484867,0.01090919878333807,1],"min":[-0.008901488967239857,-0.000016106559996842407,-0.01310659758746624,0.9995115995407104],"type":"VEC4"},{"bufferView":14,"componentType":5126,"count":7,"max":[4.791666507720947],"min":[4.541666507720947],"type":"SCALAR"},{"bufferView":15,"componentType":5126,"count":7,"max":[0.5049999952316284,0.32374998927116394,1.140625],"min":[0.49937498569488525,0.3031249940395355,1.125],"type":"VEC3"},{"bufferView":16,"componentType":5126,"count":109,"max":[4.583333492279053],"min":[0.0833333358168602],"type":"SCALAR"},{"bufferView":17,"componentType":5126,"count":109,"max":[0.3441047668457031,0.21063531935214996,0.5856602191925049,1],"min":[0,-0.2134215533733368,-0.3093177378177643,0.702171802520752],"type":"VEC4"},{"bufferView":18,"componentType":5126,"count":109,"max":[4.541666507720947],"min":[0.0416666679084301],"type":"SCALAR"},{"bufferView":19,"componentType":5126,"count":109,"max":[0,0.05562499910593033,-0.05062500014901161],"min":[0,-0.16187499463558197,-0.3125],"type":"VEC3"}]}