{"asset":{"version":"2.0","generator":"Blockbench 4.9.3 glTF exporter"},"scenes":[{"nodes":[8],"name":"blockbench_export"}],"scene":0,"nodes":[{"translation":[0.375,-0.6875,0],"name":"RightHand"},{"translation":[-0.375,0.9750000000000003,-0.3125],"name":"R","children":[0]},{"translation":[-7.095785070632132e-11,-0.14361192917197357,-0.4373924879334844],"name":"mag"},{"translation":[0,0.2875000000000003,-0.3125],"name":"x26","children":[2]},{"translation":[0,-0.10000000000000031,-0.3125],"name":"bone","children":[1,3]},{"translation":[-0.375,-0.6875,0],"name":"LeftHand"},{"translation":[0.375,0.875,-0.625],"name":"l","children":[5]},{"translation":[0.5,0.3125,1.125],"name":"bone2","children":[4,6]},{"children":[7]}],"animations":[{"name":"draw","samplers":[{"input":0,"output":1,"interpolation":"LINEAR"},{"input":2,"output":3,"interpolation":"LINEAR"},{"input":4,"output":5,"interpolation":"LINEAR"},{"input":6,"output":7,"interpolation":"LINEAR"},{"input":8,"output":9,"interpolation":"LINEAR"},{"input":10,"output":11,"interpolation":"LINEAR"},{"input":12,"output":13,"interpolation":"LINEAR"},{"input":14,"output":15,"interpolation":"LINEAR"}],"channels":[{"sampler":0,"target":{"node":1,"path":"rotation"}},{"sampler":1,"target":{"node":1,"path":"translation"}},{"sampler":2,"target":{"node":1,"path":"scale"}},{"sampler":3,"target":{"node":6,"path":"rotation"}},{"sampler":4,"target":{"node":6,"path":"translation"}},{"sampler":5,"target":{"node":6,"path":"scale"}},{"sampler":6,"target":{"node":7,"path":"rotation"}},{"sampler":7,"target":{"node":7,"path":"translation"}}]}],"bufferViews":[{"buffer":0,"byteOffset":0,"byteLength":4},{"buffer":0,"byteOffset":4,"byteLength":16},{"buffer":0,"byteOffset":20,"byteLength":4},{"buffer":0,"byteOffset":24,"byteLength":12},{"buffer":0,"byteOffset":36,"byteLength":4},{"buffer":0,"byteOffset":40,"byteLength":12},{"buffer":0,"byteOffset":52,"byteLength":4},{"buffer":0,"byteOffset":56,"byteLength":16},{"buffer":0,"byteOffset":72,"byteLength":4},{"buffer":0,"byteOffset":76,"byteLength":12},{"buffer":0,"byteOffset":88,"byteLength":4},{"buffer":0,"byteOffset":92,"byteLength":12},{"buffer":0,"byteOffset":104,"byteLength":76},{"buffer":0,"byteOffset":180,"byteLength":304},{"buffer":0,"byteOffset":484,"byteLength":76},{"buffer":0,"byteOffset":560,"byteLength":228}],"buffers":[{"byteLength":788,"uri":"data:application/octet-stream;base64,"}],"accessors":[{"bufferView":0,"componentType":5126,"count":1,"max":[0],"min":[0],"type":"SCALAR"},{"bufferView":1,"componentType":5126,"count":1,"max":[0.04641612619161606,-0.7932823896408081,0.6054368615150452,0.044662874191999435],"min":[0.04641612619161606,-0.7932823896408081,0.6054368615150452,0.044662874191999435],"type":"VEC4"},{"bufferView":2,"componentType":5126,"count":1,"max":[0],"min":[0],"type":"SCALAR"},{"bufferView":3,"componentType":5126,"count":1,"max":[0.02250000089406967,-0.048124998807907104,-0.08500000089406967],"min":[0.02250000089406967,-0.048124998807907104,-0.08500000089406967],"type":"VEC3"},{"bufferView":4,"componentType":5126,"count":1,"max":[0],"min":[0],"type":"SCALAR"},{"bufferView":5,"componentType":5126,"count":1,"max":[1.5,2,1.5],"min":[1.5,2,1.5],"type":"VEC3"},{"bufferView":6,"componentType":5126,"count":1,"max":[0],"min":[0],"type":"SCALAR"},{"bufferView":7,"componentType":5126,"count":1,"max":[-0.3139558732509613,0.538138210773468,-0.5031136870384216,0.598928689956665],"min":[-0.3139558732509613,0.538138210773468,-0.5031136870384216,0.598928689956665],"type":"VEC4"},{"bufferView":8,"componentType":5126,"count":1,"max":[0],"min":[0],"type":"SCALAR"},{"bufferView":9,"componentType":5126,"count":1,"max":[-0.09437499940395355,-0.2512499988079071,-0.2862499952316284],"min":[-0.09437499940395355,-0.2512499988079071,-0.2862499952316284],"type":"VEC3"},{"bufferView":10,"componentType":5126,"count":1,"max":[0],"min":[0],"type":"SCALAR"},{"bufferView":11,"componentType":5126,"count":1,"max":[1.5,2,1.5],"min":[1.5,2,1.5],"type":"VEC3"},{"bufferView":12,"componentType":5126,"count":19,"max":[0.8333333134651184],"min":[0.0833333358168602],"type":"SCALAR"},{"bufferView":13,"componentType":5126,"count":19,"max":[0.1013227179646492,0.30482205748558044,0.10394847393035889,1],"min":[-0.6449809074401855,-0.061156127601861954,-0.08574546873569489,0.6930208206176758],"type":"VEC4"},{"bufferView":14,"componentType":5126,"count":19,"max":[0.7916666865348816],"min":[0.0416666679084301],"type":"SCALAR"},{"bufferView":15,"componentType":5126,"count":19,"max":[0.5,0.40062499046325684,1.3125],"min":[0.5,-0.0625,1.0306249856948853],"type":"VEC3"}]}