{"asset":{"version":"2.0","generator":"Blockbench 4.9.3 glTF exporter"},"scenes":[{"nodes":[12],"name":"blockbench_export"}],"scene":0,"nodes":[{"translation":[0.375,-0.6875,0],"name":"RightHand"},{"translation":[-0.375,0.8500000000000003,-0.4375],"name":"R","children":[0]},{"translation":[0,0,-0.0419921875],"name":"pull"},{"translation":[-0.00007401414195018496,0.16612840529272255,-0.17707307097695807],"name":"bolt","children":[2]},{"translation":[-0.5,-0.5,-0.5],"name":"bullet"},{"translation":[0,-0.264173125,-0.24899812500000001],"name":"magazine"},{"name":"mb","children":[4,5]},{"translation":[0,0.1625000000000003,-0.4375],"name":"xm8","children":[3,6]},{"translation":[0,0.02499999999999969,0.0625],"name":"bone","children":[1,7]},{"translation":[-0.375,-0.6875,0],"name":"LeftHand"},{"translation":[0.375,0.875,-0.375],"name":"l","children":[9]},{"translation":[0.5,0.3125,0.875],"name":"bone2","children":[8,10]},{"children":[11]}],"animations":[{"name":"reload_empty","samplers":[{"input":0,"output":1,"interpolation":"LINEAR"},{"input":2,"output":3,"interpolation":"LINEAR"},{"input":4,"output":5,"interpolation":"LINEAR"},{"input":6,"output":7,"interpolation":"LINEAR"},{"input":8,"output":9,"interpolation":"LINEAR"},{"input":10,"output":11,"interpolation":"LINEAR"},{"input":12,"output":13,"interpolation":"LINEAR"},{"input":14,"output":15,"interpolation":"LINEAR"},{"input":16,"output":17,"interpolation":"LINEAR"},{"input":18,"output":19,"interpolation":"LINEAR"},{"input":20,"output":21,"interpolation":"LINEAR"},{"input":22,"output":23,"interpolation":"LINEAR"},{"input":24,"output":25,"interpolation":"LINEAR"},{"input":26,"output":27,"interpolation":"LINEAR"},{"input":28,"output":29,"interpolation":"LINEAR"}],"channels":[{"sampler":0,"target":{"node":1,"path":"rotation"}},{"sampler":1,"target":{"node":1,"path":"translation"}},{"sampler":2,"target":{"node":1,"path":"scale"}},{"sampler":3,"target":{"node":10,"path":"rotation"}},{"sampler":4,"target":{"node":10,"path":"translation"}},{"sampler":5,"target":{"node":10,"path":"scale"}},{"sampler":6,"target":{"node":11,"path":"rotation"}},{"sampler":7,"target":{"node":11,"path":"translation"}},{"sampler":8,"target":{"node":8,"path":"rotation"}},{"sampler":9,"target":{"node":8,"path":"translation"}},{"sampler":10,"target":{"node":6,"path":"rotation"}},{"sampler":11,"target":{"node":6,"path":"translation"}},{"sampler":12,"target":{"node":3,"path":"rotation"}},{"sampler":13,"target":{"node":3,"path":"translation"}},{"sampler":14,"target":{"node":2,"path":"rotation"}}]}],"bufferViews":[{"buffer":0,"byteOffset":0,"byteLength":4},{"buffer":0,"byteOffset":4,"byteLength":16},{"buffer":0,"byteOffset":20,"byteLength":4},{"buffer":0,"byteOffset":24,"byteLength":12},{"buffer":0,"byteOffset":36,"byteLength":4},{"buffer":0,"byteOffset":40,"byteLength":12},{"buffer":0,"byteOffset":52,"byteLength":336},{"buffer":0,"byteOffset":388,"byteLength":1344},{"buffer":0,"byteOffset":1732,"byteLength":336},{"buffer":0,"byteOffset":2068,"byteLength":1008},{"buffer":0,"byteOffset":3076,"byteLength":4},{"buffer":0,"byteOffset":3080,"byteLength":12},{"buffer":0,"byteOffset":3092,"byteLength":340},{"buffer":0,"byteOffset":3432,"byteLength":1360},{"buffer":0,"byteOffset":4792,"byteLength":340},{"buffer":0,"byteOffset":5132,"byteLength":1020},{"buffer":0,"byteOffset":6152,"byteLength":252},{"buffer":0,"byteOffset":6404,"byteLength":1008},{"buffer":0,"byteOffset":7412,"byteLength":252},{"buffer":0,"byteOffset":7664,"byteLength":756},{"buffer":0,"byteOffset":8420,"byteLength":128},{"buffer":0,"byteOffset":8548,"byteLength":512},{"buffer":0,"byteOffset":9060,"byteLength":128},{"buffer":0,"byteOffset":9188,"byteLength":384},{"buffer":0,"byteOffset":9572,"byteLength":4},{"buffer":0,"byteOffset":9576,"byteLength":16},{"buffer":0,"byteOffset":9592,"byteLength":32},{"buffer":0,"byteOffset":9624,"byteLength":96},{"buffer":0,"byteOffset":9720,"byteLength":36},{"buffer":0,"byteOffset":9756,"byteLength":144}],"buffers":[{"byteLength":9900,"uri":"data:application/octet-stream;base64,"}],"accessors":[{"bufferView":0,"componentType":5126,"count":1,"max":[0],"min":[0],"type":"SCALAR"},{"bufferView":1,"componentType":5126,"count":1,"max":[0.041980382055044174,-0.7506771683692932,0.658230721950531,0.03812823444604874],"min":[0.041980382055044174,-0.7506771683692932,0.658230721950531,0.03812823444604874],"type":"VEC4"},{"bufferView":2,"componentType":5126,"count":1,"max":[0],"min":[0],"type":"SCALAR"},{"bufferView":3,"componentType":5126,"count":1,"max":[0.015625,-0.02500000037252903,-0.09375],"min":[0.015625,-0.02500000037252903,-0.09375],"type":"VEC3"},{"bufferView":4,"componentType":5126,"count":1,"max":[0],"min":[0],"type":"SCALAR"},{"bufferView":5,"componentType":5126,"count":1,"max":[1,1.5,1],"min":[1,1.5,1],"type":"VEC3"},{"bufferView":6,"componentType":5126,"count":84,"max":[3.5416667461395264],"min":[0.0833333358168602],"type":"SCALAR"},{"bufferView":7,"componentType":5126,"count":84,"max":[0.014278928749263287,0.8492447137832642,-0.439818799495697,0.5543631315231323],"min":[-0.3087591826915741,0.5618165135383606,-0.7290194034576416,0.23996543884277344],"type":"VEC4"},{"bufferView":8,"componentType":5126,"count":84,"max":[3.5],"min":[0.0416666679084301],"type":"SCALAR"},{"bufferView":9,"componentType":5126,"count":84,"max":[-0.015625,0.32249999046325684,-0.18000000715255737],"min":[-0.8862500190734863,-0.5093749761581421,-0.8125],"type":"VEC3"},{"bufferView":10,"componentType":5126,"count":1,"max":[0.0416666679084301],"min":[0.0416666679084301],"type":"SCALAR"},{"bufferView":11,"componentType":5126,"count":1,"max":[1,1.5,1],"min":[1,1.5,1],"type":"VEC3"},{"bufferView":12,"componentType":5126,"count":85,"max":[3.5833332538604736],"min":[0.0833333358168602],"type":"SCALAR"},{"bufferView":13,"componentType":5126,"count":85,"max":[0.03327031433582306,0.021775633096694946,0.054036110639572144,1],"min":[-0.037137046456336975,-0.019669970497488976,-0.014112965203821659,0.9980789422988892],"type":"VEC4"},{"bufferView":14,"componentType":5126,"count":85,"max":[3.5416667461395264],"min":[0.0416666679084301],"type":"SCALAR"},{"bufferView":15,"componentType":5126,"count":85,"max":[0.5,0.32499998807907104,0.90625],"min":[0.5,0.27937498688697815,0.7868750095367432],"type":"VEC3"},{"bufferView":16,"componentType":5126,"count":63,"max":[2.6666667461395264],"min":[0.0833333358168602],"type":"SCALAR"},{"bufferView":17,"componentType":5126,"count":63,"max":[0.21888373792171478,0.08961863070726395,0,1],"min":[0,0,-0.29958242177963257,0.9243202805519104],"type":"VEC4"},{"bufferView":18,"componentType":5126,"count":63,"max":[2.625],"min":[0.0416666679084301],"type":"SCALAR"},{"bufferView":19,"componentType":5126,"count":63,"max":[0.010625000111758709,0.10312499850988388,0.24062499403953552],"min":[-0.0024999999441206455,-0.0006249999860301614,0.0625],"type":"VEC3"},{"bufferView":20,"componentType":5126,"count":32,"max":[1.8333333730697632],"min":[0.5416666865348816],"type":"SCALAR"},{"bufferView":21,"componentType":5126,"count":32,"max":[0.001066928030923009,0.003270812565460801,0,1],"min":[-0.27841201424598694,-0.18833217024803162,-0.1850357949733734,0.9319436550140381],"type":"VEC4"},{"bufferView":22,"componentType":5126,"count":32,"max":[1.7916666269302368],"min":[0.5],"type":"SCALAR"},{"bufferView":23,"componentType":5126,"count":32,"max":[0.026249999180436134,0,0.15937499701976776],"min":[-0.3031249940395355,-0.8349999785423279,0],"type":"VEC3"},{"bufferView":24,"componentType":5126,"count":1,"max":[2.8333332538604736],"min":[2.8333332538604736],"type":"SCALAR"},{"bufferView":25,"componentType":5126,"count":1,"max":[0,0,0,1],"min":[0,0,0,1],"type":"VEC4"},{"bufferView":26,"componentType":5126,"count":8,"max":[3.125],"min":[2.8333332538604736],"type":"SCALAR"},{"bufferView":27,"componentType":5126,"count":8,"max":[-0.00007401414040941745,0.16612841188907623,0.13542692363262177],"min":[-0.00007401414040941745,0.16612841188907623,-0.17707307636737823],"type":"VEC3"},{"bufferView":28,"componentType":5126,"count":9,"max":[3.0416667461395264],"min":[2.7083332538604736],"type":"SCALAR"},{"bufferView":29,"componentType":5126,"count":9,"max":[0,0.7660444378852844,0,1],"min":[0,0,0,0.6427876353263855],"type":"VEC4"}]}