{"asset":{"version":"2.0","generator":"Blockbench 4.9.3 glTF exporter"},"scenes":[{"nodes":[12],"name":"blockbench_export"}],"scene":0,"nodes":[{"translation":[0.375,-0.6875,0],"name":"RightHand"},{"translation":[-0.375,0.8500000000000003,-0.4375],"name":"R","children":[0]},{"translation":[0,0,-0.0419921875],"name":"pull"},{"translation":[-0.00007401414195018496,0.16612840529272255,-0.17707307097695807],"name":"bolt","children":[2]},{"translation":[-0.5,-0.5,-0.5],"name":"bullet"},{"translation":[0,-0.264173125,-0.24899812500000001],"name":"magazine"},{"name":"mb","children":[4,5]},{"translation":[0,0.1625000000000003,-0.4375],"name":"xm8","children":[3,6]},{"translation":[0,0.02499999999999969,0.0625],"name":"bone","children":[1,7]},{"translation":[-0.375,-0.6875,0],"name":"LeftHand"},{"translation":[0.375,0.875,-0.375],"name":"l","children":[9]},{"translation":[0.5,0.3125,0.875],"name":"bone2","children":[8,10]},{"children":[11]}],"animations":[{"name":"inspect","samplers":[{"input":0,"output":1,"interpolation":"LINEAR"},{"input":2,"output":3,"interpolation":"LINEAR"},{"input":4,"output":5,"interpolation":"LINEAR"},{"input":6,"output":7,"interpolation":"LINEAR"},{"input":8,"output":9,"interpolation":"LINEAR"},{"input":10,"output":11,"interpolation":"LINEAR"},{"input":12,"output":13,"interpolation":"LINEAR"},{"input":14,"output":15,"interpolation":"LINEAR"}],"channels":[{"sampler":0,"target":{"node":1,"path":"rotation"}},{"sampler":1,"target":{"node":1,"path":"translation"}},{"sampler":2,"target":{"node":1,"path":"scale"}},{"sampler":3,"target":{"node":10,"path":"rotation"}},{"sampler":4,"target":{"node":10,"path":"translation"}},{"sampler":5,"target":{"node":10,"path":"scale"}},{"sampler":6,"target":{"node":11,"path":"rotation"}},{"sampler":7,"target":{"node":11,"path":"translation"}}]}],"bufferViews":[{"buffer":0,"byteOffset":0,"byteLength":4},{"buffer":0,"byteOffset":4,"byteLength":16},{"buffer":0,"byteOffset":20,"byteLength":4},{"buffer":0,"byteOffset":24,"byteLength":12},{"buffer":0,"byteOffset":36,"byteLength":4},{"buffer":0,"byteOffset":40,"byteLength":12},{"buffer":0,"byteOffset":52,"byteLength":4},{"buffer":0,"byteOffset":56,"byteLength":16},{"buffer":0,"byteOffset":72,"byteLength":4},{"buffer":0,"byteOffset":76,"byteLength":12},{"buffer":0,"byteOffset":88,"byteLength":4},{"buffer":0,"byteOffset":92,"byteLength":12},{"buffer":0,"byteOffset":104,"byteLength":664},{"buffer":0,"byteOffset":768,"byteLength":2656},{"buffer":0,"byteOffset":3424,"byteLength":664},{"buffer":0,"byteOffset":4088,"byteLength":1992}],"buffers":[{"byteLength":6080,"uri":"data:application/octet-stream;base64,"}],"accessors":[{"bufferView":0,"componentType":5126,"count":1,"max":[0.0416666679084301],"min":[0.0416666679084301],"type":"SCALAR"},{"bufferView":1,"componentType":5126,"count":1,"max":[0.041980382055044174,-0.7506771683692932,0.658230721950531,0.03812823444604874],"min":[0.041980382055044174,-0.7506771683692932,0.658230721950531,0.03812823444604874],"type":"VEC4"},{"bufferView":2,"componentType":5126,"count":1,"max":[0.0416666679084301],"min":[0.0416666679084301],"type":"SCALAR"},{"bufferView":3,"componentType":5126,"count":1,"max":[0.015625,-0.02500000037252903,-0.09375],"min":[0.015625,-0.02500000037252903,-0.09375],"type":"VEC3"},{"bufferView":4,"componentType":5126,"count":1,"max":[0.0416666679084301],"min":[0.0416666679084301],"type":"SCALAR"},{"bufferView":5,"componentType":5126,"count":1,"max":[1,1.5,1],"min":[1,1.5,1],"type":"VEC3"},{"bufferView":6,"componentType":5126,"count":1,"max":[0.0416666679084301],"min":[0.0416666679084301],"type":"SCALAR"},{"bufferView":7,"componentType":5126,"count":1,"max":[-0.3059118092060089,0.5660068988800049,-0.5279542803764343,0.5543631315231323],"min":[-0.3059118092060089,0.5660068988800049,-0.5279542803764343,0.5543631315231323],"type":"VEC4"},{"bufferView":8,"componentType":5126,"count":1,"max":[0.0416666679084301],"min":[0.0416666679084301],"type":"SCALAR"},{"bufferView":9,"componentType":5126,"count":1,"max":[-0.015625,0.125,-0.8125],"min":[-0.015625,0.125,-0.8125],"type":"VEC3"},{"bufferView":10,"componentType":5126,"count":1,"max":[0.0416666679084301],"min":[0.0416666679084301],"type":"SCALAR"},{"bufferView":11,"componentType":5126,"count":1,"max":[1,1.5,1],"min":[1,1.5,1],"type":"VEC3"},{"bufferView":12,"componentType":5126,"count":166,"max":[6.958333492279053],"min":[0.0833333358168602],"type":"SCALAR"},{"bufferView":13,"componentType":5126,"count":166,"max":[0.2497320920228958,0.21579143404960632,0.5358164310455322,1],"min":[-0.02191774919629097,-0.16667242348194122,-0.18470080196857452,0.7913978695869446],"type":"VEC4"},{"bufferView":14,"componentType":5126,"count":166,"max":[6.916666507720947],"min":[0.0416666679084301],"type":"SCALAR"},{"bufferView":15,"componentType":5126,"count":166,"max":[0.5006250143051147,0.3449999988079071,0.9318749904632568],"min":[0.4925000071525574,0.2993749976158142,0.75],"type":"VEC3"}]}