{"asset":{"version":"2.0","generator":"Blockbench 4.9.3 glTF exporter"},"scenes":[{"nodes":[12],"name":"blockbench_export"}],"scene":0,"nodes":[{"translation":[0.375,-0.6875,0],"name":"RightHand"},{"translation":[-0.375,0.8500000000000003,-0.4375],"name":"R","children":[0]},{"translation":[0,0,-0.0419921875],"name":"pull"},{"translation":[-0.00007401414195018496,0.16612840529272255,-0.17707307097695807],"name":"bolt","children":[2]},{"translation":[-0.5,-0.5,-0.5],"name":"bullet"},{"translation":[0,-0.264173125,-0.24899812500000001],"name":"magazine"},{"name":"mb","children":[4,5]},{"translation":[0,0.1625000000000003,-0.4375],"name":"xm8","children":[3,6]},{"translation":[0,0.02499999999999969,0.0625],"name":"bone","children":[1,7]},{"translation":[-0.375,-0.6875,0],"name":"LeftHand"},{"translation":[0.375,0.875,-0.375],"name":"l","children":[9]},{"translation":[0.5,0.3125,0.875],"name":"bone2","children":[8,10]},{"children":[11]}],"animations":[{"name":"draw","samplers":[{"input":0,"output":1,"interpolation":"LINEAR"},{"input":2,"output":3,"interpolation":"LINEAR"},{"input":4,"output":5,"interpolation":"LINEAR"},{"input":6,"output":7,"interpolation":"LINEAR"},{"input":8,"output":9,"interpolation":"LINEAR"},{"input":10,"output":11,"interpolation":"LINEAR"},{"input":12,"output":13,"interpolation":"LINEAR"},{"input":14,"output":15,"interpolation":"LINEAR"},{"input":16,"output":17,"interpolation":"LINEAR"},{"input":18,"output":19,"interpolation":"LINEAR"}],"channels":[{"sampler":0,"target":{"node":1,"path":"rotation"}},{"sampler":1,"target":{"node":1,"path":"translation"}},{"sampler":2,"target":{"node":1,"path":"scale"}},{"sampler":3,"target":{"node":10,"path":"rotation"}},{"sampler":4,"target":{"node":10,"path":"translation"}},{"sampler":5,"target":{"node":10,"path":"scale"}},{"sampler":6,"target":{"node":11,"path":"rotation"}},{"sampler":7,"target":{"node":11,"path":"translation"}},{"sampler":8,"target":{"node":8,"path":"rotation"}},{"sampler":9,"target":{"node":8,"path":"translation"}}]}],"bufferViews":[{"buffer":0,"byteOffset":0,"byteLength":4},{"buffer":0,"byteOffset":4,"byteLength":16},{"buffer":0,"byteOffset":20,"byteLength":4},{"buffer":0,"byteOffset":24,"byteLength":12},{"buffer":0,"byteOffset":36,"byteLength":4},{"buffer":0,"byteOffset":40,"byteLength":12},{"buffer":0,"byteOffset":52,"byteLength":88},{"buffer":0,"byteOffset":140,"byteLength":352},{"buffer":0,"byteOffset":492,"byteLength":4},{"buffer":0,"byteOffset":496,"byteLength":12},{"buffer":0,"byteOffset":508,"byteLength":4},{"buffer":0,"byteOffset":512,"byteLength":12},{"buffer":0,"byteOffset":524,"byteLength":88},{"buffer":0,"byteOffset":612,"byteLength":352},{"buffer":0,"byteOffset":964,"byteLength":88},{"buffer":0,"byteOffset":1052,"byteLength":264},{"buffer":0,"byteOffset":1316,"byteLength":72},{"buffer":0,"byteOffset":1388,"byteLength":288},{"buffer":0,"byteOffset":1676,"byteLength":4},{"buffer":0,"byteOffset":1680,"byteLength":12}],"buffers":[{"byteLength":1692,"uri":"data:application/octet-stream;base64,"}],"accessors":[{"bufferView":0,"componentType":5126,"count":1,"max":[0],"min":[0],"type":"SCALAR"},{"bufferView":1,"componentType":5126,"count":1,"max":[0.041980382055044174,-0.7506771683692932,0.658230721950531,0.03812823444604874],"min":[0.041980382055044174,-0.7506771683692932,0.658230721950531,0.03812823444604874],"type":"VEC4"},{"bufferView":2,"componentType":5126,"count":1,"max":[0],"min":[0],"type":"SCALAR"},{"bufferView":3,"componentType":5126,"count":1,"max":[0.015625,-0.02500000037252903,-0.09375],"min":[0.015625,-0.02500000037252903,-0.09375],"type":"VEC3"},{"bufferView":4,"componentType":5126,"count":1,"max":[0],"min":[0],"type":"SCALAR"},{"bufferView":5,"componentType":5126,"count":1,"max":[1,1.5,1],"min":[1,1.5,1],"type":"VEC3"},{"bufferView":6,"componentType":5126,"count":22,"max":[0.9583333134651184],"min":[0.0833333358168602],"type":"SCALAR"},{"bufferView":7,"componentType":5126,"count":22,"max":[-0.24649323523044586,0.5676301121711731,-0.5193535685539246,0.5945702791213989],"min":[-0.30789583921432495,0.555871307849884,-0.532494306564331,0.5539296269416809],"type":"VEC4"},{"bufferView":8,"componentType":5126,"count":1,"max":[0.0416666679084301],"min":[0.0416666679084301],"type":"SCALAR"},{"bufferView":9,"componentType":5126,"count":1,"max":[-0.015625,0.125,-0.8125],"min":[-0.015625,0.125,-0.8125],"type":"VEC3"},{"bufferView":10,"componentType":5126,"count":1,"max":[0],"min":[0],"type":"SCALAR"},{"bufferView":11,"componentType":5126,"count":1,"max":[1,1.5,1],"min":[1,1.5,1],"type":"VEC3"},{"bufferView":12,"componentType":5126,"count":22,"max":[0.9583333134651184],"min":[0.0833333358168602],"type":"SCALAR"},{"bufferView":13,"componentType":5126,"count":22,"max":[0.05155344307422638,0.29176461696624756,0.06463514268398285,1],"min":[-0.5083021521568298,-0.0431685708463192,-0.0594722218811512,0.8076661825180054],"type":"VEC4"},{"bufferView":14,"componentType":5126,"count":22,"max":[0.9166666865348816],"min":[0.0416666679084301],"type":"SCALAR"},{"bufferView":15,"componentType":5126,"count":22,"max":[0.5,0.37687501311302185,1.2893749475479126],"min":[0.5,-0.24187499284744263,0.7037500143051147],"type":"VEC3"},{"bufferView":16,"componentType":5126,"count":18,"max":[0.7916666865348816],"min":[0.0833333358168602],"type":"SCALAR"},{"bufferView":17,"componentType":5126,"count":18,"max":[0,0,0.02181488461792469,1],"min":[0,0,-0.030538512393832207,0.9995335936546326],"type":"VEC4"},{"bufferView":18,"componentType":5126,"count":1,"max":[0.0416666679084301],"min":[0.0416666679084301],"type":"SCALAR"},{"bufferView":19,"componentType":5126,"count":1,"max":[0,0.02500000037252903,0.0625],"min":[0,0.02500000037252903,0.0625],"type":"VEC3"}]}