{"asset":{"version":"2.0","generator":"Blockbench 4.9.3 glTF exporter"},"scenes":[{"nodes":[12],"name":"blockbench_export"}],"scene":0,"nodes":[{"translation":[0.375,-0.6875,0],"name":"RightHand"},{"translation":[-0.375,0.8500000000000003,-0.4375],"name":"R","children":[0]},{"translation":[0,0,-0.0419921875],"name":"pull"},{"translation":[-0.00007401414195018496,0.16612840529272255,-0.17707307097695807],"name":"bolt","children":[2]},{"translation":[-0.5,-0.5,-0.5],"name":"bullet"},{"translation":[0,-0.264173125,-0.24899812500000001],"name":"magazine"},{"name":"mb","children":[4,5]},{"translation":[0,0.1625000000000003,-0.4375],"name":"xm8","children":[3,6]},{"translation":[0,0.02499999999999969,0.0625],"name":"bone","children":[1,7]},{"translation":[-0.375,-0.6875,0],"name":"LeftHand"},{"translation":[0.375,0.875,-0.375],"name":"l","children":[9]},{"translation":[0.5,0.3125,0.875],"name":"bone2","children":[8,10]},{"children":[11]}],"animations":[{"name":"static_state","samplers":[{"input":0,"output":1,"interpolation":"LINEAR"},{"input":2,"output":3,"interpolation":"LINEAR"},{"input":4,"output":5,"interpolation":"LINEAR"},{"input":6,"output":7,"interpolation":"LINEAR"},{"input":8,"output":9,"interpolation":"LINEAR"},{"input":10,"output":11,"interpolation":"LINEAR"}],"channels":[{"sampler":0,"target":{"node":1,"path":"rotation"}},{"sampler":1,"target":{"node":1,"path":"translation"}},{"sampler":2,"target":{"node":1,"path":"scale"}},{"sampler":3,"target":{"node":10,"path":"rotation"}},{"sampler":4,"target":{"node":10,"path":"translation"}},{"sampler":5,"target":{"node":10,"path":"scale"}}]}],"bufferViews":[{"buffer":0,"byteOffset":0,"byteLength":4},{"buffer":0,"byteOffset":4,"byteLength":16},{"buffer":0,"byteOffset":20,"byteLength":4},{"buffer":0,"byteOffset":24,"byteLength":12},{"buffer":0,"byteOffset":36,"byteLength":4},{"buffer":0,"byteOffset":40,"byteLength":12},{"buffer":0,"byteOffset":52,"byteLength":4},{"buffer":0,"byteOffset":56,"byteLength":16},{"buffer":0,"byteOffset":72,"byteLength":4},{"buffer":0,"byteOffset":76,"byteLength":12},{"buffer":0,"byteOffset":88,"byteLength":4},{"buffer":0,"byteOffset":92,"byteLength":12}],"buffers":[{"byteLength":104,"uri":"data:application/octet-stream;base64,"}],"accessors":[{"bufferView":0,"componentType":5126,"count":1,"max":[0],"min":[0],"type":"SCALAR"},{"bufferView":1,"componentType":5126,"count":1,"max":[0.04198127239942551,-0.7506530284881592,0.6582608819007874,0.03808144852519035],"min":[0.04198127239942551,-0.7506530284881592,0.6582608819007874,0.03808144852519035],"type":"VEC4"},{"bufferView":2,"componentType":5126,"count":1,"max":[0],"min":[0],"type":"SCALAR"},{"bufferView":3,"componentType":5126,"count":1,"max":[0.015625,-0.02500000037252903,-0.09375],"min":[0.015625,-0.02500000037252903,-0.09375],"type":"VEC3"},{"bufferView":4,"componentType":5126,"count":1,"max":[0],"min":[0],"type":"SCALAR"},{"bufferView":5,"componentType":5126,"count":1,"max":[1,1.5,1],"min":[1,1.5,1],"type":"VEC3"},{"bufferView":6,"componentType":5126,"count":1,"max":[0],"min":[0],"type":"SCALAR"},{"bufferView":7,"componentType":5126,"count":1,"max":[-0.3059441149234772,0.5660082101821899,-0.5279227495193481,0.5543739199638367],"min":[-0.3059441149234772,0.5660082101821899,-0.5279227495193481,0.5543739199638367],"type":"VEC4"},{"bufferView":8,"componentType":5126,"count":1,"max":[0],"min":[0],"type":"SCALAR"},{"bufferView":9,"componentType":5126,"count":1,"max":[-0.015625,0.125,-0.8125],"min":[-0.015625,0.125,-0.8125],"type":"VEC3"},{"bufferView":10,"componentType":5126,"count":1,"max":[0],"min":[0],"type":"SCALAR"},{"bufferView":11,"componentType":5126,"count":1,"max":[1,1.5,1],"min":[1,1.5,1],"type":"VEC3"}]}